<?xml version="1.0" encoding="UTF-8" standalone="no"?>
<svg width="1127px" height="174px" viewBox="0 0 1127 174" version="1.1" xmlns="http://www.w3.org/2000/svg" xmlns:xlink="http://www.w3.org/1999/xlink" xmlns:sketch="http://www.bohemiancoding.com/sketch/ns">
    <!-- Generator: Sketch 3.3.2 (12043) - http://www.bohemiancoding.com/sketch -->
    <title>Group</title>
    <desc>Created with Sketch.</desc>
    <defs></defs>
    <g id="Page-1" stroke="none" stroke-width="1" fill="none" fill-rule="evenodd" sketch:type="MSPage">
        <g id="Artboard-1" sketch:type="MSArtboardGroup" transform="translate(-446.000000, -596.000000)">
            <g id="Group" sketch:type="MSLayerGroup" transform="translate(446.000000, 596.000000)">
                <path d="M593.076391,51.8869518 L635.374681,51.8869518 C635.374681,33.8801704 630.958525,20.7667328 622.126079,12.5462456 C613.293633,4.32575848 598.991768,0.21557655 579.220054,0.21557655 C560.096594,0.21557655 545.835244,4.67805979 536.435577,13.6031601 C527.03591,22.5282605 522.336146,35.5242643 522.336146,52.5915615 C522.336146,62.4561461 524.0783,70.4416424 527.562659,76.54829 C531.047019,82.6549376 535.42266,87.5871559 540.689715,91.3450929 C545.95677,95.1030299 551.669413,98.1563079 557.827815,100.505019 C563.986218,102.853729 569.698861,105.16326 574.965916,107.43368 C580.232971,109.7041 584.608612,112.444222 588.092972,115.654126 C591.577331,118.864031 593.319484,123.20908 593.319484,128.689405 C593.319484,133.230246 592.063513,137.066415 589.551533,140.19803 C587.039553,143.329644 583.433701,144.895427 578.733867,144.895427 C574.35816,144.895427 570.792822,143.447077 568.037748,140.550334 C565.282673,137.653591 563.905156,132.603939 563.905156,125.401227 L563.905156,121.408439 L520.148304,121.408439 L520.148304,127.280186 C520.148304,136.048705 521.44479,143.407888 524.037802,149.357955 C526.630813,155.308022 530.398727,160.122807 535.341655,163.802453 C540.284584,167.4821 546.361864,170.065643 553.573677,171.55316 C560.785491,173.040676 569.091106,173.784423 578.490773,173.784423 C598.42455,173.784423 613.658265,169.752531 624.192375,161.688624 C634.726484,153.624718 639.99346,140.667859 639.99346,122.817658 C639.99346,112.639912 638.170276,104.380403 634.523854,98.0388847 C630.877431,91.697366 626.299214,86.5694248 620.789064,82.6549071 C615.278914,78.7403894 609.363695,75.5696776 603.043229,73.1426766 C596.722764,70.7156757 590.807545,68.3278557 585.297395,65.9791451 C579.787245,63.6304344 575.209028,60.8511686 571.562605,57.6412641 C567.916183,54.4313595 566.092999,50.0863101 566.092999,44.6059853 C566.092999,40.8480483 567.227424,37.442469 569.496309,34.3891452 C571.765195,31.3358214 575.330532,29.8091824 580.192429,29.8091824 C584.568136,29.8091824 587.809352,31.5706889 589.916174,35.0937549 C592.022996,38.6168208 593.076391,42.8835811 593.076391,47.8941637 L593.076391,51.8869518 Z M656.037639,3.50375498 L656.037639,171.200855 L701.253053,171.200855 L701.253053,102.149108 L728.965726,102.149108 L728.965726,171.200855 L774.18114,171.200855 L774.18114,3.50375498 L728.965726,3.50375498 L728.965726,65.0396655 L701.253053,65.0396655 L701.253053,3.50375498 L656.037639,3.50375498 Z M801.529173,3.50375498 L801.529173,171.200855 L868.717549,171.200855 L868.717549,144.330019 L832.18598,144.330019 L832.18598,30.3745904 L868.717549,30.3745904 L868.717549,3.50375498 L801.529173,3.50375498 Z M989.359512,3.50375498 L989.359512,171.200855 L922.171136,171.200855 L922.171136,144.330019 L958.702705,144.330019 L958.702705,30.3745904 L922.171136,30.3745904 L922.171136,3.50375498 L989.359512,3.50375498 Z M808.281773,9.04929397 L808.281773,166.255539 L861.627318,166.255539 L861.627318,150.118427 L825.433379,150.118427 L825.433379,24.4288427 L861.627318,24.4288427 L861.627318,9.04929397 L808.281773,9.04929397 Z M982.269281,9.04929397 L982.269281,166.255539 L928.923736,166.255539 L928.923736,150.118427 L965.117676,150.118427 L965.117676,24.4288427 L928.923736,24.4288427 L928.923736,9.04929397 L982.269281,9.04929397 Z M1046.93219,40.6131972 L1046.93219,171.200855 L1092.1476,171.200855 L1092.1476,40.6131972 L1126.18071,40.6131972 L1126.18071,3.50375498 L1013.38527,3.50375498 L1013.38527,40.6131972 L1046.93219,40.6131972 Z" id="TECH/SH[•]T" fill="#484F5F" sketch:type="MSShapeGroup"></path>
                <path d="M34.3662137,40.5871006 L34.3662137,171.174758 L79.5816276,171.174758 L79.5816276,40.5871006 L113.614735,40.5871006 L113.614735,3.47765832 L0.819293708,3.47765832 L0.819293708,40.5871006 L34.3662137,40.5871006 Z" id="Path-Copy-7" fill="#D20101" sketch:type="MSShapeGroup"></path>
                <path d="M122.366105,3.47765832 L122.366105,171.174758 L227.38255,171.174758 L227.38255,135.474535 L167.581519,135.474535 L167.581519,102.123011 L221.548303,102.123011 L221.548303,67.8320075 L167.581519,67.8320075 L167.581519,39.1778812 L225.194708,39.1778812 L225.194708,3.47765832 L122.366105,3.47765832 Z" id="Path-Copy-4" fill="#D20101" sketch:type="MSShapeGroup"></path>
                <path d="M314.923265,54.4705206 L314.923265,63.8653161 L358.680117,63.8653161 L358.680117,53.2961711 C358.680117,45.1539743 357.667237,37.833936 355.641447,31.3358367 C353.615657,24.8377373 350.374441,19.2792055 345.917702,14.6600746 C341.460963,10.0409438 335.66729,6.47878608 328.536508,3.97349475 C321.405726,1.46820342 312.735474,0.21557655 302.52549,0.21557655 C290.856938,0.21557655 281.05226,1.74221555 273.111162,4.79553936 C265.170064,7.84886316 258.768663,12.8202261 253.906766,19.7097772 C249.044869,26.5993284 245.601077,35.602584 243.575287,46.7198143 C241.549496,57.8370445 240.536616,71.3810726 240.536616,87.3523048 C240.536616,103.010376 241.387436,116.358681 243.0891,127.397621 C244.790763,138.436561 247.910434,147.439816 252.448204,154.407658 C256.985974,161.375499 263.306345,166.346862 271.409507,169.321896 C279.512668,172.296929 289.884559,173.784423 302.52549,173.784423 C309.818336,173.784423 316.908495,173.040676 323.796182,171.55316 C330.68387,170.065643 336.801665,167.168943 342.149751,162.862974 C347.497837,158.557004 351.792448,152.646171 355.033713,145.130297 C358.274977,137.614423 359.895585,127.984854 359.895585,116.241301 L359.895585,103.793197 L316.138733,103.793197 C316.138733,111.778813 315.936157,118.394249 315.530999,123.639702 C315.125841,128.885156 314.437083,133.073627 313.464703,136.205241 C312.492324,139.336856 311.114807,141.568097 309.332112,142.899033 C307.549416,144.229969 305.280565,144.895427 302.52549,144.895427 C299.122163,144.895427 296.407644,144.034246 294.381854,142.311859 C292.356064,140.589471 290.816486,137.536193 289.763075,133.151933 C288.709664,128.767673 288.020906,122.85684 287.696779,115.419256 C287.372653,107.981673 287.210592,98.6261158 287.210592,87.3523048 C287.210592,76.0784939 287.372653,66.7229369 287.696779,59.2853533 C288.020906,51.8477696 288.709664,45.9369366 289.763075,41.5526768 C290.816486,37.1684169 292.356064,34.1151389 294.381854,32.3927511 C296.407644,30.6703634 299.122163,29.8091824 302.52549,29.8091824 C306.901197,29.8091824 310.061383,31.5315443 312.006142,34.9763199 C313.9509,38.4210955 314.923265,44.9190974 314.923265,54.4705206 L314.923265,54.4705206 Z" id="Path-Copy-5" fill="#D20101" sketch:type="MSShapeGroup"></path>
                <path d="M375.588629,3.47765832 L375.588629,171.174758 L420.804043,171.174758 L420.804043,102.123011 L448.516716,102.123011 L448.516716,171.174758 L493.73213,171.174758 L493.73213,3.47765832 L448.516716,3.47765832 L448.516716,65.0135689 L420.804043,65.0135689 L420.804043,3.47765832 L375.588629,3.47765832 Z" id="Path-Copy-6" fill="#D20101" sketch:type="MSShapeGroup"></path>
                <path d="M854.825543,103.008427 C857.050641,107.999089 860.07037,112.33706 863.884823,116.022472 C867.699276,119.707884 872.189137,122.625457 877.354542,124.775281 C882.519947,126.925104 888.042873,128 893.923488,128 C899.804103,128 905.327029,126.925104 910.492434,124.775281 C915.657839,122.625457 920.1477,119.707884 923.962153,116.022472 C927.776606,112.33706 930.796335,107.999089 933.021433,103.008427 C935.24653,98.0177653 936.359062,92.6816763 936.359062,87 C936.359062,81.3183237 935.24653,75.9822347 933.021433,70.991573 C930.796335,66.0009114 927.776606,61.6629398 923.962153,57.9775281 C920.1477,54.2921164 915.657839,51.3745426 910.492434,49.2247191 C905.327029,47.0748956 899.804103,46 893.923488,46 C888.042873,46 882.519947,47.0748956 877.354542,49.2247191 C872.189137,51.3745426 867.699276,54.2921164 863.884823,57.9775281 C860.07037,61.6629398 857.050641,66.0009114 854.825543,70.991573 C852.600446,75.9822347 851.487914,81.3183237 851.487914,87 C851.487914,92.6816763 852.600446,98.0177653 854.825543,103.008427 Z" id="Path-Copy-8" fill="#D20101" sketch:type="MSShapeGroup"></path>
            </g>
        </g>
    </g>
</svg>