<svg xmlns="http://www.w3.org/2000/svg" viewBox="0 0 1828.51 789.5"><title>bg-stars</title><g opacity="0.5" style="isolation:isolate"><path d="M604,129.55a3,3,0,1,0,3,3A3,3,0,0,0,604,129.55Zm89.5,108.87a1.5,1.5,0,1,0,1.5,1.5A1.5,1.5,0,0,0,693.46,238.42ZM889,53.66a5,5,0,1,0,5,5A5,5,0,0,0,889,53.66Zm349-29a4,4,0,1,0,4,4A4,4,0,0,0,1238,24.68ZM1000,357.29a3,3,0,1,0,3,3A3,3,0,0,0,1000,357.29Zm16-224.74a3,3,0,1,0,3,3A3,3,0,0,0,1016,132.55Zm372,47.94a4,4,0,1,0,4,4A4,4,0,0,0,1388,180.49Zm279-99.88a6,6,0,1,0,6,6A6,6,0,0,0,1667,80.61Zm205,41.94a3,3,0,1,0,3,3A3,3,0,0,0,1872,122.56ZM1630,272.37a2,2,0,1,0,2,2A2,2,0,0,0,1630,272.37ZM115.94,89.61a6,6,0,1,0,6,6A6,6,0,0,0,115.94,89.61ZM67.44,310.35a1.48,1.48,0,1,0,1.5,1.48A1.49,1.49,0,0,0,67.44,310.35ZM332.95,145.54a4,4,0,1,0,4,4A4,4,0,0,0,332.95,145.54Zm96,225.71a4,4,0,1,0,4,4A4,4,0,0,0,429,371.25ZM768,787a4,4,0,1,0,4,4A4,4,0,0,0,768,787ZM241.44,637.19a1.5,1.5,0,1,0,1.5,1.5A1.5,1.5,0,0,0,241.44,637.19ZM1309,769.7a6,6,0,1,0,6,6A6,6,0,0,0,1309,769.7Zm316-107.59a3,3,0,1,0,3,3A3,3,0,0,0,1625,662.11Zm229-119.84a4,4,0,1,0,4,4A4,4,0,0,0,1854,542.27Zm-669,27.08a4,4,0,1,0,4,4A4,4,0,0,0,1185,569.35ZM565,605.14a3,3,0,1,0,3,3A3,3,0,0,0,565,605.14ZM952,727.07a3,3,0,1,0,3,3A3,3,0,0,0,952,727.07Zm-89.5-169.84a1.5,1.5,0,1,0,1.5,1.5A1.5,1.5,0,0,0,862.47,557.23ZM1669,469.32a4,4,0,1,0,4,4A4,4,0,0,0,1669,469.32Z" transform="translate(-46.49 -5.5)" fill="#dde6ef"/></g><g opacity="0.4" style="isolation:isolate"><line x1="1349.28" y1="129.95" x2="1470.2" y2="9.18" fill="none" stroke="#dde6ef" stroke-linecap="round" stroke-linejoin="round"/><line x1="1246" y1="446.87" x2="1282.06" y2="410.85" fill="none" stroke="#dde6ef" stroke-linecap="round" stroke-linejoin="round"/><line x1="994.59" y1="330.02" x2="1065.31" y2="259.39" fill="none" stroke="#dde6ef" stroke-linecap="round" stroke-linejoin="round"/><line x1="1076.62" y1="248.09" x2="1104.2" y2="220.55" fill="none" stroke="#dde6ef" stroke-linecap="round" stroke-linejoin="round"/><line x1="1081.93" y1="23.25" x2="1105.71" y2="0.5" fill="none" stroke="#dde6ef" stroke-linecap="round" stroke-linejoin="round"/><line x1="1723.86" y1="54.47" x2="1759.93" y2="18.45" fill="none" stroke="#dde6ef" stroke-linecap="round" stroke-linejoin="round"/><line x1="741.13" y1="259.87" x2="842.96" y2="158.17" fill="none" stroke="#dde6ef" stroke-linecap="round" stroke-linejoin="round"/><line x1="692.01" y1="62.67" x2="707.57" y2="47.13" fill="none" stroke="#dde6ef" stroke-linecap="round" stroke-linejoin="round"/><line x1="328.66" y1="101.11" x2="402.91" y2="26.95" fill="none" stroke="#dde6ef" stroke-linecap="round" stroke-linejoin="round"/><line x1="1371.29" y1="589.84" x2="1442" y2="519.22" fill="none" stroke="#dde6ef" stroke-linecap="round" stroke-linejoin="round"/><line x1="1453.31" y1="507.92" x2="1480.89" y2="480.37" fill="none" stroke="#dde6ef" stroke-linecap="round" stroke-linejoin="round"/><line x1="966.53" y1="554.24" x2="1002.6" y2="518.22" fill="none" stroke="#dde6ef" stroke-linecap="round" stroke-linejoin="round"/><line x1="617.64" y1="671.88" x2="653.71" y2="635.86" fill="none" stroke="#dde6ef" stroke-linecap="round" stroke-linejoin="round"/><line x1="1741.56" y1="447.46" x2="1815.81" y2="373.3" fill="none" stroke="#dde6ef" stroke-linecap="round" stroke-linejoin="round"/><line x1="1603.61" y1="318.04" x2="1674.33" y2="247.41" fill="none" stroke="#dde6ef" stroke-linecap="round" stroke-linejoin="round"/><line x1="1685.64" y1="236.11" x2="1713.22" y2="208.57" fill="none" stroke="#dde6ef" stroke-linecap="round" stroke-linejoin="round"/><line x1="41.99" y1="381.23" x2="57.54" y2="365.7" fill="none" stroke="#dde6ef" stroke-linecap="round" stroke-linejoin="round"/><line x1="65.32" y1="357.93" x2="101.39" y2="321.91" fill="none" stroke="#dde6ef" stroke-linecap="round" stroke-linejoin="round"/><line x1="101.59" y1="39.4" x2="129.17" y2="11.86" fill="none" stroke="#dde6ef" stroke-linecap="round" stroke-linejoin="round"/><line x1="0.5" y1="636.19" x2="36.56" y2="600.17" fill="none" stroke="#dde6ef" stroke-linecap="round" stroke-linejoin="round"/><line x1="121.51" y1="770.88" x2="153.9" y2="738.53" fill="none" stroke="#dde6ef" stroke-linecap="round" stroke-linejoin="round"/><line x1="289" y1="729.03" x2="304.55" y2="713.49" fill="none" stroke="#dde6ef" stroke-linecap="round" stroke-linejoin="round"/><line x1="312.33" y1="705.72" x2="348.39" y2="669.7" fill="none" stroke="#dde6ef" stroke-linecap="round" stroke-linejoin="round"/><line x1="1062.52" y1="785.85" x2="1092.31" y2="756.1" fill="none" stroke="#dde6ef" stroke-linecap="round" stroke-linejoin="round"/><line x1="1103.62" y1="744.8" x2="1131.2" y2="717.26" fill="none" stroke="#dde6ef" stroke-linecap="round" stroke-linejoin="round"/><line x1="1688.56" y1="784.76" x2="1762.81" y2="710.6" fill="none" stroke="#dde6ef" stroke-linecap="round" stroke-linejoin="round"/><line x1="233.66" y1="515.87" x2="307.91" y2="441.71" fill="none" stroke="#dde6ef" stroke-linecap="round" stroke-linejoin="round"/></g></svg>