<?xml version="1.0" encoding="iso-8859-1"?>
<!-- Generator: Adobe Illustrator 16.0.0, SVG Export Plug-In . SVG Version: 6.00 Build 0)  -->
<!DOCTYPE svg PUBLIC "-//W3C//DTD SVG 1.1//EN" "http://www.w3.org/Graphics/SVG/1.1/DTD/svg11.dtd">
<svg xmlns="http://www.w3.org/2000/svg" xmlns:xlink="http://www.w3.org/1999/xlink" version="1.1" id="Capa_1" x="0px" y="0px" width="512px" height="512px" viewBox="0 0 193.143 193.142" style="enable-background:new 0 0 193.143 193.142;" xml:space="preserve">
<g>
	<g>
		<path d="M193.131,50.789c0.808-15.719-42.265-6.111-50.443-5.426c-1.141,0.095-2.274,0.163-3.414,0.254    c-6.193-15.684-12.344-26.228-31.929-27.438c-14.861-0.918-30.505,3.167-45.144,5.124c-7.369,0.986-13.252,18.489-16.386,25.852    c-13.047,0.067-26.139,0.027-39.348-0.08c-2.81-0.023-3.664,2.601-2.786,4.535c-4.652,14.513-2.049,33.864-2.312,48.768    c-0.313,17.703-3.832,40.742,1.82,57.687c0.274,0.82,0.829,1.43,1.497,1.843c0.238,0.746,0.657,1.467,1.437,2.039    c26.881,19.727,69.164,6.874,100.471,8.755c17.301,1.039,34.596,2.154,51.936,1.665c7.855-0.221,25.559,0.208,29.363-8.579    c0.945-2.183,0.129-5.317-2.361-5.83c1.413-4.221,1.167-9.104,1.636-13.713c1.242-12.222,2.206-24.326,2.24-36.616    c0.05-17.312,3.376-34.846,2.616-52.128c0.067-1.286-0.538-2.347-1.414-3.146C191.947,53.838,193.034,52.646,193.131,50.789z     M66.597,31.324c10.333-1.194,20.564-3.017,30.932-3.954c8.813-0.796,18.848-0.554,25.884,5.563    c3.303,2.871,5.199,8.298,6.86,13.354c-25.647,1.804-50.992,2.578-76.466,2.812C57.077,42.213,62.147,31.838,66.597,31.324z     M109.652,63.096c7.979,4.127,13.459,12.311,17.529,20.015c8.561,16.206,10.073,39.528-7.5,50.088    c-22.666,13.619-53.424,1.017-56.29-25.347c-1.888-17.364,8.41-47.874,30.643-43.771c2.097,0.387,3.281-1.23,3.083-2.766    C101.211,60.752,104.965,60.671,109.652,63.096z M183.529,55.197c-5.457,12.806-3.594,34.834-3.874,48.287    c-0.262,12.558-0.556,24.946-1.444,37.485c-0.44,6.213-2.345,13.767-0.305,19.787c-7.683,1.352-15.288,3.612-23.469,3.839    c-15.938,0.438-31.944-0.833-47.844-1.777c-29.978-1.781-69.273,9.76-96.41-5.212c2.939-15.591,0.116-33.929,0.227-49.644    c0.11-15.586,3.577-36.283-0.441-52.042c22.684,2.153,44.803,3.387,67.162,3.212c-14.334,6.614-22.102,28.728-22.774,43.492    c-1.584,34.78,31.105,49.497,61.304,41.634c27.51-7.163,30.689-37.521,21.943-60.236c-2.736-7.103-10.744-19.017-20.253-26.822    c13.649-1.196,27.341-2.718,41.007-3.144c5.202-0.162,26.959-2.177,26.949-2.208c0.168,0.491,0.411,0.9,0.686,1.259    C184.954,53.375,184.034,54.011,183.529,55.197z" fill="#e62b1e"/>
		<path d="M116.339,81.101c-2.224-4.051-6.225-6.465-10.729-7.003c-8.863-1.059-17.696,5.472-23.465,11.483    c-6.139,6.394-11.598,15.619-9.485,24.793c2.704,11.744,17.85,12.649,27.173,10.258c1.668-0.429,1.751-3.068,0-3.446    c-4.647-1.004-9.735-1.873-14.021-4.024c-2.892-1.452-3.917-2.9-4.474-5.357c0.02-0.096-0.1-1.074-0.102-1.232    c-0.014-1.005,0.044-1.122,0.118-1.536c0.26-1.452,0.893-3.213,1.317-4.123c1.535-3.296,3.63-6.145,6.057-8.75    c2.401-2.578,4.924-4.633,7.929-6.414c2.679-1.588,5.185-2.486,7.703-2.478c0.696,0.002,1.627,0.273,1.986,0.458    c0.842,0.432,1.385,1.023,2.002,2.045c2.093,3.465,1.229,8.813,4.061,12.343c1.535,1.913,4.192,0.87,5.4-0.696    C121.069,93.187,118.658,85.329,116.339,81.101z" fill="#e62b1e"/>
	</g>
</g>
<g>
</g>
<g>
</g>
<g>
</g>
<g>
</g>
<g>
</g>
<g>
</g>
<g>
</g>
<g>
</g>
<g>
</g>
<g>
</g>
<g>
</g>
<g>
</g>
<g>
</g>
<g>
</g>
<g>
</g>
</svg>
