<?xml version="1.0" encoding="utf-8"?>
<!-- Generator: Adobe Illustrator 19.2.0, SVG Export Plug-In . SVG Version: 6.00 Build 0)  -->
<svg version="1.1" id="clouds_yellow_1_" xmlns="http://www.w3.org/2000/svg" xmlns:xlink="http://www.w3.org/1999/xlink" x="0px"
	 y="0px" viewBox="0 0 1920 800" style="enable-background:new 0 0 1920 800;" xml:space="preserve">
<style type="text/css">
	.st0{fill:#FDD36B;}
</style>
<path class="st0" d="M291,208c-6.63,0-12,5.37-12,12s5.37,12,12,12s12-5.37,12-12S297.63,208,291,208z M257,208h-62
	c-6.63,0-12-5.37-12-12c0-6.63,5.37-12,12-12h20c6.63,0,12-5.37,12-12c0-6.63-5.37-12-12-12H59c-6.63,0-12,5.37-12,12
	c0,6.63,5.37,12,12,12h92c6.63,0,12,5.37,12,12c0,6.63-5.37,12-12,12h-50c-6.63,0-12,5.37-12,12s5.37,12,12,12h156
	c6.63,0,12-5.37,12-12S263.63,208,257,208z M337,220c0-6.63-5.37-12-12-12c-6.63,0-12,5.37-12,12s5.37,12,12,12
	C331.63,232,337,226.62,337,220z M1151,501H995c-6.63,0-12,5.37-12,12c0,6.63,5.37,12,12,12h156c6.63,0,12-5.37,12-12
	C1163,506.37,1157.63,501,1151,501z M472,100h96c6.63,0,12-5.37,12-12c0-6.63-5.37-12-12-12h-96c-6.63,0-12,5.37-12,12
	C460,94.63,465.37,100,472,100z M614,88c0-6.63-5.37-12-12-12c-6.63,0-12,5.37-12,12c0,6.63,5.37,12,12,12
	C608.63,100,614,94.63,614,88z M545,589c-6.63,0-12,5.37-12,12c0,6.63,5.37,12,12,12s12-5.37,12-12C557,594.37,551.63,589,545,589z
	 M811,637h-62c-6.63,0-12-5.37-12-12c0-6.63,5.37-12,12-12h20c6.63,0,12-5.37,12-12c0-6.63-5.37-12-12-12H613c-6.63,0-12,5.37-12,12
	c0,6.63,5.37,12,12,12h92c6.63,0,12,5.37,12,12c0,6.63-5.37,12-12,12h-50c-6.63,0-12,5.37-12,12c0,6.63,5.37,12,12,12h156
	c6.63,0,12-5.37,12-12C823,642.37,817.63,637,811,637z M579,589c-6.63,0-12,5.37-12,12c0,6.63,5.37,12,12,12c6.63,0,12-5.37,12-12
	C591,594.37,585.63,589,579,589z M493,704H337c-6.63,0-12,5.37-12,12c0,6.63,5.37,12,12,12h156c6.63,0,12-5.37,12-12
	C505,709.37,499.63,704,493,704z M228,549h-62c-6.63,0-12-5.37-12-12c0-6.63,5.37-12,12-12h26c6.63,0,12-5.37,12-12
	c0-6.63-5.37-12-12-12h-76c-6.63,0-12,5.37-12,12c0,6.63,5.37,12,12,12h6c6.63,0,12,5.37,12,12c0,6.63-5.37,12-12,12H72
	c-6.63,0-12,5.37-12,12c0,6.63,5.37,12,12,12h156c6.63,0,12-5.37,12-12C240,554.37,234.63,549,228,549z M238,513
	c0-6.63-5.37-12-12-12s-12,5.37-12,12c0,6.63,5.37,12,12,12S238,519.62,238,513z M634,147h56c6.63,0,12-5.37,12-12
	c0-6.63-5.37-12-12-12h-56c-6.63,0-12,5.37-12,12C622,141.63,627.37,147,634,147z M997,233c6.63,0,12-5.37,12-12
	c0-6.63-5.37-12-12-12s-12,5.37-12,12C985,227.62,990.37,233,997,233z M1263,257h-62c-6.63,0-12-5.37-12-12c0-6.63,5.37-12,12-12h20
	c6.63,0,12-5.37,12-12c0-6.63-5.37-12-12-12h-156c-6.63,0-12,5.37-12,12c0,6.63,5.37,12,12,12h92c6.63,0,12,5.37,12,12
	c0,6.63-5.37,12-12,12h-50c-6.63,0-12,5.37-12,12c0,6.63,5.37,12,12,12h156c6.63,0,12-5.37,12-12C1275,262.37,1269.63,257,1263,257z
	 M1031,233c6.63,0,12-5.37,12-12c0-6.63-5.37-12-12-12c-6.63,0-12,5.37-12,12C1019,227.62,1024.37,233,1031,233z M1492,363h-96
	c-6.63,0-12,5.37-12,12c0,6.63,5.37,12,12,12h96c6.63,0,12-5.37,12-12C1504,368.37,1498.63,363,1492,363z M1526,363
	c-6.63,0-12,5.37-12,12c0,6.63,5.37,12,12,12c6.63,0,12-5.37,12-12C1538,368.37,1532.63,363,1526,363z M1614,410h-56
	c-6.63,0-12,5.37-12,12c0,6.63,5.37,12,12,12h56c6.63,0,12-5.37,12-12C1626,415.37,1620.63,410,1614,410z M1528,85
	c0-6.63-5.37-12-12-12h-156c-6.63,0-12,5.37-12,12c0,6.63,5.37,12,12,12h156C1522.63,97,1528,91.63,1528,85z M1798,637
	c0,6.63,5.37,12,12,12c6.63,0,12-5.37,12-12c0-6.63-5.37-12-12-12C1803.37,625,1798,630.37,1798,637z M1812,673h-62
	c-6.63,0-12-5.37-12-12c0-6.63,5.37-12,12-12h26c6.63,0,12-5.37,12-12c0-6.63-5.37-12-12-12h-76c-6.63,0-12,5.37-12,12
	c0,6.63,5.37,12,12,12h6c6.63,0,12,5.37,12,12c0,6.63-5.37,12-12,12h-50c-6.63,0-12,5.37-12,12c0,6.63,5.37,12,12,12h156
	c6.63,0,12-5.37,12-12C1824,678.37,1818.63,673,1812,673z M1862,261c-6.63,0-12,5.37-12,12c0,6.63,5.37,12,12,12
	c6.63,0,12-5.37,12-12C1874,266.37,1868.63,261,1862,261z M1828,261c-6.63,0-12,5.37-12,12c0,6.63,5.37,12,12,12
	c6.63,0,12-5.37,12-12C1840,266.37,1834.63,261,1828,261z M1806,273c0-6.63-5.37-12-12-12h-62c-6.63,0-12-5.37-12-12
	c0-6.63,5.37-12,12-12h20c6.63,0,12-5.37,12-12c0-6.63-5.37-12-12-12h-156c-6.63,0-12,5.37-12,12c0,6.63,5.37,12,12,12h92
	c6.63,0,12,5.37,12,12c0,6.63-5.37,12-12,12h-50c-6.63,0-12,5.37-12,12c0,6.63,5.37,12,12,12h156C1800.63,285,1806,279.63,1806,273z
	"/>
</svg>
