<?xml version="1.0" encoding="utf-8"?>
<!-- Generator: Adobe Illustrator 19.2.0, SVG Export Plug-In . SVG Version: 6.00 Build 0)  -->
<svg version="1.1" id="Icon_1_" xmlns="http://www.w3.org/2000/svg" xmlns:xlink="http://www.w3.org/1999/xlink" x="0px" y="0px"
	 viewBox="0 0 128 128" style="enable-background:new 0 0 128 128;" xml:space="preserve">
<style type="text/css">
	
		.st0{fill-rule:evenodd;clip-rule:evenodd;fill:none;stroke:#31364C;stroke-width:2;stroke-linecap:round;stroke-linejoin:round;stroke-miterlimit:10;}
	.st1{fill:#F9D080;}
	
		.st2{fill-rule:evenodd;clip-rule:evenodd;fill:none;stroke:#31364C;stroke-width:2;stroke-linecap:round;stroke-linejoin:round;stroke-miterlimit:100;}
	.st3{fill-rule:evenodd;clip-rule:evenodd;fill:none;stroke:#31364C;stroke-width:2;stroke-miterlimit:10;}
</style>
<g id="bottom_line">
	<path id="bottom_line_7_" class="st0" d="M13,117h4.06 M22,117h2 M30,117h79 M115,117h2"/>
	<path id="bottom_line_6_" class="st0" d="M44,122h8 M58,122h27 M91,122h1 M98,122h6"/>
	<path id="bottom_line_5_" class="st0" d="M25,127h6 M37,127h20"/>
	<line id="bottom_line_4_" class="st0" x1="62" y1="127" x2="63" y2="127"/>
	<path id="bottom_line_1_" class="st0" d="M31,126.94c0-1.66,1.34-3,3-3s3,1.34,3,3"/>
</g>
<path id="fill_cuffs_left" class="st1" d="M34.55,38.42L25.9,33.4c-1.43-0.83-3.27-0.34-4.09,1.1L1.33,70.16
	c-0.83,1.44-0.34,3.28,1.1,4.11l8.65,5.02c1.43,0.83,3.27,0.34,4.09-1.1l20.48-35.65C36.47,41.1,35.98,39.26,34.55,38.42z
	 M13.34,71.33c-0.83,1.44-2.66,1.93-4.09,1.1c-1.43-0.83-1.92-2.67-1.1-4.11c0.83-1.44,2.66-1.93,4.09-1.1
	C13.68,68.05,14.17,69.89,13.34,71.33z"/>
<path id="cuffs_left_2_" class="st0" d="M7.32,59.72l1-1.74 M10.82,53.64l10.99-19.13c0.83-1.44,2.66-1.93,4.09-1.1l8.65,5.02
	c1.43,0.83,1.92,2.67,1.1,4.12l-3,5.22 M30.15,52.1L15.17,78.19c-0.83,1.44-2.66,1.93-4.09,1.1l-8.65-5.02
	c-1.43-0.83-1.92-2.67-1.1-4.11l3.5-6.09"/>
<path id="button" class="st2" d="M12.25,67.22c-1.43-0.83-3.27-0.34-4.09,1.1c-0.83,1.44-0.34,3.28,1.1,4.11
	c1.43,0.83,3.27,0.34,4.09-1.1C14.17,69.89,13.68,68.05,12.25,67.22z"/>
<path id="finger" class="st0" d="M67,57l9.07,5.52 M80.39,65.03l1.73,1 M86.45,68.54l21.62,12.55c2.87,1.66,3.85,5.35,2.19,8.23
	s-5.32,3.87-8.19,2.21l-3.46-2.01 M92.57,86.01l-17.3-10.04"/>
<path id="finger_15_" class="st0" d="M75.27,75.97l17.3,10.04 M96.89,88.52l1.73,1c2.87,1.66,3.85,5.35,2.19,8.23
	c-1.65,2.88-5.32,3.87-8.19,2.2L71,87.4"/>
<path id="finger_1_" class="st0" d="M71,87.4l17.3,10.04c2.87,1.66,3.85,5.35,2.19,8.23c-1.65,2.88-5.32,3.87-8.19,2.21l-14.7-8.53"
	/>
<path id="finger_2_" class="st0" d="M67.61,99.34l9.51,5.52c2.87,1.66,3.85,5.35,2.19,8.23c-1.65,2.88-5.32,3.87-8.19,2.2
	l-9.51-5.52"/>
<line id="hand" class="st0" x1="34.15" y1="45.15" x2="51.85" y2="48.46"/>
<line id="hand_5_" class="st0" x1="16.67" y1="75.58" x2="24" y2="83"/>
<path id="fill_cuffs_right" class="st1" d="M126.47,70.35L105.99,34.7c-0.83-1.44-2.66-1.93-4.09-1.1l-8.65,5.02
	c-1.43,0.83-1.92,2.67-1.1,4.12l20.48,35.65c0.83,1.44,2.66,1.94,4.09,1.1l8.65-5.02C126.8,73.63,127.29,71.79,126.47,70.35z
	 M118.55,72.63c-1.43,0.83-3.27,0.34-4.09-1.1c-0.83-1.44-0.34-3.28,1.1-4.11c1.43-0.83,3.27-0.34,4.09,1.1
	C120.47,69.96,119.98,71.8,118.55,72.63z"/>
<path id="cuffs_right_2_" class="st0" d="M110.98,43.4l1,1.74 M114.48,49.49l11.99,20.87c0.83,1.44,0.34,3.28-1.1,4.11l-8.65,5.02
	c-1.43,0.83-3.27,0.34-4.09-1.1L92.15,42.74c-0.83-1.44-0.34-3.28,1.1-4.12l8.65-5.02c1.43-0.83,3.27-0.34,4.09,1.1l2.5,4.35"/>
<path id="button_1_" class="st2" d="M119.64,68.52c-0.83-1.44-2.66-1.93-4.09-1.1c-1.43,0.83-1.92,2.67-1.1,4.11
	c0.83,1.44,2.66,1.93,4.09,1.1C119.98,71.8,120.47,69.96,119.64,68.52z"/>
<path id="big_finger" class="st0" d="M93.65,45.34c0,0-12.82-3.8-19.87-5.69c-4.9-1.32-9.77,2.03-9.77,2.03l-6.16,3.58 M53.52,47.76
	l-3.46,2.01c0,0-2.87,1.48-2.83,5.12c0.06,5.51-0.35,15.71,0.21,18.43c0.55,2.72,4.59,1.97,4.59,1.97s2.92-1.69,4.32-2.51
	c1.41-0.82,1.46-3.41,2.06-6.34c0.61-2.99,1.23-6,1.23-6l7.78-4.52l2.73,0.73"/>
<line id="hand_1_" class="st0" x1="111.13" y1="75.78" x2="107" y2="80"/>
<path id="finger_3_" class="st3" d="M24.75,83.01l9.51-5.52c2.63-1.52,5.99-0.62,7.5,2.02c1.52,2.64,0.62,6.02-2.01,7.54l-9.51,5.52
	c-2.63,1.53-5.99,0.62-7.5-2.02C21.22,87.91,22.12,84.54,24.75,83.01z"/>
<path id="finger_4_" class="st3" d="M32.84,91.07l6.06-3.51c2.63-1.52,5.99-0.62,7.5,2.02c1.52,2.64,0.62,6.02-2.01,7.54l-6.05,3.51
	c-2.63,1.52-5.99,0.62-7.5-2.02C29.31,95.97,30.21,92.6,32.84,91.07z"/>
<path id="finger_5_" class="st3" d="M40.92,99.13l4.32-2.51c2.63-1.52,5.99-0.62,7.5,2.02s0.62,6.02-2.01,7.54l-4.32,2.51
	c-2.63,1.53-5.99,0.62-7.5-2.02C37.4,104.03,38.3,100.65,40.92,99.13z"/>
<path id="finger_6_" class="st3" d="M49.88,106.69l0.86-0.5c2.63-1.53,5.99-0.62,7.5,2.02c1.52,2.64,0.62,6.02-2.01,7.54l-0.87,0.5
	c-2.63,1.53-5.99,0.62-7.5-2.02C46.35,111.59,47.25,108.21,49.88,106.69z"/>
</svg>
