<svg xmlns="http://www.w3.org/2000/svg" viewBox="0 0 53 63"><title>icon-phone</title><path d="M6,59.5H8m2,0h1m2,0H53.94m2.13,0H58" transform="translate(-5.5 -1)" fill="none" stroke="#2a2f46" stroke-linecap="round" stroke-linejoin="round" fill-rule="evenodd"/><path d="M21,61.5h5.06m1.94,0H43.06m1.88,0h1.12m1.94,0h4" transform="translate(-5.5 -1)" fill="none" stroke="#2a2f46" stroke-linecap="round" stroke-linejoin="round" fill-rule="evenodd"/><path d="M12,63.5H28.06m2,0h2" transform="translate(-5.5 -1)" fill="none" stroke="#2a2f46" stroke-linecap="round" stroke-linejoin="round" fill-rule="evenodd"/><path d="M15,13.42V5.5a4,4,0,0,1,4-4H39.94M42,1.5h3a4,4,0,0,1,4,4V44.62m0,1.81V47.5m0,2v6a4,4,0,0,1-4,4H19a4,4,0,0,1-4-4V53.69m0-2.13V18.42m0-1.83V15.5" transform="translate(-5.5 -1)" fill="none" stroke="#2a2f46" stroke-linecap="round" stroke-linejoin="round" fill-rule="evenodd"/><path d="M46,14.5v1m0,2v32H24m-2,0H18V7.5H46v5" transform="translate(-5.5 -1)" fill="none" stroke="#2a2f46" stroke-linecap="round" stroke-linejoin="round" fill-rule="evenodd"/><path d="M33,53a1,1,0,0,1,1,1v1a1,1,0,0,1-1,1H31a1,1,0,0,1-1-1V54a1,1,0,0,1,1-1h2m0-1H31a2,2,0,0,0-2,2v1a2,2,0,0,0,2,2h2a2,2,0,0,0,2-2V54a2,2,0,0,0-2-2h0Z" transform="translate(-5.5 -1)" fill="#2a2f46"/><line x1="21.5" y1="22" x2="31.5" y2="32" fill="none" stroke="#2a2f46" stroke-linecap="round" stroke-linejoin="round"/><line x1="27.5" y1="23" x2="32.44" y2="27.94" fill="none" stroke="#2a2f46" stroke-linecap="round" stroke-linejoin="round"/><path d="M27,28l2.06,2.06M31,32l1,1" transform="translate(-5.5 -1)" fill="none" stroke="#2a2f46" stroke-linecap="round" stroke-linejoin="round" fill-rule="evenodd"/><line x1="24.5" y1="3.5" x2="28.5" y2="3.5" fill="none" stroke="#2a2f46" stroke-linecap="round" stroke-linejoin="round"/></svg>