<?xml version="1.0" encoding="utf-8"?>
<!-- Generator: Adobe Illustrator 19.2.0, SVG Export Plug-In . SVG Version: 6.00 Build 0)  -->
<svg version="1.1" id="Icon_1_" xmlns="http://www.w3.org/2000/svg" xmlns:xlink="http://www.w3.org/1999/xlink" x="0px" y="0px"
	 viewBox="0 0 128 128" style="enable-background:new 0 0 128 128;" xml:space="preserve">
<style type="text/css">
	
		.st0{fill-rule:evenodd;clip-rule:evenodd;fill:none;stroke:#31364C;stroke-width:2;stroke-linecap:round;stroke-linejoin:round;stroke-miterlimit:10;}
	.st1{fill-rule:evenodd;clip-rule:evenodd;fill:#F9D080;}
</style>
<g id="bottom_line_6_">
	<path id="bottom_line_5_" class="st0" d="M13,117h4 M22,117h2 M30,117h79 M115,117h2"/>
	<path id="bottom_line_4_" class="st0" d="M44,122h8 M57,122h28 M91,122h1 M98,122h6"/>
	<path id="bottom_line_3_" class="st0" d="M25,127h6 M37,127h20"/>
	<line id="bottom_line" class="st0" x1="62" y1="127" x2="63" y2="127"/>
	<path id="bottom_line_1_" class="st0" d="M31,127c0-1.66,1.34-3,3-3s3,1.34,3,3"/>
</g>
<g id="fill">
	<path id="fill_thread_all_4_" class="st1" d="M59.5,108h11c2.49,0,4.5,2.01,4.5,4.5c0,2.49-2.01,4.5-4.5,4.5h-11
		c-2.49,0-4.5-2.01-4.5-4.5C55,110.01,57.01,108,59.5,108z"/>
	<path id="fill_thread_all_3_" class="st1" d="M54.5,99h21c2.49,0,4.5,2.01,4.5,4.5s-2.01,4.5-4.5,4.5h-21c-2.49,0-4.5-2.01-4.5-4.5
		S52.01,99,54.5,99z"/>
	<path id="fill_thread_all_2_" class="st1" d="M49.5,90h31c2.49,0,4.5,2.01,4.5,4.5c0,2.49-2.01,4.5-4.5,4.5h-31
		c-2.49,0-4.5-2.01-4.5-4.5C45,92.01,47.01,90,49.5,90z"/>
</g>
<path id="thread_1_" class="st0" d="M59.5,108h11c2.49,0,4.5,2.01,4.5,4.5c0,2.49-2.01,4.5-4.5,4.5h-11c-2.49,0-4.5-2.01-4.5-4.5
	C55,110.01,57.01,108,59.5,108z"/>
<path id="thread_2_" class="st0" d="M66.67,99h0.83 M72.67,99h2.83c2.49,0,4.5,2.02,4.5,4.5s-2.01,4.5-4.5,4.5h-21
	c-2.49,0-4.5-2.01-4.5-4.5s2.01-4.5,4.5-4.5h7.42"/>
<path id="thread_4_" class="st0" d="M61.94,99H49.5c-2.49,0-4.5-2.01-4.5-4.5c0-2.48,2.01-4.5,4.5-4.5h31c2.49,0,4.5,2.01,4.5,4.5
	c0,2.49-2.01,4.5-4.5,4.5h-7.56"/>
<polyline id="thread_3_" class="st0" points="65,90 65,71 75,58 54,58 59,63 "/>
<path id="lamp_2_" class="st0" d="M29.37,22.8C35.99,9.86,49.46,1,65,1c22.09,0,40,17.91,40,40c0,10.75-4.25,20.49-11.14,27.68
	c-0.14,1.67-0.4,3.3-0.77,4.89 M91.4,78.94c-1.74,4.25-4.27,8.02-7.38,11.05H45.98c-5.44-5.31-9.1-12.82-9.84-21.32
	C29.25,61.49,25,51.74,25,41c0-1.67,0.1-3.32,0.3-4.93 M26.56,29.88c0.12-0.4,0.24-0.8,0.36-1.19"/>
<path id="shine_2_" class="st0" d="M85.08,14.81c1.31,1.01,2.54,2.11,3.69,3.3 M91.71,21.61C95.66,27.05,98,33.75,98,41"/>
</svg>
