<?xml version="1.0" encoding="utf-8"?>
<!-- Generator: Adobe Illustrator 19.2.0, SVG Export Plug-In . SVG Version: 6.00 Build 0)  -->
<svg version="1.1" id="Icon_1_" xmlns="http://www.w3.org/2000/svg" xmlns:xlink="http://www.w3.org/1999/xlink" x="0px" y="0px"
	 viewBox="0 0 64 64" style="enable-background:new 0 0 64 64;" xml:space="preserve">
<style type="text/css">
	
		.st0{fill-rule:evenodd;clip-rule:evenodd;fill:none;stroke:#2A2F46;stroke-linecap:round;stroke-linejoin:round;stroke-miterlimit:100;}
	.st1{fill-rule:evenodd;clip-rule:evenodd;fill:#F9D080;}
	.st2{fill:#2A2F46;}
</style>
<g id="borrom_line">
	<line id="borrom_line_18_" class="st0" x1="6" y1="57.5" x2="43" y2="57.5"/>
	<line id="borrom_line_19_" class="st0" x1="45" y1="57.5" x2="54" y2="57.5"/>
	<line id="borrom_line_20_" class="st0" x1="56" y1="57.5" x2="59" y2="57.5"/>
	<line id="borrom_line_21_" class="st0" x1="12" y1="60.5" x2="25" y2="60.5"/>
	<line id="borrom_line_22_" class="st0" x1="27" y1="60.5" x2="28" y2="60.5"/>
	<line id="borrom_line_23_" class="st0" x1="30" y1="60.5" x2="38" y2="60.5"/>
	<line id="borrom_line_24_" class="st0" x1="33" y1="63.5" x2="34" y2="63.5"/>
	<line id="borrom_line_25_" class="st0" x1="36" y1="63.5" x2="46" y2="63.5"/>
	<line id="borrom_line_26_" class="st0" x1="48" y1="63.5" x2="52" y2="63.5"/>
	<path id="arc" class="st0" d="M46,63.5c0-0.55,0.45-1,1-1s1,0.45,1,1"/>
</g>
<path id="external_circle_2_" class="st0" d="M6.13,17.02C10.66,7.26,20.54,0.5,32,0.5c3.11,0,6.09,0.5,8.89,1.41 M43.66,2.99
	C53.59,7.44,60.5,17.41,60.5,29c0,1.85-0.18,3.65-0.51,5.4 M59.08,37.9C55.34,49.28,44.63,57.5,32,57.5C16.26,57.5,3.5,44.74,3.5,29
	c0-2.04,0.21-4.03,0.62-5.94 M4.86,20.28c0.1-0.31,0.21-0.63,0.32-0.94"/>
<path id="inner_circle_2_" class="st0" d="M17.05,24.88C18.85,18.32,24.86,13.5,32,13.5c8.56,0,15.5,6.94,15.5,15.5
	c0,6.85-4.45,12.67-10.62,14.71 M34.66,44.27c-0.86,0.15-1.75,0.23-2.66,0.23c-7.57,0-13.87-5.42-15.23-12.59 M16.5,29
	c0-0.37,0.01-0.73,0.04-1.1"/>
<g id="stripes">
	<path class="st1" d="M17.69,53.62c-2.17-1.26-4.14-2.76-5.84-4.47c-1.71-1.71-3.21-3.67-4.47-5.84l10.49-7.95
		c0.77,1.72,1.84,3.26,3.18,4.6c1.34,1.34,2.88,2.4,4.6,3.17L17.69,53.62z M46.13,22.64c-0.77-1.71-1.84-3.26-3.17-4.6
		c-1.34-1.34-2.88-2.4-4.59-3.17l7.94-10.49c2.17,1.26,4.13,2.76,5.84,4.47c1.71,1.71,3.21,3.67,4.47,5.84L46.13,22.64z"/>
	<path class="st2" d="M46.44,5.03c1.98,1.19,3.78,2.59,5.36,4.17c1.58,1.58,2.97,3.38,4.17,5.36l-9.64,7.3
		c-0.77-1.54-1.78-2.95-3.01-4.18c-1.23-1.23-2.63-2.24-4.17-3.01L46.44,5.03 M17.67,36.13c0.77,1.55,1.78,2.95,3.01,4.18
		c1.23,1.23,2.64,2.24,4.18,3.01l-7.3,9.64c-1.98-1.19-3.78-2.59-5.36-4.17c-1.58-1.58-2.98-3.38-4.17-5.36L17.67,36.13 M46.18,3.73
		l-8.59,11.35c1.83,0.73,3.54,1.84,5.02,3.32c1.48,1.48,2.59,3.2,3.32,5.03l11.35-8.6c-1.27-2.26-2.84-4.4-4.77-6.33
		C50.58,6.57,48.44,5,46.18,3.73L46.18,3.73z M18.07,34.57l-11.35,8.6c1.27,2.26,2.84,4.4,4.77,6.33c1.93,1.93,4.07,3.5,6.33,4.77
		l8.6-11.35c-1.83-0.73-3.55-1.84-5.03-3.32C19.91,38.12,18.81,36.4,18.07,34.57L18.07,34.57z"/>
</g>
<g id="stripes_1_">
	<path class="st1" d="M38.36,43.13c1.71-0.77,3.26-1.83,4.6-3.17c1.34-1.34,2.4-2.88,3.17-4.59l10.49,7.94
		c-1.26,2.17-2.76,4.14-4.47,5.84s-3.67,3.21-5.84,4.47L38.36,43.13z M7.38,14.69c1.26-2.17,2.76-4.14,4.47-5.84
		c1.71-1.71,3.67-3.21,5.84-4.47l7.95,10.49c-1.72,0.77-3.26,1.84-4.6,3.18c-1.34,1.34-2.41,2.88-3.17,4.6L7.38,14.69z"/>
	<path class="st2" d="M17.56,5.03l7.31,9.64c-1.55,0.77-2.95,1.78-4.18,3.01c-1.23,1.23-2.24,2.63-3.01,4.18l-9.64-7.3
		c1.19-1.98,2.59-3.78,4.17-5.36C13.78,7.62,15.58,6.23,17.56,5.03 M46.32,36.14l9.64,7.3c-1.19,1.98-2.59,3.78-4.17,5.36
		c-1.58,1.58-3.38,2.97-5.36,4.17l-7.3-9.64c1.54-0.77,2.95-1.78,4.18-3.01C44.55,39.08,45.55,37.68,46.32,36.14 M17.82,3.72
		c-2.26,1.27-4.4,2.84-6.33,4.77c-1.93,1.93-3.5,4.07-4.77,6.33l11.35,8.6c0.73-1.83,1.84-3.55,3.32-5.03
		c1.48-1.48,3.2-2.59,5.03-3.32L17.82,3.72L17.82,3.72z M45.92,34.58c-0.73,1.83-1.84,3.54-3.32,5.02c-1.48,1.48-3.2,2.59-5.03,3.32
		l8.6,11.35c2.26-1.27,4.4-2.84,6.33-4.77c1.93-1.93,3.5-4.07,4.77-6.33L45.92,34.58L45.92,34.58z"/>
</g>
</svg>
