<svg xmlns="http://www.w3.org/2000/svg" viewBox="0 0 63 63.84"><title>icon-mail</title><path d="M1,59.5H2m2,0H59.94m2.13,0H63" transform="translate(-0.5 -0.16)" fill="none" stroke="#2a2f46" stroke-linecap="round" stroke-linejoin="round" fill-rule="evenodd"/><path d="M10,61.5H25.06m1.94,0h1.06m1.88,0H46.06" transform="translate(-0.5 -0.16)" fill="none" stroke="#2a2f46" stroke-linecap="round" stroke-linejoin="round" fill-rule="evenodd"/><path d="M34,63.5h1.06m1.75,0H51.06m2,0h3" transform="translate(-0.5 -0.16)" fill="none" stroke="#2a2f46" stroke-linecap="round" stroke-linejoin="round" fill-rule="evenodd"/><path d="M5,37V24.23a4,4,0,0,1,1.41-3.05L29.53,1.61a4,4,0,0,1,5.19,0L47.22,12.31m2.73,2.33,0.86,0.74m2,1.71,4.79,4.09a4,4,0,0,1,1.4,3V48.4m0,1.86v5.25a4,4,0,0,1-4,4H9a4,4,0,0,1-4-4V42m0-2V39" transform="translate(-0.5 -0.16)" fill="none" stroke="#2a2f46" stroke-linecap="round" stroke-linejoin="round" fill-rule="evenodd"/><path d="M10,26.66L29.55,41.59a4,4,0,0,0,4.89,0L54,26.66" transform="translate(-0.5 -0.16)" fill="none" stroke="#2a2f46" stroke-linecap="round" stroke-linejoin="round" fill-rule="evenodd"/><line x1="9.5" y1="54.68" x2="14.5" y2="49.68" fill="none" stroke="#2a2f46" stroke-linecap="round" stroke-linejoin="round"/><line x1="53.5" y1="55.68" x2="48.5" y2="50.68" fill="none" stroke="#2a2f46" stroke-linecap="round" stroke-linejoin="round"/><line x1="26.5" y1="17.68" x2="36.5" y2="27.68" fill="none" stroke="#2a2f46" stroke-linecap="round" stroke-linejoin="round"/><line x1="32.5" y1="18.68" x2="37.44" y2="23.62" fill="none" stroke="#2a2f46" stroke-linecap="round" stroke-linejoin="round"/><path d="M27,22.84l2.06,2.06M31,26.81l1,1" transform="translate(-0.5 -0.16)" fill="none" stroke="#2a2f46" stroke-linecap="round" stroke-linejoin="round" fill-rule="evenodd"/></svg>