<svg xmlns="http://www.w3.org/2000/svg" viewBox="0 0 180 175"><title>icon-plan-start</title><path d="M90,3A90,90,0,0,0,0,93H0a89.88,89.88,0,0,0,37.36,73H142.64A90,90,0,0,0,90,3Z" transform="translate(0 -3)" fill="#e4eaea"/><path d="M28,166h4m5,0h3m5,0h98m6,0h2" transform="translate(0 -3)" fill="none" stroke="#31364c" stroke-linecap="round" stroke-miterlimit="10" stroke-width="2" fill-rule="evenodd"/><path d="M59,171h8m6,0h46m6,0h1m6,0h6" transform="translate(0 -3)" fill="none" stroke="#31364c" stroke-linecap="round" stroke-miterlimit="10" stroke-width="2" fill-rule="evenodd"/><path d="M40,177h6m6,0H89" transform="translate(0 -3)" fill="none" stroke="#31364c" stroke-linecap="round" stroke-miterlimit="10" stroke-width="2" fill-rule="evenodd"/><line x1="95" y1="174" x2="96" y2="174" fill="none" stroke="#31364c" stroke-linecap="round" stroke-miterlimit="10" stroke-width="2"/><path d="M46,177a3,3,0,1,1,6,0" transform="translate(0 -3)" fill="none" stroke="#31364c" stroke-linecap="round" stroke-linejoin="round" stroke-width="2" fill-rule="evenodd"/><path d="M133,144a10.94,10.94,0,0,0-5.14,1.28,6,6,0,1,0-11.8-2.12A4,4,0,0,0,115,143a4,4,0,0,0-4,3.86,14,14,0,0,0-25-2c0-.12,0-0.23,0-0.34a5.47,5.47,0,0,0-6.38-5.42c-2.18,1.56-2.62-.92-2.62-0.92s0-.1,0-0.16a4,4,0,0,0-5.21-3.79A8,8,0,0,0,56.07,137,13,13,0,1,0,51,162h0.62A1.66,1.66,0,0,1,53,164c-0.13,1.71-1.87,2-2.64,2H133A11,11,0,0,0,133,144ZM50.36,166h0Z" transform="translate(0 -3)" fill="#f2ece8" fill-rule="evenodd"/><path d="M44,133.09a16.9,16.9,0,0,1,9.17-.79,11,11,0,0,1,4.63-7.36M62,123.18a11.15,11.15,0,0,1,2-.18,11,11,0,0,1,10.58,8,6,6,0,0,1,5,8A5.47,5.47,0,0,1,86,144.5c0,0.12,0,.23,0,0.34a14,14,0,0,1,18-5.48m4,2.9a14,14,0,0,1,3,4.6,4,4,0,0,1,4-3.86,4,4,0,0,1,1.07.16,6,6,0,1,1,11.8,2.12,11,11,0,0,1,15,4.76m1.18,5c0,0.3,0,.59,0,0.88m-1.79,5.19A11,11,0,0,1,133,166H50a17,17,0,0,1-14.42-26" transform="translate(0 -3)" fill="none" stroke="#31364c" stroke-linecap="round" stroke-linejoin="round" stroke-width="2" fill-rule="evenodd"/><path d="M48,151a6,6,0,0,1,11.6-2.09A4,4,0,0,1,67,151" transform="translate(0 -3)" fill="none" stroke="#31364c" stroke-linecap="round" stroke-linejoin="round" stroke-width="2" fill-rule="evenodd"/><path d="M122,156a3,3,0,0,1,6,0" transform="translate(0 -3)" fill="none" stroke="#31364c" stroke-linecap="round" stroke-linejoin="round" stroke-width="2" fill-rule="evenodd"/><line x1="132" y1="153" x2="128" y2="153" fill="none" stroke="#31364c" stroke-linecap="round" stroke-linejoin="round" stroke-width="2"/><line x1="73" y1="148" x2="67" y2="148" fill="none" stroke="#31364c" stroke-linecap="round" stroke-linejoin="round" stroke-width="2"/><line x1="92" y1="130" x2="92" y2="145" fill="none" stroke="#31364c" stroke-linecap="round" stroke-linejoin="round" stroke-width="2"/><line x1="97" y1="139" x2="97" y2="150" fill="none" stroke="#31364c" stroke-linecap="round" stroke-linejoin="round" stroke-width="2"/><line x1="87" y1="144" x2="87" y2="152" fill="none" stroke="#31364c" stroke-linecap="round" stroke-linejoin="round" stroke-width="2"/><line x1="99" y1="143" x2="99" y2="153" fill="none" stroke="#f46b85" stroke-linecap="round" stroke-linejoin="round" stroke-width="2"/><line x1="89" y1="147" x2="89" y2="155" fill="none" stroke="#fee176" stroke-linecap="round" stroke-linejoin="round" stroke-width="2"/><path d="M55,115H65V99.14C59.16,101.57,55,107.74,55,115Z" transform="translate(0 -3)" fill="#f46b85"/><path d="M65,115H50a18.41,18.41,0,0,1,1-6.12M53,105q0.34-.5.71-1M57,100.79A14.54,14.54,0,0,1,65,98" transform="translate(0 -3)" fill="none" stroke="#31364c" stroke-linecap="round" stroke-linejoin="round" stroke-width="2" fill-rule="evenodd"/><path d="M117,98v17h15C132,105.8,125.33,98.32,117,98Z" transform="translate(0 -3)" fill="#f46b85" fill-rule="evenodd"/><path d="M117,115h15c0-9.2-6.67-16.68-15-17" transform="translate(0 -3)" fill="none" stroke="#31364c" stroke-linecap="round" stroke-linejoin="round" stroke-width="2" fill-rule="evenodd"/><path d="M102,122v-2H85v2a6,6,0,0,0,6,6h5A6,6,0,0,0,102,122Z" transform="translate(0 -3)" fill="#a4b4c3"/><path d="M81,120v2a6,6,0,0,0,6,6h9a6,6,0,0,0,6-6v-2H81Z" transform="translate(0 -3)" fill="none" stroke="#31364c" stroke-linecap="round" stroke-linejoin="round" stroke-width="2" fill-rule="evenodd"/><path d="M117,116v-1H70v1a4,4,0,0,0,4,4h39A4,4,0,0,0,117,116Z" transform="translate(0 -3)" fill="#a4b4c3"/><path d="M65,115v1a4,4,0,0,0,4,4h44a4,4,0,0,0,4-4v-1H65Z" transform="translate(0 -3)" fill="none" stroke="#31364c" stroke-linecap="round" stroke-linejoin="round" stroke-width="2" fill-rule="evenodd"/><path d="M93.5,51.25C80.31,53.82,70,76.76,70,111c0,1.33,0,2.64.05,4h46.9c0-1.31.05-2.62,0.05-4C117,76.76,106.69,53.82,93.5,51.25Z" transform="translate(0 -3)" fill="#f46b85"/><path d="M76,61c4.23-6.48,9.4-10,15-10,9.52,0,17.85,10.39,22.38,28m1.34,6,0.2,1.09M115.83,92A148.74,148.74,0,0,1,117,111c0,1.33,0,2.65-.05,4H65.05c0-1.31-.05-2.63-0.05-4C65,95.89,67,83,70.4,73m2.35-5.94q0.27-.6.55-1.18" transform="translate(0 -3)" fill="none" stroke="#31364c" stroke-linecap="round" stroke-linejoin="round" stroke-width="2" fill-rule="evenodd"/><circle cx="91.5" cy="88.5" r="12.5" fill="#faf1df"/><path d="M80.54,88A11.53,11.53,0,0,1,88,80.54" transform="translate(0 -3)" fill="none" stroke="#e1d4b9" stroke-linecap="round" stroke-linejoin="round" stroke-width="2" fill-rule="evenodd"/><path d="M81,91.5A10.5,10.5,0,0,1,91.5,81" transform="translate(0 -3)" fill="none" stroke="#e1d4b9" stroke-linecap="round" stroke-linejoin="round" stroke-width="2" fill-rule="evenodd"/><path d="M85,80.79A12.5,12.5,0,1,1,81,84.72" transform="translate(0 -3)" fill="none" stroke="#31364c" stroke-linecap="round" stroke-linejoin="round" stroke-width="2" fill-rule="evenodd"/><g opacity="0.2"><path d="M48.6,14.28a17.42,17.42,0,0,1,2.59-.2A5.41,5.41,0,0,1,55,15.26a4.35,4.35,0,0,1,1.33,3.39A5,5,0,0,1,55,22.32a5.82,5.82,0,0,1-4.17,1.36,19.73,19.73,0,0,1-2.21-.11V14.28Zm1.22,8.35A7.74,7.74,0,0,0,51,22.7c2.6,0,4-1.46,4-4,0-2.23-1.25-3.64-3.82-3.64a6.91,6.91,0,0,0-1.43.13v7.45Z" transform="translate(0 -3)"/><path d="M62.81,19.17H59.14v3.4h4.09v1H57.92V14.15H63v1H59.14v3h3.67v1Z" transform="translate(0 -3)"/><path d="M72.76,19.45c-0.07-1.32-.15-2.9-0.14-4.08h0c-0.32,1.11-.71,2.28-1.19,3.59l-1.67,4.58H68.8L67.27,19c-0.45-1.33-.83-2.55-1.09-3.67h0c0,1.18-.1,2.76-0.18,4.17l-0.25,4H64.56l0.66-9.44h1.56l1.61,4.57c0.39,1.16.71,2.2,1,3.18h0c0.24-1,.57-2,1-3.18L72,14.15H73.6l0.59,9.44H73Z" transform="translate(0 -3)"/><path d="M84.13,18.78c0,3.25-2,5-4.38,5S75.5,21.82,75.5,19s1.86-5,4.38-5S84.13,16,84.13,18.78Zm-7.33.15c0,2,1.09,3.82,3,3.82s3-1.78,3-3.92c0-1.88-1-3.84-3-3.84S76.81,16.86,76.81,18.93Z" transform="translate(0 -3)"/><path d="M103.52,14.28a17.42,17.42,0,0,1,2.59-.2,5.41,5.41,0,0,1,3.82,1.18,4.35,4.35,0,0,1,1.33,3.39,5,5,0,0,1-1.36,3.67,5.82,5.82,0,0,1-4.17,1.36,19.72,19.72,0,0,1-2.21-.11V14.28Zm1.22,8.35a7.75,7.75,0,0,0,1.23.07c2.61,0,4-1.46,4-4,0-2.23-1.25-3.64-3.82-3.64a6.91,6.91,0,0,0-1.43.13v7.45Z" transform="translate(0 -3)"/><path d="M117.73,19.17h-3.67v3.4h4.09v1h-5.31V14.15h5.1v1h-3.88v3h3.67v1Z" transform="translate(0 -3)"/><path d="M127.68,19.45c-0.07-1.32-.15-2.9-0.14-4.08h0c-0.32,1.11-.71,2.28-1.19,3.59l-1.67,4.58h-0.92L122.19,19c-0.45-1.33-.83-2.55-1.09-3.67h0c0,1.18-.1,2.76-0.18,4.17l-0.25,4h-1.16l0.66-9.44h1.55l1.61,4.57c0.39,1.16.71,2.2,1,3.18h0c0.24-1,.57-2,1-3.18L127,14.15h1.55l0.59,9.44h-1.19Z" transform="translate(0 -3)"/><path d="M139.05,18.78c0,3.25-2,5-4.38,5s-4.25-1.93-4.25-4.79,1.86-5,4.38-5S139.05,16,139.05,18.78Zm-7.33.15c0,2,1.09,3.82,3,3.82s3-1.78,3-3.92c0-1.88-1-3.84-3-3.84S131.73,16.86,131.73,18.93Z" transform="translate(0 -3)"/><path d="M7.89,57.17H4.22v3.4H8.31v1H3V52.15H8.1v1H4.22v3H7.89v1Z" transform="translate(0 -3)"/><path d="M17.84,57.45c-0.07-1.32-.15-2.9-0.14-4.08h0c-0.32,1.11-.71,2.28-1.19,3.59L14.8,61.54H13.88L12.35,57c-0.45-1.33-.83-2.55-1.09-3.67h0c0,1.18-.1,2.76-0.18,4.17l-0.25,4H9.64l0.66-9.44h1.56l1.61,4.57c0.39,1.16.71,2.2,1,3.18h0c0.24-1,.57-2,1-3.18l1.68-4.57h1.55l0.59,9.44H18.08Z" transform="translate(0 -3)"/><path d="M29.21,56.78c0,3.25-2,5-4.38,5S20.58,59.82,20.58,57s1.86-5,4.38-5S29.21,54,29.21,56.78Zm-7.33.15c0,2,1.09,3.82,3,3.82s3-1.78,3-3.92c0-1.88-1-3.84-3-3.84S21.89,54.86,21.89,56.93Z" transform="translate(0 -3)"/><path d="M48.6,52.28a17.42,17.42,0,0,1,2.59-.2A5.41,5.41,0,0,1,55,53.26a4.35,4.35,0,0,1,1.33,3.39A5,5,0,0,1,55,60.32a5.82,5.82,0,0,1-4.17,1.36,19.73,19.73,0,0,1-2.21-.11V52.28Zm1.22,8.35A7.74,7.74,0,0,0,51,60.7c2.6,0,4-1.46,4-4,0-2.23-1.25-3.64-3.82-3.64a6.91,6.91,0,0,0-1.43.13v7.45Z" transform="translate(0 -3)"/><path d="M62.81,57.17H59.14v3.4h4.09v1H57.92V52.15H63v1H59.14v3h3.67v1Z" transform="translate(0 -3)"/><path d="M72.76,57.45c-0.07-1.32-.15-2.9-0.14-4.08h0c-0.32,1.11-.71,2.28-1.19,3.59l-1.67,4.58H68.8L67.27,57c-0.45-1.33-.83-2.55-1.09-3.67h0c0,1.18-.1,2.76-0.18,4.17l-0.25,4H64.56l0.66-9.44h1.56l1.61,4.57c0.39,1.16.71,2.2,1,3.18h0c0.24-1,.57-2,1-3.18L72,52.15H73.6l0.59,9.44H73Z" transform="translate(0 -3)"/><path d="M84.13,56.78c0,3.25-2,5-4.38,5S75.5,59.82,75.5,57s1.86-5,4.38-5S84.13,54,84.13,56.78Zm-7.33.15c0,2,1.09,3.82,3,3.82s3-1.78,3-3.92c0-1.88-1-3.84-3-3.84S76.81,54.86,76.81,56.93Z" transform="translate(0 -3)"/><path d="M103.52,52.28a17.42,17.42,0,0,1,2.59-.2,5.41,5.41,0,0,1,3.82,1.18,4.35,4.35,0,0,1,1.33,3.39,5,5,0,0,1-1.36,3.67,5.82,5.82,0,0,1-4.17,1.36,19.72,19.72,0,0,1-2.21-.11V52.28Zm1.22,8.35a7.75,7.75,0,0,0,1.23.07c2.61,0,4-1.46,4-4,0-2.23-1.25-3.64-3.82-3.64a6.91,6.91,0,0,0-1.43.13v7.45Z" transform="translate(0 -3)"/><path d="M117.73,57.17h-3.67v3.4h4.09v1h-5.31V52.15h5.1v1h-3.88v3h3.67v1Z" transform="translate(0 -3)"/><path d="M127.68,57.45c-0.07-1.32-.15-2.9-0.14-4.08h0c-0.32,1.11-.71,2.28-1.19,3.59l-1.67,4.58h-0.92L122.19,57c-0.45-1.33-.83-2.55-1.09-3.67h0c0,1.18-.1,2.76-0.18,4.17l-0.25,4h-1.16l0.66-9.44h1.55l1.61,4.57c0.39,1.16.71,2.2,1,3.18h0c0.24-1,.57-2,1-3.18L127,52.15h1.55l0.59,9.44h-1.19Z" transform="translate(0 -3)"/><path d="M139.05,56.78c0,3.25-2,5-4.38,5s-4.25-1.93-4.25-4.79,1.86-5,4.38-5S139.05,54,139.05,56.78Zm-7.33.15c0,2,1.09,3.82,3,3.82s3-1.78,3-3.92c0-1.88-1-3.84-3-3.84S131.73,54.86,131.73,56.93Z" transform="translate(0 -3)"/><path d="M161.4,52.28a17.42,17.42,0,0,1,2.59-.2,5.41,5.41,0,0,1,3.82,1.18,4.35,4.35,0,0,1,1.33,3.39,5,5,0,0,1-1.36,3.67,5.82,5.82,0,0,1-4.17,1.36,19.72,19.72,0,0,1-2.21-.11V52.28Zm1.22,8.35a7.75,7.75,0,0,0,1.23.07c2.61,0,4-1.46,4-4,0-2.23-1.25-3.64-3.82-3.64a6.91,6.91,0,0,0-1.43.13v7.45Z" transform="translate(0 -3)"/><path d="M175.62,57.17h-3.67v3.4H176v1h-5.31V52.15h5.1v1h-3.88v3h3.67v1Z" transform="translate(0 -3)"/><path d="M7.89,95.17H4.22v3.4H8.31v1H3V90.15H8.1v1H4.22v3H7.89v1Z" transform="translate(0 -3)"/><path d="M17.84,95.45c-0.07-1.32-.15-2.9-0.14-4.08h0c-0.32,1.11-.71,2.28-1.19,3.59L14.8,99.54H13.88L12.35,95c-0.45-1.33-.83-2.55-1.09-3.67h0c0,1.18-.1,2.76-0.18,4.17l-0.25,4H9.64l0.66-9.44h1.56l1.61,4.57c0.39,1.16.71,2.2,1,3.18h0c0.24-1,.57-2,1-3.18l1.68-4.57h1.55l0.59,9.44H18.08Z" transform="translate(0 -3)"/><path d="M29.21,94.78c0,3.25-2,5-4.38,5S20.58,97.82,20.58,95s1.86-5,4.38-5S29.21,92,29.21,94.78Zm-7.33.15c0,2,1.09,3.82,3,3.82s3-1.78,3-3.92c0-1.88-1-3.84-3-3.84S21.89,92.86,21.89,94.93Z" transform="translate(0 -3)"/><path d="M48.6,90.28a17.57,17.57,0,0,1,2.59-.2A5.41,5.41,0,0,1,55,91.26a4.35,4.35,0,0,1,1.33,3.39A5,5,0,0,1,55,98.32a5.82,5.82,0,0,1-4.17,1.36,19.6,19.6,0,0,1-2.21-.11V90.28Zm1.22,8.35A7.62,7.62,0,0,0,51,98.7c2.6,0,4-1.46,4-4,0-2.23-1.25-3.64-3.82-3.64a7,7,0,0,0-1.43.13v7.45Z" transform="translate(0 -3)"/><path d="M62.81,95.17H59.14v3.4h4.09v1H57.92V90.15H63v1H59.14v3h3.67v1Z" transform="translate(0 -3)"/><path d="M72.76,95.45c-0.07-1.32-.15-2.9-0.14-4.08h0c-0.32,1.11-.71,2.28-1.19,3.59l-1.67,4.58H68.8L67.27,95c-0.45-1.33-.83-2.55-1.09-3.67h0c0,1.18-.1,2.76-0.18,4.17l-0.25,4H64.56l0.66-9.44h1.56l1.61,4.57c0.39,1.16.71,2.2,1,3.18h0c0.24-1,.57-2,1-3.18L72,90.15H73.6l0.59,9.44H73Z" transform="translate(0 -3)"/><path d="M84.13,94.78c0,3.25-2,5-4.38,5S75.5,97.82,75.5,95s1.86-5,4.38-5S84.13,92,84.13,94.78Zm-7.33.15c0,2,1.09,3.82,3,3.82s3-1.78,3-3.92c0-1.88-1-3.84-3-3.84S76.81,92.86,76.81,94.93Z" transform="translate(0 -3)"/><path d="M103.52,90.28a17.56,17.56,0,0,1,2.59-.2,5.41,5.41,0,0,1,3.82,1.18,4.35,4.35,0,0,1,1.33,3.39,5,5,0,0,1-1.36,3.67,5.82,5.82,0,0,1-4.17,1.36,19.6,19.6,0,0,1-2.21-.11V90.28Zm1.22,8.35a7.63,7.63,0,0,0,1.23.07c2.61,0,4-1.46,4-4,0-2.23-1.25-3.64-3.82-3.64a7,7,0,0,0-1.43.13v7.45Z" transform="translate(0 -3)"/><path d="M117.73,95.17h-3.67v3.4h4.09v1h-5.31V90.15h5.1v1h-3.88v3h3.67v1Z" transform="translate(0 -3)"/><path d="M127.68,95.45c-0.07-1.32-.15-2.9-0.14-4.08h0c-0.32,1.11-.71,2.28-1.19,3.59l-1.67,4.58h-0.92L122.19,95c-0.45-1.33-.83-2.55-1.09-3.67h0c0,1.18-.1,2.76-0.18,4.17l-0.25,4h-1.16l0.66-9.44h1.55l1.61,4.57c0.39,1.16.71,2.2,1,3.18h0c0.24-1,.57-2,1-3.18L127,90.15h1.55l0.59,9.44h-1.19Z" transform="translate(0 -3)"/><path d="M139.05,94.78c0,3.25-2,5-4.38,5s-4.25-1.93-4.25-4.79,1.86-5,4.38-5S139.05,92,139.05,94.78Zm-7.33.15c0,2,1.09,3.82,3,3.82s3-1.78,3-3.92c0-1.88-1-3.84-3-3.84S131.73,92.86,131.73,94.93Z" transform="translate(0 -3)"/><path d="M161.4,90.28a17.56,17.56,0,0,1,2.59-.2,5.41,5.41,0,0,1,3.82,1.18,4.35,4.35,0,0,1,1.33,3.39,5,5,0,0,1-1.36,3.67,5.82,5.82,0,0,1-4.17,1.36,19.6,19.6,0,0,1-2.21-.11V90.28Zm1.22,8.35a7.63,7.63,0,0,0,1.23.07c2.61,0,4-1.46,4-4,0-2.23-1.25-3.64-3.82-3.64a7,7,0,0,0-1.43.13v7.45Z" transform="translate(0 -3)"/><path d="M175.62,95.17h-3.67v3.4H176v1h-5.31V90.15h5.1v1h-3.88v3h3.67v1Z" transform="translate(0 -3)"/><path d="M7.89,133.17H4.22v3.4H8.31v1H3v-9.44H8.1v1H4.22v3H7.89v1Z" transform="translate(0 -3)"/><path d="M17.84,133.45c-0.07-1.32-.15-2.9-0.14-4.08h0c-0.32,1.11-.71,2.28-1.19,3.59l-1.67,4.58H13.88L12.35,133c-0.45-1.33-.83-2.55-1.09-3.67h0c0,1.18-.1,2.76-0.18,4.17l-0.25,4H9.64l0.66-9.44h1.56l1.61,4.57c0.39,1.16.71,2.2,1,3.18h0c0.24-1,.57-2,1-3.18l1.68-4.57h1.55l0.59,9.44H18.08Z" transform="translate(0 -3)"/><path d="M29.21,132.78c0,3.25-2,5-4.38,5s-4.24-1.93-4.24-4.79,1.86-5,4.38-5S29.21,130,29.21,132.78Zm-7.33.15c0,2,1.09,3.82,3,3.82s3-1.78,3-3.92c0-1.88-1-3.84-3-3.84S21.89,130.86,21.89,132.93Z" transform="translate(0 -3)"/><path d="M48.6,128.28a17.57,17.57,0,0,1,2.59-.2A5.41,5.41,0,0,1,55,129.26a4.35,4.35,0,0,1,1.33,3.39A5,5,0,0,1,55,136.32a5.82,5.82,0,0,1-4.17,1.36,19.6,19.6,0,0,1-2.21-.11v-9.29Zm1.22,8.35a7.62,7.62,0,0,0,1.23.07c2.6,0,4-1.46,4-4,0-2.23-1.25-3.64-3.82-3.64a7,7,0,0,0-1.43.13v7.45Z" transform="translate(0 -3)"/><path d="M62.81,133.17H59.14v3.4h4.09v1H57.92v-9.44H63v1H59.14v3h3.67v1Z" transform="translate(0 -3)"/><path d="M72.76,133.45c-0.07-1.32-.15-2.9-0.14-4.08h0c-0.32,1.11-.71,2.28-1.19,3.59l-1.67,4.58H68.8L67.27,133c-0.45-1.33-.83-2.55-1.09-3.67h0c0,1.18-.1,2.76-0.18,4.17l-0.25,4H64.56l0.66-9.44h1.56l1.61,4.57c0.39,1.16.71,2.2,1,3.18h0c0.24-1,.57-2,1-3.18L72,128.15H73.6l0.59,9.44H73Z" transform="translate(0 -3)"/><path d="M84.13,132.78c0,3.25-2,5-4.38,5S75.5,135.82,75.5,133s1.86-5,4.38-5S84.13,130,84.13,132.78Zm-7.33.15c0,2,1.09,3.82,3,3.82s3-1.78,3-3.92c0-1.88-1-3.84-3-3.84S76.81,130.86,76.81,132.93Z" transform="translate(0 -3)"/><path d="M103.52,128.28a17.56,17.56,0,0,1,2.59-.2,5.41,5.41,0,0,1,3.82,1.18,4.35,4.35,0,0,1,1.33,3.39,5,5,0,0,1-1.36,3.67,5.82,5.82,0,0,1-4.17,1.36,19.6,19.6,0,0,1-2.21-.11v-9.29Zm1.22,8.35a7.63,7.63,0,0,0,1.23.07c2.61,0,4-1.46,4-4,0-2.23-1.25-3.64-3.82-3.64a7,7,0,0,0-1.43.13v7.45Z" transform="translate(0 -3)"/><path d="M117.73,133.17h-3.67v3.4h4.09v1h-5.31v-9.44h5.1v1h-3.88v3h3.67v1Z" transform="translate(0 -3)"/><path d="M127.68,133.45c-0.07-1.32-.15-2.9-0.14-4.08h0c-0.32,1.11-.71,2.28-1.19,3.59l-1.67,4.58h-0.92l-1.53-4.5c-0.45-1.33-.83-2.55-1.09-3.67h0c0,1.18-.1,2.76-0.18,4.17l-0.25,4h-1.16l0.66-9.44h1.55l1.61,4.57c0.39,1.16.71,2.2,1,3.18h0c0.24-1,.57-2,1-3.18l1.68-4.57h1.55l0.59,9.44h-1.19Z" transform="translate(0 -3)"/><path d="M139.05,132.78c0,3.25-2,5-4.38,5s-4.25-1.93-4.25-4.79,1.86-5,4.38-5S139.05,130,139.05,132.78Zm-7.33.15c0,2,1.09,3.82,3,3.82s3-1.78,3-3.92c0-1.88-1-3.84-3-3.84S131.73,130.86,131.73,132.93Z" transform="translate(0 -3)"/><path d="M161.4,128.28a17.56,17.56,0,0,1,2.59-.2,5.41,5.41,0,0,1,3.82,1.18,4.35,4.35,0,0,1,1.33,3.39,5,5,0,0,1-1.36,3.67,5.82,5.82,0,0,1-4.17,1.36,19.6,19.6,0,0,1-2.21-.11v-9.29Zm1.22,8.35a7.63,7.63,0,0,0,1.23.07c2.61,0,4-1.46,4-4,0-2.23-1.25-3.64-3.82-3.64a7,7,0,0,0-1.43.13v7.45Z" transform="translate(0 -3)"/><path d="M175.62,133.17h-3.67v3.4H176v1h-5.31v-9.44h5.1v1h-3.88v3h3.67v1Z" transform="translate(0 -3)"/><path d="M48.6,166.28a17.57,17.57,0,0,1,2.59-.2A5.41,5.41,0,0,1,55,167.26a4.35,4.35,0,0,1,1.33,3.39A5,5,0,0,1,55,174.32a5.82,5.82,0,0,1-4.17,1.36,19.6,19.6,0,0,1-2.21-.11v-9.29Zm1.22,8.35a7.62,7.62,0,0,0,1.23.07c2.6,0,4-1.46,4-4,0-2.23-1.25-3.64-3.82-3.64a7,7,0,0,0-1.43.13v7.45Z" transform="translate(0 -3)"/><path d="M62.81,171.17H59.14v3.4h4.09v1H57.92v-9.44H63v1H59.14v3h3.67v1Z" transform="translate(0 -3)"/><path d="M72.76,171.45c-0.07-1.32-.15-2.9-0.14-4.08h0c-0.32,1.11-.71,2.28-1.19,3.59l-1.67,4.58H68.8L67.27,171c-0.45-1.33-.83-2.55-1.09-3.67h0c0,1.18-.1,2.76-0.18,4.17l-0.25,4H64.56l0.66-9.44h1.56l1.61,4.57c0.39,1.16.71,2.2,1,3.18h0c0.24-1,.57-2,1-3.18L72,166.15H73.6l0.59,9.44H73Z" transform="translate(0 -3)"/><path d="M84.13,170.78c0,3.25-2,5-4.38,5S75.5,173.82,75.5,171s1.86-5,4.38-5S84.13,168,84.13,170.78Zm-7.33.15c0,2,1.09,3.82,3,3.82s3-1.78,3-3.92c0-1.88-1-3.84-3-3.84S76.81,168.86,76.81,170.93Z" transform="translate(0 -3)"/><path d="M103.52,166.28a17.56,17.56,0,0,1,2.59-.2,5.41,5.41,0,0,1,3.82,1.18,4.35,4.35,0,0,1,1.33,3.39,5,5,0,0,1-1.36,3.67,5.82,5.82,0,0,1-4.17,1.36,19.6,19.6,0,0,1-2.21-.11v-9.29Zm1.22,8.35a7.63,7.63,0,0,0,1.23.07c2.61,0,4-1.46,4-4,0-2.23-1.25-3.64-3.82-3.64a7,7,0,0,0-1.43.13v7.45Z" transform="translate(0 -3)"/><path d="M117.73,171.17h-3.67v3.4h4.09v1h-5.31v-9.44h5.1v1h-3.88v3h3.67v1Z" transform="translate(0 -3)"/><path d="M127.68,171.45c-0.07-1.32-.15-2.9-0.14-4.08h0c-0.32,1.11-.71,2.28-1.19,3.59l-1.67,4.58h-0.92l-1.53-4.5c-0.45-1.33-.83-2.55-1.09-3.67h0c0,1.18-.1,2.76-0.18,4.17l-0.25,4h-1.16l0.66-9.44h1.55l1.61,4.57c0.39,1.16.71,2.2,1,3.18h0c0.24-1,.57-2,1-3.18l1.68-4.57h1.55l0.59,9.44h-1.19Z" transform="translate(0 -3)"/><path d="M139.05,170.78c0,3.25-2,5-4.38,5s-4.25-1.93-4.25-4.79,1.86-5,4.38-5S139.05,168,139.05,170.78Zm-7.33.15c0,2,1.09,3.82,3,3.82s3-1.78,3-3.92c0-1.88-1-3.84-3-3.84S131.73,168.86,131.73,170.93Z" transform="translate(0 -3)"/></g></svg>