<?xml version="1.0" encoding="utf-8"?>
<!-- Generator: Adobe Illustrator 21.0.0, SVG Export Plug-In . SVG Version: 6.00 Build 0)  -->
<svg version="1.1" id="Layer_1" xmlns="http://www.w3.org/2000/svg" xmlns:xlink="http://www.w3.org/1999/xlink" x="0px" y="0px"
	 viewBox="0 0 63 62.5" style="enable-background:new 0 0 63 62.5;" xml:space="preserve">
<style type="text/css">
	.st0{fill:none;stroke:#000111;stroke-linecap:round;stroke-linejoin:round;}
	.st1{fill:#E62B1E;}
	.st2{fill:none;stroke:#000111;stroke-linecap:round;stroke-linejoin:bevel;}
	.st3{stroke:#000111;stroke-linecap:round;stroke-linejoin:round;}
</style>
<title>icon-award</title>
<g>
	<line class="st0" x1="7.5" y1="58" x2="57.5" y2="58"/>
	<line class="st0" x1="62.5" y1="58" x2="60.5" y2="58"/>
	<line class="st0" x1="3.5" y1="58" x2="0.5" y2="58"/>
	<line class="st0" x1="20.5" y1="60" x2="14.5" y2="60"/>
	<line class="st0" x1="24.5" y1="60" x2="23.5" y2="60"/>
	<line class="st0" x1="35.5" y1="60" x2="27.5" y2="60"/>
	<line class="st0" x1="29.5" y1="62" x2="27.5" y2="62"/>
	<line class="st0" x1="46.5" y1="62" x2="32.5" y2="62"/>
</g>
<path class="st1" d="M14.4,36.3l-8,13.9l8.1,0.1l4,6.9l7.7-13.3C21.5,42.7,17.4,40,14.4,36.3z"/>
<line class="st0" x1="16.5" y1="47.5" x2="18.5" y2="44.5"/>
<path class="st0" d="M14.4,36.3l-8,13.9l8.1,0.1l4,6.9l7.7-13.3C21.5,42.7,17.4,40,14.4,36.3z"/>
<path class="st1" d="M48.6,36.3c-3,3.7-7.2,6.4-11.8,7.5l7.7,13.3l4-6.9l8.1-0.1L48.6,36.3z"/>
<line class="st0" x1="47.5" y1="47.5" x2="45.5" y2="44.5"/>
<path class="st0" d="M48.6,36.3c-3,3.7-7.2,6.4-11.8,7.5l7.7,13.3l4-6.9l8.1-0.1L48.6,36.3z"/>
<path class="st2" d="M21.5,2.9c-0.3,0.2-0.7,0.4-1,0.5"/>
<path class="st2" d="M53.4,24.5c0.1-0.7,0.1-1.3,0.1-2c0-12.2-9.8-22-22-22c-2,0-4.1,0.3-6,0.8"/>
<path class="st2" d="M52,30.5c0.1-0.3,0.2-0.7,0.4-1"/>
<path class="st2" d="M17.5,5.5c-9.4,7.8-10.6,21.6-2.9,31s21.6,10.6,31,2.9c1.7-1.4,3.2-3,4.4-4.9"/>
<path class="st2" d="M39.5,11C33.2,6.6,24.4,8.2,20,14.5c-3.6,5.2-3.3,12.1,0.8,17"/>
<path class="st2" d="M23.5,34c6.3,4.4,15.1,2.9,19.5-3.5c3.9-5.5,3.2-13-1.5-17.8"/>
<g>
	<line class="st0" x1="26.5" y1="17.5" x2="36.5" y2="27.5"/>
	<path class="st3" d="M32.5,18.5l4.2,4.2"/>
	<path class="st3" d="M26.5,22.5l4.2,4.2"/>
</g>
</svg>
