<svg xmlns="http://www.w3.org/2000/svg" viewBox="0 0 62 64"><title>icon-address</title><path d="M1,59.5H21m2,0H52.94m2.13,0H62" transform="translate(-0.5 0)" fill="none" stroke="#2a2f46" stroke-linecap="round" stroke-linejoin="round" fill-rule="evenodd"/><path d="M10,61.5H25.06m1.94,0h1.06m1.88,0H46.06" transform="translate(-0.5 0)" fill="none" stroke="#2a2f46" stroke-linecap="round" stroke-linejoin="round" fill-rule="evenodd"/><path d="M34,63.5h1.06m1.75,0H51.06m2,0h3" transform="translate(-0.5 0)" fill="none" stroke="#2a2f46" stroke-linecap="round" stroke-linejoin="round" fill-rule="evenodd"/><path d="M7,33.07L8,27l12-9,12,9,6.89-5.17M41,20.25L44,18l12,9,3.72,23.08m0.33,2.06L61,58,46,46,32,59,17,46,9.87,52.11M7,54.53L3,58,5.89,40.07m0.47-2.9,0.17-1.08" transform="translate(-0.5 0)" fill="none" stroke="#2a2f46" stroke-linecap="round" stroke-linejoin="round" fill-rule="evenodd"/><polygon points="6.5 51 9.5 28 19.5 21 31.5 30 43.5 21 52.5 28 56.5 51 45.5 42 31.5 55 17 43 6.5 51" fill="none" stroke="#2a2f46" stroke-linecap="round" stroke-linejoin="round" fill-rule="evenodd"/><path d="M20,19L18.46,32.81m-0.35,3.11L18,37m-0.33,2.94L17,46" transform="translate(-0.5 0)" fill="none" stroke="#2a2f46" stroke-linecap="round" stroke-linejoin="round" fill-rule="evenodd"/><path d="M32,27v7m0,2v1m0,2V58" transform="translate(-0.5 0)" fill="none" stroke="#2a2f46" stroke-linecap="round" stroke-linejoin="round" fill-rule="evenodd"/><path d="M44,19l1.26,17m0.15,2L46,46" transform="translate(-0.5 0)" fill="none" stroke="#2a2f46" stroke-linecap="round" stroke-linejoin="round" fill-rule="evenodd"/><path d="M29.8,20.46q0.29,0.8.53,1.62l0.14,0.49a1.73,1.73,0,0,0,3.06,0l0.14-.5a28.51,28.51,0,0,1,4.92-9.57h0A7.41,7.41,0,0,0,40,8.17a8,8,0,0,0-16-.28,7.4,7.4,0,0,0,1.4,4.62h0Q26.25,13.6,27,14.76m1.53,2.7q0.25,0.51.49,1" transform="translate(-0.5 0)" fill="none" stroke="#2a2f46" stroke-linecap="round" stroke-linejoin="round"/><path d="M32,5.5a3,3,0,1,1-3,3,3,3,0,0,1,3-3m0-1a4,4,0,1,0,4,4,4,4,0,0,0-4-4h0Z" transform="translate(-0.5 0)" fill="#2a2f46"/></svg>