<svg xmlns="http://www.w3.org/2000/svg" viewBox="0 0 63.5 63.5"><title>icon-working</title><path d="M3,59.5H5m2,0H8m2,0H50.94m2.13,0H55" transform="translate(-2.5 -0.5)" fill="none" stroke="#2a2f46" stroke-linecap="round" stroke-linejoin="round" fill-rule="evenodd"/><path d="M21,61.5h5.06m1.94,0H43.06m1.88,0h1.12m1.94,0h4" transform="translate(-2.5 -0.5)" stroke="#2a2f46" stroke-linecap="round" stroke-linejoin="round" fill-rule="evenodd"/><path d="M12,63.5H28.06m2,0h2" transform="translate(-2.5 -0.5)" fill="none" stroke="#2a2f46" stroke-linecap="round" stroke-linejoin="round" fill-rule="evenodd"/><path d="M5.27,18.74q0.22-.52.46-1m2.4-4.17A29,29,0,0,1,51,8.09m3,3q0.48,0.56.93,1.14m2.57,3.92a29,29,0,0,1-.52,28.7m-2,3a29,29,0,0,1-51-25.17" transform="translate(-2.5 -0.5)" fill="none" stroke="#2a2f46" stroke-linecap="round" stroke-linejoin="round" fill-rule="evenodd"/><path d="M32,6A24,24,0,1,1,8,30,24,24,0,0,1,32,6m0-1A25,25,0,1,0,57,30,25,25,0,0,0,32,5h0Z" transform="translate(-2.5 -0.5)" fill="#2a2f46"/><line x1="29.5" y1="8.5" x2="29.5" y2="11.5" fill="none" stroke="#2a2f46" stroke-linecap="round" stroke-linejoin="round"/><line x1="29.5" y1="47.5" x2="29.5" y2="50.5" fill="none" stroke="#2a2f46" stroke-linecap="round"/><line x1="11.5" y1="30.5" x2="8.5" y2="30.5" fill="none" stroke="#2a2f46" stroke-linecap="round" stroke-linejoin="round"/><line x1="47.5" y1="29.5" x2="50.5" y2="29.5" fill="none" stroke="#2a2f46" stroke-linecap="round" stroke-linejoin="round"/><line x1="44.5" y1="14.5" x2="42.5" y2="16.5" fill="none" stroke="#2a2f46" stroke-linecap="round" stroke-linejoin="round"/><line x1="14.5" y1="44.5" x2="16.5" y2="42.5" fill="none" stroke="#2a2f46" stroke-linecap="round" stroke-linejoin="round"/><line x1="42.5" y1="42.5" x2="44.5" y2="44.5" fill="none" stroke="#2a2f46" stroke-linecap="round" stroke-linejoin="round"/><line x1="14.5" y1="14.5" x2="16.5" y2="16.5" fill="none" stroke="#2a2f46" stroke-linecap="round" stroke-linejoin="round"/><path d="M32,29a1,1,0,1,1-1,1,1,1,0,0,1,1-1m0-1a2,2,0,1,0,2,2,2,2,0,0,0-2-2h0Z" transform="translate(-2.5 -0.5)" fill="#2a2f46"/><line x1="29.5" y1="27.5" x2="29.5" y2="14.5" fill="none" stroke="#2a2f46" stroke-linecap="round" stroke-linejoin="round"/><line x1="31.5" y1="29.5" x2="39.5" y2="29.5" fill="none" stroke="#2a2f46" stroke-linecap="round" stroke-linejoin="round"/></svg>