<?xml version="1.0" encoding="utf-8"?>
<!-- Generator: Adobe Illustrator 19.0.1, SVG Export Plug-In . SVG Version: 6.00 Build 0)  -->
<svg version="1.1" id="paint_and_brush" xmlns="http://www.w3.org/2000/svg" xmlns:xlink="http://www.w3.org/1999/xlink" x="0px"
	 y="0px" viewBox="0 0 512 512" style="enable-background:new 0 0 512 512;" xml:space="preserve">
<style type="text/css">
	.st0{fill:none;stroke:#2a2f46;stroke-width:8;stroke-linecap:round;stroke-miterlimit:10;}
	.st1{fill:none;stroke:#2a2f46;stroke-width:8;stroke-linecap:round;stroke-linejoin:round;stroke-miterlimit:10;}
</style>
<g id="bottom_lines_1_">
	<line class="st0" x1="342" y1="464" x2="48" y2="464"/>
	<line class="st0" x1="456" y1="464" x2="366" y2="464"/>
	<line class="st0" x1="489" y1="464" x2="480" y2="464"/>
	<line class="st0" x1="95" y1="486" x2="195" y2="486"/>
	<line class="st0" x1="219" y1="486" x2="219" y2="486"/>
	<line class="st0" x1="244" y1="486" x2="302" y2="486"/>
	<line class="st0" x1="291" y1="508" x2="370" y2="508"/>
	<line class="st0" x1="384" y1="508" x2="410" y2="508"/>
	<path class="st0" d="M370,508c0-3.87,3.13-7,7-7s7,3.13,7,7"/>
	<line class="st0" x1="267" y1="508" x2="265" y2="508"/>
</g>
<g id="paint_2_">
	<g id="diagonal_lines_1_">
		<line class="st0" x1="268.63" y1="327" x2="344.29" y2="402.66"/>
		<line class="st0" x1="310.35" y1="334.78" x2="345" y2="369.43"/>
		<line class="st0" x1="268.63" y1="360.94" x2="285.6" y2="377.91"/>
		<line class="st0" x1="298.33" y1="390.64" x2="298.33" y2="390.64"/>
	</g>
	<path id="paint_drops" class="st1" d="M180,206v26h89v35c0,4.4,3.6,8,8,8s8-3.6,8-8v-35h22v45c0,4.4,3.6,8,8,8s8-3.6,8-8v-45h22v15
		c0,4.4,3.6,8,8,8s8-3.6,8-8v-15h22v9c0,4.4,3.6,8,8,8s8-3.6,8-8v-9h30v-26"/>
	<g id="border_pain_box">
		<line class="st1" x1="180" y1="378" x2="180" y2="416"/>
		<polyline class="st1" points="261,206 180,206 180,232 		"/>
		<polyline class="st1" points="429,267 429,206 285,206 		"/>
		<line class="st1" x1="429" y1="293" x2="429" y2="291"/>
		<line class="st1" x1="429" y1="364" x2="429" y2="317"/>
		<path class="st1" d="M180,440v10c0,7.73,6.27,14,14,14h221c7.73,0,14-6.27,14-14v-62"/>
	</g>
	<g id="border_box_top">
		<path class="st1" d="M186,174h-14c-3.31,0-6,2.69-6,6v20c0,3.31,2.69,6,6,6h89"/>
		<line class="st1" x1="211" y1="174" x2="210" y2="174"/>
		<path class="st1" d="M285,206h152c3.31,0,6-2.69,6-6v-20c0-3.31-2.69-6-6-6H235"/>
	</g>
	<g id="grip_2_">
		<path id="grip_7_" class="st1" d="M418.58,54C443.68,81.4,459,117.91,459,158v32h-16"/>
		<path id="grip_5_" class="st1" d="M403.96,40c0.4,0.33,0.79,0.67,1.18,1"/>
		<path id="grip_4_" class="st1" d="M291,4.63C295.61,4.21,300.28,4,305,4h0c31.05,0,59.95,9.19,84.14,25"/>
		<path id="grip_1_" class="st1" d="M234.59,21c11.97-6.17,24.86-10.81,38.41-13.67"/>
		<path id="grip_3_" class="st1" d="M166,190h-15v-32c0-53.2,26.98-100.1,68-127.77"/>
	</g>
</g>
<g id="brush">
	<path id="paint_drops_1_" class="st1" d="M34,232v26h17v12c0,4.4,3.6,8,8,8s8-3.6,8-8v-12h22v23c0,4.4,3.6,8,8,8s8-3.6,8-8v-23h22
		v35c0,4.4,3.6,8,8,8s8-3.6,8-8v-35h22v45c0,4.4,3.6,8,8,8s8-3.6,8-8v-45h22v15c0,4.4,3.6,8,8,8s8-3.6,8-8v-15h17v-26"/>
	<g id="border_brush">
		<line class="st1" x1="183" y1="328" x2="181" y2="328"/>
		<polyline class="st1" points="200,232 236,232 236,328 207,328 		"/>
		<polyline class="st1" points="179,232 34,232 34,328 157,328 		"/>
	</g>
	<path id="border_lever" class="st1" d="M157,328H24v38c0,6.63,5.37,12,12,12h23 M183,328h-2 M160,399v-9c0-6.63,5.37-12,12-12h62
		c6.63,0,12-5.37,12-12v-38h-39 M83,378h15c6.63,0,12,5.37,12,12v49c0,13.81,11.19,25,25,25h0c13.81,0,25-11.19,25-25v-16 M135,445
		c-3.31,0-6-2.69-6-6c0-3.31,2.69-6,6-6s6,2.69,6,6C141,442.31,138.31,445,135,445z"/>
	<g id="vertical_line">
		<line class="st1" x1="54" y1="328" x2="54" y2="312"/>
		<line class="st1" x1="75" y1="328" x2="75" y2="304"/>
		<line class="st1" x1="95" y1="328" x2="95" y2="316"/>
		<line class="st1" x1="115" y1="328" x2="115" y2="322"/>
		<line class="st1" x1="216" y1="328" x2="216" y2="305"/>
	</g>
</g>
</svg>
