<?xml version="1.0" encoding="utf-8"?>
<!-- Generator: Adobe Illustrator 19.0.1, SVG Export Plug-In . SVG Version: 6.00 Build 0)  -->
<svg version="1.1" id="megaphone" xmlns="http://www.w3.org/2000/svg" xmlns:xlink="http://www.w3.org/1999/xlink" x="0px" y="0px"
	 viewBox="0 0 512 512" style="enable-background:new 0 0 512 512;" xml:space="preserve">
<style type="text/css">
	.st0{fill:none;stroke:#2a2f46;stroke-width:8;stroke-linecap:round;stroke-miterlimit:10;}
	.st1{fill:none;stroke:#2a2f46;stroke-width:8;stroke-linecap:round;stroke-linejoin:round;stroke-miterlimit:10;}
</style>
<g id="bottom_lines_1_">
	<line class="st0" x1="431" y1="464" x2="71" y2="464"/>
	<line class="st0" x1="23" y1="464" x2="11" y2="464"/>
	<line class="st0" x1="464" y1="464" x2="455" y2="464"/>
	<line class="st0" x1="229" y1="486" x2="339" y2="486"/>
	<line class="st0" x1="363" y1="486" x2="363" y2="486"/>
	<line class="st0" x1="387" y1="486" x2="412" y2="486"/>
	<line class="st0" x1="139" y1="508" x2="222" y2="508"/>
	<line class="st0" x1="125" y1="508" x2="99" y2="508"/>
	<path class="st0" d="M139,508c0-3.87-3.13-7-7-7s-7,3.13-7,7"/>
	<line class="st0" x1="246" y1="508" x2="248" y2="508"/>
	<line class="st0" x1="47" y1="464" x2="47" y2="464"/>
	<line class="st0" x1="205" y1="486" x2="171" y2="486"/>
</g>
<g id="cone">
	<polyline class="st1" points="330.16,302 112.65,434.74 56.08,378.17 81.2,337 	"/>
	<polyline class="st1" points="106,296.36 224.37,102.4 388.42,266.45 350,289.89 	"/>
	<line class="st1" x1="93" y1="317.67" x2="94" y2="316.03"/>
</g>
<path id="mount" class="st1" d="M88.14,447l13.19,13.19c5.08,5.08,13.31,5.08,18.38,0h0c5.08-5.08,5.08-13.31,0-18.38L49.01,371.1
	c-5.08-5.08-13.31-5.08-18.38,0h0c-5.08,5.08-5.08,13.31,0,18.38L71.14,430"/>
<g id="mount_1_">
	<path class="st1" d="M345,186.26l-107.2-107.2c-5.08-5.08-13.31-5.08-18.38,0l0,0c-5.08,5.08-5.08,13.31,0,18.38l173.95,173.95
		c5.08,5.08,13.31,5.08,18.38,0l0,0c5.08-5.08,5.08-13.31,0-18.38L379,220.26"/>
	<line class="st1" x1="363" y1="204.26" x2="362" y2="203.26"/>
</g>
<g id="line_sound">
	<line class="st1" x1="415.29" y1="75.53" x2="354.48" y2="136.34"/>
	<line class="st1" x1="486" y1="146.24" x2="404.68" y2="186.54"/>
	<line class="st1" x1="344.58" y1="4.82" x2="304.27" y2="86.13"/>
</g>
<path id="handle" class="st1" d="M235.68,359.78l0.35,0.35c18.55,18.55,18.55,48.63,0,67.18l0,0c-18.55,18.55-48.63,18.55-67.18,0
	l-15.2-15.2"/>
<g id="shine">
	<line class="st1" x1="213.78" y1="160" x2="215" y2="158"/>
	<line class="st1" x1="143" y1="276" x2="202.19" y2="179"/>
</g>
</svg>
