<svg xmlns="http://www.w3.org/2000/svg" viewBox="0 0 180 175"><title>icon-plans-planet</title><path d="M90,3A90,90,0,0,0,37.36,166H142.64A90,90,0,0,0,90,3Z" transform="translate(0 -3)" fill="#e4eaea"/><path d="M28,166h4m5,0h3m5,0h98m6,0h2" transform="translate(0 -3)" fill="none" stroke="#31364c" stroke-linecap="round" stroke-linejoin="round" stroke-width="2" fill-rule="evenodd"/><path d="M59,171h8m6,0h46m6,0h1m6,0h6" transform="translate(0 -3)" fill="none" stroke="#31364c" stroke-linecap="round" stroke-linejoin="round" stroke-width="2" fill-rule="evenodd"/><path d="M40,177h6m6,0H90" transform="translate(0 -3)" fill="none" stroke="#31364c" stroke-linecap="round" stroke-linejoin="round" stroke-width="2" fill-rule="evenodd"/><line x1="95" y1="174" x2="96" y2="174" fill="none" stroke="#31364c" stroke-linecap="round" stroke-linejoin="round" stroke-width="2"/><path d="M46,177a3,3,0,1,1,6,0" transform="translate(0 -3)" fill="none" stroke="#31364c" stroke-linecap="round" stroke-linejoin="round" stroke-width="2" fill-rule="evenodd"/><path d="M137.32,141.9l2.9-4.41a0.54,0.54,0,0,0,0-.66l-1.67-2a0.53,0.53,0,0,0-.32-0.18,53.19,53.19,0,0,0-6.47-61.14,53.94,53.94,0,0,0-89.5,40.14,53.09,53.09,0,0,0,13.23,35.11A53.85,53.85,0,0,0,82.2,161.43a0.63,0.63,0,0,0-.1.49l0.68,3a0.65,0.65,0,0,0,.6.52L89.7,166a0.65,0.65,0,0,0,.67-0.41l1.16-2.89a0.63,0.63,0,0,0,0-.51,53.91,53.91,0,0,0,42.38-21,0.53,0.53,0,0,0,.3.24l2.52,0.72A0.55,0.55,0,0,0,137.32,141.9Z" transform="translate(0 -3)" fill="#aebcc5"/><path d="M75.36,94.66a8.23,8.23,0,1,0,8.3,8.23A8.27,8.27,0,0,0,75.36,94.66Zm27.77,26.75a5.36,5.36,0,1,0,5.37,5.36A5.37,5.37,0,0,0,103.13,121.41Zm27.34-26.34a6.2,6.2,0,1,0-6.2,6.19A6.19,6.19,0,0,0,130.47,95.06ZM91.09,67.91A4.11,4.11,0,1,0,95.22,72,4.12,4.12,0,0,0,91.09,67.91ZM70.58,134.59a3.5,3.5,0,1,0,3.52,3.5A3.51,3.51,0,0,0,70.58,134.59Zm59.28-13.19a1.86,1.86,0,1,0,1.86,1.86A1.86,1.86,0,0,0,129.86,121.41ZM92.14,149.84A1.84,1.84,0,1,0,94,151.69,1.85,1.85,0,0,0,92.14,149.84Zm-46-43.66a3.5,3.5,0,1,0,3.52,3.5A3.51,3.51,0,0,0,46.14,106.19ZM61.48,74.06a1.86,1.86,0,1,0,1.86,1.86A1.86,1.86,0,0,0,61.48,74.06Z" transform="translate(0 -3)" fill="#8c9fad"/><path d="M78,97.3a8.26,8.26,0,0,0-8.29,8.23,8.15,8.15,0,0,0,1.66,4.93,8.29,8.29,0,0,0,13.26-6.58A8.15,8.15,0,0,0,83,99,8.28,8.28,0,0,0,78,97.3Zm27.77,26.35a5.37,5.37,0,0,0-5.39,5.35,5.31,5.31,0,0,0,1.39,3.58,5.39,5.39,0,0,0,7.73-4.82,5.31,5.31,0,0,0-1.39-3.58A5.38,5.38,0,0,0,105.78,123.65Zm25.7-27.58A6.15,6.15,0,0,0,128.83,91a6.22,6.22,0,0,0-8.13,5.87,6.15,6.15,0,0,0,2.65,5.05A6.22,6.22,0,0,0,131.48,96.07ZM94,70.37a4.11,4.11,0,0,0-2.6,7.7,4.27,4.27,0,0,0,.68.06A4.11,4.11,0,0,0,94,70.37Zm-21.19,66a3.51,3.51,0,0,0-3.52,3.5,3.47,3.47,0,0,0,1,2.43,3.52,3.52,0,0,0,4.81-3.26,3.47,3.47,0,0,0-1-2.43A3.53,3.53,0,0,0,72.83,136.41Zm58.68-13a1.85,1.85,0,0,0-2.7,1.65,1.82,1.82,0,0,0,.2.83,1.85,1.85,0,0,0,2.7-1.65A1.82,1.82,0,0,0,131.52,123.44ZM93,151.64a1.86,1.86,0,0,0-1.86,1.85,1.82,1.82,0,0,0,.2.83,1.85,1.85,0,0,0,2.7-1.65,1.83,1.83,0,0,0-.2-0.83A1.85,1.85,0,0,0,93,151.64ZM48.38,108a3.51,3.51,0,0,0-3.52,3.5,3.47,3.47,0,0,0,1,2.43,3.52,3.52,0,0,0,4.81-3.25,3.47,3.47,0,0,0-1-2.43A3.53,3.53,0,0,0,48.38,108ZM61.89,75.89a1.85,1.85,0,0,0-1.83,2.23,1.86,1.86,0,0,0,3.28-1.2,1.84,1.84,0,0,0,0-.37A1.85,1.85,0,0,0,61.89,75.89Z" transform="translate(0 -3)" fill="#a2b3bd"/><path d="M75.36,94.66a8.23,8.23,0,1,0,8.3,8.23A8.27,8.27,0,0,0,75.36,94.66Zm27.77,26.75a5.36,5.36,0,1,0,5.37,5.36A5.37,5.37,0,0,0,103.13,121.41Zm27.34-26.34a6.2,6.2,0,1,0-6.2,6.19A6.19,6.19,0,0,0,130.47,95.06ZM91.09,67.91A4.11,4.11,0,1,0,95.22,72,4.12,4.12,0,0,0,91.09,67.91ZM70.58,134.59a3.5,3.5,0,1,0,3.52,3.5A3.51,3.51,0,0,0,70.58,134.59Zm59.28-13.19a1.86,1.86,0,1,0,1.86,1.86A1.86,1.86,0,0,0,129.86,121.41ZM92.14,149.84A1.84,1.84,0,1,0,94,151.69,1.85,1.85,0,0,0,92.14,149.84Zm-46-43.66a3.5,3.5,0,1,0,3.52,3.5A3.51,3.51,0,0,0,46.14,106.19ZM61.48,74.06a1.86,1.86,0,1,0,1.86,1.86A1.86,1.86,0,0,0,61.48,74.06Z" transform="translate(0 -3)" fill="none" stroke="#31364c" stroke-linecap="round" stroke-linejoin="round" stroke-width="2"/><path d="M82.06,55.88c1-.17,2.09-0.31,3.14-0.42a0.8,0.8,0,0,1,0-.16l1.15-3.7A0.82,0.82,0,0,1,87.16,51h7.89a0.82,0.82,0,0,1,.79.58L97,55.3a0.8,0.8,0,0,1,0,.16A53.92,53.92,0,0,1,136,79m3,5.09a53.23,53.23,0,0,1-.81,50.54,0.53,0.53,0,0,1,.32.17l1.67,2a0.54,0.54,0,0,1,0,.66l-2.9,4.41a0.55,0.55,0,0,1-.62.23l-2.52-.72a0.53,0.53,0,0,1-.3-0.24A54.11,54.11,0,0,1,119.76,154m-5.68,3.09-1.05.48M107,159.8a54.13,54.13,0,0,1-15.46,2.36,0.63,0.63,0,0,1,0,.51l-1.16,2.89a0.65,0.65,0,0,1-.67.41l-6.32-.5a0.65,0.65,0,0,1-.6-0.52l-0.68-3a0.63,0.63,0,0,1,.11-0.5,53.9,53.9,0,0,1-38-26.37l-3.23.32a0.82,0.82,0,0,1-.85-0.5l-3.06-7.23a0.81,0.81,0,0,1,.23-1l2.37-2A53.06,53.06,0,0,1,38.24,119m-0.91-7.09q-0.1-1.63-.1-3.29a53,53,0,0,1,9.28-30l-1.4-2.1a0.65,0.65,0,0,1,0-.79l4-4.87a0.66,0.66,0,0,1,.77-0.19l2.28,0.93A54.05,54.05,0,0,1,68.07,60.26m5.86-2.35,1-.32" transform="translate(0 -3)" fill="none" stroke="#31364c" stroke-linecap="round" stroke-linejoin="round" stroke-width="2" fill-rule="evenodd"/><g opacity="0.2"><path d="M47.56,15.28a17.42,17.42,0,0,1,2.59-.2A5.41,5.41,0,0,1,54,16.26a4.35,4.35,0,0,1,1.33,3.39,5,5,0,0,1-1.36,3.67,5.82,5.82,0,0,1-4.17,1.36,19.73,19.73,0,0,1-2.21-.11V15.28Zm1.22,8.35A7.74,7.74,0,0,0,50,23.7c2.6,0,4-1.46,4-4,0-2.23-1.25-3.64-3.82-3.64a6.91,6.91,0,0,0-1.43.13v7.45Z" transform="translate(0 -3)"/><path d="M61.77,20.17H58.1v3.4h4.09v1H56.89V15.15H62v1H58.1v3h3.67v1Z" transform="translate(0 -3)"/><path d="M71.73,20.45c-0.07-1.32-.15-2.9-0.14-4.08h0c-0.32,1.11-.71,2.28-1.19,3.59l-1.67,4.58H67.77L66.24,20c-0.45-1.33-.83-2.55-1.09-3.67h0c0,1.18-.1,2.76-0.18,4.17l-0.25,4H63.52l0.66-9.44h1.56l1.61,4.57c0.39,1.16.71,2.2,1,3.18h0c0.24-1,.57-2,1-3.18L71,15.15h1.55l0.59,9.44H72Z" transform="translate(0 -3)"/><path d="M83.1,19.78c0,3.25-2,5-4.38,5S74.47,22.82,74.47,20s1.86-5,4.38-5S83.1,17,83.1,19.78Zm-7.33.15c0,2,1.09,3.82,3,3.82s3-1.78,3-3.92c0-1.88-1-3.84-3-3.84S75.77,17.86,75.77,19.93Z" transform="translate(0 -3)"/><path d="M102.48,15.28a17.42,17.42,0,0,1,2.59-.2,5.41,5.41,0,0,1,3.82,1.18,4.35,4.35,0,0,1,1.33,3.39,5,5,0,0,1-1.36,3.67,5.82,5.82,0,0,1-4.17,1.36,19.72,19.72,0,0,1-2.21-.11V15.28Zm1.22,8.35a7.75,7.75,0,0,0,1.23.07c2.61,0,4-1.46,4-4,0-2.23-1.25-3.64-3.82-3.64a6.91,6.91,0,0,0-1.43.13v7.45Z" transform="translate(0 -3)"/><path d="M116.69,20.17H113v3.4h4.09v1h-5.31V15.15h5.1v1H113v3h3.67v1Z" transform="translate(0 -3)"/><path d="M126.65,20.45c-0.07-1.32-.15-2.9-0.14-4.08h0c-0.32,1.11-.71,2.28-1.19,3.59l-1.67,4.58h-0.92L121.16,20c-0.45-1.33-.83-2.55-1.09-3.67h0c0,1.18-.1,2.76-0.18,4.17l-0.25,4h-1.16l0.66-9.44h1.55l1.61,4.57c0.39,1.16.71,2.2,1,3.18h0c0.24-1,.57-2,1-3.18l1.68-4.57h1.55l0.59,9.44h-1.19Z" transform="translate(0 -3)"/><path d="M138,19.78c0,3.25-2,5-4.38,5s-4.25-1.93-4.25-4.79,1.86-5,4.38-5S138,17,138,19.78Zm-7.33.15c0,2,1.09,3.82,3,3.82s3-1.78,3-3.92c0-1.88-1-3.84-3-3.84S130.69,17.86,130.69,19.93Z" transform="translate(0 -3)"/><path d="M6.85,58.17H3.18v3.4H7.27v1H2V53.15h5.1v1H3.18v3H6.85v1Z" transform="translate(0 -3)"/><path d="M16.81,58.45c-0.07-1.32-.15-2.9-0.14-4.08h0c-0.32,1.11-.71,2.28-1.19,3.59l-1.67,4.58H12.85L11.32,58c-0.45-1.33-.83-2.55-1.09-3.67h0c0,1.18-.1,2.76-0.18,4.17l-0.25,4H8.6l0.66-9.44h1.56l1.61,4.57c0.39,1.16.71,2.2,1,3.18h0c0.24-1,.57-2,1-3.18l1.68-4.57h1.55l0.59,9.44H17Z" transform="translate(0 -3)"/><path d="M28.18,57.78c0,3.25-2,5-4.38,5S19.55,60.82,19.55,58s1.86-5,4.38-5S28.18,55,28.18,57.78Zm-7.33.15c0,2,1.09,3.82,3,3.82s3-1.78,3-3.92c0-1.88-1-3.84-3-3.84S20.85,55.86,20.85,57.93Z" transform="translate(0 -3)"/><path d="M47.56,53.28a17.42,17.42,0,0,1,2.59-.2A5.41,5.41,0,0,1,54,54.26a4.35,4.35,0,0,1,1.33,3.39,5,5,0,0,1-1.36,3.67,5.82,5.82,0,0,1-4.17,1.36,19.73,19.73,0,0,1-2.21-.11V53.28Zm1.22,8.35A7.74,7.74,0,0,0,50,61.7c2.6,0,4-1.46,4-4,0-2.23-1.25-3.64-3.82-3.64a6.91,6.91,0,0,0-1.43.13v7.45Z" transform="translate(0 -3)"/><path d="M61.77,58.17H58.1v3.4h4.09v1H56.89V53.15H62v1H58.1v3h3.67v1Z" transform="translate(0 -3)"/><path d="M71.73,58.45c-0.07-1.32-.15-2.9-0.14-4.08h0c-0.32,1.11-.71,2.28-1.19,3.59l-1.67,4.58H67.77L66.24,58c-0.45-1.33-.83-2.55-1.09-3.67h0c0,1.18-.1,2.76-0.18,4.17l-0.25,4H63.52l0.66-9.44h1.56l1.61,4.57c0.39,1.16.71,2.2,1,3.18h0c0.24-1,.57-2,1-3.18L71,53.15h1.55l0.59,9.44H72Z" transform="translate(0 -3)"/><path d="M83.1,57.78c0,3.25-2,5-4.38,5S74.47,60.82,74.47,58s1.86-5,4.38-5S83.1,55,83.1,57.78Zm-7.33.15c0,2,1.09,3.82,3,3.82s3-1.78,3-3.92c0-1.88-1-3.84-3-3.84S75.77,55.86,75.77,57.93Z" transform="translate(0 -3)"/><path d="M102.48,53.28a17.42,17.42,0,0,1,2.59-.2,5.41,5.41,0,0,1,3.82,1.18,4.35,4.35,0,0,1,1.33,3.39,5,5,0,0,1-1.36,3.67,5.82,5.82,0,0,1-4.17,1.36,19.72,19.72,0,0,1-2.21-.11V53.28Zm1.22,8.35a7.75,7.75,0,0,0,1.23.07c2.61,0,4-1.46,4-4,0-2.23-1.25-3.64-3.82-3.64a6.91,6.91,0,0,0-1.43.13v7.45Z" transform="translate(0 -3)"/><path d="M116.69,58.17H113v3.4h4.09v1h-5.31V53.15h5.1v1H113v3h3.67v1Z" transform="translate(0 -3)"/><path d="M126.65,58.45c-0.07-1.32-.15-2.9-0.14-4.08h0c-0.32,1.11-.71,2.28-1.19,3.59l-1.67,4.58h-0.92L121.16,58c-0.45-1.33-.83-2.55-1.09-3.67h0c0,1.18-.1,2.76-0.18,4.17l-0.25,4h-1.16l0.66-9.44h1.55l1.61,4.57c0.39,1.16.71,2.2,1,3.18h0c0.24-1,.57-2,1-3.18l1.68-4.57h1.55l0.59,9.44h-1.19Z" transform="translate(0 -3)"/><path d="M138,57.78c0,3.25-2,5-4.38,5s-4.25-1.93-4.25-4.79,1.86-5,4.38-5S138,55,138,57.78Zm-7.33.15c0,2,1.09,3.82,3,3.82s3-1.78,3-3.92c0-1.88-1-3.84-3-3.84S130.69,55.86,130.69,57.93Z" transform="translate(0 -3)"/><path d="M160.37,53.28a17.42,17.42,0,0,1,2.59-.2,5.41,5.41,0,0,1,3.82,1.18,4.35,4.35,0,0,1,1.33,3.39,5,5,0,0,1-1.36,3.67,5.82,5.82,0,0,1-4.17,1.36,19.72,19.72,0,0,1-2.21-.11V53.28Zm1.22,8.35a7.75,7.75,0,0,0,1.23.07c2.61,0,4-1.46,4-4,0-2.23-1.25-3.64-3.82-3.64a6.91,6.91,0,0,0-1.43.13v7.45Z" transform="translate(0 -3)"/><path d="M174.58,58.17h-3.67v3.4H175v1h-5.31V53.15h5.1v1h-3.88v3h3.67v1Z" transform="translate(0 -3)"/><path d="M6.85,96.17H3.18v3.4H7.27v1H2V91.15h5.1v1H3.18v3H6.85v1Z" transform="translate(0 -3)"/><path d="M16.81,96.45c-0.07-1.32-.15-2.9-0.14-4.08h0c-0.32,1.11-.71,2.28-1.19,3.59l-1.67,4.58H12.85L11.32,96c-0.45-1.33-.83-2.55-1.09-3.67h0c0,1.18-.1,2.76-0.18,4.17l-0.25,4H8.6l0.66-9.44h1.56l1.61,4.57c0.39,1.16.71,2.2,1,3.18h0c0.24-1,.57-2,1-3.18l1.68-4.57h1.55l0.59,9.44H17Z" transform="translate(0 -3)"/><path d="M28.18,95.78c0,3.25-2,5-4.38,5S19.55,98.82,19.55,96s1.86-5,4.38-5S28.18,93,28.18,95.78Zm-7.33.15c0,2,1.09,3.82,3,3.82s3-1.78,3-3.92c0-1.88-1-3.84-3-3.84S20.85,93.86,20.85,95.93Z" transform="translate(0 -3)"/><path d="M47.56,91.28a17.57,17.57,0,0,1,2.59-.2A5.41,5.41,0,0,1,54,92.26a4.35,4.35,0,0,1,1.33,3.39,5,5,0,0,1-1.36,3.67,5.82,5.82,0,0,1-4.17,1.36,19.6,19.6,0,0,1-2.21-.11V91.28Zm1.22,8.35A7.62,7.62,0,0,0,50,99.7c2.6,0,4-1.46,4-4C54,93.46,52.79,92,50.21,92a7,7,0,0,0-1.43.13v7.45Z" transform="translate(0 -3)"/><path d="M61.77,96.17H58.1v3.4h4.09v1H56.89V91.15H62v1H58.1v3h3.67v1Z" transform="translate(0 -3)"/><path d="M71.73,96.45c-0.07-1.32-.15-2.9-0.14-4.08h0c-0.32,1.11-.71,2.28-1.19,3.59l-1.67,4.58H67.77L66.24,96c-0.45-1.33-.83-2.55-1.09-3.67h0c0,1.18-.1,2.76-0.18,4.17l-0.25,4H63.52l0.66-9.44h1.56l1.61,4.57c0.39,1.16.71,2.2,1,3.18h0c0.24-1,.57-2,1-3.18L71,91.15h1.55l0.59,9.44H72Z" transform="translate(0 -3)"/><path d="M83.1,95.78c0,3.25-2,5-4.38,5S74.47,98.82,74.47,96s1.86-5,4.38-5S83.1,93,83.1,95.78Zm-7.33.15c0,2,1.09,3.82,3,3.82s3-1.78,3-3.92c0-1.88-1-3.84-3-3.84S75.77,93.86,75.77,95.93Z" transform="translate(0 -3)"/><path d="M102.48,91.28a17.56,17.56,0,0,1,2.59-.2,5.41,5.41,0,0,1,3.82,1.18,4.35,4.35,0,0,1,1.33,3.39,5,5,0,0,1-1.36,3.67,5.82,5.82,0,0,1-4.17,1.36,19.6,19.6,0,0,1-2.21-.11V91.28Zm1.22,8.35a7.63,7.63,0,0,0,1.23.07c2.61,0,4-1.46,4-4,0-2.23-1.25-3.64-3.82-3.64a7,7,0,0,0-1.43.13v7.45Z" transform="translate(0 -3)"/><path d="M116.69,96.17H113v3.4h4.09v1h-5.31V91.15h5.1v1H113v3h3.67v1Z" transform="translate(0 -3)"/><path d="M126.65,96.45c-0.07-1.32-.15-2.9-0.14-4.08h0c-0.32,1.11-.71,2.28-1.19,3.59l-1.67,4.58h-0.92L121.16,96c-0.45-1.33-.83-2.55-1.09-3.67h0c0,1.18-.1,2.76-0.18,4.17l-0.25,4h-1.16l0.66-9.44h1.55l1.61,4.57c0.39,1.16.71,2.2,1,3.18h0c0.24-1,.57-2,1-3.18l1.68-4.57h1.55l0.59,9.44h-1.19Z" transform="translate(0 -3)"/><path d="M138,95.78c0,3.25-2,5-4.38,5s-4.25-1.93-4.25-4.79,1.86-5,4.38-5S138,93,138,95.78Zm-7.33.15c0,2,1.09,3.82,3,3.82s3-1.78,3-3.92c0-1.88-1-3.84-3-3.84S130.69,93.86,130.69,95.93Z" transform="translate(0 -3)"/><path d="M160.37,91.28a17.56,17.56,0,0,1,2.59-.2,5.41,5.41,0,0,1,3.82,1.18,4.35,4.35,0,0,1,1.33,3.39,5,5,0,0,1-1.36,3.67,5.82,5.82,0,0,1-4.17,1.36,19.6,19.6,0,0,1-2.21-.11V91.28Zm1.22,8.35a7.63,7.63,0,0,0,1.23.07c2.61,0,4-1.46,4-4,0-2.23-1.25-3.64-3.82-3.64a7,7,0,0,0-1.43.13v7.45Z" transform="translate(0 -3)"/><path d="M174.58,96.17h-3.67v3.4H175v1h-5.31V91.15h5.1v1h-3.88v3h3.67v1Z" transform="translate(0 -3)"/><path d="M6.85,134.17H3.18v3.4H7.27v1H2v-9.44h5.1v1H3.18v3H6.85v1Z" transform="translate(0 -3)"/><path d="M16.81,134.45c-0.07-1.32-.15-2.9-0.14-4.08h0c-0.32,1.11-.71,2.28-1.19,3.59l-1.67,4.58H12.85L11.32,134c-0.45-1.33-.83-2.55-1.09-3.67h0c0,1.18-.1,2.76-0.18,4.17l-0.25,4H8.6l0.66-9.44h1.56l1.61,4.57c0.39,1.16.71,2.2,1,3.18h0c0.24-1,.57-2,1-3.18l1.68-4.57h1.55l0.59,9.44H17Z" transform="translate(0 -3)"/><path d="M28.18,133.78c0,3.25-2,5-4.38,5s-4.24-1.93-4.24-4.79,1.86-5,4.38-5S28.18,131,28.18,133.78Zm-7.33.15c0,2,1.09,3.82,3,3.82s3-1.78,3-3.92c0-1.88-1-3.84-3-3.84S20.85,131.86,20.85,133.93Z" transform="translate(0 -3)"/><path d="M47.56,129.28a17.57,17.57,0,0,1,2.59-.2A5.41,5.41,0,0,1,54,130.26a4.35,4.35,0,0,1,1.33,3.39,5,5,0,0,1-1.36,3.67,5.82,5.82,0,0,1-4.17,1.36,19.6,19.6,0,0,1-2.21-.11v-9.29Zm1.22,8.35a7.62,7.62,0,0,0,1.23.07c2.6,0,4-1.46,4-4,0-2.23-1.25-3.64-3.82-3.64a7,7,0,0,0-1.43.13v7.45Z" transform="translate(0 -3)"/><path d="M61.77,134.17H58.1v3.4h4.09v1H56.89v-9.44H62v1H58.1v3h3.67v1Z" transform="translate(0 -3)"/><path d="M71.73,134.45c-0.07-1.32-.15-2.9-0.14-4.08h0c-0.32,1.11-.71,2.28-1.19,3.59l-1.67,4.58H67.77L66.24,134c-0.45-1.33-.83-2.55-1.09-3.67h0c0,1.18-.1,2.76-0.18,4.17l-0.25,4H63.52l0.66-9.44h1.56l1.61,4.57c0.39,1.16.71,2.2,1,3.18h0c0.24-1,.57-2,1-3.18L71,129.15h1.55l0.59,9.44H72Z" transform="translate(0 -3)"/><path d="M83.1,133.78c0,3.25-2,5-4.38,5s-4.24-1.93-4.24-4.79,1.86-5,4.38-5S83.1,131,83.1,133.78Zm-7.33.15c0,2,1.09,3.82,3,3.82s3-1.78,3-3.92c0-1.88-1-3.84-3-3.84S75.77,131.86,75.77,133.93Z" transform="translate(0 -3)"/><path d="M102.48,129.28a17.56,17.56,0,0,1,2.59-.2,5.41,5.41,0,0,1,3.82,1.18,4.35,4.35,0,0,1,1.33,3.39,5,5,0,0,1-1.36,3.67,5.82,5.82,0,0,1-4.17,1.36,19.6,19.6,0,0,1-2.21-.11v-9.29Zm1.22,8.35a7.63,7.63,0,0,0,1.23.07c2.61,0,4-1.46,4-4,0-2.23-1.25-3.64-3.82-3.64a7,7,0,0,0-1.43.13v7.45Z" transform="translate(0 -3)"/><path d="M116.69,134.17H113v3.4h4.09v1h-5.31v-9.44h5.1v1H113v3h3.67v1Z" transform="translate(0 -3)"/><path d="M126.65,134.45c-0.07-1.32-.15-2.9-0.14-4.08h0c-0.32,1.11-.71,2.28-1.19,3.59l-1.67,4.58h-0.92l-1.53-4.5c-0.45-1.33-.83-2.55-1.09-3.67h0c0,1.18-.1,2.76-0.18,4.17l-0.25,4h-1.16l0.66-9.44h1.55l1.61,4.57c0.39,1.16.71,2.2,1,3.18h0c0.24-1,.57-2,1-3.18l1.68-4.57h1.55l0.59,9.44h-1.19Z" transform="translate(0 -3)"/><path d="M138,133.78c0,3.25-2,5-4.38,5s-4.25-1.93-4.25-4.79,1.86-5,4.38-5S138,131,138,133.78Zm-7.33.15c0,2,1.09,3.82,3,3.82s3-1.78,3-3.92c0-1.88-1-3.84-3-3.84S130.69,131.86,130.69,133.93Z" transform="translate(0 -3)"/><path d="M160.37,129.28a17.56,17.56,0,0,1,2.59-.2,5.41,5.41,0,0,1,3.82,1.18,4.35,4.35,0,0,1,1.33,3.39,5,5,0,0,1-1.36,3.67,5.82,5.82,0,0,1-4.17,1.36,19.6,19.6,0,0,1-2.21-.11v-9.29Zm1.22,8.35a7.63,7.63,0,0,0,1.23.07c2.61,0,4-1.46,4-4,0-2.23-1.25-3.64-3.82-3.64a7,7,0,0,0-1.43.13v7.45Z" transform="translate(0 -3)"/><path d="M174.58,134.17h-3.67v3.4H175v1h-5.31v-9.44h5.1v1h-3.88v3h3.67v1Z" transform="translate(0 -3)"/><path d="M47.56,167.28a17.57,17.57,0,0,1,2.59-.2A5.41,5.41,0,0,1,54,168.26a4.35,4.35,0,0,1,1.33,3.39,5,5,0,0,1-1.36,3.67,5.82,5.82,0,0,1-4.17,1.36,19.6,19.6,0,0,1-2.21-.11v-9.29Zm1.22,8.35a7.62,7.62,0,0,0,1.23.07c2.6,0,4-1.46,4-4,0-2.23-1.25-3.64-3.82-3.64a7,7,0,0,0-1.43.13v7.45Z" transform="translate(0 -3)"/><path d="M61.77,172.17H58.1v3.4h4.09v1H56.89v-9.44H62v1H58.1v3h3.67v1Z" transform="translate(0 -3)"/><path d="M71.73,172.45c-0.07-1.32-.15-2.9-0.14-4.08h0c-0.32,1.11-.71,2.28-1.19,3.59l-1.67,4.58H67.77L66.24,172c-0.45-1.33-.83-2.55-1.09-3.67h0c0,1.18-.1,2.76-0.18,4.17l-0.25,4H63.52l0.66-9.44h1.56l1.61,4.57c0.39,1.16.71,2.2,1,3.18h0c0.24-1,.57-2,1-3.18L71,167.15h1.55l0.59,9.44H72Z" transform="translate(0 -3)"/><path d="M83.1,171.78c0,3.25-2,5-4.38,5s-4.24-1.93-4.24-4.79,1.86-5,4.38-5S83.1,169,83.1,171.78Zm-7.33.15c0,2,1.09,3.82,3,3.82s3-1.78,3-3.92c0-1.88-1-3.84-3-3.84S75.77,169.86,75.77,171.93Z" transform="translate(0 -3)"/><path d="M102.48,167.28a17.56,17.56,0,0,1,2.59-.2,5.41,5.41,0,0,1,3.82,1.18,4.35,4.35,0,0,1,1.33,3.39,5,5,0,0,1-1.36,3.67,5.82,5.82,0,0,1-4.17,1.36,19.6,19.6,0,0,1-2.21-.11v-9.29Zm1.22,8.35a7.63,7.63,0,0,0,1.23.07c2.61,0,4-1.46,4-4,0-2.23-1.25-3.64-3.82-3.64a7,7,0,0,0-1.43.13v7.45Z" transform="translate(0 -3)"/><path d="M116.69,172.17H113v3.4h4.09v1h-5.31v-9.44h5.1v1H113v3h3.67v1Z" transform="translate(0 -3)"/><path d="M126.65,172.45c-0.07-1.32-.15-2.9-0.14-4.08h0c-0.32,1.11-.71,2.28-1.19,3.59l-1.67,4.58h-0.92l-1.53-4.5c-0.45-1.33-.83-2.55-1.09-3.67h0c0,1.18-.1,2.76-0.18,4.17l-0.25,4h-1.16l0.66-9.44h1.55l1.61,4.57c0.39,1.16.71,2.2,1,3.18h0c0.24-1,.57-2,1-3.18l1.68-4.57h1.55l0.59,9.44h-1.19Z" transform="translate(0 -3)"/><path d="M138,171.78c0,3.25-2,5-4.38,5s-4.25-1.93-4.25-4.79,1.86-5,4.38-5S138,169,138,171.78Zm-7.33.15c0,2,1.09,3.82,3,3.82s3-1.78,3-3.92c0-1.88-1-3.84-3-3.84S130.69,169.86,130.69,171.93Z" transform="translate(0 -3)"/></g></svg>