<?xml version="1.0" encoding="utf-8"?>
<!-- Generator: Adobe Illustrator 21.0.0, SVG Export Plug-In . SVG Version: 6.00 Build 0)  -->
<svg version="1.1" id="Layer_1" xmlns="http://www.w3.org/2000/svg" xmlns:xlink="http://www.w3.org/1999/xlink" x="0px" y="0px"
	 viewBox="0 0 185.5 372" style="enable-background:new 0 0 185.5 372;" xml:space="preserve">
<style type="text/css">
	.st0{fill:#EEEEEE;}
	.st1{fill:#E62B1E;}
</style>
<title>icon-award</title>
<g>
	<path class="st0" d="M132.3,85.6L96.1,73.2c-9.3-3.2-19.4,1.7-22.6,11l-53.1,152c-3.2,9.3,1.7,19.4,11,22.6l10.1,3.5l-2.2,6.4
		c-0.7,2,0.4,4.1,2.3,4.8l1.1,0.4c-1.8,10.1-6.6,27-19.4,48.4C1,359.8,8.3,373.4,9.2,374.9l5.4-3.2c-0.1-0.1-6.1-12.1,14.3-46.1
		c12.9-21.5,18-38.7,20-49.5l0.5,0.2c2,0.7,4.1-0.4,4.8-2.3l2.2-6.4l11.3,3.9c9.3,3.2,19.4-1.7,22.6-11l53.1-152
		C146.6,99,141.6,88.9,132.3,85.6z"/>
	<g>
		
			<ellipse transform="matrix(0.3256 -0.9455 0.9455 0.3256 18.6514 156.6246)" class="st1" cx="119.1" cy="65.2" rx="59.3" ry="59.3"/>
		<g>
			<g>
				<g>
					<ellipse transform="matrix(0.3256 -0.9455 0.9455 0.3256 54.3102 120.2249)" cx="111.4" cy="22" rx="6.4" ry="4.6"/>
				</g>
				<g>
					<path d="M127.7,46c-1.1,3.3-4,5.4-6.4,4.5c-2.4-0.8-3.4-4.2-2.3-7.5c1.2-3.3,4-5.4,6.4-4.5C127.9,39.3,128.9,42.7,127.7,46z"/>
				</g>
				<g>
					<ellipse transform="matrix(0.3258 -0.9454 0.9454 0.3258 18.6911 130.7502)" cx="101" cy="52.3" rx="6.4" ry="4.6"/>
				</g>
				<g>
					<ellipse transform="matrix(0.3256 -0.9455 0.9455 0.3256 -8.526 111.2604)" cx="73.7" cy="61.6" rx="6.4" ry="4.6"/>
				</g>
				<g>
					<ellipse transform="matrix(0.3257 -0.9455 0.9455 0.3257 23.8708 107.2101)" cx="87.1" cy="36.9" rx="6.4" ry="4.6"/>
				</g>
				<g>
					<path d="M86.9,88c-1.1,3.3-4,5.4-6.4,4.5c-2.4-0.8-3.4-4.2-2.3-7.5c1.1-3.3,4-5.4,6.4-4.5C87.1,81.3,88.1,84.7,86.9,88z"/>
				</g>
				<g>
					<ellipse transform="matrix(0.3254 -0.9456 0.9456 0.3254 -30.9326 168.0527)" cx="102.3" cy="105.7" rx="6.4" ry="4.6"/>
				</g>
				<g>
					<path d="M133.8,110.9c-1.1,3.3-4,5.4-6.4,4.5c-2.4-0.8-3.4-4.2-2.3-7.5c1.1-3.3,4-5.4,6.4-4.5
						C133.9,104.2,134.9,107.6,133.8,110.9z"/>
				</g>
				<g>
					<path d="M126.4,70.1c-1.2,3.3-4,5.4-6.4,4.5c-2.4-0.8-3.4-4.2-2.3-7.5c1.1-3.3,4-5.4,6.4-4.5C126.6,63.5,127.6,66.8,126.4,70.1
						z"/>
				</g>
				<g>
					<path d="M141.2,85.8c-1.1,3.3-4,5.4-6.4,4.5c-2.4-0.8-3.4-4.2-2.3-7.5c1.1-3.3,4-5.4,6.4-4.5C141.3,79.1,142.3,82.5,141.2,85.8
						z"/>
				</g>
				<g>
					<ellipse transform="matrix(0.3258 -0.9454 0.9454 0.3258 -5.387 151.7984)" cx="103.7" cy="79.7" rx="6.4" ry="4.6"/>
				</g>
				<g>
					<path d="M158.8,94.8c-1.1,3.3-4,5.4-6.4,4.5c-2.4-0.8-3.4-4.2-2.3-7.5c1.1-3.3,4-5.4,6.4-4.5C158.9,88.1,159.9,91.4,158.8,94.8
						z"/>
				</g>
				<g>
					<path d="M170.1,73.1c-1.1,3.3-4,5.4-6.4,4.5c-2.4-0.8-3.4-4.2-2.3-7.5c1.1-3.3,4-5.4,6.4-4.5C170.2,66.4,171.2,69.7,170.1,73.1
						z"/>
				</g>
				<g>
					<ellipse transform="matrix(0.3256 -0.9455 0.9455 0.3256 41.6165 174.3421)" cx="143" cy="58" rx="6.4" ry="4.6"/>
				</g>
				<g>
					<ellipse transform="matrix(0.3255 -0.9455 0.9455 0.3255 69.9681 146.9908)" cx="138" cy="24.5" rx="6.4" ry="4.6"/>
				</g>
				<g>
					<path d="M163.6,43c-1.1,3.3-4,5.4-6.4,4.5c-2.4-0.8-3.4-4.2-2.3-7.5c1.1-3.3,4-5.4,6.4-4.5C163.8,36.3,164.8,39.7,163.6,43z"/>
				</g>
			</g>
		</g>
	</g>
</g>
</svg>
