<?xml version="1.0" encoding="utf-8"?>
<!-- Generator: Adobe Illustrator 19.2.0, SVG Export Plug-In . SVG Version: 6.00 Build 0)  -->
<svg version="1.1" xmlns="http://www.w3.org/2000/svg" xmlns:xlink="http://www.w3.org/1999/xlink" x="0px" y="0px"
	 viewBox="0 0 512 512" style="enable-background:new 0 0 512 512;" xml:space="preserve">
<style type="text/css">
	.st0{opacity:0.502;}
	.st1{fill:#8E9DA8;}
	.st2{fill-rule:evenodd;clip-rule:evenodd;stroke:#8E9DA8;stroke-miterlimit:100;}
	.st3{opacity:0.2;}
</style>
<g id="Stars_1_">
	<g id="circle_star" class="st0">
		<path class="st1" d="M344,20c1.1,0,2,0.9,2,2c0,1.1-0.9,2-2,2s-2-0.9-2-2C342,20.9,342.9,20,344,20 M148,65c2.21,0,4,1.79,4,4
			c0,2.21-1.79,4-4,4c-2.21,0-4-1.79-4-4C144,66.79,145.79,65,148,65 M313,110c0.55,0,1,0.45,1,1c0,0.55-0.45,1-1,1
			c-0.55,0-1-0.45-1-1C312,110.45,312.45,110,313,110 M437,115c0.55,0,1,0.45,1,1c0,0.55-0.45,1-1,1c-0.55,0-1-0.45-1-1
			C436,115.45,436.45,115,437,115 M58.5,115c0.28,0,0.5,0.22,0.5,0.5c0,0.28-0.22,0.5-0.5,0.5s-0.5-0.22-0.5-0.5
			C58,115.22,58.22,115,58.5,115 M55,307c1.65,0,3,1.35,3,3c0,1.65-1.35,3-3,3s-3-1.35-3-3C52,308.35,53.35,307,55,307 M473,313
			c1.1,0,2,0.9,2,2s-0.9,2-2,2c-1.1,0-2-0.9-2-2S471.9,313,473,313 M116,434c2.76,0,5,2.24,5,5c0,2.76-2.24,5-5,5
			c-2.76,0-5-2.24-5-5C111,436.24,113.24,434,116,434 M439,456c1.65,0,3,1.35,3,3c0,1.65-1.35,3-3,3c-1.65,0-3-1.35-3-3
			C436,457.35,437.35,456,439,456 M274,478c0.55,0,1,0.45,1,1c0,0.55-0.45,1-1,1c-0.55,0-1-0.45-1-1C273,478.45,273.45,478,274,478
			 M344,18c-2.21,0-4,1.79-4,4c0,2.21,1.79,4,4,4s4-1.79,4-4C348,19.79,346.21,18,344,18L344,18z M148,63c-3.31,0-6,2.69-6,6
			c0,3.31,2.69,6,6,6c3.31,0,6-2.69,6-6C154,65.69,151.31,63,148,63L148,63z M313,108c-1.66,0-3,1.34-3,3c0,1.66,1.34,3,3,3
			c1.66,0,3-1.34,3-3C316,109.34,314.66,108,313,108L313,108z M437,113c-1.66,0-3,1.34-3,3c0,1.66,1.34,3,3,3c1.66,0,3-1.34,3-3
			C440,114.34,438.66,113,437,113L437,113z M58.5,113c-1.38,0-2.5,1.12-2.5,2.5c0,1.38,1.12,2.5,2.5,2.5c1.38,0,2.5-1.12,2.5-2.5
			C61,114.12,59.88,113,58.5,113L58.5,113z M55,305c-2.76,0-5,2.24-5,5c0,2.76,2.24,5,5,5c2.76,0,5-2.24,5-5
			C60,307.24,57.76,305,55,305L55,305z M473,311c-2.21,0-4,1.79-4,4s1.79,4,4,4c2.21,0,4-1.79,4-4S475.21,311,473,311L473,311z
			 M116,432c-3.87,0-7,3.13-7,7c0,3.87,3.13,7,7,7c3.87,0,7-3.13,7-7C123,435.13,119.87,432,116,432L116,432z M439,454
			c-2.76,0-5,2.24-5,5c0,2.76,2.24,5,5,5c2.76,0,5-2.24,5-5C444,456.24,441.76,454,439,454L439,454z M274,476c-1.66,0-3,1.34-3,3
			c0,1.66,1.34,3,3,3s3-1.34,3-3C277,477.34,275.66,476,274,476L274,476z"/>
	</g>
	<g id="line_star">
		<line id="line_star_6_" class="st2" x1="103" y1="368" x2="42" y2="429"/>
		<line id="line_star_5_" class="st2" x1="402" y1="404" x2="341" y2="465"/>
		<line id="line_star_4_" class="st2" x1="295" y1="41" x2="234" y2="102"/>
		<line id="line_star_3_" class="st2" x1="466" y1="196" x2="405" y2="257"/>
		<line id="line_star_2_" class="st2" x1="101" y1="132" x2="76" y2="158"/>
	</g>
	<g id="star">
		<path class="st1" d="M46.5,256.44c1.05,1.63,2.43,3.01,4.06,4.06c-1.63,1.05-3.01,2.43-4.06,4.06c-1.05-1.63-2.43-3.01-4.06-4.06
			C44.07,259.45,45.45,258.06,46.5,256.44 M384,364c1.62,2.94,4.05,5.37,6.99,6.99c-2.94,1.62-5.37,4.05-6.99,6.99
			c-1.62-2.94-4.05-5.37-6.99-6.99C379.95,369.38,382.38,366.95,384,364 M160,475c1.62,2.94,4.05,5.37,6.99,6.99
			c-2.94,1.62-5.37,4.05-6.99,6.99c-1.62-2.94-4.05-5.37-6.99-6.99C155.95,480.38,158.38,477.95,160,475 M46.5,251
			c-0.81,4.87-4.63,8.69-9.5,9.5c4.87,0.81,8.69,4.63,9.5,9.5c0.81-4.87,4.63-8.69,9.5-9.5C51.13,259.69,47.31,255.87,46.5,251
			L46.5,251z M384,358c-1.11,6.67-6.33,11.89-13,13c6.67,1.11,11.89,6.33,13,13c1.11-6.67,6.33-11.89,13-13
			C390.33,369.89,385.11,364.67,384,358L384,358z M160,469c-1.11,6.67-6.33,11.89-13,13c6.67,1.11,11.89,6.33,13,13
			c1.11-6.67,6.33-11.89,13-13C166.33,480.89,161.11,475.67,160,469L160,469z"/>
	</g>
	<g id="star_1_">
		<path class="st1" d="M76,34.86c1.47,2.55,3.59,4.68,6.14,6.14c-2.55,1.47-4.68,3.59-6.14,6.14c-1.47-2.55-3.59-4.68-6.14-6.14
			C72.41,39.53,74.53,37.41,76,34.86 M337,46.14c0.78,1.11,1.75,2.08,2.86,2.86c-1.11,0.78-2.08,1.75-2.86,2.86
			c-0.78-1.11-1.75-2.08-2.86-2.86C335.25,48.22,336.22,47.25,337,46.14 M451,164.86c1.47,2.55,3.59,4.68,6.14,6.14
			c-2.55,1.47-4.68,3.59-6.14,6.14c-1.47-2.55-3.59-4.68-6.14-6.14C447.41,169.53,449.53,167.41,451,164.86 M76,29
			c-1.03,6.15-5.85,10.97-12,12c6.15,1.03,10.97,5.85,12,12c1.03-6.15,5.85-10.97,12-12C81.85,39.97,77.03,35.15,76,29L76,29z
			 M337,41c-0.68,4.1-3.9,7.32-8,8c4.1,0.68,7.32,3.9,8,8c0.68-4.1,3.9-7.32,8-8C340.9,48.32,337.68,45.1,337,41L337,41z M451,159
			c-1.03,6.15-5.85,10.97-12,12c6.15,1.03,10.97,5.85,12,12c1.03-6.15,5.85-10.97,12-12C456.85,169.97,452.03,165.15,451,159
			L451,159z"/>
	</g>
</g>
<g id="Planet_1_">
	<g id="moon">
		<path class="st1" d="M263,139c14.26,0,28.28,2.33,41.66,6.94l1.86,0.64l0.67-1.85c0.02-0.06,0.04-0.12,0.06-0.19l0.01-0.04
			c0.78-1.78,2.95-2.84,5.8-2.84c1.73,0,3.57,0.41,5.31,1.17c4.71,2.07,7.59,6.34,6.28,9.32c-0.03,0.06-0.06,0.12-0.1,0.18
			l-0.06,0.11l-0.96,1.74l1.74,0.97C365.81,177.77,391,220.63,391,267c0,34.19-13.31,66.33-37.49,90.51
			C329.33,381.68,297.19,395,263,395c-29.21,0-56.71-9.58-79.54-27.72l-1.15-0.91l-1.21,0.82l-0.17,0.12
			c-0.1,0.07-0.21,0.14-0.32,0.21c-1.31,0.76-2.76,1.14-4.33,1.14c-3.99,0-8.04-2.56-10.33-6.53c-2.07-3.59-2.45-7.76-1-11.16
			l0.48-1.12l-0.78-0.94C145.53,325.98,135,296.89,135,267c0-13.06,1.96-25.94,5.83-38.3l0.49-1.58l-1.46-0.78
			c-4.93-2.64-5.15-13.09-0.48-22.82c4.04-8.41,10.82-14.51,16.12-14.51c0.86,0,1.67,0.17,2.39,0.51c0.18,0.08,0.37,0.21,0.61,0.37
			l1.56,1.01l1.13-1.47c11.7-15.33,26.95-28.02,44.11-36.71C223.28,143.61,242.7,139,263,139 M263,137
			c-42.17,0-79.65,20.09-103.4,51.21c-0.28-0.18-0.55-0.36-0.86-0.5c-1.01-0.47-2.1-0.7-3.24-0.7c-5.99,0-13.4,6.23-17.92,15.64
			c-5.29,11-4.65,22.25,1.34,25.45C135.08,240.39,133,253.45,133,267c0,31.64,11.31,60.64,30.1,83.19
			c-1.62,3.81-1.36,8.66,1.11,12.94c2.75,4.77,7.49,7.53,12.07,7.53c1.85,0,3.67-0.45,5.33-1.41c0.21-0.12,0.41-0.26,0.61-0.4
			C204.4,386.47,232.47,397,263,397c71.8,0,130-58.2,130-130c0-48.84-26.93-91.38-66.75-113.59c0.08-0.15,0.17-0.29,0.24-0.45
			c1.78-4.04-1.49-9.4-7.31-11.95c-2.07-0.91-4.17-1.34-6.11-1.34c-3.52,0-6.49,1.43-7.63,4.03c-0.05,0.12-0.08,0.24-0.13,0.35
			C292.04,139.48,277.81,137,263,137L263,137z"/>
	</g>
	<g id="craters">
		<path class="st1" d="M313.52,145c1.09,0,2.25,0.26,3.35,0.76c3.17,1.41,4.63,4.11,3.96,5.65c-0.42,0.98-1.72,1.59-3.37,1.59
			c-1.09,0-2.25-0.26-3.35-0.75c-3.16-1.41-4.63-4.11-3.96-5.65C310.58,145.61,311.87,145,313.52,145 M263,170c4.41,0,8,3.59,8,8
			c0,4.41-3.59,8-8,8c-4.41,0-8-3.59-8-8C255,173.59,258.59,170,263,170 M191.5,185c1.38,0,2.5,1.12,2.5,2.5
			c0,1.38-1.12,2.5-2.5,2.5c-1.38,0-2.5-1.12-2.5-2.5C189,186.12,190.12,185,191.5,185 M153.49,194.98c0.6,0,1.15,0.12,1.64,0.35
			c1.02,0.47,1.79,1.43,2.29,2.83c1.26,3.54,0.51,8.93-1.97,14.06c-3.42,7.09-8.6,10.8-11.94,10.8c-0.6,0-1.15-0.12-1.64-0.35
			c-1.02-0.47-1.79-1.43-2.29-2.83c-1.26-3.54-0.51-8.93,1.97-14.06C144.97,198.69,150.15,194.98,153.49,194.98 M343,221
			c7.17,0,13,5.83,13,13c0,7.17-5.83,13-13,13c-7.17,0-13-5.83-13-13C330,226.83,335.83,221,343,221 M225,235c9.93,0,18,8.07,18,18
			c0,9.93-8.07,18-18,18s-18-8.07-18-18C207,243.07,215.07,235,225,235 M154.5,263c3.58,0,6.5,2.92,6.5,6.5c0,3.58-2.92,6.5-6.5,6.5
			c-3.58,0-6.5-2.92-6.5-6.5C148,265.92,150.92,263,154.5,263 M356.5,300c1.38,0,2.5,1.12,2.5,2.5c0,1.38-1.12,2.5-2.5,2.5
			c-1.38,0-2.5-1.12-2.5-2.5C354,301.12,355.12,300,356.5,300 M292,300c6.07,0,11,4.93,11,11c0,6.07-4.93,11-11,11
			c-6.07,0-11-4.93-11-11C281,304.93,285.93,300,292,300 M213.5,332c3.58,0,6.5,2.92,6.5,6.5c0,3.58-2.92,6.5-6.5,6.5
			s-6.5-2.92-6.5-6.5C207,334.92,209.92,332,213.5,332 M170.75,351.74c2.19,0,5.07,1.7,7,4.12c2.47,3.11,3.18,6.98,1.55,8.45
			c-0.5,0.45-1.16,0.68-1.97,0.68c-2.19,0-5.59-1.76-7.89-5.63c-1.36-2.28-1.79-4.56-1.16-6.1c0.31-0.75,0.85-1.23,1.61-1.43
			C170.15,351.77,170.44,351.74,170.75,351.74 M265.5,369c1.38,0,2.5,1.12,2.5,2.5c0,1.38-1.12,2.5-2.5,2.5
			c-1.38,0-2.5-1.12-2.5-2.5C263,370.12,264.12,369,265.5,369 M313.52,143c-2.4,0-4.42,0.99-5.2,2.79c-1.21,2.8,1.02,6.5,4.98,8.27
			c1.41,0.63,2.85,0.93,4.17,0.93c2.4,0,4.42-0.99,5.2-2.79c1.21-2.8-1.02-6.5-4.98-8.27C316.28,143.3,314.84,143,313.52,143
			L313.52,143z M263,168c-5.52,0-10,4.48-10,10c0,5.52,4.48,10,10,10s10-4.48,10-10C273,172.48,268.52,168,263,168L263,168z
			 M191.5,183c-2.49,0-4.5,2.01-4.5,4.5c0,2.49,2.01,4.5,4.5,4.5c2.49,0,4.5-2.01,4.5-4.5C196,185.01,193.99,183,191.5,183
			L191.5,183z M153.49,192.98c-4.59,0-10.27,4.75-13.74,11.94c-4.13,8.55-3.56,17.31,1.28,19.57c0.77,0.36,1.61,0.53,2.48,0.53
			c4.59,0,10.27-4.75,13.74-11.94c4.13-8.55,3.56-17.31-1.28-19.57C155.2,193.16,154.36,192.98,153.49,192.98L153.49,192.98z
			 M343,219c-8.28,0-15,6.72-15,15c0,8.28,6.72,15,15,15c8.28,0,15-6.72,15-15C358,225.72,351.28,219,343,219L343,219z M225,233
			c-11.05,0-20,8.95-20,20c0,11.05,8.95,20,20,20c11.05,0,20-8.95,20-20C245,241.95,236.05,233,225,233L225,233z M154.5,261
			c-4.69,0-8.5,3.81-8.5,8.5c0,4.69,3.81,8.5,8.5,8.5c4.69,0,8.5-3.81,8.5-8.5C163,264.81,159.19,261,154.5,261L154.5,261z
			 M356.5,298c-2.49,0-4.5,2.01-4.5,4.5c0,2.49,2.01,4.5,4.5,4.5c2.49,0,4.5-2.01,4.5-4.5C361,300.01,358.99,298,356.5,298
			L356.5,298z M292,298c-7.18,0-13,5.82-13,13c0,7.18,5.82,13,13,13c7.18,0,13-5.82,13-13C305,303.82,299.18,298,292,298L292,298z
			 M213.5,330c-4.69,0-8.5,3.81-8.5,8.5c0,4.69,3.81,8.5,8.5,8.5c4.69,0,8.5-3.81,8.5-8.5C222,333.81,218.19,330,213.5,330
			L213.5,330z M170.75,349.74c-0.47,0-0.92,0.05-1.35,0.17c-3.51,0.91-4.67,5.43-1.67,10.48c2.46,4.14,6.4,6.6,9.61,6.6
			c1.26,0,2.41-0.38,3.31-1.19c2.61-2.36,1.71-7.37-1.32-11.18C176.95,351.65,173.56,349.74,170.75,349.74L170.75,349.74z
			 M265.5,367c-2.49,0-4.5,2.01-4.5,4.5c0,2.49,2.01,4.5,4.5,4.5s4.5-2.01,4.5-4.5C270,369.01,267.99,367,265.5,367L265.5,367z"/>
	</g>
	<path id="shadow_craters" class="st1" d="M191.5,183c-2.49,0-4.5,2.01-4.5,4.5c0,1.76,1.02,3.27,2.49,4.01
		c-0.3-0.61-0.49-1.28-0.49-2.01c0-2.49,2.01-4.5,4.5-4.5c0.73,0,1.4,0.19,2.01,0.49C194.77,184.02,193.26,183,191.5,183z
		 M213.5,330c-4.69,0-8.5,3.81-8.5,8.5c0,2.86,1.42,5.38,3.58,6.92c-0.99-1.39-1.58-3.09-1.58-4.92c0-4.69,3.81-8.5,8.5-8.5
		c1.84,0,3.53,0.59,4.92,1.58C218.88,331.41,216.36,330,213.5,330z M225,233c-11.05,0-20,8.95-20,20c0,6.54,3.16,12.34,8.02,15.98
		c-2.51-3.34-4.02-7.48-4.02-11.98c0-11.05,8.95-20,20-20c4.5,0,8.64,1.51,11.98,4.02C237.34,236.16,231.54,233,225,233z
		 M169.55,358.63c-1.98-3.32-2.14-6.41-1.03-8.39c-2.8,1.4-3.53,5.54-0.79,10.14c3.44,5.78,9.74,8.28,12.91,5.41
		c0.36-0.32,0.64-0.7,0.87-1.12C178.15,366.42,172.67,363.89,169.55,358.63z M154.5,261c-4.69,0-8.5,3.81-8.5,8.5
		c0,2.86,1.42,5.38,3.58,6.92c-0.99-1.39-1.58-3.09-1.58-4.92c0-4.69,3.81-8.5,8.5-8.5c1.84,0,3.53,0.59,4.92,1.58
		C159.88,262.42,157.36,261,154.5,261z M158.02,195.18c-0.57-0.71-1.25-1.28-2.05-1.66c-4.83-2.25-12.1,2.85-16.22,11.4
		c-4.13,8.55-3.56,17.31,1.28,19.57c0.31,0.14,0.62,0.25,0.95,0.34c-2.83-3.53-2.66-10.79,0.78-17.91
		C146.61,198.91,153.23,193.92,158.02,195.18z M328,234c0,6.67,4.36,12.32,10.39,14.27c-3.86-2.71-6.39-7.19-6.39-12.27
		c0-8.28,6.72-15,15-15c1.61,0,3.16,0.26,4.61,0.73c-2.44-1.71-5.4-2.73-8.61-2.73C334.72,219,328,225.72,328,234z M356.5,298
		c-2.49,0-4.5,2.01-4.5,4.5c0,2.49,2.01,4.5,4.5,4.5c2.49,0,4.5-2.01,4.5-4.5C361,300.01,358.99,298,356.5,298z M317.69,143.93
		c-3.96-1.77-8.16-0.94-9.37,1.86c-0.36,0.83-0.41,1.74-0.21,2.65c0.05-0.22,0.12-0.44,0.21-0.65c1.21-2.8,5.41-3.63,9.37-1.86
		c2.79,1.25,4.72,3.45,5.19,5.62C323.53,148.85,321.35,145.56,317.69,143.93z M263,168c-5.52,0-10,4.48-10,10
		c0,3.27,1.58,6.17,4.01,7.99c-1.25-1.67-2.01-3.74-2.01-5.99c0-5.52,4.48-10,10-10c2.25,0,4.32,0.75,5.99,2.01
		C269.17,169.58,266.27,168,263,168z M279,311c0,5.16,3.01,9.6,7.37,11.7c-2.68-2.38-4.37-5.84-4.37-9.7c0-7.18,5.82-13,13-13
		c2.02,0,3.92,0.47,5.63,1.3c-2.3-2.04-5.31-3.3-8.63-3.3C284.82,298,279,303.82,279,311z M265.5,367c-2.49,0-4.5,2.01-4.5,4.5
		c0,1.76,1.02,3.27,2.49,4.01c-0.3-0.61-0.49-1.28-0.49-2.01c0-2.49,2.01-4.5,4.5-4.5c0.73,0,1.4,0.19,2.01,0.49
		C268.77,368.02,267.26,367,265.5,367z"/>
	<path id="fold" class="st1" d="M222.59,278.88c0.8,0.07,1.6,0.12,2.41,0.12c14.36,0,26-11.64,26-26c0-0.81-0.04-1.62-0.12-2.41
		C249.64,265.64,237.64,277.64,222.59,278.88z M164,201.5c0,12.74-7.56,23.7-18.44,28.66C156.74,227.26,165,217.09,165,205
		c0-2.91-0.48-5.7-1.37-8.31C163.87,198.26,164,199.86,164,201.5z M290.27,329.77c0.89,0.14,1.8,0.23,2.73,0.23
		c9.94,0,18-8.06,18-18c0-0.93-0.09-1.83-0.23-2.73C309.32,319.91,300.91,328.32,290.27,329.77z M361.61,227.46
		c0.25,1.31,0.39,2.66,0.39,4.04c0,9.5-6.16,17.54-14.71,20.39c8.83-0.97,15.71-8.45,15.71-17.54
		C363,231.9,362.5,229.58,361.61,227.46z"/>
	<path id="shadow" class="st1" d="M366.5,188.33c4.22,13.98,6.5,28.8,6.5,44.16c0,22.56-4.9,43.96-13.69,63.23
		c-1.01-0.46-2.13-0.72-3.31-0.72c-4.42,0-8,3.58-8,8c0,2.93,1.58,5.48,3.93,6.88c-11.54,19.55-27.3,36.31-46.05,49
		c-0.92-1.14-2.3-1.88-3.88-1.88c-2.76,0-5,2.24-5,5c0,0.77,0.19,1.49,0.5,2.15c-22.6,13.25-48.91,20.85-77,20.85
		c-4.51,0-8.96-0.21-13.37-0.59C224.06,392.48,243,397,263,397c71.8,0,130-58.2,130-130C393,237.43,383.12,210.17,366.5,188.33z"/>
	<g class="st3">
		<path class="st1" d="M191.16,21.9c1.06-0.16,2.32-0.28,3.7-0.28c2.5,0,4.28,0.58,5.46,1.68c1.2,1.1,1.9,2.66,1.9,4.84
			c0,2.2-0.68,4-1.94,5.24c-1.26,1.26-3.34,1.94-5.96,1.94c-1.24,0-2.28-0.06-3.16-0.16V21.9z M192.9,33.82
			c0.44,0.08,1.08,0.1,1.76,0.1c3.72,0,5.74-2.08,5.74-5.72c0.02-3.18-1.78-5.2-5.46-5.2c-0.9,0-1.58,0.08-2.04,0.18V33.82z"/>
		<path class="st1" d="M211.46,28.88h-5.24v4.86h5.84v1.46h-7.58V21.72h7.28v1.46h-5.54v4.26h5.24V28.88z"/>
		<path class="st1" d="M225.68,29.28c-0.1-1.88-0.22-4.14-0.2-5.82h-0.06c-0.46,1.58-1.02,3.26-1.7,5.12l-2.38,6.54h-1.32
			l-2.18-6.42c-0.64-1.9-1.18-3.64-1.56-5.24h-0.04c-0.04,1.68-0.14,3.94-0.26,5.96l-0.36,5.78h-1.66l0.94-13.48h2.22l2.3,6.52
			c0.56,1.66,1.02,3.14,1.36,4.54h0.06c0.34-1.36,0.82-2.84,1.42-4.54l2.4-6.52h2.22l0.84,13.48h-1.7L225.68,29.28z"/>
		<path class="st1" d="M241.92,28.32c0,4.64-2.82,7.1-6.26,7.1c-3.56,0-6.06-2.76-6.06-6.84c0-4.28,2.66-7.08,6.26-7.08
			C239.54,21.5,241.92,24.32,241.92,28.32z M231.46,28.54c0,2.88,1.56,5.46,4.3,5.46c2.76,0,4.32-2.54,4.32-5.6
			c0-2.68-1.4-5.48-4.3-5.48C232.9,22.92,231.46,25.58,231.46,28.54z"/>
		<path class="st1" d="M273.86,21.9c1.06-0.16,2.32-0.28,3.7-0.28c2.5,0,4.28,0.58,5.46,1.68c1.2,1.1,1.9,2.66,1.9,4.84
			c0,2.2-0.68,4-1.94,5.24c-1.26,1.26-3.34,1.94-5.96,1.94c-1.24,0-2.28-0.06-3.16-0.16V21.9z M275.6,33.82
			c0.44,0.08,1.08,0.1,1.76,0.1c3.72,0,5.74-2.08,5.74-5.72c0.02-3.18-1.78-5.2-5.46-5.2c-0.9,0-1.58,0.08-2.04,0.18V33.82z"/>
		<path class="st1" d="M294.16,28.88h-5.24v4.86h5.84v1.46h-7.58V21.72h7.28v1.46h-5.54v4.26h5.24V28.88z"/>
		<path class="st1" d="M308.38,29.28c-0.1-1.88-0.22-4.14-0.2-5.82h-0.06c-0.46,1.58-1.02,3.26-1.7,5.12l-2.38,6.54h-1.32
			l-2.18-6.42c-0.64-1.9-1.18-3.64-1.56-5.24h-0.04c-0.04,1.68-0.14,3.94-0.26,5.96l-0.36,5.78h-1.66l0.94-13.48h2.22l2.3,6.52
			c0.56,1.66,1.02,3.14,1.36,4.54h0.06c0.34-1.36,0.82-2.84,1.42-4.54l2.4-6.52h2.22l0.84,13.48h-1.7L308.38,29.28z"/>
		<path class="st1" d="M324.62,28.32c0,4.64-2.82,7.1-6.26,7.1c-3.56,0-6.06-2.76-6.06-6.84c0-4.28,2.66-7.08,6.26-7.08
			C322.24,21.5,324.62,24.32,324.62,28.32z M314.16,28.54c0,2.88,1.56,5.46,4.3,5.46c2.76,0,4.32-2.54,4.32-5.6
			c0-2.68-1.4-5.48-4.3-5.48C315.6,22.92,314.16,25.58,314.16,28.54z"/>
		<path class="st1" d="M108.46,59.9c1.06-0.16,2.32-0.28,3.7-0.28c2.5,0,4.28,0.58,5.46,1.68c1.2,1.1,1.9,2.66,1.9,4.84
			c0,2.2-0.68,4-1.94,5.24c-1.26,1.26-3.34,1.94-5.96,1.94c-1.24,0-2.28-0.06-3.16-0.16V59.9z M110.2,71.82
			c0.44,0.08,1.08,0.1,1.76,0.1c3.72,0,5.74-2.08,5.74-5.72c0.02-3.18-1.78-5.2-5.46-5.2c-0.9,0-1.58,0.08-2.04,0.18V71.82z"/>
		<path class="st1" d="M128.77,66.88h-5.24v4.86h5.84v1.46h-7.58V59.72h7.28v1.46h-5.54v4.26h5.24V66.88z"/>
		<path class="st1" d="M142.99,67.28c-0.1-1.88-0.22-4.14-0.2-5.82h-0.06c-0.46,1.58-1.02,3.26-1.7,5.12l-2.38,6.54h-1.32
			l-2.18-6.42c-0.64-1.9-1.18-3.64-1.56-5.24h-0.04c-0.04,1.68-0.14,3.94-0.26,5.96l-0.36,5.78h-1.66l0.94-13.48h2.22l2.3,6.52
			c0.56,1.66,1.02,3.14,1.36,4.54h0.06c0.34-1.36,0.82-2.84,1.42-4.54l2.4-6.52h2.22l0.84,13.48h-1.7L142.99,67.28z"/>
		<path class="st1" d="M159.23,66.32c0,4.64-2.82,7.1-6.26,7.1c-3.56,0-6.06-2.76-6.06-6.84c0-4.28,2.66-7.08,6.26-7.08
			C156.84,59.5,159.23,62.32,159.23,66.32z M148.76,66.54c0,2.88,1.56,5.46,4.3,5.46c2.76,0,4.32-2.54,4.32-5.6
			c0-2.68-1.4-5.48-4.3-5.48C150.2,60.92,148.76,63.58,148.76,66.54z"/>
		<path class="st1" d="M191.16,59.9c1.06-0.16,2.32-0.28,3.7-0.28c2.5,0,4.28,0.58,5.46,1.68c1.2,1.1,1.9,2.66,1.9,4.84
			c0,2.2-0.68,4-1.94,5.24c-1.26,1.26-3.34,1.94-5.96,1.94c-1.24,0-2.28-0.06-3.16-0.16V59.9z M192.9,71.82
			c0.44,0.08,1.08,0.1,1.76,0.1c3.72,0,5.74-2.08,5.74-5.72c0.02-3.18-1.78-5.2-5.46-5.2c-0.9,0-1.58,0.08-2.04,0.18V71.82z"/>
		<path class="st1" d="M211.46,66.88h-5.24v4.86h5.84v1.46h-7.58V59.72h7.28v1.46h-5.54v4.26h5.24V66.88z"/>
		<path class="st1" d="M225.68,67.28c-0.1-1.88-0.22-4.14-0.2-5.82h-0.06c-0.46,1.58-1.02,3.26-1.7,5.12l-2.38,6.54h-1.32
			l-2.18-6.42c-0.64-1.9-1.18-3.64-1.56-5.24h-0.04c-0.04,1.68-0.14,3.94-0.26,5.96l-0.36,5.78h-1.66l0.94-13.48h2.22l2.3,6.52
			c0.56,1.66,1.02,3.14,1.36,4.54h0.06c0.34-1.36,0.82-2.84,1.42-4.54l2.4-6.52h2.22l0.84,13.48h-1.7L225.68,67.28z"/>
		<path class="st1" d="M241.92,66.32c0,4.64-2.82,7.1-6.26,7.1c-3.56,0-6.06-2.76-6.06-6.84c0-4.28,2.66-7.08,6.26-7.08
			C239.54,59.5,241.92,62.32,241.92,66.32z M231.46,66.54c0,2.88,1.56,5.46,4.3,5.46c2.76,0,4.32-2.54,4.32-5.6
			c0-2.68-1.4-5.48-4.3-5.48C232.9,60.92,231.46,63.58,231.46,66.54z"/>
		<path class="st1" d="M273.86,59.9c1.06-0.16,2.32-0.28,3.7-0.28c2.5,0,4.28,0.58,5.46,1.68c1.2,1.1,1.9,2.66,1.9,4.84
			c0,2.2-0.68,4-1.94,5.24c-1.26,1.26-3.34,1.94-5.96,1.94c-1.24,0-2.28-0.06-3.16-0.16V59.9z M275.6,71.82
			c0.44,0.08,1.08,0.1,1.76,0.1c3.72,0,5.74-2.08,5.74-5.72c0.02-3.18-1.78-5.2-5.46-5.2c-0.9,0-1.58,0.08-2.04,0.18V71.82z"/>
		<path class="st1" d="M294.16,66.88h-5.24v4.86h5.84v1.46h-7.58V59.72h7.28v1.46h-5.54v4.26h5.24V66.88z"/>
		<path class="st1" d="M308.38,67.28c-0.1-1.88-0.22-4.14-0.2-5.82h-0.06c-0.46,1.58-1.02,3.26-1.7,5.12l-2.38,6.54h-1.32
			l-2.18-6.42c-0.64-1.9-1.18-3.64-1.56-5.24h-0.04c-0.04,1.68-0.14,3.94-0.26,5.96l-0.36,5.78h-1.66l0.94-13.48h2.22l2.3,6.52
			c0.56,1.66,1.02,3.14,1.36,4.54h0.06c0.34-1.36,0.82-2.84,1.42-4.54l2.4-6.52h2.22l0.84,13.48h-1.7L308.38,67.28z"/>
		<path class="st1" d="M324.62,66.32c0,4.64-2.82,7.1-6.26,7.1c-3.56,0-6.06-2.76-6.06-6.84c0-4.28,2.66-7.08,6.26-7.08
			C322.24,59.5,324.62,62.32,324.62,66.32z M314.16,66.54c0,2.88,1.56,5.46,4.3,5.46c2.76,0,4.32-2.54,4.32-5.6
			c0-2.68-1.4-5.48-4.3-5.48C315.6,60.92,314.16,63.58,314.16,66.54z"/>
		<path class="st1" d="M356.56,59.9c1.06-0.16,2.32-0.28,3.7-0.28c2.5,0,4.28,0.58,5.46,1.68c1.2,1.1,1.9,2.66,1.9,4.84
			c0,2.2-0.68,4-1.94,5.24c-1.26,1.26-3.34,1.94-5.96,1.94c-1.24,0-2.28-0.06-3.16-0.16V59.9z M358.3,71.82
			c0.44,0.08,1.08,0.1,1.76,0.1c3.72,0,5.74-2.08,5.74-5.72c0.02-3.18-1.78-5.2-5.46-5.2c-0.9,0-1.58,0.08-2.04,0.18V71.82z"/>
		<path class="st1" d="M376.86,66.88h-5.24v4.86h5.84v1.46h-7.58V59.72h7.28v1.46h-5.54v4.26h5.24V66.88z"/>
		<path class="st1" d="M391.08,67.28c-0.1-1.88-0.22-4.14-0.2-5.82h-0.06c-0.46,1.58-1.02,3.26-1.7,5.12l-2.38,6.54h-1.32
			l-2.18-6.42c-0.64-1.9-1.18-3.64-1.56-5.24h-0.04c-0.04,1.68-0.14,3.94-0.26,5.96l-0.36,5.78h-1.66l0.94-13.48h2.22l2.3,6.52
			c0.56,1.66,1.02,3.14,1.36,4.54h0.06c0.34-1.36,0.82-2.84,1.42-4.54l2.4-6.52h2.22l0.84,13.48h-1.7L391.08,67.28z"/>
		<path class="st1" d="M407.32,66.32c0,4.64-2.82,7.1-6.26,7.1c-3.56,0-6.06-2.76-6.06-6.84c0-4.28,2.66-7.08,6.26-7.08
			C404.94,59.5,407.32,62.32,407.32,66.32z M396.86,66.54c0,2.88,1.56,5.46,4.3,5.46c2.76,0,4.32-2.54,4.32-5.6
			c0-2.68-1.4-5.48-4.3-5.48C398.3,60.92,396.86,63.58,396.86,66.54z"/>
		<path class="st1" d="M25.77,97.9c1.06-0.16,2.32-0.28,3.7-0.28c2.5,0,4.28,0.58,5.46,1.68c1.2,1.1,1.9,2.66,1.9,4.84
			c0,2.2-0.68,4-1.94,5.24c-1.26,1.26-3.34,1.94-5.96,1.94c-1.24,0-2.28-0.06-3.16-0.16V97.9z M27.51,109.82
			c0.44,0.08,1.08,0.1,1.76,0.1c3.72,0,5.74-2.08,5.74-5.72c0.02-3.18-1.78-5.2-5.46-5.2c-0.9,0-1.58,0.08-2.04,0.18V109.82z"/>
		<path class="st1" d="M46.07,104.88h-5.24v4.86h5.84v1.46h-7.58V97.72h7.28v1.46h-5.54v4.26h5.24V104.88z"/>
		<path class="st1" d="M60.29,105.28c-0.1-1.88-0.22-4.14-0.2-5.82h-0.06c-0.46,1.58-1.02,3.26-1.7,5.12l-2.38,6.54h-1.32
			l-2.18-6.42c-0.64-1.9-1.18-3.64-1.56-5.24h-0.04c-0.04,1.68-0.14,3.94-0.26,5.96l-0.36,5.78h-1.66l0.94-13.48h2.22l2.3,6.52
			c0.56,1.66,1.02,3.14,1.36,4.54h0.06c0.34-1.36,0.82-2.84,1.42-4.54l2.4-6.52h2.22l0.84,13.48h-1.7L60.29,105.28z"/>
		<path class="st1" d="M76.53,104.32c0,4.64-2.82,7.1-6.26,7.1c-3.56,0-6.06-2.76-6.06-6.84c0-4.28,2.66-7.08,6.26-7.08
			C74.15,97.5,76.53,100.32,76.53,104.32z M66.07,104.54c0,2.88,1.56,5.46,4.3,5.46c2.76,0,4.32-2.54,4.32-5.6
			c0-2.68-1.4-5.48-4.3-5.48C67.51,98.92,66.07,101.58,66.07,104.54z"/>
		<path class="st1" d="M108.46,97.9c1.06-0.16,2.32-0.28,3.7-0.28c2.5,0,4.28,0.58,5.46,1.68c1.2,1.1,1.9,2.66,1.9,4.84
			c0,2.2-0.68,4-1.94,5.24c-1.26,1.26-3.34,1.94-5.96,1.94c-1.24,0-2.28-0.06-3.16-0.16V97.9z M110.21,109.82
			c0.44,0.08,1.08,0.1,1.76,0.1c3.72,0,5.74-2.08,5.74-5.72c0.02-3.18-1.78-5.2-5.46-5.2c-0.9,0-1.58,0.08-2.04,0.18V109.82z"/>
		<path class="st1" d="M128.77,104.88h-5.24v4.86h5.84v1.46h-7.58V97.72h7.28v1.46h-5.54v4.26h5.24V104.88z"/>
		<path class="st1" d="M142.99,105.28c-0.1-1.88-0.22-4.14-0.2-5.82h-0.06c-0.46,1.58-1.02,3.26-1.7,5.12l-2.38,6.54h-1.32
			l-2.18-6.42c-0.64-1.9-1.18-3.64-1.56-5.24h-0.04c-0.04,1.68-0.14,3.94-0.26,5.96l-0.36,5.78h-1.66l0.94-13.48h2.22l2.3,6.52
			c0.56,1.66,1.02,3.14,1.36,4.54h0.06c0.34-1.36,0.82-2.84,1.42-4.54l2.4-6.52h2.22l0.84,13.48h-1.7L142.99,105.28z"/>
		<path class="st1" d="M159.23,104.32c0,4.64-2.82,7.1-6.26,7.1c-3.56,0-6.06-2.76-6.06-6.84c0-4.28,2.66-7.08,6.26-7.08
			C156.85,97.5,159.23,100.32,159.23,104.32z M148.76,104.54c0,2.88,1.56,5.46,4.3,5.46c2.76,0,4.32-2.54,4.32-5.6
			c0-2.68-1.4-5.48-4.3-5.48C150.2,98.92,148.76,101.58,148.76,104.54z"/>
		<path class="st1" d="M191.16,97.9c1.06-0.16,2.32-0.28,3.7-0.28c2.5,0,4.28,0.58,5.46,1.68c1.2,1.1,1.9,2.66,1.9,4.84
			c0,2.2-0.68,4-1.94,5.24c-1.26,1.26-3.34,1.94-5.96,1.94c-1.24,0-2.28-0.06-3.16-0.16V97.9z M192.9,109.82
			c0.44,0.08,1.08,0.1,1.76,0.1c3.72,0,5.74-2.08,5.74-5.72c0.02-3.18-1.78-5.2-5.46-5.2c-0.9,0-1.58,0.08-2.04,0.18V109.82z"/>
		<path class="st1" d="M211.46,104.88h-5.24v4.86h5.84v1.46h-7.58V97.72h7.28v1.46h-5.54v4.26h5.24V104.88z"/>
		<path class="st1" d="M225.68,105.28c-0.1-1.88-0.22-4.14-0.2-5.82h-0.06c-0.46,1.58-1.02,3.26-1.7,5.12l-2.38,6.54h-1.32
			l-2.18-6.42c-0.64-1.9-1.18-3.64-1.56-5.24h-0.04c-0.04,1.68-0.14,3.94-0.26,5.96l-0.36,5.78h-1.66l0.94-13.48h2.22l2.3,6.52
			c0.56,1.66,1.02,3.14,1.36,4.54h0.06c0.34-1.36,0.82-2.84,1.42-4.54l2.4-6.52h2.22l0.84,13.48h-1.7L225.68,105.28z"/>
		<path class="st1" d="M241.92,104.32c0,4.64-2.82,7.1-6.26,7.1c-3.56,0-6.06-2.76-6.06-6.84c0-4.28,2.66-7.08,6.26-7.08
			C239.54,97.5,241.92,100.32,241.92,104.32z M231.46,104.54c0,2.88,1.56,5.46,4.3,5.46c2.76,0,4.32-2.54,4.32-5.6
			c0-2.68-1.4-5.48-4.3-5.48C232.9,98.92,231.46,101.58,231.46,104.54z"/>
		<path class="st1" d="M273.86,97.9c1.06-0.16,2.32-0.28,3.7-0.28c2.5,0,4.28,0.58,5.46,1.68c1.2,1.1,1.9,2.66,1.9,4.84
			c0,2.2-0.68,4-1.94,5.24c-1.26,1.26-3.34,1.94-5.96,1.94c-1.24,0-2.28-0.06-3.16-0.16V97.9z M275.6,109.82
			c0.44,0.08,1.08,0.1,1.76,0.1c3.72,0,5.74-2.08,5.74-5.72c0.02-3.18-1.78-5.2-5.46-5.2c-0.9,0-1.58,0.08-2.04,0.18V109.82z"/>
		<path class="st1" d="M294.16,104.88h-5.24v4.86h5.84v1.46h-7.58V97.72h7.28v1.46h-5.54v4.26h5.24V104.88z"/>
		<path class="st1" d="M308.38,105.28c-0.1-1.88-0.22-4.14-0.2-5.82h-0.06c-0.46,1.58-1.02,3.26-1.7,5.12l-2.38,6.54h-1.32
			l-2.18-6.42c-0.64-1.9-1.18-3.64-1.56-5.24h-0.04c-0.04,1.68-0.14,3.94-0.26,5.96l-0.36,5.78h-1.66l0.94-13.48h2.22l2.3,6.52
			c0.56,1.66,1.02,3.14,1.36,4.54h0.06c0.34-1.36,0.82-2.84,1.42-4.54l2.4-6.52h2.22l0.84,13.48h-1.7L308.38,105.28z"/>
		<path class="st1" d="M324.62,104.32c0,4.64-2.82,7.1-6.26,7.1c-3.56,0-6.06-2.76-6.06-6.84c0-4.28,2.66-7.08,6.26-7.08
			C322.24,97.5,324.62,100.32,324.62,104.32z M314.16,104.54c0,2.88,1.56,5.46,4.3,5.46c2.76,0,4.32-2.54,4.32-5.6
			c0-2.68-1.4-5.48-4.3-5.48C315.6,98.92,314.16,101.58,314.16,104.54z"/>
		<path class="st1" d="M356.56,97.9c1.06-0.16,2.32-0.28,3.7-0.28c2.5,0,4.28,0.58,5.46,1.68c1.2,1.1,1.9,2.66,1.9,4.84
			c0,2.2-0.68,4-1.94,5.24c-1.26,1.26-3.34,1.94-5.96,1.94c-1.24,0-2.28-0.06-3.16-0.16V97.9z M358.3,109.82
			c0.44,0.08,1.08,0.1,1.76,0.1c3.72,0,5.74-2.08,5.74-5.72c0.02-3.18-1.78-5.2-5.46-5.2c-0.9,0-1.58,0.08-2.04,0.18V109.82z"/>
		<path class="st1" d="M376.86,104.88h-5.24v4.86h5.84v1.46h-7.58V97.72h7.28v1.46h-5.54v4.26h5.24V104.88z"/>
		<path class="st1" d="M391.08,105.28c-0.1-1.88-0.22-4.14-0.2-5.82h-0.06c-0.46,1.58-1.02,3.26-1.7,5.12l-2.38,6.54h-1.32
			l-2.18-6.42c-0.64-1.9-1.18-3.64-1.56-5.24h-0.04c-0.04,1.68-0.14,3.94-0.26,5.96l-0.36,5.78h-1.66l0.94-13.48h2.22l2.3,6.52
			c0.56,1.66,1.02,3.14,1.36,4.54h0.06c0.34-1.36,0.82-2.84,1.42-4.54l2.4-6.52h2.22l0.84,13.48h-1.7L391.08,105.28z"/>
		<path class="st1" d="M407.32,104.32c0,4.64-2.82,7.1-6.26,7.1c-3.56,0-6.06-2.76-6.06-6.84c0-4.28,2.66-7.08,6.26-7.08
			C404.94,97.5,407.32,100.32,407.32,104.32z M396.86,104.54c0,2.88,1.56,5.46,4.3,5.46c2.76,0,4.32-2.54,4.32-5.6
			c0-2.68-1.4-5.48-4.3-5.48C398.3,98.92,396.86,101.58,396.86,104.54z"/>
		<path class="st1" d="M439.26,97.9c1.06-0.16,2.32-0.28,3.7-0.28c2.5,0,4.28,0.58,5.46,1.68c1.2,1.1,1.9,2.66,1.9,4.84
			c0,2.2-0.68,4-1.94,5.24c-1.26,1.26-3.34,1.94-5.96,1.94c-1.24,0-2.28-0.06-3.16-0.16V97.9z M441,109.82
			c0.44,0.08,1.08,0.1,1.76,0.1c3.72,0,5.74-2.08,5.74-5.72c0.02-3.18-1.78-5.2-5.46-5.2c-0.9,0-1.58,0.08-2.04,0.18V109.82z"/>
		<path class="st1" d="M459.56,104.88h-5.24v4.86h5.84v1.46h-7.58V97.72h7.28v1.46h-5.54v4.26h5.24V104.88z"/>
		<path class="st1" d="M473.79,105.28c-0.1-1.88-0.22-4.14-0.2-5.82h-0.06c-0.46,1.58-1.02,3.26-1.7,5.12l-2.38,6.54h-1.32
			l-2.18-6.42c-0.64-1.9-1.18-3.64-1.56-5.24h-0.04c-0.04,1.68-0.14,3.94-0.26,5.96l-0.36,5.78h-1.66L463,97.72h2.22l2.3,6.52
			c0.56,1.66,1.02,3.14,1.36,4.54h0.06c0.34-1.36,0.82-2.84,1.42-4.54l2.4-6.52h2.22l0.84,13.48h-1.7L473.79,105.28z"/>
		<path class="st1" d="M490.03,104.32c0,4.64-2.82,7.1-6.26,7.1c-3.56,0-6.06-2.76-6.06-6.84c0-4.28,2.66-7.08,6.26-7.08
			C487.64,97.5,490.03,100.32,490.03,104.32z M479.56,104.54c0,2.88,1.56,5.46,4.3,5.46c2.76,0,4.32-2.54,4.32-5.6
			c0-2.68-1.4-5.48-4.3-5.48C481,98.92,479.56,101.58,479.56,104.54z"/>
		<path class="st1" d="M25.77,135.9c1.06-0.16,2.32-0.28,3.7-0.28c2.5,0,4.28,0.58,5.46,1.68c1.2,1.1,1.9,2.66,1.9,4.84
			c0,2.2-0.68,4-1.94,5.24c-1.26,1.26-3.34,1.94-5.96,1.94c-1.24,0-2.28-0.06-3.16-0.16V135.9z M27.51,147.82
			c0.44,0.08,1.08,0.1,1.76,0.1c3.72,0,5.74-2.08,5.74-5.72c0.02-3.18-1.78-5.2-5.46-5.2c-0.9,0-1.58,0.08-2.04,0.18V147.82z"/>
		<path class="st1" d="M46.07,142.88h-5.24v4.86h5.84v1.46h-7.58v-13.48h7.28v1.46h-5.54v4.26h5.24V142.88z"/>
		<path class="st1" d="M60.29,143.28c-0.1-1.88-0.22-4.14-0.2-5.82h-0.06c-0.46,1.58-1.02,3.26-1.7,5.12l-2.38,6.54h-1.32
			l-2.18-6.42c-0.64-1.9-1.18-3.64-1.56-5.24h-0.04c-0.04,1.68-0.14,3.94-0.26,5.96l-0.36,5.78h-1.66l0.94-13.48h2.22l2.3,6.52
			c0.56,1.66,1.02,3.14,1.36,4.54h0.06c0.34-1.36,0.82-2.84,1.42-4.54l2.4-6.52h2.22l0.84,13.48h-1.7L60.29,143.28z"/>
		<path class="st1" d="M76.53,142.32c0,4.64-2.82,7.1-6.26,7.1c-3.56,0-6.06-2.76-6.06-6.84c0-4.28,2.66-7.08,6.26-7.08
			C74.15,135.5,76.53,138.32,76.53,142.32z M66.07,142.54c0,2.88,1.56,5.46,4.3,5.46c2.76,0,4.32-2.54,4.32-5.6
			c0-2.68-1.4-5.48-4.3-5.48C67.51,136.92,66.07,139.58,66.07,142.54z"/>
		<path class="st1" d="M108.46,135.9c1.06-0.16,2.32-0.28,3.7-0.28c2.5,0,4.28,0.58,5.46,1.68c1.2,1.1,1.9,2.66,1.9,4.84
			c0,2.2-0.68,4-1.94,5.24c-1.26,1.26-3.34,1.94-5.96,1.94c-1.24,0-2.28-0.06-3.16-0.16V135.9z M110.21,147.82
			c0.44,0.08,1.08,0.1,1.76,0.1c3.72,0,5.74-2.08,5.74-5.72c0.02-3.18-1.78-5.2-5.46-5.2c-0.9,0-1.58,0.08-2.04,0.18V147.82z"/>
		<path class="st1" d="M128.77,142.88h-5.24v4.86h5.84v1.46h-7.58v-13.48h7.28v1.46h-5.54v4.26h5.24V142.88z"/>
		<path class="st1" d="M142.99,143.28c-0.1-1.88-0.22-4.14-0.2-5.82h-0.06c-0.46,1.58-1.02,3.26-1.7,5.12l-2.38,6.54h-1.32
			l-2.18-6.42c-0.64-1.9-1.18-3.64-1.56-5.24h-0.04c-0.04,1.68-0.14,3.94-0.26,5.96l-0.36,5.78h-1.66l0.94-13.48h2.22l2.3,6.52
			c0.56,1.66,1.02,3.14,1.36,4.54h0.06c0.34-1.36,0.82-2.84,1.42-4.54l2.4-6.52h2.22l0.84,13.48h-1.7L142.99,143.28z"/>
		<path class="st1" d="M159.23,142.32c0,4.64-2.82,7.1-6.26,7.1c-3.56,0-6.06-2.76-6.06-6.84c0-4.28,2.66-7.08,6.26-7.08
			C156.85,135.5,159.23,138.32,159.23,142.32z M148.76,142.54c0,2.88,1.56,5.46,4.3,5.46c2.76,0,4.32-2.54,4.32-5.6
			c0-2.68-1.4-5.48-4.3-5.48C150.2,136.92,148.76,139.58,148.76,142.54z"/>
		<path class="st1" d="M191.16,135.9c1.06-0.16,2.32-0.28,3.7-0.28c2.5,0,4.28,0.58,5.46,1.68c1.2,1.1,1.9,2.66,1.9,4.84
			c0,2.2-0.68,4-1.94,5.24c-1.26,1.26-3.34,1.94-5.96,1.94c-1.24,0-2.28-0.06-3.16-0.16V135.9z M192.9,147.82
			c0.44,0.08,1.08,0.1,1.76,0.1c3.72,0,5.74-2.08,5.74-5.72c0.02-3.18-1.78-5.2-5.46-5.2c-0.9,0-1.58,0.08-2.04,0.18V147.82z"/>
		<path class="st1" d="M211.46,142.88h-5.24v4.86h5.84v1.46h-7.58v-13.48h7.28v1.46h-5.54v4.26h5.24V142.88z"/>
		<path class="st1" d="M225.68,143.28c-0.1-1.88-0.22-4.14-0.2-5.82h-0.06c-0.46,1.58-1.02,3.26-1.7,5.12l-2.38,6.54h-1.32
			l-2.18-6.42c-0.64-1.9-1.18-3.64-1.56-5.24h-0.04c-0.04,1.68-0.14,3.94-0.26,5.96l-0.36,5.78h-1.66l0.94-13.48h2.22l2.3,6.52
			c0.56,1.66,1.02,3.14,1.36,4.54h0.06c0.34-1.36,0.82-2.84,1.42-4.54l2.4-6.52h2.22l0.84,13.48h-1.7L225.68,143.28z"/>
		<path class="st1" d="M241.92,142.32c0,4.64-2.82,7.1-6.26,7.1c-3.56,0-6.06-2.76-6.06-6.84c0-4.28,2.66-7.08,6.26-7.08
			C239.54,135.5,241.92,138.32,241.92,142.32z M231.46,142.54c0,2.88,1.56,5.46,4.3,5.46c2.76,0,4.32-2.54,4.32-5.6
			c0-2.68-1.4-5.48-4.3-5.48C232.9,136.92,231.46,139.58,231.46,142.54z"/>
		<path class="st1" d="M273.86,135.9c1.06-0.16,2.32-0.28,3.7-0.28c2.5,0,4.28,0.58,5.46,1.68c1.2,1.1,1.9,2.66,1.9,4.84
			c0,2.2-0.68,4-1.94,5.24c-1.26,1.26-3.34,1.94-5.96,1.94c-1.24,0-2.28-0.06-3.16-0.16V135.9z M275.6,147.82
			c0.44,0.08,1.08,0.1,1.76,0.1c3.72,0,5.74-2.08,5.74-5.72c0.02-3.18-1.78-5.2-5.46-5.2c-0.9,0-1.58,0.08-2.04,0.18V147.82z"/>
		<path class="st1" d="M294.16,142.88h-5.24v4.86h5.84v1.46h-7.58v-13.48h7.28v1.46h-5.54v4.26h5.24V142.88z"/>
		<path class="st1" d="M308.38,143.28c-0.1-1.88-0.22-4.14-0.2-5.82h-0.06c-0.46,1.58-1.02,3.26-1.7,5.12l-2.38,6.54h-1.32
			l-2.18-6.42c-0.64-1.9-1.18-3.64-1.56-5.24h-0.04c-0.04,1.68-0.14,3.94-0.26,5.96l-0.36,5.78h-1.66l0.94-13.48h2.22l2.3,6.52
			c0.56,1.66,1.02,3.14,1.36,4.54h0.06c0.34-1.36,0.82-2.84,1.42-4.54l2.4-6.52h2.22l0.84,13.48h-1.7L308.38,143.28z"/>
		<path class="st1" d="M324.62,142.32c0,4.64-2.82,7.1-6.26,7.1c-3.56,0-6.06-2.76-6.06-6.84c0-4.28,2.66-7.08,6.26-7.08
			C322.24,135.5,324.62,138.32,324.62,142.32z M314.16,142.54c0,2.88,1.56,5.46,4.3,5.46c2.76,0,4.32-2.54,4.32-5.6
			c0-2.68-1.4-5.48-4.3-5.48C315.6,136.92,314.16,139.58,314.16,142.54z"/>
		<path class="st1" d="M356.56,135.9c1.06-0.16,2.32-0.28,3.7-0.28c2.5,0,4.28,0.58,5.46,1.68c1.2,1.1,1.9,2.66,1.9,4.84
			c0,2.2-0.68,4-1.94,5.24c-1.26,1.26-3.34,1.94-5.96,1.94c-1.24,0-2.28-0.06-3.16-0.16V135.9z M358.3,147.82
			c0.44,0.08,1.08,0.1,1.76,0.1c3.72,0,5.74-2.08,5.74-5.72c0.02-3.18-1.78-5.2-5.46-5.2c-0.9,0-1.58,0.08-2.04,0.18V147.82z"/>
		<path class="st1" d="M376.86,142.88h-5.24v4.86h5.84v1.46h-7.58v-13.48h7.28v1.46h-5.54v4.26h5.24V142.88z"/>
		<path class="st1" d="M391.08,143.28c-0.1-1.88-0.22-4.14-0.2-5.82h-0.06c-0.46,1.58-1.02,3.26-1.7,5.12l-2.38,6.54h-1.32
			l-2.18-6.42c-0.64-1.9-1.18-3.64-1.56-5.24h-0.04c-0.04,1.68-0.14,3.94-0.26,5.96l-0.36,5.78h-1.66l0.94-13.48h2.22l2.3,6.52
			c0.56,1.66,1.02,3.14,1.36,4.54h0.06c0.34-1.36,0.82-2.84,1.42-4.54l2.4-6.52h2.22l0.84,13.48h-1.7L391.08,143.28z"/>
		<path class="st1" d="M407.32,142.32c0,4.64-2.82,7.1-6.26,7.1c-3.56,0-6.06-2.76-6.06-6.84c0-4.28,2.66-7.08,6.26-7.08
			C404.94,135.5,407.32,138.32,407.32,142.32z M396.86,142.54c0,2.88,1.56,5.46,4.3,5.46c2.76,0,4.32-2.54,4.32-5.6
			c0-2.68-1.4-5.48-4.3-5.48C398.3,136.92,396.86,139.58,396.86,142.54z"/>
		<path class="st1" d="M439.26,135.9c1.06-0.16,2.32-0.28,3.7-0.28c2.5,0,4.28,0.58,5.46,1.68c1.2,1.1,1.9,2.66,1.9,4.84
			c0,2.2-0.68,4-1.94,5.24c-1.26,1.26-3.34,1.94-5.96,1.94c-1.24,0-2.28-0.06-3.16-0.16V135.9z M441,147.82
			c0.44,0.08,1.08,0.1,1.76,0.1c3.72,0,5.74-2.08,5.74-5.72c0.02-3.18-1.78-5.2-5.46-5.2c-0.9,0-1.58,0.08-2.04,0.18V147.82z"/>
		<path class="st1" d="M459.56,142.88h-5.24v4.86h5.84v1.46h-7.58v-13.48h7.28v1.46h-5.54v4.26h5.24V142.88z"/>
		<path class="st1" d="M473.79,143.28c-0.1-1.88-0.22-4.14-0.2-5.82h-0.06c-0.46,1.58-1.02,3.26-1.7,5.12l-2.38,6.54h-1.32
			l-2.18-6.42c-0.64-1.9-1.18-3.64-1.56-5.24h-0.04c-0.04,1.68-0.14,3.94-0.26,5.96l-0.36,5.78h-1.66l0.94-13.48h2.22l2.3,6.52
			c0.56,1.66,1.02,3.14,1.36,4.54h0.06c0.34-1.36,0.82-2.84,1.42-4.54l2.4-6.52h2.22l0.84,13.48h-1.7L473.79,143.28z"/>
		<path class="st1" d="M490.03,142.32c0,4.64-2.82,7.1-6.26,7.1c-3.56,0-6.06-2.76-6.06-6.84c0-4.28,2.66-7.08,6.26-7.08
			C487.64,135.5,490.03,138.32,490.03,142.32z M479.56,142.54c0,2.88,1.56,5.46,4.3,5.46c2.76,0,4.32-2.54,4.32-5.6
			c0-2.68-1.4-5.48-4.3-5.48C481,136.92,479.56,139.58,479.56,142.54z"/>
		<path class="st1" d="M25.77,173.9c1.06-0.16,2.32-0.28,3.7-0.28c2.5,0,4.28,0.58,5.46,1.68c1.2,1.1,1.9,2.66,1.9,4.84
			c0,2.2-0.68,4-1.94,5.24c-1.26,1.26-3.34,1.94-5.96,1.94c-1.24,0-2.28-0.06-3.16-0.16V173.9z M27.51,185.82
			c0.44,0.08,1.08,0.1,1.76,0.1c3.72,0,5.74-2.08,5.74-5.72c0.02-3.18-1.78-5.2-5.46-5.2c-0.9,0-1.58,0.08-2.04,0.18V185.82z"/>
		<path class="st1" d="M46.07,180.88h-5.24v4.86h5.84v1.46h-7.58v-13.48h7.28v1.46h-5.54v4.26h5.24V180.88z"/>
		<path class="st1" d="M60.29,181.28c-0.1-1.88-0.22-4.14-0.2-5.82h-0.06c-0.46,1.58-1.02,3.26-1.7,5.12l-2.38,6.54h-1.32
			l-2.18-6.42c-0.64-1.9-1.18-3.64-1.56-5.24h-0.04c-0.04,1.68-0.14,3.94-0.26,5.96l-0.36,5.78h-1.66l0.94-13.48h2.22l2.3,6.52
			c0.56,1.66,1.02,3.14,1.36,4.54h0.06c0.34-1.36,0.82-2.84,1.42-4.54l2.4-6.52h2.22l0.84,13.48h-1.7L60.29,181.28z"/>
		<path class="st1" d="M76.53,180.32c0,4.64-2.82,7.1-6.26,7.1c-3.56,0-6.06-2.76-6.06-6.84c0-4.28,2.66-7.08,6.26-7.08
			C74.15,173.5,76.53,176.32,76.53,180.32z M66.07,180.54c0,2.88,1.56,5.46,4.3,5.46c2.76,0,4.32-2.54,4.32-5.6
			c0-2.68-1.4-5.48-4.3-5.48C67.51,174.92,66.07,177.58,66.07,180.54z"/>
		<path class="st1" d="M108.47,173.9c1.06-0.16,2.32-0.28,3.7-0.28c2.5,0,4.28,0.58,5.46,1.68c1.2,1.1,1.9,2.66,1.9,4.84
			c0,2.2-0.68,4-1.94,5.24c-1.26,1.26-3.34,1.94-5.96,1.94c-1.24,0-2.28-0.06-3.16-0.16V173.9z M110.21,185.82
			c0.44,0.08,1.08,0.1,1.76,0.1c3.72,0,5.74-2.08,5.74-5.72c0.02-3.18-1.78-5.2-5.46-5.2c-0.9,0-1.58,0.08-2.04,0.18V185.82z"/>
		<path class="st1" d="M128.77,180.88h-5.24v4.86h5.84v1.46h-7.58v-13.48h7.28v1.46h-5.54v4.26h5.24V180.88z"/>
		<path class="st1" d="M142.99,181.28c-0.1-1.88-0.22-4.14-0.2-5.82h-0.06c-0.46,1.58-1.02,3.26-1.7,5.12l-2.38,6.54h-1.32
			l-2.18-6.42c-0.64-1.9-1.18-3.64-1.56-5.24h-0.04c-0.04,1.68-0.14,3.94-0.26,5.96l-0.36,5.78h-1.66l0.94-13.48h2.22l2.3,6.52
			c0.56,1.66,1.02,3.14,1.36,4.54h0.06c0.34-1.36,0.82-2.84,1.42-4.54l2.4-6.52h2.22l0.84,13.48h-1.7L142.99,181.28z"/>
		<path class="st1" d="M159.23,180.32c0,4.64-2.82,7.1-6.26,7.1c-3.56,0-6.06-2.76-6.06-6.84c0-4.28,2.66-7.08,6.26-7.08
			C156.85,173.5,159.23,176.32,159.23,180.32z M148.76,180.54c0,2.88,1.56,5.46,4.3,5.46c2.76,0,4.32-2.54,4.32-5.6
			c0-2.68-1.4-5.48-4.3-5.48C150.21,174.92,148.76,177.58,148.76,180.54z"/>
		<path class="st1" d="M191.16,173.9c1.06-0.16,2.32-0.28,3.7-0.28c2.5,0,4.28,0.58,5.46,1.68c1.2,1.1,1.9,2.66,1.9,4.84
			c0,2.2-0.68,4-1.94,5.24c-1.26,1.26-3.34,1.94-5.96,1.94c-1.24,0-2.28-0.06-3.16-0.16V173.9z M192.9,185.82
			c0.44,0.08,1.08,0.1,1.76,0.1c3.72,0,5.74-2.08,5.74-5.72c0.02-3.18-1.78-5.2-5.46-5.2c-0.9,0-1.58,0.08-2.04,0.18V185.82z"/>
		<path class="st1" d="M211.46,180.88h-5.24v4.86h5.84v1.46h-7.58v-13.48h7.28v1.46h-5.54v4.26h5.24V180.88z"/>
		<path class="st1" d="M225.68,181.28c-0.1-1.88-0.22-4.14-0.2-5.82h-0.06c-0.46,1.58-1.02,3.26-1.7,5.12l-2.38,6.54h-1.32
			l-2.18-6.42c-0.64-1.9-1.18-3.64-1.56-5.24h-0.04c-0.04,1.68-0.14,3.94-0.26,5.96l-0.36,5.78h-1.66l0.94-13.48h2.22l2.3,6.52
			c0.56,1.66,1.02,3.14,1.36,4.54h0.06c0.34-1.36,0.82-2.84,1.42-4.54l2.4-6.52h2.22l0.84,13.48h-1.7L225.68,181.28z"/>
		<path class="st1" d="M241.92,180.32c0,4.64-2.82,7.1-6.26,7.1c-3.56,0-6.06-2.76-6.06-6.84c0-4.28,2.66-7.08,6.26-7.08
			C239.54,173.5,241.92,176.32,241.92,180.32z M231.46,180.54c0,2.88,1.56,5.46,4.3,5.46c2.76,0,4.32-2.54,4.32-5.6
			c0-2.68-1.4-5.48-4.3-5.48C232.9,174.92,231.46,177.58,231.46,180.54z"/>
		<path class="st1" d="M273.86,173.9c1.06-0.16,2.32-0.28,3.7-0.28c2.5,0,4.28,0.58,5.46,1.68c1.2,1.1,1.9,2.66,1.9,4.84
			c0,2.2-0.68,4-1.94,5.24c-1.26,1.26-3.34,1.94-5.96,1.94c-1.24,0-2.28-0.06-3.16-0.16V173.9z M275.6,185.82
			c0.44,0.08,1.08,0.1,1.76,0.1c3.72,0,5.74-2.08,5.74-5.72c0.02-3.18-1.78-5.2-5.46-5.2c-0.9,0-1.58,0.08-2.04,0.18V185.82z"/>
		<path class="st1" d="M294.16,180.88h-5.24v4.86h5.84v1.46h-7.58v-13.48h7.28v1.46h-5.54v4.26h5.24V180.88z"/>
		<path class="st1" d="M308.38,181.28c-0.1-1.88-0.22-4.14-0.2-5.82h-0.06c-0.46,1.58-1.02,3.26-1.7,5.12l-2.38,6.54h-1.32
			l-2.18-6.42c-0.64-1.9-1.18-3.64-1.56-5.24h-0.04c-0.04,1.68-0.14,3.94-0.26,5.96l-0.36,5.78h-1.66l0.94-13.48h2.22l2.3,6.52
			c0.56,1.66,1.02,3.14,1.36,4.54h0.06c0.34-1.36,0.82-2.84,1.42-4.54l2.4-6.52h2.22l0.84,13.48h-1.7L308.38,181.28z"/>
		<path class="st1" d="M324.62,180.32c0,4.64-2.82,7.1-6.26,7.1c-3.56,0-6.06-2.76-6.06-6.84c0-4.28,2.66-7.08,6.26-7.08
			C322.24,173.5,324.62,176.32,324.62,180.32z M314.16,180.54c0,2.88,1.56,5.46,4.3,5.46c2.76,0,4.32-2.54,4.32-5.6
			c0-2.68-1.4-5.48-4.3-5.48C315.6,174.92,314.16,177.58,314.16,180.54z"/>
		<path class="st1" d="M356.56,173.9c1.06-0.16,2.32-0.28,3.7-0.28c2.5,0,4.28,0.58,5.46,1.68c1.2,1.1,1.9,2.66,1.9,4.84
			c0,2.2-0.68,4-1.94,5.24c-1.26,1.26-3.34,1.94-5.96,1.94c-1.24,0-2.28-0.06-3.16-0.16V173.9z M358.3,185.82
			c0.44,0.08,1.08,0.1,1.76,0.1c3.72,0,5.74-2.08,5.74-5.72c0.02-3.18-1.78-5.2-5.46-5.2c-0.9,0-1.58,0.08-2.04,0.18V185.82z"/>
		<path class="st1" d="M376.86,180.88h-5.24v4.86h5.84v1.46h-7.58v-13.48h7.28v1.46h-5.54v4.26h5.24V180.88z"/>
		<path class="st1" d="M391.08,181.28c-0.1-1.88-0.22-4.14-0.2-5.82h-0.06c-0.46,1.58-1.02,3.26-1.7,5.12l-2.38,6.54h-1.32
			l-2.18-6.42c-0.64-1.9-1.18-3.64-1.56-5.24h-0.04c-0.04,1.68-0.14,3.94-0.26,5.96l-0.36,5.78h-1.66l0.94-13.48h2.22l2.3,6.52
			c0.56,1.66,1.02,3.14,1.36,4.54h0.06c0.34-1.36,0.82-2.84,1.42-4.54l2.4-6.52h2.22l0.84,13.48h-1.7L391.08,181.28z"/>
		<path class="st1" d="M407.32,180.32c0,4.64-2.82,7.1-6.26,7.1c-3.56,0-6.06-2.76-6.06-6.84c0-4.28,2.66-7.08,6.26-7.08
			C404.94,173.5,407.32,176.32,407.32,180.32z M396.86,180.54c0,2.88,1.56,5.46,4.3,5.46c2.76,0,4.32-2.54,4.32-5.6
			c0-2.68-1.4-5.48-4.3-5.48C398.3,174.92,396.86,177.58,396.86,180.54z"/>
		<path class="st1" d="M439.26,173.9c1.06-0.16,2.32-0.28,3.7-0.28c2.5,0,4.28,0.58,5.46,1.68c1.2,1.1,1.9,2.66,1.9,4.84
			c0,2.2-0.68,4-1.94,5.24c-1.26,1.26-3.34,1.94-5.96,1.94c-1.24,0-2.28-0.06-3.16-0.16V173.9z M441,185.82
			c0.44,0.08,1.08,0.1,1.76,0.1c3.72,0,5.74-2.08,5.74-5.72c0.02-3.18-1.78-5.2-5.46-5.2c-0.9,0-1.58,0.08-2.04,0.18V185.82z"/>
		<path class="st1" d="M459.56,180.88h-5.24v4.86h5.84v1.46h-7.58v-13.48h7.28v1.46h-5.54v4.26h5.24V180.88z"/>
		<path class="st1" d="M473.79,181.28c-0.1-1.88-0.22-4.14-0.2-5.82h-0.06c-0.46,1.58-1.02,3.26-1.7,5.12l-2.38,6.54h-1.32
			l-2.18-6.42c-0.64-1.9-1.18-3.64-1.56-5.24h-0.04c-0.04,1.68-0.14,3.94-0.26,5.96l-0.36,5.78h-1.66l0.94-13.48h2.22l2.3,6.52
			c0.56,1.66,1.02,3.14,1.36,4.54h0.06c0.34-1.36,0.82-2.84,1.42-4.54l2.4-6.52h2.22l0.84,13.48h-1.7L473.79,181.28z"/>
		<path class="st1" d="M490.03,180.32c0,4.64-2.82,7.1-6.26,7.1c-3.56,0-6.06-2.76-6.06-6.84c0-4.28,2.66-7.08,6.26-7.08
			C487.64,173.5,490.03,176.32,490.03,180.32z M479.56,180.54c0,2.88,1.56,5.46,4.3,5.46c2.76,0,4.32-2.54,4.32-5.6
			c0-2.68-1.4-5.48-4.3-5.48C481,174.92,479.56,177.58,479.56,180.54z"/>
		<path class="st1" d="M25.77,211.9c1.06-0.16,2.32-0.28,3.7-0.28c2.5,0,4.28,0.58,5.46,1.68c1.2,1.1,1.9,2.66,1.9,4.84
			c0,2.2-0.68,4-1.94,5.24c-1.26,1.26-3.34,1.94-5.96,1.94c-1.24,0-2.28-0.06-3.16-0.16V211.9z M27.51,223.82
			c0.44,0.08,1.08,0.1,1.76,0.1c3.72,0,5.74-2.08,5.74-5.72c0.02-3.18-1.78-5.2-5.46-5.2c-0.9,0-1.58,0.08-2.04,0.18V223.82z"/>
		<path class="st1" d="M46.07,218.88h-5.24v4.86h5.84v1.46h-7.58v-13.48h7.28v1.46h-5.54v4.26h5.24V218.88z"/>
		<path class="st1" d="M60.29,219.28c-0.1-1.88-0.22-4.14-0.2-5.82h-0.06c-0.46,1.58-1.02,3.26-1.7,5.12l-2.38,6.54h-1.32
			l-2.18-6.42c-0.64-1.9-1.18-3.64-1.56-5.24h-0.04c-0.04,1.68-0.14,3.94-0.26,5.96l-0.36,5.78h-1.66l0.94-13.48h2.22l2.3,6.52
			c0.56,1.66,1.02,3.14,1.36,4.54h0.06c0.34-1.36,0.82-2.84,1.42-4.54l2.4-6.52h2.22l0.84,13.48h-1.7L60.29,219.28z"/>
		<path class="st1" d="M76.53,218.32c0,4.64-2.82,7.1-6.26,7.1c-3.56,0-6.06-2.76-6.06-6.84c0-4.28,2.66-7.08,6.26-7.08
			C74.15,211.5,76.53,214.32,76.53,218.32z M66.07,218.54c0,2.88,1.56,5.46,4.3,5.46c2.76,0,4.32-2.54,4.32-5.6
			c0-2.68-1.4-5.48-4.3-5.48C67.51,212.92,66.07,215.58,66.07,218.54z"/>
		<path class="st1" d="M108.46,211.9c1.06-0.16,2.32-0.28,3.7-0.28c2.5,0,4.28,0.58,5.46,1.68c1.2,1.1,1.9,2.66,1.9,4.84
			c0,2.2-0.68,4-1.94,5.24c-1.26,1.26-3.34,1.94-5.96,1.94c-1.24,0-2.28-0.06-3.16-0.16V211.9z M110.21,223.82
			c0.44,0.08,1.08,0.1,1.76,0.1c3.72,0,5.74-2.08,5.74-5.72c0.02-3.18-1.78-5.2-5.46-5.2c-0.9,0-1.58,0.08-2.04,0.18V223.82z"/>
		<path class="st1" d="M128.77,218.88h-5.24v4.86h5.84v1.46h-7.58v-13.48h7.28v1.46h-5.54v4.26h5.24V218.88z"/>
		<path class="st1" d="M142.99,219.28c-0.1-1.88-0.22-4.14-0.2-5.82h-0.06c-0.46,1.58-1.02,3.26-1.7,5.12l-2.38,6.54h-1.32
			l-2.18-6.42c-0.64-1.9-1.18-3.64-1.56-5.24h-0.04c-0.04,1.68-0.14,3.94-0.26,5.96l-0.36,5.78h-1.66l0.94-13.48h2.22l2.3,6.52
			c0.56,1.66,1.02,3.14,1.36,4.54h0.06c0.34-1.36,0.82-2.84,1.42-4.54l2.4-6.52h2.22l0.84,13.48h-1.7L142.99,219.28z"/>
		<path class="st1" d="M159.23,218.32c0,4.64-2.82,7.1-6.26,7.1c-3.56,0-6.06-2.76-6.06-6.84c0-4.28,2.66-7.08,6.26-7.08
			C156.85,211.5,159.23,214.32,159.23,218.32z M148.76,218.54c0,2.88,1.56,5.46,4.3,5.46c2.76,0,4.32-2.54,4.32-5.6
			c0-2.68-1.4-5.48-4.3-5.48C150.2,212.92,148.76,215.58,148.76,218.54z"/>
		<path class="st1" d="M191.16,211.9c1.06-0.16,2.32-0.28,3.7-0.28c2.5,0,4.28,0.58,5.46,1.68c1.2,1.1,1.9,2.66,1.9,4.84
			c0,2.2-0.68,4-1.94,5.24c-1.26,1.26-3.34,1.94-5.96,1.94c-1.24,0-2.28-0.06-3.16-0.16V211.9z M192.9,223.82
			c0.44,0.08,1.08,0.1,1.76,0.1c3.72,0,5.74-2.08,5.74-5.72c0.02-3.18-1.78-5.2-5.46-5.2c-0.9,0-1.58,0.08-2.04,0.18V223.82z"/>
		<path class="st1" d="M211.46,218.88h-5.24v4.86h5.84v1.46h-7.58v-13.48h7.28v1.46h-5.54v4.26h5.24V218.88z"/>
		<path class="st1" d="M225.68,219.28c-0.1-1.88-0.22-4.14-0.2-5.82h-0.06c-0.46,1.58-1.02,3.26-1.7,5.12l-2.38,6.54h-1.32
			l-2.18-6.42c-0.64-1.9-1.18-3.64-1.56-5.24h-0.04c-0.04,1.68-0.14,3.94-0.26,5.96l-0.36,5.78h-1.66l0.94-13.48h2.22l2.3,6.52
			c0.56,1.66,1.02,3.14,1.36,4.54h0.06c0.34-1.36,0.82-2.84,1.42-4.54l2.4-6.52h2.22l0.84,13.48h-1.7L225.68,219.28z"/>
		<path class="st1" d="M241.92,218.32c0,4.64-2.82,7.1-6.26,7.1c-3.56,0-6.06-2.76-6.06-6.84c0-4.28,2.66-7.08,6.26-7.08
			C239.54,211.5,241.92,214.32,241.92,218.32z M231.46,218.54c0,2.88,1.56,5.46,4.3,5.46c2.76,0,4.32-2.54,4.32-5.6
			c0-2.68-1.4-5.48-4.3-5.48C232.9,212.92,231.46,215.58,231.46,218.54z"/>
		<path class="st1" d="M273.86,211.9c1.06-0.16,2.32-0.28,3.7-0.28c2.5,0,4.28,0.58,5.46,1.68c1.2,1.1,1.9,2.66,1.9,4.84
			c0,2.2-0.68,4-1.94,5.24c-1.26,1.26-3.34,1.94-5.96,1.94c-1.24,0-2.28-0.06-3.16-0.16V211.9z M275.6,223.82
			c0.44,0.08,1.08,0.1,1.76,0.1c3.72,0,5.74-2.08,5.74-5.72c0.02-3.18-1.78-5.2-5.46-5.2c-0.9,0-1.58,0.08-2.04,0.18V223.82z"/>
		<path class="st1" d="M294.16,218.88h-5.24v4.86h5.84v1.46h-7.58v-13.48h7.28v1.46h-5.54v4.26h5.24V218.88z"/>
		<path class="st1" d="M308.38,219.28c-0.1-1.88-0.22-4.14-0.2-5.82h-0.06c-0.46,1.58-1.02,3.26-1.7,5.12l-2.38,6.54h-1.32
			l-2.18-6.42c-0.64-1.9-1.18-3.64-1.56-5.24h-0.04c-0.04,1.68-0.14,3.94-0.26,5.96l-0.36,5.78h-1.66l0.94-13.48h2.22l2.3,6.52
			c0.56,1.66,1.02,3.14,1.36,4.54h0.06c0.34-1.36,0.82-2.84,1.42-4.54l2.4-6.52h2.22l0.84,13.48h-1.7L308.38,219.28z"/>
		<path class="st1" d="M324.62,218.32c0,4.64-2.82,7.1-6.26,7.1c-3.56,0-6.06-2.76-6.06-6.84c0-4.28,2.66-7.08,6.26-7.08
			C322.24,211.5,324.62,214.32,324.62,218.32z M314.16,218.54c0,2.88,1.56,5.46,4.3,5.46c2.76,0,4.32-2.54,4.32-5.6
			c0-2.68-1.4-5.48-4.3-5.48C315.6,212.92,314.16,215.58,314.16,218.54z"/>
		<path class="st1" d="M356.56,211.9c1.06-0.16,2.32-0.28,3.7-0.28c2.5,0,4.28,0.58,5.46,1.68c1.2,1.1,1.9,2.66,1.9,4.84
			c0,2.2-0.68,4-1.94,5.24c-1.26,1.26-3.34,1.94-5.96,1.94c-1.24,0-2.28-0.06-3.16-0.16V211.9z M358.3,223.82
			c0.44,0.08,1.08,0.1,1.76,0.1c3.72,0,5.74-2.08,5.74-5.72c0.02-3.18-1.78-5.2-5.46-5.2c-0.9,0-1.58,0.08-2.04,0.18V223.82z"/>
		<path class="st1" d="M376.86,218.88h-5.24v4.86h5.84v1.46h-7.58v-13.48h7.28v1.46h-5.54v4.26h5.24V218.88z"/>
		<path class="st1" d="M391.08,219.28c-0.1-1.88-0.22-4.14-0.2-5.82h-0.06c-0.46,1.58-1.02,3.26-1.7,5.12l-2.38,6.54h-1.32
			l-2.18-6.42c-0.64-1.9-1.18-3.64-1.56-5.24h-0.04c-0.04,1.68-0.14,3.94-0.26,5.96l-0.36,5.78h-1.66l0.94-13.48h2.22l2.3,6.52
			c0.56,1.66,1.02,3.14,1.36,4.54h0.06c0.34-1.36,0.82-2.84,1.42-4.54l2.4-6.52h2.22l0.84,13.48h-1.7L391.08,219.28z"/>
		<path class="st1" d="M407.32,218.32c0,4.64-2.82,7.1-6.26,7.1c-3.56,0-6.06-2.76-6.06-6.84c0-4.28,2.66-7.08,6.26-7.08
			C404.94,211.5,407.32,214.32,407.32,218.32z M396.86,218.54c0,2.88,1.56,5.46,4.3,5.46c2.76,0,4.32-2.54,4.32-5.6
			c0-2.68-1.4-5.48-4.3-5.48C398.3,212.92,396.86,215.58,396.86,218.54z"/>
		<path class="st1" d="M439.26,211.9c1.06-0.16,2.32-0.28,3.7-0.28c2.5,0,4.28,0.58,5.46,1.68c1.2,1.1,1.9,2.66,1.9,4.84
			c0,2.2-0.68,4-1.94,5.24c-1.26,1.26-3.34,1.94-5.96,1.94c-1.24,0-2.28-0.06-3.16-0.16V211.9z M441,223.82
			c0.44,0.08,1.08,0.1,1.76,0.1c3.72,0,5.74-2.08,5.74-5.72c0.02-3.18-1.78-5.2-5.46-5.2c-0.9,0-1.58,0.08-2.04,0.18V223.82z"/>
		<path class="st1" d="M459.56,218.88h-5.24v4.86h5.84v1.46h-7.58v-13.48h7.28v1.46h-5.54v4.26h5.24V218.88z"/>
		<path class="st1" d="M473.79,219.28c-0.1-1.88-0.22-4.14-0.2-5.82h-0.06c-0.46,1.58-1.02,3.26-1.7,5.12l-2.38,6.54h-1.32
			l-2.18-6.42c-0.64-1.9-1.18-3.64-1.56-5.24h-0.04c-0.04,1.68-0.14,3.94-0.26,5.96l-0.36,5.78h-1.66l0.94-13.48h2.22l2.3,6.52
			c0.56,1.66,1.02,3.14,1.36,4.54h0.06c0.34-1.36,0.82-2.84,1.42-4.54l2.4-6.52h2.22l0.84,13.48h-1.7L473.79,219.28z"/>
		<path class="st1" d="M490.03,218.32c0,4.64-2.82,7.1-6.26,7.1c-3.56,0-6.06-2.76-6.06-6.84c0-4.28,2.66-7.08,6.26-7.08
			C487.64,211.5,490.03,214.32,490.03,218.32z M479.56,218.54c0,2.88,1.56,5.46,4.3,5.46c2.76,0,4.32-2.54,4.32-5.6
			c0-2.68-1.4-5.48-4.3-5.48C481,212.92,479.56,215.58,479.56,218.54z"/>
		<path class="st1" d="M25.77,249.9c1.06-0.16,2.32-0.28,3.7-0.28c2.5,0,4.28,0.58,5.46,1.68c1.2,1.1,1.9,2.66,1.9,4.84
			c0,2.2-0.68,4-1.94,5.24c-1.26,1.26-3.34,1.94-5.96,1.94c-1.24,0-2.28-0.06-3.16-0.16V249.9z M27.51,261.82
			c0.44,0.08,1.08,0.1,1.76,0.1c3.72,0,5.74-2.08,5.74-5.72c0.02-3.18-1.78-5.2-5.46-5.2c-0.9,0-1.58,0.08-2.04,0.18V261.82z"/>
		<path class="st1" d="M46.07,256.88h-5.24v4.86h5.84v1.46h-7.58v-13.48h7.28v1.46h-5.54v4.26h5.24V256.88z"/>
		<path class="st1" d="M60.29,257.28c-0.1-1.88-0.22-4.14-0.2-5.82h-0.06c-0.46,1.58-1.02,3.26-1.7,5.12l-2.38,6.54h-1.32
			l-2.18-6.42c-0.64-1.9-1.18-3.64-1.56-5.24h-0.04c-0.04,1.68-0.14,3.94-0.26,5.96l-0.36,5.78h-1.66l0.94-13.48h2.22l2.3,6.52
			c0.56,1.66,1.02,3.14,1.36,4.54h0.06c0.34-1.36,0.82-2.84,1.42-4.54l2.4-6.52h2.22l0.84,13.48h-1.7L60.29,257.28z"/>
		<path class="st1" d="M76.53,256.32c0,4.64-2.82,7.1-6.26,7.1c-3.56,0-6.06-2.76-6.06-6.84c0-4.28,2.66-7.08,6.26-7.08
			C74.15,249.5,76.53,252.32,76.53,256.32z M66.07,256.54c0,2.88,1.56,5.46,4.3,5.46c2.76,0,4.32-2.54,4.32-5.6
			c0-2.68-1.4-5.48-4.3-5.48C67.51,250.92,66.07,253.58,66.07,256.54z"/>
		<path class="st1" d="M108.46,249.9c1.06-0.16,2.32-0.28,3.7-0.28c2.5,0,4.28,0.58,5.46,1.68c1.2,1.1,1.9,2.66,1.9,4.84
			c0,2.2-0.68,4-1.94,5.24c-1.26,1.26-3.34,1.94-5.96,1.94c-1.24,0-2.28-0.06-3.16-0.16V249.9z M110.21,261.82
			c0.44,0.08,1.08,0.1,1.76,0.1c3.72,0,5.74-2.08,5.74-5.72c0.02-3.18-1.78-5.2-5.46-5.2c-0.9,0-1.58,0.08-2.04,0.18V261.82z"/>
		<path class="st1" d="M128.77,256.88h-5.24v4.86h5.84v1.46h-7.58v-13.48h7.28v1.46h-5.54v4.26h5.24V256.88z"/>
		<path class="st1" d="M142.99,257.28c-0.1-1.88-0.22-4.14-0.2-5.82h-0.06c-0.46,1.58-1.02,3.26-1.7,5.12l-2.38,6.54h-1.32
			l-2.18-6.42c-0.64-1.9-1.18-3.64-1.56-5.24h-0.04c-0.04,1.68-0.14,3.94-0.26,5.96l-0.36,5.78h-1.66l0.94-13.48h2.22l2.3,6.52
			c0.56,1.66,1.02,3.14,1.36,4.54h0.06c0.34-1.36,0.82-2.84,1.42-4.54l2.4-6.52h2.22l0.84,13.48h-1.7L142.99,257.28z"/>
		<path class="st1" d="M159.23,256.32c0,4.64-2.82,7.1-6.26,7.1c-3.56,0-6.06-2.76-6.06-6.84c0-4.28,2.66-7.08,6.26-7.08
			C156.85,249.5,159.23,252.32,159.23,256.32z M148.76,256.54c0,2.88,1.56,5.46,4.3,5.46c2.76,0,4.32-2.54,4.32-5.6
			c0-2.68-1.4-5.48-4.3-5.48C150.2,250.92,148.76,253.58,148.76,256.54z"/>
		<path class="st1" d="M191.16,249.9c1.06-0.16,2.32-0.28,3.7-0.28c2.5,0,4.28,0.58,5.46,1.68c1.2,1.1,1.9,2.66,1.9,4.84
			c0,2.2-0.68,4-1.94,5.24c-1.26,1.26-3.34,1.94-5.96,1.94c-1.24,0-2.28-0.06-3.16-0.16V249.9z M192.9,261.82
			c0.44,0.08,1.08,0.1,1.76,0.1c3.72,0,5.74-2.08,5.74-5.72c0.02-3.18-1.78-5.2-5.46-5.2c-0.9,0-1.58,0.08-2.04,0.18V261.82z"/>
		<path class="st1" d="M211.46,256.88h-5.24v4.86h5.84v1.46h-7.58v-13.48h7.28v1.46h-5.54v4.26h5.24V256.88z"/>
		<path class="st1" d="M225.68,257.28c-0.1-1.88-0.22-4.14-0.2-5.82h-0.06c-0.46,1.58-1.02,3.26-1.7,5.12l-2.38,6.54h-1.32
			l-2.18-6.42c-0.64-1.9-1.18-3.64-1.56-5.24h-0.04c-0.04,1.68-0.14,3.94-0.26,5.96l-0.36,5.78h-1.66l0.94-13.48h2.22l2.3,6.52
			c0.56,1.66,1.02,3.14,1.36,4.54h0.06c0.34-1.36,0.82-2.84,1.42-4.54l2.4-6.52h2.22l0.84,13.48h-1.7L225.68,257.28z"/>
		<path class="st1" d="M241.92,256.32c0,4.64-2.82,7.1-6.26,7.1c-3.56,0-6.06-2.76-6.06-6.84c0-4.28,2.66-7.08,6.26-7.08
			C239.54,249.5,241.92,252.32,241.92,256.32z M231.46,256.54c0,2.88,1.56,5.46,4.3,5.46c2.76,0,4.32-2.54,4.32-5.6
			c0-2.68-1.4-5.48-4.3-5.48C232.9,250.92,231.46,253.58,231.46,256.54z"/>
		<path class="st1" d="M273.86,249.9c1.06-0.16,2.32-0.28,3.7-0.28c2.5,0,4.28,0.58,5.46,1.68c1.2,1.1,1.9,2.66,1.9,4.84
			c0,2.2-0.68,4-1.94,5.24c-1.26,1.26-3.34,1.94-5.96,1.94c-1.24,0-2.28-0.06-3.16-0.16V249.9z M275.6,261.82
			c0.44,0.08,1.08,0.1,1.76,0.1c3.72,0,5.74-2.08,5.74-5.72c0.02-3.18-1.78-5.2-5.46-5.2c-0.9,0-1.58,0.08-2.04,0.18V261.82z"/>
		<path class="st1" d="M294.16,256.88h-5.24v4.86h5.84v1.46h-7.58v-13.48h7.28v1.46h-5.54v4.26h5.24V256.88z"/>
		<path class="st1" d="M308.38,257.28c-0.1-1.88-0.22-4.14-0.2-5.82h-0.06c-0.46,1.58-1.02,3.26-1.7,5.12l-2.38,6.54h-1.32
			l-2.18-6.42c-0.64-1.9-1.18-3.64-1.56-5.24h-0.04c-0.04,1.68-0.14,3.94-0.26,5.96l-0.36,5.78h-1.66l0.94-13.48h2.22l2.3,6.52
			c0.56,1.66,1.02,3.14,1.36,4.54h0.06c0.34-1.36,0.82-2.84,1.42-4.54l2.4-6.52h2.22l0.84,13.48h-1.7L308.38,257.28z"/>
		<path class="st1" d="M324.62,256.32c0,4.64-2.82,7.1-6.26,7.1c-3.56,0-6.06-2.76-6.06-6.84c0-4.28,2.66-7.08,6.26-7.08
			C322.24,249.5,324.62,252.32,324.62,256.32z M314.16,256.54c0,2.88,1.56,5.46,4.3,5.46c2.76,0,4.32-2.54,4.32-5.6
			c0-2.68-1.4-5.48-4.3-5.48C315.6,250.92,314.16,253.58,314.16,256.54z"/>
		<path class="st1" d="M356.56,249.9c1.06-0.16,2.32-0.28,3.7-0.28c2.5,0,4.28,0.58,5.46,1.68c1.2,1.1,1.9,2.66,1.9,4.84
			c0,2.2-0.68,4-1.94,5.24c-1.26,1.26-3.34,1.94-5.96,1.94c-1.24,0-2.28-0.06-3.16-0.16V249.9z M358.3,261.82
			c0.44,0.08,1.08,0.1,1.76,0.1c3.72,0,5.74-2.08,5.74-5.72c0.02-3.18-1.78-5.2-5.46-5.2c-0.9,0-1.58,0.08-2.04,0.18V261.82z"/>
		<path class="st1" d="M376.86,256.88h-5.24v4.86h5.84v1.46h-7.58v-13.48h7.28v1.46h-5.54v4.26h5.24V256.88z"/>
		<path class="st1" d="M391.08,257.28c-0.1-1.88-0.22-4.14-0.2-5.82h-0.06c-0.46,1.58-1.02,3.26-1.7,5.12l-2.38,6.54h-1.32
			l-2.18-6.42c-0.64-1.9-1.18-3.64-1.56-5.24h-0.04c-0.04,1.68-0.14,3.94-0.26,5.96l-0.36,5.78h-1.66l0.94-13.48h2.22l2.3,6.52
			c0.56,1.66,1.02,3.14,1.36,4.54h0.06c0.34-1.36,0.82-2.84,1.42-4.54l2.4-6.52h2.22l0.84,13.48h-1.7L391.08,257.28z"/>
		<path class="st1" d="M407.32,256.32c0,4.64-2.82,7.1-6.26,7.1c-3.56,0-6.06-2.76-6.06-6.84c0-4.28,2.66-7.08,6.26-7.08
			C404.94,249.5,407.32,252.32,407.32,256.32z M396.86,256.54c0,2.88,1.56,5.46,4.3,5.46c2.76,0,4.32-2.54,4.32-5.6
			c0-2.68-1.4-5.48-4.3-5.48C398.3,250.92,396.86,253.58,396.86,256.54z"/>
		<path class="st1" d="M439.26,249.9c1.06-0.16,2.32-0.28,3.7-0.28c2.5,0,4.28,0.58,5.46,1.68c1.2,1.1,1.9,2.66,1.9,4.84
			c0,2.2-0.68,4-1.94,5.24c-1.26,1.26-3.34,1.94-5.96,1.94c-1.24,0-2.28-0.06-3.16-0.16V249.9z M441,261.82
			c0.44,0.08,1.08,0.1,1.76,0.1c3.72,0,5.74-2.08,5.74-5.72c0.02-3.18-1.78-5.2-5.46-5.2c-0.9,0-1.58,0.08-2.04,0.18V261.82z"/>
		<path class="st1" d="M459.56,256.88h-5.24v4.86h5.84v1.46h-7.58v-13.48h7.28v1.46h-5.54v4.26h5.24V256.88z"/>
		<path class="st1" d="M473.79,257.28c-0.1-1.88-0.22-4.14-0.2-5.82h-0.06c-0.46,1.58-1.02,3.26-1.7,5.12l-2.38,6.54h-1.32
			l-2.18-6.42c-0.64-1.9-1.18-3.64-1.56-5.24h-0.04c-0.04,1.68-0.14,3.94-0.26,5.96l-0.36,5.78h-1.66l0.94-13.48h2.22l2.3,6.52
			c0.56,1.66,1.02,3.14,1.36,4.54h0.06c0.34-1.36,0.82-2.84,1.42-4.54l2.4-6.52h2.22l0.84,13.48h-1.7L473.79,257.28z"/>
		<path class="st1" d="M490.03,256.32c0,4.64-2.82,7.1-6.26,7.1c-3.56,0-6.06-2.76-6.06-6.84c0-4.28,2.66-7.08,6.26-7.08
			C487.64,249.5,490.03,252.32,490.03,256.32z M479.56,256.54c0,2.88,1.56,5.46,4.3,5.46c2.76,0,4.32-2.54,4.32-5.6
			c0-2.68-1.4-5.48-4.3-5.48C481,250.92,479.56,253.58,479.56,256.54z"/>
		<path class="st1" d="M25.77,287.9c1.06-0.16,2.32-0.28,3.7-0.28c2.5,0,4.28,0.58,5.46,1.68c1.2,1.1,1.9,2.66,1.9,4.84
			c0,2.2-0.68,4-1.94,5.24c-1.26,1.26-3.34,1.94-5.96,1.94c-1.24,0-2.28-0.06-3.16-0.16V287.9z M27.51,299.82
			c0.44,0.08,1.08,0.1,1.76,0.1c3.72,0,5.74-2.08,5.74-5.72c0.02-3.18-1.78-5.2-5.46-5.2c-0.9,0-1.58,0.08-2.04,0.18V299.82z"/>
		<path class="st1" d="M46.07,294.88h-5.24v4.86h5.84v1.46h-7.58v-13.48h7.28v1.46h-5.54v4.26h5.24V294.88z"/>
		<path class="st1" d="M60.29,295.28c-0.1-1.88-0.22-4.14-0.2-5.82h-0.06c-0.46,1.58-1.02,3.26-1.7,5.12l-2.38,6.54h-1.32
			l-2.18-6.42c-0.64-1.9-1.18-3.64-1.56-5.24h-0.04c-0.04,1.68-0.14,3.94-0.26,5.96l-0.36,5.78h-1.66l0.94-13.48h2.22l2.3,6.52
			c0.56,1.66,1.02,3.14,1.36,4.54h0.06c0.34-1.36,0.82-2.84,1.42-4.54l2.4-6.52h2.22l0.84,13.48h-1.7L60.29,295.28z"/>
		<path class="st1" d="M76.53,294.32c0,4.64-2.82,7.1-6.26,7.1c-3.56,0-6.06-2.76-6.06-6.84c0-4.28,2.66-7.08,6.26-7.08
			C74.15,287.5,76.53,290.32,76.53,294.32z M66.07,294.54c0,2.88,1.56,5.46,4.3,5.46c2.76,0,4.32-2.54,4.32-5.6
			c0-2.68-1.4-5.48-4.3-5.48C67.51,288.92,66.07,291.58,66.07,294.54z"/>
		<path class="st1" d="M108.46,287.9c1.06-0.16,2.32-0.28,3.7-0.28c2.5,0,4.28,0.58,5.46,1.68c1.2,1.1,1.9,2.66,1.9,4.84
			c0,2.2-0.68,4-1.94,5.24c-1.26,1.26-3.34,1.94-5.96,1.94c-1.24,0-2.28-0.06-3.16-0.16V287.9z M110.21,299.82
			c0.44,0.08,1.08,0.1,1.76,0.1c3.72,0,5.74-2.08,5.74-5.72c0.02-3.18-1.78-5.2-5.46-5.2c-0.9,0-1.58,0.08-2.04,0.18V299.82z"/>
		<path class="st1" d="M128.77,294.88h-5.24v4.86h5.84v1.46h-7.58v-13.48h7.28v1.46h-5.54v4.26h5.24V294.88z"/>
		<path class="st1" d="M142.99,295.28c-0.1-1.88-0.22-4.14-0.2-5.82h-0.06c-0.46,1.58-1.02,3.26-1.7,5.12l-2.38,6.54h-1.32
			l-2.18-6.42c-0.64-1.9-1.18-3.64-1.56-5.24h-0.04c-0.04,1.68-0.14,3.94-0.26,5.96l-0.36,5.78h-1.66l0.94-13.48h2.22l2.3,6.52
			c0.56,1.66,1.02,3.14,1.36,4.54h0.06c0.34-1.36,0.82-2.84,1.42-4.54l2.4-6.52h2.22l0.84,13.48h-1.7L142.99,295.28z"/>
		<path class="st1" d="M159.23,294.32c0,4.64-2.82,7.1-6.26,7.1c-3.56,0-6.06-2.76-6.06-6.84c0-4.28,2.66-7.08,6.26-7.08
			C156.85,287.5,159.23,290.32,159.23,294.32z M148.76,294.54c0,2.88,1.56,5.46,4.3,5.46c2.76,0,4.32-2.54,4.32-5.6
			c0-2.68-1.4-5.48-4.3-5.48C150.2,288.92,148.76,291.58,148.76,294.54z"/>
		<path class="st1" d="M191.16,287.9c1.06-0.16,2.32-0.28,3.7-0.28c2.5,0,4.28,0.58,5.46,1.68c1.2,1.1,1.9,2.66,1.9,4.84
			c0,2.2-0.68,4-1.94,5.24c-1.26,1.26-3.34,1.94-5.96,1.94c-1.24,0-2.28-0.06-3.16-0.16V287.9z M192.9,299.82
			c0.44,0.08,1.08,0.1,1.76,0.1c3.72,0,5.74-2.08,5.74-5.72c0.02-3.18-1.78-5.2-5.46-5.2c-0.9,0-1.58,0.08-2.04,0.18V299.82z"/>
		<path class="st1" d="M211.46,294.88h-5.24v4.86h5.84v1.46h-7.58v-13.48h7.28v1.46h-5.54v4.26h5.24V294.88z"/>
		<path class="st1" d="M225.68,295.28c-0.1-1.88-0.22-4.14-0.2-5.82h-0.06c-0.46,1.58-1.02,3.26-1.7,5.12l-2.38,6.54h-1.32
			l-2.18-6.42c-0.64-1.9-1.18-3.64-1.56-5.24h-0.04c-0.04,1.68-0.14,3.94-0.26,5.96l-0.36,5.78h-1.66l0.94-13.48h2.22l2.3,6.52
			c0.56,1.66,1.02,3.14,1.36,4.54h0.06c0.34-1.36,0.82-2.84,1.42-4.54l2.4-6.52h2.22l0.84,13.48h-1.7L225.68,295.28z"/>
		<path class="st1" d="M241.92,294.32c0,4.64-2.82,7.1-6.26,7.1c-3.56,0-6.06-2.76-6.06-6.84c0-4.28,2.66-7.08,6.26-7.08
			C239.54,287.5,241.92,290.32,241.92,294.32z M231.46,294.54c0,2.88,1.56,5.46,4.3,5.46c2.76,0,4.32-2.54,4.32-5.6
			c0-2.68-1.4-5.48-4.3-5.48C232.9,288.92,231.46,291.58,231.46,294.54z"/>
		<path class="st1" d="M273.86,287.9c1.06-0.16,2.32-0.28,3.7-0.28c2.5,0,4.28,0.58,5.46,1.68c1.2,1.1,1.9,2.66,1.9,4.84
			c0,2.2-0.68,4-1.94,5.24c-1.26,1.26-3.34,1.94-5.96,1.94c-1.24,0-2.28-0.06-3.16-0.16V287.9z M275.6,299.82
			c0.44,0.08,1.08,0.1,1.76,0.1c3.72,0,5.74-2.08,5.74-5.72c0.02-3.18-1.78-5.2-5.46-5.2c-0.9,0-1.58,0.08-2.04,0.18V299.82z"/>
		<path class="st1" d="M294.16,294.88h-5.24v4.86h5.84v1.46h-7.58v-13.48h7.28v1.46h-5.54v4.26h5.24V294.88z"/>
		<path class="st1" d="M308.38,295.28c-0.1-1.88-0.22-4.14-0.2-5.82h-0.06c-0.46,1.58-1.02,3.26-1.7,5.12l-2.38,6.54h-1.32
			l-2.18-6.42c-0.64-1.9-1.18-3.64-1.56-5.24h-0.04c-0.04,1.68-0.14,3.94-0.26,5.96l-0.36,5.78h-1.66l0.94-13.48h2.22l2.3,6.52
			c0.56,1.66,1.02,3.14,1.36,4.54h0.06c0.34-1.36,0.82-2.84,1.42-4.54l2.4-6.52h2.22l0.84,13.48h-1.7L308.38,295.28z"/>
		<path class="st1" d="M324.62,294.32c0,4.64-2.82,7.1-6.26,7.1c-3.56,0-6.06-2.76-6.06-6.84c0-4.28,2.66-7.08,6.26-7.08
			C322.24,287.5,324.62,290.32,324.62,294.32z M314.16,294.54c0,2.88,1.56,5.46,4.3,5.46c2.76,0,4.32-2.54,4.32-5.6
			c0-2.68-1.4-5.48-4.3-5.48C315.6,288.92,314.16,291.58,314.16,294.54z"/>
		<path class="st1" d="M356.56,287.9c1.06-0.16,2.32-0.28,3.7-0.28c2.5,0,4.28,0.58,5.46,1.68c1.2,1.1,1.9,2.66,1.9,4.84
			c0,2.2-0.68,4-1.94,5.24c-1.26,1.26-3.34,1.94-5.96,1.94c-1.24,0-2.28-0.06-3.16-0.16V287.9z M358.3,299.82
			c0.44,0.08,1.08,0.1,1.76,0.1c3.72,0,5.74-2.08,5.74-5.72c0.02-3.18-1.78-5.2-5.46-5.2c-0.9,0-1.58,0.08-2.04,0.18V299.82z"/>
		<path class="st1" d="M376.86,294.88h-5.24v4.86h5.84v1.46h-7.58v-13.48h7.28v1.46h-5.54v4.26h5.24V294.88z"/>
		<path class="st1" d="M391.08,295.28c-0.1-1.88-0.22-4.14-0.2-5.82h-0.06c-0.46,1.58-1.02,3.26-1.7,5.12l-2.38,6.54h-1.32
			l-2.18-6.42c-0.64-1.9-1.18-3.64-1.56-5.24h-0.04c-0.04,1.68-0.14,3.94-0.26,5.96l-0.36,5.78h-1.66l0.94-13.48h2.22l2.3,6.52
			c0.56,1.66,1.02,3.14,1.36,4.54h0.06c0.34-1.36,0.82-2.84,1.42-4.54l2.4-6.52h2.22l0.84,13.48h-1.7L391.08,295.28z"/>
		<path class="st1" d="M407.32,294.32c0,4.64-2.82,7.1-6.26,7.1c-3.56,0-6.06-2.76-6.06-6.84c0-4.28,2.66-7.08,6.26-7.08
			C404.94,287.5,407.32,290.32,407.32,294.32z M396.86,294.54c0,2.88,1.56,5.46,4.3,5.46c2.76,0,4.32-2.54,4.32-5.6
			c0-2.68-1.4-5.48-4.3-5.48C398.3,288.92,396.86,291.58,396.86,294.54z"/>
		<path class="st1" d="M439.26,287.9c1.06-0.16,2.32-0.28,3.7-0.28c2.5,0,4.28,0.58,5.46,1.68c1.2,1.1,1.9,2.66,1.9,4.84
			c0,2.2-0.68,4-1.94,5.24c-1.26,1.26-3.34,1.94-5.96,1.94c-1.24,0-2.28-0.06-3.16-0.16V287.9z M441,299.82
			c0.44,0.08,1.08,0.1,1.76,0.1c3.72,0,5.74-2.08,5.74-5.72c0.02-3.18-1.78-5.2-5.46-5.2c-0.9,0-1.58,0.08-2.04,0.18V299.82z"/>
		<path class="st1" d="M459.56,294.88h-5.24v4.86h5.84v1.46h-7.58v-13.48h7.28v1.46h-5.54v4.26h5.24V294.88z"/>
		<path class="st1" d="M473.79,295.28c-0.1-1.88-0.22-4.14-0.2-5.82h-0.06c-0.46,1.58-1.02,3.26-1.7,5.12l-2.38,6.54h-1.32
			l-2.18-6.42c-0.64-1.9-1.18-3.64-1.56-5.24h-0.04c-0.04,1.68-0.14,3.94-0.26,5.96l-0.36,5.78h-1.66l0.94-13.48h2.22l2.3,6.52
			c0.56,1.66,1.02,3.14,1.36,4.54h0.06c0.34-1.36,0.82-2.84,1.42-4.54l2.4-6.52h2.22l0.84,13.48h-1.7L473.79,295.28z"/>
		<path class="st1" d="M490.03,294.32c0,4.64-2.82,7.1-6.26,7.1c-3.56,0-6.06-2.76-6.06-6.84c0-4.28,2.66-7.08,6.26-7.08
			C487.64,287.5,490.03,290.32,490.03,294.32z M479.56,294.54c0,2.88,1.56,5.46,4.3,5.46c2.76,0,4.32-2.54,4.32-5.6
			c0-2.68-1.4-5.48-4.3-5.48C481,288.92,479.56,291.58,479.56,294.54z"/>
		<path class="st1" d="M25.77,325.9c1.06-0.16,2.32-0.28,3.7-0.28c2.5,0,4.28,0.58,5.46,1.68c1.2,1.1,1.9,2.66,1.9,4.84
			c0,2.2-0.68,4-1.94,5.24c-1.26,1.26-3.34,1.94-5.96,1.94c-1.24,0-2.28-0.06-3.16-0.16V325.9z M27.51,337.82
			c0.44,0.08,1.08,0.1,1.76,0.1c3.72,0,5.74-2.08,5.74-5.72c0.02-3.18-1.78-5.2-5.46-5.2c-0.9,0-1.58,0.08-2.04,0.18V337.82z"/>
		<path class="st1" d="M46.07,332.88h-5.24v4.86h5.84v1.46h-7.58v-13.48h7.28v1.46h-5.54v4.26h5.24V332.88z"/>
		<path class="st1" d="M60.29,333.28c-0.1-1.88-0.22-4.14-0.2-5.82h-0.06c-0.46,1.58-1.02,3.26-1.7,5.12l-2.38,6.54h-1.32
			l-2.18-6.42c-0.64-1.9-1.18-3.64-1.56-5.24h-0.04c-0.04,1.68-0.14,3.94-0.26,5.96l-0.36,5.78h-1.66l0.94-13.48h2.22l2.3,6.52
			c0.56,1.66,1.02,3.14,1.36,4.54h0.06c0.34-1.36,0.82-2.84,1.42-4.54l2.4-6.52h2.22l0.84,13.48h-1.7L60.29,333.28z"/>
		<path class="st1" d="M76.53,332.32c0,4.64-2.82,7.1-6.26,7.1c-3.56,0-6.06-2.76-6.06-6.84c0-4.28,2.66-7.08,6.26-7.08
			C74.15,325.5,76.53,328.32,76.53,332.32z M66.07,332.54c0,2.88,1.56,5.46,4.3,5.46c2.76,0,4.32-2.54,4.32-5.6
			c0-2.68-1.4-5.48-4.3-5.48C67.51,326.92,66.07,329.58,66.07,332.54z"/>
		<path class="st1" d="M108.46,325.9c1.06-0.16,2.32-0.28,3.7-0.28c2.5,0,4.28,0.58,5.46,1.68c1.2,1.1,1.9,2.66,1.9,4.84
			c0,2.2-0.68,4-1.94,5.24c-1.26,1.26-3.34,1.94-5.96,1.94c-1.24,0-2.28-0.06-3.16-0.16V325.9z M110.21,337.82
			c0.44,0.08,1.08,0.1,1.76,0.1c3.72,0,5.74-2.08,5.74-5.72c0.02-3.18-1.78-5.2-5.46-5.2c-0.9,0-1.58,0.08-2.04,0.18V337.82z"/>
		<path class="st1" d="M128.77,332.88h-5.24v4.86h5.84v1.46h-7.58v-13.48h7.28v1.46h-5.54v4.26h5.24V332.88z"/>
		<path class="st1" d="M142.99,333.28c-0.1-1.88-0.22-4.14-0.2-5.82h-0.06c-0.46,1.58-1.02,3.26-1.7,5.12l-2.38,6.54h-1.32
			l-2.18-6.42c-0.64-1.9-1.18-3.64-1.56-5.24h-0.04c-0.04,1.68-0.14,3.94-0.26,5.96l-0.36,5.78h-1.66l0.94-13.48h2.22l2.3,6.52
			c0.56,1.66,1.02,3.14,1.36,4.54h0.06c0.34-1.36,0.82-2.84,1.42-4.54l2.4-6.52h2.22l0.84,13.48h-1.7L142.99,333.28z"/>
		<path class="st1" d="M159.23,332.32c0,4.64-2.82,7.1-6.26,7.1c-3.56,0-6.06-2.76-6.06-6.84c0-4.28,2.66-7.08,6.26-7.08
			C156.85,325.5,159.23,328.32,159.23,332.32z M148.76,332.54c0,2.88,1.56,5.46,4.3,5.46c2.76,0,4.32-2.54,4.32-5.6
			c0-2.68-1.4-5.48-4.3-5.48C150.2,326.92,148.76,329.58,148.76,332.54z"/>
		<path class="st1" d="M191.16,325.9c1.06-0.16,2.32-0.28,3.7-0.28c2.5,0,4.28,0.58,5.46,1.68c1.2,1.1,1.9,2.66,1.9,4.84
			c0,2.2-0.68,4-1.94,5.24c-1.26,1.26-3.34,1.94-5.96,1.94c-1.24,0-2.28-0.06-3.16-0.16V325.9z M192.9,337.82
			c0.44,0.08,1.08,0.1,1.76,0.1c3.72,0,5.74-2.08,5.74-5.72c0.02-3.18-1.78-5.2-5.46-5.2c-0.9,0-1.58,0.08-2.04,0.18V337.82z"/>
		<path class="st1" d="M211.46,332.88h-5.24v4.86h5.84v1.46h-7.58v-13.48h7.28v1.46h-5.54v4.26h5.24V332.88z"/>
		<path class="st1" d="M225.68,333.28c-0.1-1.88-0.22-4.14-0.2-5.82h-0.06c-0.46,1.58-1.02,3.26-1.7,5.12l-2.38,6.54h-1.32
			l-2.18-6.42c-0.64-1.9-1.18-3.64-1.56-5.24h-0.04c-0.04,1.68-0.14,3.94-0.26,5.96l-0.36,5.78h-1.66l0.94-13.48h2.22l2.3,6.52
			c0.56,1.66,1.02,3.14,1.36,4.54h0.06c0.34-1.36,0.82-2.84,1.42-4.54l2.4-6.52h2.22l0.84,13.48h-1.7L225.68,333.28z"/>
		<path class="st1" d="M241.92,332.32c0,4.64-2.82,7.1-6.26,7.1c-3.56,0-6.06-2.76-6.06-6.84c0-4.28,2.66-7.08,6.26-7.08
			C239.54,325.5,241.92,328.32,241.92,332.32z M231.46,332.54c0,2.88,1.56,5.46,4.3,5.46c2.76,0,4.32-2.54,4.32-5.6
			c0-2.68-1.4-5.48-4.3-5.48C232.9,326.92,231.46,329.58,231.46,332.54z"/>
		<path class="st1" d="M273.86,325.9c1.06-0.16,2.32-0.28,3.7-0.28c2.5,0,4.28,0.58,5.46,1.68c1.2,1.1,1.9,2.66,1.9,4.84
			c0,2.2-0.68,4-1.94,5.24c-1.26,1.26-3.34,1.94-5.96,1.94c-1.24,0-2.28-0.06-3.16-0.16V325.9z M275.6,337.82
			c0.44,0.08,1.08,0.1,1.76,0.1c3.72,0,5.74-2.08,5.74-5.72c0.02-3.18-1.78-5.2-5.46-5.2c-0.9,0-1.58,0.08-2.04,0.18V337.82z"/>
		<path class="st1" d="M294.16,332.88h-5.24v4.86h5.84v1.46h-7.58v-13.48h7.28v1.46h-5.54v4.26h5.24V332.88z"/>
		<path class="st1" d="M308.38,333.28c-0.1-1.88-0.22-4.14-0.2-5.82h-0.06c-0.46,1.58-1.02,3.26-1.7,5.12l-2.38,6.54h-1.32
			l-2.18-6.42c-0.64-1.9-1.18-3.64-1.56-5.24h-0.04c-0.04,1.68-0.14,3.94-0.26,5.96l-0.36,5.78h-1.66l0.94-13.48h2.22l2.3,6.52
			c0.56,1.66,1.02,3.14,1.36,4.54h0.06c0.34-1.36,0.82-2.84,1.42-4.54l2.4-6.52h2.22l0.84,13.48h-1.7L308.38,333.28z"/>
		<path class="st1" d="M324.62,332.32c0,4.64-2.82,7.1-6.26,7.1c-3.56,0-6.06-2.76-6.06-6.84c0-4.28,2.66-7.08,6.26-7.08
			C322.24,325.5,324.62,328.32,324.62,332.32z M314.16,332.54c0,2.88,1.56,5.46,4.3,5.46c2.76,0,4.32-2.54,4.32-5.6
			c0-2.68-1.4-5.48-4.3-5.48C315.6,326.92,314.16,329.58,314.16,332.54z"/>
		<path class="st1" d="M356.56,325.9c1.06-0.16,2.32-0.28,3.7-0.28c2.5,0,4.28,0.58,5.46,1.68c1.2,1.1,1.9,2.66,1.9,4.84
			c0,2.2-0.68,4-1.94,5.24c-1.26,1.26-3.34,1.94-5.96,1.94c-1.24,0-2.28-0.06-3.16-0.16V325.9z M358.3,337.82
			c0.44,0.08,1.08,0.1,1.76,0.1c3.72,0,5.74-2.08,5.74-5.72c0.02-3.18-1.78-5.2-5.46-5.2c-0.9,0-1.58,0.08-2.04,0.18V337.82z"/>
		<path class="st1" d="M376.86,332.88h-5.24v4.86h5.84v1.46h-7.58v-13.48h7.28v1.46h-5.54v4.26h5.24V332.88z"/>
		<path class="st1" d="M391.08,333.28c-0.1-1.88-0.22-4.14-0.2-5.82h-0.06c-0.46,1.58-1.02,3.26-1.7,5.12l-2.38,6.54h-1.32
			l-2.18-6.42c-0.64-1.9-1.18-3.64-1.56-5.24h-0.04c-0.04,1.68-0.14,3.94-0.26,5.96l-0.36,5.78h-1.66l0.94-13.48h2.22l2.3,6.52
			c0.56,1.66,1.02,3.14,1.36,4.54h0.06c0.34-1.36,0.82-2.84,1.42-4.54l2.4-6.52h2.22l0.84,13.48h-1.7L391.08,333.28z"/>
		<path class="st1" d="M407.32,332.32c0,4.64-2.82,7.1-6.26,7.1c-3.56,0-6.06-2.76-6.06-6.84c0-4.28,2.66-7.08,6.26-7.08
			C404.94,325.5,407.32,328.32,407.32,332.32z M396.86,332.54c0,2.88,1.56,5.46,4.3,5.46c2.76,0,4.32-2.54,4.32-5.6
			c0-2.68-1.4-5.48-4.3-5.48C398.3,326.92,396.86,329.58,396.86,332.54z"/>
		<path class="st1" d="M439.26,325.9c1.06-0.16,2.32-0.28,3.7-0.28c2.5,0,4.28,0.58,5.46,1.68c1.2,1.1,1.9,2.66,1.9,4.84
			c0,2.2-0.68,4-1.94,5.24c-1.26,1.26-3.34,1.94-5.96,1.94c-1.24,0-2.28-0.06-3.16-0.16V325.9z M441,337.82
			c0.44,0.08,1.08,0.1,1.76,0.1c3.72,0,5.74-2.08,5.74-5.72c0.02-3.18-1.78-5.2-5.46-5.2c-0.9,0-1.58,0.08-2.04,0.18V337.82z"/>
		<path class="st1" d="M459.56,332.88h-5.24v4.86h5.84v1.46h-7.58v-13.48h7.28v1.46h-5.54v4.26h5.24V332.88z"/>
		<path class="st1" d="M473.79,333.28c-0.1-1.88-0.22-4.14-0.2-5.82h-0.06c-0.46,1.58-1.02,3.26-1.7,5.12l-2.38,6.54h-1.32
			l-2.18-6.42c-0.64-1.9-1.18-3.64-1.56-5.24h-0.04c-0.04,1.68-0.14,3.94-0.26,5.96l-0.36,5.78h-1.66l0.94-13.48h2.22l2.3,6.52
			c0.56,1.66,1.02,3.14,1.36,4.54h0.06c0.34-1.36,0.82-2.84,1.42-4.54l2.4-6.52h2.22l0.84,13.48h-1.7L473.79,333.28z"/>
		<path class="st1" d="M490.03,332.32c0,4.64-2.82,7.1-6.26,7.1c-3.56,0-6.06-2.76-6.06-6.84c0-4.28,2.66-7.08,6.26-7.08
			C487.64,325.5,490.03,328.32,490.03,332.32z M479.56,332.54c0,2.88,1.56,5.46,4.3,5.46c2.76,0,4.32-2.54,4.32-5.6
			c0-2.68-1.4-5.48-4.3-5.48C481,326.92,479.56,329.58,479.56,332.54z"/>
		<path class="st1" d="M25.77,363.9c1.06-0.16,2.32-0.28,3.7-0.28c2.5,0,4.28,0.58,5.46,1.68c1.2,1.1,1.9,2.66,1.9,4.84
			c0,2.2-0.68,4-1.94,5.24c-1.26,1.26-3.34,1.94-5.96,1.94c-1.24,0-2.28-0.06-3.16-0.16V363.9z M27.51,375.82
			c0.44,0.08,1.08,0.1,1.76,0.1c3.72,0,5.74-2.08,5.74-5.72c0.02-3.18-1.78-5.2-5.46-5.2c-0.9,0-1.58,0.08-2.04,0.18V375.82z"/>
		<path class="st1" d="M46.07,370.88h-5.24v4.86h5.84v1.46h-7.58v-13.48h7.28v1.46h-5.54v4.26h5.24V370.88z"/>
		<path class="st1" d="M60.29,371.28c-0.1-1.88-0.22-4.14-0.2-5.82h-0.06c-0.46,1.58-1.02,3.26-1.7,5.12l-2.38,6.54h-1.32
			l-2.18-6.42c-0.64-1.9-1.18-3.64-1.56-5.24h-0.04c-0.04,1.68-0.14,3.94-0.26,5.96l-0.36,5.78h-1.66l0.94-13.48h2.22l2.3,6.52
			c0.56,1.66,1.02,3.14,1.36,4.54h0.06c0.34-1.36,0.82-2.84,1.42-4.54l2.4-6.52h2.22l0.84,13.48h-1.7L60.29,371.28z"/>
		<path class="st1" d="M76.53,370.32c0,4.64-2.82,7.1-6.26,7.1c-3.56,0-6.06-2.76-6.06-6.84c0-4.28,2.66-7.08,6.26-7.08
			C74.15,363.5,76.53,366.32,76.53,370.32z M66.07,370.54c0,2.88,1.56,5.46,4.3,5.46c2.76,0,4.32-2.54,4.32-5.6
			c0-2.68-1.4-5.48-4.3-5.48C67.51,364.92,66.07,367.58,66.07,370.54z"/>
		<path class="st1" d="M108.46,363.9c1.06-0.16,2.32-0.28,3.7-0.28c2.5,0,4.28,0.58,5.46,1.68c1.2,1.1,1.9,2.66,1.9,4.84
			c0,2.2-0.68,4-1.94,5.24c-1.26,1.26-3.34,1.94-5.96,1.94c-1.24,0-2.28-0.06-3.16-0.16V363.9z M110.21,375.82
			c0.44,0.08,1.08,0.1,1.76,0.1c3.72,0,5.74-2.08,5.74-5.72c0.02-3.18-1.78-5.2-5.46-5.2c-0.9,0-1.58,0.08-2.04,0.18V375.82z"/>
		<path class="st1" d="M128.77,370.88h-5.24v4.86h5.84v1.46h-7.58v-13.48h7.28v1.46h-5.54v4.26h5.24V370.88z"/>
		<path class="st1" d="M142.99,371.28c-0.1-1.88-0.22-4.14-0.2-5.82h-0.06c-0.46,1.58-1.02,3.26-1.7,5.12l-2.38,6.54h-1.32
			l-2.18-6.42c-0.64-1.9-1.18-3.64-1.56-5.24h-0.04c-0.04,1.68-0.14,3.94-0.26,5.96l-0.36,5.78h-1.66l0.94-13.48h2.22l2.3,6.52
			c0.56,1.66,1.02,3.14,1.36,4.54h0.06c0.34-1.36,0.82-2.84,1.42-4.54l2.4-6.52h2.22l0.84,13.48h-1.7L142.99,371.28z"/>
		<path class="st1" d="M159.23,370.32c0,4.64-2.82,7.1-6.26,7.1c-3.56,0-6.06-2.76-6.06-6.84c0-4.28,2.66-7.08,6.26-7.08
			C156.85,363.5,159.23,366.32,159.23,370.32z M148.76,370.54c0,2.88,1.56,5.46,4.3,5.46c2.76,0,4.32-2.54,4.32-5.6
			c0-2.68-1.4-5.48-4.3-5.48C150.2,364.92,148.76,367.58,148.76,370.54z"/>
		<path class="st1" d="M191.16,363.9c1.06-0.16,2.32-0.28,3.7-0.28c2.5,0,4.28,0.58,5.46,1.68c1.2,1.1,1.9,2.66,1.9,4.84
			c0,2.2-0.68,4-1.94,5.24c-1.26,1.26-3.34,1.94-5.96,1.94c-1.24,0-2.28-0.06-3.16-0.16V363.9z M192.9,375.82
			c0.44,0.08,1.08,0.1,1.76,0.1c3.72,0,5.74-2.08,5.74-5.72c0.02-3.18-1.78-5.2-5.46-5.2c-0.9,0-1.58,0.08-2.04,0.18V375.82z"/>
		<path class="st1" d="M211.46,370.88h-5.24v4.86h5.84v1.46h-7.58v-13.48h7.28v1.46h-5.54v4.26h5.24V370.88z"/>
		<path class="st1" d="M225.68,371.28c-0.1-1.88-0.22-4.14-0.2-5.82h-0.06c-0.46,1.58-1.02,3.26-1.7,5.12l-2.38,6.54h-1.32
			l-2.18-6.42c-0.64-1.9-1.18-3.64-1.56-5.24h-0.04c-0.04,1.68-0.14,3.94-0.26,5.96l-0.36,5.78h-1.66l0.94-13.48h2.22l2.3,6.52
			c0.56,1.66,1.02,3.14,1.36,4.54h0.06c0.34-1.36,0.82-2.84,1.42-4.54l2.4-6.52h2.22l0.84,13.48h-1.7L225.68,371.28z"/>
		<path class="st1" d="M241.92,370.32c0,4.64-2.82,7.1-6.26,7.1c-3.56,0-6.06-2.76-6.06-6.84c0-4.28,2.66-7.08,6.26-7.08
			C239.54,363.5,241.92,366.32,241.92,370.32z M231.46,370.54c0,2.88,1.56,5.46,4.3,5.46c2.76,0,4.32-2.54,4.32-5.6
			c0-2.68-1.4-5.48-4.3-5.48C232.9,364.92,231.46,367.58,231.46,370.54z"/>
		<path class="st1" d="M273.86,363.9c1.06-0.16,2.32-0.28,3.7-0.28c2.5,0,4.28,0.58,5.46,1.68c1.2,1.1,1.9,2.66,1.9,4.84
			c0,2.2-0.68,4-1.94,5.24c-1.26,1.26-3.34,1.94-5.96,1.94c-1.24,0-2.28-0.06-3.16-0.16V363.9z M275.6,375.82
			c0.44,0.08,1.08,0.1,1.76,0.1c3.72,0,5.74-2.08,5.74-5.72c0.02-3.18-1.78-5.2-5.46-5.2c-0.9,0-1.58,0.08-2.04,0.18V375.82z"/>
		<path class="st1" d="M294.16,370.88h-5.24v4.86h5.84v1.46h-7.58v-13.48h7.28v1.46h-5.54v4.26h5.24V370.88z"/>
		<path class="st1" d="M308.38,371.28c-0.1-1.88-0.22-4.14-0.2-5.82h-0.06c-0.46,1.58-1.02,3.26-1.7,5.12l-2.38,6.54h-1.32
			l-2.18-6.42c-0.64-1.9-1.18-3.64-1.56-5.24h-0.04c-0.04,1.68-0.14,3.94-0.26,5.96l-0.36,5.78h-1.66l0.94-13.48h2.22l2.3,6.52
			c0.56,1.66,1.02,3.14,1.36,4.54h0.06c0.34-1.36,0.82-2.84,1.42-4.54l2.4-6.52h2.22l0.84,13.48h-1.7L308.38,371.28z"/>
		<path class="st1" d="M324.62,370.32c0,4.64-2.82,7.1-6.26,7.1c-3.56,0-6.06-2.76-6.06-6.84c0-4.28,2.66-7.08,6.26-7.08
			C322.24,363.5,324.62,366.32,324.62,370.32z M314.16,370.54c0,2.88,1.56,5.46,4.3,5.46c2.76,0,4.32-2.54,4.32-5.6
			c0-2.68-1.4-5.48-4.3-5.48C315.6,364.92,314.16,367.58,314.16,370.54z"/>
		<path class="st1" d="M356.56,363.9c1.06-0.16,2.32-0.28,3.7-0.28c2.5,0,4.28,0.58,5.46,1.68c1.2,1.1,1.9,2.66,1.9,4.84
			c0,2.2-0.68,4-1.94,5.24c-1.26,1.26-3.34,1.94-5.96,1.94c-1.24,0-2.28-0.06-3.16-0.16V363.9z M358.3,375.82
			c0.44,0.08,1.08,0.1,1.76,0.1c3.72,0,5.74-2.08,5.74-5.72c0.02-3.18-1.78-5.2-5.46-5.2c-0.9,0-1.58,0.08-2.04,0.18V375.82z"/>
		<path class="st1" d="M376.86,370.88h-5.24v4.86h5.84v1.46h-7.58v-13.48h7.28v1.46h-5.54v4.26h5.24V370.88z"/>
		<path class="st1" d="M391.08,371.28c-0.1-1.88-0.22-4.14-0.2-5.82h-0.06c-0.46,1.58-1.02,3.26-1.7,5.12l-2.38,6.54h-1.32
			l-2.18-6.42c-0.64-1.9-1.18-3.64-1.56-5.24h-0.04c-0.04,1.68-0.14,3.94-0.26,5.96l-0.36,5.78h-1.66l0.94-13.48h2.22l2.3,6.52
			c0.56,1.66,1.02,3.14,1.36,4.54h0.06c0.34-1.36,0.82-2.84,1.42-4.54l2.4-6.52h2.22l0.84,13.48h-1.7L391.08,371.28z"/>
		<path class="st1" d="M407.32,370.32c0,4.64-2.82,7.1-6.26,7.1c-3.56,0-6.06-2.76-6.06-6.84c0-4.28,2.66-7.08,6.26-7.08
			C404.94,363.5,407.32,366.32,407.32,370.32z M396.86,370.54c0,2.88,1.56,5.46,4.3,5.46c2.76,0,4.32-2.54,4.32-5.6
			c0-2.68-1.4-5.48-4.3-5.48C398.3,364.92,396.86,367.58,396.86,370.54z"/>
		<path class="st1" d="M439.26,363.9c1.06-0.16,2.32-0.28,3.7-0.28c2.5,0,4.28,0.58,5.46,1.68c1.2,1.1,1.9,2.66,1.9,4.84
			c0,2.2-0.68,4-1.94,5.24c-1.26,1.26-3.34,1.94-5.96,1.94c-1.24,0-2.28-0.06-3.16-0.16V363.9z M441,375.82
			c0.44,0.08,1.08,0.1,1.76,0.1c3.72,0,5.74-2.08,5.74-5.72c0.02-3.18-1.78-5.2-5.46-5.2c-0.9,0-1.58,0.08-2.04,0.18V375.82z"/>
		<path class="st1" d="M459.56,370.88h-5.24v4.86h5.84v1.46h-7.58v-13.48h7.28v1.46h-5.54v4.26h5.24V370.88z"/>
		<path class="st1" d="M473.79,371.28c-0.1-1.88-0.22-4.14-0.2-5.82h-0.06c-0.46,1.58-1.02,3.26-1.7,5.12l-2.38,6.54h-1.32
			l-2.18-6.42c-0.64-1.9-1.18-3.64-1.56-5.24h-0.04c-0.04,1.68-0.14,3.94-0.26,5.96l-0.36,5.78h-1.66l0.94-13.48h2.22l2.3,6.52
			c0.56,1.66,1.02,3.14,1.36,4.54h0.06c0.34-1.36,0.82-2.84,1.42-4.54l2.4-6.52h2.22l0.84,13.48h-1.7L473.79,371.28z"/>
		<path class="st1" d="M490.03,370.32c0,4.64-2.82,7.1-6.26,7.1c-3.56,0-6.06-2.76-6.06-6.84c0-4.28,2.66-7.08,6.26-7.08
			C487.64,363.5,490.03,366.32,490.03,370.32z M479.56,370.54c0,2.88,1.56,5.46,4.3,5.46c2.76,0,4.32-2.54,4.32-5.6
			c0-2.68-1.4-5.48-4.3-5.48C481,364.92,479.56,367.58,479.56,370.54z"/>
		<path class="st1" d="M25.77,401.9c1.06-0.16,2.32-0.28,3.7-0.28c2.5,0,4.28,0.58,5.46,1.68c1.2,1.1,1.9,2.66,1.9,4.84
			c0,2.2-0.68,4-1.94,5.24c-1.26,1.26-3.34,1.94-5.96,1.94c-1.24,0-2.28-0.06-3.16-0.16V401.9z M27.51,413.82
			c0.44,0.08,1.08,0.1,1.76,0.1c3.72,0,5.74-2.08,5.74-5.72c0.02-3.18-1.78-5.2-5.46-5.2c-0.9,0-1.58,0.08-2.04,0.18V413.82z"/>
		<path class="st1" d="M46.07,408.88h-5.24v4.86h5.84v1.46h-7.58v-13.48h7.28v1.46h-5.54v4.26h5.24V408.88z"/>
		<path class="st1" d="M60.29,409.28c-0.1-1.88-0.22-4.14-0.2-5.82h-0.06c-0.46,1.58-1.02,3.26-1.7,5.12l-2.38,6.54h-1.32
			l-2.18-6.42c-0.64-1.9-1.18-3.64-1.56-5.24h-0.04c-0.04,1.68-0.14,3.94-0.26,5.96l-0.36,5.78h-1.66l0.94-13.48h2.22l2.3,6.52
			c0.56,1.66,1.02,3.14,1.36,4.54h0.06c0.34-1.36,0.82-2.84,1.42-4.54l2.4-6.52h2.22l0.84,13.48h-1.7L60.29,409.28z"/>
		<path class="st1" d="M76.53,408.32c0,4.64-2.82,7.1-6.26,7.1c-3.56,0-6.06-2.76-6.06-6.84c0-4.28,2.66-7.08,6.26-7.08
			C74.15,401.5,76.53,404.32,76.53,408.32z M66.07,408.54c0,2.88,1.56,5.46,4.3,5.46c2.76,0,4.32-2.54,4.32-5.6
			c0-2.68-1.4-5.48-4.3-5.48C67.51,402.92,66.07,405.58,66.07,408.54z"/>
		<path class="st1" d="M108.46,401.9c1.06-0.16,2.32-0.28,3.7-0.28c2.5,0,4.28,0.58,5.46,1.68c1.2,1.1,1.9,2.66,1.9,4.84
			c0,2.2-0.68,4-1.94,5.24c-1.26,1.26-3.34,1.94-5.96,1.94c-1.24,0-2.28-0.06-3.16-0.16V401.9z M110.21,413.82
			c0.44,0.08,1.08,0.1,1.76,0.1c3.72,0,5.74-2.08,5.74-5.72c0.02-3.18-1.78-5.2-5.46-5.2c-0.9,0-1.58,0.08-2.04,0.18V413.82z"/>
		<path class="st1" d="M128.77,408.88h-5.24v4.86h5.84v1.46h-7.58v-13.48h7.28v1.46h-5.54v4.26h5.24V408.88z"/>
		<path class="st1" d="M142.99,409.28c-0.1-1.88-0.22-4.14-0.2-5.82h-0.06c-0.46,1.58-1.02,3.26-1.7,5.12l-2.38,6.54h-1.32
			l-2.18-6.42c-0.64-1.9-1.18-3.64-1.56-5.24h-0.04c-0.04,1.68-0.14,3.94-0.26,5.96l-0.36,5.78h-1.66l0.94-13.48h2.22l2.3,6.52
			c0.56,1.66,1.02,3.14,1.36,4.54h0.06c0.34-1.36,0.82-2.84,1.42-4.54l2.4-6.52h2.22l0.84,13.48h-1.7L142.99,409.28z"/>
		<path class="st1" d="M159.23,408.32c0,4.64-2.82,7.1-6.26,7.1c-3.56,0-6.06-2.76-6.06-6.84c0-4.28,2.66-7.08,6.26-7.08
			C156.85,401.5,159.23,404.32,159.23,408.32z M148.76,408.54c0,2.88,1.56,5.46,4.3,5.46c2.76,0,4.32-2.54,4.32-5.6
			c0-2.68-1.4-5.48-4.3-5.48C150.2,402.92,148.76,405.58,148.76,408.54z"/>
		<path class="st1" d="M191.16,401.9c1.06-0.16,2.32-0.28,3.7-0.28c2.5,0,4.28,0.58,5.46,1.68c1.2,1.1,1.9,2.66,1.9,4.84
			c0,2.2-0.68,4-1.94,5.24c-1.26,1.26-3.34,1.94-5.96,1.94c-1.24,0-2.28-0.06-3.16-0.16V401.9z M192.9,413.82
			c0.44,0.08,1.08,0.1,1.76,0.1c3.72,0,5.74-2.08,5.74-5.72c0.02-3.18-1.78-5.2-5.46-5.2c-0.9,0-1.58,0.08-2.04,0.18V413.82z"/>
		<path class="st1" d="M211.46,408.88h-5.24v4.86h5.84v1.46h-7.58v-13.48h7.28v1.46h-5.54v4.26h5.24V408.88z"/>
		<path class="st1" d="M225.68,409.28c-0.1-1.88-0.22-4.14-0.2-5.82h-0.06c-0.46,1.58-1.02,3.26-1.7,5.12l-2.38,6.54h-1.32
			l-2.18-6.42c-0.64-1.9-1.18-3.64-1.56-5.24h-0.04c-0.04,1.68-0.14,3.94-0.26,5.96l-0.36,5.78h-1.66l0.94-13.48h2.22l2.3,6.52
			c0.56,1.66,1.02,3.14,1.36,4.54h0.06c0.34-1.36,0.82-2.84,1.42-4.54l2.4-6.52h2.22l0.84,13.48h-1.7L225.68,409.28z"/>
		<path class="st1" d="M241.92,408.32c0,4.64-2.82,7.1-6.26,7.1c-3.56,0-6.06-2.76-6.06-6.84c0-4.28,2.66-7.08,6.26-7.08
			C239.54,401.5,241.92,404.32,241.92,408.32z M231.46,408.54c0,2.88,1.56,5.46,4.3,5.46c2.76,0,4.32-2.54,4.32-5.6
			c0-2.68-1.4-5.48-4.3-5.48C232.9,402.92,231.46,405.58,231.46,408.54z"/>
		<path class="st1" d="M273.86,401.9c1.06-0.16,2.32-0.28,3.7-0.28c2.5,0,4.28,0.58,5.46,1.68c1.2,1.1,1.9,2.66,1.9,4.84
			c0,2.2-0.68,4-1.94,5.24c-1.26,1.26-3.34,1.94-5.96,1.94c-1.24,0-2.28-0.06-3.16-0.16V401.9z M275.6,413.82
			c0.44,0.08,1.08,0.1,1.76,0.1c3.72,0,5.74-2.08,5.74-5.72c0.02-3.18-1.78-5.2-5.46-5.2c-0.9,0-1.58,0.08-2.04,0.18V413.82z"/>
		<path class="st1" d="M294.16,408.88h-5.24v4.86h5.84v1.46h-7.58v-13.48h7.28v1.46h-5.54v4.26h5.24V408.88z"/>
		<path class="st1" d="M308.38,409.28c-0.1-1.88-0.22-4.14-0.2-5.82h-0.06c-0.46,1.58-1.02,3.26-1.7,5.12l-2.38,6.54h-1.32
			l-2.18-6.42c-0.64-1.9-1.18-3.64-1.56-5.24h-0.04c-0.04,1.68-0.14,3.94-0.26,5.96l-0.36,5.78h-1.66l0.94-13.48h2.22l2.3,6.52
			c0.56,1.66,1.02,3.14,1.36,4.54h0.06c0.34-1.36,0.82-2.84,1.42-4.54l2.4-6.52h2.22l0.84,13.48h-1.7L308.38,409.28z"/>
		<path class="st1" d="M324.62,408.32c0,4.64-2.82,7.1-6.26,7.1c-3.56,0-6.06-2.76-6.06-6.84c0-4.28,2.66-7.08,6.26-7.08
			C322.24,401.5,324.62,404.32,324.62,408.32z M314.16,408.54c0,2.88,1.56,5.46,4.3,5.46c2.76,0,4.32-2.54,4.32-5.6
			c0-2.68-1.4-5.48-4.3-5.48C315.6,402.92,314.16,405.58,314.16,408.54z"/>
		<path class="st1" d="M356.56,401.9c1.06-0.16,2.32-0.28,3.7-0.28c2.5,0,4.28,0.58,5.46,1.68c1.2,1.1,1.9,2.66,1.9,4.84
			c0,2.2-0.68,4-1.94,5.24c-1.26,1.26-3.34,1.94-5.96,1.94c-1.24,0-2.28-0.06-3.16-0.16V401.9z M358.3,413.82
			c0.44,0.08,1.08,0.1,1.76,0.1c3.72,0,5.74-2.08,5.74-5.72c0.02-3.18-1.78-5.2-5.46-5.2c-0.9,0-1.58,0.08-2.04,0.18V413.82z"/>
		<path class="st1" d="M376.86,408.88h-5.24v4.86h5.84v1.46h-7.58v-13.48h7.28v1.46h-5.54v4.26h5.24V408.88z"/>
		<path class="st1" d="M391.08,409.28c-0.1-1.88-0.22-4.14-0.2-5.82h-0.06c-0.46,1.58-1.02,3.26-1.7,5.12l-2.38,6.54h-1.32
			l-2.18-6.42c-0.64-1.9-1.18-3.64-1.56-5.24h-0.04c-0.04,1.68-0.14,3.94-0.26,5.96l-0.36,5.78h-1.66l0.94-13.48h2.22l2.3,6.52
			c0.56,1.66,1.02,3.14,1.36,4.54h0.06c0.34-1.36,0.82-2.84,1.42-4.54l2.4-6.52h2.22l0.84,13.48h-1.7L391.08,409.28z"/>
		<path class="st1" d="M407.32,408.32c0,4.64-2.82,7.1-6.26,7.1c-3.56,0-6.06-2.76-6.06-6.84c0-4.28,2.66-7.08,6.26-7.08
			C404.94,401.5,407.32,404.32,407.32,408.32z M396.86,408.54c0,2.88,1.56,5.46,4.3,5.46c2.76,0,4.32-2.54,4.32-5.6
			c0-2.68-1.4-5.48-4.3-5.48C398.3,402.92,396.86,405.58,396.86,408.54z"/>
		<path class="st1" d="M439.26,401.9c1.06-0.16,2.32-0.28,3.7-0.28c2.5,0,4.28,0.58,5.46,1.68c1.2,1.1,1.9,2.66,1.9,4.84
			c0,2.2-0.68,4-1.94,5.24c-1.26,1.26-3.34,1.94-5.96,1.94c-1.24,0-2.28-0.06-3.16-0.16V401.9z M441,413.82
			c0.44,0.08,1.08,0.1,1.76,0.1c3.72,0,5.74-2.08,5.74-5.72c0.02-3.18-1.78-5.2-5.46-5.2c-0.9,0-1.58,0.08-2.04,0.18V413.82z"/>
		<path class="st1" d="M459.56,408.88h-5.24v4.86h5.84v1.46h-7.58v-13.48h7.28v1.46h-5.54v4.26h5.24V408.88z"/>
		<path class="st1" d="M473.79,409.28c-0.1-1.88-0.22-4.14-0.2-5.82h-0.06c-0.46,1.58-1.02,3.26-1.7,5.12l-2.38,6.54h-1.32
			l-2.18-6.42c-0.64-1.9-1.18-3.64-1.56-5.24h-0.04c-0.04,1.68-0.14,3.94-0.26,5.96l-0.36,5.78h-1.66l0.94-13.48h2.22l2.3,6.52
			c0.56,1.66,1.02,3.14,1.36,4.54h0.06c0.34-1.36,0.82-2.84,1.42-4.54l2.4-6.52h2.22l0.84,13.48h-1.7L473.79,409.28z"/>
		<path class="st1" d="M490.03,408.32c0,4.64-2.82,7.1-6.26,7.1c-3.56,0-6.06-2.76-6.06-6.84c0-4.28,2.66-7.08,6.26-7.08
			C487.64,401.5,490.03,404.32,490.03,408.32z M479.56,408.54c0,2.88,1.56,5.46,4.3,5.46c2.76,0,4.32-2.54,4.32-5.6
			c0-2.68-1.4-5.48-4.3-5.48C481,402.92,479.56,405.58,479.56,408.54z"/>
		<path class="st1" d="M108.46,439.9c1.06-0.16,2.32-0.28,3.7-0.28c2.5,0,4.28,0.58,5.46,1.68c1.2,1.1,1.9,2.66,1.9,4.84
			c0,2.2-0.68,4-1.94,5.24c-1.26,1.26-3.34,1.94-5.96,1.94c-1.24,0-2.28-0.06-3.16-0.16V439.9z M110.21,451.82
			c0.44,0.08,1.08,0.1,1.76,0.1c3.72,0,5.74-2.08,5.74-5.72c0.02-3.18-1.78-5.2-5.46-5.2c-0.9,0-1.58,0.08-2.04,0.18V451.82z"/>
		<path class="st1" d="M128.77,446.88h-5.24v4.86h5.84v1.46h-7.58v-13.48h7.28v1.46h-5.54v4.26h5.24V446.88z"/>
		<path class="st1" d="M142.99,447.28c-0.1-1.88-0.22-4.14-0.2-5.82h-0.06c-0.46,1.58-1.02,3.26-1.7,5.12l-2.38,6.54h-1.32
			l-2.18-6.42c-0.64-1.9-1.18-3.64-1.56-5.24h-0.04c-0.04,1.68-0.14,3.94-0.26,5.96l-0.36,5.78h-1.66l0.94-13.48h2.22l2.3,6.52
			c0.56,1.66,1.02,3.14,1.36,4.54h0.06c0.34-1.36,0.82-2.84,1.42-4.54l2.4-6.52h2.22l0.84,13.48h-1.7L142.99,447.28z"/>
		<path class="st1" d="M159.23,446.32c0,4.64-2.82,7.1-6.26,7.1c-3.56,0-6.06-2.76-6.06-6.84c0-4.28,2.66-7.08,6.26-7.08
			C156.85,439.5,159.23,442.32,159.23,446.32z M148.76,446.54c0,2.88,1.56,5.46,4.3,5.46c2.76,0,4.32-2.54,4.32-5.6
			c0-2.68-1.4-5.48-4.3-5.48C150.2,440.92,148.76,443.58,148.76,446.54z"/>
		<path class="st1" d="M191.16,439.9c1.06-0.16,2.32-0.28,3.7-0.28c2.5,0,4.28,0.58,5.46,1.68c1.2,1.1,1.9,2.66,1.9,4.84
			c0,2.2-0.68,4-1.94,5.24c-1.26,1.26-3.34,1.94-5.96,1.94c-1.24,0-2.28-0.06-3.16-0.16V439.9z M192.9,451.82
			c0.44,0.08,1.08,0.1,1.76,0.1c3.72,0,5.74-2.08,5.74-5.72c0.02-3.18-1.78-5.2-5.46-5.2c-0.9,0-1.58,0.08-2.04,0.18V451.82z"/>
		<path class="st1" d="M211.46,446.88h-5.24v4.86h5.84v1.46h-7.58v-13.48h7.28v1.46h-5.54v4.26h5.24V446.88z"/>
		<path class="st1" d="M225.68,447.28c-0.1-1.88-0.22-4.14-0.2-5.82h-0.06c-0.46,1.58-1.02,3.26-1.7,5.12l-2.38,6.54h-1.32
			l-2.18-6.42c-0.64-1.9-1.18-3.64-1.56-5.24h-0.04c-0.04,1.68-0.14,3.94-0.26,5.96l-0.36,5.78h-1.66l0.94-13.48h2.22l2.3,6.52
			c0.56,1.66,1.02,3.14,1.36,4.54h0.06c0.34-1.36,0.82-2.84,1.42-4.54l2.4-6.52h2.22l0.84,13.48h-1.7L225.68,447.28z"/>
		<path class="st1" d="M241.92,446.32c0,4.64-2.82,7.1-6.26,7.1c-3.56,0-6.06-2.76-6.06-6.84c0-4.28,2.66-7.08,6.26-7.08
			C239.54,439.5,241.92,442.32,241.92,446.32z M231.46,446.54c0,2.88,1.56,5.46,4.3,5.46c2.76,0,4.32-2.54,4.32-5.6
			c0-2.68-1.4-5.48-4.3-5.48C232.9,440.92,231.46,443.58,231.46,446.54z"/>
		<path class="st1" d="M273.86,439.9c1.06-0.16,2.32-0.28,3.7-0.28c2.5,0,4.28,0.58,5.46,1.68c1.2,1.1,1.9,2.66,1.9,4.84
			c0,2.2-0.68,4-1.94,5.24c-1.26,1.26-3.34,1.94-5.96,1.94c-1.24,0-2.28-0.06-3.16-0.16V439.9z M275.6,451.82
			c0.44,0.08,1.08,0.1,1.76,0.1c3.72,0,5.74-2.08,5.74-5.72c0.02-3.18-1.78-5.2-5.46-5.2c-0.9,0-1.58,0.08-2.04,0.18V451.82z"/>
		<path class="st1" d="M294.16,446.88h-5.24v4.86h5.84v1.46h-7.58v-13.48h7.28v1.46h-5.54v4.26h5.24V446.88z"/>
		<path class="st1" d="M308.38,447.28c-0.1-1.88-0.22-4.14-0.2-5.82h-0.06c-0.46,1.58-1.02,3.26-1.7,5.12l-2.38,6.54h-1.32
			l-2.18-6.42c-0.64-1.9-1.18-3.64-1.56-5.24h-0.04c-0.04,1.68-0.14,3.94-0.26,5.96l-0.36,5.78h-1.66l0.94-13.48h2.22l2.3,6.52
			c0.56,1.66,1.02,3.14,1.36,4.54h0.06c0.34-1.36,0.82-2.84,1.42-4.54l2.4-6.52h2.22l0.84,13.48h-1.7L308.38,447.28z"/>
		<path class="st1" d="M324.62,446.32c0,4.64-2.82,7.1-6.26,7.1c-3.56,0-6.06-2.76-6.06-6.84c0-4.28,2.66-7.08,6.26-7.08
			C322.24,439.5,324.62,442.32,324.62,446.32z M314.16,446.54c0,2.88,1.56,5.46,4.3,5.46c2.76,0,4.32-2.54,4.32-5.6
			c0-2.68-1.4-5.48-4.3-5.48C315.6,440.92,314.16,443.58,314.16,446.54z"/>
		<path class="st1" d="M356.56,439.9c1.06-0.16,2.32-0.28,3.7-0.28c2.5,0,4.28,0.58,5.46,1.68c1.2,1.1,1.9,2.66,1.9,4.84
			c0,2.2-0.68,4-1.94,5.24c-1.26,1.26-3.34,1.94-5.96,1.94c-1.24,0-2.28-0.06-3.16-0.16V439.9z M358.3,451.82
			c0.44,0.08,1.08,0.1,1.76,0.1c3.72,0,5.74-2.08,5.74-5.72c0.02-3.18-1.78-5.2-5.46-5.2c-0.9,0-1.58,0.08-2.04,0.18V451.82z"/>
		<path class="st1" d="M376.86,446.88h-5.24v4.86h5.84v1.46h-7.58v-13.48h7.28v1.46h-5.54v4.26h5.24V446.88z"/>
		<path class="st1" d="M391.08,447.28c-0.1-1.88-0.22-4.14-0.2-5.82h-0.06c-0.46,1.58-1.02,3.26-1.7,5.12l-2.38,6.54h-1.32
			l-2.18-6.42c-0.64-1.9-1.18-3.64-1.56-5.24h-0.04c-0.04,1.68-0.14,3.94-0.26,5.96l-0.36,5.78h-1.66l0.94-13.48h2.22l2.3,6.52
			c0.56,1.66,1.02,3.14,1.36,4.54h0.06c0.34-1.36,0.82-2.84,1.42-4.54l2.4-6.52h2.22l0.84,13.48h-1.7L391.08,447.28z"/>
		<path class="st1" d="M407.32,446.32c0,4.64-2.82,7.1-6.26,7.1c-3.56,0-6.06-2.76-6.06-6.84c0-4.28,2.66-7.08,6.26-7.08
			C404.94,439.5,407.32,442.32,407.32,446.32z M396.86,446.54c0,2.88,1.56,5.46,4.3,5.46c2.76,0,4.32-2.54,4.32-5.6
			c0-2.68-1.4-5.48-4.3-5.48C398.3,440.92,396.86,443.58,396.86,446.54z"/>
		<path class="st1" d="M191.16,477.9c1.06-0.16,2.32-0.28,3.7-0.28c2.5,0,4.28,0.58,5.46,1.68c1.2,1.1,1.9,2.66,1.9,4.84
			c0,2.2-0.68,4-1.94,5.24c-1.26,1.26-3.34,1.94-5.96,1.94c-1.24,0-2.28-0.06-3.16-0.16V477.9z M192.9,489.82
			c0.44,0.08,1.08,0.1,1.76,0.1c3.72,0,5.74-2.08,5.74-5.72c0.02-3.18-1.78-5.2-5.46-5.2c-0.9,0-1.58,0.08-2.04,0.18V489.82z"/>
		<path class="st1" d="M211.46,484.88h-5.24v4.86h5.84v1.46h-7.58v-13.48h7.28v1.46h-5.54v4.26h5.24V484.88z"/>
		<path class="st1" d="M225.68,485.28c-0.1-1.88-0.22-4.14-0.2-5.82h-0.06c-0.46,1.58-1.02,3.26-1.7,5.12l-2.38,6.54h-1.32
			l-2.18-6.42c-0.64-1.9-1.18-3.64-1.56-5.24h-0.04c-0.04,1.68-0.14,3.94-0.26,5.96l-0.36,5.78h-1.66l0.94-13.48h2.22l2.3,6.52
			c0.56,1.66,1.02,3.14,1.36,4.54h0.06c0.34-1.36,0.82-2.84,1.42-4.54l2.4-6.52h2.22l0.84,13.48h-1.7L225.68,485.28z"/>
		<path class="st1" d="M241.92,484.32c0,4.64-2.82,7.1-6.26,7.1c-3.56,0-6.06-2.76-6.06-6.84c0-4.28,2.66-7.08,6.26-7.08
			C239.54,477.5,241.92,480.32,241.92,484.32z M231.46,484.54c0,2.88,1.56,5.46,4.3,5.46c2.76,0,4.32-2.54,4.32-5.6
			c0-2.68-1.4-5.48-4.3-5.48C232.9,478.92,231.46,481.58,231.46,484.54z"/>
		<path class="st1" d="M273.86,477.9c1.06-0.16,2.32-0.28,3.7-0.28c2.5,0,4.28,0.58,5.46,1.68c1.2,1.1,1.9,2.66,1.9,4.84
			c0,2.2-0.68,4-1.94,5.24c-1.26,1.26-3.34,1.94-5.96,1.94c-1.24,0-2.28-0.06-3.16-0.16V477.9z M275.6,489.82
			c0.44,0.08,1.08,0.1,1.76,0.1c3.72,0,5.74-2.08,5.74-5.72c0.02-3.18-1.78-5.2-5.46-5.2c-0.9,0-1.58,0.08-2.04,0.18V489.82z"/>
		<path class="st1" d="M294.16,484.88h-5.24v4.86h5.84v1.46h-7.58v-13.48h7.28v1.46h-5.54v4.26h5.24V484.88z"/>
		<path class="st1" d="M308.38,485.28c-0.1-1.88-0.22-4.14-0.2-5.82h-0.06c-0.46,1.58-1.02,3.26-1.7,5.12l-2.38,6.54h-1.32
			l-2.18-6.42c-0.64-1.9-1.18-3.64-1.56-5.24h-0.04c-0.04,1.68-0.14,3.94-0.26,5.96l-0.36,5.78h-1.66l0.94-13.48h2.22l2.3,6.52
			c0.56,1.66,1.02,3.14,1.36,4.54h0.06c0.34-1.36,0.82-2.84,1.42-4.54l2.4-6.52h2.22l0.84,13.48h-1.7L308.38,485.28z"/>
		<path class="st1" d="M324.62,484.32c0,4.64-2.82,7.1-6.26,7.1c-3.56,0-6.06-2.76-6.06-6.84c0-4.28,2.66-7.08,6.26-7.08
			C322.24,477.5,324.62,480.32,324.62,484.32z M314.16,484.54c0,2.88,1.56,5.46,4.3,5.46c2.76,0,4.32-2.54,4.32-5.6
			c0-2.68-1.4-5.48-4.3-5.48C315.6,478.92,314.16,481.58,314.16,484.54z"/>
	</g>
</g>
</svg>
