<?xml version="1.0" encoding="utf-8"?>
<!-- Generator: Adobe Illustrator 19.2.0, SVG Export Plug-In . SVG Version: 6.00 Build 0)  -->
<svg version="1.1" id="Illustration_1_" xmlns="http://www.w3.org/2000/svg" xmlns:xlink="http://www.w3.org/1999/xlink" x="0px"
	 y="0px" viewBox="0 0 600 600" style="enable-background:new 0 0 600 600;" xml:space="preserve">
<style type="text/css">
	.st0{opacity:0.502;fill:#ADBCC5;}
	.st1{fill-rule:evenodd;clip-rule:evenodd;fill:none;stroke:#ADBCC5;stroke-miterlimit:100;}
	.st2{fill:#E69B61;}
	.st3{fill:#F5C16D;}
	.st4{fill:#E16D5E;}
	.st5{fill-rule:evenodd;clip-rule:evenodd;fill:#B5D2DA;}
	.st6{fill:#92BCC8;}
	.st7{fill:#FFFFFF;}
	.st8{fill-rule:evenodd;clip-rule:evenodd;fill:#92BCC8;}
	
		.st9{fill-rule:evenodd;clip-rule:evenodd;fill:none;stroke:#22303D;stroke-width:2;stroke-linecap:round;stroke-linejoin:round;stroke-miterlimit:100;}
	.st10{stroke:#22303D;stroke-width:2;stroke-linecap:round;stroke-linejoin:round;stroke-miterlimit:100;}
	.st11{fill:#79A5B1;stroke:#22303D;stroke-width:2;stroke-linecap:round;stroke-linejoin:round;stroke-miterlimit:100;}
	.st12{fill-rule:evenodd;clip-rule:evenodd;fill:#79A5B1;}
	.st13{fill:#B5D2DA;}
	.st14{fill:#FFFFFF;stroke:#22303D;stroke-width:2;stroke-linecap:round;stroke-linejoin:round;stroke-miterlimit:100;}
	
		.st15{fill-rule:evenodd;clip-rule:evenodd;fill:#B5D2DA;stroke:#22303D;stroke-width:2;stroke-linecap:round;stroke-linejoin:round;stroke-miterlimit:100;}
	.st16{fill-rule:evenodd;clip-rule:evenodd;fill:#BED9E0;}
	.st17{fill-rule:evenodd;clip-rule:evenodd;fill:#FFFFFF;}
	
		.st18{fill-rule:evenodd;clip-rule:evenodd;fill:#92BCC8;stroke:#22303D;stroke-width:2;stroke-linecap:round;stroke-linejoin:round;stroke-miterlimit:100;}
	.st19{fill-rule:evenodd;clip-rule:evenodd;fill:#F5C16D;}
	.st20{fill:#E69B61;stroke:#22303D;stroke-width:2;stroke-linecap:round;stroke-linejoin:round;stroke-miterlimit:100;}
	.st21{fill-rule:evenodd;clip-rule:evenodd;fill:#E69B61;}
	
		.st22{fill-rule:evenodd;clip-rule:evenodd;fill:none;stroke:#E69B61;stroke-width:2;stroke-linecap:round;stroke-linejoin:round;stroke-miterlimit:100;}
	.st23{fill-rule:evenodd;clip-rule:evenodd;fill:#DAE7EF;}
	.st24{fill-rule:evenodd;clip-rule:evenodd;fill:#89DAF6;}
	
		.st25{opacity:0.25;fill-rule:evenodd;clip-rule:evenodd;fill:none;stroke:#22303D;stroke-width:2;stroke-linecap:round;stroke-linejoin:round;stroke-miterlimit:100;}
	.st26{opacity:0.251;fill-rule:evenodd;clip-rule:evenodd;fill:#22303D;}
	.st27{opacity:0.25;fill-rule:evenodd;clip-rule:evenodd;fill:none;stroke:#22303D;stroke-width:2;stroke-miterlimit:100;}
	.st28{opacity:0.102;fill:#22303D;}
	
		.st29{fill-rule:evenodd;clip-rule:evenodd;fill:none;stroke:#FFFFFF;stroke-width:2;stroke-linecap:round;stroke-linejoin:round;stroke-miterlimit:100;}
	.st30{opacity:0.4;}
	.st31{fill:none;}
	.st32{display:none;}
	.st33{display:inline;}
	.st34{font-family:'MyriadPro-Regular';}
	.st35{font-size:18px;}
</style>
<g id="Stars_1_">
	<path id="circle_star" class="st0" d="M191,76c-3.31,0-6,2.69-6,6c0,3.31,2.69,6,6,6c3.31,0,6-2.69,6-6C197,78.69,194.31,76,191,76
		z M480,132c1.66,0,3-1.34,3-3c0-1.66-1.34-3-3-3c-1.66,0-3,1.34-3,3C477,130.66,478.34,132,480,132z M98,318c-2.76,0-5,2.24-5,5
		c0,2.76,2.24,5,5,5c2.76,0,5-2.24,5-5C103,320.24,100.76,318,98,318z M159,445c-3.87,0-7,3.13-7,7c0,3.87,3.13,7,7,7
		c3.87,0,7-3.13,7-7C166,448.13,162.87,445,159,445z M317,489c-1.66,0-3,1.34-3,3s1.34,3,3,3s3-1.34,3-3S318.66,489,317,489z
		 M101.5,126c-1.38,0-2.5,1.12-2.5,2.5c0,1.38,1.12,2.5,2.5,2.5c1.38,0,2.5-1.12,2.5-2.5C104,127.12,102.88,126,101.5,126z M387,31
		c-2.21,0-4,1.79-4,4c0,2.21,1.79,4,4,4c2.21,0,4-1.79,4-4C391,32.79,389.21,31,387,31z M516,324c-2.21,0-4,1.79-4,4
		c0,2.21,1.79,4,4,4c2.21,0,4-1.79,4-4C520,325.79,518.21,324,516,324z M482,467c-2.76,0-5,2.24-5,5c0,2.76,2.24,5,5,5
		c2.76,0,5-2.24,5-5C487,469.24,484.76,467,482,467z M356,121c-1.66,0-3,1.34-3,3c0,1.66,1.34,3,3,3c1.66,0,3-1.34,3-3
		C359,122.34,357.66,121,356,121z"/>
	<g id="line_star">
		<line id="line_star_6_" class="st1" x1="146" y1="381" x2="85" y2="442"/>
		<line id="line_star_5_" class="st1" x1="445" y1="417" x2="384" y2="478"/>
		<line id="line_star_4_" class="st1" x1="338" y1="54" x2="277" y2="115"/>
		<line id="line_star_3_" class="st1" x1="509" y1="209" x2="448" y2="270"/>
		<line id="line_star_2_" class="st1" x1="144" y1="145" x2="119" y2="171"/>
	</g>
	<path id="star" class="st2" d="M172,474c-1.11,6.67-6.33,11.89-13,13c6.67,1.11,11.89,6.33,13,13c1.11-6.67,6.33-11.89,13-13
		C178.33,485.89,173.11,480.67,172,474z M463,379c-1.11,6.67-6.33,11.89-13,13c6.67,1.11,11.89,6.33,13,13
		c1.11-6.67,6.33-11.89,13-13C469.33,390.89,464.11,385.67,463,379z M89.5,264c-0.81,4.87-4.63,8.69-9.5,9.5
		c4.87,0.81,8.69,4.63,9.5,9.5c0.81-4.87,4.63-8.69,9.5-9.5C94.13,272.69,90.31,268.87,89.5,264z"/>
	<path id="star_1_" class="st3" d="M380,54c-0.68,4.1-3.9,7.32-8,8c4.1,0.68,7.32,3.9,8,8c0.68-4.1,3.9-7.32,8-8
		C383.9,61.32,380.68,58.1,380,54z M119,42c-1.03,6.15-5.85,10.97-12,12c6.15,1.03,10.97,5.85,12,12c1.03-6.15,5.85-10.97,12-12
		C124.85,52.97,120.03,48.15,119,42z M494,172c-1.03,6.15-5.85,10.97-12,12c6.15,1.03,10.97,5.85,12,12c1.03-6.15,5.85-10.97,12-12
		C499.85,182.97,495.03,178.15,494,172z"/>
</g>
<g id="Cat_1_">
	<path id="fire" class="st3" d="M334,444c-6.63,0-12,5.37-12,12v27h-76.08c-2.11-1.86-4.88-3-7.92-3s-5.8,1.14-7.92,3H226v9v56v3
		h0.39c1.33,5.17,6.02,9,11.61,9s10.27-3.83,11.61-9H250v-5c0-6.63,5.37-12,12-12s12,5.37,12,12v5v6c0,6.63,5.37,12,12,12
		s12-5.37,12-12v-6v-8c0-6.63,5.37-12,12-12c6.63,0,12,5.37,12,12v8v1c0,6.63,5.37,12,12,12s12-5.37,12-12v-1v-68v-27
		C346,449.37,340.63,444,334,444z"/>
	<path id="fire_1_" class="st4" d="M334,426c-6.63,0-12,5.37-12,12v32h-24v-11c0-6.63-5.37-12-12-12s-12,5.37-12,12v11h-24
		c0-6.63-5.37-12-12-12s-12,5.37-12,12v46v10c0,6.63,5.37,12,12,12s12-5.37,12-12v-10v-2c0-6.63,5.37-12,12-12s12,5.37,12,12v2h0.05
		c0.51,6.16,5.66,11,11.95,11s11.44-4.84,11.95-11H298v-9c0-6.63,5.37-12,12-12c6.63,0,12,5.37,12,12v9v18c0,6.63,5.37,12,12,12
		s12-5.37,12-12v-18v-46v-32C346,431.37,340.63,426,334,426z"/>
	<ellipse id="fill_body" class="st5" cx="285.5" cy="322" rx="97.5" ry="173"/>
	<path id="body_shadow" class="st6" d="M341,415c0-2.21-1.79-4-4-4s-4,1.79-4,4s1.79,4,4,4S341,417.21,341,415z M285.5,149
		c-2.35,0-4.69,0.16-7,0.45C329.08,155.82,369,230.63,369,322c0,22.99-2.53,44.93-7.13,65H362c2.21,0,4,1.79,4,4s-1.79,4-4,4h-2.09
		H357c-2.21,0-4,1.79-4,4c0,2.21,1.79,4,4,4h0.67H358c2.21,0,4,1.79,4,4s-1.79,4-4,4h-2h-0.9H348c-2.21,0-4,1.79-4,4s1.79,4,4,4h4
		h0.22c0,0.01-0.01,0.01-0.01,0.02c2.11,0.11,3.79,1.84,3.79,3.98c0,2.21-1.79,4-4,4h-3h-0.04H341c-2.21,0-4,1.79-4,4
		c0,2.21,1.79,4,4,4h4h0.29c0,0.01-0.01,0.02-0.01,0.03c2.08,0.14,3.72,1.86,3.72,3.97c0,2.21-1.79,4-4,4h-3.87
		c-16.17,29.3-38.14,48.47-62.63,51.55c2.31,0.29,4.65,0.45,7,0.45c53.85,0,97.5-77.45,97.5-173S339.35,149,285.5,149z"/>
	<path id="head_shadow" class="st6" d="M285.5,149c-53.85,0-97.5,77.45-97.5,173c0,7.88,0.3,15.64,0.88,23.25
		C209.01,372.96,248.97,382,295,382c33.25,0,63.34-4.72,85.07-17.78C381.98,350.7,383,336.56,383,322
		C383,226.45,339.35,149,285.5,149z"/>
	<path id="body_shine" class="st7" d="M200,322c0-91.97,40.45-167.16,91.5-172.66c-1.99-0.21-3.98-0.34-6-0.34
		c-53.85,0-97.5,77.45-97.5,173s43.65,173,97.5,173c2.02,0,4.01-0.12,6-0.34C240.45,489.16,200,413.97,200,322z"/>
	<rect id="fill_zip" x="284" y="374" class="st8" width="4" height="121"/>
	<path id="zip_2_" class="st9" d="M284,411v-37h4v104.08 M288,485v10h-4v-68"/>
	<g id="diagonal_line">
		<line id="diagonal_line_5_" class="st10" x1="239.25" y1="401.25" x2="265.51" y2="427.75"/>
		<line id="diagonal_line_4_" class="st10" x1="253.73" y1="403.97" x2="265.75" y2="416.11"/>
		<line id="diagonal_line_3_" class="st10" x1="239.25" y1="413.14" x2="245.14" y2="419.08"/>
		<line id="diagonal_line_2_" class="st10" x1="249.56" y1="423.54" x2="249.56" y2="423.54"/>
	</g>
	<path id="body_2_" class="st9" d="M318,485.16c-10.16,6.37-21.1,9.84-32.5,9.84c-4.01,0-7.96-0.43-11.85-1.26 M265.59,491.39
		C221.29,475.08,188,405.44,188,322c0-95.55,43.65-173,97.5-173S383,226.45,383,322c0,65.57-20.56,122.63-50.87,151.97
		 M325.8,479.58c-0.54,0.43-1.07,0.86-1.62,1.27"/>
	<g id="paw_right_1_">
		<circle id="fill_arms_base_circle" class="st8" cx="373.5" cy="370.5" r="21.5"/>
		<path id="shadow_arms_base_circle" class="st6" d="M373.5,349c-11.87,0-21.5,9.63-21.5,21.5c0,1.73,0.23,3.41,0.61,5.02
			c14.67-3.96,27.46-9.96,37.59-18.54C386.26,352.11,380.25,349,373.5,349z"/>
		<circle id="arms_base_circle" class="st9" cx="373.5" cy="370.5" r="21.5"/>
		<path id="fill_paw" class="st6" d="M471.41,306.78c-0.46-2.73-3.05-4.56-5.78-4.09c-0.08,0.01-0.15,0.05-0.23,0.06
			c-0.63-1.39-1.39-2.69-2.28-3.88c0.09-0.1,0.2-0.18,0.29-0.29c1.75-2.17,1.41-5.34-0.76-7.09c-2.17-1.75-5.34-1.41-7.09,0.76
			c-0.07,0.09-0.11,0.18-0.18,0.27c-1.24-0.59-2.54-1.06-3.88-1.4c0.04-0.27,0.07-0.54,0.07-0.82c-0.05-2.78-2.34-5-5.12-4.96
			c-2.78,0.05-5,2.34-4.96,5.12c0,0.21,0.04,0.41,0.07,0.62c-4.38,1.05-8.14,3.44-10.91,6.66c-2.3-1.43-5.33-0.81-6.84,1.46
			c-1.55,2.31-0.93,5.44,1.38,6.99c0.3,0.2,0.61,0.36,0.94,0.49c-0.58,2.52-0.72,5.19-0.31,7.91c0.01,0.06,0.03,0.12,0.04,0.18
			c-8.15,18.72-25.34,32.16-45.76,35.28l-7.75,1.19c-9.76,1.49-16.46,10.65-14.96,20.45c1.5,9.8,10.63,16.54,20.39,15.05l8.05-1.23
			c33.65-5.15,61.81-27.57,74.71-58.61c3.96-3.64,6.45-8.76,6.73-14.33c0.01,0,0.02,0,0.04,0
			C470.04,312.09,471.87,309.51,471.41,306.78z"/>
		<path id="shadow_paw" class="st6" d="M404.13,340.72c-7.11,4.74-15.27,7.98-24.03,9.32l-7.75,1.19
			c-9.76,1.49-16.46,10.65-14.96,20.45c0.12,0.79,0.31,1.54,0.52,2.29C378.03,367.64,394.2,357.1,404.13,340.72z"/>
		<path id="paw_4_" class="st9" d="M357.39,371.68c-1.5-9.8,5.2-18.96,14.96-20.45l7.75-1.19c20.42-3.12,37.61-16.56,45.76-35.28
			c-0.01-0.06-0.03-0.12-0.04-0.18c-0.42-2.72-0.29-5.39,0.29-7.91c-0.32-0.13-0.63-0.29-0.92-0.49c-2.31-1.55-2.93-4.68-1.38-6.99
			c1.52-2.27,4.56-2.89,6.86-1.45c2.77-3.22,6.52-5.62,10.9-6.67c-0.03-0.2-0.07-0.41-0.07-0.62c-0.05-2.78,2.17-5.08,4.96-5.12
			c2.78-0.05,5.08,2.17,5.12,4.96c0,0.29-0.03,0.57-0.07,0.84c1.34,0.34,2.64,0.81,3.87,1.4c0.07-0.09,0.11-0.2,0.19-0.29
			c1.75-2.17,4.92-2.5,7.09-0.76c2.17,1.75,2.5,4.92,0.76,7.09c-0.09,0.12-0.21,0.21-0.31,0.31c0.89,1.19,1.68,2.48,2.3,3.86
			c0.08-0.02,0.15-0.05,0.23-0.06c2.73-0.46,5.32,1.37,5.78,4.09c0.46,2.73-1.37,5.31-4.1,5.78c-0.01,0-0.02,0-0.04,0
			c-0.29,5.57-2.78,10.69-6.73,14.33c-12.9,31.03-41.06,53.46-74.71,58.61l-8.05,1.23c-7.07,1.08-13.81-2.16-17.56-7.75"/>
		<path id="elbow_ring" class="st11" d="M430.56,367.73c-4.3,4.3-13.95,1.6-21.57-6.01c-7.62-7.62-10.31-17.27-6.01-21.57
			c1.22-1.22,2.87-1.85,4.78-2c-3.21-0.31-6.04,0.42-7.97,2.35c-4.88,4.88-2.19,15.49,6.01,23.69c8.2,8.2,18.81,10.89,23.69,6.01
			c1.06-1.06,1.74-2.39,2.1-3.9C431.31,366.82,430.98,367.31,430.56,367.73z"/>
		<path id="elbow_ring_1_" class="st11" d="M442.56,355.73c-4.3,4.3-13.95,1.6-21.57-6.01s-10.31-17.27-6.01-21.57
			c1.22-1.22,2.87-1.85,4.78-2c-3.21-0.31-6.04,0.42-7.97,2.35c-4.88,4.88-2.19,15.49,6.01,23.69c8.2,8.2,18.81,10.89,23.69,6.01
			c1.06-1.06,1.74-2.39,2.1-3.9C443.31,354.82,442.98,355.31,442.56,355.73z"/>
		<circle id="fill_center_circle_paw" class="st12" cx="447" cy="311" r="10"/>
		<path id="center_circle_paw_2_" class="st9" d="M447,321c-5.52,0-10-4.48-10-10s4.48-10,10-10c5.52,0,10,4.48,10,10
			c0,0.63-0.06,1.24-0.17,1.83 M454.31,317.82c-0.32,0.34-0.66,0.66-1.02,0.95"/>
	</g>
	<g id="paw_left_1_">
		<path id="shadow_paw_1_" class="st6" d="M245.7,458.39c-0.19-0.09-0.39-0.14-0.58-0.21c1.02-4.38,0.55-8.82-1.1-12.74
			c2.31-1.42,3.1-4.41,1.75-6.78c-1.38-2.42-4.46-3.26-6.87-1.88c-0.31,0.18-0.6,0.39-0.86,0.62c-2-1.65-4.32-2.96-6.94-3.8
			c-0.06-0.02-0.12-0.03-0.17-0.05c-13.12-15.65-17.48-37.02-11.16-56.69l2.4-7.47c3.02-9.4-2.19-19.48-11.64-22.51
			c-9.44-3.03-19.54,2.13-22.56,11.54l-2.49,7.76c-10.4,32.41-2.89,67.62,19.13,93c1.87,6.47,6.84,11.92,13.75,14.14
			c8.28,2.66,16.99-0.09,22.3-6.27c0.22,0.16,0.45,0.31,0.7,0.43c2.51,1.2,5.52,0.14,6.72-2.37
			C249.27,462.6,248.21,459.59,245.7,458.39z"/>
		
			<ellipse id="fill_arms_base_circle_1_" transform="matrix(0.4461 -0.895 0.895 0.4461 -216.5428 385.7883)" class="st8" cx="203.39" cy="367.83" rx="21.5" ry="21.5"/>
		
			<ellipse id="shadow_arms_base_circle_1_" transform="matrix(0.4461 -0.895 0.895 0.4461 -216.5428 385.7883)" class="st8" cx="203.39" cy="367.83" rx="21.5" ry="21.5"/>
		
			<ellipse id="arms_base_circle_1_" transform="matrix(0.4461 -0.895 0.895 0.4461 -216.5428 385.7883)" class="st9" cx="203.39" cy="367.83" rx="21.5" ry="21.5"/>
		<path id="fill_paw_1_" class="st13" d="M241.7,461.39c-0.19-0.09-0.39-0.14-0.58-0.21c1.02-4.38,0.55-8.82-1.1-12.74
			c2.31-1.42,3.1-4.41,1.75-6.78c-1.38-2.42-4.46-3.26-6.87-1.88c-0.31,0.18-0.6,0.39-0.86,0.62c-2-1.65-4.32-2.96-6.94-3.8
			c-0.06-0.02-0.12-0.03-0.17-0.05c-13.12-15.65-17.48-37.02-11.16-56.69l2.4-7.47c3.02-9.4-2.19-19.48-11.64-22.51
			c-9.44-3.03-19.54,2.13-22.56,11.54l-2.49,7.76c-10.4,32.41-2.89,67.62,19.13,93c1.5,5.16,4.97,9.68,9.82,12.42
			c0,0.01-0.01,0.02-0.01,0.03c-0.8,2.65,0.7,5.44,3.34,6.24c2.65,0.8,5.44-0.7,6.24-3.35c0.02-0.08,0.03-0.15,0.04-0.23
			c1.52,0.05,3.03-0.04,4.5-0.31c0.05,0.13,0.07,0.26,0.13,0.39c1.16,2.53,4.15,3.64,6.68,2.48c2.53-1.16,3.64-4.15,2.48-6.68
			c-0.05-0.1-0.11-0.18-0.16-0.28c1.08-0.84,2.08-1.79,2.99-2.85c0.22,0.16,0.45,0.31,0.7,0.43c2.51,1.2,5.52,0.14,6.72-2.37
			C245.27,465.6,244.21,462.59,241.7,461.39z"/>
		<path id="shadow_paw_2_" class="st6" d="M214.49,367.58c-8.64,23.07-7.94,55.68,12.2,70.02c0.07,0.02,0.14,0.03,0.21,0.05
			c3.98,1.18,0.07-1.08,0.02-1.1c-13.12-15.65-17.48-37.02-11.16-56.69l2.4-7.47c2.61-8.13-0.94-16.75-8.04-20.9
			C214.98,359.34,214.49,367.58,214.49,367.58z"/>
		<path id="shine" class="st7" d="M221.29,470.05c-6.51-2.07-11.18-7.18-12.94-13.22c-20.72-23.74-27.79-56.65-18-86.96l2.34-7.25
			c2.34-7.25,9.23-11.8,16.56-11.58c-0.87-0.45-1.77-0.84-2.73-1.15c-9.44-3.03-19.54,2.13-22.56,11.54l-2.49,7.76
			c-10.4,32.41-2.89,67.62,19.13,93c1.5,5.16,4.97,9.68,9.82,12.42c0,0.01-0.01,0.02-0.01,0.03c-0.8,2.65,0.7,5.44,3.34,6.24
			c2.65,0.8,5.44-0.7,6.24-3.35c0.02-0.08,0.03-0.15,0.04-0.23c1.52,0.05,3.02-0.07,4.49-0.34c0.05,0.14,0.08,0.28,0.14,0.41
			c1.16,2.53,4.15,3.64,6.68,2.48c2.53-1.16,3.64-4.15,2.48-6.68c-0.05-0.11-0.12-0.19-0.17-0.3c1.08-0.84,2.07-1.8,2.98-2.84
			c0.23,0.16,0.46,0.32,0.72,0.44c2.51,1.2,5.52,0.14,6.72-2.37c0.87-1.82,0.54-3.89-0.66-5.36
			C238.59,469.53,229.7,472.73,221.29,470.05z"/>
		<path id="paw" class="st9" d="M241.7,461.39c-0.19-0.09-0.39-0.14-0.58-0.21c1.01-4.38,0.54-8.81-1.11-12.73
			c2.31-1.41,3.11-4.41,1.76-6.79c-1.38-2.42-4.46-3.26-6.87-1.88c-0.31,0.18-0.59,0.38-0.85,0.61c-2-1.65-4.33-2.95-6.95-3.79
			c-0.06-0.02-0.12-0.03-0.17-0.05c-8.68-10.35-13.52-23.2-13.98-36.41l0.23-7.73c0.4-4.21,1.26-8.42,2.58-12.56l2.4-7.47
			c3.02-9.4-2.19-19.48-11.64-22.51c-9.44-3.03-19.54,2.13-22.56,11.54l-2.49,7.76c-10.4,32.41-2.89,67.62,19.13,93
			c1.5,5.16,4.97,9.68,9.82,12.42c0,0.01-0.01,0.02-0.01,0.03c-0.8,2.65,0.7,5.44,3.34,6.24c2.65,0.8,5.44-0.7,6.24-3.35
			c0.02-0.08,0.03-0.15,0.04-0.23c1.52,0.05,3.02-0.07,4.49-0.34c0.05,0.14,0.08,0.28,0.14,0.41c1.16,2.53,4.15,3.64,6.68,2.48
			c2.53-1.16,3.64-4.15,2.48-6.68c-0.05-0.11-0.12-0.19-0.17-0.3c1.08-0.84,2.07-1.8,2.98-2.84c0.23,0.16,0.46,0.32,0.72,0.44
			c2.51,1.2,5.52,0.14,6.72-2.37C245.27,465.6,244.21,462.59,241.7,461.39z"/>
		<path id="elbow_ring_2_" class="st14" d="M180.67,427.9c-2.68-5.7,2.9-13.85,12.47-18.21c9.57-4.36,19.49-3.27,22.17,2.42
			c0.38,0.8,0.57,1.66,0.64,2.54c0.83-2.43,0.86-4.82-0.11-6.9c-2.94-6.34-13.81-7.55-24.29-2.7
			c-10.48,4.85-16.59,13.93-13.66,20.27c0.72,1.55,1.92,2.79,3.47,3.72C181.1,428.68,180.86,428.3,180.67,427.9z"/>
		<path id="elbow_ring_3_" class="st14" d="M187.36,443.05c-2.59-5.53,2.8-13.45,12.04-17.68c9.24-4.23,18.83-3.18,21.42,2.35
			c0.37,0.78,0.56,1.61,0.61,2.47c0.8-2.36,0.83-4.67-0.1-6.7c-2.84-6.16-13.34-7.33-23.47-2.62
			c-10.12,4.71-16.03,13.52-13.19,19.67c0.69,1.51,1.86,2.71,3.35,3.61C187.78,443.8,187.55,443.44,187.36,443.05z"/>
	</g>
	<path id="antenna" class="st15" d="M165,244c-7.73,0-14,6.27-14,14v16c0,7.73,6.27,14,14,14h2v-44H165z"/>
	<path id="fill_antenna_fasteners" class="st16" d="M142,259c-3.87,0-7,3.13-7,7c0,3.87,3.13,7,7,7h9v-14H142z"/>
	<path id="antenna_fasteners_shine" class="st7" d="M140,266c0-3.87,3.13-7,7-7h-5c-3.87,0-7,3.13-7,7c0,3.87,3.13,7,7,7h5
		C143.13,273,140,269.87,140,266z"/>
	<path id="antenna_fasteners" class="st9" d="M142,259c-3.87,0-7,3.13-7,7c0,3.87,3.13,7,7,7h9v-14H142z"/>
	<rect id="fill_antenna_support" x="143" y="181" class="st16" width="6" height="78"/>
	<rect id="antenna_support_shine" x="143" y="181" class="st17" width="3" height="78"/>
	<rect id="antenna_support" x="143" y="181" class="st9" width="6" height="78"/>
	<circle id="fill_antenna_end" class="st16" cx="146" cy="177" r="9"/>
	<path id="antenna_end_shine" class="st7" d="M141,180c0-4.97,4.03-9,9-9c1.12,0,2.19,0.21,3.18,0.59
		c-1.64-2.18-4.24-3.59-7.18-3.59c-4.97,0-9,4.03-9,9c0,3.85,2.42,7.13,5.82,8.41C141.68,183.9,141,182.03,141,180z"/>
	<circle id="antenna_end" class="st9" cx="146" cy="177" r="9"/>
	<path id="antenna_right" class="st18" d="M407,244h-2v44h2c7.73,0,14-6.27,14-14v-16C421,250.27,414.73,244,407,244z"/>
	<path id="antenna_fasteners_right" class="st18" d="M430,259h-9v14h9c3.87,0,7-3.13,7-7C437,262.13,433.87,259,430,259z"/>
	<path id="antenna_support_right" class="st18" d="M427,181h-2c-1.1,0-2,0.9-2,2v76h6v-76C429,181.9,428.1,181,427,181z"/>
	<circle id="antenna_end_right" class="st18" cx="426" cy="177" r="9"/>
	<path id="fill_head" class="st19" d="M286,125c-66.27,0-120,53.73-120,120v44c0,66.27,53.73,85,120,85c66.27,0,120-18.73,120-85
		v-44C406,178.73,352.27,125,286,125z"/>
	<g id="bottom_line_head">
		<line id="bottom_line_head_7_" class="st9" x1="279" y1="367" x2="279" y2="373"/>
		<line id="bottom_line_head_6_" class="st9" x1="274" y1="369" x2="274" y2="373"/>
		<line id="bottom_line_head_5_" class="st9" x1="269" y1="370" x2="269" y2="373"/>
		<line id="bottom_line_head_4_" class="st9" x1="303" y1="370" x2="303" y2="373"/>
		<line id="bottom_line_head_3_" class="st9" x1="298" y1="369" x2="298" y2="373"/>
		<line id="bottom_line_head_2_" class="st9" x1="293" y1="367" x2="293" y2="373"/>
	</g>
	<path id="head_shadow_1_" class="st2" d="M286,125c-2.52,0-5.02,0.09-7.5,0.24C341.28,129.11,391,181.25,391,245v35
		c2.21,0,4,1.79,4,4c0,2.21-1.79,4-4,4h-3c-2.21,0-4,1.79-4,4s1.79,4,4,4h2.78c0,0.03,0,0.05,0,0.08c1.84,0.36,3.23,1.98,3.23,3.92
		c0,2.21-1.79,4-4,4h-0.02H384h-2c-2.21,0-4,1.79-4,4c0,2.21,1.79,4,4,4h6h0.48c0,0.02-0.01,0.03-0.01,0.05
		c1.99,0.23,3.54,1.9,3.54,3.95c0,2.21-1.79,4-4,4h-1.88H384c-2.21,0-4,1.79-4,4c0,1.79,1.18,3.29,2.81,3.8
		c-0.03,0.07-0.07,0.13-0.11,0.2h0.3c2.21,0,4,1.79,4,4c0,2.21-1.79,4-4,4h-5.04c-18.76,27.13-55.96,36.94-99.46,37.91
		c2.48,0.06,4.98,0.09,7.5,0.09c66.27,0,120-18.73,120-85v-44C406,178.73,352.27,125,286,125z"/>
	<path id="head_shine" class="st7" d="M181,289v-44c0-63.75,49.72-115.89,112.5-119.76c-2.48-0.15-4.98-0.24-7.5-0.24
		c-66.27,0-120,53.73-120,120v44c0,66.27,53.73,85,120,85c2.52,0,5.02-0.03,7.5-0.09C230.72,372.5,181,352.75,181,289z"/>
	<path id="head_2_" class="st9" d="M406,261.75V264 M406,273v16c0,66.27-53.73,85-120,85c-8.57,0-16.94-0.31-25-1 M252.99,372.17
		c-0.62-0.07-1.24-0.15-1.86-0.23 M242.24,370.58C197.6,362.69,166,339.83,166,289v-44c0-66.27,53.73-120,120-120
		c66.27,0,120,53.73,120,120v7"/>
	<path id="buttons_bottom" class="st20" d="M266,349c-2.21,0-4,1.79-4,4c0,2.21,1.79,4,4,4c2.21,0,4-1.79,4-4
		C270,350.79,268.21,349,266,349z M244,345c-1.66,0-3,1.34-3,3c0,1.66,1.34,3,3,3c1.66,0,3-1.34,3-3C247,346.34,245.66,345,244,345z
		 M225,338c-1.1,0-2,0.9-2,2c0,1.1,0.9,2,2,2s2-0.9,2-2C227,338.9,226.1,338,225,338z M306,349c-2.21,0-4,1.79-4,4
		c0,2.21,1.79,4,4,4s4-1.79,4-4C310,350.79,308.21,349,306,349z M328,345c-1.66,0-3,1.34-3,3c0,1.66,1.34,3,3,3s3-1.34,3-3
		C331,346.34,329.66,345,328,345z M347,338c-1.1,0-2,0.9-2,2c0,1.1,0.9,2,2,2c1.1,0,2-0.9,2-2C349,338.9,348.1,338,347,338z"/>
	<rect id="fill_bottom_seam" x="284" y="332" class="st21" width="4" height="42"/>
	<path id="bottom_seam_2_" class="st9" d="M284,341v-9h4v9 M288,348v9 M288,364v10h-4v-10 M284,357v-9"/>
	<path id="fill_top_seam_left_2_" class="st22" d="M244.01,134.2c4.86,11.72,6.7,23.29,5.51,32.79"/>
	<path id="top_seam_left_4_" class="st9" d="M242.01,134.2c2.79,6.73,4.59,13.41,5.38,19.67 M247.86,160.38
		c0.03,2.29-0.08,4.51-0.34,6.62"/>
	<path id="top_seam_left" class="st9" d="M247.89,138.16c3.44,9.99,4.64,19.67,3.63,27.83"/>
	<path id="fill_top_seam_right_2_" class="st22" d="M327.99,134.2c-4.86,11.72-6.7,23.29-5.51,32.79"/>
	<path id="top_seam_right_4_" class="st9" d="M329.99,134.2c-1.25,3.01-2.3,6.01-3.15,8.97 M325.26,149.82
		c-1.17,6.13-1.42,11.97-0.78,17.17"/>
	<path id="top_seam_right" class="st9" d="M325.99,133.2c-4.86,11.72-6.7,23.29-5.51,32.79"/>
	<g id="top_seam_horizontal">
		<line id="top_seam_horizontal_3_" class="st9" x1="271" y1="141" x2="301" y2="141"/>
		<line id="top_seam_horizontal_2_" class="st9" x1="276" y1="149" x2="296" y2="149"/>
	</g>
	<path id="glass_frame_4_" class="st9" d="M387.17,294.13c-0.2,0.35-0.41,0.71-0.62,1.06 M382.39,301.54
		c-2.12,2.94-4.43,5.74-6.94,8.41 M370.66,314.64c-8.34,7.53-18.58,13.7-30.89,18.17 M205.13,316.73c-0.43-0.35-0.87-0.71-1.29-1.07
		 M198.68,310.92c-9.96-9.91-17.05-21.86-21.55-35.16"/>
	<path id="fill_glass_frame" class="st23" d="M286,163c-56.89,0-103,22.35-103,74.53C183,289.7,212.75,332,287.05,332
		S389,289.7,389,237.53C389,185.35,342.89,163,286,163z"/>
	<path id="glass_frame" class="st9" d="M253.62,328.64c-0.62-0.14-1.24-0.28-1.85-0.42 M243.75,326.03
		C200.94,312.6,183,278.04,183,237.53c0-52.18,46.11-74.53,103-74.53c18.89,0,36.6,2.46,51.82,7.67 M344.52,173.21
		c0.6,0.25,1.19,0.5,1.78,0.76 M351.6,176.5c22.84,11.81,37.4,31.71,37.4,61.02C389,289.7,361.35,332,287.05,332
		c-8.94,0-17.23-0.61-24.9-1.78"/>
	<path id="fill_glass" class="st24" d="M286,167c-54.12,0-98,21.29-98,71s28.31,90,99,90s97-40.29,97-90S340.12,167,286,167z"/>
	<g id="face_1_">
		<path class="st25" d="M275,224c0,10.49-9.18,19-20.5,19s-20.5-8.51-20.5-19"/>
		<path id="pupil_left" class="st26" d="M247,224c0,5.52,4.48,10,10,10c5.52,0,10-4.48,10-10H247z"/>
		<polyline id="eyebrow_left_2_" class="st27" points="233,223 278,223 281,216 		"/>
		<path id="eye_right_2_" class="st25" d="M297,224c0,10.49,9.18,19,20.5,19c11.32,0,20.5-8.51,20.5-19"/>
		<path id="pupil_right" class="st26" d="M305,224c0,5.52,4.48,10,10,10c5.52,0,10-4.48,10-10H305z"/>
		<polyline id="eyebrow_right_2_" class="st25" points="339,223 294,223 291,210 		"/>
		<path id="nose" class="st26" d="M301.85,258.8c-0.39-1.1-1.4-1.8-2.59-1.8h-22.52c-1.19,0-2.2,0.7-2.59,1.8
			c-0.39,1.1-0.04,2.26,0.9,2.98l11.26,8.63c1.01,0.77,2.38,0.77,3.39,0l11.26-8.63C301.89,261.06,302.24,259.9,301.85,258.8z"/>
		<polyline id="mouth_2_" class="st25" points="288,271 288,279 260,290 		"/>
		<path id="mustache_12_" class="st25" d="M310,257c0,0,29.61-4.04,49.16-6.7 M365.87,249.38C371.96,248.55,376,248,376,248"/>
		<path id="mustache" class="st25" d="M312,262c0,0,11.32,0,23.86,0 M342.86,262c10.73,0,20.14,0,20.14,0"/>
		<line id="mustache_1_" class="st25" x1="313" y1="267" x2="351" y2="273"/>
		<path id="mustache_2_" class="st25" d="M266,257l-9.65-1.32 M248.44,254.61L200,248"/>
		<line id="mustache_7_" class="st25" x1="264" y1="262" x2="213" y2="262"/>
		<path id="mustache_3_" class="st25" d="M263,267l-22.82,3.6 M233.47,271.66L225,273"/>
	</g>
	<path id="glass_shadow" class="st28" d="M286,167c-1.68,0-3.34,0.02-5,0.06c46.88,1.16,85.08,18.88,91.91,57.94H373
		c2.21,0,4,1.79,4,4c0,1.92-1.36,3.53-3.17,3.91c0,0.06,0.01,0.12,0.02,0.18c-0.27-0.06-0.56-0.09-0.85-0.09h-4c-2.21,0-4,1.79-4,4
		c0,2.21,1.79,4,4,4h4c0.34,0,0.66-0.05,0.97-0.13c0,0.09-0.01,0.17-0.01,0.26c1.74,0.43,3.04,1.99,3.04,3.87
		c0,2.02-1.51,3.68-3.46,3.95c-0.01,0.12-0.01,0.24-0.02,0.36c-0.47-0.19-0.98-0.3-1.52-0.3h-5h-3c-2.21,0-4,1.79-4,4
		c0,2.21,1.79,4,4,4h7h1c0.21,0,0.4-0.03,0.6-0.06c-0.02,0.12-0.04,0.25-0.06,0.37c1.45,0.6,2.46,2.03,2.46,3.69
		c0,2.2-1.78,3.98-3.97,4c-0.04,0.17-0.09,0.34-0.13,0.5c-0.57-0.31-1.21-0.5-1.9-0.5h-8c-2.21,0-4,1.79-4,4c0,2.21,1.79,4,4,4h6
		h1.76c-0.04,0.12-0.08,0.24-0.12,0.36c1.39,0.63,2.37,2.02,2.37,3.65c0,2.21-1.79,4-4,4h-1.35c-12.1,27.01-38.21,45.66-83.65,46.92
		c1.65,0.05,3.31,0.08,5,0.08c70.69,0,97-40.29,97-90S340.12,167,286,167z M353,257c2.21,0,4-1.79,4-4c0-2.21-1.79-4-4-4
		c-2.21,0-4,1.79-4,4C349,255.21,350.79,257,353,257z"/>
	<path id="glass_shine" class="st7" d="M203,238c0-47.39,39.88-68.95,90.5-70.86c-2.48-0.09-4.98-0.14-7.5-0.14
		c-54.12,0-98,21.29-98,71s28.31,90,99,90c2.56,0,5.05-0.06,7.5-0.16C229.3,325.06,203,285.91,203,238z"/>
	<path id="glass_shine_3_" class="st29" d="M286,177c2.21,0,4.41,0.04,6.58,0.12 M299.17,177.51c13.25,1.05,25.51,3.73,36.04,8.22
		 M341.16,188.55c9.7,5.12,17.59,12.02,22.95,20.84 M366.68,214.16c2.19,4.64,3.74,9.75,4.59,15.34 M371.86,235.17
		c0.09,1.45,0.14,2.93,0.14,4.45"/>
	<path id="glass_2_" class="st9" d="M202.4,196.28C219.63,176.1,250.62,167,286,167c31.79,0,60.04,7.34,77.94,23.48 M368.79,195.34
		C378.42,206.17,384,220.28,384,238c0,19.14-3.9,36.88-12.73,51.46 M366.68,296.17c-0.57,0.73-1.15,1.46-1.74,2.17 M358.83,304.8
		C343.33,319.22,320,328,287,328c-70.69,0-99-40.29-99-90c0-10.53,1.97-19.79,5.59-27.83 M196.77,204.09
		c0.42-0.69,0.85-1.38,1.29-2.05"/>
</g>
<g class="st30">
	<path d="M239.3,139.36c0.95-0.14,2.09-0.25,3.33-0.25c2.25,0,3.85,0.52,4.92,1.51c1.08,0.99,1.71,2.4,1.71,4.36
		c0,1.98-0.61,3.6-1.75,4.72c-1.13,1.13-3.01,1.75-5.37,1.75c-1.12,0-2.05-0.05-2.84-0.14V139.36z M240.86,150.09
		c0.4,0.07,0.97,0.09,1.58,0.09c3.35,0,5.17-1.87,5.17-5.15c0.02-2.86-1.6-4.68-4.92-4.68c-0.81,0-1.42,0.07-1.84,0.16V150.09z"/>
	<path d="M257.57,145.64h-4.72v4.38h5.26v1.31h-6.82V139.2h6.55v1.31h-4.99v3.84h4.72V145.64z"/>
	<path d="M270.37,146c-0.09-1.69-0.2-3.73-0.18-5.24h-0.05c-0.41,1.42-0.92,2.94-1.53,4.61l-2.14,5.89h-1.19l-1.96-5.78
		c-0.58-1.71-1.06-3.28-1.4-4.72h-0.04c-0.04,1.51-0.13,3.55-0.23,5.37l-0.32,5.2h-1.49l0.85-12.14h2l2.07,5.87
		c0.5,1.49,0.92,2.83,1.22,4.09h0.05c0.31-1.22,0.74-2.56,1.28-4.09l2.16-5.87h2l0.76,12.14h-1.53L270.37,146z"/>
	<path d="M284.98,145.14c0,4.18-2.54,6.39-5.64,6.39c-3.21,0-5.46-2.48-5.46-6.16c0-3.85,2.4-6.37,5.64-6.37
		C282.84,139,284.98,141.54,284.98,145.14z M275.57,145.34c0,2.59,1.4,4.92,3.87,4.92c2.48,0,3.89-2.29,3.89-5.04
		c0-2.41-1.26-4.93-3.87-4.93C276.86,140.28,275.57,142.67,275.57,145.34z"/>
	<path d="M309.91,139.36c0.95-0.14,2.09-0.25,3.33-0.25c2.25,0,3.85,0.52,4.92,1.51c1.08,0.99,1.71,2.4,1.71,4.36
		c0,1.98-0.61,3.6-1.75,4.72c-1.13,1.13-3.01,1.75-5.37,1.75c-1.12,0-2.05-0.05-2.84-0.14V139.36z M311.48,150.09
		c0.4,0.07,0.97,0.09,1.58,0.09c3.35,0,5.17-1.87,5.17-5.15c0.02-2.86-1.6-4.68-4.92-4.68c-0.81,0-1.42,0.07-1.84,0.16V150.09z"/>
	<path d="M328.18,145.64h-4.72v4.38h5.26v1.31h-6.82V139.2h6.55v1.31h-4.99v3.84h4.72V145.64z"/>
	<path d="M340.98,146c-0.09-1.69-0.2-3.73-0.18-5.24h-0.05c-0.41,1.42-0.92,2.94-1.53,4.61l-2.14,5.89h-1.19l-1.96-5.78
		c-0.58-1.71-1.06-3.28-1.4-4.72h-0.04c-0.04,1.51-0.13,3.55-0.23,5.37l-0.32,5.2h-1.5l0.85-12.14h2l2.07,5.87
		c0.5,1.49,0.92,2.83,1.22,4.09h0.05c0.31-1.22,0.74-2.56,1.28-4.09l2.16-5.87h2l0.76,12.14h-1.53L340.98,146z"/>
	<path d="M355.59,145.14c0,4.18-2.54,6.39-5.64,6.39c-3.21,0-5.46-2.48-5.46-6.16c0-3.85,2.39-6.37,5.64-6.37
		C353.45,139,355.59,141.54,355.59,145.14z M346.18,145.34c0,2.59,1.41,4.92,3.87,4.92c2.49,0,3.89-2.29,3.89-5.04
		c0-2.41-1.26-4.93-3.87-4.93C347.47,140.28,346.18,142.67,346.18,145.34z"/>
	<path d="M168.68,197.36c0.95-0.14,2.09-0.25,3.33-0.25c2.25,0,3.85,0.52,4.92,1.51c1.08,0.99,1.71,2.4,1.71,4.36
		c0,1.98-0.61,3.6-1.75,4.72c-1.13,1.13-3.01,1.75-5.37,1.75c-1.12,0-2.05-0.05-2.85-0.14V197.36z M170.25,208.09
		c0.4,0.07,0.97,0.09,1.58,0.09c3.35,0,5.17-1.87,5.17-5.15c0.02-2.86-1.6-4.68-4.92-4.68c-0.81,0-1.42,0.07-1.84,0.16V208.09z"/>
	<path d="M186.96,203.64h-4.72v4.38h5.26v1.31h-6.82V197.2h6.55v1.31h-4.99v3.84h4.72V203.64z"/>
	<path d="M199.76,204c-0.09-1.69-0.2-3.73-0.18-5.24h-0.05c-0.41,1.42-0.92,2.94-1.53,4.61l-2.14,5.89h-1.19l-1.96-5.78
		c-0.58-1.71-1.06-3.28-1.4-4.72h-0.04c-0.04,1.51-0.13,3.55-0.23,5.37l-0.32,5.2h-1.49l0.85-12.14h2l2.07,5.87
		c0.5,1.49,0.92,2.83,1.22,4.09h0.05c0.31-1.22,0.74-2.56,1.28-4.09l2.16-5.87h2l0.76,12.14h-1.53L199.76,204z"/>
	<path d="M214.37,203.14c0,4.18-2.54,6.39-5.64,6.39c-3.21,0-5.46-2.48-5.46-6.16c0-3.85,2.39-6.37,5.64-6.37
		C212.23,197,214.37,199.54,214.37,203.14z M204.95,203.34c0,2.59,1.4,4.92,3.87,4.92c2.48,0,3.89-2.29,3.89-5.04
		c0-2.41-1.26-4.93-3.87-4.93C206.25,198.28,204.95,200.67,204.95,203.34z"/>
	<path d="M239.3,197.36c0.95-0.14,2.09-0.25,3.33-0.25c2.25,0,3.85,0.52,4.92,1.51c1.08,0.99,1.71,2.4,1.71,4.36
		c0,1.98-0.61,3.6-1.75,4.72c-1.13,1.13-3.01,1.75-5.37,1.75c-1.12,0-2.05-0.05-2.84-0.14V197.36z M240.86,208.09
		c0.4,0.07,0.97,0.09,1.58,0.09c3.35,0,5.17-1.87,5.17-5.15c0.02-2.86-1.6-4.68-4.92-4.68c-0.81,0-1.42,0.07-1.84,0.16V208.09z"/>
	<path d="M257.57,203.64h-4.72v4.38h5.26v1.31h-6.82V197.2h6.55v1.31h-4.99v3.84h4.72V203.64z"/>
	<path d="M270.37,204c-0.09-1.69-0.2-3.73-0.18-5.24h-0.05c-0.41,1.42-0.92,2.94-1.53,4.61l-2.14,5.89h-1.19l-1.96-5.78
		c-0.58-1.71-1.06-3.28-1.4-4.72h-0.04c-0.04,1.51-0.13,3.55-0.23,5.37l-0.32,5.2h-1.49l0.85-12.14h2l2.07,5.87
		c0.5,1.49,0.92,2.83,1.22,4.09h0.05c0.31-1.22,0.74-2.56,1.28-4.09l2.16-5.87h2l0.76,12.14h-1.53L270.37,204z"/>
	<path d="M284.98,203.14c0,4.18-2.54,6.39-5.64,6.39c-3.21,0-5.46-2.48-5.46-6.16c0-3.85,2.4-6.37,5.64-6.37
		C282.84,197,284.98,199.54,284.98,203.14z M275.57,203.34c0,2.59,1.4,4.92,3.87,4.92c2.48,0,3.89-2.29,3.89-5.04
		c0-2.41-1.26-4.93-3.87-4.93C276.86,198.28,275.57,200.67,275.57,203.34z"/>
	<path d="M309.91,197.36c0.95-0.14,2.09-0.25,3.33-0.25c2.25,0,3.85,0.52,4.92,1.51c1.08,0.99,1.71,2.4,1.71,4.36
		c0,1.98-0.61,3.6-1.75,4.72c-1.13,1.13-3.01,1.75-5.37,1.75c-1.12,0-2.05-0.05-2.84-0.14V197.36z M311.48,208.09
		c0.4,0.07,0.97,0.09,1.58,0.09c3.35,0,5.17-1.87,5.17-5.15c0.02-2.86-1.6-4.68-4.92-4.68c-0.81,0-1.42,0.07-1.84,0.16V208.09z"/>
	<path d="M328.18,203.64h-4.72v4.38h5.26v1.31h-6.82V197.2h6.55v1.31h-4.99v3.84h4.72V203.64z"/>
	<path d="M340.98,204c-0.09-1.69-0.2-3.73-0.18-5.24h-0.05c-0.41,1.42-0.92,2.94-1.53,4.61l-2.14,5.89h-1.19l-1.96-5.78
		c-0.58-1.71-1.06-3.28-1.4-4.72h-0.04c-0.04,1.51-0.13,3.55-0.23,5.37l-0.32,5.2h-1.5l0.85-12.14h2l2.07,5.87
		c0.5,1.49,0.92,2.83,1.22,4.09h0.05c0.31-1.22,0.74-2.56,1.28-4.09l2.16-5.87h2l0.76,12.14h-1.53L340.98,204z"/>
	<path d="M355.59,203.14c0,4.18-2.54,6.39-5.64,6.39c-3.21,0-5.46-2.48-5.46-6.16c0-3.85,2.39-6.37,5.64-6.37
		C353.45,197,355.59,199.54,355.59,203.14z M346.18,203.34c0,2.59,1.41,4.92,3.87,4.92c2.49,0,3.89-2.29,3.89-5.04
		c0-2.41-1.26-4.93-3.87-4.93C347.47,198.28,346.18,200.67,346.18,203.34z"/>
	<path d="M384.33,197.36c0.95-0.14,2.09-0.25,3.33-0.25c2.25,0,3.85,0.52,4.92,1.51c1.08,0.99,1.71,2.4,1.71,4.36
		c0,1.98-0.61,3.6-1.75,4.72c-1.13,1.13-3.01,1.75-5.37,1.75c-1.12,0-2.05-0.05-2.84-0.14V197.36z M385.9,208.09
		c0.4,0.07,0.97,0.09,1.58,0.09c3.35,0,5.17-1.87,5.17-5.15c0.02-2.86-1.6-4.68-4.92-4.68c-0.81,0-1.42,0.07-1.84,0.16V208.09z"/>
	<path d="M402.61,203.64h-4.72v4.38h5.26v1.31h-6.82V197.2h6.55v1.31h-4.99v3.84h4.72V203.64z"/>
	<path d="M415.4,204c-0.09-1.69-0.2-3.73-0.18-5.24h-0.05c-0.41,1.42-0.92,2.94-1.53,4.61l-2.14,5.89h-1.19l-1.96-5.78
		c-0.58-1.71-1.06-3.28-1.4-4.72h-0.04c-0.04,1.51-0.13,3.55-0.23,5.37l-0.32,5.2h-1.5l0.85-12.14h2l2.07,5.87
		c0.5,1.49,0.92,2.83,1.22,4.09h0.05c0.31-1.22,0.74-2.56,1.28-4.09l2.16-5.87h2l0.76,12.14h-1.53L415.4,204z"/>
	<path d="M430.02,203.14c0,4.18-2.54,6.39-5.64,6.39c-3.21,0-5.46-2.48-5.46-6.16c0-3.85,2.39-6.37,5.64-6.37
		C427.88,197,430.02,199.54,430.02,203.14z M420.6,203.34c0,2.59,1.41,4.92,3.87,4.92c2.48,0,3.89-2.29,3.89-5.04
		c0-2.41-1.26-4.93-3.87-4.93C421.9,198.28,420.6,200.67,420.6,203.34z"/>
	<path d="M168.68,255.36c0.95-0.14,2.09-0.25,3.33-0.25c2.25,0,3.85,0.52,4.92,1.51c1.08,0.99,1.71,2.4,1.71,4.36
		c0,1.98-0.61,3.6-1.75,4.72c-1.13,1.13-3.01,1.75-5.37,1.75c-1.12,0-2.05-0.05-2.85-0.14V255.36z M170.25,266.09
		c0.4,0.07,0.97,0.09,1.58,0.09c3.35,0,5.17-1.87,5.17-5.15c0.02-2.86-1.6-4.68-4.92-4.68c-0.81,0-1.42,0.07-1.84,0.16V266.09z"/>
	<path d="M186.96,261.64h-4.72v4.38h5.26v1.31h-6.82V255.2h6.55v1.31h-4.99v3.84h4.72V261.64z"/>
	<path d="M199.76,262c-0.09-1.69-0.2-3.73-0.18-5.24h-0.05c-0.41,1.42-0.92,2.94-1.53,4.61l-2.14,5.89h-1.19l-1.96-5.78
		c-0.58-1.71-1.06-3.28-1.4-4.72h-0.04c-0.04,1.51-0.13,3.55-0.23,5.37l-0.32,5.2h-1.49l0.85-12.14h2l2.07,5.87
		c0.5,1.49,0.92,2.83,1.22,4.09h0.05c0.31-1.22,0.74-2.56,1.28-4.09l2.16-5.87h2l0.76,12.14h-1.53L199.76,262z"/>
	<path d="M214.37,261.14c0,4.18-2.54,6.39-5.64,6.39c-3.21,0-5.46-2.48-5.46-6.16c0-3.85,2.39-6.37,5.64-6.37
		C212.23,255,214.37,257.54,214.37,261.14z M204.95,261.34c0,2.59,1.4,4.92,3.87,4.92c2.48,0,3.89-2.29,3.89-5.04
		c0-2.41-1.26-4.93-3.87-4.93C206.25,256.28,204.95,258.67,204.95,261.34z"/>
	<path d="M239.3,255.36c0.95-0.14,2.09-0.25,3.33-0.25c2.25,0,3.85,0.52,4.92,1.51c1.08,0.99,1.71,2.4,1.71,4.36
		c0,1.98-0.61,3.6-1.75,4.72c-1.13,1.13-3.01,1.75-5.37,1.75c-1.12,0-2.05-0.05-2.84-0.14V255.36z M240.86,266.09
		c0.4,0.07,0.97,0.09,1.58,0.09c3.35,0,5.17-1.87,5.17-5.15c0.02-2.86-1.6-4.68-4.92-4.68c-0.81,0-1.42,0.07-1.84,0.16V266.09z"/>
	<path d="M257.57,261.64h-4.72v4.38h5.26v1.31h-6.82V255.2h6.55v1.31h-4.99v3.84h4.72V261.64z"/>
	<path d="M270.37,262c-0.09-1.69-0.2-3.73-0.18-5.24h-0.05c-0.41,1.42-0.92,2.94-1.53,4.61l-2.14,5.89h-1.19l-1.96-5.78
		c-0.58-1.71-1.06-3.28-1.4-4.72h-0.04c-0.04,1.51-0.13,3.55-0.23,5.37l-0.32,5.2h-1.49l0.85-12.14h2l2.07,5.87
		c0.5,1.49,0.92,2.83,1.22,4.09h0.05c0.31-1.22,0.74-2.56,1.28-4.09l2.16-5.87h2l0.76,12.14h-1.53L270.37,262z"/>
	<path d="M284.98,261.14c0,4.18-2.54,6.39-5.64,6.39c-3.21,0-5.46-2.48-5.46-6.16c0-3.85,2.4-6.37,5.64-6.37
		C282.84,255,284.98,257.54,284.98,261.14z M275.57,261.34c0,2.59,1.4,4.92,3.87,4.92c2.48,0,3.89-2.29,3.89-5.04
		c0-2.41-1.26-4.93-3.87-4.93C276.86,256.28,275.57,258.67,275.57,261.34z"/>
	<path d="M309.91,255.36c0.95-0.14,2.09-0.25,3.33-0.25c2.25,0,3.85,0.52,4.92,1.51c1.08,0.99,1.71,2.4,1.71,4.36
		c0,1.98-0.61,3.6-1.75,4.72c-1.13,1.13-3.01,1.75-5.37,1.75c-1.12,0-2.05-0.05-2.84-0.14V255.36z M311.48,266.09
		c0.4,0.07,0.97,0.09,1.58,0.09c3.35,0,5.17-1.87,5.17-5.15c0.02-2.86-1.6-4.68-4.92-4.68c-0.81,0-1.42,0.07-1.84,0.16V266.09z"/>
	<path d="M328.18,261.64h-4.72v4.38h5.26v1.31h-6.82V255.2h6.55v1.31h-4.99v3.84h4.72V261.64z"/>
	<path d="M340.98,262c-0.09-1.69-0.2-3.73-0.18-5.24h-0.05c-0.41,1.42-0.92,2.94-1.53,4.61l-2.14,5.89h-1.19l-1.96-5.78
		c-0.58-1.71-1.06-3.28-1.4-4.72h-0.04c-0.04,1.51-0.13,3.55-0.23,5.37l-0.32,5.2h-1.5l0.85-12.14h2l2.07,5.87
		c0.5,1.49,0.92,2.83,1.22,4.09h0.05c0.31-1.22,0.74-2.56,1.28-4.09l2.16-5.87h2l0.76,12.14h-1.53L340.98,262z"/>
	<path d="M355.59,261.14c0,4.18-2.54,6.39-5.64,6.39c-3.21,0-5.46-2.48-5.46-6.16c0-3.85,2.39-6.37,5.64-6.37
		C353.45,255,355.59,257.54,355.59,261.14z M346.18,261.34c0,2.59,1.41,4.92,3.87,4.92c2.49,0,3.89-2.29,3.89-5.04
		c0-2.41-1.26-4.93-3.87-4.93C347.47,256.28,346.18,258.67,346.18,261.34z"/>
	<path d="M384.33,255.36c0.95-0.14,2.09-0.25,3.33-0.25c2.25,0,3.85,0.52,4.92,1.51c1.08,0.99,1.71,2.4,1.71,4.36
		c0,1.98-0.61,3.6-1.75,4.72c-1.13,1.13-3.01,1.75-5.37,1.75c-1.12,0-2.05-0.05-2.84-0.14V255.36z M385.9,266.09
		c0.4,0.07,0.97,0.09,1.58,0.09c3.35,0,5.17-1.87,5.17-5.15c0.02-2.86-1.6-4.68-4.92-4.68c-0.81,0-1.42,0.07-1.84,0.16V266.09z"/>
	<path d="M402.61,261.64h-4.72v4.38h5.26v1.31h-6.82V255.2h6.55v1.31h-4.99v3.84h4.72V261.64z"/>
	<path d="M415.4,262c-0.09-1.69-0.2-3.73-0.18-5.24h-0.05c-0.41,1.42-0.92,2.94-1.53,4.61l-2.14,5.89h-1.19l-1.96-5.78
		c-0.58-1.71-1.06-3.28-1.4-4.72h-0.04c-0.04,1.51-0.13,3.55-0.23,5.37l-0.32,5.2h-1.5l0.85-12.14h2l2.07,5.87
		c0.5,1.49,0.92,2.83,1.22,4.09h0.05c0.31-1.22,0.74-2.56,1.28-4.09l2.16-5.87h2l0.76,12.14h-1.53L415.4,262z"/>
	<path d="M430.02,261.14c0,4.18-2.54,6.39-5.64,6.39c-3.21,0-5.46-2.48-5.46-6.16c0-3.85,2.39-6.37,5.64-6.37
		C427.88,255,430.02,257.54,430.02,261.14z M420.6,261.34c0,2.59,1.41,4.92,3.87,4.92c2.48,0,3.89-2.29,3.89-5.04
		c0-2.41-1.26-4.93-3.87-4.93C421.9,256.28,420.6,258.67,420.6,261.34z"/>
	<path d="M168.68,313.36c0.95-0.14,2.09-0.25,3.33-0.25c2.25,0,3.85,0.52,4.92,1.51c1.08,0.99,1.71,2.4,1.71,4.36
		c0,1.98-0.61,3.6-1.75,4.72c-1.13,1.13-3.01,1.75-5.37,1.75c-1.12,0-2.05-0.05-2.85-0.14V313.36z M170.25,324.09
		c0.4,0.07,0.97,0.09,1.58,0.09c3.35,0,5.17-1.87,5.17-5.15c0.02-2.86-1.6-4.68-4.92-4.68c-0.81,0-1.42,0.07-1.84,0.16V324.09z"/>
	<path d="M186.96,319.64h-4.72v4.38h5.26v1.31h-6.82V313.2h6.55v1.31h-4.99v3.83h4.72V319.64z"/>
	<path d="M199.76,320c-0.09-1.69-0.2-3.73-0.18-5.24h-0.05c-0.41,1.42-0.92,2.94-1.53,4.61l-2.14,5.89h-1.19l-1.96-5.78
		c-0.58-1.71-1.06-3.28-1.4-4.72h-0.04c-0.04,1.51-0.13,3.55-0.23,5.37l-0.32,5.2h-1.49l0.85-12.14h2l2.07,5.87
		c0.5,1.49,0.92,2.83,1.22,4.09h0.05c0.31-1.22,0.74-2.56,1.28-4.09l2.16-5.87h2l0.76,12.14h-1.53L199.76,320z"/>
	<path d="M214.37,319.14c0,4.18-2.54,6.39-5.64,6.39c-3.21,0-5.46-2.49-5.46-6.16c0-3.85,2.39-6.37,5.64-6.37
		C212.23,313,214.37,315.54,214.37,319.14z M204.95,319.34c0,2.59,1.4,4.92,3.87,4.92c2.48,0,3.89-2.29,3.89-5.04
		c0-2.41-1.26-4.93-3.87-4.93C206.25,314.28,204.95,316.67,204.95,319.34z"/>
	<path d="M239.3,313.36c0.95-0.14,2.09-0.25,3.33-0.25c2.25,0,3.85,0.52,4.92,1.51c1.08,0.99,1.71,2.4,1.71,4.36
		c0,1.98-0.61,3.6-1.75,4.72c-1.13,1.13-3.01,1.75-5.37,1.75c-1.12,0-2.05-0.05-2.84-0.14V313.36z M240.86,324.09
		c0.4,0.07,0.97,0.09,1.58,0.09c3.35,0,5.17-1.87,5.17-5.15c0.02-2.86-1.6-4.68-4.92-4.68c-0.81,0-1.42,0.07-1.84,0.16V324.09z"/>
	<path d="M257.57,319.64h-4.72v4.38h5.26v1.31h-6.82V313.2h6.55v1.31h-4.99v3.83h4.72V319.64z"/>
	<path d="M270.37,320c-0.09-1.69-0.2-3.73-0.18-5.24h-0.05c-0.41,1.42-0.92,2.94-1.53,4.61l-2.14,5.89h-1.19l-1.96-5.78
		c-0.58-1.71-1.06-3.28-1.4-4.72h-0.04c-0.04,1.51-0.13,3.55-0.23,5.37l-0.32,5.2h-1.49l0.85-12.14h2l2.07,5.87
		c0.5,1.49,0.92,2.83,1.22,4.09h0.05c0.31-1.22,0.74-2.56,1.28-4.09l2.16-5.87h2l0.76,12.14h-1.53L270.37,320z"/>
	<path d="M284.98,319.14c0,4.18-2.54,6.39-5.64,6.39c-3.21,0-5.46-2.49-5.46-6.16c0-3.85,2.4-6.37,5.64-6.37
		C282.84,313,284.98,315.54,284.98,319.14z M275.57,319.34c0,2.59,1.4,4.92,3.87,4.92c2.48,0,3.89-2.29,3.89-5.04
		c0-2.41-1.26-4.93-3.87-4.93C276.86,314.28,275.57,316.67,275.57,319.34z"/>
	<path d="M309.91,313.36c0.95-0.14,2.09-0.25,3.33-0.25c2.25,0,3.85,0.52,4.92,1.51c1.08,0.99,1.71,2.4,1.71,4.36
		c0,1.98-0.61,3.6-1.75,4.72c-1.13,1.13-3.01,1.75-5.37,1.75c-1.12,0-2.05-0.05-2.84-0.14V313.36z M311.48,324.09
		c0.4,0.07,0.97,0.09,1.58,0.09c3.35,0,5.17-1.87,5.17-5.15c0.02-2.86-1.6-4.68-4.92-4.68c-0.81,0-1.42,0.07-1.84,0.16V324.09z"/>
	<path d="M328.18,319.64h-4.72v4.38h5.26v1.31h-6.82V313.2h6.55v1.31h-4.99v3.83h4.72V319.64z"/>
	<path d="M340.98,320c-0.09-1.69-0.2-3.73-0.18-5.24h-0.05c-0.41,1.42-0.92,2.94-1.53,4.61l-2.14,5.89h-1.19l-1.96-5.78
		c-0.58-1.71-1.06-3.28-1.4-4.72h-0.04c-0.04,1.51-0.13,3.55-0.23,5.37l-0.32,5.2h-1.5l0.85-12.14h2l2.07,5.87
		c0.5,1.49,0.92,2.83,1.22,4.09h0.05c0.31-1.22,0.74-2.56,1.28-4.09l2.16-5.87h2l0.76,12.14h-1.53L340.98,320z"/>
	<path d="M355.59,319.14c0,4.18-2.54,6.39-5.64,6.39c-3.21,0-5.46-2.49-5.46-6.16c0-3.85,2.39-6.37,5.64-6.37
		C353.45,313,355.59,315.54,355.59,319.14z M346.18,319.34c0,2.59,1.41,4.92,3.87,4.92c2.49,0,3.89-2.29,3.89-5.04
		c0-2.41-1.26-4.93-3.87-4.93C347.47,314.28,346.18,316.67,346.18,319.34z"/>
	<path d="M384.33,313.36c0.95-0.14,2.09-0.25,3.33-0.25c2.25,0,3.85,0.52,4.92,1.51c1.08,0.99,1.71,2.4,1.71,4.36
		c0,1.98-0.61,3.6-1.75,4.72c-1.13,1.13-3.01,1.75-5.37,1.75c-1.12,0-2.05-0.05-2.84-0.14V313.36z M385.9,324.09
		c0.4,0.07,0.97,0.09,1.58,0.09c3.35,0,5.17-1.87,5.17-5.15c0.02-2.86-1.6-4.68-4.92-4.68c-0.81,0-1.42,0.07-1.84,0.16V324.09z"/>
	<path d="M402.61,319.64h-4.72v4.38h5.26v1.31h-6.82V313.2h6.55v1.31h-4.99v3.83h4.72V319.64z"/>
	<path d="M415.4,320c-0.09-1.69-0.2-3.73-0.18-5.24h-0.05c-0.41,1.42-0.92,2.94-1.53,4.61l-2.14,5.89h-1.19l-1.96-5.78
		c-0.58-1.71-1.06-3.28-1.4-4.72h-0.04c-0.04,1.51-0.13,3.55-0.23,5.37l-0.32,5.2h-1.5l0.85-12.14h2l2.07,5.87
		c0.5,1.49,0.92,2.83,1.22,4.09h0.05c0.31-1.22,0.74-2.56,1.28-4.09l2.16-5.87h2l0.76,12.14h-1.53L415.4,320z"/>
	<path d="M430.02,319.14c0,4.18-2.54,6.39-5.64,6.39c-3.21,0-5.46-2.49-5.46-6.16c0-3.85,2.39-6.37,5.64-6.37
		C427.88,313,430.02,315.54,430.02,319.14z M420.6,319.34c0,2.59,1.41,4.92,3.87,4.92c2.48,0,3.89-2.29,3.89-5.04
		c0-2.41-1.26-4.93-3.87-4.93C421.9,314.28,420.6,316.67,420.6,319.34z"/>
	<path d="M454.94,313.36c0.95-0.14,2.09-0.25,3.33-0.25c2.25,0,3.85,0.52,4.92,1.51c1.08,0.99,1.71,2.4,1.71,4.36
		c0,1.98-0.61,3.6-1.75,4.72c-1.13,1.13-3.01,1.75-5.37,1.75c-1.12,0-2.05-0.05-2.84-0.14V313.36z M456.51,324.09
		c0.4,0.07,0.97,0.09,1.58,0.09c3.35,0,5.17-1.87,5.17-5.15c0.02-2.86-1.6-4.68-4.92-4.68c-0.81,0-1.42,0.07-1.84,0.16V324.09z"/>
	<path d="M186.96,377.64h-4.72v4.38h5.26v1.31h-6.82V371.2h6.55v1.31h-4.99v3.83h4.72V377.64z"/>
	<path d="M199.76,378c-0.09-1.69-0.2-3.73-0.18-5.24h-0.05c-0.41,1.42-0.92,2.94-1.53,4.61l-2.14,5.89h-1.19l-1.96-5.78
		c-0.58-1.71-1.06-3.28-1.4-4.72h-0.04c-0.04,1.51-0.13,3.55-0.23,5.37l-0.32,5.2h-1.49l0.85-12.14h2l2.07,5.87
		c0.5,1.49,0.92,2.83,1.22,4.09h0.05c0.31-1.22,0.74-2.56,1.28-4.09l2.16-5.87h2l0.76,12.14h-1.53L199.76,378z"/>
	<path d="M214.37,377.14c0,4.18-2.54,6.39-5.64,6.39c-3.21,0-5.46-2.49-5.46-6.16c0-3.85,2.39-6.37,5.64-6.37
		C212.23,371,214.37,373.54,214.37,377.14z M204.95,377.34c0,2.59,1.4,4.92,3.87,4.92c2.48,0,3.89-2.29,3.89-5.04
		c0-2.41-1.26-4.93-3.87-4.93C206.25,372.28,204.95,374.67,204.95,377.34z"/>
	<path d="M239.3,371.36c0.95-0.14,2.09-0.25,3.33-0.25c2.25,0,3.85,0.52,4.92,1.51c1.08,0.99,1.71,2.39,1.71,4.36
		c0,1.98-0.61,3.6-1.75,4.72c-1.13,1.13-3.01,1.75-5.37,1.75c-1.12,0-2.05-0.05-2.84-0.14V371.36z M240.86,382.09
		c0.4,0.07,0.97,0.09,1.58,0.09c3.35,0,5.17-1.87,5.17-5.15c0.02-2.86-1.6-4.68-4.92-4.68c-0.81,0-1.42,0.07-1.84,0.16V382.09z"/>
	<path d="M257.57,377.64h-4.72v4.38h5.26v1.31h-6.82V371.2h6.55v1.31h-4.99v3.83h4.72V377.64z"/>
	<path d="M270.37,378c-0.09-1.69-0.2-3.73-0.18-5.24h-0.05c-0.41,1.42-0.92,2.94-1.53,4.61l-2.14,5.89h-1.19l-1.96-5.78
		c-0.58-1.71-1.06-3.28-1.4-4.72h-0.04c-0.04,1.51-0.13,3.55-0.23,5.37l-0.32,5.2h-1.49l0.85-12.14h2l2.07,5.87
		c0.5,1.49,0.92,2.83,1.22,4.09h0.05c0.31-1.22,0.74-2.56,1.28-4.09l2.16-5.87h2l0.76,12.14h-1.53L270.37,378z"/>
	<path d="M284.98,377.14c0,4.18-2.54,6.39-5.64,6.39c-3.21,0-5.46-2.49-5.46-6.16c0-3.85,2.4-6.37,5.64-6.37
		C282.84,371,284.98,373.54,284.98,377.14z M275.57,377.34c0,2.59,1.4,4.92,3.87,4.92c2.48,0,3.89-2.29,3.89-5.04
		c0-2.41-1.26-4.93-3.87-4.93C276.86,372.28,275.57,374.67,275.57,377.34z"/>
	<path d="M309.91,371.36c0.95-0.14,2.09-0.25,3.33-0.25c2.25,0,3.85,0.52,4.92,1.51c1.08,0.99,1.71,2.39,1.71,4.36
		c0,1.98-0.61,3.6-1.75,4.72c-1.13,1.13-3.01,1.75-5.37,1.75c-1.12,0-2.05-0.05-2.84-0.14V371.36z M311.48,382.09
		c0.4,0.07,0.97,0.09,1.58,0.09c3.35,0,5.17-1.87,5.17-5.15c0.02-2.86-1.6-4.68-4.92-4.68c-0.81,0-1.42,0.07-1.84,0.16V382.09z"/>
	<path d="M328.18,377.64h-4.72v4.38h5.26v1.31h-6.82V371.2h6.55v1.31h-4.99v3.83h4.72V377.64z"/>
	<path d="M340.98,378c-0.09-1.69-0.2-3.73-0.18-5.24h-0.05c-0.41,1.42-0.92,2.94-1.53,4.61l-2.14,5.89h-1.19l-1.96-5.78
		c-0.58-1.71-1.06-3.28-1.4-4.72h-0.04c-0.04,1.51-0.13,3.55-0.23,5.37l-0.32,5.2h-1.5l0.85-12.14h2l2.07,5.87
		c0.5,1.49,0.92,2.83,1.22,4.09h0.05c0.31-1.22,0.74-2.56,1.28-4.09l2.16-5.87h2l0.76,12.14h-1.53L340.98,378z"/>
	<path d="M355.59,377.14c0,4.18-2.54,6.39-5.64,6.39c-3.21,0-5.46-2.49-5.46-6.16c0-3.85,2.39-6.37,5.64-6.37
		C353.45,371,355.59,373.54,355.59,377.14z M346.18,377.34c0,2.59,1.41,4.92,3.87,4.92c2.49,0,3.89-2.29,3.89-5.04
		c0-2.41-1.26-4.93-3.87-4.93C347.47,372.28,346.18,374.67,346.18,377.34z"/>
	<path d="M384.33,371.36c0.95-0.14,2.09-0.25,3.33-0.25c2.25,0,3.85,0.52,4.92,1.51c1.08,0.99,1.71,2.39,1.71,4.36
		c0,1.98-0.61,3.6-1.75,4.72c-1.13,1.13-3.01,1.75-5.37,1.75c-1.12,0-2.05-0.05-2.84-0.14V371.36z M385.9,382.09
		c0.4,0.07,0.97,0.09,1.58,0.09c3.35,0,5.17-1.87,5.17-5.15c0.02-2.86-1.6-4.68-4.92-4.68c-0.81,0-1.42,0.07-1.84,0.16V382.09z"/>
	<path d="M402.61,377.64h-4.72v4.38h5.26v1.31h-6.82V371.2h6.55v1.31h-4.99v3.83h4.72V377.64z"/>
	<path d="M415.4,378c-0.09-1.69-0.2-3.73-0.18-5.24h-0.05c-0.41,1.42-0.92,2.94-1.53,4.61l-2.14,5.89h-1.19l-1.96-5.78
		c-0.58-1.71-1.06-3.28-1.4-4.72h-0.04c-0.04,1.51-0.13,3.55-0.23,5.37l-0.32,5.2h-1.5l0.85-12.14h2l2.07,5.87
		c0.5,1.49,0.92,2.83,1.22,4.09h0.05c0.31-1.22,0.74-2.56,1.28-4.09l2.16-5.87h2l0.76,12.14h-1.53L415.4,378z"/>
	<path d="M430.02,377.14c0,4.18-2.54,6.39-5.64,6.39c-3.21,0-5.46-2.49-5.46-6.16c0-3.85,2.39-6.37,5.64-6.37
		C427.88,371,430.02,373.54,430.02,377.14z M420.6,377.34c0,2.59,1.41,4.92,3.87,4.92c2.48,0,3.89-2.29,3.89-5.04
		c0-2.41-1.26-4.93-3.87-4.93C421.9,372.28,420.6,374.67,420.6,377.34z"/>
	<path d="M178.64,434.98"/>
	<path d="M186.96,435.64h-4.72v4.38h5.26v1.31h-6.82V429.2h6.55v1.31h-4.99v3.83h4.72V435.64z"/>
	<path d="M199.76,436c-0.09-1.69-0.2-3.73-0.18-5.24h-0.05c-0.41,1.42-0.92,2.94-1.53,4.61l-2.14,5.89h-1.19l-1.96-5.78
		c-0.58-1.71-1.06-3.28-1.4-4.72h-0.04c-0.04,1.51-0.13,3.55-0.23,5.37l-0.32,5.2h-1.49l0.85-12.14h2l2.07,5.87
		c0.5,1.49,0.92,2.83,1.22,4.09h0.05c0.31-1.22,0.74-2.56,1.28-4.09l2.16-5.87h2l0.76,12.14h-1.53L199.76,436z"/>
	<path d="M214.37,435.14c0,4.18-2.54,6.39-5.64,6.39c-3.21,0-5.46-2.49-5.46-6.16c0-3.85,2.39-6.37,5.64-6.37
		C212.23,429,214.37,431.54,214.37,435.14z M204.95,435.34c0,2.59,1.4,4.92,3.87,4.92c2.48,0,3.89-2.29,3.89-5.04
		c0-2.41-1.26-4.93-3.87-4.93C206.25,430.28,204.95,432.67,204.95,435.34z"/>
	<path d="M239.3,429.36c0.95-0.14,2.09-0.25,3.33-0.25c2.25,0,3.85,0.52,4.92,1.51c1.08,0.99,1.71,2.39,1.71,4.36
		c0,1.98-0.61,3.6-1.75,4.72c-1.13,1.13-3.01,1.75-5.37,1.75c-1.12,0-2.05-0.05-2.84-0.14V429.36z M240.86,440.09
		c0.4,0.07,0.97,0.09,1.58,0.09c3.35,0,5.17-1.87,5.17-5.15c0.02-2.86-1.6-4.68-4.92-4.68c-0.81,0-1.42,0.07-1.84,0.16V440.09z"/>
	<path d="M257.57,435.64h-4.72v4.38h5.26v1.31h-6.82V429.2h6.55v1.31h-4.99v3.83h4.72V435.64z"/>
	<path d="M270.37,436c-0.09-1.69-0.2-3.73-0.18-5.24h-0.05c-0.41,1.42-0.92,2.94-1.53,4.61l-2.14,5.89h-1.19l-1.96-5.78
		c-0.58-1.71-1.06-3.28-1.4-4.72h-0.04c-0.04,1.51-0.13,3.55-0.23,5.37l-0.32,5.2h-1.49l0.85-12.14h2l2.07,5.87
		c0.5,1.49,0.92,2.83,1.22,4.09h0.05c0.31-1.22,0.74-2.56,1.28-4.09l2.16-5.87h2l0.76,12.14h-1.53L270.37,436z"/>
	<path d="M284.98,435.14c0,4.18-2.54,6.39-5.64,6.39c-3.21,0-5.46-2.49-5.46-6.16c0-3.85,2.4-6.37,5.64-6.37
		C282.84,429,284.98,431.54,284.98,435.14z M275.57,435.34c0,2.59,1.4,4.92,3.87,4.92c2.48,0,3.89-2.29,3.89-5.04
		c0-2.41-1.26-4.93-3.87-4.93C276.86,430.28,275.57,432.67,275.57,435.34z"/>
	<path d="M309.91,429.36c0.95-0.14,2.09-0.25,3.33-0.25c2.25,0,3.85,0.52,4.92,1.51c1.08,0.99,1.71,2.39,1.71,4.36
		c0,1.98-0.61,3.6-1.75,4.72c-1.13,1.13-3.01,1.75-5.37,1.75c-1.12,0-2.05-0.05-2.84-0.14V429.36z M311.48,440.09
		c0.4,0.07,0.97,0.09,1.58,0.09c3.35,0,5.17-1.87,5.17-5.15c0.02-2.86-1.6-4.68-4.92-4.68c-0.81,0-1.42,0.07-1.84,0.16V440.09z"/>
	<path d="M328.18,435.64h-4.72v4.38h5.26v1.31h-6.82V429.2h6.55v1.31h-4.99v3.83h4.72V435.64z"/>
	<path d="M340.98,436c-0.09-1.69-0.2-3.73-0.18-5.24h-0.05c-0.41,1.42-0.92,2.94-1.53,4.61l-2.14,5.89h-1.19l-1.96-5.78
		c-0.58-1.71-1.06-3.28-1.4-4.72h-0.04c-0.04,1.51-0.13,3.55-0.23,5.37l-0.32,5.2h-1.5l0.85-12.14h2l2.07,5.87
		c0.5,1.49,0.92,2.83,1.22,4.09h0.05c0.31-1.22,0.74-2.56,1.28-4.09l2.16-5.87h2l0.76,12.14h-1.53L340.98,436z"/>
	<path d="M355.59,435.14c0,4.18-2.54,6.39-5.64,6.39c-3.21,0-5.46-2.49-5.46-6.16c0-3.85,2.39-6.37,5.64-6.37
		C353.45,429,355.59,431.54,355.59,435.14z M346.18,435.34c0,2.59,1.41,4.92,3.87,4.92c2.49,0,3.89-2.29,3.89-5.04
		c0-2.41-1.26-4.93-3.87-4.93C347.47,430.28,346.18,432.67,346.18,435.34z"/>
	<path d="M239.3,487.36c0.95-0.14,2.09-0.25,3.33-0.25c2.25,0,3.85,0.52,4.92,1.51c1.08,0.99,1.71,2.39,1.71,4.36
		c0,1.98-0.61,3.6-1.75,4.72c-1.13,1.13-3.01,1.75-5.37,1.75c-1.12,0-2.05-0.05-2.84-0.14V487.36z M240.86,498.09
		c0.4,0.07,0.97,0.09,1.58,0.09c3.35,0,5.17-1.87,5.17-5.15c0.02-2.86-1.6-4.68-4.92-4.68c-0.81,0-1.42,0.07-1.84,0.16V498.09z"/>
	<path d="M257.57,493.64h-4.72v4.38h5.26v1.31h-6.82V487.2h6.55v1.31h-4.99v3.83h4.72V493.64z"/>
	<path d="M270.37,494c-0.09-1.69-0.2-3.73-0.18-5.24h-0.05c-0.41,1.42-0.92,2.94-1.53,4.61l-2.14,5.89h-1.19l-1.96-5.78
		c-0.58-1.71-1.06-3.28-1.4-4.72h-0.04c-0.04,1.51-0.13,3.55-0.23,5.37l-0.32,5.2h-1.49l0.85-12.14h2l2.07,5.87
		c0.5,1.49,0.92,2.83,1.22,4.09h0.05c0.31-1.22,0.74-2.56,1.28-4.09l2.16-5.87h2l0.76,12.14h-1.53L270.37,494z"/>
	<path d="M284.98,493.14c0,4.18-2.54,6.39-5.64,6.39c-3.21,0-5.46-2.49-5.46-6.16c0-3.85,2.4-6.37,5.64-6.37
		C282.84,487,284.98,489.54,284.98,493.14z M275.57,493.34c0,2.59,1.4,4.92,3.87,4.92c2.48,0,3.89-2.29,3.89-5.04
		c0-2.41-1.26-4.93-3.87-4.93C276.86,488.28,275.57,490.67,275.57,493.34z"/>
	<path d="M309.91,487.36c0.95-0.14,2.09-0.25,3.33-0.25c2.25,0,3.85,0.52,4.92,1.51c1.08,0.99,1.71,2.39,1.71,4.36
		c0,1.98-0.61,3.6-1.75,4.72c-1.13,1.13-3.01,1.75-5.37,1.75c-1.12,0-2.05-0.05-2.84-0.14V487.36z M311.48,498.09
		c0.4,0.07,0.97,0.09,1.58,0.09c3.35,0,5.17-1.87,5.17-5.15c0.02-2.86-1.6-4.68-4.92-4.68c-0.81,0-1.42,0.07-1.84,0.16V498.09z"/>
	<path d="M328.18,493.64h-4.72v4.38h5.26v1.31h-6.82V487.2h6.55v1.31h-4.99v3.83h4.72V493.64z"/>
	<path d="M340.98,494c-0.09-1.69-0.2-3.73-0.18-5.24h-0.05c-0.41,1.42-0.92,2.94-1.53,4.61l-2.14,5.89h-1.19l-1.96-5.78
		c-0.58-1.71-1.06-3.28-1.4-4.72h-0.04c-0.04,1.51-0.13,3.55-0.23,5.37l-0.32,5.2h-1.5l0.85-12.14h2l2.07,5.87
		c0.5,1.49,0.92,2.83,1.22,4.09h0.05c0.31-1.22,0.74-2.56,1.28-4.09l2.16-5.87h2l0.76,12.14h-1.53L340.98,494z"/>
	<path d="M239.3,545.36c0.95-0.14,2.09-0.25,3.33-0.25c2.25,0,3.85,0.52,4.92,1.51c1.08,0.99,1.71,2.39,1.71,4.36
		c0,1.98-0.61,3.6-1.75,4.72c-1.13,1.13-3.01,1.75-5.37,1.75c-1.12,0-2.05-0.05-2.84-0.14V545.36z M240.86,556.09
		c0.4,0.07,0.97,0.09,1.58,0.09c3.35,0,5.17-1.87,5.17-5.15c0.02-2.86-1.6-4.68-4.92-4.68c-0.81,0-1.42,0.07-1.84,0.16V556.09z"/>
	<path d="M257.57,551.64h-4.72v4.38h5.26v1.31h-6.82V545.2h6.55v1.31h-4.99v3.83h4.72V551.64z"/>
	<path d="M270.37,552c-0.09-1.69-0.2-3.73-0.18-5.24h-0.05c-0.41,1.42-0.92,2.94-1.53,4.61l-2.14,5.89h-1.19l-1.96-5.78
		c-0.58-1.71-1.06-3.28-1.4-4.72h-0.04c-0.04,1.51-0.13,3.55-0.23,5.37l-0.32,5.2h-1.49l0.85-12.14h2l2.07,5.87
		c0.5,1.49,0.92,2.83,1.22,4.09h0.05c0.31-1.22,0.74-2.56,1.28-4.09l2.16-5.87h2l0.76,12.14h-1.53L270.37,552z"/>
	<path d="M284.98,551.14c0,4.18-2.54,6.39-5.64,6.39c-3.21,0-5.46-2.49-5.46-6.16c0-3.85,2.4-6.37,5.64-6.37
		C282.84,545,284.98,547.54,284.98,551.14z M275.57,551.34c0,2.59,1.4,4.92,3.87,4.92c2.48,0,3.89-2.29,3.89-5.04
		c0-2.41-1.26-4.93-3.87-4.93C276.86,546.28,275.57,548.67,275.57,551.34z"/>
	<path d="M309.91,545.36c0.95-0.14,2.09-0.25,3.33-0.25c2.25,0,3.85,0.52,4.92,1.51c1.08,0.99,1.71,2.39,1.71,4.36
		c0,1.98-0.61,3.6-1.75,4.72c-1.13,1.13-3.01,1.75-5.37,1.75c-1.12,0-2.05-0.05-2.84-0.14V545.36z M311.48,556.09
		c0.4,0.07,0.97,0.09,1.58,0.09c3.35,0,5.17-1.87,5.17-5.15c0.02-2.86-1.6-4.68-4.92-4.68c-0.81,0-1.42,0.07-1.84,0.16V556.09z"/>
	<path d="M328.18,551.64h-4.72v4.38h5.26v1.31h-6.82V545.2h6.55v1.31h-4.99v3.83h4.72V551.64z"/>
	<path d="M340.98,552c-0.09-1.69-0.2-3.73-0.18-5.24h-0.05c-0.41,1.42-0.92,2.94-1.53,4.61l-2.14,5.89h-1.19l-1.96-5.78
		c-0.58-1.71-1.06-3.28-1.4-4.72h-0.04c-0.04,1.51-0.13,3.55-0.23,5.37l-0.32,5.2h-1.5l0.85-12.14h2l2.07,5.87
		c0.5,1.49,0.92,2.83,1.22,4.09h0.05c0.31-1.22,0.74-2.56,1.28-4.09l2.16-5.87h2l0.76,12.14h-1.53L340.98,552z"/>
</g>
<rect x="4" y="5" class="st31" width="590" height="589"/>
<text transform="matrix(1 0 0 1 26.0908 17.7798)" class="st32"><tspan x="0" y="0" class="st33 st34 st35">DEMO      DEMO      DEMO      DEMO      DEMO       DEMO      DEMO      DEMO</tspan><tspan x="0" y="58" class="st33 st34 st35">DEMO      DEMO      DEMO      DEMO      DEMO       DEMO      DEMO      DEMO</tspan><tspan x="0" y="116" class="st33 st34 st35">DEMO      DEMO      DEMO      DEMO      DEMO       DEMO      DEMO      DEMO</tspan><tspan x="0" y="174" class="st33 st34 st35">DEMO      DEMO      DEMO      DEMO      DEMO       DEMO      DEMO      DEMO</tspan><tspan x="0" y="232" class="st33 st34 st35">DEMO      DEMO      DEMO      DEMO      DEMO       DEMO      DEMO      DEMO</tspan><tspan x="0" y="290" class="st33 st34 st35">DEMO      DEMO      DEMO      DEMO      DEMO       DEMO      DEMO      DEMO</tspan><tspan x="0" y="348" class="st33 st34 st35">DEMO      DEMO      DEMO      DEMO      DEMO       DEMO      DEMO      DEMO</tspan><tspan x="0" y="406" class="st33 st34 st35">DEMO      DEMO      DEMO      DEMO      DEMO       DEMO      DEMO      DEMO</tspan><tspan x="0" y="464" class="st33 st34 st35">DEMO      DEMO      DEMO      DEMO      DEMO       DEMO      DEMO      DEMO</tspan><tspan x="0" y="522" class="st33 st34 st35">DEMO      DEMO      DEMO      DEMO      DEMO       DEMO      DEMO      DEMO</tspan></text>
</svg>
