<?xml version="1.0" encoding="utf-8"?>
<!-- Generator: Adobe Illustrator 19.2.0, SVG Export Plug-In . SVG Version: 6.00 Build 0)  -->
<svg version="1.1" id="Illutrations_1_" xmlns="http://www.w3.org/2000/svg" xmlns:xlink="http://www.w3.org/1999/xlink" x="0px"
	 y="0px" viewBox="0 0 600 600" style="enable-background:new 0 0 600 600;" xml:space="preserve">
<style type="text/css">
	.st0{fill-rule:evenodd;clip-rule:evenodd;fill:#E69B61;}
	.st1{fill-rule:evenodd;clip-rule:evenodd;fill:#F5C16D;}
	.st2{fill-rule:evenodd;clip-rule:evenodd;fill:#CC4F67;}
	
		.st3{fill-rule:evenodd;clip-rule:evenodd;fill:none;stroke:#22303D;stroke-width:2;stroke-linecap:round;stroke-linejoin:round;stroke-miterlimit:100;}
	.st4{fill:#F5E4D4;stroke:#22303D;stroke-width:2;stroke-linecap:round;stroke-linejoin:round;stroke-miterlimit:100;}
	.st5{fill-rule:evenodd;clip-rule:evenodd;fill:#F77890;}
	.st6{fill:#CC4F67;}
	.st7{fill-rule:evenodd;clip-rule:evenodd;fill:#B43F55;}
	.st8{opacity:0.2;fill-rule:evenodd;clip-rule:evenodd;fill:#707686;}
	.st9{fill-rule:evenodd;clip-rule:evenodd;fill:#D95D75;}
	.st10{fill-rule:evenodd;clip-rule:evenodd;fill:none;stroke:#22303D;stroke-width:2;stroke-miterlimit:100;}
	.st11{opacity:0.902;fill-rule:evenodd;clip-rule:evenodd;fill:#89DAF6;}
	.st12{opacity:0.2;fill-rule:evenodd;clip-rule:evenodd;fill:#FFFFFF;}
	
		.st13{fill-rule:evenodd;clip-rule:evenodd;fill:none;stroke:#FFFFFF;stroke-width:2;stroke-linecap:round;stroke-linejoin:round;stroke-miterlimit:100;}
	.st14{fill:#FFFFFF;}
	.st15{fill-rule:evenodd;clip-rule:evenodd;fill:#F46B85;}
	.st16{fill:#2A96F6;}
	.st17{fill:#F2C26D;}
	.st18{opacity:0.4;}
</style>
<g id="UFO_1_">
	<path id="fire" class="st0" d="M131,319v203v28c0,13.25,10.75,24,24,24c13.25,0,24-10.75,24-24v-28v-2c0-13.25,10.75-24,24-24
		c13.25,0,24,10.75,24,24v2v6c0,13.25,10.75,24,24,24c13.25,0,24-10.75,24-24v-4v-2v-56c0-13.25,10.75-24,24-24
		c13.25,0,24,10.74,24,24v56v41c0,13.26,10.75,24,24,24c13.25,0,24-10.74,24-24v-7v-34v-24c0-13.25,10.75-24,24-24
		c13.25,0,24,10.75,24,24v24v5c0,13.25,10.75,24,24,24c13.25,0,24-10.75,24-24v-5V319H131z"/>
	<path id="fire_1_" class="st1" d="M131,319v195c0,13.26,10.75,24,24,24c13.25,0,24-10.74,24-24v-13v-50v-2c0-13.25,10.75-24,24-24
		c13.25,0,24,10.75,24,24v2v16c0,13.25,10.75,24,24,24c13.25,0,24-10.75,24-24v-16v-13c0-13.25,10.75-24,24-24
		c13.25,0,24,10.75,24,24v30v3c0,13.25,10.75,24,24,24c13.25,0,24-10.74,24-24v-3v-41c0-13.25,10.75-24,24-24
		c13.25,0,24,10.74,24,24v24v29c0,13.25,10.75,24,24,24c13.25,0,24-10.75,24-24V319H131z M347,508c-13.25,0-24,10.75-24,24
		c0,13.25,10.75,24,24,24c13.25,0,24-10.75,24-24C371,518.74,360.25,508,347,508z"/>
	<path id="fill_thickness" class="st2" d="M79,267c0,0,0,12.58,0,19c0,66.27,98.5,120,220,120c121.5,0,220-53.73,220-120
		c0-5.63,0-19,0-19H79z"/>
	<path id="thickness_2_" class="st3" d="M207.09,395.06C131.48,376.07,79,334.37,79,286c0-6.42,0-19,0-19h440c0,0,0,13.37,0,19
		c0,33.35-24.94,63.52-65.2,85.27 M442.21,377.09C403.73,395.11,353.69,406,299,406c-21.53,0-42.34-1.69-62.01-4.83 M223.08,398.66
		c-0.65-0.13-1.29-0.26-1.94-0.39"/>
	<path id="light" class="st4" d="M299,380c-4.42,0-8,3.58-8,8c0,4.42,3.58,8,8,8s8-3.58,8-8C307,383.58,303.42,380,299,380z
		 M199,370c-2.76,0-5,2.24-5,5s2.24,5,5,5c2.76,0,5-2.24,5-5S201.76,370,199,370z M118.15,333.74c-2.18-1.7-4.91-1.84-6.1-0.31
		c-1.19,1.52-0.39,4.14,1.79,5.83c2.18,1.7,4.91,1.84,6.1,0.31C121.13,338.05,120.33,335.44,118.15,333.74z M397,370
		c-2.76,0-5,2.24-5,5s2.24,5,5,5c2.76,0,5-2.24,5-5S399.76,370,397,370z M483.94,333.42c-1.19-1.53-3.92-1.39-6.1,0.31
		c-2.18,1.7-2.98,4.31-1.79,5.83c1.19,1.52,3.92,1.38,6.1-0.31C484.33,337.56,485.13,334.95,483.94,333.42z"/>
	<ellipse id="fill_housing" class="st5" cx="299" cy="267" rx="220" ry="100"/>
	<path id="housing_2_" class="st3" d="M499.06,308.66c-0.73,0.72-1.48,1.44-2.24,2.15 M490.81,316.01
		C453.09,346.45,381.33,367,299,367c-52.16,0-100.08-8.25-137.79-22.04 M150.42,340.75C106.52,322.47,79,296.19,79,267
		c0-55.23,98.5-100,220-100c121.5,0,220,44.77,220,100c0,12.14-4.76,23.77-13.48,34.54"/>
	<path id="fill_openings" class="st6" d="M299,329c-8.28,0-15,4.03-15,9c0,4.97,6.72,9,15,9c8.28,0,15-4.03,15-9
		C314,333.03,307.28,329,299,329z M397.36,315.82c-6.6,1.51-11.23,5.94-10.32,9.9c0.9,3.96,6.99,5.95,13.6,4.45
		c6.6-1.51,11.23-5.94,10.32-9.9C410.05,316.31,403.97,314.32,397.36,315.82z M475.04,267.71c-2.75-3-9.02-1.72-14.02,2.86
		c-4.99,4.58-6.82,10.72-4.07,13.71c2.75,3,9.02,1.72,14.02-2.86C475.97,276.85,477.79,270.71,475.04,267.71z M429.45,204.5
		c-5.98-3.17-12.38-2.84-14.28,0.76c-1.9,3.59,1.4,9.07,7.39,12.25c5.98,3.17,12.38,2.83,14.28-0.76
		C438.74,213.15,435.43,207.67,429.45,204.5z M132.97,270.57c-5-4.58-11.27-5.86-14.02-2.86c-2.75,3-0.92,9.14,4.07,13.71
		c4.99,4.58,11.27,5.86,14.02,2.86C139.79,281.29,137.97,275.15,132.97,270.57z M167.55,200.5c-5.98,3.17-9.29,8.66-7.39,12.25
		c1.9,3.59,8.3,3.93,14.28,0.75c5.98-3.17,9.29-8.66,7.39-12.25C179.93,197.66,173.54,197.32,167.55,200.5z M200.64,316.82
		c-6.6-1.51-12.69,0.48-13.6,4.44c-0.9,3.96,3.72,8.4,10.32,9.91c6.6,1.51,12.69-0.48,13.6-4.45
		C211.86,322.77,207.24,318.33,200.64,316.82z"/>
	<path id="openings_inner_shadow" class="st7" d="M193.04,321.27c0.55-2.41,3.02-4.08,6.35-4.69c-6.11-1-11.5,0.98-12.35,4.69
		c-0.9,3.96,3.72,8.4,10.32,9.91c2.59,0.59,5.1,0.64,7.25,0.24c-0.41-0.07-0.83-0.15-1.25-0.24
		C196.76,329.67,192.14,325.23,193.04,321.27z M118.96,267.71c-2.75,3-0.92,9.14,4.07,13.71c0.49,0.44,0.99,0.85,1.49,1.23
		c-3.01-4.04-3.78-8.52-1.56-10.94c2.48-2.71,7.83-1.92,12.53,1.63c-0.71-0.96-1.55-1.89-2.51-2.77
		C127.98,266,121.7,264.71,118.96,267.71z M302,329.18c-0.97-0.12-1.97-0.18-3-0.18c-8.28,0-15,4.03-15,9c0,4.97,6.72,9,15,9
		c1.03,0,2.03-0.06,3-0.18c-6.85-0.83-12-4.47-12-8.82C290,333.65,295.15,330.01,302,329.18z M167.55,200.5
		c-5.98,3.17-9.29,8.66-7.39,12.25c1.9,3.59,8.3,3.93,14.28,0.75c5.98-3.17,9.29-8.66,7.39-12.25
		C179.93,197.66,173.54,197.32,167.55,200.5z M473.97,276.42c-4.99,4.58-11.27,5.86-14.02,2.86c-1.5-1.64-1.63-4.21-0.63-6.95
		c-3.67,4.29-4.78,9.33-2.37,11.95c2.75,3,9.02,1.72,14.02-2.86c2.27-2.08,3.87-4.48,4.7-6.76
		C475.16,275.27,474.59,275.86,473.97,276.42z M391.04,321.73c-0.27-1.18-0.04-2.41,0.58-3.58c-3.3,2.06-5.19,4.93-4.58,7.58
		c0.9,3.96,6.99,5.95,13.6,4.45c4.63-1.06,8.28-3.55,9.74-6.32c-1.62,1.01-3.57,1.82-5.74,2.32
		C398.03,327.68,391.95,325.69,391.04,321.73z M429.45,204.5c-5.98-3.17-12.38-2.84-14.28,0.76c-1.9,3.59,1.4,9.07,7.39,12.25
		c5.98,3.17,12.38,2.83,14.28-0.76C438.74,213.15,435.43,207.67,429.45,204.5z"/>
	<path id="openings_2_" class="st3" d="M470.97,281.42c-4.99,4.58-11.27,5.86-14.02,2.86c-2.75-3-0.92-9.14,4.07-13.71
		c4.99-4.58,11.27-5.86,14.02-2.86C477.79,270.71,475.97,276.85,470.97,281.42z M422.55,217.5c-5.99-3.17-9.29-8.66-7.39-12.25
		c1.9-3.59,8.3-3.93,14.28-0.76c5.98,3.17,9.29,8.66,7.39,12.25C434.93,220.33,428.54,220.67,422.55,217.5z M404.41,315.54
		c3.43,0.58,5.99,2.28,6.55,4.73c0.9,3.96-3.72,8.4-10.32,9.9c-6.6,1.51-12.69-0.48-13.6-4.45c-0.9-3.96,3.72-8.4,10.32-9.9
		 M304.61,346.35c-1.73,0.42-3.62,0.65-5.61,0.65c-8.28,0-15-4.03-15-9c0-4.97,6.72-9,15-9c8.28,0,15,4.03,15,9
		c0,1.79-0.87,3.46-2.38,4.87 M197.36,331.17c-6.6-1.51-11.23-5.94-10.32-9.91c0.9-3.96,6.99-5.95,13.6-4.44
		c6.6,1.51,11.23,5.94,10.32,9.9C210.05,330.69,203.97,332.68,197.36,331.17z M160.16,212.74c-1.9-3.59,1.4-9.08,7.39-12.25
		c5.98-3.17,12.38-2.84,14.28,0.76c1.9,3.59-1.4,9.07-7.39,12.25C168.46,216.67,162.07,216.33,160.16,212.74z M129.43,285.3
		c-2.13-0.7-4.37-2.02-6.4-3.88c-5-4.58-6.82-10.72-4.07-13.71c2.75-3,9.02-1.72,14.02,2.86c5,4.58,6.82,10.72,4.07,13.71"/>
	<ellipse id="shadow" class="st8" cx="340.5" cy="254.5" rx="175.5" ry="60.5"/>
	<path id="fill_glass_mounting_back" class="st9" d="M299,170c-74.56,0-135,26.68-135,59.59c0,4.97,1.4,9.79,3.99,14.4
		c14.6-25.95,67.7-45.19,131.01-45.19S415.41,218.05,430.01,244c2.6-4.61,3.99-9.44,3.99-14.4C434,196.68,373.56,170,299,170z"/>
	<path id="glass_mounting_back_2_" class="st10" d="M299,198.81c-63.3,0-116.41,19.24-131.01,45.19c-2.6-4.61-3.99-9.44-3.99-14.4
		c0-32.91,60.44-59.59,135-59.59c74.56,0,135,26.68,135,59.59c0,4.97-1.4,9.79-3.99,14.4C415.41,218.05,362.3,198.81,299,198.81z"/>
	<path id="fill_glass" class="st11" d="M299,100c-74.56,0-135,66.16-135,127.48c0,3.23,0.18,6.42,0.51,9.58
		C180.21,263.49,234.45,283,299,283s118.79-19.5,134.49-45.94c0.33-3.16,0.51-6.35,0.51-9.58C434,166.16,373.56,100,299,100z"/>
	<path id="fill_glass_shine" class="st12" d="M204.51,237.06c-0.33-3.16-0.51-6.35-0.51-9.58c0-55.73,49.93-115.46,115-125.88
		c-6.53-1.05-13.2-1.6-20-1.6c-74.56,0-135,66.16-135,127.48c0,3.23,0.18,6.42,0.51,9.58C180.21,263.49,234.45,283,299,283
		c6.8,0,13.47-0.23,20-0.65C263.46,278.8,218.56,260.71,204.51,237.06z"/>
	<path id="glass_2_" class="st3" d="M299,283c-64.55,0-118.79-19.5-134.49-45.94c-0.33-3.16-0.51-6.35-0.51-9.58
		C164,166.16,224.44,100,299,100s135,66.16,135,127.48c0,3.23-0.18,6.42-0.51,9.58C417.79,263.49,363.55,283,299,283z"/>
	<path id="shine_4_" class="st13" d="M214.3,161.27c0.23-0.27,0.46-0.54,0.69-0.82 M225,150c0.99-0.92,2-1.81,3.02-2.7
		 M240.19,138.11C257.15,126.93,277.34,120,299,120"/>
	<path id="shine" class="st14" d="M333,122c-2.76,0-5,2.24-5,5c0,2.76,2.24,5,5,5c2.76,0,5-2.24,5-5C338,124.24,335.76,122,333,122z
		 M349,133c-1.66,0-3,1.34-3,3c0,1.66,1.34,3,3,3c1.66,0,3-1.34,3-3C352,134.34,350.66,133,349,133z"/>
	<path id="fill_glass_mounting_front" class="st15" d="M299,282c-74.56,0-135-26.86-135-60v30h0.06c1.21,32.67,61.14,59,134.94,59
		c73.8,0,133.74-26.33,134.94-59H434v-30C434,255.14,373.56,282,299,282z M164,219v3c0-1.01,0.06-2.01,0.17-3H164z M433.83,219
		c0.11,0.99,0.17,1.99,0.17,3v-3H433.83z"/>
	<path id="shadow_1_" class="st8" d="M430.01,236.5C415.41,262.63,362.31,282,299,282c-0.81,0-1.61-0.02-2.42-0.02
		c-2.99,7.08-6.57,14.14-10.8,21.05c-1.56,2.55-3.19,5.01-4.86,7.42c5.92,0.35,11.94,0.55,18.08,0.55c74.56,0,135-26.86,135-60
		C434,246,432.6,241.14,430.01,236.5z"/>
	<path id="glass_mounting_front_2_" class="st3" d="M253.96,307.58c-51.73-8.14-88.96-29.9-89.9-55.58H164v-1c0,0,0,0,0,0
		c0,0,0,0,0,0v-29c0,8.65,4.12,16.88,11.54,24.31 M179.73,250.13c0.56,0.47,1.14,0.94,1.73,1.4 M186.22,254.99
		C210.36,271.26,251.86,282,299,282c27.36,0,52.83-3.62,74.1-9.84 M380.95,269.68C413.2,258.72,434,241.44,434,222
		c0-1.01-0.06-2.01-0.17-3H434v33h-0.06c-0.25,6.89-3.12,13.49-8.17,19.62 M421.42,276.29C399.97,296.79,353.23,311,299,311
		c-9.15,0-18.08-0.4-26.71-1.17"/>
</g>
<path id="figures_crosses_2_" class="st16" d="M494.85,152c-1.58,0-2.86-1.28-2.86-2.86c0-1.57-1.14-2.97-2.69-3.13
	c-1.79-0.18-3.31,1.23-3.31,2.98v0.14c0,1.58-1.28,2.86-2.86,2.86c-1.56,0-2.97,1.14-3.12,2.69c-0.18,1.79,1.23,3.31,2.98,3.31h0.14
	c1.58,0,2.86,1.28,2.86,2.86c0,1.56,1.14,2.97,2.69,3.13c1.79,0.18,3.31-1.23,3.31-2.98v-0.14c0-1.58,1.28-2.86,2.86-2.86h0.14
	c1.75,0,3.16-1.52,2.98-3.31C497.82,153.14,496.41,152,494.85,152z M350.81,27c-2.1,0-3.81-1.71-3.81-3.81
	c0-2.09-1.51-3.96-3.59-4.17c-2.38-0.24-4.41,1.64-4.41,3.98v0.19c0,2.1-1.71,3.81-3.81,3.81h0c-2.08,0-3.96,1.51-4.17,3.59
	c-0.24,2.38,1.64,4.41,3.98,4.41h0.19c2.1,0,3.81,1.71,3.81,3.81c0,2.09,1.51,3.96,3.59,4.17c2.38,0.24,4.41-1.64,4.41-3.98v-0.19
	c0-2.11,1.71-3.81,3.81-3.81H351c2.33,0,4.22-2.03,3.98-4.41C354.77,28.51,352.9,27,350.81,27z M150.8,67
	c-2.1,0-3.81-1.71-3.81-3.81c0-2.09-1.51-3.96-3.59-4.17C141.02,58.78,139,60.66,139,63v0.19c0,2.11-1.71,3.81-3.81,3.81
	c-2.08,0-3.96,1.51-4.17,3.59C130.78,72.97,132.66,75,135,75h0.19c2.1,0,3.81,1.71,3.81,3.81c0,2.09,1.51,3.96,3.59,4.17
	c2.38,0.24,4.41-1.64,4.41-3.98v-0.19c0-2.1,1.71-3.81,3.81-3.81h0.19c2.33,0,4.22-2.03,3.98-4.41C154.76,68.51,152.89,67,150.8,67z
	"/>
<g id="figures_circles_2_">
	<path class="st17" d="M240.49,31c4.68,0,8.49,3.81,8.49,8.5c0,4.69-3.81,8.5-8.49,8.5S232,44.19,232,39.5
		C232,34.81,235.81,31,240.49,31 M429.01,88c1.1,0,2,0.9,2,2c0,1.1-0.9,2-2,2s-2-0.9-2-2C427.02,88.9,427.91,88,429.01,88
		 M122.01,161c1.1,0,2,0.9,2,2c0,1.1-0.9,2-2,2s-2-0.9-2-2C120.02,161.89,120.91,161,122.01,161 M240.49,25
		c-8,0-14.49,6.49-14.49,14.5c0,8.01,6.49,14.5,14.49,14.5s14.49-6.49,14.49-14.5C254.99,31.49,248.5,25,240.49,25L240.49,25z
		 M429.01,82c-4.42,0-8,3.58-8,8c0,4.42,3.58,8,8,8c4.42,0,8-3.58,8-8C437.01,85.58,433.43,82,429.01,82L429.01,82z M122.01,155
		c-4.42,0-8,3.58-8,8c0,4.42,3.58,8,8,8c4.42,0,8-3.58,8-8C130.01,158.58,126.43,155,122.01,155L122.01,155z"/>
</g>
<g class="st18">
	<path d="M276.15,105.36c0.95-0.14,2.09-0.25,3.33-0.25c2.25,0,3.85,0.52,4.92,1.51c1.08,0.99,1.71,2.4,1.71,4.36
		c0,1.98-0.61,3.6-1.75,4.72c-1.13,1.13-3.01,1.75-5.37,1.75c-1.12,0-2.05-0.05-2.84-0.14V105.36z M277.72,116.09
		c0.4,0.07,0.97,0.09,1.58,0.09c3.35,0,5.17-1.87,5.17-5.15c0.02-2.86-1.6-4.68-4.92-4.68c-0.81,0-1.42,0.07-1.84,0.16V116.09z"/>
	<path d="M294.42,111.64h-4.72v4.38h5.26v1.31h-6.82V105.2h6.55v1.31h-4.99v3.84h4.72V111.64z"/>
	<path d="M307.22,112c-0.09-1.69-0.2-3.73-0.18-5.24h-0.05c-0.41,1.42-0.92,2.94-1.53,4.61l-2.14,5.89h-1.19l-1.96-5.78
		c-0.58-1.71-1.06-3.28-1.4-4.72h-0.04c-0.04,1.51-0.13,3.55-0.23,5.37l-0.32,5.2h-1.5l0.85-12.14h2l2.07,5.87
		c0.5,1.49,0.92,2.83,1.22,4.09h0.05c0.31-1.22,0.74-2.56,1.28-4.09l2.16-5.87h2l0.76,12.14h-1.53L307.22,112z"/>
	<path d="M321.84,111.14c0,4.18-2.54,6.39-5.64,6.39c-3.21,0-5.46-2.48-5.46-6.16c0-3.85,2.39-6.37,5.64-6.37
		C319.7,105,321.84,107.54,321.84,111.14z M312.42,111.34c0,2.59,1.41,4.92,3.87,4.92c2.49,0,3.89-2.29,3.89-5.04
		c0-2.41-1.26-4.93-3.87-4.93C313.72,106.28,312.42,108.67,312.42,111.34z"/>
	<path d="M195.68,159.98c-0.09-1.69-0.2-3.73-0.18-5.24h-0.05c-0.41,1.42-0.92,2.94-1.53,4.61l-2.14,5.89h-1.19l-1.96-5.78
		c-0.58-1.71-1.06-3.28-1.4-4.72h-0.04c-0.04,1.51-0.13,3.55-0.23,5.37l-0.32,5.2h-1.49l0.85-12.14h2l2.07,5.87
		c0.5,1.49,0.92,2.83,1.22,4.09h0.05c0.31-1.22,0.74-2.56,1.28-4.09l2.16-5.87h2l0.76,12.14h-1.53L195.68,159.98z"/>
	<path d="M210.3,159.12c0,4.18-2.54,6.39-5.64,6.39c-3.21,0-5.46-2.48-5.46-6.16c0-3.85,2.39-6.37,5.64-6.37
		C208.16,152.98,210.3,155.52,210.3,159.12z M200.88,159.32c0,2.59,1.4,4.92,3.87,4.92c2.48,0,3.89-2.29,3.89-5.04
		c0-2.41-1.26-4.93-3.87-4.93C202.18,154.26,200.88,156.65,200.88,159.32z"/>
	<path d="M235.23,153.34c0.95-0.14,2.09-0.25,3.33-0.25c2.25,0,3.85,0.52,4.92,1.51c1.08,0.99,1.71,2.4,1.71,4.36
		c0,1.98-0.61,3.6-1.75,4.72c-1.13,1.13-3.01,1.75-5.37,1.75c-1.12,0-2.05-0.05-2.84-0.14V153.34z M236.79,164.07
		c0.4,0.07,0.97,0.09,1.58,0.09c3.35,0,5.17-1.87,5.17-5.15c0.02-2.86-1.6-4.68-4.92-4.68c-0.81,0-1.42,0.07-1.84,0.16V164.07z"/>
	<path d="M253.5,159.62h-4.72V164h5.26v1.31h-6.82v-12.14h6.55v1.31h-4.99v3.84h4.72V159.62z"/>
	<path d="M266.3,159.98c-0.09-1.69-0.2-3.73-0.18-5.24h-0.05c-0.41,1.42-0.92,2.94-1.53,4.61l-2.14,5.89h-1.19l-1.96-5.78
		c-0.58-1.71-1.06-3.28-1.4-4.72h-0.04c-0.04,1.51-0.13,3.55-0.23,5.37l-0.32,5.2h-1.49l0.85-12.14h2l2.07,5.87
		c0.5,1.49,0.92,2.83,1.22,4.09h0.05c0.31-1.22,0.74-2.56,1.28-4.09l2.16-5.87h2l0.76,12.14h-1.53L266.3,159.98z"/>
	<path d="M280.91,159.12c0,4.18-2.54,6.39-5.64,6.39c-3.21,0-5.46-2.48-5.46-6.16c0-3.85,2.4-6.37,5.64-6.37
		C278.77,152.98,280.91,155.52,280.91,159.12z M271.5,159.32c0,2.59,1.4,4.92,3.87,4.92c2.48,0,3.89-2.29,3.89-5.04
		c0-2.41-1.26-4.93-3.87-4.93C272.79,154.26,271.5,156.65,271.5,159.32z"/>
	<path d="M305.84,153.34c0.95-0.14,2.09-0.25,3.33-0.25c2.25,0,3.85,0.52,4.92,1.51c1.08,0.99,1.71,2.4,1.71,4.36
		c0,1.98-0.61,3.6-1.75,4.72c-1.13,1.13-3.01,1.75-5.37,1.75c-1.12,0-2.05-0.05-2.84-0.14V153.34z M307.4,164.07
		c0.4,0.07,0.97,0.09,1.58,0.09c3.35,0,5.17-1.87,5.17-5.15c0.02-2.86-1.6-4.68-4.92-4.68c-0.81,0-1.42,0.07-1.84,0.16V164.07z"/>
	<path d="M324.11,159.62h-4.72V164h5.26v1.31h-6.82v-12.14h6.55v1.31h-4.99v3.84h4.72V159.62z"/>
	<path d="M336.91,159.98c-0.09-1.69-0.2-3.73-0.18-5.24h-0.05c-0.41,1.42-0.92,2.94-1.53,4.61l-2.14,5.89h-1.19l-1.96-5.78
		c-0.58-1.71-1.06-3.28-1.4-4.72h-0.04c-0.04,1.51-0.13,3.55-0.23,5.37l-0.32,5.2h-1.5l0.85-12.14h2l2.07,5.87
		c0.5,1.49,0.92,2.83,1.22,4.09h0.05c0.31-1.22,0.74-2.56,1.28-4.09l2.16-5.87h2l0.76,12.14h-1.53L336.91,159.98z"/>
	<path d="M351.52,159.12c0,4.18-2.54,6.39-5.64,6.39c-3.21,0-5.46-2.48-5.46-6.16c0-3.85,2.39-6.37,5.64-6.37
		C349.38,152.98,351.52,155.52,351.52,159.12z M342.11,159.32c0,2.59,1.41,4.92,3.87,4.92c2.49,0,3.89-2.29,3.89-5.04
		c0-2.41-1.26-4.93-3.87-4.93C343.4,154.26,342.11,156.65,342.11,159.32z"/>
	<path d="M380.26,153.34c0.95-0.14,2.09-0.25,3.33-0.25c2.25,0,3.85,0.52,4.92,1.51c1.08,0.99,1.71,2.4,1.71,4.36
		c0,1.98-0.61,3.6-1.75,4.72c-1.13,1.13-3.01,1.75-5.37,1.75c-1.12,0-2.05-0.05-2.84-0.14V153.34z M381.83,164.07
		c0.4,0.07,0.97,0.09,1.58,0.09c3.35,0,5.17-1.87,5.17-5.15c0.02-2.86-1.6-4.68-4.92-4.68c-0.81,0-1.42,0.07-1.84,0.16V164.07z"/>
	<path d="M398.53,159.62h-4.72V164h5.26v1.31h-6.82v-12.14h6.55v1.31h-4.99v3.84h4.72V159.62z"/>
	<path d="M411.33,159.98c-0.09-1.69-0.2-3.73-0.18-5.24h-0.05c-0.41,1.42-0.92,2.94-1.53,4.61l-2.14,5.89h-1.19l-1.96-5.78
		c-0.58-1.71-1.06-3.28-1.4-4.72h-0.04c-0.04,1.51-0.13,3.55-0.23,5.37l-0.32,5.2h-1.5l0.85-12.14h2l2.07,5.87
		c0.5,1.49,0.92,2.83,1.22,4.09h0.05c0.31-1.22,0.74-2.56,1.28-4.09l2.16-5.87h2l0.76,12.14h-1.53L411.33,159.98z"/>
	<path d="M112.27,217.62h-4.72V222h5.26v1.31h-6.82v-12.14h6.55v1.31h-4.99v3.84h4.72V217.62z"/>
	<path d="M125.07,217.98c-0.09-1.69-0.2-3.73-0.18-5.24h-0.05c-0.41,1.42-0.92,2.94-1.53,4.61l-2.14,5.89h-1.19l-1.96-5.78
		c-0.58-1.71-1.06-3.28-1.4-4.72h-0.04c-0.04,1.51-0.13,3.55-0.23,5.37l-0.32,5.2h-1.49l0.85-12.14h2l2.07,5.87
		c0.5,1.49,0.92,2.83,1.22,4.09h0.05c0.31-1.22,0.74-2.56,1.28-4.09l2.16-5.87h2l0.76,12.14h-1.53L125.07,217.98z"/>
	<path d="M139.69,217.12c0,4.18-2.54,6.39-5.64,6.39c-3.21,0-5.46-2.48-5.46-6.16c0-3.85,2.4-6.37,5.64-6.37
		C137.54,210.98,139.69,213.52,139.69,217.12z M130.27,217.32c0,2.59,1.4,4.92,3.87,4.92c2.48,0,3.89-2.29,3.89-5.04
		c0-2.41-1.26-4.93-3.87-4.93C131.57,212.26,130.27,214.65,130.27,217.32z"/>
	<path d="M164.61,211.34c0.95-0.14,2.09-0.25,3.33-0.25c2.25,0,3.85,0.52,4.92,1.51c1.08,0.99,1.71,2.4,1.71,4.36
		c0,1.98-0.61,3.6-1.75,4.72c-1.13,1.13-3.01,1.75-5.37,1.75c-1.12,0-2.05-0.05-2.85-0.14V211.34z M166.18,222.07
		c0.4,0.07,0.97,0.09,1.58,0.09c3.35,0,5.17-1.87,5.17-5.15c0.02-2.86-1.6-4.68-4.92-4.68c-0.81,0-1.42,0.07-1.84,0.16V222.07z"/>
	<path d="M182.88,217.62h-4.72V222h5.26v1.31h-6.82v-12.14h6.55v1.31h-4.99v3.84h4.72V217.62z"/>
	<path d="M195.68,217.98c-0.09-1.69-0.2-3.73-0.18-5.24h-0.05c-0.41,1.42-0.92,2.94-1.53,4.61l-2.14,5.89h-1.19l-1.96-5.78
		c-0.58-1.71-1.06-3.28-1.4-4.72h-0.04c-0.04,1.51-0.13,3.55-0.23,5.37l-0.32,5.2h-1.49l0.85-12.14h2l2.07,5.87
		c0.5,1.49,0.92,2.83,1.22,4.09h0.05c0.31-1.22,0.74-2.56,1.28-4.09l2.16-5.87h2l0.76,12.14h-1.53L195.68,217.98z"/>
	<path d="M210.3,217.12c0,4.18-2.54,6.39-5.64,6.39c-3.21,0-5.46-2.48-5.46-6.16c0-3.85,2.39-6.37,5.64-6.37
		C208.16,210.98,210.3,213.52,210.3,217.12z M200.88,217.32c0,2.59,1.4,4.92,3.87,4.92c2.48,0,3.89-2.29,3.89-5.04
		c0-2.41-1.26-4.93-3.87-4.93C202.18,212.26,200.88,214.65,200.88,217.32z"/>
	<path d="M235.23,211.34c0.95-0.14,2.09-0.25,3.33-0.25c2.25,0,3.85,0.52,4.92,1.51c1.08,0.99,1.71,2.4,1.71,4.36
		c0,1.98-0.61,3.6-1.75,4.72c-1.13,1.13-3.01,1.75-5.37,1.75c-1.12,0-2.05-0.05-2.84-0.14V211.34z M236.79,222.07
		c0.4,0.07,0.97,0.09,1.58,0.09c3.35,0,5.17-1.87,5.17-5.15c0.02-2.86-1.6-4.68-4.92-4.68c-0.81,0-1.42,0.07-1.84,0.16V222.07z"/>
	<path d="M253.5,217.62h-4.72V222h5.26v1.31h-6.82v-12.14h6.55v1.31h-4.99v3.84h4.72V217.62z"/>
	<path d="M266.3,217.98c-0.09-1.69-0.2-3.73-0.18-5.24h-0.05c-0.41,1.42-0.92,2.94-1.53,4.61l-2.14,5.89h-1.19l-1.96-5.78
		c-0.58-1.71-1.06-3.28-1.4-4.72h-0.04c-0.04,1.51-0.13,3.55-0.23,5.37l-0.32,5.2h-1.49l0.85-12.14h2l2.07,5.87
		c0.5,1.49,0.92,2.83,1.22,4.09h0.05c0.31-1.22,0.74-2.56,1.28-4.09l2.16-5.87h2l0.76,12.14h-1.53L266.3,217.98z"/>
	<path d="M280.91,217.12c0,4.18-2.54,6.39-5.64,6.39c-3.21,0-5.46-2.48-5.46-6.16c0-3.85,2.4-6.37,5.64-6.37
		C278.77,210.98,280.91,213.52,280.91,217.12z M271.5,217.32c0,2.59,1.4,4.92,3.87,4.92c2.48,0,3.89-2.29,3.89-5.04
		c0-2.41-1.26-4.93-3.87-4.93C272.79,212.26,271.5,214.65,271.5,217.32z"/>
	<path d="M305.84,211.34c0.95-0.14,2.09-0.25,3.33-0.25c2.25,0,3.85,0.52,4.92,1.51c1.08,0.99,1.71,2.4,1.71,4.36
		c0,1.98-0.61,3.6-1.75,4.72c-1.13,1.13-3.01,1.75-5.37,1.75c-1.12,0-2.05-0.05-2.84-0.14V211.34z M307.4,222.07
		c0.4,0.07,0.97,0.09,1.58,0.09c3.35,0,5.17-1.87,5.17-5.15c0.02-2.86-1.6-4.68-4.92-4.68c-0.81,0-1.42,0.07-1.84,0.16V222.07z"/>
	<path d="M324.11,217.62h-4.72V222h5.26v1.31h-6.82v-12.14h6.55v1.31h-4.99v3.84h4.72V217.62z"/>
	<path d="M336.91,217.98c-0.09-1.69-0.2-3.73-0.18-5.24h-0.05c-0.41,1.42-0.92,2.94-1.53,4.61l-2.14,5.89h-1.19l-1.96-5.78
		c-0.58-1.71-1.06-3.28-1.4-4.72h-0.04c-0.04,1.51-0.13,3.55-0.23,5.37l-0.32,5.2h-1.5l0.85-12.14h2l2.07,5.87
		c0.5,1.49,0.92,2.83,1.22,4.09h0.05c0.31-1.22,0.74-2.56,1.28-4.09l2.16-5.87h2l0.76,12.14h-1.53L336.91,217.98z"/>
	<path d="M351.52,217.12c0,4.18-2.54,6.39-5.64,6.39c-3.21,0-5.46-2.48-5.46-6.16c0-3.85,2.39-6.37,5.64-6.37
		C349.38,210.98,351.52,213.52,351.52,217.12z M342.11,217.32c0,2.59,1.41,4.92,3.87,4.92c2.49,0,3.89-2.29,3.89-5.04
		c0-2.41-1.26-4.93-3.87-4.93C343.4,212.26,342.11,214.65,342.11,217.32z"/>
	<path d="M380.26,211.34c0.95-0.14,2.09-0.25,3.33-0.25c2.25,0,3.85,0.52,4.92,1.51c1.08,0.99,1.71,2.4,1.71,4.36
		c0,1.98-0.61,3.6-1.75,4.72c-1.13,1.13-3.01,1.75-5.37,1.75c-1.12,0-2.05-0.05-2.84-0.14V211.34z M381.83,222.07
		c0.4,0.07,0.97,0.09,1.58,0.09c3.35,0,5.17-1.87,5.17-5.15c0.02-2.86-1.6-4.68-4.92-4.68c-0.81,0-1.42,0.07-1.84,0.16V222.07z"/>
	<path d="M398.53,217.62h-4.72V222h5.26v1.31h-6.82v-12.14h6.55v1.31h-4.99v3.84h4.72V217.62z"/>
	<path d="M411.33,217.98c-0.09-1.69-0.2-3.73-0.18-5.24h-0.05c-0.41,1.42-0.92,2.94-1.53,4.61l-2.14,5.89h-1.19l-1.96-5.78
		c-0.58-1.71-1.06-3.28-1.4-4.72h-0.04c-0.04,1.51-0.13,3.55-0.23,5.37l-0.32,5.2h-1.5l0.85-12.14h2l2.07,5.87
		c0.5,1.49,0.92,2.83,1.22,4.09h0.05c0.31-1.22,0.74-2.56,1.28-4.09l2.16-5.87h2l0.76,12.14h-1.53L411.33,217.98z"/>
	<path d="M425.95,217.12c0,4.18-2.54,6.39-5.64,6.39c-3.21,0-5.46-2.48-5.46-6.16c0-3.85,2.39-6.37,5.64-6.37
		C423.8,210.98,425.95,213.52,425.95,217.12z M416.53,217.32c0,2.59,1.41,4.92,3.87,4.92c2.48,0,3.89-2.29,3.89-5.04
		c0-2.41-1.26-4.93-3.87-4.93C417.83,212.26,416.53,214.65,416.53,217.32z"/>
	<path d="M450.87,211.34c0.95-0.14,2.09-0.25,3.33-0.25c2.25,0,3.85,0.52,4.92,1.51c1.08,0.99,1.71,2.4,1.71,4.36
		c0,1.98-0.61,3.6-1.75,4.72c-1.13,1.13-3.01,1.75-5.37,1.75c-1.12,0-2.05-0.05-2.84-0.14V211.34z M452.44,222.07
		c0.4,0.07,0.97,0.09,1.58,0.09c3.35,0,5.17-1.87,5.17-5.15c0.02-2.86-1.6-4.68-4.92-4.68c-0.81,0-1.42,0.07-1.84,0.16V222.07z"/>
	<path d="M469.14,217.62h-4.72V222h5.26v1.31h-6.82v-12.14h6.55v1.31h-4.99v3.84h4.72V217.62z"/>
	<path d="M481.94,217.98c-0.09-1.69-0.2-3.73-0.18-5.24h-0.05c-0.41,1.42-0.92,2.94-1.53,4.61l-2.14,5.89h-1.19l-1.96-5.78
		c-0.58-1.71-1.06-3.28-1.4-4.72h-0.04c-0.04,1.51-0.13,3.55-0.23,5.37l-0.32,5.2h-1.5l0.85-12.14h2l2.07,5.87
		c0.5,1.49,0.92,2.83,1.22,4.09h0.05c0.31-1.22,0.74-2.56,1.28-4.09l2.16-5.87h2l0.76,12.14h-1.53L481.94,217.98z"/>
	<path d="M496.56,217.12c0,4.18-2.54,6.39-5.64,6.39c-3.21,0-5.46-2.48-5.46-6.16c0-3.85,2.39-6.37,5.64-6.37
		C494.41,210.98,496.56,213.52,496.56,217.12z M487.14,217.32c0,2.59,1.41,4.92,3.87,4.92c2.48,0,3.89-2.29,3.89-5.04
		c0-2.41-1.26-4.93-3.87-4.93C488.44,212.26,487.14,214.65,487.14,217.32z"/>
	<path d="M94,269.34c0.95-0.14,2.09-0.25,3.33-0.25c2.25,0,3.85,0.52,4.92,1.51c1.08,0.99,1.71,2.4,1.71,4.36
		c0,1.98-0.61,3.6-1.75,4.72c-1.13,1.13-3.01,1.75-5.37,1.75c-1.12,0-2.05-0.05-2.84-0.14V269.34z M95.57,280.07
		c0.4,0.07,0.97,0.09,1.58,0.09c3.35,0,5.17-1.87,5.17-5.15c0.02-2.86-1.6-4.68-4.92-4.68c-0.81,0-1.42,0.07-1.84,0.16V280.07z"/>
	<path d="M112.27,275.62h-4.72V280h5.26v1.31h-6.82v-12.14h6.55v1.31h-4.99v3.84h4.72V275.62z"/>
	<path d="M125.07,275.98c-0.09-1.69-0.2-3.73-0.18-5.24h-0.05c-0.41,1.42-0.92,2.94-1.53,4.61l-2.14,5.89h-1.19l-1.96-5.78
		c-0.58-1.71-1.06-3.28-1.4-4.72h-0.04c-0.04,1.51-0.13,3.55-0.23,5.37l-0.32,5.2h-1.49l0.85-12.14h2l2.07,5.87
		c0.5,1.49,0.92,2.83,1.22,4.09h0.05c0.31-1.22,0.74-2.56,1.28-4.09l2.16-5.87h2l0.76,12.14h-1.53L125.07,275.98z"/>
	<path d="M139.69,275.12c0,4.18-2.54,6.39-5.64,6.39c-3.21,0-5.46-2.48-5.46-6.16c0-3.85,2.4-6.37,5.64-6.37
		C137.54,268.98,139.69,271.52,139.69,275.12z M130.27,275.32c0,2.59,1.4,4.92,3.87,4.92c2.48,0,3.89-2.29,3.89-5.04
		c0-2.41-1.26-4.93-3.87-4.93C131.57,270.26,130.27,272.65,130.27,275.32z"/>
	<path d="M164.61,269.34c0.95-0.14,2.09-0.25,3.33-0.25c2.25,0,3.85,0.52,4.92,1.51c1.08,0.99,1.71,2.4,1.71,4.36
		c0,1.98-0.61,3.6-1.75,4.72c-1.13,1.13-3.01,1.75-5.37,1.75c-1.12,0-2.05-0.05-2.85-0.14V269.34z M166.18,280.07
		c0.4,0.07,0.97,0.09,1.58,0.09c3.35,0,5.17-1.87,5.17-5.15c0.02-2.86-1.6-4.68-4.92-4.68c-0.81,0-1.42,0.07-1.84,0.16V280.07z"/>
	<path d="M182.88,275.62h-4.72V280h5.26v1.31h-6.82v-12.14h6.55v1.31h-4.99v3.84h4.72V275.62z"/>
	<path d="M195.68,275.98c-0.09-1.69-0.2-3.73-0.18-5.24h-0.05c-0.41,1.42-0.92,2.94-1.53,4.61l-2.14,5.89h-1.19l-1.96-5.78
		c-0.58-1.71-1.06-3.28-1.4-4.72h-0.04c-0.04,1.51-0.13,3.55-0.23,5.37l-0.32,5.2h-1.49l0.85-12.14h2l2.07,5.87
		c0.5,1.49,0.92,2.83,1.22,4.09h0.05c0.31-1.22,0.74-2.56,1.28-4.09l2.16-5.87h2l0.76,12.14h-1.53L195.68,275.98z"/>
	<path d="M210.3,275.12c0,4.18-2.54,6.39-5.64,6.39c-3.21,0-5.46-2.48-5.46-6.16c0-3.85,2.39-6.37,5.64-6.37
		C208.16,268.98,210.3,271.52,210.3,275.12z M200.88,275.32c0,2.59,1.4,4.92,3.87,4.92c2.48,0,3.89-2.29,3.89-5.04
		c0-2.41-1.26-4.93-3.87-4.93C202.18,270.26,200.88,272.65,200.88,275.32z"/>
	<path d="M235.23,269.34c0.95-0.14,2.09-0.25,3.33-0.25c2.25,0,3.85,0.52,4.92,1.51c1.08,0.99,1.71,2.4,1.71,4.36
		c0,1.98-0.61,3.6-1.75,4.72c-1.13,1.13-3.01,1.75-5.37,1.75c-1.12,0-2.05-0.05-2.84-0.14V269.34z M236.79,280.07
		c0.4,0.07,0.97,0.09,1.58,0.09c3.35,0,5.17-1.87,5.17-5.15c0.02-2.86-1.6-4.68-4.92-4.68c-0.81,0-1.42,0.07-1.84,0.16V280.07z"/>
	<path d="M253.5,275.62h-4.72V280h5.26v1.31h-6.82v-12.14h6.55v1.31h-4.99v3.84h4.72V275.62z"/>
	<path d="M266.3,275.98c-0.09-1.69-0.2-3.73-0.18-5.24h-0.05c-0.41,1.42-0.92,2.94-1.53,4.61l-2.14,5.89h-1.19l-1.96-5.78
		c-0.58-1.71-1.06-3.28-1.4-4.72h-0.04c-0.04,1.51-0.13,3.55-0.23,5.37l-0.32,5.2h-1.49l0.85-12.14h2l2.07,5.87
		c0.5,1.49,0.92,2.83,1.22,4.09h0.05c0.31-1.22,0.74-2.56,1.28-4.09l2.16-5.87h2l0.76,12.14h-1.53L266.3,275.98z"/>
	<path d="M280.91,275.12c0,4.18-2.54,6.39-5.64,6.39c-3.21,0-5.46-2.48-5.46-6.16c0-3.85,2.4-6.37,5.64-6.37
		C278.77,268.98,280.91,271.52,280.91,275.12z M271.5,275.32c0,2.59,1.4,4.92,3.87,4.92c2.48,0,3.89-2.29,3.89-5.04
		c0-2.41-1.26-4.93-3.87-4.93C272.79,270.26,271.5,272.65,271.5,275.32z"/>
	<path d="M305.84,269.34c0.95-0.14,2.09-0.25,3.33-0.25c2.25,0,3.85,0.52,4.92,1.51c1.08,0.99,1.71,2.4,1.71,4.36
		c0,1.98-0.61,3.6-1.75,4.72c-1.13,1.13-3.01,1.75-5.37,1.75c-1.12,0-2.05-0.05-2.84-0.14V269.34z M307.4,280.07
		c0.4,0.07,0.97,0.09,1.58,0.09c3.35,0,5.17-1.87,5.17-5.15c0.02-2.86-1.6-4.68-4.92-4.68c-0.81,0-1.42,0.07-1.84,0.16V280.07z"/>
	<path d="M324.11,275.62h-4.72V280h5.26v1.31h-6.82v-12.14h6.55v1.31h-4.99v3.84h4.72V275.62z"/>
	<path d="M336.91,275.98c-0.09-1.69-0.2-3.73-0.18-5.24h-0.05c-0.41,1.42-0.92,2.94-1.53,4.61l-2.14,5.89h-1.19l-1.96-5.78
		c-0.58-1.71-1.06-3.28-1.4-4.72h-0.04c-0.04,1.51-0.13,3.55-0.23,5.37l-0.32,5.2h-1.5l0.85-12.14h2l2.07,5.87
		c0.5,1.49,0.92,2.83,1.22,4.09h0.05c0.31-1.22,0.74-2.56,1.28-4.09l2.16-5.87h2l0.76,12.14h-1.53L336.91,275.98z"/>
	<path d="M351.52,275.12c0,4.18-2.54,6.39-5.64,6.39c-3.21,0-5.46-2.48-5.46-6.16c0-3.85,2.39-6.37,5.64-6.37
		C349.38,268.98,351.52,271.52,351.52,275.12z M342.11,275.32c0,2.59,1.41,4.92,3.87,4.92c2.49,0,3.89-2.29,3.89-5.04
		c0-2.41-1.26-4.93-3.87-4.93C343.4,270.26,342.11,272.65,342.11,275.32z"/>
	<path d="M380.26,269.34c0.95-0.14,2.09-0.25,3.33-0.25c2.25,0,3.85,0.52,4.92,1.51c1.08,0.99,1.71,2.4,1.71,4.36
		c0,1.98-0.61,3.6-1.75,4.72c-1.13,1.13-3.01,1.75-5.37,1.75c-1.12,0-2.05-0.05-2.84-0.14V269.34z M381.83,280.07
		c0.4,0.07,0.97,0.09,1.58,0.09c3.35,0,5.17-1.87,5.17-5.15c0.02-2.86-1.6-4.68-4.92-4.68c-0.81,0-1.42,0.07-1.84,0.16V280.07z"/>
	<path d="M398.53,275.62h-4.72V280h5.26v1.31h-6.82v-12.14h6.55v1.31h-4.99v3.84h4.72V275.62z"/>
	<path d="M411.33,275.98c-0.09-1.69-0.2-3.73-0.18-5.24h-0.05c-0.41,1.42-0.92,2.94-1.53,4.61l-2.14,5.89h-1.19l-1.96-5.78
		c-0.58-1.71-1.06-3.28-1.4-4.72h-0.04c-0.04,1.51-0.13,3.55-0.23,5.37l-0.32,5.2h-1.5l0.85-12.14h2l2.07,5.87
		c0.5,1.49,0.92,2.83,1.22,4.09h0.05c0.31-1.22,0.74-2.56,1.28-4.09l2.16-5.87h2l0.76,12.14h-1.53L411.33,275.98z"/>
	<path d="M425.95,275.12c0,4.18-2.54,6.39-5.64,6.39c-3.21,0-5.46-2.48-5.46-6.16c0-3.85,2.39-6.37,5.64-6.37
		C423.8,268.98,425.95,271.52,425.95,275.12z M416.53,275.32c0,2.59,1.41,4.92,3.87,4.92c2.48,0,3.89-2.29,3.89-5.04
		c0-2.41-1.26-4.93-3.87-4.93C417.83,270.26,416.53,272.65,416.53,275.32z"/>
	<path d="M450.87,269.34c0.95-0.14,2.09-0.25,3.33-0.25c2.25,0,3.85,0.52,4.92,1.51c1.08,0.99,1.71,2.4,1.71,4.36
		c0,1.98-0.61,3.6-1.75,4.72c-1.13,1.13-3.01,1.75-5.37,1.75c-1.12,0-2.05-0.05-2.84-0.14V269.34z M452.44,280.07
		c0.4,0.07,0.97,0.09,1.58,0.09c3.35,0,5.17-1.87,5.17-5.15c0.02-2.86-1.6-4.68-4.92-4.68c-0.81,0-1.42,0.07-1.84,0.16V280.07z"/>
	<path d="M469.14,275.62h-4.72V280h5.26v1.31h-6.82v-12.14h6.55v1.31h-4.99v3.84h4.72V275.62z"/>
	<path d="M481.94,275.98c-0.09-1.69-0.2-3.73-0.18-5.24h-0.05c-0.41,1.42-0.92,2.94-1.53,4.61l-2.14,5.89h-1.19l-1.96-5.78
		c-0.58-1.71-1.06-3.28-1.4-4.72h-0.04c-0.04,1.51-0.13,3.55-0.23,5.37l-0.32,5.2h-1.5l0.85-12.14h2l2.07,5.87
		c0.5,1.49,0.92,2.83,1.22,4.09h0.05c0.31-1.22,0.74-2.56,1.28-4.09l2.16-5.87h2l0.76,12.14h-1.53L481.94,275.98z"/>
	<path d="M496.56,275.12c0,4.18-2.54,6.39-5.64,6.39c-3.21,0-5.46-2.48-5.46-6.16c0-3.85,2.39-6.37,5.64-6.37
		C494.41,268.98,496.56,271.52,496.56,275.12z M487.14,275.32c0,2.59,1.41,4.92,3.87,4.92c2.48,0,3.89-2.29,3.89-5.04
		c0-2.41-1.26-4.93-3.87-4.93C488.44,270.26,487.14,272.65,487.14,275.32z"/>
	<path d="M94,327.34c0.95-0.14,2.09-0.25,3.33-0.25c2.25,0,3.85,0.52,4.92,1.51c1.08,0.99,1.71,2.4,1.71,4.36
		c0,1.98-0.61,3.6-1.75,4.72c-1.13,1.13-3.01,1.75-5.37,1.75c-1.12,0-2.05-0.05-2.84-0.14V327.34z M95.57,338.07
		c0.4,0.07,0.97,0.09,1.58,0.09c3.35,0,5.17-1.87,5.17-5.15c0.02-2.86-1.6-4.68-4.92-4.68c-0.81,0-1.42,0.07-1.84,0.16V338.07z"/>
	<path d="M112.27,333.62h-4.72V338h5.26v1.31h-6.82v-12.14h6.55v1.31h-4.99v3.83h4.72V333.62z"/>
	<path d="M125.07,333.98c-0.09-1.69-0.2-3.73-0.18-5.24h-0.05c-0.41,1.42-0.92,2.94-1.53,4.61l-2.14,5.89h-1.19l-1.96-5.78
		c-0.58-1.71-1.06-3.28-1.4-4.72h-0.04c-0.04,1.51-0.13,3.55-0.23,5.37l-0.32,5.2h-1.49l0.85-12.14h2l2.07,5.87
		c0.5,1.49,0.92,2.83,1.22,4.09h0.05c0.31-1.22,0.74-2.56,1.28-4.09l2.16-5.87h2l0.76,12.14h-1.53L125.07,333.98z"/>
	<path d="M139.69,333.12c0,4.18-2.54,6.39-5.64,6.39c-3.21,0-5.46-2.49-5.46-6.16c0-3.85,2.4-6.37,5.64-6.37
		C137.54,326.98,139.69,329.52,139.69,333.12z M130.27,333.32c0,2.59,1.4,4.92,3.87,4.92c2.48,0,3.89-2.29,3.89-5.04
		c0-2.41-1.26-4.93-3.87-4.93C131.57,328.26,130.27,330.65,130.27,333.32z"/>
	<path d="M164.61,327.34c0.95-0.14,2.09-0.25,3.33-0.25c2.25,0,3.85,0.52,4.92,1.51c1.08,0.99,1.71,2.4,1.71,4.36
		c0,1.98-0.61,3.6-1.75,4.72c-1.13,1.13-3.01,1.75-5.37,1.75c-1.12,0-2.05-0.05-2.85-0.14V327.34z M166.18,338.07
		c0.4,0.07,0.97,0.09,1.58,0.09c3.35,0,5.17-1.87,5.17-5.15c0.02-2.86-1.6-4.68-4.92-4.68c-0.81,0-1.42,0.07-1.84,0.16V338.07z"/>
	<path d="M182.88,333.62h-4.72V338h5.26v1.31h-6.82v-12.14h6.55v1.31h-4.99v3.83h4.72V333.62z"/>
	<path d="M195.68,333.98c-0.09-1.69-0.2-3.73-0.18-5.24h-0.05c-0.41,1.42-0.92,2.94-1.53,4.61l-2.14,5.89h-1.19l-1.96-5.78
		c-0.58-1.71-1.06-3.28-1.4-4.72h-0.04c-0.04,1.51-0.13,3.55-0.23,5.37l-0.32,5.2h-1.49l0.85-12.14h2l2.07,5.87
		c0.5,1.49,0.92,2.83,1.22,4.09h0.05c0.31-1.22,0.74-2.56,1.28-4.09l2.16-5.87h2l0.76,12.14h-1.53L195.68,333.98z"/>
	<path d="M210.3,333.12c0,4.18-2.54,6.39-5.64,6.39c-3.21,0-5.46-2.49-5.46-6.16c0-3.85,2.39-6.37,5.64-6.37
		C208.16,326.98,210.3,329.52,210.3,333.12z M200.88,333.32c0,2.59,1.4,4.92,3.87,4.92c2.48,0,3.89-2.29,3.89-5.04
		c0-2.41-1.26-4.93-3.87-4.93C202.18,328.26,200.88,330.65,200.88,333.32z"/>
	<path d="M235.23,327.34c0.95-0.14,2.09-0.25,3.33-0.25c2.25,0,3.85,0.52,4.92,1.51c1.08,0.99,1.71,2.4,1.71,4.36
		c0,1.98-0.61,3.6-1.75,4.72c-1.13,1.13-3.01,1.75-5.37,1.75c-1.12,0-2.05-0.05-2.84-0.14V327.34z M236.79,338.07
		c0.4,0.07,0.97,0.09,1.58,0.09c3.35,0,5.17-1.87,5.17-5.15c0.02-2.86-1.6-4.68-4.92-4.68c-0.81,0-1.42,0.07-1.84,0.16V338.07z"/>
	<path d="M253.5,333.62h-4.72V338h5.26v1.31h-6.82v-12.14h6.55v1.31h-4.99v3.83h4.72V333.62z"/>
	<path d="M266.3,333.98c-0.09-1.69-0.2-3.73-0.18-5.24h-0.05c-0.41,1.42-0.92,2.94-1.53,4.61l-2.14,5.89h-1.19l-1.96-5.78
		c-0.58-1.71-1.06-3.28-1.4-4.72h-0.04c-0.04,1.51-0.13,3.55-0.23,5.37l-0.32,5.2h-1.49l0.85-12.14h2l2.07,5.87
		c0.5,1.49,0.92,2.83,1.22,4.09h0.05c0.31-1.22,0.74-2.56,1.28-4.09l2.16-5.87h2l0.76,12.14h-1.53L266.3,333.98z"/>
	<path d="M280.91,333.12c0,4.18-2.54,6.39-5.64,6.39c-3.21,0-5.46-2.49-5.46-6.16c0-3.85,2.4-6.37,5.64-6.37
		C278.77,326.98,280.91,329.52,280.91,333.12z M271.5,333.32c0,2.59,1.4,4.92,3.87,4.92c2.48,0,3.89-2.29,3.89-5.04
		c0-2.41-1.26-4.93-3.87-4.93C272.79,328.26,271.5,330.65,271.5,333.32z"/>
	<path d="M305.84,327.34c0.95-0.14,2.09-0.25,3.33-0.25c2.25,0,3.85,0.52,4.92,1.51c1.08,0.99,1.71,2.4,1.71,4.36
		c0,1.98-0.61,3.6-1.75,4.72c-1.13,1.13-3.01,1.75-5.37,1.75c-1.12,0-2.05-0.05-2.84-0.14V327.34z M307.4,338.07
		c0.4,0.07,0.97,0.09,1.58,0.09c3.35,0,5.17-1.87,5.17-5.15c0.02-2.86-1.6-4.68-4.92-4.68c-0.81,0-1.42,0.07-1.84,0.16V338.07z"/>
	<path d="M324.11,333.62h-4.72V338h5.26v1.31h-6.82v-12.14h6.55v1.31h-4.99v3.83h4.72V333.62z"/>
	<path d="M336.91,333.98c-0.09-1.69-0.2-3.73-0.18-5.24h-0.05c-0.41,1.42-0.92,2.94-1.53,4.61l-2.14,5.89h-1.19l-1.96-5.78
		c-0.58-1.71-1.06-3.28-1.4-4.72h-0.04c-0.04,1.51-0.13,3.55-0.23,5.37l-0.32,5.2h-1.5l0.85-12.14h2l2.07,5.87
		c0.5,1.49,0.92,2.83,1.22,4.09h0.05c0.31-1.22,0.74-2.56,1.28-4.09l2.16-5.87h2l0.76,12.14h-1.53L336.91,333.98z"/>
	<path d="M351.52,333.12c0,4.18-2.54,6.39-5.64,6.39c-3.21,0-5.46-2.49-5.46-6.16c0-3.85,2.39-6.37,5.64-6.37
		C349.38,326.98,351.52,329.52,351.52,333.12z M342.11,333.32c0,2.59,1.41,4.92,3.87,4.92c2.49,0,3.89-2.29,3.89-5.04
		c0-2.41-1.26-4.93-3.87-4.93C343.4,328.26,342.11,330.65,342.11,333.32z"/>
	<path d="M380.26,327.34c0.95-0.14,2.09-0.25,3.33-0.25c2.25,0,3.85,0.52,4.92,1.51c1.08,0.99,1.71,2.4,1.71,4.36
		c0,1.98-0.61,3.6-1.75,4.72c-1.13,1.13-3.01,1.75-5.37,1.75c-1.12,0-2.05-0.05-2.84-0.14V327.34z M381.83,338.07
		c0.4,0.07,0.97,0.09,1.58,0.09c3.35,0,5.17-1.87,5.17-5.15c0.02-2.86-1.6-4.68-4.92-4.68c-0.81,0-1.42,0.07-1.84,0.16V338.07z"/>
	<path d="M398.53,333.62h-4.72V338h5.26v1.31h-6.82v-12.14h6.55v1.31h-4.99v3.83h4.72V333.62z"/>
	<path d="M411.33,333.98c-0.09-1.69-0.2-3.73-0.18-5.24h-0.05c-0.41,1.42-0.92,2.94-1.53,4.61l-2.14,5.89h-1.19l-1.96-5.78
		c-0.58-1.71-1.06-3.28-1.4-4.72h-0.04c-0.04,1.51-0.13,3.55-0.23,5.37l-0.32,5.2h-1.5l0.85-12.14h2l2.07,5.87
		c0.5,1.49,0.92,2.83,1.22,4.09h0.05c0.31-1.22,0.74-2.56,1.28-4.09l2.16-5.87h2l0.76,12.14h-1.53L411.33,333.98z"/>
	<path d="M425.95,333.12c0,4.18-2.54,6.39-5.64,6.39c-3.21,0-5.46-2.49-5.46-6.16c0-3.85,2.39-6.37,5.64-6.37
		C423.8,326.98,425.95,329.52,425.95,333.12z M416.53,333.32c0,2.59,1.41,4.92,3.87,4.92c2.48,0,3.89-2.29,3.89-5.04
		c0-2.41-1.26-4.93-3.87-4.93C417.83,328.26,416.53,330.65,416.53,333.32z"/>
	<path d="M450.87,327.34c0.95-0.14,2.09-0.25,3.33-0.25c2.25,0,3.85,0.52,4.92,1.51c1.08,0.99,1.71,2.4,1.71,4.36
		c0,1.98-0.61,3.6-1.75,4.72c-1.13,1.13-3.01,1.75-5.37,1.75c-1.12,0-2.05-0.05-2.84-0.14V327.34z M452.44,338.07
		c0.4,0.07,0.97,0.09,1.58,0.09c3.35,0,5.17-1.87,5.17-5.15c0.02-2.86-1.6-4.68-4.92-4.68c-0.81,0-1.42,0.07-1.84,0.16V338.07z"/>
	<path d="M469.14,333.62h-4.72V338h5.26v1.31h-6.82v-12.14h6.55v1.31h-4.99v3.83h4.72V333.62z"/>
	<path d="M481.94,333.98c-0.09-1.69-0.2-3.73-0.18-5.24h-0.05c-0.41,1.42-0.92,2.94-1.53,4.61l-2.14,5.89h-1.19l-1.96-5.78
		c-0.58-1.71-1.06-3.28-1.4-4.72h-0.04c-0.04,1.51-0.13,3.55-0.23,5.37l-0.32,5.2h-1.5l0.85-12.14h2l2.07,5.87
		c0.5,1.49,0.92,2.83,1.22,4.09h0.05c0.31-1.22,0.74-2.56,1.28-4.09l2.16-5.87h2l0.76,12.14h-1.53L481.94,333.98z"/>
	<path d="M496.56,333.12c0,4.18-2.54,6.39-5.64,6.39c-3.21,0-5.46-2.49-5.46-6.16c0-3.85,2.39-6.37,5.64-6.37
		C494.41,326.98,496.56,329.52,496.56,333.12z M487.14,333.32c0,2.59,1.41,4.92,3.87,4.92c2.48,0,3.89-2.29,3.89-5.04
		c0-2.41-1.26-4.93-3.87-4.93C488.44,328.26,487.14,330.65,487.14,333.32z"/>
	<path d="M139.69,391.12c0,4.18-2.54,6.39-5.64,6.39c-3.21,0-5.46-2.49-5.46-6.16c0-3.85,2.4-6.37,5.64-6.37
		C137.54,384.98,139.69,387.52,139.69,391.12z M130.27,391.32c0,2.59,1.4,4.92,3.87,4.92c2.48,0,3.89-2.29,3.89-5.04
		c0-2.41-1.26-4.93-3.87-4.93C131.57,386.26,130.27,388.65,130.27,391.32z"/>
	<path d="M164.61,385.34c0.95-0.14,2.09-0.25,3.33-0.25c2.25,0,3.85,0.52,4.92,1.51c1.08,0.99,1.71,2.39,1.71,4.36
		c0,1.98-0.61,3.6-1.75,4.72c-1.13,1.13-3.01,1.75-5.37,1.75c-1.12,0-2.05-0.05-2.85-0.14V385.34z M166.18,396.07
		c0.4,0.07,0.97,0.09,1.58,0.09c3.35,0,5.17-1.87,5.17-5.15c0.02-2.86-1.6-4.68-4.92-4.68c-0.81,0-1.42,0.07-1.84,0.16V396.07z"/>
	<path d="M182.88,391.62h-4.72V396h5.26v1.31h-6.82v-12.14h6.55v1.31h-4.99v3.83h4.72V391.62z"/>
	<path d="M195.68,391.98c-0.09-1.69-0.2-3.73-0.18-5.24h-0.05c-0.41,1.42-0.92,2.94-1.53,4.61l-2.14,5.89h-1.19l-1.96-5.78
		c-0.58-1.71-1.06-3.28-1.4-4.72h-0.04c-0.04,1.51-0.13,3.55-0.23,5.37l-0.32,5.2h-1.49l0.85-12.14h2l2.07,5.87
		c0.5,1.49,0.92,2.83,1.22,4.09h0.05c0.31-1.22,0.74-2.56,1.28-4.09l2.16-5.87h2l0.76,12.14h-1.53L195.68,391.98z"/>
	<path d="M210.3,391.12c0,4.18-2.54,6.39-5.64,6.39c-3.21,0-5.46-2.49-5.46-6.16c0-3.85,2.39-6.37,5.64-6.37
		C208.16,384.98,210.3,387.52,210.3,391.12z M200.88,391.32c0,2.59,1.4,4.92,3.87,4.92c2.48,0,3.89-2.29,3.89-5.04
		c0-2.41-1.26-4.93-3.87-4.93C202.18,386.26,200.88,388.65,200.88,391.32z"/>
	<path d="M235.23,385.34c0.95-0.14,2.09-0.25,3.33-0.25c2.25,0,3.85,0.52,4.92,1.51c1.08,0.99,1.71,2.39,1.71,4.36
		c0,1.98-0.61,3.6-1.75,4.72c-1.13,1.13-3.01,1.75-5.37,1.75c-1.12,0-2.05-0.05-2.84-0.14V385.34z M236.79,396.07
		c0.4,0.07,0.97,0.09,1.58,0.09c3.35,0,5.17-1.87,5.17-5.15c0.02-2.86-1.6-4.68-4.92-4.68c-0.81,0-1.42,0.07-1.84,0.16V396.07z"/>
	<path d="M253.5,391.62h-4.72V396h5.26v1.31h-6.82v-12.14h6.55v1.31h-4.99v3.83h4.72V391.62z"/>
	<path d="M266.3,391.98c-0.09-1.69-0.2-3.73-0.18-5.24h-0.05c-0.41,1.42-0.92,2.94-1.53,4.61l-2.14,5.89h-1.19l-1.96-5.78
		c-0.58-1.71-1.06-3.28-1.4-4.72h-0.04c-0.04,1.51-0.13,3.55-0.23,5.37l-0.32,5.2h-1.49l0.85-12.14h2l2.07,5.87
		c0.5,1.49,0.92,2.83,1.22,4.09h0.05c0.31-1.22,0.74-2.56,1.28-4.09l2.16-5.87h2l0.76,12.14h-1.53L266.3,391.98z"/>
	<path d="M280.91,391.12c0,4.18-2.54,6.39-5.64,6.39c-3.21,0-5.46-2.49-5.46-6.16c0-3.85,2.4-6.37,5.64-6.37
		C278.77,384.98,280.91,387.52,280.91,391.12z M271.5,391.32c0,2.59,1.4,4.92,3.87,4.92c2.48,0,3.89-2.29,3.89-5.04
		c0-2.41-1.26-4.93-3.87-4.93C272.79,386.26,271.5,388.65,271.5,391.32z"/>
	<path d="M305.84,385.34c0.95-0.14,2.09-0.25,3.33-0.25c2.25,0,3.85,0.52,4.92,1.51c1.08,0.99,1.71,2.39,1.71,4.36
		c0,1.98-0.61,3.6-1.75,4.72c-1.13,1.13-3.01,1.75-5.37,1.75c-1.12,0-2.05-0.05-2.84-0.14V385.34z M307.4,396.07
		c0.4,0.07,0.97,0.09,1.58,0.09c3.35,0,5.17-1.87,5.17-5.15c0.02-2.86-1.6-4.68-4.92-4.68c-0.81,0-1.42,0.07-1.84,0.16V396.07z"/>
	<path d="M324.11,391.62h-4.72V396h5.26v1.31h-6.82v-12.14h6.55v1.31h-4.99v3.83h4.72V391.62z"/>
	<path d="M336.91,391.98c-0.09-1.69-0.2-3.73-0.18-5.24h-0.05c-0.41,1.42-0.92,2.94-1.53,4.61l-2.14,5.89h-1.19l-1.96-5.78
		c-0.58-1.71-1.06-3.28-1.4-4.72h-0.04c-0.04,1.51-0.13,3.55-0.23,5.37l-0.32,5.2h-1.5l0.85-12.14h2l2.07,5.87
		c0.5,1.49,0.92,2.83,1.22,4.09h0.05c0.31-1.22,0.74-2.56,1.28-4.09l2.16-5.87h2l0.76,12.14h-1.53L336.91,391.98z"/>
	<path d="M351.52,391.12c0,4.18-2.54,6.39-5.64,6.39c-3.21,0-5.46-2.49-5.46-6.16c0-3.85,2.39-6.37,5.64-6.37
		C349.38,384.98,351.52,387.52,351.52,391.12z M342.11,391.32c0,2.59,1.41,4.92,3.87,4.92c2.49,0,3.89-2.29,3.89-5.04
		c0-2.41-1.26-4.93-3.87-4.93C343.4,386.26,342.11,388.65,342.11,391.32z"/>
	<path d="M380.26,385.34c0.95-0.14,2.09-0.25,3.33-0.25c2.25,0,3.85,0.52,4.92,1.51c1.08,0.99,1.71,2.39,1.71,4.36
		c0,1.98-0.61,3.6-1.75,4.72c-1.13,1.13-3.01,1.75-5.37,1.75c-1.12,0-2.05-0.05-2.84-0.14V385.34z M381.83,396.07
		c0.4,0.07,0.97,0.09,1.58,0.09c3.35,0,5.17-1.87,5.17-5.15c0.02-2.86-1.6-4.68-4.92-4.68c-0.81,0-1.42,0.07-1.84,0.16V396.07z"/>
	<path d="M398.53,391.62h-4.72V396h5.26v1.31h-6.82v-12.14h6.55v1.31h-4.99v3.83h4.72V391.62z"/>
	<path d="M411.33,391.98c-0.09-1.69-0.2-3.73-0.18-5.24h-0.05c-0.41,1.42-0.92,2.94-1.53,4.61l-2.14,5.89h-1.19l-1.96-5.78
		c-0.58-1.71-1.06-3.28-1.4-4.72h-0.04c-0.04,1.51-0.13,3.55-0.23,5.37l-0.32,5.2h-1.5l0.85-12.14h2l2.07,5.87
		c0.5,1.49,0.92,2.83,1.22,4.09h0.05c0.31-1.22,0.74-2.56,1.28-4.09l2.16-5.87h2l0.76,12.14h-1.53L411.33,391.98z"/>
	<path d="M425.95,391.12c0,4.18-2.54,6.39-5.64,6.39c-3.21,0-5.46-2.49-5.46-6.16c0-3.85,2.39-6.37,5.64-6.37
		C423.8,384.98,425.95,387.52,425.95,391.12z M416.53,391.32c0,2.59,1.41,4.92,3.87,4.92c2.48,0,3.89-2.29,3.89-5.04
		c0-2.41-1.26-4.93-3.87-4.93C417.83,386.26,416.53,388.65,416.53,391.32z"/>
	<path d="M450.87,385.34c0.95-0.14,2.09-0.25,3.33-0.25c2.25,0,3.85,0.52,4.92,1.51c1.08,0.99,1.71,2.39,1.71,4.36
		c0,1.98-0.61,3.6-1.75,4.72c-1.13,1.13-3.01,1.75-5.37,1.75c-1.12,0-2.05-0.05-2.84-0.14V385.34z M452.44,396.07
		c0.4,0.07,0.97,0.09,1.58,0.09c3.35,0,5.17-1.87,5.17-5.15c0.02-2.86-1.6-4.68-4.92-4.68c-0.81,0-1.42,0.07-1.84,0.16V396.07z"/>
	<path d="M469.14,391.62h-4.72V396h5.26v1.31h-6.82v-12.14h6.55v1.31h-4.99v3.83h4.72V391.62z"/>
	<path d="M139.69,449.12c0,4.18-2.54,6.39-5.64,6.39c-3.21,0-5.46-2.49-5.46-6.16c0-3.85,2.4-6.37,5.64-6.37
		C137.54,442.98,139.69,445.52,139.69,449.12z M130.27,449.32c0,2.59,1.4,4.92,3.87,4.92c2.48,0,3.89-2.29,3.89-5.04
		c0-2.41-1.26-4.93-3.87-4.93C131.57,444.26,130.27,446.65,130.27,449.32z"/>
	<path d="M164.61,443.34c0.95-0.14,2.09-0.25,3.33-0.25c2.25,0,3.85,0.52,4.92,1.51c1.08,0.99,1.71,2.39,1.71,4.36
		c0,1.98-0.61,3.6-1.75,4.72c-1.13,1.13-3.01,1.75-5.37,1.75c-1.12,0-2.05-0.05-2.85-0.14V443.34z M166.18,454.07
		c0.4,0.07,0.97,0.09,1.58,0.09c3.35,0,5.17-1.87,5.17-5.15c0.02-2.86-1.6-4.68-4.92-4.68c-0.81,0-1.42,0.07-1.84,0.16V454.07z"/>
	<path d="M182.88,449.62h-4.72V454h5.26v1.31h-6.82v-12.14h6.55v1.31h-4.99v3.83h4.72V449.62z"/>
	<path d="M195.68,449.98c-0.09-1.69-0.2-3.73-0.18-5.24h-0.05c-0.41,1.42-0.92,2.94-1.53,4.61l-2.14,5.89h-1.19l-1.96-5.78
		c-0.58-1.71-1.06-3.28-1.4-4.72h-0.04c-0.04,1.51-0.13,3.55-0.23,5.37l-0.32,5.2h-1.49l0.85-12.14h2l2.07,5.87
		c0.5,1.49,0.92,2.83,1.22,4.09h0.05c0.31-1.22,0.74-2.56,1.28-4.09l2.16-5.87h2l0.76,12.14h-1.53L195.68,449.98z"/>
	<path d="M210.3,449.12c0,4.18-2.54,6.39-5.64,6.39c-3.21,0-5.46-2.49-5.46-6.16c0-3.85,2.39-6.37,5.64-6.37
		C208.16,442.98,210.3,445.52,210.3,449.12z M200.88,449.32c0,2.59,1.4,4.92,3.87,4.92c2.48,0,3.89-2.29,3.89-5.04
		c0-2.41-1.26-4.93-3.87-4.93C202.18,444.26,200.88,446.65,200.88,449.32z"/>
	<path d="M235.23,443.34c0.95-0.14,2.09-0.25,3.33-0.25c2.25,0,3.85,0.52,4.92,1.51c1.08,0.99,1.71,2.39,1.71,4.36
		c0,1.98-0.61,3.6-1.75,4.72c-1.13,1.13-3.01,1.75-5.37,1.75c-1.12,0-2.05-0.05-2.84-0.14V443.34z M236.79,454.07
		c0.4,0.07,0.97,0.09,1.58,0.09c3.35,0,5.17-1.87,5.17-5.15c0.02-2.86-1.6-4.68-4.92-4.68c-0.81,0-1.42,0.07-1.84,0.16V454.07z"/>
	<path d="M253.5,449.62h-4.72V454h5.26v1.31h-6.82v-12.14h6.55v1.31h-4.99v3.83h4.72V449.62z"/>
	<path d="M266.3,449.98c-0.09-1.69-0.2-3.73-0.18-5.24h-0.05c-0.41,1.42-0.92,2.94-1.53,4.61l-2.14,5.89h-1.19l-1.96-5.78
		c-0.58-1.71-1.06-3.28-1.4-4.72h-0.04c-0.04,1.51-0.13,3.55-0.23,5.37l-0.32,5.2h-1.49l0.85-12.14h2l2.07,5.87
		c0.5,1.49,0.92,2.83,1.22,4.09h0.05c0.31-1.22,0.74-2.56,1.28-4.09l2.16-5.87h2l0.76,12.14h-1.53L266.3,449.98z"/>
	<path d="M280.91,449.12c0,4.18-2.54,6.39-5.64,6.39c-3.21,0-5.46-2.49-5.46-6.16c0-3.85,2.4-6.37,5.64-6.37
		C278.77,442.98,280.91,445.52,280.91,449.12z M271.5,449.32c0,2.59,1.4,4.92,3.87,4.92c2.48,0,3.89-2.29,3.89-5.04
		c0-2.41-1.26-4.93-3.87-4.93C272.79,444.26,271.5,446.65,271.5,449.32z"/>
	<path d="M305.84,443.34c0.95-0.14,2.09-0.25,3.33-0.25c2.25,0,3.85,0.52,4.92,1.51c1.08,0.99,1.71,2.39,1.71,4.36
		c0,1.98-0.61,3.6-1.75,4.72c-1.13,1.13-3.01,1.75-5.37,1.75c-1.12,0-2.05-0.05-2.84-0.14V443.34z M307.4,454.07
		c0.4,0.07,0.97,0.09,1.58,0.09c3.35,0,5.17-1.87,5.17-5.15c0.02-2.86-1.6-4.68-4.92-4.68c-0.81,0-1.42,0.07-1.84,0.16V454.07z"/>
	<path d="M324.11,449.62h-4.72V454h5.26v1.31h-6.82v-12.14h6.55v1.31h-4.99v3.83h4.72V449.62z"/>
	<path d="M336.91,449.98c-0.09-1.69-0.2-3.73-0.18-5.24h-0.05c-0.41,1.42-0.92,2.94-1.53,4.61l-2.14,5.89h-1.19l-1.96-5.78
		c-0.58-1.71-1.06-3.28-1.4-4.72h-0.04c-0.04,1.51-0.13,3.55-0.23,5.37l-0.32,5.2h-1.5l0.85-12.14h2l2.07,5.87
		c0.5,1.49,0.92,2.83,1.22,4.09h0.05c0.31-1.22,0.74-2.56,1.28-4.09l2.16-5.87h2l0.76,12.14h-1.53L336.91,449.98z"/>
	<path d="M351.52,449.12c0,4.18-2.54,6.39-5.64,6.39c-3.21,0-5.46-2.49-5.46-6.16c0-3.85,2.39-6.37,5.64-6.37
		C349.38,442.98,351.52,445.52,351.52,449.12z M342.11,449.32c0,2.59,1.41,4.92,3.87,4.92c2.49,0,3.89-2.29,3.89-5.04
		c0-2.41-1.26-4.93-3.87-4.93C343.4,444.26,342.11,446.65,342.11,449.32z"/>
	<path d="M380.26,443.34c0.95-0.14,2.09-0.25,3.33-0.25c2.25,0,3.85,0.52,4.92,1.51c1.08,0.99,1.71,2.39,1.71,4.36
		c0,1.98-0.61,3.6-1.75,4.72c-1.13,1.13-3.01,1.75-5.37,1.75c-1.12,0-2.05-0.05-2.84-0.14V443.34z M381.83,454.07
		c0.4,0.07,0.97,0.09,1.58,0.09c3.35,0,5.17-1.87,5.17-5.15c0.02-2.86-1.6-4.68-4.92-4.68c-0.81,0-1.42,0.07-1.84,0.16V454.07z"/>
	<path d="M398.53,449.62h-4.72V454h5.26v1.31h-6.82v-12.14h6.55v1.31h-4.99v3.83h4.72V449.62z"/>
	<path d="M411.33,449.98c-0.09-1.69-0.2-3.73-0.18-5.24h-0.05c-0.41,1.42-0.92,2.94-1.53,4.61l-2.14,5.89h-1.19l-1.96-5.78
		c-0.58-1.71-1.06-3.28-1.4-4.72h-0.04c-0.04,1.51-0.13,3.55-0.23,5.37l-0.32,5.2h-1.5l0.85-12.14h2l2.07,5.87
		c0.5,1.49,0.92,2.83,1.22,4.09h0.05c0.31-1.22,0.74-2.56,1.28-4.09l2.16-5.87h2l0.76,12.14h-1.53L411.33,449.98z"/>
	<path d="M425.95,449.12c0,4.18-2.54,6.39-5.64,6.39c-3.21,0-5.46-2.49-5.46-6.16c0-3.85,2.39-6.37,5.64-6.37
		C423.8,442.98,425.95,445.52,425.95,449.12z M416.53,449.32c0,2.59,1.41,4.92,3.87,4.92c2.48,0,3.89-2.29,3.89-5.04
		c0-2.41-1.26-4.93-3.87-4.93C417.83,444.26,416.53,446.65,416.53,449.32z"/>
	<path d="M450.87,443.34c0.95-0.14,2.09-0.25,3.33-0.25c2.25,0,3.85,0.52,4.92,1.51c1.08,0.99,1.71,2.39,1.71,4.36
		c0,1.98-0.61,3.6-1.75,4.72c-1.13,1.13-3.01,1.75-5.37,1.75c-1.12,0-2.05-0.05-2.84-0.14V443.34z M452.44,454.07
		c0.4,0.07,0.97,0.09,1.58,0.09c3.35,0,5.17-1.87,5.17-5.15c0.02-2.86-1.6-4.68-4.92-4.68c-0.81,0-1.42,0.07-1.84,0.16V454.07z"/>
	<path d="M469.14,449.62h-4.72V454h5.26v1.31h-6.82v-12.14h6.55v1.31h-4.99v3.83h4.72V449.62z"/>
	<path d="M139.69,507.12c0,4.18-2.54,6.39-5.64,6.39c-3.21,0-5.46-2.49-5.46-6.16c0-3.85,2.4-6.37,5.64-6.37
		C137.54,500.98,139.69,503.52,139.69,507.12z M130.27,507.32c0,2.59,1.4,4.92,3.87,4.92c2.48,0,3.89-2.29,3.89-5.04
		c0-2.41-1.26-4.93-3.87-4.93C131.57,502.26,130.27,504.65,130.27,507.32z"/>
	<path d="M164.61,501.34c0.95-0.14,2.09-0.25,3.33-0.25c2.25,0,3.85,0.52,4.92,1.51c1.08,0.99,1.71,2.39,1.71,4.36
		c0,1.98-0.61,3.6-1.75,4.72c-1.13,1.13-3.01,1.75-5.37,1.75c-1.12,0-2.05-0.05-2.85-0.14V501.34z M166.18,512.07
		c0.4,0.07,0.97,0.09,1.58,0.09c3.35,0,5.17-1.87,5.17-5.15c0.02-2.86-1.6-4.68-4.92-4.68c-0.81,0-1.42,0.07-1.84,0.16V512.07z"/>
	<path d="M182.88,507.62h-4.72V512h5.26v1.31h-6.82v-12.14h6.55v1.31h-4.99v3.83h4.72V507.62z"/>
	<path d="M235.23,501.34c0.95-0.14,2.09-0.25,3.33-0.25c2.25,0,3.85,0.52,4.92,1.51c1.08,0.99,1.71,2.39,1.71,4.36
		c0,1.98-0.61,3.6-1.75,4.72c-1.13,1.13-3.01,1.75-5.37,1.75c-1.12,0-2.05-0.05-2.84-0.14V501.34z M236.79,512.07
		c0.4,0.07,0.97,0.09,1.58,0.09c3.35,0,5.17-1.87,5.17-5.15c0.02-2.86-1.6-4.68-4.92-4.68c-0.81,0-1.42,0.07-1.84,0.16V512.07z"/>
	<path d="M253.5,507.62h-4.72V512h5.26v1.31h-6.82v-12.14h6.55v1.31h-4.99v3.83h4.72V507.62z"/>
	<path d="M266.3,507.98c-0.09-1.69-0.2-3.73-0.18-5.24h-0.05c-0.41,1.42-0.92,2.94-1.53,4.61l-2.14,5.89h-1.19l-1.96-5.78
		c-0.58-1.71-1.06-3.28-1.4-4.72h-0.04c-0.04,1.51-0.13,3.55-0.23,5.37l-0.32,5.2h-1.49l0.85-12.14h2l2.07,5.87
		c0.5,1.49,0.92,2.83,1.22,4.09h0.05c0.31-1.22,0.74-2.56,1.28-4.09l2.16-5.87h2l0.76,12.14h-1.53L266.3,507.98z"/>
	<path d="M280.91,507.12c0,4.18-2.54,6.39-5.64,6.39c-3.21,0-5.46-2.49-5.46-6.16c0-3.85,2.4-6.37,5.64-6.37
		C278.77,500.98,280.91,503.52,280.91,507.12z M271.5,507.32c0,2.59,1.4,4.92,3.87,4.92c2.48,0,3.89-2.29,3.89-5.04
		c0-2.41-1.26-4.93-3.87-4.93C272.79,502.26,271.5,504.65,271.5,507.32z"/>
	<path d="M324.11,507.62h-4.72V512h5.26v1.31h-6.82v-12.14h6.55v1.31h-4.99v3.83h4.72V507.62z"/>
	<path d="M336.91,507.98c-0.09-1.69-0.2-3.73-0.18-5.24h-0.05c-0.41,1.42-0.92,2.94-1.53,4.61l-2.14,5.89h-1.19l-1.96-5.78
		c-0.58-1.71-1.06-3.28-1.4-4.72h-0.04c-0.04,1.51-0.13,3.55-0.23,5.37l-0.32,5.2h-1.5l0.85-12.14h2l2.07,5.87
		c0.5,1.49,0.92,2.83,1.22,4.09h0.05c0.31-1.22,0.74-2.56,1.28-4.09l2.16-5.87h2l0.76,12.14h-1.53L336.91,507.98z"/>
	<path d="M351.52,507.12c0,4.18-2.54,6.39-5.64,6.39c-3.21,0-5.46-2.49-5.46-6.16c0-3.85,2.39-6.37,5.64-6.37
		C349.38,500.98,351.52,503.52,351.52,507.12z M342.11,507.32c0,2.59,1.41,4.92,3.87,4.92c2.49,0,3.89-2.29,3.89-5.04
		c0-2.41-1.26-4.93-3.87-4.93C343.4,502.26,342.11,504.65,342.11,507.32z"/>
	<path d="M425.95,507.12c0,4.18-2.54,6.39-5.64,6.39c-3.21,0-5.46-2.49-5.46-6.16c0-3.85,2.39-6.37,5.64-6.37
		C423.8,500.98,425.95,503.52,425.95,507.12z M416.53,507.32c0,2.59,1.41,4.92,3.87,4.92c2.48,0,3.89-2.29,3.89-5.04
		c0-2.41-1.26-4.93-3.87-4.93C417.83,502.26,416.53,504.65,416.53,507.32z"/>
	<path d="M450.87,501.34c0.95-0.14,2.09-0.25,3.33-0.25c2.25,0,3.85,0.52,4.92,1.51c1.08,0.99,1.71,2.39,1.71,4.36
		c0,1.98-0.61,3.6-1.75,4.72c-1.13,1.13-3.01,1.75-5.37,1.75c-1.12,0-2.05-0.05-2.84-0.14V501.34z M452.44,512.07
		c0.4,0.07,0.97,0.09,1.58,0.09c3.35,0,5.17-1.87,5.17-5.15c0.02-2.86-1.6-4.68-4.92-4.68c-0.81,0-1.42,0.07-1.84,0.16V512.07z"/>
	<path d="M469.14,507.62h-4.72V512h5.26v1.31h-6.82v-12.14h6.55v1.31h-4.99v3.83h4.72V507.62z"/>
	<path d="M139.69,565.12c0,4.18-2.54,6.39-5.64,6.39c-3.21,0-5.46-2.49-5.46-6.16c0-3.85,2.4-6.37,5.64-6.37
		C137.54,558.98,139.69,561.52,139.69,565.12z M130.27,565.32c0,2.59,1.4,4.92,3.87,4.92c2.48,0,3.89-2.29,3.89-5.04
		c0-2.41-1.26-4.93-3.87-4.93C131.57,560.26,130.27,562.65,130.27,565.32z"/>
	<path d="M164.61,559.34c0.95-0.14,2.09-0.25,3.33-0.25c2.25,0,3.85,0.52,4.92,1.51c1.08,0.99,1.71,2.39,1.71,4.36
		c0,1.98-0.61,3.6-1.75,4.72c-1.13,1.13-3.01,1.75-5.37,1.75c-1.12,0-2.05-0.05-2.85-0.14V559.34z M166.18,570.07
		c0.4,0.07,0.97,0.09,1.58,0.09c3.35,0,5.17-1.87,5.17-5.15c0.02-2.86-1.6-4.68-4.92-4.68c-0.81,0-1.42,0.07-1.84,0.16V570.07z"/>
	<path d="M324.11,565.62h-4.72V570h5.26v1.31h-6.82v-12.14h6.55v1.31h-4.99v3.83h4.72V565.62z"/>
	<path d="M336.91,565.98c-0.09-1.69-0.2-3.73-0.18-5.24h-0.05c-0.41,1.42-0.92,2.94-1.53,4.61l-2.14,5.89h-1.19l-1.96-5.78
		c-0.58-1.71-1.06-3.28-1.4-4.72h-0.04c-0.04,1.51-0.13,3.55-0.23,5.37l-0.32,5.2h-1.5l0.85-12.14h2l2.07,5.87
		c0.5,1.49,0.92,2.83,1.22,4.09h0.05c0.31-1.22,0.74-2.56,1.28-4.09l2.16-5.87h2l0.76,12.14h-1.53L336.91,565.98z"/>
	<path d="M351.52,565.12c0,4.18-2.54,6.39-5.64,6.39c-3.21,0-5.46-2.49-5.46-6.16c0-3.85,2.39-6.37,5.64-6.37
		C349.38,558.98,351.52,561.52,351.52,565.12z M342.11,565.32c0,2.59,1.41,4.92,3.87,4.92c2.49,0,3.89-2.29,3.89-5.04
		c0-2.41-1.26-4.93-3.87-4.93C343.4,560.26,342.11,562.65,342.11,565.32z"/>
</g>
</svg>
