<?xml version="1.0" encoding="utf-8"?>
<!-- Generator: Adobe Illustrator 21.0.0, SVG Export Plug-In . SVG Version: 6.00 Build 0)  -->
<svg version="1.1" id="Layer_1" xmlns="http://www.w3.org/2000/svg" xmlns:xlink="http://www.w3.org/1999/xlink" x="0px" y="0px"
	 viewBox="0 0 512 512" style="enable-background:new 0 0 512 512;" xml:space="preserve">
<style type="text/css">
	.st0{opacity:0.502;}
	.st1{fill:#000111;}
	.st2{fill:none;stroke:#000111;stroke-miterlimit:100;}
	.st3{fill:#FF2B06;}
</style>
<g id="Stars_1_">
	<g id="circle_star" class="st0">
		<path class="st1" d="M344,20c1.1,0,2,0.9,2,2s-0.9,2-2,2s-2-0.9-2-2S342.9,20,344,20 M148,65c2.2,0,4,1.8,4,4s-1.8,4-4,4
			s-4-1.8-4-4S145.8,65,148,65 M313,110c0.5,0,1,0.4,1,1s-0.5,1-1,1s-1-0.4-1-1S312.5,110,313,110 M437,115c0.5,0,1,0.4,1,1
			s-0.5,1-1,1s-1-0.4-1-1S436.5,115,437,115 M58.5,115c0.3,0,0.5,0.2,0.5,0.5s-0.2,0.5-0.5,0.5s-0.5-0.2-0.5-0.5S58.2,115,58.5,115
			 M55,307c1.7,0,3,1.4,3,3s-1.3,3-3,3s-3-1.4-3-3S53.3,307,55,307 M473,313c1.1,0,2,0.9,2,2s-0.9,2-2,2s-2-0.9-2-2
			S471.9,313,473,313 M116,434c2.8,0,5,2.2,5,5s-2.2,5-5,5s-5-2.2-5-5S113.2,434,116,434 M439,456c1.6,0,3,1.4,3,3s-1.4,3-3,3
			s-3-1.4-3-3S437.4,456,439,456 M274,478c0.5,0,1,0.5,1,1s-0.5,1-1,1s-1-0.5-1-1S273.5,478,274,478 M344,18c-2.2,0-4,1.8-4,4
			s1.8,4,4,4s4-1.8,4-4S346.2,18,344,18L344,18z M148,63c-3.3,0-6,2.7-6,6s2.7,6,6,6s6-2.7,6-6S151.3,63,148,63L148,63z M313,108
			c-1.7,0-3,1.3-3,3s1.3,3,3,3s3-1.3,3-3S314.7,108,313,108L313,108z M437,113c-1.7,0-3,1.3-3,3s1.3,3,3,3s3-1.3,3-3
			S438.7,113,437,113L437,113z M58.5,113c-1.4,0-2.5,1.1-2.5,2.5s1.1,2.5,2.5,2.5s2.5-1.1,2.5-2.5S59.9,113,58.5,113L58.5,113z
			 M55,305c-2.8,0-5,2.2-5,5s2.2,5,5,5s5-2.2,5-5S57.8,305,55,305L55,305z M473,311c-2.2,0-4,1.8-4,4s1.8,4,4,4s4-1.8,4-4
			S475.2,311,473,311L473,311z M116,432c-3.9,0-7,3.1-7,7s3.1,7,7,7s7-3.1,7-7S119.9,432,116,432L116,432z M439,454
			c-2.8,0-5,2.2-5,5s2.2,5,5,5s5-2.2,5-5S441.8,454,439,454L439,454z M274,476c-1.7,0-3,1.3-3,3s1.3,3,3,3s3-1.3,3-3
			S275.7,476,274,476L274,476z"/>
	</g>
	<g id="line_star">
		<line id="line_star_6_" class="st2" x1="103" y1="368" x2="42" y2="429"/>
		<line id="line_star_5_" class="st2" x1="402" y1="404" x2="341" y2="465"/>
		<line id="line_star_4_" class="st2" x1="295" y1="41" x2="234" y2="102"/>
		<line id="line_star_2_" class="st2" x1="101" y1="132" x2="76" y2="158"/>
	</g>
	<g id="star">
		<path class="st1" d="M46.5,256.4c1,1.6,2.4,3,4.1,4.1c-1.6,1-3,2.4-4.1,4.1c-1-1.6-2.4-3-4.1-4.1
			C44.1,259.5,45.5,258.1,46.5,256.4 M384,364c1.6,2.9,4,5.4,7,7c-2.9,1.6-5.4,4-7,7c-1.6-2.9-4-5.4-7-7
			C380,369.4,382.4,367,384,364 M160,475c1.6,2.9,4.1,5.4,7,7c-2.9,1.6-5.4,4-7,7c-1.6-2.9-4.1-5.4-7-7
			C155.9,480.4,158.4,478,160,475 M46.5,251c-0.8,4.9-4.6,8.7-9.5,9.5c4.9,0.8,8.7,4.6,9.5,9.5c0.8-4.9,4.6-8.7,9.5-9.5
			C51.1,259.7,47.3,255.9,46.5,251L46.5,251z M384,358c-1.1,6.7-6.3,11.9-13,13c6.7,1.1,11.9,6.3,13,13c1.1-6.7,6.3-11.9,13-13
			C390.3,369.9,385.1,364.7,384,358L384,358z M160,469c-1.1,6.7-6.3,11.9-13,13c6.7,1.1,11.9,6.3,13,13c1.1-6.7,6.3-11.9,13-13
			C166.3,480.9,161.1,475.7,160,469L160,469z"/>
	</g>
	<g id="star_1_">
		<path class="st1" d="M76,34.9c1.5,2.5,3.6,4.7,6.1,6.1c-2.6,1.5-4.7,3.6-6.1,6.1c-1.5-2.5-3.6-4.7-6.1-6.1
			C72.4,39.5,74.5,37.4,76,34.9 M337,46.1c0.8,1.1,1.8,2.1,2.9,2.9c-1.1,0.8-2.1,1.8-2.9,2.9c-0.8-1.1-1.8-2.1-2.9-2.9
			C335.3,48.2,336.2,47.3,337,46.1 M451,164.9c1.5,2.6,3.6,4.7,6.1,6.1c-2.5,1.5-4.7,3.6-6.1,6.1c-1.5-2.6-3.6-4.7-6.1-6.1
			C447.4,169.5,449.5,167.4,451,164.9 M76,29c-1,6.2-5.8,11-12,12c6.2,1,11,5.8,12,12c1-6.2,5.8-11,12-12C81.8,40,77,35.2,76,29
			L76,29z M337,41c-0.7,4.1-3.9,7.3-8,8c4.1,0.7,7.3,3.9,8,8c0.7-4.1,3.9-7.3,8-8C340.9,48.3,337.7,45.1,337,41L337,41z M451,159
			c-1,6.1-5.9,11-12,12c6.1,1,11,5.9,12,12c1-6.1,5.9-11,12-12C456.9,170,452,165.1,451,159L451,159z"/>
	</g>
</g>
<g>
	<path class="st3" d="M82.3,217.6H38.2v-40.3h136.7v40.3h-44.1v117.1H82.3V217.6z"/>
	<path class="st3" d="M323.2,177.3h79.6c52.5,0,71,38.8,71,78.5c0,48.3-25.6,78.9-80.5,78.9h-70.1V177.3z M371.7,294.4h19
		c30.2,0,34.6-24.5,34.6-39.3c0-9.9-3.1-37.5-38.2-37.5h-15.4V294.4z"/>
</g>
</svg>
