<?xml version="1.0" encoding="utf-8"?>
<!-- Generator: Adobe Illustrator 19.2.0, SVG Export Plug-In . SVG Version: 6.00 Build 0)  -->
<svg version="1.1" id="Illustration_1_" xmlns="http://www.w3.org/2000/svg" xmlns:xlink="http://www.w3.org/1999/xlink" x="0px"
	 y="0px" viewBox="0 0 600 600" style="enable-background:new 0 0 600 600;" xml:space="preserve">
<style type="text/css">
	.st0{display:none;opacity:0.502;fill:#ADBCC5;}
	.st1{fill-rule:evenodd;clip-rule:evenodd;fill:none;stroke:#ADBCC5;stroke-miterlimit:100;}
	.st2{fill:#E69B61;}
	.st3{fill:#F5C16D;}
	.st4{fill:#ADBCC5;}
	.st5{fill:#A2B3BC;}
	.st6{fill:#8B9FAB;}
	.st7{fill:#E16D5E;}
	.st8{fill-rule:evenodd;clip-rule:evenodd;fill:#B5D2DA;}
	.st9{fill:#92BCC8;}
	.st10{fill:#FFFFFF;}
	.st11{fill-rule:evenodd;clip-rule:evenodd;fill:#92BCC8;}
	
		.st12{fill-rule:evenodd;clip-rule:evenodd;fill:none;stroke:#22303D;stroke-width:2;stroke-linecap:round;stroke-linejoin:round;stroke-miterlimit:100;}
	.st13{stroke:#22303D;stroke-width:2;stroke-linecap:round;stroke-linejoin:round;stroke-miterlimit:100;}
	.st14{fill:#79A5B1;stroke:#22303D;stroke-width:2;stroke-linecap:round;stroke-linejoin:round;stroke-miterlimit:100;}
	.st15{fill-rule:evenodd;clip-rule:evenodd;fill:#79A5B1;}
	.st16{fill:#B5D2DA;}
	.st17{fill:#FFFFFF;stroke:#22303D;stroke-width:2;stroke-linecap:round;stroke-linejoin:round;stroke-miterlimit:100;}
	
		.st18{fill-rule:evenodd;clip-rule:evenodd;fill:#B5D2DA;stroke:#22303D;stroke-width:2;stroke-linecap:round;stroke-linejoin:round;stroke-miterlimit:100;}
	.st19{fill-rule:evenodd;clip-rule:evenodd;fill:#BED9E0;}
	.st20{fill-rule:evenodd;clip-rule:evenodd;fill:#FFFFFF;}
	
		.st21{fill-rule:evenodd;clip-rule:evenodd;fill:#92BCC8;stroke:#22303D;stroke-width:2;stroke-linecap:round;stroke-linejoin:round;stroke-miterlimit:100;}
	.st22{fill-rule:evenodd;clip-rule:evenodd;fill:#F5C16D;}
	.st23{fill:#E69B61;stroke:#22303D;stroke-width:2;stroke-linecap:round;stroke-linejoin:round;stroke-miterlimit:100;}
	.st24{fill-rule:evenodd;clip-rule:evenodd;fill:#E69B61;}
	
		.st25{fill-rule:evenodd;clip-rule:evenodd;fill:none;stroke:#E69B61;stroke-width:2;stroke-linecap:round;stroke-linejoin:round;stroke-miterlimit:100;}
	.st26{fill-rule:evenodd;clip-rule:evenodd;fill:#DAE7EF;}
	.st27{fill-rule:evenodd;clip-rule:evenodd;fill:#89DAF6;}
	
		.st28{opacity:0.25;fill-rule:evenodd;clip-rule:evenodd;fill:none;stroke:#22303D;stroke-width:2;stroke-linecap:round;stroke-linejoin:round;stroke-miterlimit:100;}
	.st29{opacity:0.251;fill-rule:evenodd;clip-rule:evenodd;fill:#22303D;}
	.st30{opacity:0.25;fill-rule:evenodd;clip-rule:evenodd;fill:none;stroke:#22303D;stroke-width:2;stroke-miterlimit:100;}
	.st31{opacity:0.102;fill:#22303D;}
	
		.st32{fill-rule:evenodd;clip-rule:evenodd;fill:none;stroke:#FFFFFF;stroke-width:2;stroke-linecap:round;stroke-linejoin:round;stroke-miterlimit:100;}
	.st33{opacity:0.4;}
</style>
<g id="Stars_1_">
	<path id="circle_star" class="st0" d="M191,76c-3.31,0-6,2.69-6,6c0,3.31,2.69,6,6,6c3.31,0,6-2.69,6-6C197,78.69,194.31,76,191,76
		z M480,132c1.66,0,3-1.34,3-3c0-1.66-1.34-3-3-3c-1.66,0-3,1.34-3,3C477,130.66,478.34,132,480,132z M98,318c-2.76,0-5,2.24-5,5
		c0,2.76,2.24,5,5,5c2.76,0,5-2.24,5-5C103,320.24,100.76,318,98,318z M159,445c-3.87,0-7,3.13-7,7c0,3.87,3.13,7,7,7
		c3.87,0,7-3.13,7-7C166,448.13,162.87,445,159,445z M317,489c-1.66,0-3,1.34-3,3s1.34,3,3,3s3-1.34,3-3S318.66,489,317,489z
		 M101.5,126c-1.38,0-2.5,1.12-2.5,2.5c0,1.38,1.12,2.5,2.5,2.5c1.38,0,2.5-1.12,2.5-2.5C104,127.12,102.88,126,101.5,126z M387,31
		c-2.21,0-4,1.79-4,4c0,2.21,1.79,4,4,4c2.21,0,4-1.79,4-4C391,32.79,389.21,31,387,31z M516,324c-2.21,0-4,1.79-4,4
		c0,2.21,1.79,4,4,4c2.21,0,4-1.79,4-4C520,325.79,518.21,324,516,324z M482,467c-2.76,0-5,2.24-5,5c0,2.76,2.24,5,5,5
		c2.76,0,5-2.24,5-5C487,469.24,484.76,467,482,467z M356,121c-1.66,0-3,1.34-3,3c0,1.66,1.34,3,3,3c1.66,0,3-1.34,3-3
		C359,122.34,357.66,121,356,121z"/>
	<g id="line_star">
		<line id="line_star_6_" class="st1" x1="146" y1="381" x2="85" y2="442"/>
		<line id="line_star_5_" class="st1" x1="445" y1="417" x2="384" y2="478"/>
		<line id="line_star_4_" class="st1" x1="338" y1="54" x2="277" y2="115"/>
		<line id="line_star_3_" class="st1" x1="509" y1="209" x2="448" y2="270"/>
		<line id="line_star_2_" class="st1" x1="144" y1="145" x2="119" y2="171"/>
	</g>
	<path id="star" class="st2" d="M172,474c-1.11,6.67-6.33,11.89-13,13c6.67,1.11,11.89,6.33,13,13c1.11-6.67,6.33-11.89,13-13
		C178.33,485.89,173.11,480.67,172,474z M463,379c-1.11,6.67-6.33,11.89-13,13c6.67,1.11,11.89,6.33,13,13
		c1.11-6.67,6.33-11.89,13-13C469.33,390.89,464.11,385.67,463,379z M89.5,264c-0.81,4.87-4.63,8.69-9.5,9.5
		c4.87,0.81,8.69,4.63,9.5,9.5c0.81-4.87,4.63-8.69,9.5-9.5C94.13,272.69,90.31,268.87,89.5,264z"/>
	<path id="star_1_" class="st3" d="M380,54c-0.68,4.1-3.9,7.32-8,8c4.1,0.68,7.32,3.9,8,8c0.68-4.1,3.9-7.32,8-8
		C383.9,61.32,380.68,58.1,380,54z M119,42c-1.03,6.15-5.85,10.97-12,12c6.15,1.03,10.97,5.85,12,12c1.03-6.15,5.85-10.97,12-12
		C124.85,52.97,120.03,48.15,119,42z M494,172c-1.03,6.15-5.85,10.97-12,12c6.15,1.03,10.97,5.85,12,12c1.03-6.15,5.85-10.97,12-12
		C499.85,182.97,495.03,178.15,494,172z"/>
</g>
<g id="Planet">
	<g>
		<path class="st4" d="M356.5,250c28.09,0,54.4-7.6,77-20.85c-0.31-0.65-0.5-1.38-0.5-2.15c0-2.76,2.24-5,5-5
			c1.57,0,2.96,0.74,3.88,1.88c18.75-12.69,34.51-29.45,46.05-49c-2.35-1.39-3.93-3.95-3.93-6.88c0-4.42,3.58-8,8-8
			c1.18,0,2.3,0.26,3.31,0.72C504.1,141.46,509,120.05,509,97.5c0-15.35-2.28-30.16-6.49-44.13
			c-10.84-14.24-24.54-26.19-40.26-34.96c0.08-0.15,0.17-0.29,0.24-0.45c1.78-4.04-1.49-9.4-7.31-11.95s-11.97-1.35-13.75,2.69
			c-0.05,0.12-0.08,0.24-0.13,0.35C428.04,4.48,413.81,2,399,2c-42.17,0-79.65,20.09-103.4,51.21c-0.28-0.18-0.55-0.36-0.86-0.5
			c-6.3-2.95-15.78,3.74-21.16,14.94c-5.29,11-4.65,22.25,1.34,25.45C271.08,105.39,269,118.45,269,132
			c0,31.64,11.31,60.64,30.1,83.19c-1.62,3.81-1.36,8.66,1.11,12.94c3.87,6.7,11.65,9.44,17.39,6.12c0.21-0.12,0.41-0.26,0.61-0.4
			c7.65,6.08,16.01,11.31,24.92,15.56C347.54,249.79,351.99,250,356.5,250z"/>
	</g>
	<path id="craters" class="st5" d="M361,98c-11.05,0-20,8.95-20,20c0,11.05,8.95,20,20,20c11.05,0,20-8.95,20-20
		C381,106.96,372.05,98,361,98z M428,163c-7.18,0-13,5.82-13,13c0,7.18,5.82,13,13,13s13-5.82,13-13C441,168.82,435.18,163,428,163z
		 M494,99c0-8.28-6.72-15-15-15c-8.28,0-15,6.72-15,15c0,8.28,6.72,15,15,15C487.28,114,494,107.29,494,99z M399,33
		c-5.52,0-10,4.48-10,10c0,5.52,4.48,10,10,10c5.52,0,10-4.48,10-10C409,37.48,404.52,33,399,33z M349.5,195
		c-4.69,0-8.5,3.81-8.5,8.5c0,4.69,3.81,8.5,8.5,8.5c4.69,0,8.5-3.81,8.5-8.5C358,198.81,354.19,195,349.5,195z M401.5,232
		c-2.49,0-4.5,2.01-4.5,4.5c0,2.49,2.01,4.5,4.5,4.5c2.49,0,4.5-2.01,4.5-4.5C406,234.02,403.99,232,401.5,232z M290.5,126
		c-4.69,0-8.5,3.81-8.5,8.5c0,4.69,3.81,8.5,8.5,8.5c4.69,0,8.5-3.81,8.5-8.5C299,129.81,295.19,126,290.5,126z M327.5,48
		c-2.49,0-4.5,2.01-4.5,4.5c0,2.49,2.01,4.5,4.5,4.5c2.49,0,4.5-2.01,4.5-4.5C332,50.02,329.99,48,327.5,48z M293.25,78.09
		c4.13-8.55,3.56-17.31-1.28-19.57c-4.83-2.25-12.1,2.85-16.22,11.4c-4.13,8.55-3.56,17.31,1.28,19.57
		C281.85,91.74,289.12,86.64,293.25,78.09z M305.39,214.91c-3.51,0.91-4.67,5.43-1.67,10.48c3.44,5.78,9.74,8.28,12.91,5.41
		c2.61-2.36,1.71-7.37-1.32-11.18C312.56,216.16,308.39,214.13,305.39,214.91z M453.69,8.93c-3.96-1.77-8.16-0.94-9.37,1.86
		c-1.21,2.8,1.02,6.5,4.98,8.27c3.96,1.77,8.16,0.94,9.37-1.86C459.88,14.4,457.65,10.7,453.69,8.93z"/>
	<path id="shadow_craters" class="st6" d="M327.5,48c-2.49,0-4.5,2.01-4.5,4.5c0,1.76,1.02,3.27,2.49,4.01
		c-0.3-0.61-0.49-1.28-0.49-2.01c0-2.49,2.01-4.5,4.5-4.5c0.73,0,1.4,0.19,2.01,0.49C330.77,49.02,329.26,48,327.5,48z M349.5,195
		c-4.69,0-8.5,3.81-8.5,8.5c0,2.86,1.42,5.38,3.58,6.92c-0.99-1.39-1.58-3.09-1.58-4.92c0-4.69,3.81-8.5,8.5-8.5
		c1.84,0,3.53,0.59,4.92,1.58C354.88,196.42,352.36,195,349.5,195z M361,98c-11.05,0-20,8.95-20,20c0,6.54,3.16,12.34,8.02,15.98
		c-2.51-3.34-4.02-7.48-4.02-11.98c0-11.05,8.95-20,20-20c4.5,0,8.64,1.51,11.98,4.02C373.34,101.16,367.54,98,361,98z
		 M305.55,223.64c-1.98-3.32-2.14-6.41-1.03-8.39c-2.8,1.4-3.53,5.54-0.79,10.14c3.44,5.78,9.74,8.28,12.91,5.41
		c0.36-0.32,0.64-0.7,0.87-1.12C314.15,231.42,308.67,228.89,305.55,223.64z M290.5,126c-4.69,0-8.5,3.81-8.5,8.5
		c0,2.86,1.42,5.38,3.58,6.92c-0.99-1.39-1.58-3.09-1.58-4.92c0-4.69,3.81-8.5,8.5-8.5c1.84,0,3.53,0.59,4.92,1.58
		C295.88,127.42,293.36,126,290.5,126z M294.02,60.18c-0.57-0.71-1.25-1.28-2.05-1.66c-4.83-2.25-12.1,2.85-16.22,11.4
		c-4.13,8.55-3.56,17.31,1.28,19.57c0.31,0.14,0.62,0.25,0.95,0.34c-2.83-3.53-2.66-10.79,0.78-17.91
		C282.61,63.91,289.23,58.93,294.02,60.18z M464,99c0,6.67,4.36,12.32,10.39,14.27c-3.86-2.71-6.39-7.19-6.39-12.27
		c0-8.28,6.72-15,15-15c1.61,0,3.16,0.26,4.61,0.73c-2.44-1.71-5.4-2.73-8.61-2.73C470.72,84,464,90.72,464,99z M453.69,8.93
		c-3.96-1.77-8.16-0.94-9.37,1.86c-0.36,0.83-0.41,1.74-0.21,2.65c0.05-0.22,0.12-0.44,0.21-0.65c1.21-2.8,5.41-3.63,9.37-1.86
		c2.79,1.25,4.72,3.45,5.19,5.62C459.53,13.86,457.35,10.57,453.69,8.93z M399,33c-5.52,0-10,4.48-10,10c0,3.27,1.58,6.17,4.01,7.99
		C391.75,49.32,391,47.25,391,45c0-5.52,4.48-10,10-10c2.25,0,4.32,0.75,5.99,2.01C405.17,34.58,402.27,33,399,33z M415,176
		c0,5.16,3.01,9.6,7.37,11.7c-2.68-2.38-4.37-5.84-4.37-9.7c0-7.18,5.82-13,13-13c2.02,0,3.92,0.47,5.63,1.3
		c-2.3-2.04-5.31-3.3-8.63-3.3C420.82,163,415,168.82,415,176z M401.5,232c-2.49,0-4.5,2.01-4.5,4.5c0,1.76,1.02,3.27,2.49,4.01
		c-0.3-0.61-0.49-1.28-0.49-2.01c0-2.49,2.01-4.5,4.5-4.5c0.73,0,1.4,0.19,2.01,0.49C404.77,233.02,403.26,232,401.5,232z"/>
	<path id="fold" class="st6" d="M358.59,143.89c0.8,0.07,1.6,0.12,2.41,0.12c14.36,0,26-11.64,26-26c0-0.81-0.04-1.62-0.12-2.41
		C385.64,130.64,373.64,142.64,358.59,143.89z M300,66.5c0,12.74-7.56,23.7-18.44,28.66C292.74,92.26,301,82.1,301,70
		c0-2.91-0.48-5.7-1.37-8.31C299.87,63.26,300,64.87,300,66.5z M426.27,194.77c0.89,0.14,1.8,0.23,2.73,0.23c9.94,0,18-8.06,18-18
		c0-0.93-0.09-1.83-0.23-2.73C445.32,184.91,436.91,193.32,426.27,194.77z M497.61,92.47c0.25,1.31,0.39,2.66,0.39,4.04
		c0,9.5-6.17,17.54-14.71,20.39c8.83-0.97,15.71-8.45,15.71-17.54C499,96.91,498.5,94.58,497.61,92.47z"/>
</g>
<g id="Cat_1_">
	<path id="fire_3_" class="st3" d="M334,473c-6.63,0-12,5.37-12,12v27h-76.08c-2.11-1.86-4.88-3-7.92-3s-5.8,1.14-7.92,3H226v9v56v3
		h0.39c1.33,5.17,6.02,9,11.61,9s10.27-3.83,11.61-9H250v-5c0-6.63,5.37-12,12-12s12,5.37,12,12v5v6c0,6.63,5.37,12,12,12
		s12-5.37,12-12v-6v-8c0-6.63,5.37-12,12-12c6.63,0,12,5.37,12,12v8v1c0,6.63,5.37,12,12,12s12-5.37,12-12v-1v-68v-27
		C346,478.37,340.63,473,334,473z"/>
	<path id="fire_2_" class="st7" d="M334,455c-6.63,0-12,5.37-12,12v32h-24v-11c0-6.63-5.37-12-12-12s-12,5.37-12,12v11h-24
		c0-6.63-5.37-12-12-12s-12,5.37-12,12v46v10c0,6.63,5.37,12,12,12s12-5.37,12-12v-10v-2c0-6.63,5.37-12,12-12s12,5.37,12,12v2h0.05
		c0.51,6.16,5.66,11,11.95,11s11.44-4.84,11.95-11H298v-9c0-6.63,5.37-12,12-12c6.63,0,12,5.37,12,12v9v18c0,6.63,5.37,12,12,12
		s12-5.37,12-12v-18v-46v-32C346,460.37,340.63,455,334,455z"/>
	<ellipse id="fill_body_1_" class="st8" cx="285.5" cy="351" rx="97.5" ry="173"/>
	<path id="body_shadow_1_" class="st9" d="M341,444c0-2.21-1.79-4-4-4s-4,1.79-4,4s1.79,4,4,4S341,446.21,341,444z M285.5,178
		c-2.35,0-4.69,0.16-7,0.45C329.08,184.82,369,259.63,369,351c0,22.99-2.53,44.93-7.13,65H362c2.21,0,4,1.79,4,4s-1.79,4-4,4h-2.09
		H357c-2.21,0-4,1.79-4,4c0,2.21,1.79,4,4,4h0.67H358c2.21,0,4,1.79,4,4s-1.79,4-4,4h-2h-0.9H348c-2.21,0-4,1.79-4,4s1.79,4,4,4h4
		h0.22c0,0.01-0.01,0.01-0.01,0.02c2.11,0.11,3.79,1.84,3.79,3.98c0,2.21-1.79,4-4,4h-3h-0.04H341c-2.21,0-4,1.79-4,4
		c0,2.21,1.79,4,4,4h4h0.29c0,0.01-0.01,0.02-0.01,0.03c2.08,0.14,3.72,1.86,3.72,3.97c0,2.21-1.79,4-4,4h-3.87
		c-16.17,29.3-38.14,48.47-62.63,51.55c2.31,0.29,4.65,0.45,7,0.45c53.85,0,97.5-77.45,97.5-173S339.35,178,285.5,178z"/>
	<path id="head_shadow_3_" class="st9" d="M285.5,178c-53.85,0-97.5,77.45-97.5,173c0,7.88,0.3,15.64,0.88,23.25
		C209.01,401.96,248.97,411,295,411c33.25,0,63.34-4.72,85.07-17.78c1.91-13.51,2.93-27.65,2.93-42.22
		C383,255.46,339.35,178,285.5,178z"/>
	<path id="body_shine_1_" class="st10" d="M200,351c0-91.97,40.45-167.16,91.5-172.66c-1.99-0.21-3.98-0.34-6-0.34
		c-53.85,0-97.5,77.45-97.5,173s43.65,173,97.5,173c2.02,0,4.01-0.12,6-0.34C240.45,518.16,200,442.97,200,351z"/>
	<rect id="fill_zip_1_" x="284" y="403" class="st11" width="4" height="121"/>
	<path id="zip_1_" class="st12" d="M284,440v-37h4v104.08 M288,514v10h-4v-68"/>
	<g id="diagonal_line_1_">
		<line id="diagonal_line_9_" class="st13" x1="239.25" y1="430.25" x2="265.51" y2="456.76"/>
		<line id="diagonal_line_8_" class="st13" x1="253.73" y1="432.97" x2="265.75" y2="445.11"/>
		<line id="diagonal_line_7_" class="st13" x1="239.25" y1="442.14" x2="245.14" y2="448.08"/>
		<line id="diagonal_line_6_" class="st13" x1="249.56" y1="452.54" x2="249.56" y2="452.54"/>
	</g>
	<path id="body_1_" class="st12" d="M318,514.16c-10.16,6.37-21.1,9.84-32.5,9.84c-4.01,0-7.96-0.43-11.85-1.26 M265.59,520.39
		C221.29,504.08,188,434.44,188,351c0-95.55,43.65-173,97.5-173S383,255.45,383,351c0,65.57-20.56,122.63-50.87,151.97
		 M325.8,508.58c-0.54,0.43-1.07,0.86-1.62,1.27"/>
	<g id="paw_right_1_">
		<circle id="fill_arms_base_circle" class="st11" cx="373.5" cy="399.5" r="21.5"/>
		<path id="shadow_arms_base_circle" class="st9" d="M373.5,378c-11.87,0-21.5,9.63-21.5,21.5c0,1.73,0.23,3.41,0.61,5.02
			c14.67-3.96,27.46-9.96,37.59-18.54C386.26,381.11,380.25,378,373.5,378z"/>
		<circle id="arms_base_circle" class="st12" cx="373.5" cy="399.5" r="21.5"/>
		<path id="fill_paw" class="st9" d="M471.41,335.78c-0.46-2.73-3.05-4.56-5.78-4.09c-0.08,0.01-0.15,0.05-0.23,0.06
			c-0.63-1.39-1.39-2.69-2.28-3.88c0.09-0.1,0.2-0.18,0.29-0.29c1.75-2.17,1.41-5.34-0.76-7.09c-2.17-1.75-5.34-1.41-7.09,0.76
			c-0.07,0.09-0.11,0.18-0.18,0.27c-1.24-0.59-2.54-1.06-3.88-1.4c0.04-0.27,0.07-0.54,0.07-0.82c-0.05-2.78-2.34-5-5.12-4.96
			c-2.78,0.05-5,2.34-4.96,5.12c0,0.21,0.04,0.41,0.07,0.62c-4.38,1.05-8.14,3.44-10.91,6.66c-2.3-1.43-5.33-0.81-6.84,1.46
			c-1.55,2.31-0.93,5.44,1.38,6.99c0.3,0.2,0.61,0.36,0.94,0.49c-0.58,2.52-0.72,5.19-0.31,7.91c0.01,0.06,0.03,0.12,0.04,0.18
			c-8.15,18.72-25.34,32.16-45.76,35.28l-7.75,1.19c-9.76,1.49-16.46,10.65-14.96,20.45c1.5,9.8,10.63,16.54,20.39,15.05l8.05-1.23
			c33.65-5.15,61.81-27.57,74.71-58.61c3.96-3.64,6.45-8.76,6.73-14.33c0.01,0,0.02,0,0.04,0
			C470.04,341.09,471.87,338.51,471.41,335.78z"/>
		<path id="shadow_paw" class="st9" d="M404.13,369.72c-7.11,4.74-15.27,7.98-24.03,9.32l-7.75,1.19
			c-9.76,1.49-16.46,10.65-14.96,20.45c0.12,0.79,0.31,1.54,0.52,2.29C378.03,396.64,394.2,386.1,404.13,369.72z"/>
		<path id="paw_4_" class="st12" d="M357.39,400.68c-1.5-9.8,5.2-18.96,14.96-20.45l7.75-1.19c20.42-3.12,37.61-16.56,45.76-35.28
			c-0.01-0.06-0.03-0.12-0.04-0.18c-0.42-2.72-0.29-5.39,0.29-7.91c-0.32-0.13-0.63-0.29-0.92-0.49c-2.31-1.55-2.93-4.68-1.38-6.99
			c1.52-2.27,4.56-2.89,6.86-1.45c2.77-3.22,6.52-5.62,10.9-6.67c-0.03-0.2-0.07-0.41-0.07-0.62c-0.05-2.78,2.17-5.08,4.96-5.12
			c2.78-0.05,5.08,2.17,5.12,4.96c0,0.29-0.03,0.57-0.07,0.84c1.34,0.34,2.64,0.81,3.87,1.4c0.07-0.09,0.11-0.2,0.19-0.29
			c1.75-2.17,4.92-2.5,7.09-0.76c2.17,1.75,2.5,4.92,0.76,7.09c-0.09,0.12-0.21,0.21-0.31,0.31c0.89,1.19,1.68,2.48,2.3,3.86
			c0.08-0.02,0.15-0.05,0.23-0.06c2.73-0.46,5.32,1.37,5.78,4.09c0.46,2.73-1.37,5.31-4.1,5.78c-0.01,0-0.02,0-0.04,0
			c-0.29,5.57-2.78,10.69-6.73,14.33c-12.9,31.03-41.06,53.46-74.71,58.61l-8.05,1.23c-7.07,1.08-13.81-2.16-17.56-7.75"/>
		<path id="elbow_ring" class="st14" d="M430.56,396.73c-4.3,4.3-13.95,1.6-21.57-6.01c-7.62-7.62-10.31-17.27-6.01-21.57
			c1.22-1.22,2.87-1.85,4.78-2c-3.21-0.31-6.04,0.42-7.97,2.35c-4.88,4.88-2.19,15.49,6.01,23.69c8.2,8.2,18.81,10.89,23.69,6.01
			c1.06-1.06,1.74-2.39,2.1-3.9C431.31,395.82,430.98,396.31,430.56,396.73z"/>
		<path id="elbow_ring_1_" class="st14" d="M442.56,384.73c-4.3,4.3-13.95,1.6-21.57-6.01s-10.31-17.27-6.01-21.57
			c1.22-1.22,2.87-1.85,4.78-2c-3.21-0.31-6.04,0.42-7.97,2.35c-4.88,4.88-2.19,15.49,6.01,23.69c8.2,8.2,18.81,10.89,23.69,6.01
			c1.06-1.06,1.74-2.39,2.1-3.9C443.31,383.82,442.98,384.31,442.56,384.73z"/>
		<circle id="fill_center_circle_paw" class="st15" cx="447" cy="340" r="10"/>
		<path id="center_circle_paw_2_" class="st12" d="M447,350c-5.52,0-10-4.48-10-10s4.48-10,10-10c5.52,0,10,4.48,10,10
			c0,0.63-0.06,1.24-0.17,1.83 M454.31,346.82c-0.32,0.34-0.66,0.66-1.02,0.95"/>
	</g>
	<g id="paw_left_1_">
		<path id="shadow_paw_4_" class="st9" d="M245.7,487.39c-0.19-0.09-0.39-0.14-0.58-0.21c1.02-4.38,0.55-8.82-1.1-12.74
			c2.31-1.42,3.1-4.41,1.75-6.78c-1.38-2.42-4.46-3.26-6.87-1.88c-0.31,0.18-0.6,0.39-0.86,0.62c-2-1.65-4.32-2.96-6.94-3.8
			c-0.06-0.02-0.12-0.03-0.17-0.05c-13.12-15.65-17.48-37.02-11.16-56.69l2.4-7.47c3.02-9.4-2.19-19.48-11.64-22.51
			c-9.44-3.03-19.54,2.13-22.56,11.54l-2.49,7.76c-10.4,32.41-2.89,67.62,19.13,93c1.87,6.47,6.84,11.92,13.75,14.14
			c8.28,2.66,16.99-0.09,22.3-6.27c0.22,0.16,0.45,0.31,0.7,0.43c2.51,1.2,5.52,0.14,6.72-2.37
			C249.27,491.6,248.21,488.59,245.7,487.39z"/>
		
			<ellipse id="fill_arms_base_circle_2_" transform="matrix(0.4461 -0.895 0.895 0.4461 -242.4984 401.8528)" class="st11" cx="203.39" cy="396.83" rx="21.5" ry="21.5"/>
		
			<ellipse id="shadow_arms_base_circle_2_" transform="matrix(0.4461 -0.895 0.895 0.4461 -242.4984 401.8528)" class="st11" cx="203.39" cy="396.83" rx="21.5" ry="21.5"/>
		
			<ellipse id="arms_base_circle_2_" transform="matrix(0.4461 -0.895 0.895 0.4461 -242.4984 401.8528)" class="st12" cx="203.39" cy="396.83" rx="21.5" ry="21.5"/>
		<path id="fill_paw_2_" class="st16" d="M241.7,490.39c-0.19-0.09-0.39-0.14-0.58-0.21c1.02-4.38,0.55-8.82-1.1-12.74
			c2.31-1.42,3.1-4.41,1.75-6.78c-1.38-2.42-4.46-3.26-6.87-1.88c-0.31,0.18-0.6,0.39-0.86,0.62c-2-1.65-4.32-2.96-6.94-3.8
			c-0.06-0.02-0.12-0.03-0.17-0.05c-13.12-15.65-17.48-37.02-11.16-56.69l2.4-7.47c3.02-9.4-2.19-19.48-11.64-22.51
			c-9.44-3.03-19.54,2.13-22.56,11.54l-2.49,7.76c-10.4,32.41-2.89,67.62,19.13,93c1.5,5.16,4.97,9.68,9.82,12.42
			c0,0.01-0.01,0.02-0.01,0.03c-0.8,2.65,0.7,5.44,3.34,6.24c2.65,0.8,5.44-0.7,6.24-3.35c0.02-0.08,0.03-0.15,0.04-0.23
			c1.52,0.05,3.03-0.04,4.5-0.31c0.05,0.13,0.07,0.26,0.13,0.39c1.16,2.53,4.15,3.64,6.68,2.48c2.53-1.16,3.64-4.15,2.48-6.68
			c-0.05-0.1-0.11-0.18-0.16-0.28c1.08-0.84,2.08-1.79,2.99-2.85c0.22,0.16,0.45,0.31,0.7,0.43c2.51,1.2,5.52,0.14,6.72-2.37
			C245.27,494.6,244.21,491.59,241.7,490.39z"/>
		<path id="shadow_paw_3_" class="st9" d="M214.49,396.58c-8.64,23.07-7.94,55.68,12.2,70.02c0.07,0.02,0.14,0.03,0.21,0.05
			c3.98,1.18,0.07-1.08,0.02-1.1c-13.12-15.65-17.48-37.02-11.16-56.69l2.4-7.47c2.61-8.13-0.94-16.75-8.04-20.9
			C214.98,388.35,214.49,396.58,214.49,396.58z"/>
		<path id="shine_1_" class="st10" d="M221.29,499.05c-6.51-2.07-11.18-7.18-12.94-13.22c-20.72-23.74-27.79-56.65-18-86.96
			l2.34-7.25c2.34-7.25,9.23-11.8,16.56-11.58c-0.87-0.45-1.77-0.84-2.73-1.15c-9.44-3.03-19.54,2.13-22.56,11.54l-2.49,7.76
			c-10.4,32.41-2.89,67.62,19.13,93c1.5,5.16,4.97,9.68,9.82,12.42c0,0.01-0.01,0.02-0.01,0.03c-0.8,2.65,0.7,5.44,3.34,6.24
			c2.65,0.8,5.44-0.7,6.24-3.35c0.02-0.08,0.03-0.15,0.04-0.23c1.52,0.05,3.02-0.07,4.49-0.34c0.05,0.14,0.08,0.28,0.14,0.41
			c1.16,2.53,4.15,3.64,6.68,2.48c2.53-1.16,3.64-4.15,2.48-6.68c-0.05-0.11-0.12-0.19-0.17-0.3c1.08-0.84,2.07-1.8,2.98-2.84
			c0.23,0.16,0.46,0.32,0.72,0.44c2.51,1.2,5.52,0.14,6.72-2.37c0.87-1.82,0.54-3.89-0.66-5.36
			C238.59,498.53,229.7,501.73,221.29,499.05z"/>
		<path id="paw_1_" class="st12" d="M241.7,490.39c-0.19-0.09-0.39-0.14-0.58-0.21c1.01-4.38,0.54-8.81-1.11-12.73
			c2.31-1.41,3.11-4.41,1.76-6.79c-1.38-2.42-4.46-3.26-6.87-1.88c-0.31,0.18-0.59,0.38-0.85,0.61c-2-1.65-4.33-2.95-6.95-3.79
			c-0.06-0.02-0.12-0.03-0.17-0.05c-8.68-10.35-13.52-23.2-13.98-36.41l0.23-7.73c0.4-4.21,1.26-8.42,2.58-12.56l2.4-7.47
			c3.02-9.4-2.19-19.48-11.64-22.51c-9.44-3.03-19.54,2.13-22.56,11.54l-2.49,7.76c-10.4,32.41-2.89,67.62,19.13,93
			c1.5,5.16,4.97,9.68,9.82,12.42c0,0.01-0.01,0.02-0.01,0.03c-0.8,2.65,0.7,5.44,3.34,6.24c2.65,0.8,5.44-0.7,6.24-3.35
			c0.02-0.08,0.03-0.15,0.04-0.23c1.52,0.05,3.02-0.07,4.49-0.34c0.05,0.14,0.08,0.28,0.14,0.41c1.16,2.53,4.15,3.64,6.68,2.48
			c2.53-1.16,3.64-4.15,2.48-6.68c-0.05-0.11-0.12-0.19-0.17-0.3c1.08-0.84,2.07-1.8,2.98-2.84c0.23,0.16,0.46,0.32,0.72,0.44
			c2.51,1.2,5.52,0.14,6.72-2.37C245.27,494.6,244.21,491.59,241.7,490.39z"/>
		<path id="elbow_ring_5_" class="st17" d="M180.67,456.9c-2.68-5.7,2.9-13.85,12.47-18.21c9.57-4.36,19.49-3.27,22.17,2.42
			c0.38,0.8,0.57,1.66,0.64,2.54c0.83-2.43,0.86-4.82-0.11-6.9c-2.94-6.34-13.81-7.55-24.29-2.7
			c-10.48,4.85-16.59,13.93-13.66,20.27c0.72,1.55,1.92,2.79,3.47,3.72C181.1,457.68,180.86,457.3,180.67,456.9z"/>
		<path id="elbow_ring_4_" class="st17" d="M187.36,472.05c-2.59-5.53,2.8-13.45,12.04-17.68c9.24-4.23,18.83-3.18,21.42,2.35
			c0.37,0.78,0.56,1.61,0.61,2.47c0.8-2.36,0.83-4.67-0.1-6.7c-2.84-6.16-13.34-7.33-23.47-2.62
			c-10.12,4.71-16.03,13.52-13.19,19.67c0.69,1.51,1.86,2.71,3.35,3.61C187.78,472.8,187.55,472.44,187.36,472.05z"/>
	</g>
	<path id="antenna_1_" class="st18" d="M165,273c-7.73,0-14,6.27-14,14v16c0,7.73,6.27,14,14,14h2v-44H165z"/>
	<path id="fill_antenna_fasteners_1_" class="st19" d="M142,288c-3.87,0-7,3.13-7,7c0,3.87,3.13,7,7,7h9v-14H142z"/>
	<path id="antenna_fasteners_shine_1_" class="st10" d="M140,295c0-3.87,3.13-7,7-7h-5c-3.87,0-7,3.13-7,7c0,3.87,3.13,7,7,7h5
		C143.13,302,140,298.87,140,295z"/>
	<path id="antenna_fasteners_1_" class="st12" d="M142,288c-3.87,0-7,3.13-7,7c0,3.87,3.13,7,7,7h9v-14H142z"/>
	<rect id="fill_antenna_support_1_" x="143" y="210" class="st19" width="6" height="78"/>
	<rect id="antenna_support_shine_1_" x="143" y="210" class="st20" width="3" height="78"/>
	<rect id="antenna_support_1_" x="143" y="210" class="st12" width="6" height="78"/>
	<circle id="fill_antenna_end_1_" class="st19" cx="146" cy="206" r="9"/>
	<path id="antenna_end_shine_1_" class="st10" d="M141,209c0-4.97,4.03-9,9-9c1.12,0,2.19,0.21,3.18,0.59
		c-1.64-2.18-4.24-3.59-7.18-3.59c-4.97,0-9,4.03-9,9c0,3.85,2.42,7.13,5.82,8.41C141.68,212.9,141,211.03,141,209z"/>
	<circle id="antenna_end_1_" class="st12" cx="146" cy="206" r="9"/>
	<path id="antenna_right_1_" class="st21" d="M407,273h-2v44h2c7.73,0,14-6.27,14-14v-16C421,279.27,414.73,273,407,273z"/>
	<path id="antenna_fasteners_right_1_" class="st21" d="M430,288h-9v14h9c3.87,0,7-3.13,7-7C437,291.13,433.87,288,430,288z"/>
	<path id="antenna_support_right_1_" class="st21" d="M427,210h-2c-1.1,0-2,0.9-2,2v76h6v-76C429,210.9,428.1,210,427,210z"/>
	<circle id="antenna_end_right_1_" class="st21" cx="426" cy="206" r="9"/>
	<path id="fill_head_1_" class="st22" d="M286,154c-66.27,0-120,53.73-120,120v44c0,66.27,53.73,85,120,85c66.27,0,120-18.73,120-85
		v-44C406,207.73,352.27,154,286,154z"/>
	<g id="bottom_line_head_1_">
		<line id="bottom_line_head_13_" class="st12" x1="279" y1="396" x2="279" y2="402"/>
		<line id="bottom_line_head_12_" class="st12" x1="274" y1="398" x2="274" y2="402"/>
		<line id="bottom_line_head_11_" class="st12" x1="269" y1="399" x2="269" y2="402"/>
		<line id="bottom_line_head_10_" class="st12" x1="303" y1="399" x2="303" y2="402"/>
		<line id="bottom_line_head_9_" class="st12" x1="298" y1="398" x2="298" y2="402"/>
		<line id="bottom_line_head_8_" class="st12" x1="293" y1="396" x2="293" y2="402"/>
	</g>
	<path id="head_shadow_2_" class="st2" d="M286,154c-2.52,0-5.02,0.09-7.5,0.24C341.28,158.11,391,210.25,391,274v35
		c2.21,0,4,1.79,4,4c0,2.21-1.79,4-4,4h-3c-2.21,0-4,1.79-4,4s1.79,4,4,4h2.78c0,0.03,0,0.05,0,0.08c1.84,0.36,3.23,1.98,3.23,3.92
		c0,2.21-1.79,4-4,4h-0.02H384h-2c-2.21,0-4,1.79-4,4c0,2.21,1.79,4,4,4h6h0.48c0,0.02-0.01,0.03-0.01,0.05
		c1.99,0.23,3.54,1.9,3.54,3.95c0,2.21-1.79,4-4,4h-1.88H384c-2.21,0-4,1.79-4,4c0,1.79,1.18,3.29,2.81,3.8
		c-0.03,0.07-0.07,0.13-0.11,0.2h0.3c2.21,0,4,1.79,4,4c0,2.21-1.79,4-4,4h-5.04c-18.76,27.13-55.96,36.94-99.46,37.91
		c2.48,0.06,4.98,0.09,7.5,0.09c66.27,0,120-18.73,120-85v-44C406,207.73,352.27,154,286,154z"/>
	<path id="head_shine_1_" class="st10" d="M181,318v-44c0-63.75,49.72-115.89,112.5-119.76c-2.48-0.15-4.98-0.24-7.5-0.24
		c-66.27,0-120,53.73-120,120v44c0,66.27,53.73,85,120,85c2.52,0,5.02-0.03,7.5-0.09C230.72,401.5,181,381.75,181,318z"/>
	<path id="head_1_" class="st12" d="M406,290.75V293 M406,302v16c0,66.27-53.73,85-120,85c-8.57,0-16.94-0.31-25-1 M252.99,401.18
		c-0.62-0.07-1.24-0.15-1.86-0.23 M242.24,399.59C197.6,391.69,166,368.83,166,318v-44c0-66.27,53.73-120,120-120
		c66.27,0,120,53.73,120,120v7"/>
	<path id="buttons_bottom_1_" class="st23" d="M266,378c-2.21,0-4,1.79-4,4c0,2.21,1.79,4,4,4c2.21,0,4-1.79,4-4
		C270,379.79,268.21,378,266,378z M244,374c-1.66,0-3,1.34-3,3c0,1.66,1.34,3,3,3c1.66,0,3-1.34,3-3C247,375.34,245.66,374,244,374z
		 M225,367c-1.1,0-2,0.9-2,2c0,1.1,0.9,2,2,2s2-0.9,2-2C227,367.9,226.1,367,225,367z M306,378c-2.21,0-4,1.79-4,4
		c0,2.21,1.79,4,4,4s4-1.79,4-4C310,379.79,308.21,378,306,378z M328,374c-1.66,0-3,1.34-3,3c0,1.66,1.34,3,3,3s3-1.34,3-3
		C331,375.34,329.66,374,328,374z M347,367c-1.1,0-2,0.9-2,2c0,1.1,0.9,2,2,2c1.1,0,2-0.9,2-2C349,367.9,348.1,367,347,367z"/>
	<rect id="fill_bottom_seam_1_" x="284" y="361" class="st24" width="4" height="42"/>
	<path id="bottom_seam_1_" class="st12" d="M284,370v-9h4v9 M288,377v9 M288,393v10h-4v-10 M284,386v-9"/>
	<path id="fill_top_seam_left_1_" class="st25" d="M244.01,163.2c4.86,11.72,6.7,23.29,5.51,32.79"/>
	<path id="top_seam_left_2_" class="st12" d="M242.01,163.2c2.79,6.73,4.59,13.41,5.38,19.67 M247.86,189.38
		c0.03,2.29-0.08,4.51-0.34,6.62"/>
	<path id="top_seam_left_1_" class="st12" d="M247.89,167.16c3.44,9.99,4.64,19.67,3.63,27.83"/>
	<path id="fill_top_seam_right_1_" class="st25" d="M327.99,163.2c-4.86,11.72-6.7,23.29-5.51,32.79"/>
	<path id="top_seam_right_2_" class="st12" d="M329.99,163.2c-1.25,3.01-2.3,6.01-3.15,8.97 M325.26,178.82
		c-1.17,6.13-1.42,11.97-0.78,17.17"/>
	<path id="top_seam_right_1_" class="st12" d="M325.99,162.2c-4.86,11.72-6.7,23.29-5.51,32.79"/>
	<g id="top_seam_horizontal_1_">
		<line id="top_seam_horizontal_5_" class="st12" x1="271" y1="170" x2="301" y2="170"/>
		<line id="top_seam_horizontal_4_" class="st12" x1="276" y1="178" x2="296" y2="178"/>
	</g>
	<path id="glass_frame_2_" class="st12" d="M387.17,323.13c-0.2,0.35-0.41,0.71-0.62,1.06 M382.39,330.54
		c-2.12,2.94-4.43,5.74-6.94,8.41 M370.66,343.64c-8.34,7.53-18.58,13.7-30.89,18.17 M205.13,345.73c-0.43-0.35-0.87-0.71-1.29-1.07
		 M198.68,339.92c-9.96-9.91-17.05-21.86-21.55-35.16"/>
	<path id="fill_glass_frame_1_" class="st26" d="M286,192c-56.89,0-103,22.35-103,74.53C183,318.7,212.75,361,287.05,361
		S389,318.7,389,266.53C389,214.35,342.89,192,286,192z"/>
	<path id="glass_frame_1_" class="st12" d="M253.62,357.64c-0.62-0.14-1.24-0.28-1.85-0.42 M243.75,355.03
		C200.94,341.6,183,307.04,183,266.53c0-52.18,46.11-74.53,103-74.53c18.89,0,36.6,2.46,51.82,7.67 M344.52,202.21
		c0.6,0.25,1.19,0.5,1.78,0.76 M351.6,205.5c22.84,11.81,37.4,31.71,37.4,61.02C389,318.7,361.35,361,287.05,361
		c-8.94,0-17.23-0.61-24.9-1.78"/>
	<path id="fill_glass_1_" class="st27" d="M286,196c-54.12,0-98,21.29-98,71s28.31,90,99,90s97-40.29,97-90S340.12,196,286,196z"/>
	<g id="face_1_">
		<path class="st28" d="M275,253c0,10.49-9.18,19-20.5,19s-20.5-8.51-20.5-19"/>
		<path id="pupil_left" class="st29" d="M247,253c0,5.52,4.48,10,10,10c5.52,0,10-4.48,10-10H247z"/>
		<polyline id="eyebrow_left_2_" class="st30" points="233,252 278,252 281,245 		"/>
		<path id="eye_right_2_" class="st28" d="M297,253c0,10.49,9.18,19,20.5,19c11.32,0,20.5-8.51,20.5-19"/>
		<path id="pupil_right" class="st29" d="M305,253c0,5.52,4.48,10,10,10c5.52,0,10-4.48,10-10H305z"/>
		<polyline id="eyebrow_right_2_" class="st28" points="339,252 294,252 291,239 		"/>
		<path id="nose" class="st29" d="M301.85,287.8c-0.39-1.1-1.4-1.8-2.59-1.8h-22.52c-1.19,0-2.2,0.7-2.59,1.8
			c-0.39,1.1-0.04,2.26,0.9,2.98l11.26,8.63c1.01,0.77,2.38,0.77,3.39,0l11.26-8.63C301.89,290.06,302.24,288.9,301.85,287.8z"/>
		<polyline id="mouth_2_" class="st28" points="288,300 288,308 260,319 		"/>
		<path id="mustache_12_" class="st28" d="M310,286c0,0,29.61-4.04,49.16-6.7 M365.87,278.38C371.96,277.55,376,277,376,277"/>
		<path id="mustache" class="st28" d="M312,291c0,0,11.32,0,23.86,0 M342.86,291c10.73,0,20.14,0,20.14,0"/>
		<line id="mustache_1_" class="st28" x1="313" y1="296" x2="351" y2="302"/>
		<path id="mustache_2_" class="st28" d="M266,286l-9.65-1.32 M248.44,283.61L200,277"/>
		<line id="mustache_7_" class="st28" x1="264" y1="291" x2="213" y2="291"/>
		<path id="mustache_3_" class="st28" d="M263,296l-22.82,3.6 M233.47,300.66L225,302"/>
	</g>
	<path id="glass_shadow_1_" class="st31" d="M286,196c-1.68,0-3.34,0.02-5,0.06c46.88,1.16,85.08,18.88,91.91,57.94H373
		c2.21,0,4,1.79,4,4c0,1.92-1.36,3.53-3.17,3.91c0,0.06,0.01,0.12,0.02,0.18c-0.27-0.06-0.56-0.09-0.85-0.09h-4c-2.21,0-4,1.79-4,4
		c0,2.21,1.79,4,4,4h4c0.34,0,0.66-0.05,0.97-0.13c0,0.09-0.01,0.17-0.01,0.26c1.74,0.43,3.04,1.99,3.04,3.87
		c0,2.02-1.51,3.68-3.46,3.95c-0.01,0.12-0.01,0.24-0.02,0.36c-0.47-0.19-0.98-0.3-1.52-0.3h-5h-3c-2.21,0-4,1.79-4,4
		c0,2.21,1.79,4,4,4h7h1c0.21,0,0.4-0.03,0.6-0.06c-0.02,0.12-0.04,0.25-0.06,0.37c1.45,0.6,2.46,2.03,2.46,3.69
		c0,2.2-1.78,3.98-3.97,4c-0.04,0.17-0.09,0.34-0.13,0.5c-0.57-0.31-1.21-0.5-1.9-0.5h-8c-2.21,0-4,1.79-4,4c0,2.21,1.79,4,4,4h6
		h1.76c-0.04,0.12-0.08,0.24-0.12,0.36c1.39,0.63,2.37,2.02,2.37,3.65c0,2.21-1.79,4-4,4h-1.35c-12.1,27.01-38.21,45.66-83.65,46.92
		c1.65,0.05,3.31,0.08,5,0.08c70.69,0,97-40.29,97-90S340.12,196,286,196z M353,286c2.21,0,4-1.79,4-4c0-2.21-1.79-4-4-4
		c-2.21,0-4,1.79-4,4C349,284.21,350.79,286,353,286z"/>
	<path id="glass_shine_2_" class="st10" d="M203,267c0-47.39,39.88-68.95,90.5-70.86c-2.48-0.09-4.98-0.14-7.5-0.14
		c-54.12,0-98,21.29-98,71s28.31,90,99,90c2.56,0,5.05-0.06,7.5-0.16C229.3,354.06,203,314.91,203,267z"/>
	<path id="glass_shine_1_" class="st32" d="M286,206c2.21,0,4.41,0.04,6.58,0.12 M299.17,206.51c13.25,1.05,25.51,3.73,36.04,8.22
		 M341.16,217.55c9.7,5.12,17.59,12.02,22.95,20.84 M366.68,243.16c2.19,4.64,3.74,9.75,4.59,15.34 M371.86,264.18
		c0.09,1.45,0.14,2.93,0.14,4.45"/>
	<path id="glass_1_" class="st12" d="M202.4,225.28C219.63,205.1,250.62,196,286,196c31.79,0,60.04,7.34,77.94,23.48 M368.79,224.35
		C378.42,235.17,384,249.28,384,267c0,19.14-3.9,36.88-12.73,51.46 M366.68,325.18c-0.57,0.73-1.15,1.46-1.74,2.17 M358.83,333.8
		C343.33,348.22,320,357,287,357c-70.69,0-99-40.29-99-90c0-10.53,1.97-19.79,5.59-27.83 M196.77,233.09
		c0.42-0.69,0.85-1.38,1.29-2.05"/>
</g>
<g class="st33">
	<path d="M317.91,21.83c0.95-0.14,2.09-0.25,3.33-0.25c2.25,0,3.85,0.52,4.92,1.51c1.08,0.99,1.71,2.4,1.71,4.36
		c0,1.98-0.61,3.6-1.75,4.72c-1.13,1.13-3.01,1.75-5.37,1.75c-1.12,0-2.05-0.05-2.84-0.14V21.83z M319.48,32.56
		c0.4,0.07,0.97,0.09,1.58,0.09c3.35,0,5.17-1.87,5.17-5.15c0.02-2.86-1.6-4.68-4.92-4.68c-0.81,0-1.42,0.07-1.84,0.16V32.56z"/>
	<path d="M336.18,28.11h-4.72v4.38h5.26v1.31h-6.82V21.67h6.55v1.31h-4.99v3.84h4.72V28.11z"/>
	<path d="M348.98,28.47c-0.09-1.69-0.2-3.73-0.18-5.24h-0.05c-0.41,1.42-0.92,2.94-1.53,4.61l-2.14,5.89h-1.19l-1.96-5.78
		c-0.58-1.71-1.06-3.28-1.4-4.72h-0.04c-0.04,1.51-0.13,3.55-0.23,5.37l-0.32,5.2h-1.5l0.85-12.14h2l2.07,5.87
		c0.5,1.49,0.92,2.83,1.22,4.09h0.05c0.31-1.22,0.74-2.56,1.28-4.09l2.16-5.87h2l0.76,12.14h-1.53L348.98,28.47z"/>
	<path d="M363.59,27.61c0,4.18-2.54,6.39-5.64,6.39c-3.21,0-5.46-2.48-5.46-6.16c0-3.85,2.39-6.37,5.64-6.37
		C361.45,21.47,363.59,24.01,363.59,27.61z M354.18,27.81c0,2.59,1.41,4.92,3.87,4.92c2.49,0,3.89-2.29,3.89-5.04
		c0-2.41-1.26-4.93-3.87-4.93C355.47,22.75,354.18,25.14,354.18,27.81z"/>
	<path d="M392.33,21.83c0.95-0.14,2.09-0.25,3.33-0.25c2.25,0,3.85,0.52,4.92,1.51c1.08,0.99,1.71,2.4,1.71,4.36
		c0,1.98-0.61,3.6-1.75,4.72c-1.13,1.13-3.01,1.75-5.37,1.75c-1.12,0-2.05-0.05-2.84-0.14V21.83z M393.9,32.56
		c0.4,0.07,0.97,0.09,1.58,0.09c3.35,0,5.17-1.87,5.17-5.15c0.02-2.86-1.6-4.68-4.92-4.68c-0.81,0-1.42,0.07-1.84,0.16V32.56z"/>
	<path d="M410.61,28.11h-4.72v4.38h5.26v1.31h-6.82V21.67h6.55v1.31h-4.99v3.84h4.72V28.11z"/>
	<path d="M423.4,28.47c-0.09-1.69-0.2-3.73-0.18-5.24h-0.05c-0.41,1.42-0.92,2.94-1.53,4.61l-2.14,5.89h-1.19l-1.96-5.78
		c-0.58-1.71-1.06-3.28-1.4-4.72h-0.04c-0.04,1.51-0.13,3.55-0.23,5.37l-0.32,5.2h-1.5l0.85-12.14h2l2.07,5.87
		c0.5,1.49,0.92,2.83,1.22,4.09h0.05c0.31-1.22,0.74-2.56,1.28-4.09l2.16-5.87h2l0.76,12.14h-1.53L423.4,28.47z"/>
	<path d="M438.02,27.61c0,4.18-2.54,6.39-5.64,6.39c-3.21,0-5.46-2.48-5.46-6.16c0-3.85,2.39-6.37,5.64-6.37
		C435.88,21.47,438.02,24.01,438.02,27.61z M428.6,27.81c0,2.59,1.41,4.92,3.87,4.92c2.48,0,3.89-2.29,3.89-5.04
		c0-2.41-1.26-4.93-3.87-4.93C429.9,22.75,428.6,25.14,428.6,27.81z"/>
	<path d="M462.94,21.83c0.95-0.14,2.09-0.25,3.33-0.25c2.25,0,3.85,0.52,4.92,1.51c1.08,0.99,1.71,2.4,1.71,4.36
		c0,1.98-0.61,3.6-1.75,4.72c-1.13,1.13-3.01,1.75-5.37,1.75c-1.12,0-2.05-0.05-2.84-0.14V21.83z M464.51,32.56
		c0.4,0.07,0.97,0.09,1.58,0.09c3.35,0,5.17-1.87,5.17-5.15c0.02-2.86-1.6-4.68-4.92-4.68c-0.81,0-1.42,0.07-1.84,0.16V32.56z"/>
	<path d="M481.21,28.11h-4.72v4.38h5.26v1.31h-6.82V21.67h6.55v1.31h-4.99v3.84h4.72V28.11z"/>
	<path d="M278.37,86.47c-0.09-1.69-0.2-3.73-0.18-5.24h-0.05c-0.41,1.42-0.92,2.94-1.53,4.61l-2.14,5.89h-1.19l-1.96-5.78
		c-0.58-1.71-1.06-3.28-1.4-4.72h-0.04c-0.04,1.51-0.13,3.55-0.23,5.37l-0.32,5.2h-1.49l0.85-12.14h2l2.07,5.87
		c0.5,1.49,0.92,2.83,1.22,4.09h0.05c0.31-1.22,0.74-2.56,1.28-4.09l2.16-5.87h2l0.76,12.14h-1.53L278.37,86.47z"/>
	<path d="M292.98,85.61c0,4.18-2.54,6.39-5.64,6.39c-3.21,0-5.46-2.48-5.46-6.16c0-3.85,2.4-6.37,5.64-6.37
		C290.84,79.47,292.98,82.01,292.98,85.61z M283.57,85.81c0,2.59,1.4,4.92,3.87,4.92c2.48,0,3.89-2.29,3.89-5.04
		c0-2.41-1.26-4.93-3.87-4.93C284.86,80.75,283.57,83.14,283.57,85.81z"/>
	<path d="M317.91,79.83c0.95-0.14,2.09-0.25,3.33-0.25c2.25,0,3.85,0.52,4.92,1.51c1.08,0.99,1.71,2.4,1.71,4.36
		c0,1.98-0.61,3.6-1.75,4.72c-1.13,1.13-3.01,1.75-5.37,1.75c-1.12,0-2.05-0.05-2.84-0.14V79.83z M319.48,90.56
		c0.4,0.07,0.97,0.09,1.58,0.09c3.35,0,5.17-1.87,5.17-5.15c0.02-2.86-1.6-4.68-4.92-4.68c-0.81,0-1.42,0.07-1.84,0.16V90.56z"/>
	<path d="M336.18,86.11h-4.72v4.38h5.26v1.31h-6.82V79.67h6.55v1.31h-4.99v3.84h4.72V86.11z"/>
	<path d="M348.98,86.47c-0.09-1.69-0.2-3.73-0.18-5.24h-0.05c-0.41,1.42-0.92,2.94-1.53,4.61l-2.14,5.89h-1.19l-1.96-5.78
		c-0.58-1.71-1.06-3.28-1.4-4.72h-0.04c-0.04,1.51-0.13,3.55-0.23,5.37l-0.32,5.2h-1.5l0.85-12.14h2l2.07,5.87
		c0.5,1.49,0.92,2.83,1.22,4.09h0.05c0.31-1.22,0.74-2.56,1.28-4.09l2.16-5.87h2l0.76,12.14h-1.53L348.98,86.47z"/>
	<path d="M363.59,85.61c0,4.18-2.54,6.39-5.64,6.39c-3.21,0-5.46-2.48-5.46-6.16c0-3.85,2.39-6.37,5.64-6.37
		C361.45,79.47,363.59,82.01,363.59,85.61z M354.18,85.81c0,2.59,1.41,4.92,3.87,4.92c2.49,0,3.89-2.29,3.89-5.04
		c0-2.41-1.26-4.93-3.87-4.93C355.47,80.75,354.18,83.14,354.18,85.81z"/>
	<path d="M392.33,79.83c0.95-0.14,2.09-0.25,3.33-0.25c2.25,0,3.85,0.52,4.92,1.51c1.08,0.99,1.71,2.4,1.71,4.36
		c0,1.98-0.61,3.6-1.75,4.72c-1.13,1.13-3.01,1.75-5.37,1.75c-1.12,0-2.05-0.05-2.84-0.14V79.83z M393.9,90.56
		c0.4,0.07,0.97,0.09,1.58,0.09c3.35,0,5.17-1.87,5.17-5.15c0.02-2.86-1.6-4.68-4.92-4.68c-0.81,0-1.42,0.07-1.84,0.16V90.56z"/>
	<path d="M410.61,86.11h-4.72v4.38h5.26v1.31h-6.82V79.67h6.55v1.31h-4.99v3.84h4.72V86.11z"/>
	<path d="M423.4,86.47c-0.09-1.69-0.2-3.73-0.18-5.24h-0.05c-0.41,1.42-0.92,2.94-1.53,4.61l-2.14,5.89h-1.19l-1.96-5.78
		c-0.58-1.71-1.06-3.28-1.4-4.72h-0.04c-0.04,1.51-0.13,3.55-0.23,5.37l-0.32,5.2h-1.5l0.85-12.14h2l2.07,5.87
		c0.5,1.49,0.92,2.83,1.22,4.09h0.05c0.31-1.22,0.74-2.56,1.28-4.09l2.16-5.87h2l0.76,12.14h-1.53L423.4,86.47z"/>
	<path d="M438.02,85.61c0,4.18-2.54,6.39-5.64,6.39c-3.21,0-5.46-2.48-5.46-6.16c0-3.85,2.39-6.37,5.64-6.37
		C435.88,79.47,438.02,82.01,438.02,85.61z M428.6,85.81c0,2.59,1.41,4.92,3.87,4.92c2.48,0,3.89-2.29,3.89-5.04
		c0-2.41-1.26-4.93-3.87-4.93C429.9,80.75,428.6,83.14,428.6,85.81z"/>
	<path d="M462.94,79.83c0.95-0.14,2.09-0.25,3.33-0.25c2.25,0,3.85,0.52,4.92,1.51c1.08,0.99,1.71,2.4,1.71,4.36
		c0,1.98-0.61,3.6-1.75,4.72c-1.13,1.13-3.01,1.75-5.37,1.75c-1.12,0-2.05-0.05-2.84-0.14V79.83z M464.51,90.56
		c0.4,0.07,0.97,0.09,1.58,0.09c3.35,0,5.17-1.87,5.17-5.15c0.02-2.86-1.6-4.68-4.92-4.68c-0.81,0-1.42,0.07-1.84,0.16V90.56z"/>
	<path d="M481.21,86.11h-4.72v4.38h5.26v1.31h-6.82V79.67h6.55v1.31h-4.99v3.84h4.72V86.11z"/>
	<path d="M494.01,86.47c-0.09-1.69-0.2-3.73-0.18-5.24h-0.05c-0.41,1.42-0.92,2.94-1.53,4.61l-2.14,5.89h-1.19l-1.96-5.78
		c-0.58-1.71-1.06-3.28-1.4-4.72h-0.04c-0.04,1.51-0.13,3.55-0.23,5.37l-0.32,5.2h-1.5l0.85-12.14h2l2.07,5.87
		c0.5,1.49,0.92,2.83,1.22,4.09h0.05c0.31-1.22,0.74-2.56,1.28-4.09l2.16-5.87h2l0.76,12.14h-1.53L494.01,86.47z"/>
	<path d="M508.63,85.61c0,4.18-2.54,6.39-5.64,6.39c-3.21,0-5.46-2.48-5.46-6.16c0-3.85,2.39-6.37,5.64-6.37
		C506.49,79.47,508.63,82.01,508.63,85.61z M499.21,85.81c0,2.59,1.41,4.92,3.87,4.92c2.48,0,3.89-2.29,3.89-5.04
		c0-2.41-1.26-4.93-3.87-4.93C500.51,80.75,499.21,83.14,499.21,85.81z"/>
	<path d="M278.37,144.47c-0.09-1.69-0.2-3.73-0.18-5.24h-0.05c-0.41,1.42-0.92,2.94-1.53,4.61l-2.14,5.89h-1.19l-1.96-5.78
		c-0.58-1.71-1.06-3.28-1.4-4.72h-0.04c-0.04,1.51-0.13,3.55-0.23,5.37l-0.32,5.2h-1.49l0.85-12.14h2l2.07,5.87
		c0.5,1.49,0.92,2.83,1.22,4.09h0.05c0.31-1.22,0.74-2.56,1.28-4.09l2.16-5.87h2l0.76,12.14h-1.53L278.37,144.47z"/>
	<path d="M292.98,143.61c0,4.18-2.54,6.39-5.64,6.39c-3.21,0-5.46-2.48-5.46-6.16c0-3.85,2.4-6.37,5.64-6.37
		C290.84,137.47,292.98,140.01,292.98,143.61z M283.57,143.81c0,2.59,1.4,4.92,3.87,4.92c2.48,0,3.89-2.29,3.89-5.04
		c0-2.41-1.26-4.93-3.87-4.93C284.86,138.75,283.57,141.14,283.57,143.81z"/>
	<path d="M317.91,137.83c0.95-0.14,2.09-0.25,3.33-0.25c2.25,0,3.85,0.52,4.92,1.51c1.08,0.99,1.71,2.4,1.71,4.36
		c0,1.98-0.61,3.6-1.75,4.72c-1.13,1.13-3.01,1.75-5.37,1.75c-1.12,0-2.05-0.05-2.84-0.14V137.83z M319.48,148.56
		c0.4,0.07,0.97,0.09,1.58,0.09c3.35,0,5.17-1.87,5.17-5.15c0.02-2.86-1.6-4.68-4.92-4.68c-0.81,0-1.42,0.07-1.84,0.16V148.56z"/>
	<path d="M336.18,144.11h-4.72v4.38h5.26v1.31h-6.82v-12.14h6.55v1.31h-4.99v3.84h4.72V144.11z"/>
	<path d="M348.98,144.47c-0.09-1.69-0.2-3.73-0.18-5.24h-0.05c-0.41,1.42-0.92,2.94-1.53,4.61l-2.14,5.89h-1.19l-1.96-5.78
		c-0.58-1.71-1.06-3.28-1.4-4.72h-0.04c-0.04,1.51-0.13,3.55-0.23,5.37l-0.32,5.2h-1.5l0.85-12.14h2l2.07,5.87
		c0.5,1.49,0.92,2.83,1.22,4.09h0.05c0.31-1.22,0.74-2.56,1.28-4.09l2.16-5.87h2l0.76,12.14h-1.53L348.98,144.47z"/>
	<path d="M363.59,143.61c0,4.18-2.54,6.39-5.64,6.39c-3.21,0-5.46-2.48-5.46-6.16c0-3.85,2.39-6.37,5.64-6.37
		C361.45,137.47,363.59,140.01,363.59,143.61z M354.18,143.81c0,2.59,1.41,4.92,3.87,4.92c2.49,0,3.89-2.29,3.89-5.04
		c0-2.41-1.26-4.93-3.87-4.93C355.47,138.75,354.18,141.14,354.18,143.81z"/>
	<path d="M392.33,137.83c0.95-0.14,2.09-0.25,3.33-0.25c2.25,0,3.85,0.52,4.92,1.51c1.08,0.99,1.71,2.4,1.71,4.36
		c0,1.98-0.61,3.6-1.75,4.72c-1.13,1.13-3.01,1.75-5.37,1.75c-1.12,0-2.05-0.05-2.84-0.14V137.83z M393.9,148.56
		c0.4,0.07,0.97,0.09,1.58,0.09c3.35,0,5.17-1.87,5.17-5.15c0.02-2.86-1.6-4.68-4.92-4.68c-0.81,0-1.42,0.07-1.84,0.16V148.56z"/>
	<path d="M410.61,144.11h-4.72v4.38h5.26v1.31h-6.82v-12.14h6.55v1.31h-4.99v3.84h4.72V144.11z"/>
	<path d="M423.4,144.47c-0.09-1.69-0.2-3.73-0.18-5.24h-0.05c-0.41,1.42-0.92,2.94-1.53,4.61l-2.14,5.89h-1.19l-1.96-5.78
		c-0.58-1.71-1.06-3.28-1.4-4.72h-0.04c-0.04,1.51-0.13,3.55-0.23,5.37l-0.32,5.2h-1.5l0.85-12.14h2l2.07,5.87
		c0.5,1.49,0.92,2.83,1.22,4.09h0.05c0.31-1.22,0.74-2.56,1.28-4.09l2.16-5.87h2l0.76,12.14h-1.53L423.4,144.47z"/>
	<path d="M438.02,143.61c0,4.18-2.54,6.39-5.64,6.39c-3.21,0-5.46-2.48-5.46-6.16c0-3.85,2.39-6.37,5.64-6.37
		C435.88,137.47,438.02,140.01,438.02,143.61z M428.6,143.81c0,2.59,1.41,4.92,3.87,4.92c2.48,0,3.89-2.29,3.89-5.04
		c0-2.41-1.26-4.93-3.87-4.93C429.9,138.75,428.6,141.14,428.6,143.81z"/>
	<path d="M462.94,137.83c0.95-0.14,2.09-0.25,3.33-0.25c2.25,0,3.85,0.52,4.92,1.51c1.08,0.99,1.71,2.4,1.71,4.36
		c0,1.98-0.61,3.6-1.75,4.72c-1.13,1.13-3.01,1.75-5.37,1.75c-1.12,0-2.05-0.05-2.84-0.14V137.83z M464.51,148.56
		c0.4,0.07,0.97,0.09,1.58,0.09c3.35,0,5.17-1.87,5.17-5.15c0.02-2.86-1.6-4.68-4.92-4.68c-0.81,0-1.42,0.07-1.84,0.16V148.56z"/>
	<path d="M481.21,144.11h-4.72v4.38h5.26v1.31h-6.82v-12.14h6.55v1.31h-4.99v3.84h4.72V144.11z"/>
	<path d="M494.01,144.47c-0.09-1.69-0.2-3.73-0.18-5.24h-0.05c-0.41,1.42-0.92,2.94-1.53,4.61l-2.14,5.89h-1.19l-1.96-5.78
		c-0.58-1.71-1.06-3.28-1.4-4.72h-0.04c-0.04,1.51-0.13,3.55-0.23,5.37l-0.32,5.2h-1.5l0.85-12.14h2l2.07,5.87
		c0.5,1.49,0.92,2.83,1.22,4.09h0.05c0.31-1.22,0.74-2.56,1.28-4.09l2.16-5.87h2l0.76,12.14h-1.53L494.01,144.47z"/>
	<path d="M508.63,143.61c0,4.18-2.54,6.39-5.64,6.39c-3.21,0-5.46-2.48-5.46-6.16c0-3.85,2.39-6.37,5.64-6.37
		C506.49,137.47,508.63,140.01,508.63,143.61z M499.21,143.81c0,2.59,1.41,4.92,3.87,4.92c2.48,0,3.89-2.29,3.89-5.04
		c0-2.41-1.26-4.93-3.87-4.93C500.51,138.75,499.21,141.14,499.21,143.81z"/>
	<path d="M151.76,201.61c0,4.18-2.54,6.39-5.64,6.39c-3.21,0-5.46-2.48-5.46-6.16c0-3.85,2.4-6.37,5.64-6.37
		C149.62,195.47,151.76,198.01,151.76,201.61z M142.34,201.81c0,2.59,1.4,4.92,3.87,4.92c2.48,0,3.89-2.29,3.89-5.04
		c0-2.41-1.26-4.93-3.87-4.93C143.64,196.75,142.34,199.14,142.34,201.81z"/>
	<path d="M176.68,195.83c0.95-0.14,2.09-0.25,3.33-0.25c2.25,0,3.85,0.52,4.92,1.51c1.08,0.99,1.71,2.4,1.71,4.36
		c0,1.98-0.61,3.6-1.75,4.72c-1.13,1.13-3.01,1.75-5.37,1.75c-1.12,0-2.05-0.05-2.85-0.14V195.83z M178.25,206.56
		c0.4,0.07,0.97,0.09,1.58,0.09c3.35,0,5.17-1.87,5.17-5.15c0.02-2.86-1.6-4.68-4.92-4.68c-0.81,0-1.42,0.07-1.84,0.16V206.56z"/>
	<path d="M194.96,202.11h-4.72v4.38h5.26v1.31h-6.82v-12.14h6.55v1.31h-4.99v3.84h4.72V202.11z"/>
	<path d="M207.76,202.47c-0.09-1.69-0.2-3.73-0.18-5.24h-0.05c-0.41,1.42-0.92,2.94-1.53,4.61l-2.14,5.89h-1.19l-1.96-5.78
		c-0.58-1.71-1.06-3.28-1.4-4.72h-0.04c-0.04,1.51-0.13,3.55-0.23,5.37l-0.32,5.2h-1.49l0.85-12.14h2l2.07,5.87
		c0.5,1.49,0.92,2.83,1.22,4.09h0.05c0.31-1.22,0.74-2.56,1.28-4.09l2.16-5.87h2l0.76,12.14h-1.53L207.76,202.47z"/>
	<path d="M222.37,201.61c0,4.18-2.54,6.39-5.64,6.39c-3.21,0-5.46-2.48-5.46-6.16c0-3.85,2.39-6.37,5.64-6.37
		C220.23,195.47,222.37,198.01,222.37,201.61z M212.95,201.81c0,2.59,1.4,4.92,3.87,4.92c2.48,0,3.89-2.29,3.89-5.04
		c0-2.41-1.26-4.93-3.87-4.93C214.25,196.75,212.95,199.14,212.95,201.81z"/>
	<path d="M247.3,195.83c0.95-0.14,2.09-0.25,3.33-0.25c2.25,0,3.85,0.52,4.92,1.51c1.08,0.99,1.71,2.4,1.71,4.36
		c0,1.98-0.61,3.6-1.75,4.72c-1.13,1.13-3.01,1.75-5.37,1.75c-1.12,0-2.05-0.05-2.84-0.14V195.83z M248.86,206.56
		c0.4,0.07,0.97,0.09,1.58,0.09c3.35,0,5.17-1.87,5.17-5.15c0.02-2.86-1.6-4.68-4.92-4.68c-0.81,0-1.42,0.07-1.84,0.16V206.56z"/>
	<path d="M265.57,202.11h-4.72v4.38h5.26v1.31h-6.82v-12.14h6.55v1.31h-4.99v3.84h4.72V202.11z"/>
	<path d="M278.37,202.47c-0.09-1.69-0.2-3.73-0.18-5.24h-0.05c-0.41,1.42-0.92,2.94-1.53,4.61l-2.14,5.89h-1.19l-1.96-5.78
		c-0.58-1.71-1.06-3.28-1.4-4.72h-0.04c-0.04,1.51-0.13,3.55-0.23,5.37l-0.32,5.2h-1.49l0.85-12.14h2l2.07,5.87
		c0.5,1.49,0.92,2.83,1.22,4.09h0.05c0.31-1.22,0.74-2.56,1.28-4.09l2.16-5.87h2l0.76,12.14h-1.53L278.37,202.47z"/>
	<path d="M292.98,201.61c0,4.18-2.54,6.39-5.64,6.39c-3.21,0-5.46-2.48-5.46-6.16c0-3.85,2.4-6.37,5.64-6.37
		C290.84,195.47,292.98,198.01,292.98,201.61z M283.57,201.81c0,2.59,1.4,4.92,3.87,4.92c2.48,0,3.89-2.29,3.89-5.04
		c0-2.41-1.26-4.93-3.87-4.93C284.86,196.75,283.57,199.14,283.57,201.81z"/>
	<path d="M317.91,195.83c0.95-0.14,2.09-0.25,3.33-0.25c2.25,0,3.85,0.52,4.92,1.51c1.08,0.99,1.71,2.4,1.71,4.36
		c0,1.98-0.61,3.6-1.75,4.72c-1.13,1.13-3.01,1.75-5.37,1.75c-1.12,0-2.05-0.05-2.84-0.14V195.83z M319.48,206.56
		c0.4,0.07,0.97,0.09,1.58,0.09c3.35,0,5.17-1.87,5.17-5.15c0.02-2.86-1.6-4.68-4.92-4.68c-0.81,0-1.42,0.07-1.84,0.16V206.56z"/>
	<path d="M336.18,202.11h-4.72v4.38h5.26v1.31h-6.82v-12.14h6.55v1.31h-4.99v3.84h4.72V202.11z"/>
	<path d="M348.98,202.47c-0.09-1.69-0.2-3.73-0.18-5.24h-0.05c-0.41,1.42-0.92,2.94-1.53,4.61l-2.14,5.89h-1.19l-1.96-5.78
		c-0.58-1.71-1.06-3.28-1.4-4.72h-0.04c-0.04,1.51-0.13,3.55-0.23,5.37l-0.32,5.2h-1.5l0.85-12.14h2l2.07,5.87
		c0.5,1.49,0.92,2.83,1.22,4.09h0.05c0.31-1.22,0.74-2.56,1.28-4.09l2.16-5.87h2l0.76,12.14h-1.53L348.98,202.47z"/>
	<path d="M363.59,201.61c0,4.18-2.54,6.39-5.64,6.39c-3.21,0-5.46-2.48-5.46-6.16c0-3.85,2.39-6.37,5.64-6.37
		C361.45,195.47,363.59,198.01,363.59,201.61z M354.18,201.81c0,2.59,1.41,4.92,3.87,4.92c2.49,0,3.89-2.29,3.89-5.04
		c0-2.41-1.26-4.93-3.87-4.93C355.47,196.75,354.18,199.14,354.18,201.81z"/>
	<path d="M392.33,195.83c0.95-0.14,2.09-0.25,3.33-0.25c2.25,0,3.85,0.52,4.92,1.51c1.08,0.99,1.71,2.4,1.71,4.36
		c0,1.98-0.61,3.6-1.75,4.72c-1.13,1.13-3.01,1.75-5.37,1.75c-1.12,0-2.05-0.05-2.84-0.14V195.83z M393.9,206.56
		c0.4,0.07,0.97,0.09,1.58,0.09c3.35,0,5.17-1.87,5.17-5.15c0.02-2.86-1.6-4.68-4.92-4.68c-0.81,0-1.42,0.07-1.84,0.16V206.56z"/>
	<path d="M410.61,202.11h-4.72v4.38h5.26v1.31h-6.82v-12.14h6.55v1.31h-4.99v3.84h4.72V202.11z"/>
	<path d="M423.4,202.47c-0.09-1.69-0.2-3.73-0.18-5.24h-0.05c-0.41,1.42-0.92,2.94-1.53,4.61l-2.14,5.89h-1.19l-1.96-5.78
		c-0.58-1.71-1.06-3.28-1.4-4.72h-0.04c-0.04,1.51-0.13,3.55-0.23,5.37l-0.32,5.2h-1.5l0.85-12.14h2l2.07,5.87
		c0.5,1.49,0.92,2.83,1.22,4.09h0.05c0.31-1.22,0.74-2.56,1.28-4.09l2.16-5.87h2l0.76,12.14h-1.53L423.4,202.47z"/>
	<path d="M438.02,201.61c0,4.18-2.54,6.39-5.64,6.39c-3.21,0-5.46-2.48-5.46-6.16c0-3.85,2.39-6.37,5.64-6.37
		C435.88,195.47,438.02,198.01,438.02,201.61z M428.6,201.81c0,2.59,1.41,4.92,3.87,4.92c2.48,0,3.89-2.29,3.89-5.04
		c0-2.41-1.26-4.93-3.87-4.93C429.9,196.75,428.6,199.14,428.6,201.81z"/>
	<path d="M462.94,195.83c0.95-0.14,2.09-0.25,3.33-0.25c2.25,0,3.85,0.52,4.92,1.51c1.08,0.99,1.71,2.4,1.71,4.36
		c0,1.98-0.61,3.6-1.75,4.72c-1.13,1.13-3.01,1.75-5.37,1.75c-1.12,0-2.05-0.05-2.84-0.14V195.83z M464.51,206.56
		c0.4,0.07,0.97,0.09,1.58,0.09c3.35,0,5.17-1.87,5.17-5.15c0.02-2.86-1.6-4.68-4.92-4.68c-0.81,0-1.42,0.07-1.84,0.16V206.56z"/>
	<path d="M151.76,259.61c0,4.18-2.54,6.39-5.64,6.39c-3.21,0-5.46-2.48-5.46-6.16c0-3.85,2.4-6.37,5.64-6.37
		C149.62,253.47,151.76,256.01,151.76,259.61z M142.34,259.81c0,2.59,1.4,4.92,3.87,4.92c2.48,0,3.89-2.29,3.89-5.04
		c0-2.41-1.26-4.93-3.87-4.93C143.64,254.75,142.34,257.14,142.34,259.81z"/>
	<path d="M176.68,253.83c0.95-0.14,2.09-0.25,3.33-0.25c2.25,0,3.85,0.52,4.92,1.51c1.08,0.99,1.71,2.4,1.71,4.36
		c0,1.98-0.61,3.6-1.75,4.72c-1.13,1.13-3.01,1.75-5.37,1.75c-1.12,0-2.05-0.05-2.85-0.14V253.83z M178.25,264.56
		c0.4,0.07,0.97,0.09,1.58,0.09c3.35,0,5.17-1.87,5.17-5.15c0.02-2.86-1.6-4.68-4.92-4.68c-0.81,0-1.42,0.07-1.84,0.16V264.56z"/>
	<path d="M194.96,260.11h-4.72v4.38h5.26v1.31h-6.82v-12.14h6.55v1.31h-4.99v3.84h4.72V260.11z"/>
	<path d="M207.76,260.47c-0.09-1.69-0.2-3.73-0.18-5.24h-0.05c-0.41,1.42-0.92,2.94-1.53,4.61l-2.14,5.89h-1.19l-1.96-5.78
		c-0.58-1.71-1.06-3.28-1.4-4.72h-0.04c-0.04,1.51-0.13,3.55-0.23,5.37l-0.32,5.2h-1.49l0.85-12.14h2l2.07,5.87
		c0.5,1.49,0.92,2.83,1.22,4.09h0.05c0.31-1.22,0.74-2.56,1.28-4.09l2.16-5.87h2l0.76,12.14h-1.53L207.76,260.47z"/>
	<path d="M222.37,259.61c0,4.18-2.54,6.39-5.64,6.39c-3.21,0-5.46-2.48-5.46-6.16c0-3.85,2.39-6.37,5.64-6.37
		C220.23,253.47,222.37,256.01,222.37,259.61z M212.95,259.81c0,2.59,1.4,4.92,3.87,4.92c2.48,0,3.89-2.29,3.89-5.04
		c0-2.41-1.26-4.93-3.87-4.93C214.25,254.75,212.95,257.14,212.95,259.81z"/>
	<path d="M247.3,253.83c0.95-0.14,2.09-0.25,3.33-0.25c2.25,0,3.85,0.52,4.92,1.51c1.08,0.99,1.71,2.4,1.71,4.36
		c0,1.98-0.61,3.6-1.75,4.72c-1.13,1.13-3.01,1.75-5.37,1.75c-1.12,0-2.05-0.05-2.84-0.14V253.83z M248.86,264.56
		c0.4,0.07,0.97,0.09,1.58,0.09c3.35,0,5.17-1.87,5.17-5.15c0.02-2.86-1.6-4.68-4.92-4.68c-0.81,0-1.42,0.07-1.84,0.16V264.56z"/>
	<path d="M265.57,260.11h-4.72v4.38h5.26v1.31h-6.82v-12.14h6.55v1.31h-4.99v3.84h4.72V260.11z"/>
	<path d="M278.37,260.47c-0.09-1.69-0.2-3.73-0.18-5.24h-0.05c-0.41,1.42-0.92,2.94-1.53,4.61l-2.14,5.89h-1.19l-1.96-5.78
		c-0.58-1.71-1.06-3.28-1.4-4.72h-0.04c-0.04,1.51-0.13,3.55-0.23,5.37l-0.32,5.2h-1.49l0.85-12.14h2l2.07,5.87
		c0.5,1.49,0.92,2.83,1.22,4.09h0.05c0.31-1.22,0.74-2.56,1.28-4.09l2.16-5.87h2l0.76,12.14h-1.53L278.37,260.47z"/>
	<path d="M292.98,259.61c0,4.18-2.54,6.39-5.64,6.39c-3.21,0-5.46-2.48-5.46-6.16c0-3.85,2.4-6.37,5.64-6.37
		C290.84,253.47,292.98,256.01,292.98,259.61z M283.57,259.81c0,2.59,1.4,4.92,3.87,4.92c2.48,0,3.89-2.29,3.89-5.04
		c0-2.41-1.26-4.93-3.87-4.93C284.86,254.75,283.57,257.14,283.57,259.81z"/>
	<path d="M317.91,253.83c0.95-0.14,2.09-0.25,3.33-0.25c2.25,0,3.85,0.52,4.92,1.51c1.08,0.99,1.71,2.4,1.71,4.36
		c0,1.98-0.61,3.6-1.75,4.72c-1.13,1.13-3.01,1.75-5.37,1.75c-1.12,0-2.05-0.05-2.84-0.14V253.83z M319.48,264.56
		c0.4,0.07,0.97,0.09,1.58,0.09c3.35,0,5.17-1.87,5.17-5.15c0.02-2.86-1.6-4.68-4.92-4.68c-0.81,0-1.42,0.07-1.84,0.16V264.56z"/>
	<path d="M336.18,260.11h-4.72v4.38h5.26v1.31h-6.82v-12.14h6.55v1.31h-4.99v3.84h4.72V260.11z"/>
	<path d="M348.98,260.47c-0.09-1.69-0.2-3.73-0.18-5.24h-0.05c-0.41,1.42-0.92,2.94-1.53,4.61l-2.14,5.89h-1.19l-1.96-5.78
		c-0.58-1.71-1.06-3.28-1.4-4.72h-0.04c-0.04,1.51-0.13,3.55-0.23,5.37l-0.32,5.2h-1.5l0.85-12.14h2l2.07,5.87
		c0.5,1.49,0.92,2.83,1.22,4.09h0.05c0.31-1.22,0.74-2.56,1.28-4.09l2.16-5.87h2l0.76,12.14h-1.53L348.98,260.47z"/>
	<path d="M363.59,259.61c0,4.18-2.54,6.39-5.64,6.39c-3.21,0-5.46-2.48-5.46-6.16c0-3.85,2.39-6.37,5.64-6.37
		C361.45,253.47,363.59,256.01,363.59,259.61z M354.18,259.81c0,2.59,1.41,4.92,3.87,4.92c2.49,0,3.89-2.29,3.89-5.04
		c0-2.41-1.26-4.93-3.87-4.93C355.47,254.75,354.18,257.14,354.18,259.81z"/>
	<path d="M392.33,253.83c0.95-0.14,2.09-0.25,3.33-0.25c2.25,0,3.85,0.52,4.92,1.51c1.08,0.99,1.71,2.4,1.71,4.36
		c0,1.98-0.61,3.6-1.75,4.72c-1.13,1.13-3.01,1.75-5.37,1.75c-1.12,0-2.05-0.05-2.84-0.14V253.83z M393.9,264.56
		c0.4,0.07,0.97,0.09,1.58,0.09c3.35,0,5.17-1.87,5.17-5.15c0.02-2.86-1.6-4.68-4.92-4.68c-0.81,0-1.42,0.07-1.84,0.16V264.56z"/>
	<path d="M410.61,260.11h-4.72v4.38h5.26v1.31h-6.82v-12.14h6.55v1.31h-4.99v3.84h4.72V260.11z"/>
	<path d="M423.4,260.47c-0.09-1.69-0.2-3.73-0.18-5.24h-0.05c-0.41,1.42-0.92,2.94-1.53,4.61l-2.14,5.89h-1.19l-1.96-5.78
		c-0.58-1.71-1.06-3.28-1.4-4.72h-0.04c-0.04,1.51-0.13,3.55-0.23,5.37l-0.32,5.2h-1.5l0.85-12.14h2l2.07,5.87
		c0.5,1.49,0.92,2.83,1.22,4.09h0.05c0.31-1.22,0.74-2.56,1.28-4.09l2.16-5.87h2l0.76,12.14h-1.53L423.4,260.47z"/>
	<path d="M438.02,259.61c0,4.18-2.54,6.39-5.64,6.39c-3.21,0-5.46-2.48-5.46-6.16c0-3.85,2.39-6.37,5.64-6.37
		C435.88,253.47,438.02,256.01,438.02,259.61z M428.6,259.81c0,2.59,1.41,4.92,3.87,4.92c2.48,0,3.89-2.29,3.89-5.04
		c0-2.41-1.26-4.93-3.87-4.93C429.9,254.75,428.6,257.14,428.6,259.81z"/>
	<path d="M176.68,311.83c0.95-0.14,2.09-0.25,3.33-0.25c2.25,0,3.85,0.52,4.92,1.51c1.08,0.99,1.71,2.4,1.71,4.36
		c0,1.98-0.61,3.6-1.75,4.72c-1.13,1.13-3.01,1.75-5.37,1.75c-1.12,0-2.05-0.05-2.85-0.14V311.83z M178.25,322.56
		c0.4,0.07,0.97,0.09,1.58,0.09c3.35,0,5.17-1.87,5.17-5.15c0.02-2.86-1.6-4.68-4.92-4.68c-0.81,0-1.42,0.07-1.84,0.16V322.56z"/>
	<path d="M194.96,318.11h-4.72v4.38h5.26v1.31h-6.82v-12.14h6.55v1.31h-4.99v3.83h4.72V318.11z"/>
	<path d="M207.76,318.47c-0.09-1.69-0.2-3.73-0.18-5.24h-0.05c-0.41,1.42-0.92,2.94-1.53,4.61l-2.14,5.89h-1.19l-1.96-5.78
		c-0.58-1.71-1.06-3.28-1.4-4.72h-0.04c-0.04,1.51-0.13,3.55-0.23,5.37l-0.32,5.2h-1.49l0.85-12.14h2l2.07,5.87
		c0.5,1.49,0.92,2.83,1.22,4.09h0.05c0.31-1.22,0.74-2.56,1.28-4.09l2.16-5.87h2l0.76,12.14h-1.53L207.76,318.47z"/>
	<path d="M222.37,317.61c0,4.18-2.54,6.39-5.64,6.39c-3.21,0-5.46-2.49-5.46-6.16c0-3.85,2.39-6.37,5.64-6.37
		C220.23,311.47,222.37,314.01,222.37,317.61z M212.95,317.81c0,2.59,1.4,4.92,3.87,4.92c2.48,0,3.89-2.29,3.89-5.04
		c0-2.41-1.26-4.93-3.87-4.93C214.25,312.75,212.95,315.14,212.95,317.81z"/>
	<path d="M247.3,311.83c0.95-0.14,2.09-0.25,3.33-0.25c2.25,0,3.85,0.52,4.92,1.51c1.08,0.99,1.71,2.4,1.71,4.36
		c0,1.98-0.61,3.6-1.75,4.72c-1.13,1.13-3.01,1.75-5.37,1.75c-1.12,0-2.05-0.05-2.84-0.14V311.83z M248.86,322.56
		c0.4,0.07,0.97,0.09,1.58,0.09c3.35,0,5.17-1.87,5.17-5.15c0.02-2.86-1.6-4.68-4.92-4.68c-0.81,0-1.42,0.07-1.84,0.16V322.56z"/>
	<path d="M265.57,318.11h-4.72v4.38h5.26v1.31h-6.82v-12.14h6.55v1.31h-4.99v3.83h4.72V318.11z"/>
	<path d="M278.37,318.47c-0.09-1.69-0.2-3.73-0.18-5.24h-0.05c-0.41,1.42-0.92,2.94-1.53,4.61l-2.14,5.89h-1.19l-1.96-5.78
		c-0.58-1.71-1.06-3.28-1.4-4.72h-0.04c-0.04,1.51-0.13,3.55-0.23,5.37l-0.32,5.2h-1.49l0.85-12.14h2l2.07,5.87
		c0.5,1.49,0.92,2.83,1.22,4.09h0.05c0.31-1.22,0.74-2.56,1.28-4.09l2.16-5.87h2l0.76,12.14h-1.53L278.37,318.47z"/>
	<path d="M292.98,317.61c0,4.18-2.54,6.39-5.64,6.39c-3.21,0-5.46-2.49-5.46-6.16c0-3.85,2.4-6.37,5.64-6.37
		C290.84,311.47,292.98,314.01,292.98,317.61z M283.57,317.81c0,2.59,1.4,4.92,3.87,4.92c2.48,0,3.89-2.29,3.89-5.04
		c0-2.41-1.26-4.93-3.87-4.93C284.86,312.75,283.57,315.14,283.57,317.81z"/>
	<path d="M317.91,311.83c0.95-0.14,2.09-0.25,3.33-0.25c2.25,0,3.85,0.52,4.92,1.51c1.08,0.99,1.71,2.4,1.71,4.36
		c0,1.98-0.61,3.6-1.75,4.72c-1.13,1.13-3.01,1.75-5.37,1.75c-1.12,0-2.05-0.05-2.84-0.14V311.83z M319.48,322.56
		c0.4,0.07,0.97,0.09,1.58,0.09c3.35,0,5.17-1.87,5.17-5.15c0.02-2.86-1.6-4.68-4.92-4.68c-0.81,0-1.42,0.07-1.84,0.16V322.56z"/>
	<path d="M336.18,318.11h-4.72v4.38h5.26v1.31h-6.82v-12.14h6.55v1.31h-4.99v3.83h4.72V318.11z"/>
	<path d="M348.98,318.47c-0.09-1.69-0.2-3.73-0.18-5.24h-0.05c-0.41,1.42-0.92,2.94-1.53,4.61l-2.14,5.89h-1.19l-1.96-5.78
		c-0.58-1.71-1.06-3.28-1.4-4.72h-0.04c-0.04,1.51-0.13,3.55-0.23,5.37l-0.32,5.2h-1.5l0.85-12.14h2l2.07,5.87
		c0.5,1.49,0.92,2.83,1.22,4.09h0.05c0.31-1.22,0.74-2.56,1.28-4.09l2.16-5.87h2l0.76,12.14h-1.53L348.98,318.47z"/>
	<path d="M363.59,317.61c0,4.18-2.54,6.39-5.64,6.39c-3.21,0-5.46-2.49-5.46-6.16c0-3.85,2.39-6.37,5.64-6.37
		C361.45,311.47,363.59,314.01,363.59,317.61z M354.18,317.81c0,2.59,1.41,4.92,3.87,4.92c2.49,0,3.89-2.29,3.89-5.04
		c0-2.41-1.26-4.93-3.87-4.93C355.47,312.75,354.18,315.14,354.18,317.81z"/>
	<path d="M392.33,311.83c0.95-0.14,2.09-0.25,3.33-0.25c2.25,0,3.85,0.52,4.92,1.51c1.08,0.99,1.71,2.4,1.71,4.36
		c0,1.98-0.61,3.6-1.75,4.72c-1.13,1.13-3.01,1.75-5.37,1.75c-1.12,0-2.05-0.05-2.84-0.14V311.83z M393.9,322.56
		c0.4,0.07,0.97,0.09,1.58,0.09c3.35,0,5.17-1.87,5.17-5.15c0.02-2.86-1.6-4.68-4.92-4.68c-0.81,0-1.42,0.07-1.84,0.16V322.56z"/>
	<path d="M410.61,318.11h-4.72v4.38h5.26v1.31h-6.82v-12.14h6.55v1.31h-4.99v3.83h4.72V318.11z"/>
	<path d="M423.4,318.47c-0.09-1.69-0.2-3.73-0.18-5.24h-0.05c-0.41,1.42-0.92,2.94-1.53,4.61l-2.14,5.89h-1.19l-1.96-5.78
		c-0.58-1.71-1.06-3.28-1.4-4.72h-0.04c-0.04,1.51-0.13,3.55-0.23,5.37l-0.32,5.2h-1.5l0.85-12.14h2l2.07,5.87
		c0.5,1.49,0.92,2.83,1.22,4.09h0.05c0.31-1.22,0.74-2.56,1.28-4.09l2.16-5.87h2l0.76,12.14h-1.53L423.4,318.47z"/>
	<path d="M438.02,317.61c0,4.18-2.54,6.39-5.64,6.39c-3.21,0-5.46-2.49-5.46-6.16c0-3.85,2.39-6.37,5.64-6.37
		C435.88,311.47,438.02,314.01,438.02,317.61z M428.6,317.81c0,2.59,1.41,4.92,3.87,4.92c2.48,0,3.89-2.29,3.89-5.04
		c0-2.41-1.26-4.93-3.87-4.93C429.9,312.75,428.6,315.14,428.6,317.81z"/>
	<path d="M176.68,369.83c0.95-0.14,2.09-0.25,3.33-0.25c2.25,0,3.85,0.52,4.92,1.51c1.08,0.99,1.71,2.39,1.71,4.36
		c0,1.98-0.61,3.6-1.75,4.72c-1.13,1.13-3.01,1.75-5.37,1.75c-1.12,0-2.05-0.05-2.85-0.14V369.83z M178.25,380.56
		c0.4,0.07,0.97,0.09,1.58,0.09c3.35,0,5.17-1.87,5.17-5.15c0.02-2.86-1.6-4.68-4.92-4.68c-0.81,0-1.42,0.07-1.84,0.16V380.56z"/>
	<path d="M194.96,376.11h-4.72v4.38h5.26v1.31h-6.82v-12.14h6.55v1.31h-4.99v3.83h4.72V376.11z"/>
	<path d="M207.76,376.47c-0.09-1.69-0.2-3.73-0.18-5.24h-0.05c-0.41,1.42-0.92,2.94-1.53,4.61l-2.14,5.89h-1.19l-1.96-5.78
		c-0.58-1.71-1.06-3.28-1.4-4.72h-0.04c-0.04,1.51-0.13,3.55-0.23,5.37l-0.32,5.2h-1.49l0.85-12.14h2l2.07,5.87
		c0.5,1.49,0.92,2.83,1.22,4.09h0.05c0.31-1.22,0.74-2.56,1.28-4.09l2.16-5.87h2l0.76,12.14h-1.53L207.76,376.47z"/>
	<path d="M222.37,375.61c0,4.18-2.54,6.39-5.64,6.39c-3.21,0-5.46-2.49-5.46-6.16c0-3.85,2.39-6.37,5.64-6.37
		C220.23,369.47,222.37,372.01,222.37,375.61z M212.95,375.81c0,2.59,1.4,4.92,3.87,4.92c2.48,0,3.89-2.29,3.89-5.04
		c0-2.41-1.26-4.93-3.87-4.93C214.25,370.75,212.95,373.14,212.95,375.81z"/>
	<path d="M247.3,369.83c0.95-0.14,2.09-0.25,3.33-0.25c2.25,0,3.85,0.52,4.92,1.51c1.08,0.99,1.71,2.39,1.71,4.36
		c0,1.98-0.61,3.6-1.75,4.72c-1.13,1.13-3.01,1.75-5.37,1.75c-1.12,0-2.05-0.05-2.84-0.14V369.83z M248.86,380.56
		c0.4,0.07,0.97,0.09,1.58,0.09c3.35,0,5.17-1.87,5.17-5.15c0.02-2.86-1.6-4.68-4.92-4.68c-0.81,0-1.42,0.07-1.84,0.16V380.56z"/>
	<path d="M265.57,376.11h-4.72v4.38h5.26v1.31h-6.82v-12.14h6.55v1.31h-4.99v3.83h4.72V376.11z"/>
	<path d="M278.37,376.47c-0.09-1.69-0.2-3.73-0.18-5.24h-0.05c-0.41,1.42-0.92,2.94-1.53,4.61l-2.14,5.89h-1.19l-1.96-5.78
		c-0.58-1.71-1.06-3.28-1.4-4.72h-0.04c-0.04,1.51-0.13,3.55-0.23,5.37l-0.32,5.2h-1.49l0.85-12.14h2l2.07,5.87
		c0.5,1.49,0.92,2.83,1.22,4.09h0.05c0.31-1.22,0.74-2.56,1.28-4.09l2.16-5.87h2l0.76,12.14h-1.53L278.37,376.47z"/>
	<path d="M292.98,375.61c0,4.18-2.54,6.39-5.64,6.39c-3.21,0-5.46-2.49-5.46-6.16c0-3.85,2.4-6.37,5.64-6.37
		C290.84,369.47,292.98,372.01,292.98,375.61z M283.57,375.81c0,2.59,1.4,4.92,3.87,4.92c2.48,0,3.89-2.29,3.89-5.04
		c0-2.41-1.26-4.93-3.87-4.93C284.86,370.75,283.57,373.14,283.57,375.81z"/>
	<path d="M317.91,369.83c0.95-0.14,2.09-0.25,3.33-0.25c2.25,0,3.85,0.52,4.92,1.51c1.08,0.99,1.71,2.39,1.71,4.36
		c0,1.98-0.61,3.6-1.75,4.72c-1.13,1.13-3.01,1.75-5.37,1.75c-1.12,0-2.05-0.05-2.84-0.14V369.83z M319.48,380.56
		c0.4,0.07,0.97,0.09,1.58,0.09c3.35,0,5.17-1.87,5.17-5.15c0.02-2.86-1.6-4.68-4.92-4.68c-0.81,0-1.42,0.07-1.84,0.16V380.56z"/>
	<path d="M336.18,376.11h-4.72v4.38h5.26v1.31h-6.82v-12.14h6.55v1.31h-4.99v3.83h4.72V376.11z"/>
	<path d="M348.98,376.47c-0.09-1.69-0.2-3.73-0.18-5.24h-0.05c-0.41,1.42-0.92,2.94-1.53,4.61l-2.14,5.89h-1.19l-1.96-5.78
		c-0.58-1.71-1.06-3.28-1.4-4.72h-0.04c-0.04,1.51-0.13,3.55-0.23,5.37l-0.32,5.2h-1.5l0.85-12.14h2l2.07,5.87
		c0.5,1.49,0.92,2.83,1.22,4.09h0.05c0.31-1.22,0.74-2.56,1.28-4.09l2.16-5.87h2l0.76,12.14h-1.53L348.98,376.47z"/>
	<path d="M363.59,375.61c0,4.18-2.54,6.39-5.64,6.39c-3.21,0-5.46-2.49-5.46-6.16c0-3.85,2.39-6.37,5.64-6.37
		C361.45,369.47,363.59,372.01,363.59,375.61z M354.18,375.81c0,2.59,1.41,4.92,3.87,4.92c2.49,0,3.89-2.29,3.89-5.04
		c0-2.41-1.26-4.93-3.87-4.93C355.47,370.75,354.18,373.14,354.18,375.81z"/>
	<path d="M392.33,369.83c0.95-0.14,2.09-0.25,3.33-0.25c2.25,0,3.85,0.52,4.92,1.51c1.08,0.99,1.71,2.39,1.71,4.36
		c0,1.98-0.61,3.6-1.75,4.72c-1.13,1.13-3.01,1.75-5.37,1.75c-1.12,0-2.05-0.05-2.84-0.14V369.83z M393.9,380.56
		c0.4,0.07,0.97,0.09,1.58,0.09c3.35,0,5.17-1.87,5.17-5.15c0.02-2.86-1.6-4.68-4.92-4.68c-0.81,0-1.42,0.07-1.84,0.16V380.56z"/>
	<path d="M410.61,376.11h-4.72v4.38h5.26v1.31h-6.82v-12.14h6.55v1.31h-4.99v3.83h4.72V376.11z"/>
	<path d="M423.4,376.47c-0.09-1.69-0.2-3.73-0.18-5.24h-0.05c-0.41,1.42-0.92,2.94-1.53,4.61l-2.14,5.89h-1.19l-1.96-5.78
		c-0.58-1.71-1.06-3.28-1.4-4.72h-0.04c-0.04,1.51-0.13,3.55-0.23,5.37l-0.32,5.2h-1.5l0.85-12.14h2l2.07,5.87
		c0.5,1.49,0.92,2.83,1.22,4.09h0.05c0.31-1.22,0.74-2.56,1.28-4.09l2.16-5.87h2l0.76,12.14h-1.53L423.4,376.47z"/>
	<path d="M438.02,375.61c0,4.18-2.54,6.39-5.64,6.39c-3.21,0-5.46-2.49-5.46-6.16c0-3.85,2.39-6.37,5.64-6.37
		C435.88,369.47,438.02,372.01,438.02,375.61z M428.6,375.81c0,2.59,1.41,4.92,3.87,4.92c2.48,0,3.89-2.29,3.89-5.04
		c0-2.41-1.26-4.93-3.87-4.93C429.9,370.75,428.6,373.14,428.6,375.81z"/>
	<path d="M176.68,427.83c0.95-0.14,2.09-0.25,3.33-0.25c2.25,0,3.85,0.52,4.92,1.51c1.08,0.99,1.71,2.39,1.71,4.36
		c0,1.98-0.61,3.6-1.75,4.72c-1.13,1.13-3.01,1.75-5.37,1.75c-1.12,0-2.05-0.05-2.85-0.14V427.83z M178.25,438.56
		c0.4,0.07,0.97,0.09,1.58,0.09c3.35,0,5.17-1.87,5.17-5.15c0.02-2.86-1.6-4.68-4.92-4.68c-0.81,0-1.42,0.07-1.84,0.16V438.56z"/>
	<path d="M194.96,434.11h-4.72v4.38h5.26v1.31h-6.82v-12.14h6.55v1.31h-4.99v3.83h4.72V434.11z"/>
	<path d="M207.76,434.47c-0.09-1.69-0.2-3.73-0.18-5.24h-0.05c-0.41,1.42-0.92,2.94-1.53,4.61l-2.14,5.89h-1.19l-1.96-5.78
		c-0.58-1.71-1.06-3.28-1.4-4.72h-0.04c-0.04,1.51-0.13,3.55-0.23,5.37l-0.32,5.2h-1.49l0.85-12.14h2l2.07,5.87
		c0.5,1.49,0.92,2.83,1.22,4.09h0.05c0.31-1.22,0.74-2.56,1.28-4.09l2.16-5.87h2l0.76,12.14h-1.53L207.76,434.47z"/>
	<path d="M222.37,433.61c0,4.18-2.54,6.39-5.64,6.39c-3.21,0-5.46-2.49-5.46-6.16c0-3.85,2.39-6.37,5.64-6.37
		C220.23,427.47,222.37,430.01,222.37,433.61z M212.95,433.81c0,2.59,1.4,4.92,3.87,4.92c2.48,0,3.89-2.29,3.89-5.04
		c0-2.41-1.26-4.93-3.87-4.93C214.25,428.75,212.95,431.14,212.95,433.81z"/>
	<path d="M247.3,427.83c0.95-0.14,2.09-0.25,3.33-0.25c2.25,0,3.85,0.52,4.92,1.51c1.08,0.99,1.71,2.39,1.71,4.36
		c0,1.98-0.61,3.6-1.75,4.72c-1.13,1.13-3.01,1.75-5.37,1.75c-1.12,0-2.05-0.05-2.84-0.14V427.83z M248.86,438.56
		c0.4,0.07,0.97,0.09,1.58,0.09c3.35,0,5.17-1.87,5.17-5.15c0.02-2.86-1.6-4.68-4.92-4.68c-0.81,0-1.42,0.07-1.84,0.16V438.56z"/>
	<path d="M265.57,434.11h-4.72v4.38h5.26v1.31h-6.82v-12.14h6.55v1.31h-4.99v3.83h4.72V434.11z"/>
	<path d="M278.37,434.47c-0.09-1.69-0.2-3.73-0.18-5.24h-0.05c-0.41,1.42-0.92,2.94-1.53,4.61l-2.14,5.89h-1.19l-1.96-5.78
		c-0.58-1.71-1.06-3.28-1.4-4.72h-0.04c-0.04,1.51-0.13,3.55-0.23,5.37l-0.32,5.2h-1.49l0.85-12.14h2l2.07,5.87
		c0.5,1.49,0.92,2.83,1.22,4.09h0.05c0.31-1.22,0.74-2.56,1.28-4.09l2.16-5.87h2l0.76,12.14h-1.53L278.37,434.47z"/>
	<path d="M292.98,433.61c0,4.18-2.54,6.39-5.64,6.39c-3.21,0-5.46-2.49-5.46-6.16c0-3.85,2.4-6.37,5.64-6.37
		C290.84,427.47,292.98,430.01,292.98,433.61z M283.57,433.81c0,2.59,1.4,4.92,3.87,4.92c2.48,0,3.89-2.29,3.89-5.04
		c0-2.41-1.26-4.93-3.87-4.93C284.86,428.75,283.57,431.14,283.57,433.81z"/>
	<path d="M317.91,427.83c0.95-0.14,2.09-0.25,3.33-0.25c2.25,0,3.85,0.52,4.92,1.51c1.08,0.99,1.71,2.39,1.71,4.36
		c0,1.98-0.61,3.6-1.75,4.72c-1.13,1.13-3.01,1.75-5.37,1.75c-1.12,0-2.05-0.05-2.84-0.14V427.83z M319.48,438.56
		c0.4,0.07,0.97,0.09,1.58,0.09c3.35,0,5.17-1.87,5.17-5.15c0.02-2.86-1.6-4.68-4.92-4.68c-0.81,0-1.42,0.07-1.84,0.16V438.56z"/>
	<path d="M336.18,434.11h-4.72v4.38h5.26v1.31h-6.82v-12.14h6.55v1.31h-4.99v3.83h4.72V434.11z"/>
	<path d="M348.98,434.47c-0.09-1.69-0.2-3.73-0.18-5.24h-0.05c-0.41,1.42-0.92,2.94-1.53,4.61l-2.14,5.89h-1.19l-1.96-5.78
		c-0.58-1.71-1.06-3.28-1.4-4.72h-0.04c-0.04,1.51-0.13,3.55-0.23,5.37l-0.32,5.2h-1.5l0.85-12.14h2l2.07,5.87
		c0.5,1.49,0.92,2.83,1.22,4.09h0.05c0.31-1.22,0.74-2.56,1.28-4.09l2.16-5.87h2l0.76,12.14h-1.53L348.98,434.47z"/>
	<path d="M363.59,433.61c0,4.18-2.54,6.39-5.64,6.39c-3.21,0-5.46-2.49-5.46-6.16c0-3.85,2.39-6.37,5.64-6.37
		C361.45,427.47,363.59,430.01,363.59,433.61z M354.18,433.81c0,2.59,1.41,4.92,3.87,4.92c2.49,0,3.89-2.29,3.89-5.04
		c0-2.41-1.26-4.93-3.87-4.93C355.47,428.75,354.18,431.14,354.18,433.81z"/>
	<path d="M176.68,485.83c0.95-0.14,2.09-0.25,3.33-0.25c2.25,0,3.85,0.52,4.92,1.51c1.08,0.99,1.71,2.39,1.71,4.36
		c0,1.98-0.61,3.6-1.75,4.72c-1.13,1.13-3.01,1.75-5.37,1.75c-1.12,0-2.05-0.05-2.85-0.14V485.83z M178.25,496.56
		c0.4,0.07,0.97,0.09,1.58,0.09c3.35,0,5.17-1.87,5.17-5.15c0.02-2.86-1.6-4.68-4.92-4.68c-0.81,0-1.42,0.07-1.84,0.16V496.56z"/>
	<path d="M194.96,492.11h-4.72v4.38h5.26v1.31h-6.82v-12.14h6.55v1.31h-4.99v3.83h4.72V492.11z"/>
	<path d="M207.76,492.47c-0.09-1.69-0.2-3.73-0.18-5.24h-0.05c-0.41,1.42-0.92,2.94-1.53,4.61l-2.14,5.89h-1.19l-1.96-5.78
		c-0.58-1.71-1.06-3.28-1.4-4.72h-0.04c-0.04,1.51-0.13,3.55-0.23,5.37l-0.32,5.2h-1.49l0.85-12.14h2l2.07,5.87
		c0.5,1.49,0.92,2.83,1.22,4.09h0.05c0.31-1.22,0.74-2.56,1.28-4.09l2.16-5.87h2l0.76,12.14h-1.53L207.76,492.47z"/>
	<path d="M222.37,491.61c0,4.18-2.54,6.39-5.64,6.39c-3.21,0-5.46-2.49-5.46-6.16c0-3.85,2.39-6.37,5.64-6.37
		C220.23,485.47,222.37,488.01,222.37,491.61z M212.95,491.81c0,2.59,1.4,4.92,3.87,4.92c2.48,0,3.89-2.29,3.89-5.04
		c0-2.41-1.26-4.93-3.87-4.93C214.25,486.75,212.95,489.14,212.95,491.81z"/>
	<path d="M247.3,485.83c0.95-0.14,2.09-0.25,3.33-0.25c2.25,0,3.85,0.52,4.92,1.51c1.08,0.99,1.71,2.39,1.71,4.36
		c0,1.98-0.61,3.6-1.75,4.72c-1.13,1.13-3.01,1.75-5.37,1.75c-1.12,0-2.05-0.05-2.84-0.14V485.83z M248.86,496.56
		c0.4,0.07,0.97,0.09,1.58,0.09c3.35,0,5.17-1.87,5.17-5.15c0.02-2.86-1.6-4.68-4.92-4.68c-0.81,0-1.42,0.07-1.84,0.16V496.56z"/>
	<path d="M265.57,492.11h-4.72v4.38h5.26v1.31h-6.82v-12.14h6.55v1.31h-4.99v3.83h4.72V492.11z"/>
	<path d="M278.37,492.47c-0.09-1.69-0.2-3.73-0.18-5.24h-0.05c-0.41,1.42-0.92,2.94-1.53,4.61l-2.14,5.89h-1.19l-1.96-5.78
		c-0.58-1.71-1.06-3.28-1.4-4.72h-0.04c-0.04,1.51-0.13,3.55-0.23,5.37l-0.32,5.2h-1.49l0.85-12.14h2l2.07,5.87
		c0.5,1.49,0.92,2.83,1.22,4.09h0.05c0.31-1.22,0.74-2.56,1.28-4.09l2.16-5.87h2l0.76,12.14h-1.53L278.37,492.47z"/>
	<path d="M292.98,491.61c0,4.18-2.54,6.39-5.64,6.39c-3.21,0-5.46-2.49-5.46-6.16c0-3.85,2.4-6.37,5.64-6.37
		C290.84,485.47,292.98,488.01,292.98,491.61z M283.57,491.81c0,2.59,1.4,4.92,3.87,4.92c2.48,0,3.89-2.29,3.89-5.04
		c0-2.41-1.26-4.93-3.87-4.93C284.86,486.75,283.57,489.14,283.57,491.81z"/>
	<path d="M317.91,485.83c0.95-0.14,2.09-0.25,3.33-0.25c2.25,0,3.85,0.52,4.92,1.51c1.08,0.99,1.71,2.39,1.71,4.36
		c0,1.98-0.61,3.6-1.75,4.72c-1.13,1.13-3.01,1.75-5.37,1.75c-1.12,0-2.05-0.05-2.84-0.14V485.83z M319.48,496.56
		c0.4,0.07,0.97,0.09,1.58,0.09c3.35,0,5.17-1.87,5.17-5.15c0.02-2.86-1.6-4.68-4.92-4.68c-0.81,0-1.42,0.07-1.84,0.16V496.56z"/>
	<path d="M336.18,492.11h-4.72v4.38h5.26v1.31h-6.82v-12.14h6.55v1.31h-4.99v3.83h4.72V492.11z"/>
	<path d="M348.98,492.47c-0.09-1.69-0.2-3.73-0.18-5.24h-0.05c-0.41,1.42-0.92,2.94-1.53,4.61l-2.14,5.89h-1.19l-1.96-5.78
		c-0.58-1.71-1.06-3.28-1.4-4.72h-0.04c-0.04,1.51-0.13,3.55-0.23,5.37l-0.32,5.2h-1.5l0.85-12.14h2l2.07,5.87
		c0.5,1.49,0.92,2.83,1.22,4.09h0.05c0.31-1.22,0.74-2.56,1.28-4.09l2.16-5.87h2l0.76,12.14h-1.53L348.98,492.47z"/>
	<path d="M247.3,543.83c0.95-0.14,2.09-0.25,3.33-0.25c2.25,0,3.85,0.52,4.92,1.51c1.08,0.99,1.71,2.39,1.71,4.36
		c0,1.98-0.61,3.6-1.75,4.72c-1.13,1.13-3.01,1.75-5.37,1.75c-1.12,0-2.05-0.05-2.84-0.14V543.83z M248.86,554.56
		c0.4,0.07,0.97,0.09,1.58,0.09c3.35,0,5.17-1.87,5.17-5.15c0.02-2.86-1.6-4.68-4.92-4.68c-0.81,0-1.42,0.07-1.84,0.16V554.56z"/>
	<path d="M265.57,550.11h-4.72v4.38h5.26v1.31h-6.82v-12.14h6.55v1.31h-4.99v3.83h4.72V550.11z"/>
	<path d="M278.37,550.47c-0.09-1.69-0.2-3.73-0.18-5.24h-0.05c-0.41,1.42-0.92,2.94-1.53,4.61l-2.14,5.89h-1.19l-1.96-5.78
		c-0.58-1.71-1.06-3.28-1.4-4.72h-0.04c-0.04,1.51-0.13,3.55-0.23,5.37l-0.32,5.2h-1.49l0.85-12.14h2l2.07,5.87
		c0.5,1.49,0.92,2.83,1.22,4.09h0.05c0.31-1.22,0.74-2.56,1.28-4.09l2.16-5.87h2l0.76,12.14h-1.53L278.37,550.47z"/>
	<path d="M292.98,549.61c0,4.18-2.54,6.39-5.64,6.39c-3.21,0-5.46-2.49-5.46-6.16c0-3.85,2.4-6.37,5.64-6.37
		C290.84,543.47,292.98,546.01,292.98,549.61z M283.57,549.81c0,2.59,1.4,4.92,3.87,4.92c2.48,0,3.89-2.29,3.89-5.04
		c0-2.41-1.26-4.93-3.87-4.93C284.86,544.75,283.57,547.14,283.57,549.81z"/>
	<path d="M317.91,543.83c0.95-0.14,2.09-0.25,3.33-0.25c2.25,0,3.85,0.52,4.92,1.51c1.08,0.99,1.71,2.39,1.71,4.36
		c0,1.98-0.61,3.6-1.75,4.72c-1.13,1.13-3.01,1.75-5.37,1.75c-1.12,0-2.05-0.05-2.84-0.14V543.83z M319.48,554.56
		c0.4,0.07,0.97,0.09,1.58,0.09c3.35,0,5.17-1.87,5.17-5.15c0.02-2.86-1.6-4.68-4.92-4.68c-0.81,0-1.42,0.07-1.84,0.16V554.56z"/>
	<path d="M336.18,550.11h-4.72v4.38h5.26v1.31h-6.82v-12.14h6.55v1.31h-4.99v3.83h4.72V550.11z"/>
	<path d="M348.98,550.47c-0.09-1.69-0.2-3.73-0.18-5.24h-0.05c-0.41,1.42-0.92,2.94-1.53,4.61l-2.14,5.89h-1.19l-1.96-5.78
		c-0.58-1.71-1.06-3.28-1.4-4.72h-0.04c-0.04,1.51-0.13,3.55-0.23,5.37l-0.32,5.2h-1.5l0.85-12.14h2l2.07,5.87
		c0.5,1.49,0.92,2.83,1.22,4.09h0.05c0.31-1.22,0.74-2.56,1.28-4.09l2.16-5.87h2l0.76,12.14h-1.53L348.98,550.47z"/>
</g>
</svg>
