<?xml version="1.0" encoding="utf-8"?>
<!-- Generator: Adobe Illustrator 19.2.0, SVG Export Plug-In . SVG Version: 6.00 Build 0)  -->
<svg version="1.1" id="Illustration_1_" xmlns="http://www.w3.org/2000/svg" xmlns:xlink="http://www.w3.org/1999/xlink" x="0px"
	 y="0px" viewBox="0 0 600 600" style="enable-background:new 0 0 600 600;" xml:space="preserve">
<style type="text/css">
	.st0{opacity:0.502;fill:#ADBCC5;}
	.st1{fill-rule:evenodd;clip-rule:evenodd;stroke:#ADBCC5;stroke-linecap:round;stroke-linejoin:round;stroke-miterlimit:100;}
	.st2{fill:#E69B61;}
	.st3{fill:#F5C16D;}
	.st4{fill:#ADBCC5;}
	.st5{fill:#A2B3BC;}
	.st6{fill:#8B9FAB;}
	.st7{fill:#31364C;stroke:#31364C;stroke-width:2;stroke-miterlimit:100;}
	.st8{opacity:0.4;}
</style>
<g id="Stars_1_">
	<path id="circle_star" class="st0" d="M192,107c-3.31,0-6,2.69-6,6s2.69,6,6,6c3.31,0,6-2.69,6-6S195.31,107,192,107z M481,163
		c1.66,0,3-1.34,3-3s-1.34-3-3-3c-1.66,0-3,1.34-3,3S479.34,163,481,163z M99,349c-2.76,0-5,2.24-5,5c0,2.76,2.24,5,5,5
		c2.76,0,5-2.24,5-5C104,351.24,101.76,349,99,349z M160,476c-3.87,0-7,3.13-7,7s3.13,7,7,7c3.87,0,7-3.13,7-7S163.87,476,160,476z
		 M318,520c-1.66,0-3,1.34-3,3s1.34,3,3,3s3-1.34,3-3S319.66,520,318,520z M102.5,157c-1.38,0-2.5,1.12-2.5,2.5
		c0,1.38,1.12,2.5,2.5,2.5c1.38,0,2.5-1.12,2.5-2.5C105,158.12,103.88,157,102.5,157z M388,62c-2.21,0-4,1.79-4,4c0,2.21,1.79,4,4,4
		s4-1.79,4-4C392,63.79,390.21,62,388,62z M517,355c-2.21,0-4,1.79-4,4s1.79,4,4,4s4-1.79,4-4S519.21,355,517,355z M483,498
		c-2.76,0-5,2.24-5,5c0,2.76,2.24,5,5,5c2.76,0,5-2.24,5-5C488,500.24,485.76,498,483,498z M357,152c-1.66,0-3,1.34-3,3s1.34,3,3,3
		c1.66,0,3-1.34,3-3S358.66,152,357,152z"/>
	<g id="line_star">
		<line id="line_star_2_" class="st1" x1="147" y1="412" x2="86" y2="473"/>
		<line id="line_star_3_" class="st1" x1="446" y1="448" x2="385" y2="509"/>
		<line id="line_star_4_" class="st1" x1="339" y1="85" x2="278" y2="146"/>
		<line id="line_star_5_" class="st1" x1="510" y1="240" x2="449" y2="301"/>
		<line id="line_star_6_" class="st1" x1="145" y1="176" x2="120" y2="202"/>
	</g>
	<path id="star" class="st2" d="M204,513c-1.11,6.67-6.33,11.89-13,13c6.67,1.11,11.89,6.33,13,13c1.11-6.67,6.33-11.89,13-13
		C210.33,524.89,205.11,519.67,204,513z M428,402c-1.11,6.67-6.33,11.89-13,13c6.67,1.11,11.89,6.33,13,13
		c1.11-6.67,6.33-11.89,13-13C434.33,413.89,429.11,408.67,428,402z M90.5,295c-0.81,4.87-4.63,8.69-9.5,9.5
		c4.87,0.81,8.69,4.63,9.5,9.5c0.81-4.87,4.63-8.69,9.5-9.5C95.13,303.69,91.31,299.87,90.5,295z"/>
	<path id="star_1_" class="st3" d="M381,85c-0.68,4.1-3.9,7.32-8,8c4.1,0.68,7.32,3.9,8,8c0.68-4.1,3.9-7.32,8-8
		C384.9,92.32,381.68,89.1,381,85z M120,73c-1.03,6.15-5.85,10.97-12,12c6.15,1.03,10.97,5.85,12,12c1.03-6.15,5.85-10.97,12-12
		C125.85,83.97,121.03,79.15,120,73z M495,203c-1.03,6.15-5.85,10.97-12,12c6.15,1.03,10.97,5.85,12,12c1.03-6.15,5.85-10.97,12-12
		C500.85,213.97,496.03,209.15,495,203z"/>
</g>
<g id="Planet_1_">
	<path id="moon" class="st4" d="M370.25,197.4c0.08-0.15,0.17-0.29,0.24-0.45c1.78-4.04-1.49-9.4-7.31-11.95s-11.97-1.35-13.75,2.69
		c-0.05,0.12-0.08,0.24-0.13,0.35C336.04,183.48,321.81,181,307,181c-42.17,0-79.65,20.09-103.4,51.21
		c-0.28-0.18-0.55-0.36-0.86-0.5c-6.3-2.95-15.78,3.74-21.16,14.94c-5.29,11-4.65,22.25,1.34,25.45
		C179.08,284.39,177,297.45,177,311c0,31.64,11.31,60.64,30.1,83.19c-1.62,3.81-1.36,8.66,1.11,12.94
		c3.87,6.7,11.65,9.44,17.39,6.12c0.21-0.12,0.41-0.26,0.61-0.4C248.4,430.47,276.47,441,307,441c71.8,0,130-58.2,130-130
		C437,262.16,410.07,219.62,370.25,197.4z"/>
	<path id="craters" class="st5" d="M269,277c-11.05,0-20,8.95-20,20c0,11.05,8.95,20,20,20c11.05,0,20-8.95,20-20
		C289,285.95,280.05,277,269,277z M336,342c-7.18,0-13,5.82-13,13c0,7.18,5.82,13,13,13s13-5.82,13-13
		C349,347.82,343.18,342,336,342z M402,278c0-8.28-6.72-15-15-15c-8.28,0-15,6.72-15,15c0,8.28,6.72,15,15,15
		C395.28,293,402,286.28,402,278z M307,212c-5.52,0-10,4.48-10,10c0,5.52,4.48,10,10,10c5.52,0,10-4.48,10-10
		C317,216.48,312.52,212,307,212z M257.5,374c-4.69,0-8.5,3.81-8.5,8.5c0,4.69,3.81,8.5,8.5,8.5c4.69,0,8.5-3.81,8.5-8.5
		C266,377.81,262.19,374,257.5,374z M400.5,342c-2.49,0-4.5,2.01-4.5,4.5c0,2.49,2.01,4.5,4.5,4.5c2.49,0,4.5-2.01,4.5-4.5
		C405,344.01,402.99,342,400.5,342z M309.5,411c-2.49,0-4.5,2.01-4.5,4.5c0,2.49,2.01,4.5,4.5,4.5c2.49,0,4.5-2.01,4.5-4.5
		C314,413.01,311.99,411,309.5,411z M198.5,305c-4.69,0-8.5,3.81-8.5,8.5c0,4.69,3.81,8.5,8.5,8.5c4.69,0,8.5-3.81,8.5-8.5
		C207,308.81,203.19,305,198.5,305z M235.5,227c-2.49,0-4.5,2.01-4.5,4.5c0,2.49,2.01,4.5,4.5,4.5c2.49,0,4.5-2.01,4.5-4.5
		C240,229.01,237.99,227,235.5,227z M201.25,257.08c4.13-8.55,3.56-17.31-1.28-19.57c-4.83-2.25-12.1,2.85-16.22,11.4
		c-4.13,8.55-3.56,17.31,1.28,19.57C189.85,270.74,197.12,265.64,201.25,257.08z M213.39,393.9c-3.51,0.91-4.67,5.43-1.67,10.48
		c3.44,5.78,9.74,8.28,12.91,5.41c2.61-2.36,1.71-7.37-1.32-11.18C220.56,395.16,216.39,393.13,213.39,393.9z M361.69,187.93
		c-3.96-1.77-8.16-0.94-9.37,1.86c-1.21,2.8,1.02,6.5,4.98,8.27c3.96,1.77,8.16,0.94,9.37-1.86
		C367.88,193.4,365.65,189.7,361.69,187.93z"/>
	<path id="shadow_craters" class="st6" d="M235.5,227c-2.49,0-4.5,2.01-4.5,4.5c0,1.76,1.02,3.27,2.49,4.01
		c-0.3-0.61-0.49-1.28-0.49-2.01c0-2.49,2.01-4.5,4.5-4.5c0.73,0,1.4,0.19,2.01,0.49C238.77,228.02,237.26,227,235.5,227z
		 M257.5,374c-4.69,0-8.5,3.81-8.5,8.5c0,2.86,1.42,5.38,3.58,6.92c-0.99-1.39-1.58-3.09-1.58-4.92c0-4.69,3.81-8.5,8.5-8.5
		c1.84,0,3.53,0.59,4.92,1.58C262.88,375.41,260.36,374,257.5,374z M269,277c-11.05,0-20,8.95-20,20c0,6.54,3.16,12.34,8.02,15.98
		c-2.51-3.34-4.02-7.48-4.02-11.98c0-11.05,8.95-20,20-20c4.5,0,8.64,1.51,11.98,4.02C281.34,280.16,275.54,277,269,277z
		 M213.55,402.63c-1.98-3.32-2.14-6.41-1.03-8.39c-2.8,1.4-3.53,5.54-0.79,10.14c3.44,5.78,9.74,8.28,12.91,5.41
		c0.36-0.32,0.64-0.7,0.87-1.12C222.15,410.42,216.67,407.89,213.55,402.63z M198.5,305c-4.69,0-8.5,3.81-8.5,8.5
		c0,2.86,1.42,5.38,3.58,6.92c-0.99-1.39-1.58-3.09-1.58-4.92c0-4.69,3.81-8.5,8.5-8.5c1.84,0,3.53,0.59,4.92,1.58
		C203.88,306.42,201.36,305,198.5,305z M202.02,239.18c-0.57-0.71-1.25-1.28-2.05-1.66c-4.83-2.25-12.1,2.85-16.22,11.4
		c-4.13,8.55-3.56,17.31,1.28,19.57c0.31,0.14,0.62,0.25,0.95,0.34c-2.83-3.53-2.66-10.79,0.78-17.91
		C190.61,242.91,197.23,237.92,202.02,239.18z M372,278c0,6.67,4.36,12.32,10.39,14.27c-3.86-2.71-6.39-7.19-6.39-12.27
		c0-8.28,6.72-15,15-15c1.61,0,3.16,0.26,4.61,0.73c-2.44-1.71-5.4-2.73-8.61-2.73C378.72,263,372,269.72,372,278z M400.5,342
		c-2.49,0-4.5,2.01-4.5,4.5c0,2.49,2.01,4.5,4.5,4.5c2.49,0,4.5-2.01,4.5-4.5C405,344.01,402.99,342,400.5,342z M361.69,187.93
		c-3.96-1.77-8.16-0.94-9.37,1.86c-0.36,0.83-0.41,1.74-0.21,2.65c0.05-0.22,0.12-0.44,0.21-0.65c1.21-2.8,5.41-3.63,9.37-1.86
		c2.79,1.25,4.72,3.45,5.19,5.62C367.53,192.85,365.35,189.56,361.69,187.93z M307,212c-5.52,0-10,4.48-10,10
		c0,3.27,1.58,6.17,4.01,7.99c-1.25-1.67-2.01-3.74-2.01-5.99c0-5.52,4.48-10,10-10c2.25,0,4.32,0.75,5.99,2.01
		C313.17,213.58,310.27,212,307,212z M323,355c0,5.16,3.01,9.6,7.37,11.7c-2.68-2.38-4.37-5.84-4.37-9.7c0-7.18,5.82-13,13-13
		c2.02,0,3.92,0.47,5.63,1.3c-2.3-2.04-5.31-3.3-8.63-3.3C328.82,342,323,347.82,323,355z M309.5,411c-2.49,0-4.5,2.01-4.5,4.5
		c0,1.76,1.02,3.27,2.49,4.01c-0.3-0.61-0.49-1.28-0.49-2.01c0-2.49,2.01-4.5,4.5-4.5c0.73,0,1.4,0.19,2.01,0.49
		C312.77,412.02,311.26,411,309.5,411z"/>
	<path id="fold" class="st6" d="M266.59,322.88c0.8,0.07,1.6,0.12,2.41,0.12c14.36,0,26-11.64,26-26c0-0.81-0.04-1.62-0.12-2.41
		C293.64,309.64,281.64,321.64,266.59,322.88z M208,245.5c0,12.74-7.56,23.7-18.44,28.66C200.74,271.26,209,261.09,209,249
		c0-2.91-0.48-5.7-1.37-8.31C207.87,242.26,208,243.86,208,245.5z M334.27,373.77c0.89,0.14,1.8,0.23,2.73,0.23
		c9.94,0,18-8.06,18-18c0-0.93-0.09-1.83-0.23-2.73C353.32,363.91,344.91,372.32,334.27,373.77z M405.61,271.46
		c0.25,1.31,0.39,2.66,0.39,4.04c0,9.5-6.17,17.54-14.71,20.39c8.83-0.97,15.71-8.45,15.71-17.54
		C407,275.9,406.5,273.58,405.61,271.46z"/>
	<path id="shadow" class="st7" d="M410.5,232.33c4.22,13.98,6.5,28.8,6.5,44.16c0,22.56-4.9,43.96-13.69,63.23
		c-1.01-0.46-2.13-0.72-3.31-0.72c-4.42,0-8,3.58-8,8c0,2.93,1.58,5.48,3.93,6.88c-11.54,19.55-27.3,36.31-46.05,49
		c-0.92-1.14-2.3-1.88-3.88-1.88c-2.76,0-5,2.24-5,5c0,0.77,0.19,1.49,0.5,2.15c-22.6,13.25-48.91,20.85-77,20.85
		c-4.51,0-8.96-0.21-13.37-0.59C268.06,436.48,287,441,307,441c71.8,0,130-58.2,130-130C437,281.43,427.12,254.17,410.5,232.33z"/>
</g>
<g class="st8">
	<path d="M248.3,187.81c0.95-0.14,2.09-0.25,3.33-0.25c2.25,0,3.85,0.52,4.92,1.51c1.08,0.99,1.71,2.4,1.71,4.36
		c0,1.98-0.61,3.6-1.75,4.72c-1.13,1.13-3.01,1.75-5.37,1.75c-1.12,0-2.05-0.05-2.84-0.14V187.81z M249.86,198.54
		c0.4,0.07,0.97,0.09,1.58,0.09c3.35,0,5.17-1.87,5.17-5.15c0.02-2.86-1.6-4.68-4.92-4.68c-0.81,0-1.42,0.07-1.84,0.16V198.54z"/>
	<path d="M266.57,194.09h-4.72v4.38h5.26v1.31h-6.82v-12.14h6.55v1.31h-4.99v3.84h4.72V194.09z"/>
	<path d="M279.37,194.45c-0.09-1.69-0.2-3.73-0.18-5.24h-0.05c-0.41,1.42-0.92,2.94-1.53,4.61l-2.14,5.89h-1.19l-1.96-5.78
		c-0.58-1.71-1.06-3.28-1.4-4.72h-0.04c-0.04,1.51-0.13,3.55-0.23,5.37l-0.32,5.2h-1.49l0.85-12.14h2l2.07,5.87
		c0.5,1.49,0.92,2.83,1.22,4.09h0.05c0.31-1.22,0.74-2.56,1.28-4.09l2.16-5.87h2l0.76,12.14h-1.53L279.37,194.45z"/>
	<path d="M293.98,193.59c0,4.18-2.54,6.39-5.64,6.39c-3.21,0-5.46-2.48-5.46-6.16c0-3.85,2.4-6.37,5.64-6.37
		C291.84,187.45,293.98,189.98,293.98,193.59z M284.57,193.78c0,2.59,1.4,4.92,3.87,4.92c2.48,0,3.89-2.29,3.89-5.04
		c0-2.41-1.26-4.93-3.87-4.93C285.86,188.72,284.57,191.12,284.57,193.78z"/>
	<path d="M318.91,187.81c0.95-0.14,2.09-0.25,3.33-0.25c2.25,0,3.85,0.52,4.92,1.51c1.08,0.99,1.71,2.4,1.71,4.36
		c0,1.98-0.61,3.6-1.75,4.72c-1.13,1.13-3.01,1.75-5.37,1.75c-1.12,0-2.05-0.05-2.84-0.14V187.81z M320.48,198.54
		c0.4,0.07,0.97,0.09,1.58,0.09c3.35,0,5.17-1.87,5.17-5.15c0.02-2.86-1.6-4.68-4.92-4.68c-0.81,0-1.42,0.07-1.84,0.16V198.54z"/>
	<path d="M337.18,194.09h-4.72v4.38h5.26v1.31h-6.82v-12.14h6.55v1.31h-4.99v3.84h4.72V194.09z"/>
	<path d="M349.98,194.45c-0.09-1.69-0.2-3.73-0.18-5.24h-0.05c-0.41,1.42-0.92,2.94-1.53,4.61l-2.14,5.89h-1.19l-1.96-5.78
		c-0.58-1.71-1.06-3.28-1.4-4.72h-0.04c-0.04,1.51-0.13,3.55-0.23,5.37l-0.32,5.2h-1.5l0.85-12.14h2l2.07,5.87
		c0.5,1.49,0.92,2.83,1.22,4.09h0.05c0.31-1.22,0.74-2.56,1.28-4.09l2.16-5.87h2l0.76,12.14h-1.53L349.98,194.45z"/>
	<path d="M364.59,193.59c0,4.18-2.54,6.39-5.64,6.39c-3.21,0-5.46-2.48-5.46-6.16c0-3.85,2.39-6.37,5.64-6.37
		C362.45,187.45,364.59,189.98,364.59,193.59z M355.18,193.78c0,2.59,1.41,4.92,3.87,4.92c2.49,0,3.89-2.29,3.89-5.04
		c0-2.41-1.26-4.93-3.87-4.93C356.47,188.72,355.18,191.12,355.18,193.78z"/>
	<path d="M177.68,245.81c0.95-0.14,2.09-0.25,3.33-0.25c2.25,0,3.85,0.52,4.92,1.51c1.08,0.99,1.71,2.4,1.71,4.36
		c0,1.98-0.61,3.6-1.75,4.72c-1.13,1.13-3.01,1.75-5.37,1.75c-1.12,0-2.05-0.05-2.85-0.14V245.81z M179.25,256.54
		c0.4,0.07,0.97,0.09,1.58,0.09c3.35,0,5.17-1.87,5.17-5.15c0.02-2.86-1.6-4.68-4.92-4.68c-0.81,0-1.42,0.07-1.84,0.16V256.54z"/>
	<path d="M195.96,252.09h-4.72v4.38h5.26v1.31h-6.82v-12.14h6.55v1.31h-4.99v3.84h4.72V252.09z"/>
	<path d="M208.76,252.45c-0.09-1.69-0.2-3.73-0.18-5.24h-0.05c-0.41,1.42-0.92,2.94-1.53,4.61l-2.14,5.89h-1.19l-1.96-5.78
		c-0.58-1.71-1.06-3.28-1.4-4.72h-0.04c-0.04,1.51-0.13,3.55-0.23,5.37l-0.32,5.2h-1.49l0.85-12.14h2l2.07,5.87
		c0.5,1.49,0.92,2.83,1.22,4.09h0.05c0.31-1.22,0.74-2.56,1.28-4.09l2.16-5.87h2l0.76,12.14h-1.53L208.76,252.45z"/>
	<path d="M223.37,251.59c0,4.18-2.54,6.39-5.64,6.39c-3.21,0-5.46-2.48-5.46-6.16c0-3.85,2.39-6.37,5.64-6.37
		C221.23,245.45,223.37,247.98,223.37,251.59z M213.95,251.78c0,2.59,1.4,4.92,3.87,4.92c2.48,0,3.89-2.29,3.89-5.04
		c0-2.41-1.26-4.93-3.87-4.93C215.25,246.72,213.95,249.12,213.95,251.78z"/>
	<path d="M248.3,245.81c0.95-0.14,2.09-0.25,3.33-0.25c2.25,0,3.85,0.52,4.92,1.51c1.08,0.99,1.71,2.4,1.71,4.36
		c0,1.98-0.61,3.6-1.75,4.72c-1.13,1.13-3.01,1.75-5.37,1.75c-1.12,0-2.05-0.05-2.84-0.14V245.81z M249.86,256.54
		c0.4,0.07,0.97,0.09,1.58,0.09c3.35,0,5.17-1.87,5.17-5.15c0.02-2.86-1.6-4.68-4.92-4.68c-0.81,0-1.42,0.07-1.84,0.16V256.54z"/>
	<path d="M266.57,252.09h-4.72v4.38h5.26v1.31h-6.82v-12.14h6.55v1.31h-4.99v3.84h4.72V252.09z"/>
	<path d="M279.37,252.45c-0.09-1.69-0.2-3.73-0.18-5.24h-0.05c-0.41,1.42-0.92,2.94-1.53,4.61l-2.14,5.89h-1.19l-1.96-5.78
		c-0.58-1.71-1.06-3.28-1.4-4.72h-0.04c-0.04,1.51-0.13,3.55-0.23,5.37l-0.32,5.2h-1.49l0.85-12.14h2l2.07,5.87
		c0.5,1.49,0.92,2.83,1.22,4.09h0.05c0.31-1.22,0.74-2.56,1.28-4.09l2.16-5.87h2l0.76,12.14h-1.53L279.37,252.45z"/>
	<path d="M293.98,251.59c0,4.18-2.54,6.39-5.64,6.39c-3.21,0-5.46-2.48-5.46-6.16c0-3.85,2.4-6.37,5.64-6.37
		C291.84,245.45,293.98,247.98,293.98,251.59z M284.57,251.78c0,2.59,1.4,4.92,3.87,4.92c2.48,0,3.89-2.29,3.89-5.04
		c0-2.41-1.26-4.93-3.87-4.93C285.86,246.72,284.57,249.12,284.57,251.78z"/>
	<path d="M318.91,245.81c0.95-0.14,2.09-0.25,3.33-0.25c2.25,0,3.85,0.52,4.92,1.51c1.08,0.99,1.71,2.4,1.71,4.36
		c0,1.98-0.61,3.6-1.75,4.72c-1.13,1.13-3.01,1.75-5.37,1.75c-1.12,0-2.05-0.05-2.84-0.14V245.81z M320.48,256.54
		c0.4,0.07,0.97,0.09,1.58,0.09c3.35,0,5.17-1.87,5.17-5.15c0.02-2.86-1.6-4.68-4.92-4.68c-0.81,0-1.42,0.07-1.84,0.16V256.54z"/>
	<path d="M337.18,252.09h-4.72v4.38h5.26v1.31h-6.82v-12.14h6.55v1.31h-4.99v3.84h4.72V252.09z"/>
	<path d="M349.98,252.45c-0.09-1.69-0.2-3.73-0.18-5.24h-0.05c-0.41,1.42-0.92,2.94-1.53,4.61l-2.14,5.89h-1.19l-1.96-5.78
		c-0.58-1.71-1.06-3.28-1.4-4.72h-0.04c-0.04,1.51-0.13,3.55-0.23,5.37l-0.32,5.2h-1.5l0.85-12.14h2l2.07,5.87
		c0.5,1.49,0.92,2.83,1.22,4.09h0.05c0.31-1.22,0.74-2.56,1.28-4.09l2.16-5.87h2l0.76,12.14h-1.53L349.98,252.45z"/>
	<path d="M364.59,251.59c0,4.18-2.54,6.39-5.64,6.39c-3.21,0-5.46-2.48-5.46-6.16c0-3.85,2.39-6.37,5.64-6.37
		C362.45,245.45,364.59,247.98,364.59,251.59z M355.18,251.78c0,2.59,1.41,4.92,3.87,4.92c2.49,0,3.89-2.29,3.89-5.04
		c0-2.41-1.26-4.93-3.87-4.93C356.47,246.72,355.18,249.12,355.18,251.78z"/>
	<path d="M393.33,245.81c0.95-0.14,2.09-0.25,3.33-0.25c2.25,0,3.85,0.52,4.92,1.51c1.08,0.99,1.71,2.4,1.71,4.36
		c0,1.98-0.61,3.6-1.75,4.72c-1.13,1.13-3.01,1.75-5.37,1.75c-1.12,0-2.05-0.05-2.84-0.14V245.81z M394.9,256.54
		c0.4,0.07,0.97,0.09,1.58,0.09c3.35,0,5.17-1.87,5.17-5.15c0.02-2.86-1.6-4.68-4.92-4.68c-0.81,0-1.42,0.07-1.84,0.16V256.54z"/>
	<path d="M411.61,252.09h-4.72v4.38h5.26v1.31h-6.82v-12.14h6.55v1.31h-4.99v3.84h4.72V252.09z"/>
	<path d="M424.4,252.45c-0.09-1.69-0.2-3.73-0.18-5.24h-0.05c-0.41,1.42-0.92,2.94-1.53,4.61l-2.14,5.89h-1.19l-1.96-5.78
		c-0.58-1.71-1.06-3.28-1.4-4.72h-0.04c-0.04,1.51-0.13,3.55-0.23,5.37l-0.32,5.2h-1.5l0.85-12.14h2l2.07,5.87
		c0.5,1.49,0.92,2.83,1.22,4.09h0.05c0.31-1.22,0.74-2.56,1.28-4.09l2.16-5.87h2l0.76,12.14h-1.53L424.4,252.45z"/>
	<path d="M177.68,303.81c0.95-0.14,2.09-0.25,3.33-0.25c2.25,0,3.85,0.52,4.92,1.51c1.08,0.99,1.71,2.4,1.71,4.36
		c0,1.98-0.61,3.6-1.75,4.72c-1.13,1.13-3.01,1.75-5.37,1.75c-1.12,0-2.05-0.05-2.85-0.14V303.81z M179.25,314.54
		c0.4,0.07,0.97,0.09,1.58,0.09c3.35,0,5.17-1.87,5.17-5.15c0.02-2.86-1.6-4.68-4.92-4.68c-0.81,0-1.42,0.07-1.84,0.16V314.54z"/>
	<path d="M195.96,310.09h-4.72v4.38h5.26v1.31h-6.82v-12.14h6.55v1.31h-4.99v3.83h4.72V310.09z"/>
	<path d="M208.76,310.45c-0.09-1.69-0.2-3.73-0.18-5.24h-0.05c-0.41,1.42-0.92,2.94-1.53,4.61l-2.14,5.89h-1.19l-1.96-5.78
		c-0.58-1.71-1.06-3.28-1.4-4.72h-0.04c-0.04,1.51-0.13,3.55-0.23,5.37l-0.32,5.2h-1.49l0.85-12.14h2l2.07,5.87
		c0.5,1.49,0.92,2.83,1.22,4.09h0.05c0.31-1.22,0.74-2.56,1.28-4.09l2.16-5.87h2l0.76,12.14h-1.53L208.76,310.45z"/>
	<path d="M223.37,309.59c0,4.18-2.54,6.39-5.64,6.39c-3.21,0-5.46-2.49-5.46-6.16c0-3.85,2.39-6.37,5.64-6.37
		C221.23,303.45,223.37,305.99,223.37,309.59z M213.95,309.78c0,2.59,1.4,4.92,3.87,4.92c2.48,0,3.89-2.29,3.89-5.04
		c0-2.41-1.26-4.93-3.87-4.93C215.25,304.72,213.95,307.12,213.95,309.78z"/>
	<path d="M248.3,303.81c0.95-0.14,2.09-0.25,3.33-0.25c2.25,0,3.85,0.52,4.92,1.51c1.08,0.99,1.71,2.4,1.71,4.36
		c0,1.98-0.61,3.6-1.75,4.72c-1.13,1.13-3.01,1.75-5.37,1.75c-1.12,0-2.05-0.05-2.84-0.14V303.81z M249.86,314.54
		c0.4,0.07,0.97,0.09,1.58,0.09c3.35,0,5.17-1.87,5.17-5.15c0.02-2.86-1.6-4.68-4.92-4.68c-0.81,0-1.42,0.07-1.84,0.16V314.54z"/>
	<path d="M266.57,310.09h-4.72v4.38h5.26v1.31h-6.82v-12.14h6.55v1.31h-4.99v3.83h4.72V310.09z"/>
	<path d="M279.37,310.45c-0.09-1.69-0.2-3.73-0.18-5.24h-0.05c-0.41,1.42-0.92,2.94-1.53,4.61l-2.14,5.89h-1.19l-1.96-5.78
		c-0.58-1.71-1.06-3.28-1.4-4.72h-0.04c-0.04,1.51-0.13,3.55-0.23,5.37l-0.32,5.2h-1.49l0.85-12.14h2l2.07,5.87
		c0.5,1.49,0.92,2.83,1.22,4.09h0.05c0.31-1.22,0.74-2.56,1.28-4.09l2.16-5.87h2l0.76,12.14h-1.53L279.37,310.45z"/>
	<path d="M293.98,309.59c0,4.18-2.54,6.39-5.64,6.39c-3.21,0-5.46-2.49-5.46-6.16c0-3.85,2.4-6.37,5.64-6.37
		C291.84,303.45,293.98,305.99,293.98,309.59z M284.57,309.78c0,2.59,1.4,4.92,3.87,4.92c2.48,0,3.89-2.29,3.89-5.04
		c0-2.41-1.26-4.93-3.87-4.93C285.86,304.72,284.57,307.12,284.57,309.78z"/>
	<path d="M318.91,303.81c0.95-0.14,2.09-0.25,3.33-0.25c2.25,0,3.85,0.52,4.92,1.51c1.08,0.99,1.71,2.4,1.71,4.36
		c0,1.98-0.61,3.6-1.75,4.72c-1.13,1.13-3.01,1.75-5.37,1.75c-1.12,0-2.05-0.05-2.84-0.14V303.81z M320.48,314.54
		c0.4,0.07,0.97,0.09,1.58,0.09c3.35,0,5.17-1.87,5.17-5.15c0.02-2.86-1.6-4.68-4.92-4.68c-0.81,0-1.42,0.07-1.84,0.16V314.54z"/>
	<path d="M337.18,310.09h-4.72v4.38h5.26v1.31h-6.82v-12.14h6.55v1.31h-4.99v3.83h4.72V310.09z"/>
	<path d="M349.98,310.45c-0.09-1.69-0.2-3.73-0.18-5.24h-0.05c-0.41,1.42-0.92,2.94-1.53,4.61l-2.14,5.89h-1.19l-1.96-5.78
		c-0.58-1.71-1.06-3.28-1.4-4.72h-0.04c-0.04,1.51-0.13,3.55-0.23,5.37l-0.32,5.2h-1.5l0.85-12.14h2l2.07,5.87
		c0.5,1.49,0.92,2.83,1.22,4.09h0.05c0.31-1.22,0.74-2.56,1.28-4.09l2.16-5.87h2l0.76,12.14h-1.53L349.98,310.45z"/>
	<path d="M364.59,309.59c0,4.18-2.54,6.39-5.64,6.39c-3.21,0-5.46-2.49-5.46-6.16c0-3.85,2.39-6.37,5.64-6.37
		C362.45,303.45,364.59,305.99,364.59,309.59z M355.18,309.78c0,2.59,1.41,4.92,3.87,4.92c2.49,0,3.89-2.29,3.89-5.04
		c0-2.41-1.26-4.93-3.87-4.93C356.47,304.72,355.18,307.12,355.18,309.78z"/>
	<path d="M393.33,303.81c0.95-0.14,2.09-0.25,3.33-0.25c2.25,0,3.85,0.52,4.92,1.51c1.08,0.99,1.71,2.4,1.71,4.36
		c0,1.98-0.61,3.6-1.75,4.72c-1.13,1.13-3.01,1.75-5.37,1.75c-1.12,0-2.05-0.05-2.84-0.14V303.81z M394.9,314.54
		c0.4,0.07,0.97,0.09,1.58,0.09c3.35,0,5.17-1.87,5.17-5.15c0.02-2.86-1.6-4.68-4.92-4.68c-0.81,0-1.42,0.07-1.84,0.16V314.54z"/>
	<path d="M411.61,310.09h-4.72v4.38h5.26v1.31h-6.82v-12.14h6.55v1.31h-4.99v3.83h4.72V310.09z"/>
	<path d="M424.4,310.45c-0.09-1.69-0.2-3.73-0.18-5.24h-0.05c-0.41,1.42-0.92,2.94-1.53,4.61l-2.14,5.89h-1.19l-1.96-5.78
		c-0.58-1.71-1.06-3.28-1.4-4.72h-0.04c-0.04,1.51-0.13,3.55-0.23,5.37l-0.32,5.2h-1.5l0.85-12.14h2l2.07,5.87
		c0.5,1.49,0.92,2.83,1.22,4.09h0.05c0.31-1.22,0.74-2.56,1.28-4.09l2.16-5.87h2l0.76,12.14h-1.53L424.4,310.45z"/>
	<path d="M439.02,309.59c0,4.18-2.54,6.39-5.64,6.39c-3.21,0-5.46-2.49-5.46-6.16c0-3.85,2.39-6.37,5.64-6.37
		C436.88,303.45,439.02,305.99,439.02,309.59z M429.6,309.78c0,2.59,1.41,4.92,3.87,4.92c2.48,0,3.89-2.29,3.89-5.04
		c0-2.41-1.26-4.93-3.87-4.93C430.9,304.72,429.6,307.12,429.6,309.78z"/>
	<path d="M195.96,368.09h-4.72v4.38h5.26v1.31h-6.82v-12.14h6.55v1.31h-4.99v3.83h4.72V368.09z"/>
	<path d="M208.76,368.45c-0.09-1.69-0.2-3.73-0.18-5.24h-0.05c-0.41,1.42-0.92,2.94-1.53,4.61l-2.14,5.89h-1.19l-1.96-5.78
		c-0.58-1.71-1.06-3.28-1.4-4.72h-0.04c-0.04,1.51-0.13,3.55-0.23,5.37l-0.32,5.2h-1.49l0.85-12.14h2l2.07,5.87
		c0.5,1.49,0.92,2.83,1.22,4.09h0.05c0.31-1.22,0.74-2.56,1.28-4.09l2.16-5.87h2l0.76,12.14h-1.53L208.76,368.45z"/>
	<path d="M223.37,367.59c0,4.18-2.54,6.39-5.64,6.39c-3.21,0-5.46-2.49-5.46-6.16c0-3.85,2.39-6.37,5.64-6.37
		C221.23,361.45,223.37,363.99,223.37,367.59z M213.95,367.78c0,2.59,1.4,4.92,3.87,4.92c2.48,0,3.89-2.29,3.89-5.04
		c0-2.41-1.26-4.93-3.87-4.93C215.25,362.72,213.95,365.12,213.95,367.78z"/>
	<path d="M248.3,361.81c0.95-0.14,2.09-0.25,3.33-0.25c2.25,0,3.85,0.52,4.92,1.51c1.08,0.99,1.71,2.39,1.71,4.36
		c0,1.98-0.61,3.6-1.75,4.72c-1.13,1.13-3.01,1.75-5.37,1.75c-1.12,0-2.05-0.05-2.84-0.14V361.81z M249.86,372.54
		c0.4,0.07,0.97,0.09,1.58,0.09c3.35,0,5.17-1.87,5.17-5.15c0.02-2.86-1.6-4.68-4.92-4.68c-0.81,0-1.42,0.07-1.84,0.16V372.54z"/>
	<path d="M266.57,368.09h-4.72v4.38h5.26v1.31h-6.82v-12.14h6.55v1.31h-4.99v3.83h4.72V368.09z"/>
	<path d="M279.37,368.45c-0.09-1.69-0.2-3.73-0.18-5.24h-0.05c-0.41,1.42-0.92,2.94-1.53,4.61l-2.14,5.89h-1.19l-1.96-5.78
		c-0.58-1.71-1.06-3.28-1.4-4.72h-0.04c-0.04,1.51-0.13,3.55-0.23,5.37l-0.32,5.2h-1.49l0.85-12.14h2l2.07,5.87
		c0.5,1.49,0.92,2.83,1.22,4.09h0.05c0.31-1.22,0.74-2.56,1.28-4.09l2.16-5.87h2l0.76,12.14h-1.53L279.37,368.45z"/>
	<path d="M293.98,367.59c0,4.18-2.54,6.39-5.64,6.39c-3.21,0-5.46-2.49-5.46-6.16c0-3.85,2.4-6.37,5.64-6.37
		C291.84,361.45,293.98,363.99,293.98,367.59z M284.57,367.78c0,2.59,1.4,4.92,3.87,4.92c2.48,0,3.89-2.29,3.89-5.04
		c0-2.41-1.26-4.93-3.87-4.93C285.86,362.72,284.57,365.12,284.57,367.78z"/>
	<path d="M318.91,361.81c0.95-0.14,2.09-0.25,3.33-0.25c2.25,0,3.85,0.52,4.92,1.51c1.08,0.99,1.71,2.39,1.71,4.36
		c0,1.98-0.61,3.6-1.75,4.72c-1.13,1.13-3.01,1.75-5.37,1.75c-1.12,0-2.05-0.05-2.84-0.14V361.81z M320.48,372.54
		c0.4,0.07,0.97,0.09,1.58,0.09c3.35,0,5.17-1.87,5.17-5.15c0.02-2.86-1.6-4.68-4.92-4.68c-0.81,0-1.42,0.07-1.84,0.16V372.54z"/>
	<path d="M337.18,368.09h-4.72v4.38h5.26v1.31h-6.82v-12.14h6.55v1.31h-4.99v3.83h4.72V368.09z"/>
	<path d="M349.98,368.45c-0.09-1.69-0.2-3.73-0.18-5.24h-0.05c-0.41,1.42-0.92,2.94-1.53,4.61l-2.14,5.89h-1.19l-1.96-5.78
		c-0.58-1.71-1.06-3.28-1.4-4.72h-0.04c-0.04,1.51-0.13,3.55-0.23,5.37l-0.32,5.2h-1.5l0.85-12.14h2l2.07,5.87
		c0.5,1.49,0.92,2.83,1.22,4.09h0.05c0.31-1.22,0.74-2.56,1.28-4.09l2.16-5.87h2l0.76,12.14h-1.53L349.98,368.45z"/>
	<path d="M364.59,367.59c0,4.18-2.54,6.39-5.64,6.39c-3.21,0-5.46-2.49-5.46-6.16c0-3.85,2.39-6.37,5.64-6.37
		C362.45,361.45,364.59,363.99,364.59,367.59z M355.18,367.78c0,2.59,1.41,4.92,3.87,4.92c2.49,0,3.89-2.29,3.89-5.04
		c0-2.41-1.26-4.93-3.87-4.93C356.47,362.72,355.18,365.12,355.18,367.78z"/>
	<path d="M393.33,361.81c0.95-0.14,2.09-0.25,3.33-0.25c2.25,0,3.85,0.52,4.92,1.51c1.08,0.99,1.71,2.39,1.71,4.36
		c0,1.98-0.61,3.6-1.75,4.72c-1.13,1.13-3.01,1.75-5.37,1.75c-1.12,0-2.05-0.05-2.84-0.14V361.81z M394.9,372.54
		c0.4,0.07,0.97,0.09,1.58,0.09c3.35,0,5.17-1.87,5.17-5.15c0.02-2.86-1.6-4.68-4.92-4.68c-0.81,0-1.42,0.07-1.84,0.16V372.54z"/>
	<path d="M411.61,368.09h-4.72v4.38h5.26v1.31h-6.82v-12.14h6.55v1.31h-4.99v3.83h4.72V368.09z"/>
	<path d="M424.4,368.45c-0.09-1.69-0.2-3.73-0.18-5.24h-0.05c-0.41,1.42-0.92,2.94-1.53,4.61l-2.14,5.89h-1.19l-1.96-5.78
		c-0.58-1.71-1.06-3.28-1.4-4.72h-0.04c-0.04,1.51-0.13,3.55-0.23,5.37l-0.32,5.2h-1.5l0.85-12.14h2l2.07,5.87
		c0.5,1.49,0.92,2.83,1.22,4.09h0.05c0.31-1.22,0.74-2.56,1.28-4.09l2.16-5.87h2l0.76,12.14h-1.53L424.4,368.45z"/>
	<path d="M248.3,419.81c0.95-0.14,2.09-0.25,3.33-0.25c2.25,0,3.85,0.52,4.92,1.51c1.08,0.99,1.71,2.39,1.71,4.36
		c0,1.98-0.61,3.6-1.75,4.72c-1.13,1.13-3.01,1.75-5.37,1.75c-1.12,0-2.05-0.05-2.84-0.14V419.81z M249.86,430.54
		c0.4,0.07,0.97,0.09,1.58,0.09c3.35,0,5.17-1.87,5.17-5.15c0.02-2.86-1.6-4.68-4.92-4.68c-0.81,0-1.42,0.07-1.84,0.16V430.54z"/>
	<path d="M266.57,426.09h-4.72v4.38h5.26v1.31h-6.82v-12.14h6.55v1.31h-4.99v3.83h4.72V426.09z"/>
	<path d="M279.37,426.45c-0.09-1.69-0.2-3.73-0.18-5.24h-0.05c-0.41,1.42-0.92,2.94-1.53,4.61l-2.14,5.89h-1.19l-1.96-5.78
		c-0.58-1.71-1.06-3.28-1.4-4.72h-0.04c-0.04,1.51-0.13,3.55-0.23,5.37l-0.32,5.2h-1.49l0.85-12.14h2l2.07,5.87
		c0.5,1.49,0.92,2.83,1.22,4.09h0.05c0.31-1.22,0.74-2.56,1.28-4.09l2.16-5.87h2l0.76,12.14h-1.53L279.37,426.45z"/>
	<path d="M293.98,425.59c0,4.18-2.54,6.39-5.64,6.39c-3.21,0-5.46-2.49-5.46-6.16c0-3.85,2.4-6.37,5.64-6.37
		C291.84,419.45,293.98,421.99,293.98,425.59z M284.57,425.78c0,2.59,1.4,4.92,3.87,4.92c2.48,0,3.89-2.29,3.89-5.04
		c0-2.41-1.26-4.93-3.87-4.93C285.86,420.72,284.57,423.12,284.57,425.78z"/>
	<path d="M318.91,419.81c0.95-0.14,2.09-0.25,3.33-0.25c2.25,0,3.85,0.52,4.92,1.51c1.08,0.99,1.71,2.39,1.71,4.36
		c0,1.98-0.61,3.6-1.75,4.72c-1.13,1.13-3.01,1.75-5.37,1.75c-1.12,0-2.05-0.05-2.84-0.14V419.81z M320.48,430.54
		c0.4,0.07,0.97,0.09,1.58,0.09c3.35,0,5.17-1.87,5.17-5.15c0.02-2.86-1.6-4.68-4.92-4.68c-0.81,0-1.42,0.07-1.84,0.16V430.54z"/>
	<path d="M337.18,426.09h-4.72v4.38h5.26v1.31h-6.82v-12.14h6.55v1.31h-4.99v3.83h4.72V426.09z"/>
	<path d="M349.98,426.45c-0.09-1.69-0.2-3.73-0.18-5.24h-0.05c-0.41,1.42-0.92,2.94-1.53,4.61l-2.14,5.89h-1.19l-1.96-5.78
		c-0.58-1.71-1.06-3.28-1.4-4.72h-0.04c-0.04,1.51-0.13,3.55-0.23,5.37l-0.32,5.2h-1.5l0.85-12.14h2l2.07,5.87
		c0.5,1.49,0.92,2.83,1.22,4.09h0.05c0.31-1.22,0.74-2.56,1.28-4.09l2.16-5.87h2l0.76,12.14h-1.53L349.98,426.45z"/>
	<path d="M364.59,425.59c0,4.18-2.54,6.39-5.64,6.39c-3.21,0-5.46-2.49-5.46-6.16c0-3.85,2.39-6.37,5.64-6.37
		C362.45,419.45,364.59,421.99,364.59,425.59z M355.18,425.78c0,2.59,1.41,4.92,3.87,4.92c2.49,0,3.89-2.29,3.89-5.04
		c0-2.41-1.26-4.93-3.87-4.93C356.47,420.72,355.18,423.12,355.18,425.78z"/>
</g>
</svg>
