<svg xmlns="http://www.w3.org/2000/svg" viewBox="0 0 133.24 37.13"><title>logo-footer</title><path d="M30,28.81a8.09,8.09,0,0,0-1.67,1q-0.81.61-1.63,1.33L25,32.63q-0.89.8-1.92,1.58a22.53,22.53,0,0,1-2.24,1.49A16.4,16.4,0,0,1,18.17,37a19.39,19.39,0,0,1-3.23.85,22.24,22.24,0,0,1-3.91.32,9.39,9.39,0,0,1-4.28-1A10.08,10.08,0,0,1,3.5,34.58,11.73,11.73,0,0,1,1.41,30.8a14,14,0,0,1-.73-4.53A18.7,18.7,0,0,1,1,22.8,27.38,27.38,0,0,1,2,19a32,32,0,0,1,1.61-3.84,30.2,30.2,0,0,1,2.15-3.67A25.59,25.59,0,0,1,8.45,8.25a19.48,19.48,0,0,1,3.07-2.62A14.66,14.66,0,0,1,15,3.88a11.31,11.31,0,0,1,3.76-.63,7.83,7.83,0,0,1,2.56.45,6.77,6.77,0,0,1,2.34,1.38,7.16,7.16,0,0,1,1.7,2.36A7.93,7.93,0,0,1,26,10.79a8.82,8.82,0,0,1-.41,2.63A12.07,12.07,0,0,1,24.44,16a13.91,13.91,0,0,1-1.7,2.29,12.46,12.46,0,0,1-2.1,1.85,10.68,10.68,0,0,1-2.34,1.24,6.83,6.83,0,0,1-2.42.46,5.15,5.15,0,0,1-2.39-.43,1.35,1.35,0,0,1-.79-1.24q0-.14,0-0.33t0-.4a6.47,6.47,0,0,1,0-.66,2.5,2.5,0,0,1,.14-0.62,1.11,1.11,0,0,1,.31-0.46,0.81,0.81,0,0,1,.55-0.18,1,1,0,0,1,.37.06l0.35,0.13a3.85,3.85,0,0,0,.47.13,3.24,3.24,0,0,0,.69.06,5.76,5.76,0,0,0,2.28-.49A6.79,6.79,0,0,0,19.95,16a7.34,7.34,0,0,0,1.51-2.14A6.29,6.29,0,0,0,22,11.12a5.28,5.28,0,0,0-.21-1.5,3.25,3.25,0,0,0-.69-1.25,3.43,3.43,0,0,0-1.22-.86,4.55,4.55,0,0,0-1.82-.33,5.85,5.85,0,0,0-2.47.55,9.93,9.93,0,0,0-2.31,1.5,14.65,14.65,0,0,0-2.1,2.25A24.56,24.56,0,0,0,9.4,14.28a29.12,29.12,0,0,0-1.52,3.09,30.91,30.91,0,0,0-1.15,3.21A26.39,26.39,0,0,0,6,23.68a16.65,16.65,0,0,0-.25,2.77,10,10,0,0,0,.45,3.16,6.1,6.1,0,0,0,1.27,2.24,5.09,5.09,0,0,0,2,1.34,7.74,7.74,0,0,0,2.69.44,12.42,12.42,0,0,0,3.47-.47,16.81,16.81,0,0,0,3.07-1.22,25.22,25.22,0,0,0,2.82-1.71l2.72-1.91q1.36-1,2.78-1.83A17.53,17.53,0,0,1,30,25v3.78Z" transform="translate(-0.68 -1)" fill="#fff"/><path d="M44.92,30.44a16.45,16.45,0,0,1-1.08,1.32,13.27,13.27,0,0,1-1.52,1.44,9.51,9.51,0,0,1-1.81,1.16,4.35,4.35,0,0,1-1.93.47,2.67,2.67,0,0,1-1.93-.75,6.1,6.1,0,0,1-1.34-2.17,8.49,8.49,0,0,1-1,1,9.25,9.25,0,0,1-1.34.92,8.59,8.59,0,0,1-1.52.68,5,5,0,0,1-1.58.26,4.13,4.13,0,0,1-1.64-.34,4.28,4.28,0,0,1-1.41-1,4.81,4.81,0,0,1-1-1.56,5.58,5.58,0,0,1-.37-2.08,10.54,10.54,0,0,1,.37-2.71,14.84,14.84,0,0,1,1-2.72,15.4,15.4,0,0,1,1.54-2.5,12.26,12.26,0,0,1,1.94-2.06,9.46,9.46,0,0,1,2.22-1.4,5.82,5.82,0,0,1,2.38-.52,1.1,1.1,0,0,1,.63.16,1.6,1.6,0,0,1,.38.36l0.29,0.4a0.82,0.82,0,0,0,.35.28,1.61,1.61,0,0,0,.43.11l0.45,0h0.79a2.19,2.19,0,0,1,.49.05,0.83,0.83,0,0,1,.4.23,1.16,1.16,0,0,1,.27.49,3.08,3.08,0,0,1,.1.86,11.25,11.25,0,0,1-.18,1.87q-0.18,1-.39,2.11T38.53,27a12.78,12.78,0,0,0-.18,2,4.4,4.4,0,0,0,.15,1.29,0.61,0.61,0,0,0,.64.47,1.86,1.86,0,0,0,.77-0.18,4.79,4.79,0,0,0,.82-0.48,9.32,9.32,0,0,0,.83-0.68q0.41-.38.78-0.78a27.06,27.06,0,0,0,1.74-2.14Zm-15-1.39a5.78,5.78,0,0,0,.06.85,2.53,2.53,0,0,0,.22.74,1.45,1.45,0,0,0,.42.53,1.07,1.07,0,0,0,.67.2,1.58,1.58,0,0,0,1.18-.56,5.48,5.48,0,0,0,.91-1.35A9.68,9.68,0,0,0,34,27.82a10,10,0,0,0,.31-1.41l1.07-5.17a3,3,0,0,0-1.41.36,5.24,5.24,0,0,0-1.29,1A8.73,8.73,0,0,0,31.57,24a11,11,0,0,0-.88,1.66,10.45,10.45,0,0,0-.57,1.75A7.39,7.39,0,0,0,29.92,29.05Z" transform="translate(-0.68 -1)" fill="#fff"/><path d="M42.29,28q1-.84,1.6-1.41t1.05-1a11.56,11.56,0,0,0,.8-0.94l0.85-1.12,1.19-1.59q0.7-.94,1.83-2.35a6.16,6.16,0,0,1,.51-0.62,3.89,3.89,0,0,1,.62-0.54A3.28,3.28,0,0,1,51.5,18a2.7,2.7,0,0,1,.92-0.15,3.6,3.6,0,0,1,1.3.18,1.61,1.61,0,0,1,.67.45,1.09,1.09,0,0,1,.25.55,4.25,4.25,0,0,1,0,.5,1.74,1.74,0,0,1-.33.93,9.79,9.79,0,0,1-.74,1l-0.76.87a1.82,1.82,0,0,0-.41.59,5.74,5.74,0,0,0,.08,1,7.38,7.38,0,0,0,.21.88L53,25.72q0.14,0.48.27,1.12a13.56,13.56,0,0,1,.21,1.46q0.08,0.83.08,2a10.5,10.5,0,0,1,1.36-.76l1.52-.71q0.79-.37,1.63-0.82a13.29,13.29,0,0,0,1.68-1.08l0,3.94a16.35,16.35,0,0,1-2.52,1.58,24.7,24.7,0,0,1-3,1.3,22.92,22.92,0,0,1-3.18.89,15.4,15.4,0,0,1-3,.33,9.16,9.16,0,0,1-1.93-.19,5,5,0,0,1-1.57-.61A3.34,3.34,0,0,1,43.4,33a3.6,3.6,0,0,1-.51-1.62,3.57,3.57,0,0,1-.48.07l-0.47,0-0.53,0A0.87,0.87,0,0,1,41,31.35,0.78,0.78,0,0,1,40.71,31a2,2,0,0,1-.11-0.73,1.52,1.52,0,0,1,.21-0.78,3.16,3.16,0,0,1,.49-0.64,5.28,5.28,0,0,1,.56-0.49Zm2.25,2.25a0.7,0.7,0,0,1,.47.26l0.59,0.58a4.42,4.42,0,0,0,.77.58,1.91,1.91,0,0,0,1,.26,2.49,2.49,0,0,0,1.13-.23,1.9,1.9,0,0,0,.71-0.61,2.37,2.37,0,0,0,.37-0.88,5.07,5.07,0,0,0,.11-1,7.79,7.79,0,0,0-.06-1q-0.06-.49-0.16-0.94t-0.21-.84l-0.2-.68Z" transform="translate(-0.68 -1)" fill="#fff"/><path d="M63.48,34.75a6.38,6.38,0,0,1-2.84-.6,6.07,6.07,0,0,1-2-1.6,6.92,6.92,0,0,1-1.25-2.32,9,9,0,0,1-.42-2.74,11.37,11.37,0,0,1,.21-2.13,12.34,12.34,0,0,1,.62-2.17,11.93,11.93,0,0,1,1-2,8.12,8.12,0,0,1,1.41-1.7A6.5,6.5,0,0,1,62,18.3a5.33,5.33,0,0,1,2.16-.43,5.42,5.42,0,0,1,1.85.31,4.38,4.38,0,0,1,1.46.85,3.92,3.92,0,0,1,.95,1.29,3.81,3.81,0,0,1,.34,1.61,4.46,4.46,0,0,1-.16,1.18,3.6,3.6,0,0,1-.46,1,2.53,2.53,0,0,1-.75.75,1.79,1.79,0,0,1-1,.28,1.15,1.15,0,0,1-1.08-.44A2.43,2.43,0,0,1,65,23.53q0-.32,0-0.67t0-.63a2.39,2.39,0,0,0-.09-0.7,0.37,0.37,0,0,0-.39-0.28,2.15,2.15,0,0,0-1.23.34,3.09,3.09,0,0,0-.87.9,4.87,4.87,0,0,0-.57,1.25,12.1,12.1,0,0,0-.33,1.38,10.89,10.89,0,0,0-.16,1.31q0,0.62,0,1a8,8,0,0,0,.11,1.32A3.9,3.9,0,0,0,62,30a2.78,2.78,0,0,0,.86.95,2.41,2.41,0,0,0,1.41.38,4.16,4.16,0,0,0,1.86-.52,13.15,13.15,0,0,0,2-1.31,18.83,18.83,0,0,0,2-1.74A22.77,22.77,0,0,0,71.7,26l1.21,2a23,23,0,0,1-2.85,3.36,17.31,17.31,0,0,1-1.41,1.23,12.45,12.45,0,0,1-1.6,1.06,9.54,9.54,0,0,1-1.74.76A6,6,0,0,1,63.48,34.75Z" transform="translate(-0.68 -1)" fill="#fff"/><path d="M89.36,30.44a16.54,16.54,0,0,1-1.08,1.32,13.25,13.25,0,0,1-1.52,1.44,9.47,9.47,0,0,1-1.81,1.16,4.35,4.35,0,0,1-1.93.47,2.67,2.67,0,0,1-1.93-.75,6.11,6.11,0,0,1-1.33-2.17,8.59,8.59,0,0,1-1,1,9.23,9.23,0,0,1-1.34.92,8.55,8.55,0,0,1-1.52.68,5,5,0,0,1-1.58.26,4.13,4.13,0,0,1-1.64-.34,4.27,4.27,0,0,1-1.41-1,4.81,4.81,0,0,1-1-1.56,5.57,5.57,0,0,1-.37-2.08,10.52,10.52,0,0,1,.37-2.71,14.8,14.8,0,0,1,1-2.72,15.37,15.37,0,0,1,1.54-2.5,12.24,12.24,0,0,1,1.94-2.06,9.44,9.44,0,0,1,2.22-1.4,5.81,5.81,0,0,1,2.38-.52,1.1,1.1,0,0,1,.63.16,1.59,1.59,0,0,1,.38.36l0.29,0.4a0.82,0.82,0,0,0,.35.28,1.62,1.62,0,0,0,.43.11l0.45,0h0.79a2.18,2.18,0,0,1,.49.05,0.83,0.83,0,0,1,.4.23,1.16,1.16,0,0,1,.27.49,3.06,3.06,0,0,1,.1.86,11.19,11.19,0,0,1-.18,1.87q-0.18,1-.39,2.11T83,27a12.78,12.78,0,0,0-.17,2,4.41,4.41,0,0,0,.15,1.29,0.62,0.62,0,0,0,.64.47,1.86,1.86,0,0,0,.77-0.18,4.84,4.84,0,0,0,.82-0.48A9.32,9.32,0,0,0,86,29.46c0.27-.25.54-0.51,0.78-0.78a26.73,26.73,0,0,0,1.74-2.14Zm-15-1.39a5.78,5.78,0,0,0,.06.85,2.53,2.53,0,0,0,.22.74,1.45,1.45,0,0,0,.42.53,1.06,1.06,0,0,0,.67.2,1.59,1.59,0,0,0,1.18-.56,5.51,5.51,0,0,0,.91-1.35,9.68,9.68,0,0,0,.62-1.63,10,10,0,0,0,.31-1.41l1.07-5.17a3,3,0,0,0-1.41.36,5.22,5.22,0,0,0-1.29,1A8.73,8.73,0,0,0,76,24a10.88,10.88,0,0,0-.88,1.66,10.5,10.5,0,0,0-.57,1.75A7.39,7.39,0,0,0,74.35,29.05Z" transform="translate(-0.68 -1)" fill="#fff"/><path d="M107.1,31.3A29.7,29.7,0,0,1,104.64,33q-0.51.32-1.07,0.62t-1.11.54a8.7,8.7,0,0,1-1.06.39,3.48,3.48,0,0,1-1,.15,3.76,3.76,0,0,1-.73-0.11,3.8,3.8,0,0,1-1.05-.43,4.9,4.9,0,0,1-1.14-.94,5.43,5.43,0,0,1-1-1.63,17.21,17.21,0,0,1-1.38,1.2,10.65,10.65,0,0,1-1.51,1,9.2,9.2,0,0,1-1.58.68,5.26,5.26,0,0,1-1.61.25,3.82,3.82,0,0,1-2-.49,4.29,4.29,0,0,1-1.39-1.31,6,6,0,0,1-.83-1.85A8.4,8.4,0,0,1,86,28.95a9.29,9.29,0,0,1,.29-2.28,10.52,10.52,0,0,1,.84-2.23,11.25,11.25,0,0,1,1.34-2,10.33,10.33,0,0,1,1.79-1.71,10.22,10.22,0,0,1,2.18-1.24,8.49,8.49,0,0,1,2.51-.62,33,33,0,0,1,.4-4.45,34.18,34.18,0,0,1,.93-4.18,26.18,26.18,0,0,1,1.36-3.67,16,16,0,0,1,1.71-2.92,8.18,8.18,0,0,1,2-1.92A3.91,3.91,0,0,1,103.52,1a2.29,2.29,0,0,1,1.41.43,3.18,3.18,0,0,1,.94,1.14,5.76,5.76,0,0,1,.52,1.65,11.69,11.69,0,0,1,.16,1.94q0,0.62-.05,1.27a26.46,26.46,0,0,1-.84,4.68,43.76,43.76,0,0,1-1.44,4.3q-0.83,2.09-1.79,4.15t-1.88,4.27q-0.09.25-.18,0.6t-0.17.76q-0.08.41-.13,0.84a6.87,6.87,0,0,0-.05.83,7.25,7.25,0,0,0,.06,1,3.55,3.55,0,0,0,.2.82,1.46,1.46,0,0,0,.38.57,0.85,0.85,0,0,0,.59.21,2.32,2.32,0,0,0,.73-0.13,5.79,5.79,0,0,0,.83-0.36q0.44-.23.89-0.52l0.87-.59q1-.7,2-1.6ZM95,21.46a7.37,7.37,0,0,0-2.06,1.49,9.54,9.54,0,0,0-1.51,2,10.13,10.13,0,0,0-.92,2.16,7.13,7.13,0,0,0-.32,2,3.19,3.19,0,0,0,.08.7,1.64,1.64,0,0,0,.29.63,1.51,1.51,0,0,0,.6.46,2.43,2.43,0,0,0,1,.18,1.35,1.35,0,0,0,.62-0.16,2.75,2.75,0,0,0,.59-0.41,4.73,4.73,0,0,0,.54-0.58,6.6,6.6,0,0,0,.47-0.68,12.16,12.16,0,0,0,.9-1.83,5.85,5.85,0,0,1-.09-0.78q0-.54-0.05-1.2c0-.44,0-0.89,0-1.36s0-.9,0-1.28,0-.7,0-0.95A1.19,1.19,0,0,0,95,21.46Zm8.26-12.74q0.11-1.23.11-2a3.57,3.57,0,0,0-.17-1.32,0.53,0.53,0,0,0-.48-0.37,1.26,1.26,0,0,0-1,.71,7.66,7.66,0,0,0-.81,1.82,22.27,22.27,0,0,0-.62,2.44q-0.26,1.34-.44,2.58t-0.28,2.25q-0.11,1-.14,1.42-0.07.86-.11,1.66t-0.06,1.46q0,0.66,0,1.15v0.93q1-2.29,1.84-4.55,0.35-1,.71-2t0.66-2.14q0.3-1.07.52-2.11A17.42,17.42,0,0,0,103.27,8.71Z" transform="translate(-0.68 -1)" fill="#fff"/><path d="M116.8,31a15.66,15.66,0,0,1-1.57,1.24,16.73,16.73,0,0,1-2,1.21,15.48,15.48,0,0,1-2.22.92,7,7,0,0,1-2.15.37,4.08,4.08,0,0,1-1.54-.25,2.56,2.56,0,0,1-1-.71,2.74,2.74,0,0,1-.55-1.12,5.9,5.9,0,0,1-.17-1.45,15.29,15.29,0,0,1,.25-2.58q0.25-1.47.62-3t0.78-3.14q0.41-1.56.73-2.88a1.57,1.57,0,0,1,.49-0.78,3.13,3.13,0,0,1,.83-0.53,4.62,4.62,0,0,1,1-.3,4.8,4.8,0,0,1,.9-0.1,1.39,1.39,0,0,1,1,.27,1,1,0,0,1,.26.73,5.23,5.23,0,0,1-.17,1.12q-0.18.73-.44,1.65l-0.56,2q-0.3,1.06-.56,2.13t-0.44,2.07a10.72,10.72,0,0,0-.18,1.82,3.65,3.65,0,0,0,.18,1.26,0.69,0.69,0,0,0,.72.47,2.89,2.89,0,0,0,1.41-.44,12.54,12.54,0,0,0,1.56-1.06q0.79-.62,1.55-1.29t1.33-1.14V31Zm-7.85-18.07a3,3,0,0,1,.75-1.87,3.17,3.17,0,0,1,1.05-.76,3.88,3.88,0,0,1,1.64-.31,4.63,4.63,0,0,1,1.16.14,2.82,2.82,0,0,1,.95.43,2.05,2.05,0,0,1,.64.76,2.49,2.49,0,0,1,.24,1.13,3.54,3.54,0,0,1-.19,1.16,2.7,2.7,0,0,1-.62,1,3.16,3.16,0,0,1-1.06.71,3.92,3.92,0,0,1-1.54.27,3.14,3.14,0,0,1-2.28-.73A2.61,2.61,0,0,1,108.94,12.93Z" transform="translate(-0.68 -1)" fill="#fff"/><path d="M133.93,30.44a16.54,16.54,0,0,1-1.08,1.32,13.25,13.25,0,0,1-1.52,1.44,9.47,9.47,0,0,1-1.81,1.16,4.35,4.35,0,0,1-1.93.47,2.67,2.67,0,0,1-1.93-.75,6.11,6.11,0,0,1-1.33-2.17,8.59,8.59,0,0,1-1,1,9.23,9.23,0,0,1-1.34.92,8.55,8.55,0,0,1-1.52.68,5,5,0,0,1-1.58.26,4.13,4.13,0,0,1-1.64-.34,4.27,4.27,0,0,1-1.41-1,4.81,4.81,0,0,1-1-1.56,5.57,5.57,0,0,1-.37-2.08,10.52,10.52,0,0,1,.37-2.71,14.8,14.8,0,0,1,1-2.72,15.37,15.37,0,0,1,1.54-2.5,12.24,12.24,0,0,1,1.94-2.06,9.44,9.44,0,0,1,2.22-1.4,5.81,5.81,0,0,1,2.38-.52,1.1,1.1,0,0,1,.63.16,1.59,1.59,0,0,1,.38.36l0.29,0.4a0.82,0.82,0,0,0,.35.28,1.62,1.62,0,0,0,.43.11l0.45,0h0.79a2.18,2.18,0,0,1,.49.05,0.83,0.83,0,0,1,.4.23,1.16,1.16,0,0,1,.27.49,3.06,3.06,0,0,1,.1.86,11.19,11.19,0,0,1-.18,1.87q-0.18,1-.39,2.11T127.53,27a12.78,12.78,0,0,0-.17,2,4.41,4.41,0,0,0,.15,1.29,0.62,0.62,0,0,0,.64.47,1.86,1.86,0,0,0,.77-0.18,4.84,4.84,0,0,0,.82-0.48,9.32,9.32,0,0,0,.83-0.68c0.27-.25.54-0.51,0.78-0.78a26.73,26.73,0,0,0,1.74-2.14Zm-15-1.39a5.78,5.78,0,0,0,.06.85,2.53,2.53,0,0,0,.22.74,1.45,1.45,0,0,0,.42.53,1.06,1.06,0,0,0,.67.2,1.59,1.59,0,0,0,1.18-.56,5.51,5.51,0,0,0,.91-1.35,9.69,9.69,0,0,0,.62-1.63,10,10,0,0,0,.31-1.41l1.07-5.17a3,3,0,0,0-1.41.36,5.22,5.22,0,0,0-1.29,1A8.73,8.73,0,0,0,120.58,24a10.88,10.88,0,0,0-.88,1.66,10.5,10.5,0,0,0-.57,1.75A7.39,7.39,0,0,0,118.92,29.05Z" transform="translate(-0.68 -1)" fill="#fff"/></svg>