<?xml version="1.0" encoding="iso-8859-1"?>
<!-- Generator: Adobe Illustrator 16.0.0, SVG Export Plug-In . SVG Version: 6.00 Build 0)  -->
<!DOCTYPE svg PUBLIC "-//W3C//DTD SVG 1.1//EN" "http://www.w3.org/Graphics/SVG/1.1/DTD/svg11.dtd">
<svg xmlns="http://www.w3.org/2000/svg" xmlns:xlink="http://www.w3.org/1999/xlink" version="1.1" id="Capa_1" x="0px" y="0px" width="512px" height="512px" viewBox="0 0 189.181 189.181" style="enable-background:new 0 0 189.181 189.181;" xml:space="preserve">
<g>
	<g>
		<path d="M188.615,123c-0.547-22.739-0.114-45.467-1.262-68.188c0.354-0.256,0.609-0.658,0.498-1.233    c-1.398-7.161-11.139-12.911-16.515-16.94c-8.967-6.72-18.488-12.723-27.787-18.979c0.09-0.262,0.213-0.493,0.214-0.834    c0.005-1.263-1.817-1.827-2.431-0.658c-0.323,0.617-0.744,1.175-1.111,1.765c-0.058,0.049-0.122,0.102-0.165,0.143    c-0.895,0.872-1.701,1.807-2.471,2.791c-0.803,1.028-1.473,2.131-2.072,3.272c-0.574,0.638-1.164,1.26-1.777,1.861    c-4.361-14.98-16.778-25.501-34.311-25.192c-8.181,0.145-15.359,3.48-21.154,8.588c-0.143,0.017-0.273,0.129-0.294,0.267    c-8.672,7.798-14.154,19.608-14.933,30.816c-0.599,8.622,1.626,17.21,5.492,25.347c-3.385,3.535-6.702,7.131-10.04,10.71    C55.042,80.24,40.449,66.42,37.859,64.438C26.152,55.471,14.534,46.561,1.766,39.134c-0.008-0.068-0.011-0.136-0.019-0.205    c-0.071-0.589-0.95-0.627-0.948,0c0,0.094-0.001,0.188-0.001,0.282c-0.2,0.241-0.22,0.569-0.002,0.845    c0.103,38.55-1.841,77.313,0.001,115.815c0.073,1.525,2.441,1.535,2.376,0c0-0.004,0-0.007,0-0.011    c1.269,2.143,7.481,6.922,7.471,6.914c4.999,3.836,10.037,7.608,15.172,11.261c8.179,5.819,17.779,12.665,27.915,14.326    c0.584,0.096,0.962-0.193,1.187-0.564c0.137,0.153,0.31,0.227,0.524,0.235c0.682,0.622,1.985,0.42,1.985-0.788    c0-0.07,0-0.14,0-0.211c12.56-7.41,24.371-15.943,36.497-24.033c14.597-9.741,30.904-16.385,45.712-25.751    c14.628,14.163,30.719,26.553,42.246,43.579c1.002,1.479,3.044,0.294,2.48-1.281c0.372-0.509,0.758-1.039,1.142-1.591    c0.514-0.043,0.98-0.355,1.123-1.025c0.129-0.608,0.208-1.223,0.326-1.832c0.025-0.099,0.088-0.199,0.106-0.297    c0.013-0.068-0.018-0.146-0.015-0.22C190.224,157.623,189.027,140.179,188.615,123z M54.93,186.628    c-0.133-0.198-0.291-0.39-0.582-0.499c-19.287-7.172-33.266-20.964-50.874-30.659c0.01-0.002,0.014-0.005,0.023-0.007    c0.401-0.104,0.226-0.675-0.168-0.608c-0.084,0.014-0.12,0.056-0.176,0.086C1.666,117.04,6.16,78.649,1.93,40.918    c18.697,12.251,35.449,27.105,53.579,40.143C54.758,116.244,54.92,151.438,54.93,186.628z M115.696,7.072    c7.084,3.088,11.477,7.7,13.976,13.139c-2.201-2.035-4.814-3.772-7.149-5.548c-3.774-2.869-7.424-5.872-11.061-8.911    c-0.52-0.435-1.268,0.282-0.755,0.755c3.167,2.919,6.579,5.551,9.924,8.259c3.353,2.713,6.475,5.988,10.102,8.31    c0.021,0.014,0.04,0.001,0.062,0.013c0.181,0.551,0.374,1.096,0.521,1.66c-0.671-0.45-1.355-0.872-1.926-1.277    c-3.157-2.242-6.358-4.423-9.524-6.652c-3.169-2.231-6.29-4.532-9.254-7.03c-1.222-1.03-4.687-3.572-4.985-5.504    C108.873,4.674,112.237,5.565,115.696,7.072z M105.18,4.239c-0.955,4.22,6.942,8.95,9.604,11.015    c3.299,2.56,6.698,4.996,10.111,7.401c2.073,1.461,4.56,3.895,7.028,5.051c0.33,2.091,0.523,4.228,0.487,6.427    c-10.897-11.037-22.313-22.991-36.466-29.51C98.882,4.043,101.974,3.9,105.18,4.239z M112.923,35.165    c0.335,0.209,0.645,0.46,0.973,0.681c-0.346,1.06-0.747,2.1-1.256,3.084c-0.14-0.143-0.291-0.269-0.428-0.414    c-0.521-0.556-1.325,0.266-0.83,0.83c0.214,0.241,0.462,0.44,0.68,0.674c-2.024,3.353-5.057,6.023-8.962,7.165    c-20.209,5.915-22.384-25.952-7.69-31.418c0.087-0.004,0.161-0.036,0.224-0.096c2.136-0.745,4.617-0.939,7.443-0.391    c0.333,0.065,0.542-0.099,0.654-0.311c1.85,0.247,3.655,0.694,5.493,1.848c3.756,2.359,5.28,7.096,5.632,11.263    c0.183,2.178-0.065,4.386-0.611,6.516c-0.243-0.148-0.474-0.317-0.72-0.458C112.856,33.756,112.275,34.76,112.923,35.165z     M101.23,50.443c0.16-0.009,0.309-0.042,0.467-0.055c-0.005,0.212-0.026,0.397,0.016,0.692c0.018,0.119,0.211,0.088,0.207-0.028    c-0.065-1.987,3.062,1.808,3.425,2.229c1.185,1.381,2.288,2.829,3.445,4.232c3.206,3.887,9.147,6.364,13.354,9.11    c0.146,0.096,0.296,0.1,0.438,0.076c-1.007,1.848-2.033,3.644-3.08,5.305c-7.72-7.42-15.775-14.558-23.604-21.881    C97.504,50.433,99.277,50.551,101.23,50.443z M112.034,58.368c-2.54-1.569-4.309-4.412-6.3-6.594    c-0.43-0.47-1.164-1.192-1.893-1.728c1.076-0.25,2.085-0.628,3.041-1.087c4.978,5.166,11.143,11.366,17.809,13.635    c-0.522,1.074-1.057,2.133-1.604,3.165c-0.033-0.075-0.029-0.158-0.103-0.223C119.73,62.627,115.729,60.651,112.034,58.368z     M115.813,55.262c-2.822-2.095-5.444-4.445-8.015-6.844c0.989-0.565,1.884-1.264,2.731-2.021c3.107,2.174,6.125,4.48,9.145,6.769    c2.239,1.697,4.473,3.622,6.998,4.91c-0.451,1.064-0.876,2.149-1.359,3.184C122.224,59.175,118.838,57.508,115.813,55.262z     M111.369,45.583c1.036-1.054,1.955-2.241,2.752-3.519c1.596,1.49,3.256,2.909,5.011,4.241c1.53,1.16,3.101,2.268,4.65,3.401    c1.233,0.902,3.566,2.235,4.717,3.674c-0.411,1.136-0.812,2.275-1.267,3.39C121.994,52.986,116.811,49.078,111.369,45.583z     M122.726,46.968c-2.782-1.904-5.527-3.828-8.033-6.053c0.598-1.09,1.091-2.238,1.53-3.407c2.88,2.26,5.545,4.863,8.281,7.233    c0.727,0.629,3.889,3.881,5.629,3.624c-0.277,0.963-0.562,1.926-0.878,2.881c-0.095-0.053-0.179-0.094-0.281-0.104    C127.102,49.493,124.366,48.091,122.726,46.968z M129.843,46.992c0.366-0.337-1.632-1.531-2.212-1.963    c-1.677-1.252-3.272-2.616-4.887-3.947c-1.983-1.637-3.981-3.342-6.086-4.872c0.412-1.298,0.705-2.618,0.917-3.939    c1.488,1.226,3.123,2.344,4.549,3.481c3.034,2.421,5.985,4.945,9.017,7.366c0.073,0.059,0.154,0.037,0.232,0.071    c-0.254,1.229-0.501,2.459-0.828,3.686C130.33,46.784,130.083,46.771,129.843,46.992z M123.797,35.208    c-1.944-1.441-3.946-3.193-6.058-4.573c0.043-0.488,0.138-0.978,0.147-1.463c0.043-2.438-0.499-4.973-1.5-7.344    c5.234,4.972,10.39,10.066,15.969,14.793c-0.113,1.568-0.333,3.149-0.607,4.734C129.228,39.162,126.477,37.192,123.797,35.208z     M94.839,4.867c3.458,1.991,6.703,4.202,9.769,6.6c-1.926-0.319-3.97-0.194-6.082,0.553c-2.159-2.268-4.976-4.014-7.394-6.056    C92.333,5.514,93.578,5.167,94.839,4.867z M90.015,6.397c2.325,2.217,4.865,4.357,7.414,6.341    c-0.043,0.08-0.099,0.153-0.131,0.239c-1.138,0.063-2.203,0.317-3.215,0.696c-2.247-2.019-4.592-3.897-6.732-6.035    C88.215,7.177,89.11,6.776,90.015,6.397z M86.584,8.061c1.924,2.219,4.081,4.312,6.422,6.094c-0.774,0.383-1.523,0.821-2.22,1.353    c-1.317-0.907-2.707-1.741-3.94-2.79c-1.084-0.921-2.143-1.869-3.212-2.804C84.583,9.239,85.575,8.633,86.584,8.061z     M82.964,10.433c1.229,1.164,2.44,2.346,3.681,3.499c0.869,0.807,1.914,1.787,3.045,2.496c-0.481,0.449-0.963,0.897-1.397,1.412    c-1.554-1.155-3.33-2.104-4.826-3.344c-0.917-0.76-1.783-1.58-2.614-2.435C81.524,11.472,82.253,10.965,82.964,10.433z     M76.749,16.236c1.985,2.251,4.526,4.484,7.114,5.324c0.458,0.149,0.79-0.467,0.461-0.792c-1.172-1.154-2.757-1.877-4.102-2.826    c-1.021-0.721-1.946-1.557-2.823-2.441c0.901-1.023,1.865-1.978,2.861-2.89c0.786,0.905,1.606,1.781,2.468,2.623    c1.276,1.245,2.935,2.826,4.686,3.687c-1.511,2.107-2.663,4.617-3.388,7.298c-1.69-1.371-3.632-2.459-5.343-3.821    c-1.394-1.109-2.666-2.357-3.881-3.658C75.417,17.875,76.071,17.044,76.749,16.236z M74.425,19.26    c1.315,1.493,2.7,2.917,4.188,4.247c1.524,1.363,3.24,2.903,5.132,3.729c-0.281,1.241-0.498,2.5-0.593,3.773    c-0.011-0.12-0.054-0.239-0.175-0.337c-3.449-2.805-6.991-5.567-10.516-8.299C73.067,21.299,73.731,20.269,74.425,19.26z     M72.035,23.117c3.273,2.945,6.417,6.329,10.232,8.475c0.401,0.226,0.844-0.122,0.883-0.496c-0.208,2.914,0.082,5.848,0.949,8.521    c-4.748-4.139-9.286-8.468-13.845-12.829C70.785,25.529,71.391,24.312,72.035,23.117z M69.901,27.579    c5.026,5.427,9.906,11.136,15.823,15.604c0.014,0.011,0.028,0,0.042,0.009c1.789,2.962,4.526,5.294,8.335,6.463    c7.698,8.164,15.607,16.839,24.488,23.763c-0.665,1.012-1.329,1.992-1.989,2.909c-0.248,0.344-0.582,0.754-0.856,1.116    c-0.361-1.38-1.205-2.804-2.241-4.226c0.956,0.691,1.891,1.423,2.863,2.086c0.784,0.534,1.72-0.686,1.011-1.311    c-16.092-14.211-31.843-29.4-48.812-42.587C68.95,30.104,69.402,28.83,69.901,27.579z M68.372,32.137    c5.961,5.534,11.83,11.377,17.772,17.187c-6.122-4.945-12.287-9.835-18.407-14.787C67.912,33.727,68.151,32.936,68.372,32.137z     M67.528,35.52c8.068,6.887,16.291,13.593,24.324,20.521c4.819,4.156,9.565,8.405,14.146,12.824    c2.624,2.531,7.376,6.34,8.539,10.155c-1.197,1.524-2.478,3.125-3.828,4.848C97.881,68.615,83.131,52.926,66.771,41.336    C66.874,39.373,67.161,37.437,67.528,35.52z M66.715,42.156C82.486,55.092,94.538,71.677,109.839,85    c-0.333,0.433-0.669,0.857-0.998,1.298C95.93,72.264,80.28,60.427,66.818,46.833C66.691,45.271,66.666,43.709,66.715,42.156z     M68.413,55.258c-0.702-2.294-1.161-4.623-1.437-6.957c12.659,13.539,25.933,28.364,40.888,39.299    c-0.965,1.346-1.892,2.72-2.714,4.111C96.877,77.294,81.896,65.208,68.413,55.258z M73.143,66.4    c-0.07-0.138-0.132-0.282-0.202-0.42c8.958,10.815,19.625,20.559,30.261,29.562c-0.344,0.789-0.647,1.579-0.879,2.367    C92.818,87.153,81.726,77.946,73.143,66.4z M101.855,99.981c-0.133,0.84-0.217,1.676-0.188,2.501    c-9.228-8.285-17.476-17.555-23.973-27.973C85.07,83.564,93.687,91.71,101.855,99.981z M71.445,62.861    c-0.77-1.663-1.508-3.344-2.169-5.071c-0.051-0.133-0.088-0.268-0.137-0.402c13.037,10.805,23.785,23.113,35.335,35.561    c-0.224,0.411-0.407,0.823-0.612,1.235C93.797,83.017,81.381,74.216,71.445,62.861z M138.431,134.465    c-0.104,0.038-0.205,0.051-0.312,0.116c-13.319,8.28-27.663,14.666-41.025,22.873c-13.676,8.399-26.429,18.316-39.665,27.4    c0.013-34.392,0.153-68.787-0.569-103.171c0.398,0,0.796-0.104,1.058-0.371c4.07-4.152,8.02-8.416,12.06-12.596    c7.424,14.004,19.541,26.449,30.528,34.984c0.471,0.366,1.016,0.158,1.284-0.212c0.536,1.576,3.174,1.482,3.016-0.384    c-0.83-9.757,13.252-23.206,18.451-30.644c6.156-8.806,11.872-21.875,12.204-32.658c0.023-0.749-0.053-1.465-0.065-2.202    c0.012-0.065,0.001-0.122-0.006-0.19c-0.065-2.921-0.325-5.776-0.903-8.486c0.155-0.096,0.302-0.204,0.469-0.341    c1.102-0.903,2.043-2.025,2.974-3.095c1.265-1.455,2.413-3.029,3.491-4.648C146.944,58.773,139.103,96.453,138.431,134.465z     M183.857,176.168c-0.004,0.021,0.003,0.037,0,0.059c-0.198,0.371-0.398,0.75-0.603,1.133    c-4.037-7.398-10.844-13.687-16.77-19.388c-8.18-7.868-16.925-15.281-25.778-22.389c0.045-0.12,0.093-0.238,0.096-0.39    c0.604-38.619,9.187-77.371,1.845-115.748c14.091,12.047,31.886,19.788,42.963,35.078c0.123,0.17,0.288,0.225,0.442,0.317    c-0.212,20.083-0.437,40.167-0.341,60.25C185.809,135.32,188.067,156.222,183.857,176.168z" fill="#FFFFFF"/>
	</g>
</g>
<g>
</g>
<g>
</g>
<g>
</g>
<g>
</g>
<g>
</g>
<g>
</g>
<g>
</g>
<g>
</g>
<g>
</g>
<g>
</g>
<g>
</g>
<g>
</g>
<g>
</g>
<g>
</g>
<g>
</g>
</svg>
