<?xml version="1.0" encoding="iso-8859-1"?>
<!-- Generator: Adobe Illustrator 16.0.0, SVG Export Plug-In . SVG Version: 6.00 Build 0)  -->
<!DOCTYPE svg PUBLIC "-//W3C//DTD SVG 1.1//EN" "http://www.w3.org/Graphics/SVG/1.1/DTD/svg11.dtd">
<svg xmlns="http://www.w3.org/2000/svg" xmlns:xlink="http://www.w3.org/1999/xlink" version="1.1" id="Capa_1" x="0px" y="0px" width="512px" height="512px" viewBox="0 0 54.456 54.457" style="enable-background:new 0 0 54.456 54.457;" xml:space="preserve">
<g>
	<g>
		<path d="M49.323,32.873c1.499-3.117,2.068-9.389-0.874-11.453c-0.904-0.634-1.85-0.674-1.829-0.695    c0.021-0.021-0.171-0.056-0.425-0.035c-0.254,0.021-0.6,0.073-0.773,0.095c-0.102,0.012-0.208,0.026-0.313,0.045    c-2.555,0.43-4.716,2.549-6.256,4.479c-2.757,3.455,0.826,6.979,3.083,9.463c0.01,0.01,0.021,0.017,0.033,0.021    c0.021,0.01-0.704,0.523-1.575,1.203c-2.004,1.563-3.91,3.354-5.809,4.989c-0.145,0.126-0.294,0.353-0.125,0.526    c2.299,2.372,5.233,2.547,8.375,2.637c3.331,0.097,6.581,0.626,9.768-0.598c2.012-0.771,2.277-2.673,1.317-4.377    C52.788,37.165,48.173,35.268,49.323,32.873z M50.899,42.821c-1.059,0.316-1.902,0.297-1.827,0.222    c0.076-0.076-0.1-0.153-0.391-0.171c-0.291-0.019-0.62,0.062-0.733,0.178c-0.115,0.114-0.479,0.216-0.814,0.217    c-0.232,0-0.438-0.004-0.604-0.011c-1.6-0.065-3.275-0.067-4.907-0.252c-1.098-0.125-1.647-0.665-1.245-1.072    c0.401-0.407,0.624-0.82,0.505-0.932c-0.119-0.112-0.585,0.175-1.043,0.646c-0.459,0.472-1.105,0.775-1.439,0.658    c-0.201-0.071-0.399-0.146-0.596-0.231c-1.86-0.811,5.023-6.46,5.501-6.783c0.165-0.112,0.268-0.213,0.316-0.302    c0.12-0.212,0.027-0.431,0.14-0.611c0.071-0.116,0.072-0.239-0.031-0.354c-0.114-0.126-0.229-0.25-0.345-0.375    c-0.189-0.206,0.169-0.902,0.807-1.557c0.637-0.653,0.88-1.523,0.583-1.972c-0.299-0.449-1.059-0.273-1.758,0.432    c-0.697,0.704-1.477,1.022-1.718,0.693c-0.24-0.328,0.215-1.244,0.992-2.028c0.021-0.021,0.041-0.042,0.062-0.063    c0.777-0.783,1.382-1.583,1.369-1.785c-0.012-0.203-0.62,0.283-1.379,1.087c-0.105,0.111-0.212,0.224-0.317,0.336    c-0.76,0.803-1.656,0.979-1.872,0.343c-0.216-0.638,0.346-1.843,1.099-2.651c0.891-0.954,1.775-1.902,2.655-2.847    c0.753-0.808,2.121-1.581,2.905-1.196c0.441,0.219,0.824,0.571,1.113,1.087c1.604,2.868,0.556,7.939-1.094,10.611    c-0.038,0.062-0.06,0.119-0.063,0.175c-0.006,0.104-0.574,0.82-1.346,1.611c-0.155,0.159-0.31,0.317-0.465,0.477    c-0.771,0.791-1.222,1.294-1.013,1.116c0.126-0.104,0.249-0.216,0.367-0.333c0.453-0.404,0.871-0.848,1.299-1.28    c0.709-0.717,1.924-0.52,2.739,0.225c0.624,0.566,1.281,1.104,1.897,1.663c0.842,0.766,1.559,1.59,2.122,2.59    C53.115,41.694,52.223,42.425,50.899,42.821z" fill="#e62b1e"/>
		<path d="M1.144,38.733c-1.881,2.073-1.405,4.223,1.153,5.204c2.825,1.084,6.412,0.273,9.339,0.19    c3.113-0.089,6.013-0.521,8.257-2.839c0.12-0.124,0.318-0.36,0.125-0.526c-2.395-2.067-4.867-4.439-7.479-6.214    c-0.016-0.011-0.032-0.021-0.05-0.028c-0.028-0.013-0.025-0.037,0.005-0.061c0.018-0.017,0.035-0.03,0.05-0.047    c1.88-2.071,5.559-5.487,3.596-8.64c-1.462-2.348-4.18-5.062-7.183-5.114c-0.105-0.002-0.193,0.017-0.295,0.02    c-0.028,0.001-0.057,0.003-0.084,0.005c-5.654,0.248-4.891,8.073-3.71,11.836c0.44,1.398,1.048,1.712-0.261,2.917    C3.427,36.524,2.223,37.543,1.144,38.733z M6.015,25.043c0.161-0.857,0.818-1.927,1.306-2.429c0.486-0.503,1.331-0.934,1.845-0.76    c0.513,0.173,0.264,1.057-0.505,1.85c-0.476,0.489-0.951,0.979-1.427,1.471C6.466,25.969,5.854,25.901,6.015,25.043z     M7.642,34.167c0.046-0.061,0.065-0.116,0.066-0.171c0.002-0.103,0.601-0.79,1.405-1.546c0.013-0.014,0.025-0.024,0.038-0.036    c0.805-0.756,1.354-1.692,1.248-2.099c-0.106-0.404-0.785-0.084-1.541,0.723c-0.114,0.122-0.228,0.243-0.343,0.364    c-0.756,0.806-1.675,0.847-1.945,0.051c-0.271-0.795,0.226-2.098,1.009-2.875c0.284-0.283,0.569-0.566,0.854-0.85    c0.784-0.778,1.419-1.463,1.421-1.529c0.001-0.066-0.63,0.516-1.409,1.299c-0.303,0.306-0.607,0.61-0.909,0.916    c-0.779,0.784-1.489,1.052-1.558,0.593c-0.068-0.459,0.136-1.069,0.424-1.357c0.174-0.174,0.348-0.348,0.522-0.52    c0.562-0.555,1.125-1.11,1.688-1.664c0.787-0.775,1.483-1.755,1.606-2.173c0.124-0.418,1.015-0.238,1.825,0.512    c0.815,0.754,1.481,1.512,1.787,1.896c2.524,3.162-1.057,6.45-3.083,8.682c-0.139,0.152-0.121,0.259-0.01,0.326    c0.184,0.109,0.165,0.175,0.09,0.401c-0.04,0.123,0.003,0.249,0.171,0.363c2.231,1.515,4.04,3.611,6.248,5.197    c2.312,1.661-5.428,2.396-5.602,2.4c-0.113,0.004-0.227,0.015-0.34,0.02c-0.243-0.008-0.489-0.016-0.733-0.026    c-0.404-0.018-0.771-0.01-0.82,0.035c-0.049,0.044-0.55,0.112-1.119,0.147c-0.343,0.021-0.686,0.04-1.029,0.055    c-0.182,0.007-0.363,0.012-0.544,0.014c-0.3,0.004-0.342-0.182-0.094-0.404c0.248-0.226,0.227-0.492-0.024-0.642    c-0.156-0.093-0.3-0.193-0.428-0.309c-0.058-0.055-0.106-0.111-0.15-0.168c-0.075-0.099-0.496,0.159-0.943,0.576    c-0.447,0.417-1.175,0.695-1.613,0.582c-0.262-0.068-0.523-0.148-0.781-0.248c-0.13-0.051-0.245-0.104-0.35-0.162    c-0.186-0.104-0.311-0.845-0.297-1.622c0.016-0.779,0.354-1.892,0.827-2.424c0.349-0.394,0.682-0.72,0.896-0.931    C5.273,36.417,6.649,35.483,7.642,34.167z" fill="#e62b1e"/>
		<path d="M34.728,20.107c0.394-4.196-0.562-9.427-5.416-10.097c-4.412-0.609-9.167,4.418-11.053,7.802    c-1.453,2.605,0.112,5.524,1.585,7.687c0.513,0.753,3.643,3.353,3.46,4.262c-0.206,1.025-4.855,4.479-5.451,4.992    c-0.323,0.278-0.498,0.618-0.121,0.934c1.631,1.366,5.84,3.88,3.311,6.157c-0.438,0.393-0.011,0.888,0.455,0.914    c3.461,0.191,6.945,0.421,10.412,0.436c0.554,0.002,1.858-0.521,1.096-1.195c-0.014-0.013-0.026-0.023-0.039-0.035    c-0.021-0.02-0.017-0.972,0.672-1.835c1.357-1.701,4.172-3.649,4.934-4.279c0.217-0.179,0.516-0.528,0.258-0.812    c-1.418-1.566-7.049-5.162-5.965-7.249C34.071,25.465,34.489,22.671,34.728,20.107z M19.845,18.544    c0.834-2.827,3.958-5.741,6.937-6.609c1.06-0.309,1.33,0.37,0.531,1.135c-1.109,1.064-2.457,2.354-4.105,3.932    c-0.714,0.711-1.419,1.413-2.118,2.107C20.307,19.889,19.532,19.604,19.845,18.544z M30.373,29.311    c2.054,2.651,7.884,4.882,4.183,8.056c-0.796,0.683-2.005,1.449-2.823,2.366c-0.736,0.823-1.347,1.727-1.925,1.697    c-0.384-0.019-0.734-0.029-1.047-0.029c-0.08,0-0.164-0.004-0.248-0.008c-0.136-0.007-0.316,0.062-0.405,0.148    c-0.089,0.088-1.055,0.106-2.157,0.051c-0.249-0.012-0.498-0.024-0.746-0.035c-1.104-0.05-1.282-0.149-0.99-0.839    c0.292-0.688,0.623-1.836,1.248-2.464c0.626-0.628,0.919-1.324,0.653-1.554c-0.266-0.23-0.95,0.014-1.525,0.549    c-0.575,0.535-1.712,0.381-2.604-0.272c-1.363-0.996-2.332-1.82-0.533-3.566c0.99-0.962,4.399-2.48,3.878-4.428    c-0.04-0.148-0.197-0.37-0.406-0.613c-0.266-0.312,0.018-1.025,0.66-1.619c0.643-0.594,0.9-1.374,0.592-1.755    c-0.31-0.381-1.091-0.195-1.764,0.43c-0.673,0.625-1.502,0.819-1.834,0.418c-0.331-0.4-0.004-1.278,0.712-1.947    c0.717-0.669,1.246-1.303,1.184-1.419c-0.062-0.117-0.686,0.363-1.396,1.073c-0.71,0.711-1.756,0.669-2.227-0.163    c-0.47-0.832-0.129-2.2,0.641-2.992c0.284-0.293,0.569-0.586,0.854-0.879c0.77-0.792,1.4-1.461,1.404-1.496    c0.002-0.021,0.006-0.042,0.011-0.063c0.456-1.52,1.916-3.436,3.732-5.018c0.833-0.726,2.255-1.169,2.951-0.77    c0.398,0.229,0.765,0.544,1.082,0.955c2.954,3.823,1.168,11.985-1.185,15.687C30.247,28.964,30.264,29.172,30.373,29.311z" fill="#e62b1e"/>
		<path d="M43.954,42.815c-0.157,0.152,0.138,0.3,0.661,0.333c0.523,0.034,1.05-0.036,1.174-0.157    c0.124-0.123-0.177-0.245-0.667-0.309C44.632,42.62,44.112,42.663,43.954,42.815z" fill="#e62b1e"/>
		<path d="M26.552,31.019c-0.79,0.772-0.778,0.785,0.024,0.025c0.42-0.397,0.838-0.794,1.254-1.189    c0.801-0.762,1.434-1.396,1.419-1.413c-0.016-0.017-0.668,0.595-1.458,1.366C27.378,30.212,26.965,30.617,26.552,31.019z" fill="#e62b1e"/>
	</g>
</g>
<g>
</g>
<g>
</g>
<g>
</g>
<g>
</g>
<g>
</g>
<g>
</g>
<g>
</g>
<g>
</g>
<g>
</g>
<g>
</g>
<g>
</g>
<g>
</g>
<g>
</g>
<g>
</g>
<g>
</g>
</svg>
