<?xml version="1.0" encoding="utf-8"?>
<!-- Generator: Adobe Illustrator 19.2.0, SVG Export Plug-In . SVG Version: 6.00 Build 0)  -->
<svg version="1.1" id="rocket" xmlns="http://www.w3.org/2000/svg" xmlns:xlink="http://www.w3.org/1999/xlink" x="0px" y="0px"
	 viewBox="0 0 390 390" style="enable-background:new 0 0 390 390;" xml:space="preserve">
<style type="text/css">
	.st0{fill:none;stroke:#22303D;stroke-width:6;stroke-linecap:round;stroke-miterlimit:10;}
	.st1{display:none;fill:#F2ECE8;}
	.st2{display:none;fill:none;stroke:#89DAF6;stroke-width:8;stroke-linecap:round;stroke-miterlimit:10;}
	.st3{display:none;fill:none;stroke:#89DAF6;stroke-width:6;stroke-linecap:round;stroke-linejoin:round;stroke-miterlimit:10;}
	.st4{display:none;fill:none;stroke:#89DAF6;stroke-width:6;stroke-linecap:round;stroke-miterlimit:10;}
	.st5{fill:#F2ECE8;}
	.st6{fill:none;stroke:#22303D;stroke-width:6;stroke-linecap:round;stroke-linejoin:round;stroke-miterlimit:10;}
	.st7{fill:none;stroke:#FEE176;stroke-width:6;stroke-linecap:round;stroke-miterlimit:10;}
	.st8{fill:none;stroke:#F46B85;stroke-width:6;stroke-linecap:round;stroke-miterlimit:10;}
	.st9{fill:#A4B4C3;}
	.st10{fill:#F46B85;}
	.st11{fill:#F46B85;stroke:#22303D;stroke-width:6;stroke-linecap:round;stroke-linejoin:round;stroke-miterlimit:10;}
	.st12{fill:none;stroke:#C1526D;stroke-width:6;stroke-linecap:round;stroke-miterlimit:10;}
	.st13{fill:none;stroke:#C1526D;stroke-width:6;stroke-miterlimit:10;}
	.st14{fill:#FEE176;}
	.st15{fill:none;stroke:#FCBF5A;stroke-width:6;stroke-linecap:round;stroke-miterlimit:10;}
	.st16{opacity:0.2;}
	.st17{fill:#FFFFFF;}
</style>
<g id="bottom_lines"><line class="st0" x1="117" y1="357.16" x2="36" y2="357.16"/><line class="st0" x1="294" y1="357.16" x2="129" y2="357.16"/><line class="st0" x1="333" y1="357.16" x2="306" y2="357.16"/><line class="st0" x1="354" y1="357.16" x2="345" y2="357.16"/><line class="st0" x1="90" y1="371.16" x2="146" y2="371.16"/><line class="st0" x1="158" y1="371.16" x2="158" y2="371.16"/><line class="st0" x1="170" y1="371.16" x2="229" y2="371.16"/><line class="st0" x1="229" y1="385.16" x2="287" y2="385.16"/><line class="st0" x1="301" y1="385.16" x2="327" y2="385.16"/><path class="st0" d="M287,385.16c0-3.87,3.13-7,7-7s7,3.13,7,7"/><line class="st0" x1="217" y1="385.16" x2="215" y2="385.16"/></g>
<g id="smoke">
	<path class="st1" d="M295,303.16c-3.17,0-6.2,0.55-9.02,1.55c-0.24-8.07-6.84-14.55-14.98-14.55c-8.14,0-14.74,6.48-14.98,14.56
		c-1.28-0.36-2.63-0.56-4.02-0.56c-4.26,0-8.1,1.79-10.84,4.65c-4.22-11.47-15.23-19.65-28.16-19.65
		c-10.99,0-20.59,5.91-25.82,14.72c-1.99-0.47-4.06-0.72-6.18-0.72c-0.4,0-0.81,0.01-1.21,0.03c0.14-0.66,0.21-1.33,0.21-2.03
		c0-5.52-4.48-10-10-10c-0.1,0-0.2,0.01-0.3,0.02c0.2-0.97,0.3-1.98,0.3-3.02c0-8.01-6.29-14.54-14.19-14.96
		c-3.4-11.03-13.66-19.04-25.81-19.04c-13.51,0-24.7,9.92-26.69,22.87c-2.68-0.57-5.46-0.87-8.31-0.87c-22.09,0-40,17.91-40,40
		c0,22.09,17.91,41,40,41h2h196c0,0,1.66,0,2,0c14.91,0,27-12.09,27-27S309.91,303.16,295,303.16z"/>
	<path class="st2" d="M116,258.07c4.08-2.48,8.87-3.91,14-3.91"/>
	<line class="st3" x1="107" y1="282.16" x2="103" y2="276.16"/>
	<path class="st2" d="M95,276.16c-22.09,0-40,17.91-40,40"/>
	<line class="st3" x1="152" y1="278.16" x2="155.5" y2="274.66"/>
	<path class="st3" d="M164,288.16c0-4.97-4.03-9-9-9c-1.46,0-2.83,0.36-4.05,0.97c-0.54-11.12-9.7-19.97-20.95-19.97
		c-11.6,0-21,9.4-21,21c0,1.34,0.14,2.64,0.38,3.91c-4.25-1.87-8.94-2.91-13.88-2.91c-19.05,0-34.5,15.45-34.5,34.5
		s15.45,34.5,34.5,34.5"/>
	<path class="st4" d="M114,319.16c0-3.87-3.13-7-7-7s-7,3.13-7,7"/>
	<path class="st4" d="M132,319.16c0-1.66-1.34-3-3-3s-3,1.34-3,3"/>
	<path class="st5" d="M298.64,303.4c-4.48-0.59-8.77-0.07-12.66,1.31c-0.24-8.07-6.84-14.55-14.98-14.55
		c-8.14,0-14.74,6.48-14.98,14.56c-1.28-0.36-2.63-0.56-4.02-0.56c-4.26,0-8.1,1.79-10.84,4.65c-4.22-11.47-15.23-19.65-28.16-19.65
		c-10.99,0-20.59,5.91-25.82,14.72c-1.99-0.47-4.06-0.72-6.18-0.72c-0.4,0-0.81,0.01-1.21,0.03c0.14-0.66,0.21-1.33,0.21-2.03
		c0-5.52-4.48-10-10-10c-0.1,0-0.2,0.01-0.3,0.02c0-0.01,0-0.02,0.01-0.03c0.28-1.37-1.1-2.5-2.41-2.04l-1.54,0.54
		c-1.79,0.62-3.73-0.29-4.42-2.05c-1.39-3.55-4.79-6.19-8.75-6.42c-0.82-0.05-1.62,0.01-2.39,0.15c-1.11,0.21-2.16-0.64-2.26-1.77
		c-0.86-9.77-9.52-17.29-19.71-16.31c-8.6,0.83-15.5,7.9-16.16,16.51c-0.12,1.58-0.04,3.12,0.23,4.59c0.42,2.32-1.89,4.14-4.06,3.24
		c-4.24-1.76-8.95-2.63-13.88-2.38c-16.23,0.82-29.45,14.01-30.3,30.24c-0.93,17.91,12.87,32.82,30.36,33.68
		c1.95,0.1,3.42,1.82,3.16,3.76v0c-0.3,2.27,1.46,4.28,3.75,4.28H293c0,0,1.66,0,2,0c15.89,0,28.58-13.73,26.84-29.98
		C320.53,314.94,310.84,305.02,298.64,303.4z"/>
	<path class="st6" d="M117,257.49c-7.2,3.96-12.39,11.11-13.69,19.54c-2.68-0.57-5.46-0.87-8.31-0.87c-5.69,0-11.1,1.19-16,3.33
		 M224,291.24c-3.41-1.34-7.12-2.08-11-2.08c-10.99,0-20.59,5.91-25.82,14.72c-1.99-0.47-4.06-0.72-6.18-0.72
		c-0.4,0-0.81,0.01-1.21,0.03c0.14-0.66,0.21-1.33,0.21-2.03c0-5.52-4.48-10-10-10c-0.1,0-0.2,0.01-0.3,0.02
		c0.2-0.97,0.3-1.98,0.3-3.02c0-8.01-6.29-14.54-14.19-14.96c-3.4-11.03-13.66-19.04-25.81-19.04 M319.19,318.16
		c-4.42-8.89-13.59-15-24.19-15c-3.17,0-6.2,0.55-9.02,1.55c-0.24-8.07-6.84-14.55-14.98-14.55c-8.14,0-14.74,6.48-14.98,14.56
		c-1.28-0.36-2.63-0.56-4.02-0.56c-4.26,0-8.1,1.79-10.84,4.65c-1.87-5.07-5.06-9.5-9.17-12.87 M321.98,331.16
		c0.01-0.33,0.02-0.67,0.02-1s-0.01-0.67-0.02-1 M62,293.55c-4.42,6.43-7,14.22-7,22.61c0,22.09,17.91,41,40,41h2h196
		c0,0,1.66,0,2,0c10.6,0,19.78-6.11,24.19-15 M70,284.94c-0.34,0.27-0.67,0.55-1,0.83"/>
	<g>
		<path class="st0" d="M119.85,317.16c-0.96-6.23-6.35-11-12.85-11c-7.18,0-13,5.82-13,13"/>
		<path class="st0" d="M138,319.16c0-4.97-4.03-9-9-9c-4.28,0-7.87,2.99-8.78,7"/>
		<line class="st0" x1="138" y1="319.16" x2="150" y2="319.16"/>
		<path class="st0" d="M271,332.16c0-3.31,2.69-6,6-6s6,2.69,6,6"/>
		<line class="st0" x1="283" y1="332.16" x2="292" y2="332.16"/>
	</g>
</g>
<g id="fire_line">
	<line class="st0" x1="197" y1="281.16" x2="197" y2="314.16"/>
	<line class="st0" x1="209" y1="303.16" x2="209" y2="326.16"/>
	<line class="st0" x1="185" y1="313.16" x2="185" y2="331.16"/>
	<line class="st7" x1="191" y1="320.16" x2="191" y2="334.16"/>
	<line class="st8" x1="215" y1="311.16" x2="215" y2="334.16"/>
</g>
<g id="engine">
	<path class="st9" d="M256,235.16H148c0,6.63,5.37,12,12,12h84C250.63,247.16,256,241.79,256,235.16z"/>
	<path class="st0" d="M244,247.16h-93c-6.63,0-12-5.37-12-12v0h117v0C256,241.79,250.63,247.16,244,247.16z"/>
	<path class="st9" d="M222,247.16h-41c0,11.05,8.95,20,20,20h1C213.05,267.16,222,258.21,222,247.16z"/>
	<path class="st0" d="M202,267.16h-10c-11.05,0-20-8.95-20-20v0h50v0C222,258.21,213.05,267.16,202,267.16z"/>
</g>
<g id="wings">
	<path class="st10" d="M107,235.16L107,235.16l31,0v-38.97C120.24,200.28,107,216.17,107,235.16z"/>
	<path class="st0" d="M137,195.18c-7.32,0.18-14.16,2.33-20,5.94"/>
	<path class="st6" d="M100.91,220.16c-1.88,4.63-2.91,9.7-2.91,15v0h40"/>
	<path class="st0" d="M108.49,208.16c-0.3,0.33-0.6,0.66-0.89,1"/>
	<path class="st11" d="M295,235.16h-40v-40h0C277.09,195.16,295,213.07,295,235.16L295,235.16z"/>
</g>
<path class="st10" d="M201.5,82.59c-31.04,5.88-55.5,71.59-55.5,129.57c0,7.89,0.46,15.58,1.32,23h108.36
	c0.86-7.42,1.32-15.11,1.32-23C257,154.19,232.54,88.48,201.5,82.59z"/>
<g id="shadow">
	<path id="line_blue_3_" class="st12" d="M197,82.92c30.32,7.68,54,72.2,54,129.24c0,7.89-0.46,15.58-1.32,23"/>
	<path id="line_blue_4_" class="st13" d="M250.39,168.16c1.2,7.96,2,16.01,2.38,24"/>
	<line class="st12" x1="217" y1="91.16" x2="202" y2="91.16"/>
	<line class="st8" x1="197" y1="85.16" x2="208" y2="85.16"/>
	<line class="st12" x1="224" y1="103.16" x2="215" y2="103.16"/>
	<line class="st8" x1="210" y1="97.16" x2="216" y2="97.16"/>
	<line class="st12" x1="231" y1="115.16" x2="224" y2="115.16"/>
	<line class="st8" x1="220" y1="109.16" x2="224" y2="109.16"/>
	<line class="st12" x1="234" y1="127.16" x2="228" y2="127.16"/>
	<line class="st8" x1="227" y1="121.16" x2="230" y2="121.16"/>
	<line class="st12" x1="241" y1="139.16" x2="233" y2="139.16"/>
	<line class="st8" x1="230" y1="133.16" x2="235" y2="133.16"/>
	<line class="st12" x1="244" y1="151.16" x2="233" y2="151.16"/>
	<line class="st8" x1="235" y1="145.16" x2="239" y2="145.16"/>
	<line class="st12" x1="248" y1="163.16" x2="237" y2="163.16"/>
	<line class="st8" x1="238" y1="157.16" x2="242" y2="157.16"/>
	<line class="st12" x1="251" y1="175.16" x2="242" y2="175.16"/>
	<line class="st8" x1="244" y1="169.16" x2="244" y2="169.16"/>
	<line class="st12" x1="251" y1="187.16" x2="241" y2="187.16"/>
	<line class="st8" x1="246" y1="181.16" x2="246" y2="181.16"/>
	<line class="st12" x1="251" y1="199.16" x2="247" y2="199.16"/>
	<line class="st8" x1="247" y1="193.16" x2="247" y2="193.16"/>
	<line class="st12" x1="251" y1="211.16" x2="242" y2="211.16"/>
	<line class="st8" x1="248" y1="205.16" x2="248" y2="205.16"/>
	<line class="st12" x1="251" y1="223.16" x2="244" y2="223.16"/>
	<line class="st8" x1="248" y1="217.16" x2="248" y2="217.16"/>
	<line class="st8" x1="248" y1="229.16" x2="248" y2="229.16"/>
	<line class="st12" x1="232" y1="187.16" x2="232" y2="187.16"/>
	<line class="st12" x1="235" y1="223.16" x2="235" y2="223.16"/>
	<line class="st12" x1="224" y1="139.16" x2="224" y2="139.16"/>
</g>
<g id="border_base">
	<path class="st6" d="M252.67,168.16c-8.88-45.92-30.46-86-55.67-86c-13.96,0-26.81,12.29-37,31.06"/>
	<path class="st6" d="M254.54,179.16c-0.05-0.33-0.1-0.67-0.15-1"/>
	<path class="st6" d="M150.66,134.16c-8.54,23.3-13.66,51.46-13.66,78c0,7.89,0.46,15.58,1.32,23h117.36
		c0.86-7.42,1.32-15.11,1.32-23c0-7.58-0.42-15.3-1.22-23"/>
	<path class="st6" d="M155.11,123.16c-0.15,0.33-0.3,0.67-0.44,1"/>
</g>
<g>
	<circle class="st14" cx="197" cy="178.16" r="30"/>
	<path class="st15" d="M173,178.16c0-13.25,10.75-24,24-24"/>
	<path class="st15" d="M172,175.16c0-13.25,10.75-24,24-24"/>
	<path class="st0" d="M186.21,150.16c3.35-1.29,6.99-2,10.79-2c16.57,0,30,13.43,30,30s-13.43,30-30,30s-30-13.43-30-30
		c0-8.18,3.27-15.59,8.58-21"/>
</g>
<g class="st16">
	<path d="M185.77,92.38c-0.83,0-1.58,0.07-2.22,0.17v7.95c0.53,0.06,1.15,0.1,1.9,0.1c1.57,0,2.82-0.41,3.57-1.16
		c0.75-0.74,1.16-1.82,1.16-3.14c0-1.31-0.42-2.24-1.14-2.9C188.33,92.72,187.27,92.38,185.77,92.38z M185.65,99.75
		c-0.41,0-0.79-0.01-1.06-0.06v-6.38c0.28-0.06,0.68-0.11,1.22-0.11c2.21,0,3.29,1.21,3.27,3.12
		C189.09,98.5,187.88,99.75,185.65,99.75z"/>
	<polygon points="192.58,96.73 195.73,96.73 195.73,95.87 192.58,95.87 192.58,93.31 195.91,93.31 195.91,92.44 191.54,92.44 
		191.54,100.52 196.09,100.52 196.09,99.64 192.58,99.64 	"/>
	<path d="M203.65,92.44l-1.44,3.91c-0.36,1.02-0.65,1.91-0.85,2.72h-0.04c-0.2-0.84-0.48-1.73-0.82-2.72l-1.38-3.91h-1.33
		l-0.56,8.08h1l0.22-3.47c0.07-1.21,0.13-2.57,0.16-3.57h0.02c0.23,0.96,0.55,2,0.94,3.14l1.31,3.85h0.79l1.43-3.92
		c0.41-1.12,0.74-2.12,1.02-3.07h0.04c-0.01,1.01,0.06,2.36,0.12,3.49l0.2,3.55h1.02l-0.5-8.08H203.65z"/>
	<path d="M210.37,92.3c-2.16,0-3.75,1.68-3.75,4.25c0,2.45,1.5,4.1,3.63,4.1c2.06,0,3.75-1.48,3.75-4.26
		C214,94,212.57,92.3,210.37,92.3z M210.31,99.8c-1.64,0-2.58-1.55-2.58-3.27c0-1.77,0.86-3.37,2.59-3.37
		c1.74,0,2.58,1.68,2.58,3.29C212.9,98.28,211.96,99.8,210.31,99.8z"/>
	<path d="M162.69,128.38c-0.83,0-1.58,0.07-2.22,0.17v7.95c0.53,0.06,1.15,0.1,1.9,0.1c1.57,0,2.82-0.41,3.57-1.16
		c0.75-0.74,1.16-1.82,1.16-3.14c0-1.31-0.42-2.24-1.14-2.9C165.25,128.72,164.19,128.38,162.69,128.38z M162.57,135.75
		c-0.41,0-0.79-0.01-1.06-0.06v-6.38c0.28-0.06,0.68-0.11,1.22-0.11c2.21,0,3.29,1.21,3.27,3.12
		C166.01,134.5,164.8,135.75,162.57,135.75z"/>
	<polygon points="169.5,132.73 172.65,132.73 172.65,131.87 169.5,131.87 169.5,129.31 172.83,129.31 172.83,128.44 168.46,128.44 
		168.46,136.52 173.01,136.52 173.01,135.64 169.5,135.64 	"/>
	<path d="M180.57,128.44l-1.44,3.91c-0.36,1.02-0.65,1.91-0.85,2.72h-0.04c-0.2-0.84-0.48-1.73-0.82-2.72l-1.38-3.91h-1.33
		l-0.56,8.08h1l0.22-3.47c0.07-1.21,0.13-2.57,0.16-3.57h0.02c0.23,0.96,0.55,2,0.94,3.14l1.31,3.85h0.79l1.43-3.92
		c0.41-1.12,0.74-2.12,1.02-3.07h0.04c-0.01,1.01,0.06,2.36,0.12,3.49l0.2,3.55h1.02l-0.5-8.08H180.57z"/>
	<path d="M187.29,128.3c-2.16,0-3.75,1.68-3.75,4.25c0,2.45,1.5,4.1,3.63,4.1c2.06,0,3.75-1.48,3.75-4.26
		C190.92,130,189.49,128.3,187.29,128.3z M187.23,135.8c-1.64,0-2.58-1.55-2.58-3.27c0-1.77,0.86-3.37,2.59-3.37
		c1.74,0,2.58,1.68,2.58,3.29C189.82,134.28,188.88,135.8,187.23,135.8z"/>
	<path d="M209.76,128.38c-0.83,0-1.58,0.07-2.22,0.17v7.95c0.53,0.06,1.15,0.1,1.9,0.1c1.57,0,2.82-0.41,3.57-1.16
		c0.75-0.74,1.16-1.82,1.16-3.14c0-1.31-0.42-2.24-1.14-2.9C212.33,128.72,211.26,128.38,209.76,128.38z M209.64,135.75
		c-0.41,0-0.79-0.01-1.06-0.06v-6.38c0.28-0.06,0.68-0.11,1.22-0.11c2.21,0,3.29,1.21,3.27,3.12
		C213.08,134.5,211.87,135.75,209.64,135.75z"/>
	<polygon points="216.58,132.73 219.72,132.73 219.72,131.87 216.58,131.87 216.58,129.31 219.9,129.31 219.9,128.44 215.54,128.44 
		215.54,136.52 220.08,136.52 220.08,135.64 216.58,135.64 	"/>
	<path d="M227.64,128.44l-1.44,3.91c-0.36,1.02-0.65,1.91-0.85,2.72h-0.04c-0.2-0.84-0.48-1.73-0.82-2.72l-1.38-3.91h-1.33
		l-0.56,8.08h1l0.22-3.47c0.07-1.21,0.13-2.57,0.16-3.57h0.02c0.23,0.96,0.55,2,0.94,3.14l1.31,3.85h0.79l1.43-3.92
		c0.41-1.12,0.74-2.12,1.02-3.07h0.04c-0.01,1.01,0.06,2.36,0.12,3.49l0.2,3.55h1.02l-0.5-8.08H227.64z"/>
	<path d="M234.36,128.3c-2.16,0-3.75,1.68-3.75,4.25c0,2.45,1.5,4.1,3.63,4.1c2.06,0,3.75-1.48,3.75-4.26
		C238,130,236.57,128.3,234.36,128.3z M234.3,135.8c-1.64,0-2.58-1.55-2.58-3.27c0-1.77,0.86-3.37,2.59-3.37
		c1.74,0,2.58,1.68,2.58,3.29C236.89,134.28,235.96,135.8,234.3,135.8z"/>
	<path d="M162.69,164.38c-0.83,0-1.58,0.07-2.22,0.17v7.95c0.53,0.06,1.15,0.1,1.9,0.1c1.57,0,2.82-0.41,3.57-1.16
		c0.75-0.74,1.16-1.82,1.16-3.14c0-1.31-0.42-2.24-1.14-2.9C165.25,164.72,164.19,164.38,162.69,164.38z M162.57,171.75
		c-0.41,0-0.79-0.01-1.06-0.06v-6.38c0.28-0.06,0.68-0.11,1.22-0.11c2.21,0,3.29,1.21,3.27,3.12
		C166.01,170.5,164.8,171.75,162.57,171.75z"/>
	<polygon points="169.5,168.73 172.65,168.73 172.65,167.87 169.5,167.87 169.5,165.31 172.83,165.31 172.83,164.44 168.46,164.44 
		168.46,172.52 173.01,172.52 173.01,171.64 169.5,171.64 	"/>
	<path d="M180.57,164.44l-1.44,3.91c-0.36,1.02-0.65,1.91-0.85,2.72h-0.04c-0.2-0.84-0.48-1.73-0.82-2.72l-1.38-3.91h-1.33
		l-0.56,8.08h1l0.22-3.47c0.07-1.21,0.13-2.57,0.16-3.57h0.02c0.23,0.96,0.55,2,0.94,3.14l1.31,3.85h0.79l1.43-3.92
		c0.41-1.12,0.74-2.12,1.02-3.07h0.04c-0.01,1.01,0.06,2.36,0.12,3.49l0.2,3.55h1.02l-0.5-8.08H180.57z"/>
	<path d="M187.29,164.3c-2.16,0-3.75,1.68-3.75,4.25c0,2.45,1.5,4.1,3.63,4.1c2.06,0,3.75-1.48,3.75-4.26
		C190.92,166,189.49,164.3,187.29,164.3z M187.23,171.8c-1.64,0-2.58-1.55-2.58-3.27c0-1.77,0.86-3.37,2.59-3.37
		c1.74,0,2.58,1.68,2.58,3.29C189.82,170.28,188.88,171.8,187.23,171.8z"/>
	<path d="M209.76,164.38c-0.83,0-1.58,0.07-2.22,0.17v7.95c0.53,0.06,1.15,0.1,1.9,0.1c1.57,0,2.82-0.41,3.57-1.16
		c0.75-0.74,1.16-1.82,1.16-3.14c0-1.31-0.42-2.24-1.14-2.9C212.33,164.72,211.26,164.38,209.76,164.38z M209.64,171.75
		c-0.41,0-0.79-0.01-1.06-0.06v-6.38c0.28-0.06,0.68-0.11,1.22-0.11c2.21,0,3.29,1.21,3.27,3.12
		C213.08,170.5,211.87,171.75,209.64,171.75z"/>
	<polygon points="216.58,168.73 219.72,168.73 219.72,167.87 216.58,167.87 216.58,165.31 219.9,165.31 219.9,164.44 215.54,164.44 
		215.54,172.52 220.08,172.52 220.08,171.64 216.58,171.64 	"/>
	<path d="M227.64,164.44l-1.44,3.91c-0.36,1.02-0.65,1.91-0.85,2.72h-0.04c-0.2-0.84-0.48-1.73-0.82-2.72l-1.38-3.91h-1.33
		l-0.56,8.08h1l0.22-3.47c0.07-1.21,0.13-2.57,0.16-3.57h0.02c0.23,0.96,0.55,2,0.94,3.14l1.31,3.85h0.79l1.43-3.92
		c0.41-1.12,0.74-2.12,1.02-3.07h0.04c-0.01,1.01,0.06,2.36,0.12,3.49l0.2,3.55h1.02l-0.5-8.08H227.64z"/>
	<path d="M234.36,164.3c-2.16,0-3.75,1.68-3.75,4.25c0,2.45,1.5,4.1,3.63,4.1c2.06,0,3.75-1.48,3.75-4.26
		C238,166,236.57,164.3,234.36,164.3z M234.3,171.8c-1.64,0-2.58-1.55-2.58-3.27c0-1.77,0.86-3.37,2.59-3.37
		c1.74,0,2.58,1.68,2.58,3.29C236.89,170.28,235.96,171.8,234.3,171.8z"/>
	<path d="M115.61,200.38c-0.83,0-1.58,0.07-2.22,0.17v7.95c0.53,0.06,1.15,0.1,1.9,0.1c1.57,0,2.82-0.41,3.57-1.16
		c0.75-0.74,1.16-1.82,1.16-3.14c0-1.31-0.42-2.24-1.14-2.9C118.18,200.72,117.11,200.38,115.61,200.38z M115.49,207.75
		c-0.41,0-0.79-0.01-1.06-0.06v-6.38c0.28-0.06,0.68-0.11,1.22-0.11c2.21,0,3.29,1.21,3.27,3.12
		C118.93,206.5,117.72,207.75,115.49,207.75z"/>
	<polygon points="122.43,204.73 125.57,204.73 125.57,203.87 122.43,203.87 122.43,201.31 125.75,201.31 125.75,200.44 
		121.39,200.44 121.39,208.52 125.93,208.52 125.93,207.64 122.43,207.64 	"/>
	<path d="M133.49,200.44l-1.44,3.91c-0.36,1.02-0.65,1.91-0.85,2.72h-0.04c-0.2-0.84-0.48-1.73-0.82-2.72l-1.38-3.91h-1.33
		l-0.56,8.08h1l0.22-3.47c0.07-1.21,0.13-2.57,0.16-3.57h0.02c0.23,0.96,0.55,2,0.94,3.14l1.31,3.85h0.79l1.43-3.92
		c0.41-1.12,0.74-2.12,1.02-3.07h0.04c-0.01,1.01,0.06,2.36,0.12,3.49l0.2,3.55h1.02l-0.5-8.08H133.49z"/>
	<path d="M140.21,200.3c-2.16,0-3.75,1.68-3.75,4.25c0,2.45,1.5,4.1,3.63,4.1c2.06,0,3.75-1.48,3.75-4.26
		C143.85,202,142.42,200.3,140.21,200.3z M140.15,207.8c-1.64,0-2.58-1.55-2.58-3.27c0-1.77,0.86-3.37,2.59-3.37
		c1.74,0,2.58,1.68,2.58,3.29C142.74,206.28,141.81,207.8,140.15,207.8z"/>
	<path d="M162.69,200.38c-0.83,0-1.58,0.07-2.22,0.17v7.95c0.53,0.06,1.15,0.1,1.9,0.1c1.57,0,2.82-0.41,3.57-1.16
		c0.75-0.74,1.16-1.82,1.16-3.14c0-1.31-0.42-2.24-1.14-2.9C165.25,200.72,164.19,200.38,162.69,200.38z M162.57,207.75
		c-0.41,0-0.79-0.01-1.06-0.06v-6.38c0.28-0.06,0.68-0.11,1.22-0.11c2.21,0,3.29,1.21,3.27,3.12
		C166.01,206.5,164.8,207.75,162.57,207.75z"/>
	<polygon points="169.5,204.73 172.65,204.73 172.65,203.87 169.5,203.87 169.5,201.31 172.83,201.31 172.83,200.44 168.46,200.44 
		168.46,208.52 173.01,208.52 173.01,207.64 169.5,207.64 	"/>
	<path d="M180.57,200.44l-1.44,3.91c-0.36,1.02-0.65,1.91-0.85,2.72h-0.04c-0.2-0.84-0.48-1.73-0.82-2.72l-1.38-3.91h-1.33
		l-0.56,8.08h1l0.22-3.47c0.07-1.21,0.13-2.57,0.16-3.57h0.02c0.23,0.96,0.55,2,0.94,3.14l1.31,3.85h0.79l1.43-3.92
		c0.41-1.12,0.74-2.12,1.02-3.07h0.04c-0.01,1.01,0.06,2.36,0.12,3.49l0.2,3.55h1.02l-0.5-8.08H180.57z"/>
	<path d="M187.29,200.3c-2.16,0-3.75,1.68-3.75,4.25c0,2.45,1.5,4.1,3.63,4.1c2.06,0,3.75-1.48,3.75-4.26
		C190.92,202,189.49,200.3,187.29,200.3z M187.23,207.8c-1.64,0-2.58-1.55-2.58-3.27c0-1.77,0.86-3.37,2.59-3.37
		c1.74,0,2.58,1.68,2.58,3.29C189.82,206.28,188.88,207.8,187.23,207.8z"/>
	<path d="M209.76,200.38c-0.83,0-1.58,0.07-2.22,0.17v7.95c0.53,0.06,1.15,0.1,1.9,0.1c1.57,0,2.82-0.41,3.57-1.16
		c0.75-0.74,1.16-1.82,1.16-3.14c0-1.31-0.42-2.24-1.14-2.9C212.33,200.72,211.26,200.38,209.76,200.38z M209.64,207.75
		c-0.41,0-0.79-0.01-1.06-0.06v-6.38c0.28-0.06,0.68-0.11,1.22-0.11c2.21,0,3.29,1.21,3.27,3.12
		C213.08,206.5,211.87,207.75,209.64,207.75z"/>
	<polygon points="216.58,204.73 219.72,204.73 219.72,203.87 216.58,203.87 216.58,201.31 219.9,201.31 219.9,200.44 215.54,200.44 
		215.54,208.52 220.08,208.52 220.08,207.64 216.58,207.64 	"/>
	<path d="M227.64,200.44l-1.44,3.91c-0.36,1.02-0.65,1.91-0.85,2.72h-0.04c-0.2-0.84-0.48-1.73-0.82-2.72l-1.38-3.91h-1.33
		l-0.56,8.08h1l0.22-3.47c0.07-1.21,0.13-2.57,0.16-3.57h0.02c0.23,0.96,0.55,2,0.94,3.14l1.31,3.85h0.79l1.43-3.92
		c0.41-1.12,0.74-2.12,1.02-3.07h0.04c-0.01,1.01,0.06,2.36,0.12,3.49l0.2,3.55h1.02l-0.5-8.08H227.64z"/>
	<path d="M234.36,200.3c-2.16,0-3.75,1.68-3.75,4.25c0,2.45,1.5,4.1,3.63,4.1c2.06,0,3.75-1.48,3.75-4.26
		C238,202,236.57,200.3,234.36,200.3z M234.3,207.8c-1.64,0-2.58-1.55-2.58-3.27c0-1.77,0.86-3.37,2.59-3.37
		c1.74,0,2.58,1.68,2.58,3.29C236.89,206.28,235.96,207.8,234.3,207.8z"/>
	<path d="M256.84,200.38c-0.83,0-1.58,0.07-2.22,0.17v7.95c0.53,0.06,1.15,0.1,1.9,0.1c1.57,0,2.82-0.41,3.57-1.16
		c0.75-0.74,1.16-1.82,1.16-3.14c0-1.31-0.42-2.24-1.14-2.9C259.41,200.72,258.34,200.38,256.84,200.38z M256.72,207.75
		c-0.41,0-0.79-0.01-1.06-0.06v-6.38c0.28-0.06,0.68-0.11,1.22-0.11c2.21,0,3.29,1.21,3.27,3.12
		C260.16,206.5,258.95,207.75,256.72,207.75z"/>
	<polygon points="263.66,204.73 266.8,204.73 266.8,203.87 263.66,203.87 263.66,201.31 266.98,201.31 266.98,200.44 262.61,200.44 
		262.61,208.52 267.16,208.52 267.16,207.64 263.66,207.64 	"/>
	<path d="M274.72,200.44l-1.44,3.91c-0.36,1.02-0.65,1.91-0.85,2.72h-0.04c-0.2-0.84-0.48-1.73-0.82-2.72l-1.38-3.91h-1.33
		l-0.56,8.08h1l0.22-3.47c0.07-1.21,0.13-2.57,0.16-3.57h0.02c0.23,0.96,0.55,2,0.94,3.14l1.31,3.85h0.79l1.43-3.92
		c0.41-1.12,0.74-2.12,1.02-3.07h0.04c-0.01,1.01,0.06,2.36,0.12,3.49l0.2,3.55h1.02l-0.5-8.08H274.72z"/>
	<path d="M281.44,200.3c-2.16,0-3.75,1.68-3.75,4.25c0,2.45,1.5,4.1,3.63,4.1c2.06,0,3.75-1.48,3.75-4.26
		C285.07,202,283.64,200.3,281.44,200.3z M281.38,207.8c-1.64,0-2.58-1.55-2.58-3.27c0-1.77,0.86-3.37,2.59-3.37
		c1.74,0,2.58,1.68,2.58,3.29C283.97,206.28,283.03,207.8,281.38,207.8z"/>
	<path d="M162.69,236.38c-0.83,0-1.58,0.07-2.22,0.17v7.95c0.53,0.06,1.15,0.1,1.9,0.1c1.57,0,2.82-0.41,3.57-1.16
		c0.75-0.74,1.16-1.82,1.16-3.14c0-1.31-0.42-2.24-1.14-2.9C165.25,236.72,164.19,236.38,162.69,236.38z M162.57,243.75
		c-0.41,0-0.79-0.01-1.06-0.06v-6.38c0.28-0.06,0.68-0.11,1.22-0.11c2.21,0,3.29,1.21,3.27,3.12
		C166.01,242.5,164.8,243.75,162.57,243.75z"/>
	<polygon points="169.5,240.73 172.65,240.73 172.65,239.87 169.5,239.87 169.5,237.31 172.83,237.31 172.83,236.44 168.46,236.44 
		168.46,244.52 173.01,244.52 173.01,243.64 169.5,243.64 	"/>
	<path d="M180.57,236.44l-1.44,3.91c-0.36,1.02-0.65,1.91-0.85,2.72h-0.04c-0.2-0.84-0.48-1.73-0.82-2.72l-1.38-3.91h-1.33
		l-0.56,8.08h1l0.22-3.47c0.07-1.21,0.13-2.57,0.16-3.57h0.02c0.23,0.96,0.55,2,0.94,3.14l1.31,3.85h0.79l1.43-3.92
		c0.41-1.12,0.74-2.12,1.02-3.07h0.04c-0.01,1.01,0.06,2.36,0.12,3.49l0.2,3.55h1.02l-0.5-8.08H180.57z"/>
	<path d="M187.29,236.3c-2.16,0-3.75,1.68-3.75,4.25c0,2.45,1.5,4.1,3.63,4.1c2.06,0,3.75-1.48,3.75-4.26
		C190.92,238,189.49,236.3,187.29,236.3z M187.23,243.8c-1.64,0-2.58-1.55-2.58-3.27c0-1.77,0.86-3.37,2.59-3.37
		c1.74,0,2.58,1.68,2.58,3.29C189.82,242.28,188.88,243.8,187.23,243.8z"/>
	<path d="M209.76,236.38c-0.83,0-1.58,0.07-2.22,0.17v7.95c0.53,0.06,1.15,0.1,1.9,0.1c1.57,0,2.82-0.41,3.57-1.16
		c0.75-0.74,1.16-1.82,1.16-3.14c0-1.31-0.42-2.24-1.14-2.9C212.33,236.72,211.26,236.38,209.76,236.38z M209.64,243.75
		c-0.41,0-0.79-0.01-1.06-0.06v-6.38c0.28-0.06,0.68-0.11,1.22-0.11c2.21,0,3.29,1.21,3.27,3.12
		C213.08,242.5,211.87,243.75,209.64,243.75z"/>
	<polygon points="216.58,240.73 219.72,240.73 219.72,239.87 216.58,239.87 216.58,237.31 219.9,237.31 219.9,236.44 215.54,236.44 
		215.54,244.52 220.08,244.52 220.08,243.64 216.58,243.64 	"/>
	<path d="M227.64,236.44l-1.44,3.91c-0.36,1.02-0.65,1.91-0.85,2.72h-0.04c-0.2-0.84-0.48-1.73-0.82-2.72l-1.38-3.91h-1.33
		l-0.56,8.08h1l0.22-3.47c0.07-1.21,0.13-2.57,0.16-3.57h0.02c0.23,0.96,0.55,2,0.94,3.14l1.31,3.85h0.79l1.43-3.92
		c0.41-1.12,0.74-2.12,1.02-3.07h0.04c-0.01,1.01,0.06,2.36,0.12,3.49l0.2,3.55h1.02l-0.5-8.08H227.64z"/>
	<path d="M234.36,236.3c-2.16,0-3.75,1.68-3.75,4.25c0,2.45,1.5,4.1,3.63,4.1c2.06,0,3.75-1.48,3.75-4.26
		C238,238,236.57,236.3,234.36,236.3z M234.3,243.8c-1.64,0-2.58-1.55-2.58-3.27c0-1.77,0.86-3.37,2.59-3.37
		c1.74,0,2.58,1.68,2.58,3.29C236.89,242.28,235.96,243.8,234.3,243.8z"/>
	<path d="M115.61,272.38c-0.83,0-1.58,0.07-2.22,0.17v7.95c0.53,0.06,1.15,0.1,1.9,0.1c1.57,0,2.82-0.41,3.57-1.16
		c0.75-0.74,1.16-1.82,1.16-3.14c0-1.31-0.42-2.24-1.14-2.9C118.18,272.72,117.11,272.38,115.61,272.38z M115.49,279.75
		c-0.41,0-0.79-0.01-1.06-0.06v-6.38c0.28-0.06,0.68-0.11,1.22-0.11c2.21,0,3.29,1.21,3.27,3.12
		C118.93,278.5,117.72,279.75,115.49,279.75z"/>
	<polygon points="122.43,276.73 125.57,276.73 125.57,275.87 122.43,275.87 122.43,273.31 125.75,273.31 125.75,272.44 
		121.39,272.44 121.39,280.52 125.93,280.52 125.93,279.64 122.43,279.64 	"/>
	<path d="M133.49,272.44l-1.44,3.91c-0.36,1.02-0.65,1.91-0.85,2.72h-0.04c-0.2-0.84-0.48-1.73-0.82-2.72l-1.38-3.91h-1.33
		l-0.56,8.08h1l0.22-3.47c0.07-1.21,0.13-2.57,0.16-3.57h0.02c0.23,0.96,0.55,2,0.94,3.14l1.31,3.85h0.79l1.43-3.92
		c0.41-1.12,0.74-2.12,1.02-3.07h0.04c-0.01,1.01,0.06,2.36,0.12,3.49l0.2,3.55h1.02l-0.5-8.08H133.49z"/>
	<path d="M140.21,272.3c-2.16,0-3.75,1.68-3.75,4.25c0,2.45,1.5,4.1,3.63,4.1c2.06,0,3.75-1.48,3.75-4.26
		C143.85,274,142.42,272.3,140.21,272.3z M140.15,279.8c-1.64,0-2.58-1.55-2.58-3.27c0-1.77,0.86-3.37,2.59-3.37
		c1.74,0,2.58,1.68,2.58,3.29C142.74,278.28,141.81,279.8,140.15,279.8z"/>
	<path d="M68.54,308.38c-0.83,0-1.58,0.07-2.22,0.17v7.95c0.53,0.06,1.15,0.1,1.9,0.1c1.57,0,2.82-0.41,3.57-1.16
		c0.75-0.74,1.16-1.82,1.16-3.14c0-1.31-0.42-2.24-1.14-2.9C71.1,308.72,70.04,308.38,68.54,308.38z M68.42,315.75
		c-0.41,0-0.79-0.01-1.06-0.06v-6.38c0.28-0.06,0.68-0.11,1.22-0.11c2.21,0,3.29,1.21,3.27,3.12
		C71.86,314.5,70.65,315.75,68.42,315.75z"/>
	<polygon points="75.35,312.73 78.5,312.73 78.5,311.87 75.35,311.87 75.35,309.31 78.68,309.31 78.68,308.44 74.31,308.44 
		74.31,316.52 78.86,316.52 78.86,315.64 75.35,315.64 	"/>
	<path d="M86.42,308.44l-1.44,3.91c-0.36,1.02-0.65,1.91-0.85,2.72h-0.04c-0.2-0.84-0.48-1.73-0.82-2.72l-1.38-3.91h-1.33L80,316.52
		h1l0.22-3.47c0.07-1.21,0.13-2.57,0.16-3.57h0.02c0.23,0.96,0.55,2,0.94,3.14l1.31,3.85h0.79l1.43-3.92
		c0.41-1.12,0.74-2.12,1.02-3.07h0.04c-0.01,1.01,0.06,2.36,0.12,3.49l0.2,3.55h1.02l-0.5-8.08H86.42z"/>
	<path d="M93.14,308.3c-2.16,0-3.75,1.68-3.75,4.25c0,2.45,1.5,4.1,3.63,4.1c2.06,0,3.75-1.48,3.75-4.26
		C96.77,310,95.34,308.3,93.14,308.3z M93.08,315.8c-1.64,0-2.58-1.55-2.58-3.27c0-1.77,0.86-3.37,2.59-3.37
		c1.74,0,2.58,1.68,2.58,3.29C95.67,314.28,94.73,315.8,93.08,315.8z"/>
	<path d="M115.61,308.38c-0.83,0-1.58,0.07-2.22,0.17v7.95c0.53,0.06,1.15,0.1,1.9,0.1c1.57,0,2.82-0.41,3.57-1.16
		c0.75-0.74,1.16-1.82,1.16-3.14c0-1.31-0.42-2.24-1.14-2.9C118.18,308.72,117.11,308.38,115.61,308.38z M115.49,315.75
		c-0.41,0-0.79-0.01-1.06-0.06v-6.38c0.28-0.06,0.68-0.11,1.22-0.11c2.21,0,3.29,1.21,3.27,3.12
		C118.93,314.5,117.72,315.75,115.49,315.75z"/>
	<polygon points="122.43,312.73 125.57,312.73 125.57,311.87 122.43,311.87 122.43,309.31 125.75,309.31 125.75,308.44 
		121.39,308.44 121.39,316.52 125.93,316.52 125.93,315.64 122.43,315.64 	"/>
	<path d="M133.49,308.44l-1.44,3.91c-0.36,1.02-0.65,1.91-0.85,2.72h-0.04c-0.2-0.84-0.48-1.73-0.82-2.72l-1.38-3.91h-1.33
		l-0.56,8.08h1l0.22-3.47c0.07-1.21,0.13-2.57,0.16-3.57h0.02c0.23,0.96,0.55,2,0.94,3.14l1.31,3.85h0.79l1.43-3.92
		c0.41-1.12,0.74-2.12,1.02-3.07h0.04c-0.01,1.01,0.06,2.36,0.12,3.49l0.2,3.55h1.02l-0.5-8.08H133.49z"/>
	<path d="M140.21,308.3c-2.16,0-3.75,1.68-3.75,4.25c0,2.45,1.5,4.1,3.63,4.1c2.06,0,3.75-1.48,3.75-4.26
		C143.85,310,142.42,308.3,140.21,308.3z M140.15,315.8c-1.64,0-2.58-1.55-2.58-3.27c0-1.77,0.86-3.37,2.59-3.37
		c1.74,0,2.58,1.68,2.58,3.29C142.74,314.28,141.81,315.8,140.15,315.8z"/>
	<path d="M162.69,308.38c-0.83,0-1.58,0.07-2.22,0.17v7.95c0.53,0.06,1.15,0.1,1.9,0.1c1.57,0,2.82-0.41,3.57-1.16
		c0.75-0.74,1.16-1.82,1.16-3.14c0-1.31-0.42-2.24-1.14-2.9C165.25,308.72,164.19,308.38,162.69,308.38z M162.57,315.75
		c-0.41,0-0.79-0.01-1.06-0.06v-6.38c0.28-0.06,0.68-0.11,1.22-0.11c2.21,0,3.29,1.21,3.27,3.12
		C166.01,314.5,164.8,315.75,162.57,315.75z"/>
	<polygon points="169.5,312.73 172.65,312.73 172.65,311.87 169.5,311.87 169.5,309.31 172.83,309.31 172.83,308.44 168.46,308.44 
		168.46,316.52 173.01,316.52 173.01,315.64 169.5,315.64 	"/>
	<path d="M180.57,308.44l-1.44,3.91c-0.36,1.02-0.65,1.91-0.85,2.72h-0.04c-0.2-0.84-0.48-1.73-0.82-2.72l-1.38-3.91h-1.33
		l-0.56,8.08h1l0.22-3.47c0.07-1.21,0.13-2.57,0.16-3.57h0.02c0.23,0.96,0.55,2,0.94,3.14l1.31,3.85h0.79l1.43-3.92
		c0.41-1.12,0.74-2.12,1.02-3.07h0.04c-0.01,1.01,0.06,2.36,0.12,3.49l0.2,3.55h1.02l-0.5-8.08H180.57z"/>
	<path d="M187.29,308.3c-2.16,0-3.75,1.68-3.75,4.25c0,2.45,1.5,4.1,3.63,4.1c2.06,0,3.75-1.48,3.75-4.26
		C190.92,310,189.49,308.3,187.29,308.3z M187.23,315.8c-1.64,0-2.58-1.55-2.58-3.27c0-1.77,0.86-3.37,2.59-3.37
		c1.74,0,2.58,1.68,2.58,3.29C189.82,314.28,188.88,315.8,187.23,315.8z"/>
	<path d="M209.76,308.38c-0.83,0-1.58,0.07-2.22,0.17v7.95c0.53,0.06,1.15,0.1,1.9,0.1c1.57,0,2.82-0.41,3.57-1.16
		c0.75-0.74,1.16-1.82,1.16-3.14c0-1.31-0.42-2.24-1.14-2.9C212.33,308.72,211.26,308.38,209.76,308.38z M209.64,315.75
		c-0.41,0-0.79-0.01-1.06-0.06v-6.38c0.28-0.06,0.68-0.11,1.22-0.11c2.21,0,3.29,1.21,3.27,3.12
		C213.08,314.5,211.87,315.75,209.64,315.75z"/>
	<polygon points="216.58,312.73 219.72,312.73 219.72,311.87 216.58,311.87 216.58,309.31 219.9,309.31 219.9,308.44 215.54,308.44 
		215.54,316.52 220.08,316.52 220.08,315.64 216.58,315.64 	"/>
	<path d="M227.64,308.44l-1.44,3.91c-0.36,1.02-0.65,1.91-0.85,2.72h-0.04c-0.2-0.84-0.48-1.73-0.82-2.72l-1.38-3.91h-1.33
		l-0.56,8.08h1l0.22-3.47c0.07-1.21,0.13-2.57,0.16-3.57h0.02c0.23,0.96,0.55,2,0.94,3.14l1.31,3.85h0.79l1.43-3.92
		c0.41-1.12,0.74-2.12,1.02-3.07h0.04c-0.01,1.01,0.06,2.36,0.12,3.49l0.2,3.55h1.02l-0.5-8.08H227.64z"/>
	<path d="M234.36,308.3c-2.16,0-3.75,1.68-3.75,4.25c0,2.45,1.5,4.1,3.63,4.1c2.06,0,3.75-1.48,3.75-4.26
		C238,310,236.57,308.3,234.36,308.3z M234.3,315.8c-1.64,0-2.58-1.55-2.58-3.27c0-1.77,0.86-3.37,2.59-3.37
		c1.74,0,2.58,1.68,2.58,3.29C236.89,314.28,235.96,315.8,234.3,315.8z"/>
	<path d="M256.84,308.38c-0.83,0-1.58,0.07-2.22,0.17v7.95c0.53,0.06,1.15,0.1,1.9,0.1c1.57,0,2.82-0.41,3.57-1.16
		c0.75-0.74,1.16-1.82,1.16-3.14c0-1.31-0.42-2.24-1.14-2.9C259.41,308.72,258.34,308.38,256.84,308.38z M256.72,315.75
		c-0.41,0-0.79-0.01-1.06-0.06v-6.38c0.28-0.06,0.68-0.11,1.22-0.11c2.21,0,3.29,1.21,3.27,3.12
		C260.16,314.5,258.95,315.75,256.72,315.75z"/>
	<polygon points="263.66,312.73 266.8,312.73 266.8,311.87 263.66,311.87 263.66,309.31 266.98,309.31 266.98,308.44 262.61,308.44 
		262.61,316.52 267.16,316.52 267.16,315.64 263.66,315.64 	"/>
	<path d="M274.72,308.44l-1.44,3.91c-0.36,1.02-0.65,1.91-0.85,2.72h-0.04c-0.2-0.84-0.48-1.73-0.82-2.72l-1.38-3.91h-1.33
		l-0.56,8.08h1l0.22-3.47c0.07-1.21,0.13-2.57,0.16-3.57h0.02c0.23,0.96,0.55,2,0.94,3.14l1.31,3.85h0.79l1.43-3.92
		c0.41-1.12,0.74-2.12,1.02-3.07h0.04c-0.01,1.01,0.06,2.36,0.12,3.49l0.2,3.55h1.02l-0.5-8.08H274.72z"/>
	<path d="M281.44,308.3c-2.16,0-3.75,1.68-3.75,4.25c0,2.45,1.5,4.1,3.63,4.1c2.06,0,3.75-1.48,3.75-4.26
		C285.07,310,283.64,308.3,281.44,308.3z M281.38,315.8c-1.64,0-2.58-1.55-2.58-3.27c0-1.77,0.86-3.37,2.59-3.37
		c1.74,0,2.58,1.68,2.58,3.29C283.97,314.28,283.03,315.8,281.38,315.8z"/>
	<path d="M68.54,344.38c-0.83,0-1.58,0.07-2.22,0.17v7.95c0.53,0.06,1.15,0.1,1.9,0.1c1.57,0,2.82-0.41,3.57-1.16
		c0.75-0.74,1.16-1.82,1.16-3.14c0-1.31-0.42-2.24-1.14-2.9C71.1,344.72,70.04,344.38,68.54,344.38z M68.42,351.75
		c-0.41,0-0.79-0.01-1.06-0.06v-6.38c0.28-0.06,0.68-0.11,1.22-0.11c2.21,0,3.29,1.21,3.27,3.12
		C71.86,350.5,70.65,351.75,68.42,351.75z"/>
	<polygon points="75.35,348.73 78.5,348.73 78.5,347.87 75.35,347.87 75.35,345.31 78.68,345.31 78.68,344.44 74.31,344.44 
		74.31,352.52 78.86,352.52 78.86,351.64 75.35,351.64 	"/>
	<path d="M86.42,344.44l-1.44,3.91c-0.36,1.02-0.65,1.91-0.85,2.72h-0.04c-0.2-0.84-0.48-1.73-0.82-2.72l-1.38-3.91h-1.33L80,352.52
		h1l0.22-3.47c0.07-1.21,0.13-2.57,0.16-3.57h0.02c0.23,0.96,0.55,2,0.94,3.14l1.31,3.85h0.79l1.43-3.92
		c0.41-1.12,0.74-2.12,1.02-3.07h0.04c-0.01,1.01,0.06,2.36,0.12,3.49l0.2,3.55h1.02l-0.5-8.08H86.42z"/>
	<path d="M93.14,344.3c-2.16,0-3.75,1.68-3.75,4.25c0,2.45,1.5,4.1,3.63,4.1c2.06,0,3.75-1.48,3.75-4.26
		C96.77,346,95.34,344.3,93.14,344.3z M93.08,351.8c-1.64,0-2.58-1.55-2.58-3.27c0-1.77,0.86-3.37,2.59-3.37
		c1.74,0,2.58,1.68,2.58,3.29C95.67,350.28,94.73,351.8,93.08,351.8z"/>
	<path d="M115.61,344.38c-0.83,0-1.58,0.07-2.22,0.17v7.95c0.53,0.06,1.15,0.1,1.9,0.1c1.57,0,2.82-0.41,3.57-1.16
		c0.75-0.74,1.16-1.82,1.16-3.14c0-1.31-0.42-2.24-1.14-2.9C118.18,344.72,117.11,344.38,115.61,344.38z M115.49,351.75
		c-0.41,0-0.79-0.01-1.06-0.06v-6.38c0.28-0.06,0.68-0.11,1.22-0.11c2.21,0,3.29,1.21,3.27,3.12
		C118.93,350.5,117.72,351.75,115.49,351.75z"/>
	<polygon points="122.43,348.73 125.57,348.73 125.57,347.87 122.43,347.87 122.43,345.31 125.75,345.31 125.75,344.44 
		121.39,344.44 121.39,352.52 125.93,352.52 125.93,351.64 122.43,351.64 	"/>
	<path d="M133.49,344.44l-1.44,3.91c-0.36,1.02-0.65,1.91-0.85,2.72h-0.04c-0.2-0.84-0.48-1.73-0.82-2.72l-1.38-3.91h-1.33
		l-0.56,8.08h1l0.22-3.47c0.07-1.21,0.13-2.57,0.16-3.57h0.02c0.23,0.96,0.55,2,0.94,3.14l1.31,3.85h0.79l1.43-3.92
		c0.41-1.12,0.74-2.12,1.02-3.07h0.04c-0.01,1.01,0.06,2.36,0.12,3.49l0.2,3.55h1.02l-0.5-8.08H133.49z"/>
	<path d="M140.21,344.3c-2.16,0-3.75,1.68-3.75,4.25c0,2.45,1.5,4.1,3.63,4.1c2.06,0,3.75-1.48,3.75-4.26
		C143.85,346,142.42,344.3,140.21,344.3z M140.15,351.8c-1.64,0-2.58-1.55-2.58-3.27c0-1.77,0.86-3.37,2.59-3.37
		c1.74,0,2.58,1.68,2.58,3.29C142.74,350.28,141.81,351.8,140.15,351.8z"/>
	<path d="M162.69,344.38c-0.83,0-1.58,0.07-2.22,0.17v7.95c0.53,0.06,1.15,0.1,1.9,0.1c1.57,0,2.82-0.41,3.57-1.16
		c0.75-0.74,1.16-1.82,1.16-3.14c0-1.31-0.42-2.24-1.14-2.9C165.25,344.72,164.19,344.38,162.69,344.38z M162.57,351.75
		c-0.41,0-0.79-0.01-1.06-0.06v-6.38c0.28-0.06,0.68-0.11,1.22-0.11c2.21,0,3.29,1.21,3.27,3.12
		C166.01,350.5,164.8,351.75,162.57,351.75z"/>
	<polygon points="169.5,348.73 172.65,348.73 172.65,347.87 169.5,347.87 169.5,345.31 172.83,345.31 172.83,344.44 168.46,344.44 
		168.46,352.52 173.01,352.52 173.01,351.64 169.5,351.64 	"/>
	<path d="M180.57,344.44l-1.44,3.91c-0.36,1.02-0.65,1.91-0.85,2.72h-0.04c-0.2-0.84-0.48-1.73-0.82-2.72l-1.38-3.91h-1.33
		l-0.56,8.08h1l0.22-3.47c0.07-1.21,0.13-2.57,0.16-3.57h0.02c0.23,0.96,0.55,2,0.94,3.14l1.31,3.85h0.79l1.43-3.92
		c0.41-1.12,0.74-2.12,1.02-3.07h0.04c-0.01,1.01,0.06,2.36,0.12,3.49l0.2,3.55h1.02l-0.5-8.08H180.57z"/>
	<path d="M187.29,344.3c-2.16,0-3.75,1.68-3.75,4.25c0,2.45,1.5,4.1,3.63,4.1c2.06,0,3.75-1.48,3.75-4.26
		C190.92,346,189.49,344.3,187.29,344.3z M187.23,351.8c-1.64,0-2.58-1.55-2.58-3.27c0-1.77,0.86-3.37,2.59-3.37
		c1.74,0,2.58,1.68,2.58,3.29C189.82,350.28,188.88,351.8,187.23,351.8z"/>
	<path d="M209.76,344.38c-0.83,0-1.58,0.07-2.22,0.17v7.95c0.53,0.06,1.15,0.1,1.9,0.1c1.57,0,2.82-0.41,3.57-1.16
		c0.75-0.74,1.16-1.82,1.16-3.14c0-1.31-0.42-2.24-1.14-2.9C212.33,344.72,211.26,344.38,209.76,344.38z M209.64,351.75
		c-0.41,0-0.79-0.01-1.06-0.06v-6.38c0.28-0.06,0.68-0.11,1.22-0.11c2.21,0,3.29,1.21,3.27,3.12
		C213.08,350.5,211.87,351.75,209.64,351.75z"/>
	<polygon points="216.58,348.73 219.72,348.73 219.72,347.87 216.58,347.87 216.58,345.31 219.9,345.31 219.9,344.44 215.54,344.44 
		215.54,352.52 220.08,352.52 220.08,351.64 216.58,351.64 	"/>
	<path d="M227.64,344.44l-1.44,3.91c-0.36,1.02-0.65,1.91-0.85,2.72h-0.04c-0.2-0.84-0.48-1.73-0.82-2.72l-1.38-3.91h-1.33
		l-0.56,8.08h1l0.22-3.47c0.07-1.21,0.13-2.57,0.16-3.57h0.02c0.23,0.96,0.55,2,0.94,3.14l1.31,3.85h0.79l1.43-3.92
		c0.41-1.12,0.74-2.12,1.02-3.07h0.04c-0.01,1.01,0.06,2.36,0.12,3.49l0.2,3.55h1.02l-0.5-8.08H227.64z"/>
	<path d="M234.36,344.3c-2.16,0-3.75,1.68-3.75,4.25c0,2.45,1.5,4.1,3.63,4.1c2.06,0,3.75-1.48,3.75-4.26
		C238,346,236.57,344.3,234.36,344.3z M234.3,351.8c-1.64,0-2.58-1.55-2.58-3.27c0-1.77,0.86-3.37,2.59-3.37
		c1.74,0,2.58,1.68,2.58,3.29C236.89,350.28,235.96,351.8,234.3,351.8z"/>
	<path d="M256.84,344.38c-0.83,0-1.58,0.07-2.22,0.17v7.95c0.53,0.06,1.15,0.1,1.9,0.1c1.57,0,2.82-0.41,3.57-1.16
		c0.75-0.74,1.16-1.82,1.16-3.14c0-1.31-0.42-2.24-1.14-2.9C259.41,344.72,258.34,344.38,256.84,344.38z M256.72,351.75
		c-0.41,0-0.79-0.01-1.06-0.06v-6.38c0.28-0.06,0.68-0.11,1.22-0.11c2.21,0,3.29,1.21,3.27,3.12
		C260.16,350.5,258.95,351.75,256.72,351.75z"/>
	<polygon points="263.66,348.73 266.8,348.73 266.8,347.87 263.66,347.87 263.66,345.31 266.98,345.31 266.98,344.44 262.61,344.44 
		262.61,352.52 267.16,352.52 267.16,351.64 263.66,351.64 	"/>
	<path d="M274.72,344.44l-1.44,3.91c-0.36,1.02-0.65,1.91-0.85,2.72h-0.04c-0.2-0.84-0.48-1.73-0.82-2.72l-1.38-3.91h-1.33
		l-0.56,8.08h1l0.22-3.47c0.07-1.21,0.13-2.57,0.16-3.57h0.02c0.23,0.96,0.55,2,0.94,3.14l1.31,3.85h0.79l1.43-3.92
		c0.41-1.12,0.74-2.12,1.02-3.07h0.04c-0.01,1.01,0.06,2.36,0.12,3.49l0.2,3.55h1.02l-0.5-8.08H274.72z"/>
	<path d="M281.44,344.3c-2.16,0-3.75,1.68-3.75,4.25c0,2.45,1.5,4.1,3.63,4.1c2.06,0,3.75-1.48,3.75-4.26
		C285.07,346,283.64,344.3,281.44,344.3z M281.38,351.8c-1.64,0-2.58-1.55-2.58-3.27c0-1.77,0.86-3.37,2.59-3.37
		c1.74,0,2.58,1.68,2.58,3.29C283.97,350.28,283.03,351.8,281.38,351.8z"/>
</g>
<path id="figures_crosses" class="st17" d="M307.86,144.02c-1.57,0-2.85-1.28-2.85-2.85c0-1.56-1.13-2.96-2.68-3.12
	c-1.78-0.18-3.3,1.23-3.3,2.98v0.14c0,1.58-1.28,2.85-2.85,2.85c-1.56,0-2.96,1.13-3.12,2.69c-0.18,1.78,1.23,3.3,2.98,3.3h0.14
	c1.57,0,2.85,1.28,2.85,2.85c0,1.56,1.13,2.96,2.68,3.12c1.78,0.18,3.3-1.23,3.3-2.98v-0.14c0-1.58,1.28-2.85,2.85-2.85H308
	c1.75,0,3.16-1.52,2.98-3.3C310.82,145.15,309.42,144.02,307.86,144.02z M210.53,10.82c-1.57,0-2.85-1.28-2.85-2.85
	c0-1.56-1.13-2.96-2.68-3.12c-1.78-0.18-3.3,1.23-3.3,2.98v0.14c0,1.58-1.28,2.85-2.85,2.85h0c-1.56,0-2.96,1.13-3.12,2.69
	c-0.18,1.78,1.23,3.3,2.98,3.3h0.14c1.57,0,2.85,1.28,2.85,2.85c0,1.56,1.13,2.96,2.68,3.12c1.78,0.18,3.3-1.23,3.3-2.98v-0.14
	c0-1.57,1.28-2.85,2.85-2.85h0.14c1.75,0,3.16-1.52,2.98-3.3C213.49,11.96,212.09,10.82,210.53,10.82z M105.82,89.39
	c-1.57,0-2.85-1.28-2.85-2.85c0-1.56-1.13-2.96-2.68-3.12c-1.78-0.18-3.3,1.23-3.3,2.98v0.14c0,1.58-1.28,2.85-2.85,2.85
	c-1.56,0-2.96,1.13-3.12,2.69c-0.18,1.78,1.23,3.3,2.98,3.3h0.14c1.57,0,2.85,1.28,2.85,2.85c0,1.56,1.13,2.96,2.68,3.12
	c1.78,0.18,3.3-1.23,3.3-2.98v-0.14c0-1.57,1.28-2.85,2.85-2.85h0.14c1.75,0,3.16-1.52,2.98-3.3
	C108.78,90.53,107.38,89.39,105.82,89.39z"/>
<g id="figures_circles">
	<path class="st17" d="M153.04,54.96c1.65,0,3,1.35,3,3c0,1.66-1.35,3-3,3c-1.65,0-3-1.35-3-3
		C150.04,56.31,151.38,54.96,153.04,54.96 M265.3,67.69L265.3,67.69C265.29,67.69,265.29,67.69,265.3,67.69 M98.43,151.5
		L98.43,151.5C98.42,151.5,98.42,151.5,98.43,151.5 M153.04,48.96c-4.97,0-9,4.03-9,9c0,4.97,4.03,9,9,9c4.97,0,9-4.03,9-9
		C162.04,52.99,158.01,48.96,153.04,48.96L153.04,48.96z M265.3,61.69c-3.31,0-6,2.69-6,6c0,3.32,2.69,6,6,6c3.31,0,6-2.69,6-6
		C271.3,64.38,268.61,61.69,265.3,61.69L265.3,61.69z M98.43,145.5c-3.31,0-6,2.69-6,6c0,3.31,2.69,6,6,6c3.31,0,6-2.69,6-6
		C104.43,148.19,101.74,145.5,98.43,145.5L98.43,145.5z"/>
</g>
</svg>
