<?xml version="1.0" encoding="iso-8859-1"?>
<!-- Generator: Adobe Illustrator 16.0.0, SVG Export Plug-In . SVG Version: 6.00 Build 0)  -->
<!DOCTYPE svg PUBLIC "-//W3C//DTD SVG 1.1//EN" "http://www.w3.org/Graphics/SVG/1.1/DTD/svg11.dtd">
<svg xmlns="http://www.w3.org/2000/svg" xmlns:xlink="http://www.w3.org/1999/xlink" version="1.1" id="Capa_1" x="0px" y="0px" width="512px" height="512px" viewBox="0 0 190.806 190.807" style="enable-background:new 0 0 190.806 190.807;" xml:space="preserve">
<g>
	<path d="M190.019,86.22c-0.282-20.105-1.068-49.267-11.945-66.732C167.769,2.938,142.899,6.391,126.582,6.59   c-29.815,0.363-59.931-9.889-89.69-5.491C12.613,4.689,5.157,20.233,2.347,43.282c-2.726,22.361-2.11,50.393,3.222,72.353   c4.04,16.637,22.886,16.68,37.088,17.505c-2.896,17.342-1.823,35.667-1.851,53.168c-0.006,3.718,4.984,6.148,7.622,3.157   c17.346-19.675,38.666-35.328,54.725-56.181c21.984,0.718,44.527,5.736,66.249,0.35C189.333,128.69,190.248,102.53,190.019,86.22z    M174.708,31.024c-7.27-5.793-15.376-10.996-23.27-15.919c6.916,0.772,13.33,2.809,18.084,7.617   C171.651,24.874,173.347,27.721,174.708,31.024z M143.926,14.69c11.179,8.257,21.731,18.39,33.57,25.577   c0.145,0.65,0.291,1.296,0.421,1.96c-6.792-5.646-17.404-9.103-24.853-12.959c-7.969-4.126-18.15-8.189-25.556-13.996   C132.678,15.081,138.333,14.654,143.926,14.69z M122.537,15.361c0.443,0.004,0.908-0.006,1.363-0.01   c5.726,6.676,14.275,10.846,21.814,15.179c9.733,5.593,21.409,14.848,32.324,17.553c0.301,0.074,0.583,0.08,0.851,0.048   c0.31,2.272,0.581,4.567,0.787,6.871c-0.036,0.007-0.067,0.03-0.104,0.039c-0.155-0.224-0.354-0.436-0.675-0.616   c-2.546-1.636-5.081-3.289-7.613-4.948c-4.984-3.265-9.807-6.011-15.201-8.579C136.156,31.41,115.89,22.649,95.936,13.21   C104.773,14.333,113.622,15.271,122.537,15.361z M93.727,12.921c-0.456,0.424-0.561,1.201,0.153,1.614   c21.781,12.6,45.229,22.134,66.943,34.772c3.548,2.065,13.396,12.082,19.287,11.525c0.134,2.192,0.24,4.354,0.326,6.449   c-10.695-11.837-32.122-19.913-43.218-25.452c-21.62-10.793-45.467-18.943-66.113-31.743   C78.658,10.861,86.188,11.937,93.727,12.921z M12.503,105.643c9.738,6.392,19.236,13.158,28.565,20.159   C26.86,122.563,15.194,123.273,12.503,105.643z M49.803,174.929c0.019-3.715,0.082-7.43,0.129-11.144   c1.608,1.555,3.4,2.915,5.199,4.238c0.32,0.235,0.61,0.504,0.922,0.746C53.945,170.799,51.853,172.844,49.803,174.929z    M57.625,167.271c-0.196-0.102-0.379-0.201-0.53-0.297c-2.436-1.546-4.929-3.143-7.128-5.018c-0.005-0.004-0.01-0.001-0.015-0.005   c0.047-3.591,0.078-7.183,0.124-10.774c4.419,3.553,8.91,7.009,13.125,10.833C61.333,163.752,59.477,165.509,57.625,167.271z    M65.948,159.45c-4.621-4.685-10.309-8.339-15.827-12.025c0.064-4.749,0.089-9.499,0.164-14.249   c0.003-0.141-0.04-0.259-0.052-0.393c8.059,6.229,16.012,12.589,23.911,18.98C71.431,154.345,68.689,156.897,65.948,159.45z    M77.864,148.157c-20.94-16.906-42.256-33.013-65.792-46.033c-0.685-6.062-1.13-12.24-1.465-18.44   c27.852,15.359,49.48,37.969,74.775,56.812C82.929,143.098,80.426,145.655,77.864,148.157z M96.17,127.904   c-2.309,3.042-4.767,5.943-7.295,8.778C66.39,115.537,39.653,92.365,10.497,81.357c-0.188-4.019-0.283-8.044-0.332-12.063   c31.132,15.922,56.859,40.509,87.018,57.646C96.821,127.202,96.475,127.506,96.17,127.904z M104.405,124.402   c-30.114-20.767-60.741-43.897-94.272-58.347c-0.012-4.738,0.112-9.441,0.315-14.112c38.698,22.612,74.393,49.802,112.205,73.798   C116.571,125.2,110.49,124.649,104.405,124.402z M135.141,126.741C93.784,100.603,54.143,71.568,10.575,49.104   c0.035-0.638,0.045-1.287,0.085-1.923c0.218-3.472,0.613-6.947,1.243-10.368c23.813,12.153,46.795,25.454,69.393,39.806   c24.301,15.432,46.167,33.864,69.514,50.443C145.581,127.239,140.358,127.075,135.141,126.741z M158.886,126.482   C139.149,106,112.732,90.033,88.926,74.87C64.686,59.432,39.038,45.326,12.43,34.283c1.005-4.498,2.504-8.857,4.634-12.96   c0.086,0.171,0.192,0.342,0.363,0.503c22.046,20.818,49.234,35.767,75.222,51.019c14.031,8.234,28.239,16.162,42.276,24.386   c12.543,7.348,24.232,16.74,37.063,23.458c0.526,0.275,1.03,0.323,1.472,0.219C169.7,124.334,164.573,125.787,158.886,126.482z    M174.926,119.303c0.117-0.592,0.016-1.247-0.464-1.823c-16.688-20.132-47.792-32.181-70.183-44.548   c-29.289-16.178-58.404-32.33-84.512-53.447c-0.499-0.404-1.054-0.454-1.55-0.321c0.023-0.037,0.039-0.077,0.062-0.115   c1.179-1.973,2.725-3.554,4.523-4.828c54.632,28.84,103.194,66.45,155.413,99.144C177.395,115.744,176.275,117.689,174.926,119.303   z M179.738,107.164C130.137,73.284,80.04,37.719,25.207,12.787c6.012-3.092,13.924-3.65,20.803-3.751   c18.04,17.424,39.915,30.565,61.441,43.175c25.113,14.711,48.9,30.886,73.406,46.35   C180.612,101.443,180.281,104.317,179.738,107.164z M119.292,52.559C95.517,39.265,72.306,25.751,50.91,9.013   c0.429,0,0.884,0,1.294-0.001c4.055-0.012,8.092,0.205,12.125,0.5c17.725,13.263,39.467,21.917,59.2,31.67   c17.983,8.888,44.858,18.61,57.261,35.865c0.067,1.808,0.138,3.528,0.229,5.05c0.183,3.095,0.227,6.193,0.186,9.288   C163.858,75.013,139.621,63.926,119.292,52.559z" fill="#e62b1e"/>
</g>
<g>
</g>
<g>
</g>
<g>
</g>
<g>
</g>
<g>
</g>
<g>
</g>
<g>
</g>
<g>
</g>
<g>
</g>
<g>
</g>
<g>
</g>
<g>
</g>
<g>
</g>
<g>
</g>
<g>
</g>
</svg>
