<?xml version="1.0" encoding="utf-8"?>
<!-- Generator: Adobe Illustrator 21.0.0, SVG Export Plug-In . SVG Version: 6.00 Build 0)  -->
<svg version="1.1" id="Layer_1" xmlns="http://www.w3.org/2000/svg" xmlns:xlink="http://www.w3.org/1999/xlink" x="0px" y="0px"
	 viewBox="0 0 185.5 372" style="enable-background:new 0 0 185.5 372;" xml:space="preserve">
<style type="text/css">
	.st0{fill:#EEEEEE;}
	.st1{fill:#E62B1E;}
	.st2{opacity:0.2;}
</style>
<title>icon-award</title>
<g>
	<path class="st0" d="M132.3,85.6L96.1,73.2c-9.3-3.2-19.4,1.7-22.6,11l-53.1,152c-3.2,9.3,1.7,19.4,11,22.6l10.1,3.5l-2.2,6.4
		c-0.7,2,0.4,4.1,2.3,4.8l1.1,0.4c-1.8,10.1-6.6,27-19.4,48.4C1,359.8,8.3,373.4,9.2,374.9l5.4-3.2c-0.1-0.1-6.1-12.1,14.3-46.1
		c12.9-21.5,18-38.7,20-49.5l0.5,0.2c2,0.7,4.1-0.4,4.8-2.3l2.2-6.4l11.3,3.9c9.3,3.2,19.4-1.7,22.6-11l53.1-152
		C146.6,99,141.6,88.9,132.3,85.6z"/>
	<g>
		
			<ellipse transform="matrix(0.3256 -0.9455 0.9455 0.3256 18.6159 156.5889)" class="st1" cx="119.1" cy="65.2" rx="59.3" ry="59.3"/>
		<g class="st2">
			<g>
				<g>
					<ellipse transform="matrix(0.3256 -0.9455 0.9455 0.3256 46.1008 128.7296)" cx="113.3" cy="32" rx="4.9" ry="3.5"/>
				</g>
				<g>
					<path d="M125.9,50.5c-0.8,2.5-3.1,4.2-4.9,3.5c-1.9-0.6-2.6-3.2-1.8-5.8c0.9-2.5,3.1-4.2,4.9-3.5C126,45.3,126.8,48,125.9,50.5
						z"/>
				</g>
				<g>
					<ellipse transform="matrix(0.3258 -0.9454 0.9454 0.3258 18.6503 136.8996)" cx="105.3" cy="55.4" rx="4.9" ry="3.5"/>
				</g>
				<g>
					<ellipse transform="matrix(0.3256 -0.9455 0.9455 0.3256 -2.3479 121.8445)" cx="84.2" cy="62.6" rx="4.9" ry="3.5"/>
				</g>
				<g>
					<ellipse transform="matrix(0.3257 -0.9455 0.9455 0.3257 22.6754 118.7425)" cx="94.6" cy="43.5" rx="4.9" ry="3.5"/>
				</g>
				<g>
					<path d="M94.4,82.9c-0.8,2.5-3.1,4.2-4.9,3.5c-1.9-0.6-2.6-3.2-1.8-5.8c0.8-2.5,3.1-4.2,4.9-3.5C94.6,77.7,95.3,80.4,94.4,82.9
						z"/>
				</g>
				<g>
					<ellipse transform="matrix(0.3254 -0.9456 0.9456 0.3254 -19.6029 165.6463)" cx="106.3" cy="96.6" rx="4.9" ry="3.5"/>
				</g>
				<g>
					<path d="M130.6,100.6c-0.8,2.5-3.1,4.2-4.9,3.5c-1.9-0.6-2.6-3.2-1.8-5.8c0.8-2.5,3.1-4.2,4.9-3.5
						C130.7,95.4,131.4,98,130.6,100.6z"/>
				</g>
				<g>
					<path d="M124.9,69.1c-0.9,2.5-3.1,4.2-4.9,3.5c-1.9-0.6-2.6-3.2-1.8-5.8s3.1-4.2,4.9-3.5C125,64,125.8,66.6,124.9,69.1z"/>
				</g>
				<g>
					<path d="M136.3,81.2c-0.8,2.5-3.1,4.2-4.9,3.5c-1.9-0.6-2.6-3.2-1.8-5.8c0.8-2.5,3.1-4.2,4.9-3.5
						C136.4,76,137.1,78.7,136.3,81.2z"/>
				</g>
				<g>
					<ellipse transform="matrix(0.3258 -0.9454 0.9454 0.3258 6.261868e-02 153.1302)" cx="107.4" cy="76.5" rx="4.9" ry="3.5"/>
				</g>
				<g>
					<path d="M149.9,88.1c-0.8,2.5-3.1,4.2-4.9,3.5c-1.9-0.6-2.6-3.2-1.8-5.8s3.1-4.2,4.9-3.5C149.9,83,150.7,85.5,149.9,88.1z"/>
				</g>
				<g>
					<path d="M158.6,71.4c-0.8,2.5-3.1,4.2-4.9,3.5c-1.9-0.6-2.6-3.2-1.8-5.8c0.8-2.5,3.1-4.2,4.9-3.5
						C158.6,66.2,159.4,68.8,158.6,71.4z"/>
				</g>
				<g>
					<ellipse transform="matrix(0.3256 -0.9455 0.9455 0.3256 36.3313 170.499)" cx="137.7" cy="59.8" rx="4.9" ry="3.5"/>
				</g>
				<g>
					<ellipse transform="matrix(0.3255 -0.9455 0.9455 0.3255 58.2123 149.4454)" cx="133.9" cy="33.9" rx="4.9" ry="3.5"/>
				</g>
				<g>
					<path d="M153.6,48.2c-0.8,2.5-3.1,4.2-4.9,3.5c-1.9-0.6-2.6-3.2-1.8-5.8c0.8-2.5,3.1-4.2,4.9-3.5
						C153.7,43,154.5,45.7,153.6,48.2z"/>
				</g>
			</g>
		</g>
	</g>
</g>
</svg>
