<?xml version="1.0" encoding="utf-8"?>
<!-- Generator: Adobe Illustrator 21.0.0, SVG Export Plug-In . SVG Version: 6.00 Build 0)  -->
<svg version="1.1" id="Illustration_1_" xmlns="http://www.w3.org/2000/svg" xmlns:xlink="http://www.w3.org/1999/xlink" x="0px"
	 y="0px" viewBox="0 0 759.2 460" style="enable-background:new 0 0 759.2 460;" xml:space="preserve">
<style type="text/css">
	.st0{fill:none;}
	.st1{fill:none;stroke:#020202;stroke-width:4;stroke-miterlimit:10;}
	.st2{fill:#FFFFFF;stroke:#020202;stroke-miterlimit:10;}
	.st3{fill:#FFFFFF;stroke:#020202;}
	.st4{fill:#E62B1E;stroke:#020202;stroke-miterlimit:10;}
	.st5{fill:#231F20;stroke:#020202;stroke-miterlimit:10;}
	.st6{fill:#E62B1E;stroke:#020202;stroke-width:3;stroke-linecap:square;stroke-linejoin:round;stroke-miterlimit:10;}
	.st7{fill:#E62B1E;stroke:#020202;}
	.st8{fill:#E62B1E;stroke:#020202;stroke-width:4;stroke-miterlimit:10;}
</style>
<rect x="98.7" y="-10" class="st0" width="590" height="589"/>
<g>
	<g>
		<path class="st1" d="M139,383.3c-0.4,6.7-1.3,26.9,6,19.7c4.7-4.6,9.1-5.1,13.1,0c3.7,4.6,8.5,7.3,13.1,2c3.5-4,7.7-9.1,13.1-3.9
			c3.6,3.5,7,10.1,13,5.7c4.1-3,6.4-10.4,12.9-7.1c4.7,2.4,6,10.1,12.7,8.3c5.4-1.5,6.2-9.3,12.5-8.9c5.9,0.3,6.8,8.1,12.4,9.1
			c6.6,1.1,7.5-6.7,12.6-8.7c6.6-2.5,8.4,5,12.8,7.7c6.3,3.9,9.1-3.2,12.9-6.4c5.7-4.8,9.5,1.1,13,4.8c5,5.3,9.6,1.3,13.1-3
			c4.3-5.3,9.3-3.9,13.1,1c3.8,4.9,8.8,6.3,13.1,1c3.5-4.3,8.1-8.3,13.1-3c3.5,3.8,7.4,9.6,13,4.8c3.8-3.3,6.7-10.3,12.9-6.4
			c4.4,2.7,6.2,10.3,12.8,7.7c5.1-1.9,6.1-9.7,12.6-8.7c5.7,0.9,6.6,9.1,12.8,9.1"/>
		<g>
			<rect x="28.5" y="251.2" class="st2" width="54.5" height="2.3"/>
			<rect x="13.2" y="251.2" class="st2" width="5.1" height="2.3"/>
		</g>
		<g>
			<rect x="752.9" y="274.5" class="st2" width="6.3" height="6.7"/>
			<rect x="738" y="274.5" class="st2" width="6.3" height="6.7"/>
			<rect x="723.1" y="274.5" class="st2" width="6.3" height="6.7"/>
			<rect x="708.1" y="274.5" class="st2" width="6.3" height="6.7"/>
			<rect x="693.2" y="274.5" class="st2" width="6.3" height="6.7"/>
			<rect x="678.3" y="274.5" class="st2" width="6.3" height="6.7"/>
			<rect x="663.4" y="274.5" class="st2" width="6.3" height="6.7"/>
			<rect x="648.4" y="274.5" class="st2" width="6.3" height="6.7"/>
			<rect x="633.5" y="274.5" class="st2" width="6.3" height="6.7"/>
			<rect x="618.6" y="274.5" class="st2" width="6.3" height="6.7"/>
			<rect x="603.7" y="274.5" class="st2" width="6.3" height="6.7"/>
			<rect x="588.7" y="274.5" class="st2" width="6.3" height="6.7"/>
			<rect x="573.8" y="274.5" class="st2" width="6.3" height="6.7"/>
		</g>
		<g>
			<rect x="373.3" y="271.2" class="st2" width="6.3" height="6.7"/>
			<rect x="358.4" y="271.2" class="st2" width="6.3" height="6.7"/>
			<rect x="343.4" y="271.2" class="st2" width="6.3" height="6.7"/>
			<rect x="328.5" y="271.2" class="st2" width="6.3" height="6.7"/>
			<rect x="313.6" y="271.2" class="st2" width="6.3" height="6.7"/>
			<rect x="298.7" y="271.2" class="st2" width="6.3" height="6.7"/>
			<rect x="283.7" y="271.2" class="st2" width="6.3" height="6.7"/>
			<rect x="268.8" y="271.2" class="st2" width="6.3" height="6.7"/>
			<rect x="253.9" y="271.2" class="st2" width="6.3" height="6.7"/>
			<rect x="238.9" y="271.2" class="st2" width="6.3" height="6.7"/>
			<rect x="224" y="271.2" class="st2" width="6.3" height="6.7"/>
			<rect x="209.1" y="271.2" class="st2" width="6.3" height="6.7"/>
			<rect x="194.2" y="271.2" class="st2" width="6.3" height="6.7"/>
		</g>
		<g>
			<rect x="163.8" y="301.6" class="st2" width="5.8" height="6.7"/>
			<rect x="150.1" y="301.6" class="st2" width="5.8" height="6.7"/>
			<rect x="136.5" y="301.6" class="st2" width="5.8" height="6.7"/>
			<rect x="122.8" y="301.6" class="st2" width="5.8" height="6.7"/>
			<rect x="109.2" y="301.6" class="st2" width="5.8" height="6.7"/>
			<rect x="95.5" y="301.6" class="st2" width="5.8" height="6.7"/>
			<rect x="81.9" y="301.6" class="st2" width="5.8" height="6.7"/>
			<rect x="68.2" y="301.6" class="st2" width="5.8" height="6.7"/>
			<rect x="54.6" y="301.6" class="st2" width="5.8" height="6.7"/>
			<rect x="40.9" y="301.6" class="st2" width="5.8" height="6.7"/>
			<rect x="27.3" y="301.6" class="st2" width="5.8" height="6.7"/>
			<rect x="13.6" y="301.6" class="st2" width="5.8" height="6.7"/>
			<rect y="301.6" class="st2" width="5.8" height="6.7"/>
		</g>
		<g>
			<path class="st2" d="M753.7,326.7c0,0.6,0,1.2-0.1,1.6s-0.2,0.8-0.3,1c-0.1,0.3-0.3,0.4-0.5,0.6c-0.2,0.1-0.4,0.2-0.6,0.2h-10.6
				v11.5c0,0.2-0.1,0.4-0.2,0.6c-0.1,0.2-0.3,0.3-0.6,0.4s-0.6,0.2-1.1,0.3c-0.5,0.1-1,0.1-1.7,0.1s-1.2,0-1.7-0.1s-0.8-0.2-1.1-0.3
				c-0.3-0.1-0.5-0.3-0.6-0.4c-0.1-0.2-0.2-0.4-0.2-0.6v-11.5H724c-0.2,0-0.4-0.1-0.6-0.2c-0.2-0.1-0.3-0.3-0.5-0.6
				c-0.1-0.3-0.2-0.6-0.3-1s-0.1-1-0.1-1.6s0-1.1,0.1-1.6c0.1-0.4,0.2-0.8,0.3-1.1c0.1-0.3,0.3-0.4,0.4-0.6c0.2-0.1,0.3-0.2,0.5-0.2
				h10.7v-11.5c0-0.2,0.1-0.4,0.2-0.6c0.1-0.2,0.3-0.3,0.6-0.5c0.3-0.1,0.6-0.2,1.1-0.3c0.5-0.1,1-0.1,1.7-0.1s1.2,0,1.7,0.1
				s0.8,0.2,1.1,0.3c0.3,0.1,0.5,0.3,0.6,0.5s0.2,0.4,0.2,0.6v11.5h10.7c0.2,0,0.4,0.1,0.5,0.2c0.2,0.1,0.3,0.3,0.4,0.6
				c0.1,0.3,0.2,0.6,0.3,1.1S753.7,326.1,753.7,326.7z"/>
		</g>
		<g>
			<path class="st2" d="M708.7,162.3c0,0.6,0,1.2-0.1,1.6c-0.1,0.4-0.2,0.8-0.3,1c-0.1,0.3-0.3,0.4-0.5,0.6
				c-0.2,0.1-0.4,0.2-0.6,0.2h-10.6v11.5c0,0.2-0.1,0.4-0.2,0.6c-0.1,0.2-0.3,0.3-0.6,0.4c-0.3,0.1-0.6,0.2-1.1,0.3s-1,0.1-1.7,0.1
				s-1.2,0-1.7-0.1s-0.8-0.2-1.1-0.3s-0.5-0.3-0.6-0.4c-0.1-0.2-0.2-0.4-0.2-0.6v-11.5H679c-0.2,0-0.4-0.1-0.6-0.2
				c-0.2-0.1-0.3-0.3-0.5-0.6c-0.1-0.3-0.2-0.6-0.3-1s-0.1-1-0.1-1.6s0-1.1,0.1-1.6c0.1-0.4,0.2-0.8,0.3-1.1s0.3-0.5,0.4-0.6
				c0.2-0.1,0.3-0.2,0.5-0.2h10.7v-11.5c0-0.2,0.1-0.4,0.2-0.6c0.1-0.2,0.3-0.4,0.6-0.5s0.6-0.2,1.1-0.3s1-0.1,1.7-0.1
				s1.2,0,1.7,0.1s0.8,0.2,1.1,0.3s0.5,0.3,0.6,0.5s0.2,0.4,0.2,0.6v11.5h10.7c0.2,0,0.4,0.1,0.5,0.2c0.2,0.1,0.3,0.3,0.4,0.6
				c0.1,0.3,0.2,0.6,0.3,1.1C708.7,161.1,708.7,161.6,708.7,162.3z"/>
		</g>
		<g>
			<g>
				<rect x="28.3" y="173.6" class="st2" width="5.6" height="4.2"/>
				<rect x="89" y="173.6" class="st2" width="11" height="4.2"/>
				<rect x="66.9" y="173.6" class="st2" width="11" height="4.2"/>
				<rect x="44.9" y="173.6" class="st2" width="11" height="4.2"/>
				<rect x="111" y="173.6" class="st2" width="11" height="4.2"/>
				<rect x="221" y="173.6" class="st2" width="11" height="4.2"/>
				<rect x="133" y="173.6" class="st2" width="11" height="4.2"/>
				<rect x="177" y="173.6" class="st2" width="11" height="4.2"/>
				<rect x="199" y="173.6" class="st2" width="11" height="4.2"/>
				<rect x="155" y="173.6" class="st2" width="11" height="4.2"/>
			</g>
			<g>
				<g>
					<path class="st2" d="M49.9,155.5l-24.6,17.1c-0.8,0.1-1.5,0.5-2,1.2c-0.4,0.6-0.5,1.2-0.5,1.9c0,0.6,0.1,1.3,0.5,1.9
						c0.5,0.7,1.2,1.1,2,1.2l24.6,17.1c1.3,0.9,3.1,0.6,4.1-0.7c0.9-1.3,0.6-3.2-0.7-4.1l-22.1-15.4l22.1-15.4
						c1.3-0.9,1.7-2.7,0.7-4.1C53.1,154.9,51.3,154.6,49.9,155.5z"/>
				</g>
			</g>
		</g>
		<g>
			<g>
				<rect x="745" y="204.9" class="st2" width="5.6" height="4.2"/>
				<rect x="679" y="204.9" class="st2" width="11" height="4.2"/>
				<rect x="701" y="204.9" class="st2" width="11" height="4.2"/>
				<rect x="723" y="204.9" class="st2" width="11" height="4.2"/>
				<rect x="657" y="204.9" class="st2" width="11" height="4.2"/>
				<rect x="635" y="204.9" class="st2" width="11" height="4.2"/>
			</g>
			<g>
				<g>
					<path class="st2" d="M729,227.2l24.6-17.1c0.8-0.1,1.5-0.5,2-1.2c0.4-0.6,0.5-1.2,0.5-1.9c0-0.6-0.1-1.3-0.5-1.9
						c-0.5-0.7-1.2-1.1-2-1.2L729,186.8c-1.3-0.9-3.1-0.6-4.1,0.7c-0.9,1.3-0.6,3.2,0.7,4.1l22.1,15.4l-22.1,15.4
						c-1.3,0.9-1.7,2.7-0.7,4.1C725.9,227.8,727.7,228.1,729,227.2z"/>
				</g>
			</g>
		</g>
		<g>
			<g>
				<path class="st2" d="M260,359.9l19-13.2c0.6-0.1,1.2-0.4,1.6-0.9c0.3-0.4,0.4-0.9,0.4-1.4s-0.1-1-0.4-1.4
					c-0.4-0.5-0.9-0.9-1.6-0.9l-19-13.2c-1-0.7-2.4-0.5-3.2,0.6c-0.7,1-0.5,2.4,0.6,3.2l17.1,11.9l-17.1,11.9
					c-1,0.7-1.3,2.1-0.6,3.2C257.5,360.3,259,360.6,260,359.9z"/>
			</g>
			<g>
				<path class="st2" d="M239.6,359.9l19-13.2c0.6-0.1,1.2-0.4,1.6-0.9c0.3-0.4,0.4-0.9,0.4-1.4s-0.1-1-0.4-1.4
					c-0.4-0.5-1-0.9-1.6-0.9l-19-13.2c-1-0.7-2.4-0.5-3.2,0.6c-0.7,1-0.5,2.4,0.6,3.2l17.1,11.9L237,356.1c-1,0.7-1.3,2.1-0.6,3.2
					C237.2,360.3,238.6,360.6,239.6,359.9z"/>
			</g>
			<g>
				<path class="st2" d="M219.3,360.7l19-13.2c0.6-0.1,1.2-0.4,1.5-0.9c0.3-0.4,0.4-1,0.4-1.5s-0.1-1-0.4-1.4
					c-0.4-0.5-0.9-0.9-1.5-0.9l-19-13.2c-1-0.7-2.4-0.5-3.2,0.6c-0.7,1-0.5,2.4,0.6,3.2l17.1,11.9L216.7,357c-1,0.7-1.3,2.1-0.6,3.2
					C216.8,361.2,218.2,361.4,219.3,360.7z"/>
			</g>
			<g>
				<path class="st2" d="M198.9,360.7l19-13.2c0.6-0.1,1.2-0.4,1.5-0.9c0.3-0.4,0.4-1,0.4-1.5s-0.1-1-0.4-1.4
					c-0.4-0.5-0.9-0.9-1.5-0.9l-19-13.2c-1-0.7-2.4-0.5-3.2,0.6c-0.7,1-0.5,2.4,0.6,3.2l17.1,11.9L196.3,357c-1,0.7-1.3,2.1-0.6,3.2
					C196.4,361.2,197.9,361.4,198.9,360.7z"/>
			</g>
		</g>
		<g>
			<path class="st1" d="M476.4,239.7h-33.2h-33c-3.5,0-6.3,2.8-6.3,6.3v135.5c0,3.5,2.8,6.3,6.3,6.3h33h33.2c3.5,0,6.3-2.8,6.3-6.3
				V246.1C482.7,242.6,479.9,239.7,476.4,239.7z"/>
			<path class="st3" d="M443.3,384L443.3,384c-3.3,0-6-2.7-6-6s2.7-5.9,6-5.9l0,0c3.3,0,5.9,2.7,5.9,6
				C449.3,381.3,446.6,384,443.3,384z M443.3,373.4c-2.6,0-4.7,2.1-4.7,4.7s2.1,4.7,4.7,4.7v0.6v-0.6c2.6,0,4.7-2.1,4.7-4.7
				S445.9,373.4,443.3,373.4z"/>
			<rect x="410.1" y="255.1" class="st4" width="66.3" height="115.8"/>
			<path class="st5" d="M451.6,250.8c0,0.5-0.4,0.9-0.9,0.9h-14.9c-0.5,0-0.9-0.4-0.9-0.9l0,0c0-0.5,0.4-0.9,0.9-0.9h14.9
				C451.3,249.9,451.6,250.3,451.6,250.8L451.6,250.8z"/>
		</g>
		<g>
			<polygon class="st6" points="634.1,364.8 634.6,364.8 634.6,293.5 575.3,329.3 			"/>
			<polygon class="st6" points="515.8,293.4 515.8,364.8 516.4,364.8 575.3,329.3 			"/>
			<polygon class="st6" points="575.3,329.3 516.4,364.8 634.1,364.8 			"/>
			<polygon class="st6" points="634.6,293.5 634.6,293.4 515.8,293.4 515.8,293.4 575.3,341.6 			"/>
		</g>
		<g>
			<polygon class="st2" points="320.7,131.7 251.4,131.7 251.4,197.6 268.4,197.6 264.5,220 281.5,197.6 320.7,197.6 			"/>
			<path class="st7" d="M295.5,154c-1.5-0.7-3.6-1.2-6-1.2c-7.9,0-13.4,6.4-13.4,13.4c0,4.5,2.8,7.1,6.1,7.1c3.4,0,6-1.6,8-5h0.2
				c-0.2,3.4,1.9,5,4.2,5c5.3,0,10.1-5,10.1-13.4c0-9.4-6.6-16.3-16.4-16.3c-12.5,0-20.6,10.1-20.6,21.7c0,10.9,7.9,17.6,17.1,17.6
				c3.8,0,7-0.6,10.1-2.3l-0.9-2.4c-2.3,1.3-5.3,2-8.5,2c-8.4,0-14.5-5.8-14.5-15.3c0-11.5,7.7-18.8,17-18.8
				c8.8,0,13.7,5.9,13.7,14.1c0,6.6-3.2,10.4-6.1,10.3c-1.9-0.1-2.5-2-1.7-6.3L295.5,154z M290.4,162.6c-0.6,3.5-3.6,7.7-6.9,7.7
				c-2.5,0-3.7-1.8-3.7-4.3c0-5.5,4-10.2,9-10.2c1.3,0,2.3,0.2,2.8,0.4L290.4,162.6z"/>
		</g>
		<g>
			<polygon class="st2" points="390.6,149.2 528.1,149.2 528.1,213.5 441.6,213.5 445.4,235.4 428.8,213.5 390.6,213.5 			"/>
			<g>
				<rect x="402.8" y="188.3" class="st4" width="113" height="6.1"/>
				<rect x="402.8" y="168.9" class="st4" width="74.4" height="6.1"/>
			</g>
		</g>
		<g>
			<path class="st8" d="M119.2,332.1c-1.8-9.3-2.7-19.1-2.7-29.2c0-14.9,2-29.1,5.7-42.1c3.3-9.1,23-0.4,28.2,2.4
				c4.6-16,10.1-29.7,21.7-38.7c-6.7-6.9-14.8-11.4-23.5-12.5c-1.4-0.2-2.7-0.3-4.1-0.3c-13.3,0-25.3,7.8-33.8,20.4
				c-4.1,7.3-7.6,15.3-10.3,23.8c-4.6,14.3-7.2,30.2-7.2,46.9c0,2.6,0.1,5.2,0.2,7.7c0.7,15,3.5,29.3,8,42.2
				c8.2,16.3,21.6,27.1,36.9,27.7c0.4,0,0.8,0,1.3,0c10.3,0,19.9-4.7,27.6-12.7c-8.8-11.9-18.5-21.6-21.7-38.7
				C130.1,338.6,121.5,336.1,119.2,332.1z"/>
		</g>
		<g>
			<rect x="662.5" y="252.5" class="st2" width="99.2" height="2.3"/>
			<rect x="535.3" y="252.5" class="st2" width="99.2" height="2.3"/>
			<rect x="507.4" y="252.5" class="st2" width="9.3" height="2.3"/>
		</g>
	</g>
</g>
</svg>
