<?xml version="1.0" encoding="utf-8"?>
<!-- Generator: Adobe Illustrator 21.0.0, SVG Export Plug-In . SVG Version: 6.00 Build 0)  -->
<svg version="1.1" id="Illustration_Comments_1_" xmlns="http://www.w3.org/2000/svg" xmlns:xlink="http://www.w3.org/1999/xlink"
	 x="0px" y="0px" viewBox="0 0 512 512" style="enable-background:new 0 0 512 512;" xml:space="preserve">
<style type="text/css">
	.st0{fill:#EEEEEE;}
	.st1{fill:none;stroke:#E62B1E;stroke-width:6;stroke-linecap:round;stroke-linejoin:round;stroke-miterlimit:10;}
	.st2{opacity:0.8;fill:none;stroke:#111111;stroke-width:6;stroke-linecap:round;stroke-linejoin:round;stroke-miterlimit:10;}
	.st3{fill:none;stroke:#000000;stroke-width:6;stroke-linecap:round;stroke-linejoin:round;stroke-miterlimit:10;}
	
		.st4{opacity:0.8;fill:none;stroke:#111111;stroke-linecap:round;stroke-linejoin:round;stroke-miterlimit:100;stroke-dasharray:4,4;}
	.st5{opacity:0.8;fill:#111111;}
	.st6{fill:#E62B1E;}
</style>
<path id="stars_blue" class="st0" d="M111.6,238.2c-1.6,0-2.8-1.3-2.8-2.8c0-1.5-1.1-2.9-2.7-3.1c-1.8-0.2-3.3,1.2-3.3,2.9v0.1
	c0,1.6-1.3,2.8-2.8,2.8c-1.5,0-2.9,1.1-3.1,2.6c-0.2,1.8,1.2,3.3,2.9,3.3h0.1c1.6,0,2.8,1.3,2.8,2.8c0,1.5,1.1,2.9,2.7,3.1
	c1.8,0.2,3.3-1.2,3.3-2.9v-0.1c0-1.6,1.3-2.8,2.8-2.8h0.1c1.7,0,3.1-1.5,2.9-3.3C114.5,239.3,113.1,238.2,111.6,238.2z M224.6,102.2
	c-1.6,0-2.8-1.3-2.8-2.8c0-1.5-1.1-2.9-2.6-3.1c-1.8-0.2-3.3,1.2-3.3,2.9v0.1c0,1.6-1.3,2.8-2.8,2.8c-1.5,0-2.9,1.1-3.1,2.7
	c-0.2,1.8,1.2,3.3,2.9,3.3h0.1c1.6,0,2.8,1.3,2.8,2.8c0,1.5,1.1,2.9,2.6,3.1c1.8,0.2,3.3-1.2,3.3-2.9v-0.1c0-1.6,1.3-2.8,2.8-2.8
	h0.1c1.7,0,3.1-1.5,2.9-3.3C227.5,103.3,226.1,102.2,224.6,102.2z"/>
<path id="stars_red" class="st0" d="M399.5,84.2c-2.1,0-3.8-1.7-3.8-3.8c0-2.1-1.5-3.9-3.5-4.1c-2.3-0.2-4.3,1.6-4.3,3.9v0.2
	c0,2.1-1.7,3.8-3.8,3.8l0,0c-2,0-3.9,1.5-4.1,3.5c-0.2,2.3,1.6,4.3,3.9,4.3h0.2c2.1,0,3.8,1.7,3.8,3.8c0,2.1,1.5,3.9,3.5,4.1
	c2.3,0.2,4.3-1.6,4.3-3.9v-0.2c0-2.1,1.7-3.8,3.8-3.8h0.2c2.3,0,4.1-2,3.9-4.3C403.4,85.7,401.5,84.2,399.5,84.2z"/>
<path id="question_blue_2_" class="st1" d="M476.4,116c3.9-3.9,10.2-3.9,14.1,0c3.9,3.9,3.9,10.2,0,14.1c-3.9,3.8-10.1,3.9-14,0.1
	c0,0-0.2-0.1-0.2-0.1l-3.6,3.6 M466.6,140c0,0-0.8,0.8-0.8,0.7"/>
<path id="question_yellow_2_" class="st2" d="M288.9,53.7c-2.8-4.8-1.1-10.9,3.7-13.7s10.9-1.1,13.7,3.7c2.7,4.7,1.2,10.7-3.5,13.5
	c0,0-0.2,0.1-0.2,0.1l2.5,4.4 M309.6,69.4c0,0,0.5,0.9,0.5,0.9"/>
<path id="question_red_2_" class="st3" d="M133.6,154.1c-4.8-2.8-6.4-8.9-3.7-13.7s8.9-6.4,13.7-3.7c4.7,2.7,6.4,8.7,3.8,13.5
	c0,0-0.1,0.2-0.1,0.2l4.4,2.5 M159.4,157.4c0,0,0.9,0.5,0.9,0.5"/>
<path id="arrow_line" class="st4" d="M259,75c0,0-43.8,12.7-76-19c-45.9-45.2-81.9-78.5-156-32"/>
<polygon id="arrow" class="st5" points="23.6,25.6 21,18 11,38 31,28 "/>
<path id="arrow_line_3_" class="st4" d="M142,318c0,0-26.2,15.1-49.9,2c-30.5-16.8-20-48.2-69.9-44.9"/>
<polygon id="arrow_1_" class="st5" points="19.5,275.6 21.8,267.9 2,278.3 24.1,281.8 "/>
<path class="st6" d="M210.7,210.7c5-60.6,58.2-83.8,115.9-79.4c57.7,4.3,109.1,33.3,103.3,94.7c-4.5,59.4-59.4,61.4-84.4,75.6
	c-11.6,6.5-3.8,40.1-3.8,40.1s-9.7,5.4-33.8,3.5s-35-8.7-35-8.7l0.2-2.5c4.6-56.1,28.5-67,51.1-76.9c22.6-9.8,47.8-11.2,49.6-35.8
	c2.4-31.5-26.1-41.1-51.5-43c-26.2-2-34,12.3-36.3,38L210.7,210.7z M340.1,397.7c-3.7,49.4-79,43.7-75.3-5.7
	C268.6,342.2,343.9,347.9,340.1,397.7z"/>
</svg>
