<?xml version="1.0" encoding="utf-8"?>
<!-- Generator: Adobe Illustrator 21.0.0, SVG Export Plug-In . SVG Version: 6.00 Build 0)  -->
<svg version="1.1" id="Illustration_1_" xmlns="http://www.w3.org/2000/svg" xmlns:xlink="http://www.w3.org/1999/xlink" x="0px"
	 y="0px" viewBox="0 0 742 385" style="enable-background:new 0 0 742 385;" xml:space="preserve">
<style type="text/css">
	.st0{fill:#E62B1E;}
	.st1{fill:#000111;}
	.st2{fill:#EEEEEE;}
	.st3{fill:url(#SVGID_1_);}
	.st4{fill:url(#SVGID_2_);}
	.st5{fill:url(#SVGID_3_);}
	.st6{fill:url(#SVGID_4_);}
	.st7{fill:url(#SVGID_5_);}
	.st8{fill:url(#SVGID_6_);}
	.st9{fill:none;stroke:#EEEEEE;stroke-width:1.8876;stroke-linecap:round;stroke-linejoin:round;}
	.st10{fill:none;stroke:#EEEEEE;stroke-width:1.8876;stroke-linecap:round;stroke-linejoin:round;stroke-dasharray:5.6977,7.5969;}
	.st11{fill:#2B2B2B;}
	.st12{fill-rule:evenodd;clip-rule:evenodd;fill:#E62B1E;}
	.st13{fill-rule:evenodd;clip-rule:evenodd;fill:#EEEEEE;}
</style>
<g>
	<rect x="348.4" y="236.4" class="st0" width="70.4" height="136.1"/>
	<polygon points="455.9,370 413.8,372.6 405.4,245.4 462.4,245.4 	"/>
	<rect x="445.2" y="233.9" class="st0" width="90.2" height="136.1"/>
	<rect x="492.6" y="244.3" class="st1" width="57" height="120.2"/>
	<rect x="593" y="238.3" class="st1" width="57" height="131"/>
	<rect x="621.5" y="233.2" class="st0" width="57" height="136.1"/>
	<rect x="541.7" y="224.9" class="st1" width="57" height="136.1"/>
	<rect x="670.6" y="255.9" class="st0" width="42.2" height="100.4"/>
	<rect x="216.2" y="260.9" class="st1" width="57" height="113.2"/>
	<rect x="318.6" y="260.3" class="st1" width="42" height="111.4"/>
	<rect x="265.9" y="254.6" class="st0" width="57" height="111.4"/>
	<g>
		<rect x="508.3" y="256.3" class="st2" width="10.1" height="4.8"/>
		<rect x="520.6" y="270.4" class="st2" width="10.1" height="4.8"/>
		<rect x="605.7" y="252.9" class="st2" width="10.1" height="4.8"/>
		<rect x="631.4" y="243.1" class="st2" width="10.1" height="4.8"/>
		<rect x="639.8" y="263.9" class="st2" width="10.1" height="4.8"/>
		<rect x="631.4" y="289.1" class="st2" width="10.1" height="4.8"/>
		<rect x="678.5" y="280" class="st2" width="10.1" height="4.8"/>
		<rect x="694.5" y="297.2" class="st2" width="10.1" height="4.8"/>
		<rect x="696.8" y="268.4" class="st2" width="10.1" height="4.8"/>
		<rect x="429.7" y="263.9" class="st2" width="10.1" height="4.8"/>
		<rect x="418.4" y="276.1" class="st2" width="10.1" height="4.8"/>
		<rect x="428.8" y="297" class="st2" width="10.1" height="4.8"/>
		<rect x="381" y="259.3" class="st2" width="10.1" height="4.8"/>
		<rect x="369" y="243.1" class="st2" width="10.1" height="4.8"/>
		<rect x="371.8" y="285.8" class="st2" width="10.1" height="4.8"/>
		<rect x="385.7" y="277.6" class="st2" width="10.1" height="4.8"/>
		<rect x="369.9" y="272.8" class="st2" width="10.1" height="4.8"/>
		<rect x="379.6" y="306.6" class="st2" width="10.1" height="4.8"/>
		<rect x="387.4" y="294.7" class="st2" width="10.1" height="4.8"/>
		<rect x="328.9" y="274" class="st2" width="10.1" height="4.8"/>
		<rect x="341.2" y="288.2" class="st2" width="10.1" height="4.8"/>
		<rect x="328.3" y="302.8" class="st2" width="10.1" height="4.8"/>
		<rect x="297.8" y="283.6" class="st2" width="10.1" height="4.8"/>
		<rect x="278.4" y="268" class="st2" width="10.1" height="4.8"/>
		<rect x="302.9" y="266.1" class="st2" width="10.1" height="4.8"/>
		<rect x="276.9" y="289.1" class="st2" width="10.1" height="4.8"/>
		<rect x="228.2" y="292.7" class="st2" width="10.1" height="4.8"/>
		<rect x="233.2" y="310.2" class="st2" width="10.1" height="4.8"/>
		<rect x="298.4" y="300.4" class="st2" width="10.1" height="4.8"/>
		<rect x="225.6" y="272.8" class="st2" width="10.1" height="4.8"/>
		<rect x="544.6" y="237.9" class="st2" width="10.1" height="4.8"/>
		<rect x="547.2" y="260.5" class="st2" width="10.1" height="4.8"/>
		<rect x="575.2" y="243.1" class="st2" width="10.1" height="4.8"/>
		<rect x="575.2" y="276.1" class="st2" width="10.1" height="4.8"/>
		<rect x="557.8" y="290.6" class="st2" width="10.1" height="4.8"/>
	</g>
	<g>
		<g>
			<rect x="256.2" y="250.7" class="st1" width="4.1" height="17.2"/>
		</g>
		<g>
			<g>
				<circle class="st1" cx="258.3" cy="238.3" r="13.6"/>
				<path class="st1" d="M247.1,235.4c0-2.5,0.7-4.9,1.9-6.9c-2.6,2.5-4.3,6-4.3,9.9c0,7.5,6.1,13.6,13.6,13.6c5,0,9.3-2.7,11.7-6.7
					c-2.4,2.3-5.7,3.7-9.3,3.7C253.1,249,247.1,242.9,247.1,235.4z"/>
			</g>
		</g>
		<g>
			<circle class="st1" cx="251.2" cy="226.5" r="5.5"/>
			<path class="st1" d="M246.7,225.3c0-1,0.3-2,0.8-2.8c-1.1,1-1.7,2.4-1.7,4c0,3,2.4,5.5,5.5,5.5c2,0,3.7-1.1,4.7-2.7
				c-1,0.9-2.3,1.5-3.7,1.5C249.2,230.8,246.7,228.4,246.7,225.3z"/>
		</g>
	</g>
	<g>
		<g>
			<rect x="640.8" y="326.3" class="st1" width="4.1" height="17.2"/>
		</g>
		<g>
			<g>
				<circle class="st1" cx="642.9" cy="313.9" r="13.6"/>
				<path class="st1" d="M631.6,311c0-2.5,0.7-4.9,1.9-6.9c-2.6,2.5-4.3,6-4.3,9.9c0,7.5,6.1,13.6,13.6,13.6c5,0,9.3-2.7,11.7-6.7
					c-2.4,2.3-5.7,3.7-9.3,3.7C637.7,324.6,631.6,318.5,631.6,311z"/>
			</g>
		</g>
		<g>
			<circle class="st1" cx="635.8" cy="302.1" r="5.5"/>
			<path class="st1" d="M631.3,300.9c0-1,0.3-2,0.8-2.8c-1.1,1-1.7,2.4-1.7,4c0,3,2.4,5.5,5.5,5.5c2,0,3.7-1.1,4.7-2.7
				c-1,0.9-2.3,1.5-3.7,1.5C633.8,306.4,631.3,304,631.3,300.9z"/>
		</g>
	</g>
	<g>
		<g>
			<rect x="248.8" y="302" class="st2" width="6.2" height="38.7"/>
			
				<linearGradient id="SVGID_1_" gradientUnits="userSpaceOnUse" x1="232.1554" y1="421.6188" x2="232.1554" y2="437.186" gradientTransform="matrix(1 0 0 1 19.7747 -118.2212)">
				<stop  offset="0" style="stop-color:#EEEEEE"/>
				<stop  offset="1" style="stop-color:#FFFFFF"/>
			</linearGradient>
			<rect x="248.8" y="301.2" class="st3" width="6.2" height="18.1"/>
		</g>
		<g>
			<g>
				<ellipse class="st2" cx="252.3" cy="282" rx="21.7" ry="21.7"/>
				<path class="st2" d="M234.4,277.3c0-4,1.1-7.8,3-11c-4.2,3.9-6.8,9.5-6.8,15.8c0,12,9.7,21.7,21.7,21.7
					c7.9,0,14.8-4.3,18.6-10.6c-3.9,3.7-9.1,5.9-14.8,5.9C244.1,298.9,234.4,289.3,234.4,277.3z"/>
			</g>
			<g>
				<circle class="st2" cx="242.1" cy="298.5" r="7.6"/>
				<path class="st2" d="M235.8,296.9c0-1.4,0.4-2.7,1.1-3.9c-1.5,1.4-2.4,3.3-2.4,5.5c0,4.2,3.4,7.6,7.6,7.6c2.8,0,5.2-1.5,6.5-3.7
					c-1.4,1.3-3.2,2.1-5.2,2.1C239.2,304.4,235.8,301,235.8,296.9z"/>
			</g>
			<g>
				<ellipse class="st2" cx="241.5" cy="263.8" rx="9.4" ry="9.4"/>
				<path class="st2" d="M233.8,261.7c0-1.8,0.5-3.4,1.3-4.8c-1.8,1.7-3,4.1-3,6.8c0,5.2,4.2,9.4,9.4,9.4c3.4,0,6.4-1.9,8.1-4.6
					c-1.7,1.6-4,2.6-6.4,2.6C238,271.1,233.8,266.9,233.8,261.7z"/>
			</g>
		</g>
		<g>
			<ellipse class="st2" cx="267.7" cy="266.3" rx="4.6" ry="4.6"/>
			<path class="st2" d="M263.9,265.3c0-0.9,0.2-1.6,0.6-2.3c-0.9,0.8-1.4,2-1.4,3.3c0,2.5,2,4.6,4.6,4.6c1.7,0,3.1-0.9,3.9-2.2
				c-0.8,0.8-1.9,1.2-3.1,1.2C266,269.8,263.9,267.8,263.9,265.3z"/>
		</g>
		<path class="st2" d="M272.3,266.3c0-2.5-2-4.6-4.6-4.6c-1.6,0-3,0.8-3.8,2c-3.3-2.1-7.3-3.4-11.6-3.4v43.3
			c12,0,21.7-9.7,21.7-21.7c0-4.4-1.3-8.6-3.6-12C271.5,269.2,272.3,267.8,272.3,266.3z"/>
	</g>
	<g>
		<g>
			<rect x="511.3" y="327.7" class="st2" width="4" height="20.4"/>
			
				<linearGradient id="SVGID_2_" gradientUnits="userSpaceOnUse" x1="493.4662" y1="445.0403" x2="493.4662" y2="454.4754" gradientTransform="matrix(1 0 0 1 19.7747 -118.2212)">
				<stop  offset="0" style="stop-color:#EEEEEE"/>
				<stop  offset="1" style="stop-color:#FFFFFF"/>
			</linearGradient>
			<rect x="511.3" y="328.5" class="st4" width="4" height="8.3"/>
		</g>
		<g>
			<polygon class="st2" points="497.5,329.8 529,329.8 513.2,288.2 			"/>
			<polygon class="st2" points="513.2,329.8 529,329.8 513.2,288.2 			"/>
		</g>
	</g>
	<g>
		<g>
			<rect x="481.6" y="321.9" class="st2" width="4" height="20.4"/>
			
				<linearGradient id="SVGID_3_" gradientUnits="userSpaceOnUse" x1="463.8365" y1="439.2574" x2="463.8365" y2="448.6924" gradientTransform="matrix(1 0 0 1 19.7747 -118.2212)">
				<stop  offset="0" style="stop-color:#EEEEEE"/>
				<stop  offset="1" style="stop-color:#FFFFFF"/>
			</linearGradient>
			<rect x="481.6" y="322.8" class="st5" width="4" height="8.3"/>
		</g>
		<g>
			<polygon class="st2" points="467.8,324 499.4,324 483.6,282.4 			"/>
			<polygon class="st2" points="483.6,324 499.4,324 483.6,282.4 			"/>
		</g>
	</g>
	<g>
		<g>
			<rect x="494.8" y="312.4" class="st2" width="5.4" height="27.8"/>
			
				<linearGradient id="SVGID_4_" gradientUnits="userSpaceOnUse" x1="477.6855" y1="429.4003" x2="477.6855" y2="442.2219" gradientTransform="matrix(1 0 0 1 19.7747 -118.2212)">
				<stop  offset="0" style="stop-color:#EEEEEE"/>
				<stop  offset="1" style="stop-color:#FFFFFF"/>
			</linearGradient>
			<rect x="494.8" y="313.5" class="st6" width="5.4" height="11.3"/>
		</g>
		<g>
			<polygon class="st2" points="476,315.3 518.9,315.3 497.5,258.7 			"/>
			<polygon class="st2" points="497.5,315.3 518.9,315.3 497.5,258.7 			"/>
		</g>
	</g>
	<g>
		<g>
			<g>
				<ellipse class="st2" cx="279" cy="341.7" rx="21.7" ry="21.7"/>
				<path class="st2" d="M274.3,359.6c-4,0-7.8-1.1-11-3c3.9,4.2,9.5,6.8,15.8,6.8c12,0,21.7-9.7,21.7-21.7
					c0-7.9-4.3-14.8-10.6-18.6c3.7,3.9,5.9,9.1,5.9,14.8C295.9,349.9,286.2,359.6,274.3,359.6z"/>
			</g>
			<g>
				<circle class="st2" cx="295.5" cy="352" r="7.6"/>
				<path class="st2" d="M293.8,358.2c-1.4,0-2.7-0.4-3.9-1.1c1.4,1.5,3.3,2.4,5.5,2.4c4.2,0,7.6-3.4,7.6-7.6c0-2.8-1.5-5.2-3.7-6.5
					c1.3,1.4,2.1,3.2,2.1,5.2C301.4,354.8,298,358.2,293.8,358.2z"/>
			</g>
			<g>
				<ellipse class="st2" cx="267.8" cy="360.1" rx="9.4" ry="9.4"/>
				<path class="st2" d="M265.7,367.8c-1.8,0-3.4-0.5-4.8-1.3c1.7,1.8,4.1,3,6.8,3c5.2,0,9.4-4.2,9.4-9.4c0-3.4-1.9-6.4-4.6-8.1
					c1.6,1.7,2.6,4,2.6,6.5C275.2,363.6,270.9,367.8,265.7,367.8z"/>
			</g>
		</g>
		<g>
			<ellipse class="st2" cx="263.2" cy="326.4" rx="4.6" ry="4.6"/>
			<path class="st2" d="M262.2,330.1c-0.9,0-1.6-0.2-2.3-0.6c0.8,0.9,2,1.4,3.3,1.4c2.5,0,4.6-2,4.6-4.6c0-1.7-0.9-3.1-2.2-3.9
				c0.8,0.8,1.2,1.9,1.2,3.1C266.8,328.1,264.8,330.1,262.2,330.1z"/>
		</g>
		<path class="st2" d="M263.2,321.8c-2.5,0-4.6,2-4.6,4.6c0,1.6,0.8,3,2,3.8c-2.1,3.4-3.4,7.3-3.4,11.6h43.3
			c0-12-9.7-21.7-21.7-21.7c-4.4,0-8.6,1.3-12,3.6C266.1,322.6,264.8,321.8,263.2,321.8z"/>
	</g>
	<g>
		<g>
			<g>
				<ellipse class="st2" cx="336.4" cy="345.2" rx="21.7" ry="21.7"/>
				<path class="st2" d="M341.1,327.3c4,0,7.8,1.1,11,3c-3.9-4.2-9.5-6.8-15.8-6.8c-12,0-21.7,9.7-21.7,21.7
					c0,7.9,4.3,14.8,10.6,18.6c-3.7-3.9-5.9-9.1-5.9-14.8C319.4,337,329.1,327.3,341.1,327.3z"/>
			</g>
			<g>
				<circle class="st2" cx="319.9" cy="335" r="7.6"/>
				<path class="st2" d="M321.5,328.7c1.4,0,2.7,0.4,3.9,1.1c-1.4-1.5-3.3-2.4-5.5-2.4c-4.2,0-7.6,3.4-7.6,7.6
					c0,2.8,1.5,5.2,3.7,6.5c-1.3-1.4-2.1-3.2-2.1-5.2C313.9,332.1,317.3,328.7,321.5,328.7z"/>
			</g>
			<g>
				<ellipse class="st2" cx="347.6" cy="326.9" rx="9.4" ry="9.4"/>
				<path class="st2" d="M349.6,319.1c1.8,0,3.4,0.5,4.8,1.3c-1.7-1.8-4.1-3-6.8-3c-5.2,0-9.4,4.2-9.4,9.4c0,3.4,1.9,6.4,4.6,8.1
					c-1.6-1.7-2.6-4-2.6-6.5C340.2,323.3,344.4,319.1,349.6,319.1z"/>
			</g>
		</g>
		<g>
			<ellipse class="st2" cx="352.1" cy="360.6" rx="4.6" ry="4.6"/>
			<path class="st2" d="M353.1,356.8c0.9,0,1.6,0.2,2.3,0.6c-0.8-0.9-2-1.4-3.3-1.4c-2.5,0-4.6,2-4.6,4.6c0,1.7,0.9,3.1,2.2,3.9
				c-0.8-0.8-1.2-1.9-1.2-3.1C348.5,358.9,350.6,356.8,353.1,356.8z"/>
		</g>
		<path class="st2" d="M352.1,365.2c2.5,0,4.6-2,4.6-4.6c0-1.6-0.8-3-2-3.8c2.1-3.4,3.4-7.3,3.4-11.6h-43.3c0,12,9.7,21.7,21.7,21.7
			c4.4,0,8.6-1.3,12-3.6C349.2,364.4,350.6,365.2,352.1,365.2z"/>
	</g>
	<g id="background_trees_1_">
		<g>
			<g>
				<rect x="652" y="329.1" class="st2" width="2.8" height="12"/>
				
					<linearGradient id="SVGID_5_" gradientUnits="userSpaceOnUse" x1="633.661" y1="446.6342" x2="633.661" y2="452.9512" gradientTransform="matrix(1 0 0 1 19.7747 -118.2212)">
					<stop  offset="0" style="stop-color:#EEEEEE"/>
					<stop  offset="1" style="stop-color:#FFFFFF"/>
				</linearGradient>
				<rect x="652" y="329.6" class="st7" width="2.8" height="5.6"/>
			</g>
			<g>
				<g>
					<circle class="st2" cx="653.6" cy="319.2" r="11.5"/>
					<path class="st2" d="M644.1,316.7c0-2.2,0.6-4.2,1.6-5.9c-2.2,2.1-3.6,5.1-3.6,8.4c0,6.4,5.2,11.5,11.5,11.5
						c4.2,0,7.9-2.3,9.9-5.7c-2.1,1.9-4.8,3.1-7.9,3.1C649.2,328.2,644.1,323,644.1,316.7z"/>
					<g>
						<ellipse class="st2" cx="647.7" cy="327.7" rx="4.9" ry="5"/>
						<path class="st2" d="M643.6,326.6c0-0.9,0.3-1.8,0.7-2.5c-1,0.9-1.6,2.2-1.6,3.6c0,2.7,2.2,5,4.9,5c1.8,0,3.4-1,4.3-2.4
							c-0.9,0.8-2.1,1.4-3.4,1.4C645.9,331.5,643.6,329.3,643.6,326.6z"/>
					</g>
				</g>
				<path class="st2" d="M653.6,307.6v23.1c6.4,0,11.5-5.2,11.5-11.5C665.1,312.8,660,307.6,653.6,307.6z"/>
			</g>
			<g>
				<circle class="st2" cx="645.3" cy="311.5" r="3.7"/>
				<path class="st2" d="M642.2,310.7c0-0.7,0.2-1.3,0.5-1.9c-0.7,0.7-1.2,1.6-1.2,2.7c0,2.1,1.7,3.7,3.7,3.7c1.4,0,2.6-0.7,3.2-1.8
					c-0.7,0.6-1.6,1-2.6,1C643.9,314.4,642.2,312.7,642.2,310.7z"/>
			</g>
		</g>
		<g>
			<g>
				<g>
					<rect x="661.6" y="311.7" class="st2" width="5.7" height="29.4"/>
					
						<linearGradient id="SVGID_6_" gradientUnits="userSpaceOnUse" x1="644.6681" y1="428.1203" x2="644.6681" y2="443.6213" gradientTransform="matrix(1 0 0 1 19.7747 -118.2212)">
						<stop  offset="0" style="stop-color:#EEEEEE"/>
						<stop  offset="1" style="stop-color:#FFFFFF"/>
					</linearGradient>
					<rect x="661.6" y="312.7" class="st8" width="5.7" height="13.7"/>
				</g>
				<g>
					<g>
						<ellipse class="st2" cx="664.8" cy="295.1" rx="19.9" ry="19.9"/>
						<path class="st2" d="M648.3,290.7c0-3.7,1-7.2,2.8-10.1c-3.8,3.6-6.3,8.8-6.3,14.5c0,11,8.9,19.9,19.9,19.9
							c7.3,0,13.6-3.9,17.1-9.8c-3.6,3.4-8.3,5.4-13.6,5.4C657.3,310.6,648.3,301.7,648.3,290.7z"/>
					</g>
					<g>
						<circle class="st2" cx="655.4" cy="310.2" r="7"/>
						<path class="st2" d="M649.6,308.7c0-1.3,0.4-2.5,1-3.5c-1.3,1.3-2.2,3.1-2.2,5.1c0,3.8,3.1,7,7,7c2.5,0,4.8-1.4,6-3.4
							c-1.3,1.2-2.9,1.9-4.8,1.9C652.7,315.7,649.6,312.6,649.6,308.7z"/>
					</g>
					<g>
						<circle class="st2" cx="647.9" cy="284.8" r="8.6"/>
						<path class="st2" d="M640.8,282.9c0-1.6,0.4-3.1,1.2-4.4c-1.7,1.6-2.7,3.8-2.7,6.3c0,4.8,3.9,8.6,8.6,8.6
							c3.2,0,5.9-1.7,7.4-4.2c-1.5,1.5-3.6,2.4-5.9,2.4C644.7,291.6,640.8,287.7,640.8,282.9z"/>
					</g>
				</g>
				<g>
					<ellipse class="st2" cx="678.9" cy="280.6" rx="4.2" ry="4.2"/>
					<path class="st2" d="M675.4,279.7c0-0.8,0.2-1.5,0.6-2.1c-0.8,0.8-1.3,1.8-1.3,3.1c0,2.3,1.9,4.2,4.2,4.2
						c1.5,0,2.9-0.8,3.6-2.1c-0.8,0.7-1.8,1.1-2.9,1.1C677.3,283.9,675.4,282,675.4,279.7z"/>
				</g>
				<path class="st2" d="M683.1,280.6c0-2.3-1.9-4.2-4.2-4.2c-1.5,0-2.7,0.7-3.5,1.9c-3.1-2-6.7-3.1-10.6-3.1V315
					c11,0,19.9-8.9,19.9-19.9c0-4.1-1.2-7.9-3.3-11C682.4,283.3,683.1,282,683.1,280.6z"/>
			</g>
		</g>
		<g>
			<g>
				<rect x="683.5" y="329.5" class="st1" width="4" height="16.8"/>
			</g>
			<g>
				<g>
					<circle class="st2" cx="685.7" cy="315.6" r="16.1"/>
					<path class="st2" d="M672.4,312.1c0-3,0.8-5.8,2.3-8.2c-3.1,2.9-5.1,7.1-5.1,11.7c0,8.9,7.2,16.1,16.1,16.1
						c5.9,0,11.1-3.2,13.9-7.9c-2.9,2.7-6.8,4.4-11.1,4.4C679.6,328.2,672.4,321,672.4,312.1z"/>
					<g>
						<circle class="st2" cx="677.7" cy="327.5" r="6.9"/>
						<path class="st2" d="M672.1,326c0-1.3,0.4-2.5,1-3.5c-1.3,1.3-2.2,3-2.2,5c0,3.8,3.1,6.9,6.9,6.9c2.5,0,4.7-1.4,5.9-3.4
							c-1.2,1.2-2.9,1.9-4.7,1.9C675.1,332.8,672.1,329.8,672.1,326z"/>
					</g>
				</g>
				<path class="st2" d="M685.7,299.4v32.3c8.9,0,16.1-7.2,16.1-16.1C701.9,306.7,694.6,299.4,685.7,299.4z"/>
			</g>
			<g>
				<g>
					<ellipse class="st2" cx="374.3" cy="341.7" rx="18.7" ry="16.1"/>
					<path class="st2" d="M378.4,328.4c3.5,0,6.7,0.8,9.6,2.3c-3.4-3.1-8.3-5.1-13.6-5.1c-10.4,0-18.7,7.2-18.7,16.1
						c0,5.9,3.7,11.1,9.2,13.9c-3.2-2.9-5.1-6.8-5.1-11.1C359.6,335.6,368,328.4,378.4,328.4z"/>
					<g>
						<path class="st2" d="M368.5,333.8c0-3.8-3.6-6.9-8-6.9c-4.4,0-8,3.1-8,6.9c0,3.8,3.6,6.9,8,6.9
							C364.9,340.6,368.5,337.5,368.5,333.8z"/>
						<path class="st2" d="M362.3,328.1c1.5,0,2.9,0.4,4.1,1c-1.5-1.3-3.5-2.2-5.8-2.2c-4.4,0-8,3.1-8,6.9c0,2.5,1.6,4.7,3.9,5.9
							c-1.3-1.2-2.2-2.9-2.2-4.7C354.3,331.2,357.9,328.1,362.3,328.1z"/>
					</g>
				</g>
				<path class="st2" d="M393.1,341.7h-37.5c0,8.9,8.4,16.1,18.7,16.1C384.7,357.9,393.1,350.7,393.1,341.7z"/>
			</g>
		</g>
	</g>
	<g>
		<path class="st0" d="M290.2,339.8c0,0,5.4-29.2,12.9-29.1c7.4,0.1,11.8,29.1,11.8,29.1"/>
		<path class="st0" d="M277.9,339.8c0,0,5.4-29.2,12.9-29.1c7.4,0.1,11.8,29.1,11.8,29.1"/>
		<ellipse class="st2" cx="290.1" cy="317.9" rx="4.3" ry="4.5"/>
		<ellipse class="st2" cx="302.9" cy="319" rx="4.3" ry="4.5"/>
	</g>
	<path class="st0" d="M397.5,339.5c0,0,0.9-26.3,7.9-26.9c7.6-0.6,13,27.8,13,27.8L397.5,339.5z"/>
	<circle class="st2" cx="407.5" cy="311.6" r="4.5"/>
	<ellipse class="st0" cx="408.1" cy="308.1" rx="6.1" ry="2.6"/>
	<g>
		<g>
			<g>
				<path class="st0" d="M153.7,338.7c-0.1-0.3,0-0.1-0.2-0.5c-0.2-0.4-0.3-0.4-0.6-1.1c-0.3-0.6-1.2-3.1-1.3-3.1
					c-0.1-0.1-0.5,0-0.5,0s0.5-0.8-0.1-1.1c-0.6-0.4-1.9-1.3-1.9-2.7s-0.6-1.7-0.6-2.3c0-0.6-0.1-2.6,0.2-4c0.2-1.5-0.2-1.8,0.1-2.8
					c0.6-2.2,0.3-3.7,0.3-4.2c0-0.6-0.3-1.1-0.3-1.8c0-0.7-0.2-0.7-0.4-1.2c-0.2-0.5-0.1-0.4-0.5-1c-0.3-0.6-0.6-1.5-2.3-1.3
					c-1.7,0.2-1.5,0.5-1.5,0.9c0,0.3,0.2,0.6,0.1,1.2c-0.2,0.7-0.4,0.9-0.2,1.5c0.2,0.6,0.5,0.9,0,1.4c-0.5,0.5-0.1-0.3-0.5,1
					c-0.4,1.3-0.6,2.1-0.7,2.5c0,0.4,0,0.8,0.3,1.3c0.3,0.6,0.5-0.9,0.1,1.4s-0.6,3.5-0.6,3.8s-0.3,1.3-0.3,1.4
					c0,0.2-0.4,0.1-0.7,0.2c-0.3,0-0.1,1.2-0.1,1.9s-0.2,1.9-0.2,2.7c0,0.7,0,1.4,0.2,1.4c0.3,0,1-0.1,1-0.1s0.1,0-0.1,0.5
					c-0.2,0.5,0.4-0.8-0.5,1.3c-0.9,2.2-0.7,2.1-1.1,2.7c-0.4,0.6-0.6,0.8-0.8,1c-0.3,0.3-1.4,0.5-1.4,0.5s-0.7,0.3-0.2,0.6
					c0.5,0.3,2.3,0.7,2.3,0.7l0.8-0.2l0.1,0.3l0.5-0.1l0.2-1.9c0,0,0.8-1,0.8-1.2c0.1-0.2,0.5-1.2,0.8-1.4c0.3-0.2,0.3-1,0.8-1.2
					c0.5-0.1,0.9-0.1,2.3-0.1c1.4,0,1.8-0.2,2-0.4c0.1-0.1,0.3-0.1,0.5,0.3c0.1,0.4,0.8,1.3,1.2,2c0.3,0.6,0.3,0.8,0.3,1
					s-0.2,0.9-0.5,1.1c-0.3,0.2-1.3,0.3-0.9,0.6c0.3,0.3,1.9,0.4,1.9,0.4s0.5-0.5,0.6-0.7c0.1-0.2,0.4-0.3,0.6-0.2s1.1-0.4,1.1-0.4
					S153.8,338.9,153.7,338.7z M144,327.4c0-0.2-0.7-0.1-0.7-0.1c0.1-0.1,0.3-1.1,0.3-1.6c0-0.4,0.1-0.3,0.2-0.2
					c0.1,0.1,0.1,0.3,0.1,0.5s0,0.6,0.1,1C144.1,327.4,144,327.6,144,327.4z"/>
			</g>
		</g>
		<path class="st0" d="M128,320c0.2,0.2,0.1,2.9,0.2,3c0.1,0.1,0.2-0.1,0.2,0.1c0,0.3-0.1,0.2-0.1,1.3c0,1.1,0.1,3,0.4,3.7
			c0.3,0.7,0.3,0.3,0.1,2.1c-0.2,1.8-0.1,2.1-0.3,2.8s-0.4,0.6-0.6,1.7c-0.3,1.1-1.3,2.2-1.1,2.5c0.1,0.3-0.4,0.4-0.4,0.4
			s-1.1,0.8-0.1,1.2c0,0,0.6,0.1,0.6,0.2c0,0,0,0.3,0,0.3h1.6l0-1.3c0,0,0.1-0.1,0.2-0.5c0.1-0.4,0-0.5,0.1-0.7
			c0.2-0.2,1.6-3.7,1.6-3.7s-0.2-0.4,0.2,0c0.4,0.4,0.7,1.6,1,1.9c0.3,0.3,0.9,1.5,1,1.8c0.1,0.3,0.2,0.2,0.2,0.7
			c0,0.5,0.2,0.8,0,0.9c-0.2,0.2-1.2,0.2-1.3,0.4c-0.2,0.3-0.2,0.7-0.2,0.7s1.6,0.4,2.2,0.2c0.6-0.2,0.7-0.4,1-0.4
			c0.3,0,0.9-0.1,1.2-0.2c0.3-0.1,0.5-0.3,0.5-0.4c0-0.1-0.6-1.1-0.6-1.1s-0.1-0.3-0.3-0.8c-0.2-0.5,0-0.3-0.6-1.5s-1.6-4.7-1.9-5.1
			c-0.3-0.4-0.7-0.8-0.7-1.1c0-0.4-0.1-0.1,0.1-0.6c0.2-0.5,1.3-2.2,1.3-3.4c0-1.2-0.1-2.5-0.2-2.6c0-0.1,0.6-0.1,0.7-0.3
			c0.1-0.2,0-0.5,0.2-0.7c0.2-0.3,0.5-0.5,0.8-0.8c0.3-0.4-0.3-1.7-0.7-2.7c-0.4-1-0.6-2.3-1.8-2.9c-1.2-0.6-1.5-0.5-1.5-0.9
			s0.1-1,0.1-1s0.3-0.1,0.1-0.8c-0.2-0.7,0.1-1.6-1.7-1.6c-0.9,0-1.3,0.2-1.3,0.2s-0.3,0.1-0.2,0.3c0,0.3,0,1,0,1.1
			c0,0.1,0-0.1,0,0.5c0,0.6-0.1,0.8,0,0.9s0.1-0.1,0.3,0.4c0.1,0.5,0.5,0.8,0.6,0.9c0.1,0,0.2,0.2,0,0.2s-0.9,0.3-1.2,1.2
			c-0.3,0.9-0.5,1.5-1,2.1c-0.6,0.6-1.5,1.6-1.7,1.9c-0.2,0.3-0.8,0.9-1.4,1.4c-0.6,0.5-1.2,0.5-1.2,1c0,0.5,0.1,1.3,0.5,1.2
			c0.4-0.1-0.1-0.4,0-0.5c0-0.1,0-0.2,0.4-0.2c0.4,0,1.1-0.3,1.6-0.5c0.4-0.2,2.4-2,2.8-2.4C127.9,320,127.9,319.9,128,320z"/>
		<ellipse class="st2" cx="128.6" cy="313.2" rx="2.2" ry="2.1"/>
		<ellipse class="st2" cx="145.4" cy="314" rx="2.2" ry="2.3"/>
	</g>
	<path class="st0" d="M535.4,235.2c-0.4-1.7,1-7.5,1.4-9.3c2.2-8.9-0.2-16.5-6.3-23c-3.2-3.4-6.5-6.7-9.9-9.8
		c-2.7-2.5-5.6-5-8.8-6.9c-6.8-4.1-13.8-7.7-21-11.7c-1.6-2.8,2.5-5.2,1-8.4c-0.6-0.8-1.3-1.6-1.7-2.1c-0.8-3.2,0.5-6.1-1.2-9.3
		c-1.5,3.3-0.4,6.2-0.9,8.9c-0.8,1.4-1.6,2.7-2.1,3.7c0.2,2.7,3,3.9,1.9,7c-2.2,1.4-4.8,3.3-7.6,4.9c-2.3,1.4-4.9,2.2-7.2,3.7
		c-6.8,4.4-13.4,9.1-18.9,15.1c-1,1.1-2.2,2.1-3.2,3.2c-2.5,3-5.2,5.7-6.6,9.4c-1.3,3.4-2.3,6.8-2,10.5c0.1,1.5,0.6,2.9,1.1,5.1
		c1.8,3.2,2.5,4.6,1.9,9.1"/>
	<g>
		<path class="st1" d="M167.3,287.2c6.5,17.3,13,34.6,19.6,52.2c-1.7,0-3.3,0.1-4.8-0.1c-0.4,0-0.7-0.9-0.9-1.5
			c-4.3-13-8.5-26-12.7-39c-2.5-7.6-5-15.3-7.5-22.9c-0.1-0.4-0.3-0.8-0.8-1c6,21.4,11.9,42.8,17.9,64.5c-1.2,0-2.2,0.1-3-0.1
			c-0.4-0.1-0.9-0.8-1-1.3c-3.1-11.3-6.1-22.7-9.1-34c-3.6-13.4-6.9-26.8-10.8-40c-2.2-7.4-5.8-14.3-10.6-20.3
			c-3.4-4.3-5.9-4.3-9.2,0.2c-5.1,6.9-8.7,14.7-10.9,23c-2.8,10.5-7.8,20.1-12.4,29.9c-6.4,13.7-12.9,27.3-19.3,41
			c-0.6,1.4-1.4,2.1-2.9,1.8c-0.9-0.1-1.9,0-3.2,0c8.9-17.2,17.7-34.2,26.5-51.1c-0.1-0.1-0.3-0.2-0.4-0.3c-0.3,0.5-0.6,0.9-0.9,1.4
			c-9.2,15.9-18.4,31.9-27.5,47.9c-0.9,1.6-1.9,2.4-3.8,2.1c-0.8-0.1-1.5,0-2.7,0c10.5-17.2,20.8-34.1,31.1-51
			c-0.1-0.1-0.2-0.1-0.3-0.2c-0.3,0.5-0.7,1-1,1.4c-10.7,15.9-21.3,31.8-31.9,47.8c-1.1,1.6-2.2,2.3-4,2.1c-0.5-0.1-1,0-2,0
			c11.4-16.4,22.7-32.6,33.9-48.8c-0.1-0.1-0.2-0.2-0.3-0.3c-0.4,0.5-0.8,0.9-1.2,1.4c-11.6,15.3-23.1,30.5-34.6,45.8
			c-1,1.3-2,2.1-3.7,1.9c-0.8-0.1-1.6,0-2.8,0c11.1-14.4,22.1-28.5,33-42.6c-0.1-0.1-0.2-0.2-0.3-0.3c-0.4,0.5-0.9,0.9-1.3,1.4
			c-11.3,13.3-22.6,26.7-33.9,40c-0.9,1-1.7,1.6-3,1.4c-0.9-0.1-1.9,0-3.3,0c11.6-13.8,22.9-27.4,34.2-41c-0.1-0.1-0.2-0.2-0.3-0.3
			c-1.3,1.4-2.6,2.8-3.9,4.2c-10.9,12-21.9,24.1-32.9,36.1c-0.5,0.5-1.4,0.9-2.1,0.9c-1.4,0.1-2.9,0-3.8,0c1.7-1.9,3.5-4.1,5.5-6.1
			C59,322.5,70.1,311.9,81,301c10.3-10.4,20.5-20.9,29.8-32.3c6-7.3,11.1-15.2,13.8-24.4c1.3-4.6,2-9.4,2.1-14.2
			c0.1-6.8,0.2-13.6,0.2-20.4c0-3.2-0.3-6.3-0.5-9.7c7.3,0,14.5,0,21.6,0c0,5.7-0.1,11.3,0,16.9c0.2,7.8,0.6,15.5,1.9,23.2
			c2,12.2,8.5,22.1,16.6,30.9c10.7,11.5,21.5,22.9,32.5,34.1c10.9,11.2,22.1,22.2,33.2,33.2c0.3,0.3,0.6,0.6,1.1,1.1
			c-2.7,0-5.2,0-7.6,0c-0.5,0-1-0.5-1.3-0.9c-11.3-13-22.5-26-33.8-39.1c-0.4-0.4-0.7-0.8-1.1-1.2c-0.1,0.1-0.2,0.2-0.3,0.3
			c10.7,13.5,21.4,27.1,32.4,41c-1.8,0-3.3,0.1-4.8-0.1c-0.4,0-0.9-0.7-1.2-1.1c-8.5-11.1-16.9-22.3-25.3-33.4
			c-2.1-2.8-4.2-5.6-6.4-8.3c-0.1,0.1-0.3,0.2-0.4,0.3c9.7,14.1,19.4,28.2,29.3,42.6c-1.8,0-3.2,0.1-4.5-0.1
			c-0.5-0.1-1.1-0.7-1.4-1.3c-8-12.8-15.9-25.6-23.8-38.4c-1.7-2.7-3.4-5.5-5.1-8.2c-0.2,0.1-0.3,0.2-0.5,0.3
			c8.8,15.8,17.6,31.5,26.6,47.7c-1.6,0-2.9,0.1-4.2-0.1c-0.4,0-0.8-0.7-1.1-1.2c-7.6-14.5-15.1-29-22.7-43.5
			c-1.1-2-2.1-4.1-3.2-6.1c-0.1,0.1-0.3,0.1-0.4,0.2c7.7,16.8,15.5,33.6,23.3,50.6c-1.8,0-3.3,0.1-4.8-0.1c-0.4,0-0.8-0.8-1-1.3
			c-3.9-9-7.8-17.9-11.7-26.9c-3.3-7.6-6.6-15.1-9.8-22.7c-0.2-0.5-0.5-1-0.7-1.5C167.6,287.1,167.4,287.1,167.3,287.2z"/>
		<path class="st1" d="M138,200c0,5.7,9.9-3.2,10,2.4c0.2,7.8,0.6,30,1.9,37.7c2,12.2,8.5,22.1,16.6,30.9
			c10.7,11.5,21.5,22.9,32.5,34.1c10.9,11.2,22.1,22.2,33.2,33.2c0.3,0.3,0.6,0.6,1.1,1.1c-2.7,0-5.2,0-7.6,0c-0.5,0-1-0.5-1.3-0.9
			c-11.3-13-22.5-26-33.8-39.1c-0.4-0.4-0.7-0.8-1.1-1.2c-0.1,0.1-0.2,0.2-0.3,0.3c10.7,13.5,21.4,27.1,32.4,41
			c-1.8,0-3.3,0.1-4.8-0.1c-0.4,0-0.9-0.7-1.2-1.1c-8.5-11.1-16.9-22.3-25.3-33.4c-2.1-2.8-4.2-5.6-6.4-8.3
			c-0.1,0.1-0.3,0.2-0.4,0.3c9.7,14.1,19.4,28.2,29.3,42.6c-1.8,0-3.2,0.1-4.5-0.1c-0.5-0.1-1.1-0.7-1.4-1.3
			c-8-12.8-15.9-25.6-23.8-38.4c-1.7-2.7-3.4-5.5-5.1-8.2c-0.2,0.1-0.3,0.2-0.5,0.3c8.8,15.8,17.6,31.5,26.6,47.7
			c-1.6,0-2.9,0.1-4.2-0.1c-0.4,0-0.8-0.7-1.1-1.2c-7.6-14.5-15.1-29-22.7-43.5c-1.1-2-2.1-4.1-3.2-6.1c-0.1,0.1-0.3,0.1-0.4,0.2
			c7.7,16.8,15.5,33.6,23.3,50.6c-1.8,0-3.3,0.1-4.8-0.1c-0.4,0-0.8-0.8-1-1.3c-3.9-9-7.8-17.9-11.7-26.9
			c-3.3-7.6-6.6-15.1-9.8-22.7c-0.2-0.5-0.5-1-0.7-1.5c-0.1,0.1-0.2,0.1-0.4,0.2c6.5,17.3,13,34.6,19.6,52.2c-1.7,0-3.3,0.1-4.8-0.1
			c-0.4,0-0.7-0.9-0.9-1.5c-4.3-13-8.5-26-12.7-39c-2.5-7.6-5-15.3-7.5-22.9c-0.1-0.4-0.3-0.8-0.8-1c6,21.4,11.9,42.8,17.9,64.5
			c-1.2,0-2.2,0.1-3-0.1c-0.4-0.1-0.9-0.8-1-1.3c-3.1-11.3-6.1-22.7-9.1-34c-3.6-13.4-6.9-26.8-10.8-40c-2.2-7.4-9.7-17.6-14.6-23.7
			"/>
		<path class="st1" d="M171.3,339.5c-3.8,0-7.5,0-11.2-0.1c-0.3,0-0.9-0.7-1-1.1c-0.7-5-1.3-10-2-15.1c-0.8-6.1-1.6-12.1-2.3-18.2
			c-0.8-6.1-1.7-12.2-2.4-18.3c-0.7-5.8-2.3-11.2-6.4-15.5c-3.7-3.9-8.9-3.7-12.5,0.3c-3,3.3-4.3,7.4-5.4,11.7
			c-4.7,18.2-9.4,36.5-14.1,54.7c-0.3,1.2-0.8,1.6-2,1.5c-2.4-0.1-4.8,0-7.4,0c1.1-4,2.2-7.7,3.3-11.4c6.6-22,13.2-44.1,19.7-66.1
			c1.8-6.1,4.8-11.7,8.9-16.6c2-2.3,3.3-2.6,5.3-0.3c2.3,2.7,4.5,5.7,6.2,8.8c3.9,6.9,6,14.6,8,22.2c5.2,20.5,10.1,41.1,15.1,61.7
			C171.2,338.2,171.2,338.8,171.3,339.5z"/>
		<path class="st1" d="M121.1,198.7c0.8,0,1.3,0,1.8,0c1.1-0.1,1.5,0.4,1.5,1.5c0.1,7.5,0.4,15,0.2,22.4c-0.2,7-1,13.9-2.5,20.8
			c-1.4,6.6-4.7,12.2-9.1,17.1c-9,10.2-18,20.6-27.3,30.5c-11.2,11.9-22.9,23.4-34.4,35.1c-4.2,4.2-8.5,8.4-12.8,12.5
			c-0.4,0.4-1,0.8-1.6,0.8c-2.7,0.1-5.4,0-8.6,0c0.6-0.6,1-1,1.4-1.4c19.9-18.1,39.7-36.5,58.5-55.8c7.8-8,15.1-16.5,22.6-24.8
			c5.2-5.8,7.2-12.9,8.3-20.4c1.7-12,2-24.2,1.9-36.3C121.1,200.2,121.1,199.5,121.1,198.7z"/>
		<path class="st1" d="M244.5,339.5c-2.7,0-5.4,0.1-8.1,0c-0.6,0-1.3-0.5-1.8-1c-9.7-9.7-19.5-19.3-29-29.2
			c-11.2-11.7-22.2-23.5-33.2-35.4c-4.8-5.2-9-10.8-13.6-16.3c-4.5-5.5-6.5-11.9-7.7-18.8c-1.9-11.5-1.8-23-1.5-34.6
			c0-1.8,0.3-3.5,0.4-5.4c1,0,1.9,0,3.1,0c-0.1,1.3-0.2,2.5-0.2,3.7c0.2,7.6,0.3,15.2,0.8,22.7c0.3,5.1,1.2,10.3,1.8,15.4
			c0.9,6.5,3.5,12.2,7.8,17.1c7.3,8.2,14.4,16.6,22.1,24.5c18.7,19.3,38.2,37.7,57.9,55.9c0.4,0.3,0.8,0.7,1.2,1
			C244.6,339.2,244.6,339.4,244.5,339.5z"/>
		<path class="st1" d="M169.7,201.1c0,20.1,0,39.9,0,59.7c-0.3,0-0.4,0.1-0.4,0c-5.4-6-10-12.6-12-20.5c-1.5-5.9-1.7-12.1-1.7-18.2
			c0-6,0-11.9,0-17.9c0-3.2,0-3.2,3.3-3.2C162.5,201.1,166,201.1,169.7,201.1z"/>
		<path class="st1" d="M104.2,261.4c0-0.7-0.1-1-0.1-1.3c0-19.1,0-38.2,0-57.3c0-1.3,0.4-1.7,1.7-1.7c3.6,0.1,7.2,0.1,10.8,0
			c1.2,0,1.5,0.4,1.5,1.5c0,7,0.4,13.9,0.2,20.9c-0.2,6.5-0.3,13.1-2.4,19.3C113.5,249.8,109.3,255.7,104.2,261.4z"/>
		<path class="st1" d="M94.6,339.5c7.7-18.1,15.3-35.9,22.9-53.7c0.1,0,0.2,0.1,0.2,0.1c-0.9,2.9-1.7,5.8-2.6,8.6
			c-4.4,14.5-8.8,28.9-13.1,43.4c-0.4,1.2-0.8,1.7-2.1,1.6C98.3,339.4,96.6,339.5,94.6,339.5z"/>
	</g>
	<path class="st0" d="M547.6,347c-0.3,0-4.4,0-4.8,0c0-0.2-0.1,2.3-0.1,2.1c0-0.8,0-4.2,0-5c0-0.3-0.1-0.6-0.3-0.8
		c-1-1.3-1.4-2.9-1.4-4.5c0-0.4,0-0.9,0-1.3c-0.3-0.2-0.6-0.3-0.8-0.5c-0.3-0.2-0.6-0.4-0.8-0.7c-0.5-0.5-0.7-1-0.6-1.7
		c0-0.1,0-0.2,0-0.3c-0.9-0.6-1.8-1.2-1.7-2.5c-0.2,0-0.4-0.1-0.6-0.1c-0.1-0.4,0-0.9-0.1-1.4c0.5-0.5,1.1-0.9,1.7-1.2
		c0.8-0.4,1.6-0.5,2.5-0.6c1.1-0.1,2.2-0.3,3.3-0.5c0.7-0.1,1.2-0.5,1.5-1.1c0.1-0.2,0.2-0.4,0.3-0.6c0.3,0,0.5,0,0.8,0
		c4,0,8,0,11.9,0c0.3,0,0.5,0,0.8,0c0.2-0.3,0.1-0.5,0.1-0.7c0-1.8,0.1-3.6,0.1-5.4c0.1-3.2,0.1-6.4,0.2-9.6
		c0.1-5.1,0.3-10.1,0.4-15.2c0.1-2.2,0.1-4.4,0.2-6.6c0.1-3.2,0.1-6.4,0.2-9.6c0.1-5.1,0.3-10.2,0.4-15.3c0.1-2.2,0.1-4.5,0.2-6.7
		c0.1-3.2,0.1-6.5,0.2-9.7c0.1-5,0.3-10,0.4-15c0.1-2.2,0.1-4.4,0.2-6.6c0.1-3.2,0.1-6.5,0.2-9.7c0.1-5,0.3-10.1,0.4-15.1
		c0.1-2.2,0.1-4.4,0.2-6.6c0.1-3.2,0.1-6.5,0.2-9.7c0.1-5,0.3-10.1,0.4-15.1c0.1-3.1,0.1-6.2,0.2-9.3c0-0.4-0.1-0.8-0.3-1.2
		c-1.2-1.7-2.1-3.5-2.8-5.3c-1-2.4-1.9-4.8-2.9-7.2c-0.9-2.3-1.9-4.5-3-6.7c-0.8-1.6-1.8-3-2.8-4.4c-1-1.3-2.2-2.5-3.4-3.6
		c-0.1-0.1-0.3-0.2-0.4-0.4c0,0,0,0,0-0.1c0.2-0.1,0.4,0,0.6,0c0.2,0,0.4,0,0.6,0c0.2,0,0.4,0,0.6,0c0.2,0,0.4,0,0.6,0
		c0.2,0,0.4,0,0.6,0c0.2,0,0.4,0,0.6,0c0-0.4,0.1-0.8,0.1-1.2c0.3,0,0.6-0.1,0.9-0.1c0-0.2,0.1-0.3,0.1-0.5c0-1.2,0-2.4,0-3.6
		c0-0.3,0-0.5,0-0.8c0.2,0,0.3-0.1,0.5-0.1c0.5,0,0.9,0,1.4,0c0.2,0,0.3,0,0.5,0c0.1-0.4,0-0.9,0.1-1.3c0-0.4,0-0.9,0-1.3
		c0-0.4,0-0.8,0-1.3c0.4-0.1,0.7-0.1,1-0.1c0.4,0,0.7,0,1.1,0c0.3,0,0.7,0,1-0.1c0-0.1,0.1-0.3,0.1-0.4c0-0.8,0-1.7,0-2.5
		c0-0.2,0-0.5,0-0.7c0.5-0.2,1,0,1.5-0.2c0.1-0.4,0.1-0.7,0.2-1.1c0.5-2.4,1.4-4.6,3-6.4c1.3-1.6,2.9-2.7,4.9-3.2
		c0.5-0.1,0.9-0.2,1.4-0.3c0-0.1,0.1-0.2,0.1-0.4c0-0.3,0-0.6,0-0.8c0-30,0-60,0-90.1c0-0.3,0-0.7,0-1c0.5-0.2,0.8-0.2,1.5-0.1
		c0,0.1,0,0.2,0,0.3c0,0.3,0,0.6,0,0.8c0,30,0,60.1,0,90.1c0,0.3,0,0.7,0.1,1.1c0.2,0,0.3,0.1,0.5,0.1c1.8,0.4,3.3,1.3,4.6,2.5
		c1.7,1.6,2.7,3.6,3.4,5.8c0.2,0.7,0.3,1.4,0.5,2.1c0,0.2,0.1,0.3,0.1,0.5c0.6,0,1.2,0,1.8,0.1c0,0.2,0.1,0.4,0.1,0.5
		c0,0.8,0,1.6,0,2.4c0,0.2,0,0.5,0,0.8c0.2,0,0.3,0.1,0.5,0.1c0.5,0,1,0,1.4,0c0.2,0,0.4,0,0.7,0c0,0.2,0.1,0.4,0.1,0.5
		c0,0.9,0,1.7,0,2.6c0,0.2,0,0.5,0,0.8c0.6,0.1,1.3,0,1.9,0.1c0.6,0,1.3,0,1.8,0c0.2,0.2,0.2,0.4,0.2,0.6c0,1.2,0,2.3,0,3.5
		c0,0.2,0,0.5,0,0.8c0.3,0.1,0.5,0.1,0.8,0.1c0.2,0.3,0,0.7,0.2,1.1c0.5,0.1,0.9,0,1.4,0.1c0.5,0,0.9,0,1.5,0
		c-0.1,0.2-0.1,0.3-0.2,0.3c-2.2,2.3-3.9,4.9-5.5,7.7c-1.4,2.6-2.6,5.2-3.8,7.9c-1.1,2.4-2.2,4.8-3.3,7.1c-0.8,1.7-1.8,3.2-2.9,4.7
		c-0.2,0.2-0.2,0.5-0.2,0.8c0.1,3.7,0.2,7.4,0.3,11.1c0.2,6.4,0.3,12.8,0.5,19.2c0.1,3.9,0.2,7.8,0.3,11.6
		c0.2,6.4,0.3,12.8,0.5,19.3c0.1,3.9,0.2,7.8,0.3,11.6c0.2,6.4,0.3,12.8,0.5,19.3c0.1,3.9,0.2,7.8,0.3,11.7
		c0.2,6.4,0.3,12.8,0.5,19.2c0.1,3.9,0.2,7.8,0.3,11.6c0.2,6.4,0.3,12.8,0.5,19.3c0.1,3.9,0.2,7.8,0.3,11.7c0,0.3,0,0.6,0,0.9
		c0.3,0,0.5,0.1,0.7,0.1c1.9,0.2,3.9,0.3,5.8,0.5c4.2,0.4,8.4,0.9,12.5,1.9c1.5,0.4,3,0.8,4.4,1.4c0.2,0.1,0.5,0.2,0.7,0.3
		c0,0.4,0,0.7,0,1.1c-0.6,0.2-1.1,0-1.7,0.2c0,0.2-0.1,0.3-0.1,0.5c0,0.8,0,1.6,0,2.3c0,1.9-0.8,3.2-2.4,4.2
		c-0.4,0.3-0.9,0.4-1.4,0.7c0,0.2-0.1,0.5-0.1,0.7c-0.1,0.6-0.2,1.2-0.6,1.8c-0.2,0.3-0.2,0.6-0.2,0.9c0,1.2,0,2.3,0,3.5
		c0,0.2,0,0.5,0,0.8c-0.8,0.1-1.5,0.1-2.2,0C595.5,346.4,562.6,347,547.6,347z M548.8,339.7 M545,339.4"/>
	<g>
		<g id="road_1_">
			<path class="st1" d="M495.4,373.8h222.4c9.5,0,17.1-7.7,17.1-17.1c0-2.9-0.7-5.6-2-8c-1.6-3-4.1-5.5-7.1-7.1c-2.4-1.3-5.1-2-8-2
				H32.2c-9.4,0-17.1,7.7-17.1,17.1c0,4,1.4,7.7,3.7,10.6c0.2,0.3,0.4,0.6,0.7,0.8c0,0,0.1,0.1,0.1,0.1l1.2,1.1c0,0,0.1,0.1,0.1,0.1
				c3,2.7,7,4.3,11.4,4.3h182.9"/>
			<g>
				<g>
					<line class="st9" x1="28.4" y1="355.2" x2="31.2" y2="355.2"/>
					<line class="st10" x1="38.8" y1="355.2" x2="713" y2="355.2"/>
					<line class="st9" x1="716.8" y1="355.2" x2="719.7" y2="355.2"/>
				</g>
			</g>
		</g>
	</g>
	<g>
		<path class="st0" d="M145.5,359.9c0,0.3-0.3,0.5-0.8,0.5l-4.4-0.1c-0.4,0-0.2-0.1-0.2-0.3V359c0-0.3,0.3-0.5,0.8-0.5h3.9
			c0.4,0,0.8,0.2,0.8,0.5V359.9z"/>
		<path class="st11" d="M57.4,350l25.8-4.2c0,0,5.9-6.7,8.5-8c3.4-1.6,11.3-1.3,15-1.3s11.6-0.3,15,1.3c2.9,1.3,9.2,8.8,9.2,8.8
			s11.6,0.1,14.8,2c0.5,0.3,1.8,1.4,1.9,2.1c0.4,2.2-1.9,6.7-3.5,8.3c-1.9,1.8-10.3,2.9-10.3,2.9s-5.5-7.5-8-7.3
			c-3,0.2-8.3,8.4-8.3,8.4l-37.4-1.4c0,0-5.9-7.3-9-7.5c-2.2-0.1-6.7,7.5-6.7,7.5l-8.5-3.6L57.4,350z"/>
		<path class="st2" d="M119.4,339l-27.3-0.1c-0.1,0-0.3,0.2-0.4,0.6c-0.9,2.7-2.7,7.2-3.4,8.9h34.8c-0.6-1.7-2.3-6.5-3.3-8.6
			C119.7,339.4,119.5,339.1,119.4,339z"/>
		<rect x="102.7" y="335.6" class="st1" width="2.8" height="19.2"/>
		<path class="st1" d="M102.4,350.7h-1.2c-0.6,0-1.1,0.5-1.1,1.1c0,0.6,0.5,1.1,1.1,1.1h1.2c0.6,0,1.1-0.5,1.1-1.1
			C103.5,351.2,103,350.7,102.4,350.7z"/>
		<rect x="102.7" y="347" class="st1" width="2.8" height="18.8"/>
		<path class="st1" d="M72.3,352c-4.5,0-8.1,3.6-8.1,8.1c0,0.5,0,0.9,0.1,1.4c0.1,0,0.2,0,0.3,0h15.7c0.1-0.4,0.1-0.9,0.1-1.4
			C80.4,355.6,76.8,352,72.3,352z"/>
		<g>
			<circle class="st0" cx="72.3" cy="360.1" r="5.8"/>
			<circle class="st2" cx="72.3" cy="360.1" r="3.1"/>
		</g>
		<path class="st1" d="M125.5,352.7c-4.8,0-8.7,3.9-8.7,8.7c0,0.5,0,1,0.2,1.5h14.5c1.1,0,2-0.5,2.6-1.3v-0.2
			C134.2,356.6,130.3,352.7,125.5,352.7z"/>
		<g>
			<circle class="st0" cx="125.5" cy="361.4" r="6.2"/>
			<circle class="st2" cx="125.5" cy="361.4" r="3.3"/>
		</g>
	</g>
	<g>
		<path class="st12" d="M228.2,306.2c0,0,0,0.7-0.2,0.9c-0.1,0.2-0.3,0.3-0.3,0.4c0,0.2,0.2,0.7,0.3,0.9c0,0.1-0.1,0.2-0.2,0.2
			c-0.1,0-0.2,0.1-0.2,0.1l0,0.3c0,0,0.1,0.1,0,0.2c-0.1,0.1-0.1,0.1-0.1,0.2c0,0.1-0.1,0.1-0.2,0.2c-0.1,0.1,0,0.2-0.3,0.5
			c-0.2,0.2-0.4,0.3-0.7,0.3c-0.3,0-0.4,0-0.4,0l0,0.2c0,0,0.8,0.7,1.3,1.4c0.4,0.7,2,5.1,2,5.4c0,0.3,0.1,0.3,0.2,0.6
			c0,0.2,0.4,0.4,0.2,0.7c-0.2,0.3-0.3,0.2-0.3,0.5c0,0.2-0.1,0.2,0,0.5c0.2,0.2,0.4,0.5,0.4,0.5s2.7-0.2,4.8,0.1
			c2.1,0.3,2.3,0.8,2.5,1c0.2,0.2,0.1,0.7,0.1,0.9c0,0.2-0.4,0.9-0.4,0.9s-2.8,2.5-3.9,3.2c-1.2,0.7-1.9,1.8-1.9,1.8
			s0.3,0.1,0.6,0.2c0.3,0.1,0.4,0.3,0.5,0.4c0.1,0.1,0.1,0.3,0,0.5c-0.1,0.2-0.2,0.3-0.2,0.3s-0.5-0.3-0.6-0.3c-0.1,0,0.3,1,0.8,1.4
			c0.5,0.4,0.7,0.7,0.6,1c-0.1,0.3-0.2,0.4-0.5,0.3c-0.3,0-0.3-0.1-0.3-0.1l-0.1,0.3l-0.2,0l0-0.3l-0.4-0.1l-0.1,0.2l-0.3-0.2
			l0.1-0.2l-0.4-0.2l-0.2,0.2l-0.3-0.2l0.2-0.3l-0.3-0.2l-0.3,0.2l-0.2-0.2l0.2-0.3c0,0-0.8-0.5-0.9-0.6c-0.1-0.1-0.2-0.1-0.2-0.1
			l-0.2,0.2l-0.3-0.2l0.2-0.2l-0.3-0.2c0,0,0.2,0.1-0.3,1c-0.5,0.8-0.7,1.3-0.7,1.3s-1.6,3.8-1.8,4.4c-0.2,0.7-0.1,0.7-0.1,0.7
			s0.4-0.2,0.8-0.3c0.5-0.1,0.6,0.2,0.6,0.3c0,0.1,0,0.2,0,0.2l-0.4,0.3c0,0-0.4,0.1,0.3,0.5c0.6,0.3,1.4,0.5,1.7,0.6
			c0.4,0.2,0.5,0.3,0.4,0.5c-0.1,0.2-0.2,0.4-0.4,0.4c-0.2,0-0.3,0.1-0.3,0.1l0,0.3l-0.3,0l0-0.3l-0.4,0l-0.1,0.3l-0.3,0l-0.1-0.3
			l-0.4,0l-0.1,0.3l-0.2,0l0-0.3c0,0-0.7-0.2-1.1-0.2c-0.4,0-0.5,0.1-0.5,0.1l-0.1,0.3c0,0-0.2,0-0.2,0c-0.1,0-0.1,0-0.1,0l0-0.3
			h-0.3l-0.1,0.3l-0.3,0l0-0.3c0,0-0.7-0.2-0.7-0.4c0-0.3,0-0.7,0.2-1.1c0.2-0.4,0.5-0.6,0.5-0.7c0.1-0.1,0.5-0.7,0.8-2.7
			c0.3-1.9,0.7-2.6,1.2-3.5c0.4-0.9,0.7-1.2,0.7-1.2s0.1-0.4,0.1-1.2c0-0.8-0.1-1.3-0.1-1.3s-0.7,0-0.9-0.2
			c-0.2-0.2-0.1-3.4-0.1-3.4s-0.8,0.2-0.7-1.4c0.1-1.5,0-2.3,0-2.3l-0.7-0.6c0,0-0.5,1.7-0.8,2.5c-0.3,0.8-0.5,1.6-0.5,2.1
			c0,0.5,0,0.6,0,0.9c0,0.2-0.5,0.7-0.6,1c-0.1,0.3-0.1,0.3-0.1,0.3s-0.2-0.1-0.2-0.2c0-0.1,0.1-0.4,0.1-0.4s-0.5,0.4-0.6,0.5
			c-0.1,0.2,0.1,0.5-0.2,0.5c-0.1,0-0.2-0.2-0.2-0.3c0-0.1,0-0.2,0-0.3c0.1-0.2,0.2-0.3,0.3-0.3c0,0-0.2,0.1-0.3,0.2
			c0,0.1-0.1,0.3-0.1,0.3s-0.2,0.1-0.3-0.1c-0.1-0.2,0-0.4,0-0.4s-0.2,0-0.2-0.2c0-0.1,0-0.1-0.1-0.3c-0.1-0.1-0.2-0.3-0.1-0.4
			c0-0.1,0.5-0.6,0.9-0.8c0.4-0.2,0.6-0.5,0.7-0.5c0.1,0,0.8-2.3,0.8-2.9c0-0.6,0.4-1.5,0.5-1.7c0-0.2,0.2-1.1,0.2-1.1
			s0.4-2.1,0.3-2.5c-0.1-0.4-0.4-0.2-0.2-0.9c0.2-0.8,0.8-2.4,0.8-2.9c0-0.5,0.5-1.6,0.5-1.6v-0.8c0,0,0,0.2-0.4-0.2
			c-0.4-0.4-0.3-0.4-0.3-0.4l0.1,0.4c0,0-0.3-0.3-0.3-0.7c-0.1-0.4-0.2-0.5-0.2-0.7c0-0.3-0.1-0.5-0.1-0.8c0-0.3,0.1-1.3,0.7-1.9
			c0.7-0.6,0.9-0.8,1.3-1c0.4-0.2,1.2-0.3,2,0.1c0.7,0.4,0.5,0.4,0.9,0.7c0.5,0.3,0.4,0.5,0.9,0.8c0.5,0.3,0.7,0.7,0.7,0.7l-0.3,0
			c0,0,0.3,0.3,0.3,0.5s0,0.3,0,0.3s0.1-0.2-0.1-0.4c-0.2-0.2-0.3-0.2-0.3-0.2L228.2,306.2L228.2,306.2z M232.1,312
			c1.4,0,2.6,1.2,2.6,2.6c0,1.5-1.2,2.6-2.6,2.6c-1.5,0-2.6-1.2-2.6-2.6C229.4,313.2,230.6,312,232.1,312L232.1,312z M228.4,326.1v1
			l0.3,0c0,0-0.2,0.5,1.2-0.8c1.5-1.3,2.7-3.2,2.7-3.2l-1.7,0.4c0,0-0.5,0.6-0.7,0.9c-0.2,0.4-0.4,0.7-0.4,0.7l0.1,0.7L228.4,326.1
			L228.4,326.1z"/>
		<circle class="st13" cx="226.9" cy="307" r="2.3"/>
	</g>
	<g>
		<path class="st12" d="M352.9,314.5c0,0-0.3,0.6-0.4,0.8c-0.1,0.1,0,0.8,0,0.8s1-0.1,1.4-0.1s1,0,1.4,0c0.1,0,0,0.1,0.1,0.1
			c0.4,0,1.2-0.1,1.2-0.1c0.2-1.1,0.6-2.4,0.7-3.5l0-0.1c0,0-0.3-0.1-0.4-0.3c-0.1-0.2-0.2-0.3-0.1-0.8c0-0.2,0.1-0.4,0.1-0.5
			c0-0.1-0.1-0.2,0-0.2c0.2,0,0.3,0.3,0.3,0.3s0.1,0.1,0.3,0.1c0.2,0,0.1,0.1,0.3,0.2c0.2,0.1,0.2,0.2,0.3,0.2
			c0.1,0,0.2,0.2,0.1,0.5c-0.1,0.4-0.2,0.6-0.2,0.8c0,0.2,0,0.4,0,0.6c0,1.2-0.1,3-0.1,3.2c0,0.2-0.8,0.5-1.3,0.7
			c-0.5,0.2-0.9,0.4-0.9,0.4s-0.4,0.9-0.8,1.1c-0.5,0.2-0.6,0.3-0.6,0.3s-0.2,2.7-0.3,3.5c-0.1,0.8-0.3,1.2-0.1,1.8
			c0.2,0.5,0.2,1.3,0.2,1.3l-0.2,0.1c0,0,0.3,2.7,0.3,2.8c0,0.1,0.1,0,0.1,0s0.1,0.6,0.1,0.7c0,0.1-0.3,0.2-0.3,0.2s-0.1,2.9,0,3.4
			c0.1,0.4,0.5,1.4,0.5,1.8c0,0.4-0.1,0.8-0.1,1.1c0,0.3,0,1.2,0,1.3c0,0.1-0.5,0.1-0.5,0.1l-0.2,0c0,0,0,1,0,1.3
			c0,0.3,0,0.9-0.1,1.1c-0.2,0.2-0.2,0.3-0.5,0.4c-0.3,0.1-0.8-0.5-0.8-0.8c0-0.3,0-1.1,0.1-1.5c0.1-0.4,0-1.1,0-1.1s-0.2,0-0.2-0.3
			c0-0.2,0-1,0-1s-0.1-0.4-0.1-1c0-0.6-0.2-1.3-0.2-1.9c0-0.6,0-1.3-0.3-2.1c-0.3-0.8-0.6-3.3-0.6-3.3s-0.3-0.3-0.4-0.1
			c-0.1,0.2-1.9,3.1-2,3.7c-0.1,0.6-0.5,1.3-0.7,1.6c-0.2,0.3-0.5,0.5-0.4,0.9c0.1,0.4,0.1,0.9,0,1.1c0,0.2-0.1,0.5-0.1,0.5
			s0.1,1.1-0.1,1.5c-0.1,0.3-0.6,0.9-1.1,0.8c-1.1-0.2-0.3-1.9-0.3-2.5c0,0-0.6-0.5-0.6-0.8c0-0.4,0.3-0.8,0.7-1.8
			c0.3-1,0.7-1.3,0.8-2.2c0.1-0.9,0.6-1,0.4-1.8c-0.2-0.7-0.3-0.7-0.2-1.2c0.1-0.5,0.5-1.1,0.5-1.1s-0.2-0.9,0.3-1.6
			c0.5-0.8,0.7-2.5,0.7-3.5c0-1,0-1.5,0-1.5s-0.3,0.2-0.5,0.2c-0.2,0-0.6-0.3-0.7-0.5c-0.1-0.2-0.2-0.3-0.2-0.3s-0.9,0-1.1,0
			c-0.2,0-0.5-0.2-0.5-0.5c-0.1-0.3-0.1-2.1,0-2.6c0-0.6,0.1-0.9,0.1-1.1c0-0.3-0.2-0.4-0.2-0.7c-0.1-0.2,0-0.5,0.1-0.5
			c0.1,0,0.1-0.1,0.3-0.2c0.2-0.1,0-0.2,0.3-0.2c0.2,0,0.3-0.1,0.3-0.1s0.1-0.3,0.3-0.3c0.1,0,0.1,0.1,0,0.2c0,0.1,0,0.2,0.1,0.5
			c0,0.5-0.1,0.6-0.1,0.8c-0.1,0.2-0.4,0.3-0.4,0.3s0.1,2,0.1,2.4c0.1,0.4,0.2,0.7,0.2,0.7s0.6-0.3,0.8-0.3c0.3-0.1,0.9-0.4,1.3-0.6
			c0.4-0.2,1.3-0.2,1.3-0.2c0.1,0,0.8,0.1,0.8,0.1l0-0.4c0,0-0.5-0.3-0.7-0.8c0-0.1-0.3,0-0.3-0.2c0,0,0-0.2-0.1-0.3
			c-0.1-0.2-0.1-0.4-0.1-0.5c0-0.1,0.1-0.1,0.1-0.1c-0.1-0.9-0.2-1.4,0.7-2c0.6-0.4,1.2-0.2,1.4-0.2c0.2,0.1,0.5,0,0.5,0
			s0.2,0.1,0.4,0.3c0.2,0.1,0.4,0.3,0.4,0.5c0.1,0.4,0.2,1.1,0.2,1.1s0.2,0,0.2,0.2c0,0.2-0.1,0.4-0.1,0.6
			C353.3,314.2,352.9,314.5,352.9,314.5L352.9,314.5z"/>
		<circle class="st13" cx="351.2" cy="313.3" r="1.9"/>
	</g>
	<g>
		<g>
			<g>
				<path class="st0" d="M525.9,75.6c0-0.2,0.1-0.3,0.1-0.5c0.1-2.1-1.6-3.8-3.7-3.9c-0.2,0-0.4,0-0.5,0c-0.9-2.5-3.3-4.3-6.1-4.6
					c-0.8-4.7-4.9-8.3-9.8-8.4c-2.7-0.1-5.3,0.9-7.2,2.6c-0.3-5.2-4.6-9.5-9.9-9.6c-5.4-0.2-10,3.9-10.5,9.2c-1.2-0.6-2.6-1-4.1-1
					c-5.2-0.2-9.6,3.7-10.2,8.7c-2.2,0.8-3.8,2.8-4,5.2c-0.5-0.2-1-0.3-1.6-0.4c-1.9-0.1-3.6,1-4.4,2.6H525.9z"/>
			</g>
		</g>
		<g>
			
				<ellipse transform="matrix(0.7187 -0.6953 0.6953 0.7187 16.8684 295.4158)" class="st0" cx="373.6" cy="126.9" rx="19.4" ry="19.4"/>
			<g>
				<path class="st0" d="M370.8,103.8l4.5-17.8l2.9,18.1C375.8,103.6,373.3,103.5,370.8,103.8z"/>
				<path class="st0" d="M390.3,110.7c-0.7-0.8-1.5-1.4-2.3-2.1l15.8-9.4L393,114.1C392.2,112.9,391.3,111.8,390.3,110.7z"/>
				<path class="st0" d="M345.9,96.7l14.9,10.8c-1.2,0.8-2.3,1.7-3.4,2.7c-0.8,0.7-1.4,1.5-2.1,2.3L345.9,96.7z"/>
				<path class="st0" d="M376.3,149.9l-4.5,17.8l-2.9-18.1C371.3,150.1,373.8,150.2,376.3,149.9z"/>
				<path class="st0" d="M356.8,143c0.7,0.8,1.5,1.4,2.3,2.1l-15.8,9.4l10.8-14.9C354.9,140.8,355.8,142,356.8,143z"/>
				<path class="st0" d="M350.5,129.6l-17.8-4.5l18.1-2.9C350.3,124.6,350.2,127.1,350.5,129.6z"/>
				<path class="st0" d="M396.8,124l17.8,4.5l-18.1,2.9C397,129,397.1,126.5,396.8,124z"/>
				<path class="st0" d="M389.7,143.6c0.8-0.7,1.4-1.5,2.1-2.3l9.4,15.8l-14.9-10.8C387.5,145.5,388.7,144.6,389.7,143.6z"/>
			</g>
		</g>
		<g>
			<path class="st0" d="M269.5,146.9c-0.6-0.2-1.2-0.3-1.9-0.4c-4.5-0.5-8.6,2.4-10,6.7c-0.7-0.5-0.1-8.8,8.5-8.7
				c0.6,0,1.1,0.2,1.7,0.3c1.1-4,4.9-6.7,9.2-6.3c0.9,0.1,1.8,0.3,2.6,0.7C274.9,139,270.7,142.2,269.5,146.9z"/>
			<path class="st0" d="M251.5,143.4c-0.5-0.2-1.1-0.3-1.7-0.4c-4-0.4-7.6,2.2-8.8,6c-0.6-0.4-0.1-7.8,7.5-7.7c0.5,0,1,0.2,1.5,0.3
				c1-3.5,4.4-6,8.1-5.6c0.8,0.1,1.6,0.3,2.3,0.6C256.3,136.5,252.6,139.3,251.5,143.4z"/>
			<path class="st0" d="M279.9,133.3c-0.4-0.6-0.9-1.2-1.5-1.8c-3.8-3.7-9.7-3.9-14.1-0.9c-0.3-1,6.2-8.3,14.1-1.9
				c0.5,0.4,0.9,1,1.3,1.5c3.9-2.9,9.4-2.7,13,0.7c0.8,0.7,1.4,1.6,1.9,2.5C290.5,129.8,284.3,129.8,279.9,133.3z"/>
		</g>
		<g>
			<g>
				<g>
					<path class="st0" d="M182.7,132.2c0-0.2,0.1-0.3,0.1-0.5c0.1-1.9-1.4-3.5-3.3-3.5c-0.2,0-0.3,0-0.5,0c-0.8-2.3-2.9-3.9-5.4-4.1
						c-0.8-4.2-4.4-7.4-8.8-7.6c-2.5-0.1-4.7,0.8-6.4,2.4c-0.3-4.7-4.1-8.5-8.9-8.7c-4.9-0.2-9,3.5-9.5,8.3
						c-1.1-0.5-2.3-0.9-3.7-0.9c-4.7-0.1-8.6,3.3-9.2,7.9c-2,0.7-3.4,2.5-3.6,4.7c-0.5-0.2-0.9-0.3-1.5-0.3c-1.7-0.1-3.2,0.9-4,2.3
						H182.7z"/>
				</g>
			</g>
			<g>
				<g>
					<path class="st0" d="M164.9,136.9c0-0.2,0.1-0.3,0.1-0.5c0.1-2.2-1.6-4-3.8-4.1c-0.2,0-0.4,0-0.5,0c-1-2.6-3.4-4.5-6.3-4.7
						c-0.9-4.9-5-8.6-10.2-8.8c-2.9-0.1-5.5,1-7.4,2.7c-0.3-5.4-4.8-9.8-10.3-10c-5.6-0.2-10.4,4.1-10.9,9.6c-1.3-0.6-2.7-1-4.2-1
						c-5.4-0.2-10,3.8-10.6,9.1c-2.3,0.8-4,2.9-4.1,5.4c-0.5-0.2-1.1-0.3-1.7-0.4c-2-0.1-3.7,1-4.6,2.7H164.9z"/>
				</g>
			</g>
		</g>
	</g>
</g>
</svg>
