<?xml version="1.0" encoding="utf-8"?>
<!-- Generator: Adobe Illustrator 21.0.0, SVG Export Plug-In . SVG Version: 6.00 Build 0)  -->
<svg version="1.1" id="Logo_1_" xmlns="http://www.w3.org/2000/svg" xmlns:xlink="http://www.w3.org/1999/xlink" x="0px" y="0px"
	 viewBox="0 0 343 112" style="enable-background:new 0 0 343 112;" xml:space="preserve">
<style type="text/css">
	.st0{display:none;}
	.st1{display:inline;fill:#2A2F46;}
	.st2{font-family:'ArialMT';}
	.st3{font-size:29.9908px;}
	.st4{fill:#FF2B06;}
	.st5{font-family:'Helvetica';}
	.st6{font-size:61.3515px;}
</style>
<g id="Cascadia" class="st0">
	<text transform="matrix(0.9995 0 0 1 106.5161 63.9993)" class="st1 st2 st3">Cascadia</text>
</g>
<g>
	<path class="st4" d="M9.1,77l-3.2-4.6h3l1.7,2.5l1.7-2.5h2.9L12.1,77l3.6,5.1h-3l-2-3l-2,3h-3L9.1,77z"/>
	<path d="M28.1,76.4h-9.4v-2h9.4V76.4z M28.1,80.4h-9.4v-2h9.4V80.4z"/>
	<path d="M35.3,71h-2.6v-2.2h2.6V71z M32.7,72.5h2.6v9.6h-2.6V72.5z"/>
	<path d="M37,72.5h2.5v1.3h0.1c0.7-1.1,1.8-1.6,2.9-1.6c2.8,0,3.5,1.6,3.5,4v5.9h-2.6v-5.4c0-1.6-0.5-2.4-1.7-2.4
		c-1.4,0-2,0.8-2,2.8v5H37V72.5z"/>
	<path d="M54.5,80.9L54.5,80.9c-0.7,1-1.7,1.5-3,1.5c-2.9,0-4.3-2.5-4.3-5.1c0-2.6,1.4-5,4.3-5c1.1,0,2.2,0.5,2.9,1.4h0h0v-4.8h2.6
		v13.3h-2.5V80.9z M52.2,74.2c-1.7,0-2.3,1.5-2.3,3.1c0,1.5,0.7,3.1,2.3,3.1c1.7,0,2.3-1.5,2.3-3.1C54.5,75.7,53.9,74.2,52.2,74.2z"
		/>
	<path d="M60.8,77.9c0.1,1.7,0.9,2.4,2.4,2.4c1.1,0,1.9-0.7,2.1-1.2h2.3c-0.7,2.3-2.3,3.2-4.5,3.2c-3,0-4.9-2.1-4.9-5.1
		c0-2.9,2-5.1,4.9-5.1c3.3,0,4.9,2.8,4.7,5.7H60.8z M65.1,76.2c-0.2-1.3-0.8-2-2.1-2c-1.7,0-2.2,1.3-2.2,2H65.1z"/>
	<path d="M69,72.5h2.5v1.2h0c0.6-1,1.7-1.5,2.9-1.5c3,0,4.4,2.4,4.4,5.2c0,2.6-1.4,5-4.2,5c-1.2,0-2.2-0.5-2.9-1.4h0v4.6H69V72.5z
		 M76.1,77.3c0-1.5-0.6-3.1-2.3-3.1c-1.7,0-2.3,1.5-2.3,3.1c0,1.6,0.6,3,2.3,3C75.5,80.3,76.1,78.9,76.1,77.3z"/>
	<path d="M82.1,77.9c0.1,1.7,0.9,2.4,2.4,2.4c1.1,0,1.9-0.7,2.1-1.2h2.3c-0.7,2.3-2.3,3.2-4.5,3.2c-3,0-4.9-2.1-4.9-5.1
		c0-2.9,2-5.1,4.9-5.1c3.3,0,4.9,2.8,4.7,5.7H82.1z M86.4,76.2c-0.2-1.3-0.8-2-2.1-2c-1.7,0-2.2,1.3-2.2,2H86.4z"/>
	<path d="M90.2,72.5h2.5v1.3h0.1c0.7-1.1,1.8-1.6,2.9-1.6c2.8,0,3.5,1.6,3.5,4v5.9h-2.6v-5.4c0-1.6-0.5-2.4-1.7-2.4
		c-1.4,0-2,0.8-2,2.8v5h-2.6V72.5z"/>
	<path d="M107.8,80.9L107.8,80.9c-0.7,1-1.7,1.5-3,1.5c-2.9,0-4.3-2.5-4.3-5.1c0-2.6,1.4-5,4.3-5c1.1,0,2.2,0.5,2.9,1.4h0h0v-4.8
		h2.6v13.3h-2.5V80.9z M105.5,74.2c-1.7,0-2.3,1.5-2.3,3.1c0,1.5,0.7,3.1,2.3,3.1c1.7,0,2.3-1.5,2.3-3.1
		C107.7,75.7,107.2,74.2,105.5,74.2z"/>
	<path d="M114.1,77.9c0.1,1.7,0.9,2.4,2.4,2.4c1.1,0,1.9-0.7,2.1-1.2h2.3c-0.7,2.3-2.3,3.2-4.5,3.2c-3,0-4.9-2.1-4.9-5.1
		c0-2.9,2-5.1,4.9-5.1c3.3,0,4.9,2.8,4.7,5.7H114.1z M118.4,76.2c-0.2-1.3-0.8-2-2.1-2c-1.7,0-2.2,1.3-2.2,2H118.4z"/>
	<path d="M122.2,72.5h2.5v1.3h0.1c0.7-1.1,1.8-1.6,2.9-1.6c2.8,0,3.5,1.6,3.5,4v5.9h-2.6v-5.4c0-1.6-0.5-2.4-1.7-2.4
		c-1.4,0-2,0.8-2,2.8v5h-2.6V72.5z"/>
	<path d="M136.2,72.5h1.9v1.8h-1.9V79c0,0.9,0.2,1.1,1.1,1.1c0.3,0,0.5,0,0.8-0.1v2.1c-0.4,0.1-1,0.1-1.5,0.1c-1.6,0-3-0.4-3-2.3
		v-5.7h-1.6v-1.8h1.6v-2.9h2.6V72.5z"/>
	<path d="M139.1,68.8h2.6v13.3h-2.6V68.8z"/>
	<path d="M148.2,83.3c-0.6,1.5-1.5,2.2-3.3,2.2c-0.5,0-1.1,0-1.6-0.1v-2.2c0.5,0,1,0.1,1.5,0.1c0.9-0.1,1.2-1,0.9-1.8l-3.4-9h2.8
		l2.2,6.6h0l2.1-6.6h2.7L148.2,83.3z"/>
	<g>
		<path d="M10.3,92.1c3,0,5,2,5,5.1c0,3-2,5.1-5,5.1c-3,0-5-2-5-5.1C5.4,94.1,7.3,92.1,10.3,92.1z M10.3,100.2
			c1.8,0,2.3-1.5,2.3-3.1c0-1.5-0.5-3.1-2.3-3.1c-1.8,0-2.3,1.5-2.3,3.1C8,98.7,8.5,100.2,10.3,100.2z"/>
		<path d="M16.3,92.3h2.5v1.8h0c0.5-1.2,1.8-2,3.1-2c0.2,0,0.4,0,0.6,0.1v2.5c-0.2-0.1-0.6-0.1-0.9-0.1c-1.9,0-2.6,1.4-2.6,3.1v4.3
			h-2.6V92.3z"/>
		<path d="M32.4,101.3c0,1.6-0.6,4.3-5,4.3c-1.9,0-4.1-0.9-4.2-3.1h2.6c0.2,1,1,1.3,2,1.3c1.5,0,2.1-1,2.1-2.4v-1.3h0
			c-0.6,1-1.7,1.5-2.9,1.5c-2.9,0-4.1-2.2-4.1-4.8c0-2.5,1.4-4.8,4.1-4.8c1.3,0,2.2,0.4,2.9,1.5h0v-1.3h2.5V101.3z M29.9,97
			c0-1.6-0.5-3-2.2-3c-1.5,0-2.1,1.3-2.1,2.7c0,1.4,0.5,2.9,2.1,2.9C29.1,99.7,29.9,98.4,29.9,97z"/>
		<path d="M33.6,95.3c0.1-2.5,2.4-3.2,4.5-3.2c1.9,0,4.2,0.4,4.2,2.7v5c0,0.9,0.1,1.7,0.3,2.1H40c-0.1-0.3-0.2-0.6-0.2-0.9
			c-0.8,0.9-2.1,1.2-3.2,1.2c-1.8,0-3.3-0.9-3.3-2.9c0-2.2,1.6-2.7,3.3-2.9c1.6-0.2,3.1-0.2,3.1-1.3c0-1.1-0.8-1.3-1.7-1.3
			c-1,0-1.7,0.4-1.7,1.4H33.6z M39.7,97.2c-0.4,0.4-1.4,0.4-2.2,0.6C36.7,98,36,98.2,36,99.2c0,1,0.8,1.2,1.6,1.2
			c2.1,0,2.1-1.6,2.1-2.2V97.2z"/>
		<path d="M44,92.3h2.5v1.3h0.1c0.7-1.1,1.8-1.6,2.9-1.6c2.8,0,3.5,1.6,3.5,4v5.9h-2.6v-5.4c0-1.6-0.5-2.4-1.7-2.4
			c-1.4,0-2,0.8-2,2.8v5H44V92.3z"/>
		<path d="M57,90.9h-2.6v-2.2H57V90.9z M54.4,92.3H57v9.6h-2.6V92.3z"/>
		<path d="M58.1,100l5-5.6h-4.6v-2h8.1v2l-5,5.6H67v2h-8.8V100z"/>
		<path d="M70.2,97.8c0.1,1.7,0.9,2.4,2.4,2.4c1.1,0,1.9-0.7,2.1-1.2H77c-0.7,2.3-2.3,3.2-4.5,3.2c-3,0-4.9-2.1-4.9-5.1
			c0-2.9,2-5.1,4.9-5.1c3.3,0,4.9,2.8,4.7,5.7H70.2z M74.5,96.1c-0.2-1.3-0.8-2-2.1-2c-1.7,0-2.2,1.3-2.2,2H74.5z"/>
		<path d="M85.2,100.7L85.2,100.7c-0.7,1-1.7,1.5-3,1.5c-2.9,0-4.3-2.5-4.3-5.1c0-2.6,1.4-5,4.3-5c1.1,0,2.2,0.5,2.9,1.4h0h0v-4.8
			h2.6v13.3h-2.5V100.7z M82.9,94.1c-1.7,0-2.3,1.5-2.3,3.1c0,1.5,0.7,3.1,2.3,3.1c1.7,0,2.3-1.5,2.3-3.1
			C85.1,95.6,84.6,94.1,82.9,94.1z"/>
		<path d="M97.3,91.1h-4v-2.5h10.9v2.5h-4v10.8h-2.9V91.1z"/>
		<path d="M105.4,88.7h9.9v2.5h-7V94h6.4v2.3h-6.4v3.3h7.2v2.5h-10.1V88.7z"/>
		<path d="M116.7,88.7h5.7c3.4,0,6,2.2,6,6.6c0,3.8-2,6.7-6,6.7h-5.7V88.7z M119.6,99.5h2.6c1.7,0,3.3-1,3.3-4
			c0-2.7-0.9-4.4-3.8-4.4h-2.1V99.5z"/>
		<path d="M136.7,97.8c0.1,1.7,0.9,2.4,2.4,2.4c1.1,0,1.9-0.7,2.1-1.2h2.3c-0.7,2.3-2.3,3.2-4.5,3.2c-3,0-4.9-2.1-4.9-5.1
			c0-2.9,2-5.1,4.9-5.1c3.3,0,4.9,2.8,4.7,5.7H136.7z M141,96.1c-0.2-1.3-0.8-2-2.1-2c-1.7,0-2.2,1.3-2.2,2H141z"/>
		<path d="M149.8,101.9h-2.9l-3.3-9.6h2.8l2,6.6h0l2-6.6h2.6L149.8,101.9z"/>
		<path d="M155.6,97.8c0.1,1.7,0.9,2.4,2.4,2.4c1.1,0,1.9-0.7,2.1-1.2h2.3c-0.7,2.3-2.3,3.2-4.5,3.2c-3,0-4.9-2.1-4.9-5.1
			c0-2.9,2-5.1,4.9-5.1c3.3,0,4.9,2.8,4.7,5.7H155.6z M159.9,96.1c-0.2-1.3-0.8-2-2.1-2c-1.7,0-2.2,1.3-2.2,2H159.9z"/>
		<path d="M163.7,92.3h2.5v1.3h0.1c0.7-1.1,1.8-1.6,2.9-1.6c2.8,0,3.5,1.6,3.5,4v5.9h-2.6v-5.4c0-1.6-0.5-2.4-1.7-2.4
			c-1.4,0-2,0.8-2,2.8v5h-2.6V92.3z"/>
		<path d="M177.7,92.3h1.9v1.8h-1.9v4.8c0,0.9,0.2,1.1,1.1,1.1c0.3,0,0.5,0,0.8-0.1v2.1c-0.4,0.1-1,0.1-1.5,0.1c-1.6,0-3-0.4-3-2.3
			v-5.7h-1.6v-1.8h1.6v-2.9h2.6V92.3z"/>
	</g>
	<g>
		<g>
			<path class="st4" d="M17.1,24.9H4.7V13.6H43v11.3H30.7v32.9H17.1V24.9z"/>
			<path class="st4" d="M45.2,13.6h37.2v11.3H58.8v5.5h23.6v10.5H58.8v5.5h23.6v11.3H45.2V13.6z"/>
			<path class="st4" d="M84.7,13.6H107c14.7,0,19.9,10.9,19.9,22c0,13.6-7.2,22.2-22.6,22.2H84.7V13.6z M98.3,46.4h5.3
				c8.5,0,9.7-6.9,9.7-11c0-2.8-0.9-10.5-10.7-10.5h-4.3V46.4z"/>
		</g>
		<g>
			<g>
				<path class="st4" d="M146.5,40.7l-4.2-6.9l-4,6.9h-10l9.5-13.9l-9.1-13.3h10l3.7,6.6l3.8-6.6h10L147,26.8l9.5,13.9H146.5z"/>
			</g>
		</g>
	</g>
	<text transform="matrix(1 0 0 1 159.0361 57.7594)" class="st5 st6">Tehran</text>
</g>
</svg>
